#N canvas 0 25 1028 704 10;
#X obj 29 29 inlet;
#X obj 234 206 *~;
#X obj 261 206 *~;
#X obj 287 206 *~;
#X obj 314 206 *~;
#X obj 342 206 *~;
#X obj 369 206 *~;
#X obj 395 206 *~;
#X obj 433 207 *~;
#X obj 249 171 t f;
#X obj 276 171 t f;
#X obj 302 171 t f;
#X obj 329 171 t f;
#X obj 357 172 t f;
#X obj 384 172 t f;
#X obj 410 172 t f;
#X obj 440 172 t f;
#X obj 144 78 route 0 1 2 3 4 5 6 7 8 9 10 11 12 13 14 15;
#X obj 502 80 adc~ 1 2 3 4 5 6 7 8 9 10 11 12 13 14 15 16;
#X obj 474 171 t f;
#X obj 509 172 t f;
#X obj 541 172 t f;
#X obj 572 174 t f;
#X obj 606 175 t f;
#X obj 635 175 t f;
#X obj 660 175 t f;
#X obj 693 172 t f;
#X obj 478 208 *~;
#X obj 509 206 *~;
#X obj 541 208 *~;
#X obj 574 209 *~;
#X obj 604 209 *~;
#X obj 633 206 *~;
#X obj 660 206 *~;
#X obj 695 204 *~;
#X obj 489 423 outlet~;
#X obj 100 280 inlet~;
#X obj 159 280 inlet~;
#X obj 213 282 inlet~;
#X obj 257 274 inlet~;
#X obj 363 271 inlet~;
#X obj 315 270 inlet~;
#X obj 414 268 inlet~;
#X obj 463 270 inlet~;
#X obj 511 269 inlet~;
#X obj 557 269 inlet~;
#X obj 603 268 inlet~;
#X obj 648 275 inlet~;
#X obj 692 274 inlet~;
#X obj 739 268 inlet~;
#X obj 783 268 inlet~;
#X obj 857 277 inlet~;
#N canvas 133 73 874 467 eq 0;
#X obj 10 3 cnv 15 150 300 empty empty empty 20 12 0 14 -24198 -66577
0;
#N canvas 0 0 454 304 using 0;
#X obj 67 239 outlet~;
#X obj 65 134 biquad~;
#X obj 66 154 biquad~;
#X obj 66 174 biquad~;
#X obj 35 110 lowpass 370 310;
#X obj 194 134 biquad~;
#X obj 193 154 biquad~;
#X obj 194 174 biquad~;
#X obj 163 111 bandpass 1175 490;
#X obj 305 111 highpass 2350 130;
#X obj 334 134 biquad~;
#X obj 334 154 biquad~;
#X obj 163 25 loadbang;
#X obj 193 239 outlet~;
#X obj 335 239 outlet~;
#X obj 66 25 inlet~ signal;
#X obj 235 54 switch~;
#X obj 235 25 inlet switch;
#X connect 1 0 2 0;
#X connect 2 0 3 0;
#X connect 3 0 0 0;
#X connect 4 0 1 0;
#X connect 4 0 2 0;
#X connect 4 0 3 0;
#X connect 5 0 6 0;
#X connect 6 0 7 0;
#X connect 7 0 13 0;
#X connect 8 0 5 0;
#X connect 8 0 6 0;
#X connect 8 0 7 0;
#X connect 9 0 10 0;
#X connect 9 0 11 0;
#X connect 10 0 11 0;
#X connect 11 0 14 0;
#X connect 12 0 4 0;
#X connect 12 0 8 0;
#X connect 12 0 9 0;
#X connect 15 0 1 0;
#X connect 15 0 5 0;
#X connect 15 0 10 0;
#X connect 17 0 16 0;
#X restore 241 138 pd using GGEE filter objects;
#X obj 185 23 tgl 15 1 empty empty empty 0 -6 0 8 -258699 -1 -1 1 1
;
#X obj 24 171 hsl 128 15 0 1 0 1 empty empty dry/wet -2 -6 0 8 -241291
-1 -1 12700 1;
#X obj 15 22 vsl 15 128 0 1 0 1 empty empty BASS 0 -8 0 8 -44926 -1
-1 5900 1;
#X obj 64 27 vsl 15 128 1 0 0 1 empty empty MIDS 0 -8 0 8 -44926 -1
-1 11700 1;
#X obj 135 17 vsl 15 128 1 0 0 1 empty empty HIGHS 0 -8 0 8 -44926
-1 -1 8800 1;
#N canvas 401 243 540 481 output_mixer 0;
#X obj 39 11 inlet dry/wet;
#X obj 22 -19 inlet~ dry;
#X obj 248 -19 inlet~ bass;
#X obj 338 -19 inlet~ mids;
#X obj 424 -19 inlet~ highs;
#X obj 87 35 inlet bass;
#X obj 127 60 inlet mids;
#X obj 157 86 inlet highs;
#X obj 22 327 outlet~;
#X obj 111 235 *~;
#X obj 141 235 *~;
#X obj 71 235 *~;
#X obj 23 288 *~;
#X obj 70 288 *~;
#X obj 39 35 * -1;
#X obj 39 57 + 1;
#X connect 0 0 14 0;
#X connect 0 0 13 1;
#X connect 1 0 12 0;
#X connect 2 0 11 0;
#X connect 3 0 9 0;
#X connect 4 0 10 0;
#X connect 5 0 11 1;
#X connect 6 0 9 1;
#X connect 7 0 10 1;
#X connect 9 0 13 0;
#X connect 10 0 13 0;
#X connect 11 0 13 0;
#X connect 12 0 8 0;
#X connect 13 0 8 0;
#X connect 14 0 15 0;
#X connect 15 0 12 1;
#X restore 170 246 pd output_mixer;
#X obj 432 78 tgl 15 1 empty empty ON 0 -6 0 8 -258699 -1 -1 1 1;
#X obj 403 3 cnv 15 255 20 empty empty empty 20 12 0 14 -24198 -66577
0;
#X obj 169 50 *~;
#X obj 168 2 inlet~;
#X obj 170 278 outlet~;
#X obj 261 10 inlet;
#X obj 307 24 inlet;
#X obj 356 47 inlet;
#X obj 43 338 print;
#X connect 1 0 7 5;
#X connect 1 1 7 6;
#X connect 1 2 7 7;
#X connect 2 0 10 1;
#X connect 3 0 7 1;
#X connect 4 0 7 2;
#X connect 4 0 16 0;
#X connect 5 0 7 3;
#X connect 6 0 7 4;
#X connect 7 0 12 0;
#X connect 8 0 1 1;
#X connect 10 0 7 0;
#X connect 10 0 1 0;
#X connect 11 0 10 0;
#X connect 13 0 4 0;
#X connect 14 0 5 0;
#X connect 15 0 6 0;
#X restore 91 314 pd eq;
#N canvas 133 73 834 427 eq 0;
#X obj 10 3 cnv 15 150 300 empty empty empty 20 12 0 14 -24198 -66577
0;
#N canvas 0 0 454 304 using 0;
#X obj 67 239 outlet~;
#X obj 65 134 biquad~;
#X obj 66 154 biquad~;
#X obj 66 174 biquad~;
#X obj 35 110 lowpass 370 310;
#X obj 194 134 biquad~;
#X obj 193 154 biquad~;
#X obj 194 174 biquad~;
#X obj 163 111 bandpass 1175 490;
#X obj 305 111 highpass 2350 130;
#X obj 334 134 biquad~;
#X obj 334 154 biquad~;
#X obj 163 25 loadbang;
#X obj 193 239 outlet~;
#X obj 335 239 outlet~;
#X obj 66 25 inlet~ signal;
#X obj 235 54 switch~;
#X obj 235 25 inlet switch;
#X connect 1 0 2 0;
#X connect 2 0 3 0;
#X connect 3 0 0 0;
#X connect 4 0 1 0;
#X connect 4 0 2 0;
#X connect 4 0 3 0;
#X connect 5 0 6 0;
#X connect 6 0 7 0;
#X connect 7 0 13 0;
#X connect 8 0 5 0;
#X connect 8 0 6 0;
#X connect 8 0 7 0;
#X connect 9 0 10 0;
#X connect 9 0 11 0;
#X connect 10 0 11 0;
#X connect 11 0 14 0;
#X connect 12 0 4 0;
#X connect 12 0 8 0;
#X connect 12 0 9 0;
#X connect 15 0 1 0;
#X connect 15 0 5 0;
#X connect 15 0 10 0;
#X connect 17 0 16 0;
#X restore 241 140 pd using GGEE filter objects;
#X obj 185 23 tgl 15 1 empty empty empty 0 -6 0 8 -258699 -1 -1 1 1
;
#X obj 24 171 hsl 128 15 0 1 0 1 empty empty dry/wet -2 -6 0 8 -241291
-1 -1 12700 1;
#X obj 21 17 vsl 15 128 0 1 0 1 empty empty BASS 0 -8 0 8 -44926 -1
-1 2100 1;
#X obj 76 17 vsl 15 128 0 1 0 1 empty empty MIDS 0 -8 0 8 -44926 -1
-1 4900 1;
#X obj 135 17 vsl 15 128 0 1 0 1 empty empty HIGHS 0 -8 0 8 -44926
-1 -1 3700 1;
#N canvas 401 243 540 481 output_mixer 0;
#X obj 39 11 inlet dry/wet;
#X obj 22 -19 inlet~ dry;
#X obj 248 -19 inlet~ bass;
#X obj 338 -19 inlet~ mids;
#X obj 424 -19 inlet~ highs;
#X obj 87 35 inlet bass;
#X obj 127 60 inlet mids;
#X obj 157 86 inlet highs;
#X obj 22 327 outlet~;
#X obj 111 235 *~;
#X obj 141 235 *~;
#X obj 71 235 *~;
#X obj 23 288 *~;
#X obj 70 288 *~;
#X obj 39 35 * -1;
#X obj 39 57 + 1;
#X connect 0 0 14 0;
#X connect 0 0 13 1;
#X connect 1 0 12 0;
#X connect 2 0 11 0;
#X connect 3 0 9 0;
#X connect 4 0 10 0;
#X connect 5 0 11 1;
#X connect 6 0 9 1;
#X connect 7 0 10 1;
#X connect 9 0 13 0;
#X connect 10 0 13 0;
#X connect 11 0 13 0;
#X connect 12 0 8 0;
#X connect 13 0 8 0;
#X connect 14 0 15 0;
#X connect 15 0 12 1;
#X restore 170 246 pd output_mixer;
#X obj 432 78 tgl 15 1 empty empty ON 0 -6 0 8 -258699 -1 -1 1 1;
#X obj 403 3 cnv 15 255 20 empty empty empty 20 12 0 14 -24198 -66577
0;
#X obj 169 50 *~;
#X obj 168 2 inlet~;
#X obj 170 278 outlet~;
#X obj 261 10 inlet;
#X obj 307 24 inlet;
#X obj 356 47 inlet;
#X connect 1 0 7 5;
#X connect 1 1 7 6;
#X connect 1 2 7 7;
#X connect 2 0 10 1;
#X connect 3 0 7 1;
#X connect 4 0 7 2;
#X connect 5 0 7 3;
#X connect 6 0 7 4;
#X connect 7 0 12 0;
#X connect 8 0 1 1;
#X connect 10 0 7 0;
#X connect 10 0 1 0;
#X connect 11 0 10 0;
#X connect 13 0 4 0;
#X connect 14 0 5 0;
#X connect 15 0 6 0;
#X restore 466 310 pd eq;
#N canvas 133 73 834 427 eq 0;
#X obj 10 3 cnv 15 150 300 empty empty empty 20 12 0 14 -24198 -66577
0;
#N canvas 0 0 454 304 using 0;
#X obj 67 239 outlet~;
#X obj 65 134 biquad~;
#X obj 66 154 biquad~;
#X obj 66 174 biquad~;
#X obj 35 110 lowpass 370 310;
#X obj 194 134 biquad~;
#X obj 193 154 biquad~;
#X obj 194 174 biquad~;
#X obj 163 111 bandpass 1175 490;
#X obj 305 111 highpass 2350 130;
#X obj 334 134 biquad~;
#X obj 334 154 biquad~;
#X obj 163 25 loadbang;
#X obj 193 239 outlet~;
#X obj 335 239 outlet~;
#X obj 66 25 inlet~ signal;
#X obj 235 54 switch~;
#X obj 235 25 inlet switch;
#X connect 1 0 2 0;
#X connect 2 0 3 0;
#X connect 3 0 0 0;
#X connect 4 0 1 0;
#X connect 4 0 2 0;
#X connect 4 0 3 0;
#X connect 5 0 6 0;
#X connect 6 0 7 0;
#X connect 7 0 13 0;
#X connect 8 0 5 0;
#X connect 8 0 6 0;
#X connect 8 0 7 0;
#X connect 9 0 10 0;
#X connect 9 0 11 0;
#X connect 10 0 11 0;
#X connect 11 0 14 0;
#X connect 12 0 4 0;
#X connect 12 0 8 0;
#X connect 12 0 9 0;
#X connect 15 0 1 0;
#X connect 15 0 5 0;
#X connect 15 0 10 0;
#X connect 17 0 16 0;
#X restore 241 140 pd using GGEE filter objects;
#X obj 185 23 tgl 15 1 empty empty empty 0 -6 0 8 -258699 -1 -1 1 1
;
#X obj 24 171 hsl 128 15 0 1 0 1 empty empty dry/wet -2 -6 0 8 -241291
-1 -1 12700 1;
#X obj 21 17 vsl 15 128 0 1 0 1 empty empty BASS 0 -8 0 8 -44926 -1
-1 6100 1;
#X obj 76 17 vsl 15 128 0 1 0 1 empty empty MIDS 0 -8 0 8 -44926 -1
-1 4800 1;
#X obj 135 17 vsl 15 128 0 1 0 1 empty empty HIGHS 0 -8 0 8 -44926
-1 -1 7200 1;
#N canvas 401 243 540 481 output_mixer 0;
#X obj 39 11 inlet dry/wet;
#X obj 22 -19 inlet~ dry;
#X obj 248 -19 inlet~ bass;
#X obj 338 -19 inlet~ mids;
#X obj 424 -19 inlet~ highs;
#X obj 87 35 inlet bass;
#X obj 127 60 inlet mids;
#X obj 157 86 inlet highs;
#X obj 22 327 outlet~;
#X obj 111 235 *~;
#X obj 141 235 *~;
#X obj 71 235 *~;
#X obj 23 288 *~;
#X obj 70 288 *~;
#X obj 39 35 * -1;
#X obj 39 57 + 1;
#X connect 0 0 14 0;
#X connect 0 0 13 1;
#X connect 1 0 12 0;
#X connect 2 0 11 0;
#X connect 3 0 9 0;
#X connect 4 0 10 0;
#X connect 5 0 11 1;
#X connect 6 0 9 1;
#X connect 7 0 10 1;
#X connect 9 0 13 0;
#X connect 10 0 13 0;
#X connect 11 0 13 0;
#X connect 12 0 8 0;
#X connect 13 0 8 0;
#X connect 14 0 15 0;
#X connect 15 0 12 1;
#X restore 170 246 pd output_mixer;
#X obj 432 78 tgl 15 1 empty empty ON 0 -6 0 8 -258699 -1 -1 1 1;
#X obj 403 3 cnv 15 255 20 empty empty empty 20 12 0 14 -24198 -66577
0;
#X obj 169 50 *~;
#X obj 168 2 inlet~;
#X obj 170 278 outlet~;
#X obj 243 14 inlet;
#X obj 289 28 inlet;
#X obj 338 51 inlet;
#X connect 1 0 7 5;
#X connect 1 1 7 6;
#X connect 1 2 7 7;
#X connect 2 0 10 1;
#X connect 3 0 7 1;
#X connect 4 0 7 2;
#X connect 5 0 7 3;
#X connect 6 0 7 4;
#X connect 7 0 12 0;
#X connect 8 0 1 1;
#X connect 10 0 7 0;
#X connect 10 0 1 0;
#X connect 11 0 10 0;
#X connect 13 0 4 0;
#X connect 14 0 5 0;
#X connect 15 0 6 0;
#X restore 507 312 pd eq;
#N canvas 133 73 834 427 eq 0;
#X obj 10 3 cnv 15 150 300 empty empty empty 20 12 0 14 -24198 -66577
0;
#N canvas 0 0 454 304 using 0;
#X obj 67 239 outlet~;
#X obj 65 134 biquad~;
#X obj 66 154 biquad~;
#X obj 66 174 biquad~;
#X obj 35 110 lowpass 370 310;
#X obj 194 134 biquad~;
#X obj 193 154 biquad~;
#X obj 194 174 biquad~;
#X obj 163 111 bandpass 1175 490;
#X obj 305 111 highpass 2350 130;
#X obj 334 134 biquad~;
#X obj 334 154 biquad~;
#X obj 163 25 loadbang;
#X obj 193 239 outlet~;
#X obj 335 239 outlet~;
#X obj 66 25 inlet~ signal;
#X obj 235 54 switch~;
#X obj 235 25 inlet switch;
#X connect 1 0 2 0;
#X connect 2 0 3 0;
#X connect 3 0 0 0;
#X connect 4 0 1 0;
#X connect 4 0 2 0;
#X connect 4 0 3 0;
#X connect 5 0 6 0;
#X connect 6 0 7 0;
#X connect 7 0 13 0;
#X connect 8 0 5 0;
#X connect 8 0 6 0;
#X connect 8 0 7 0;
#X connect 9 0 10 0;
#X connect 9 0 11 0;
#X connect 10 0 11 0;
#X connect 11 0 14 0;
#X connect 12 0 4 0;
#X connect 12 0 8 0;
#X connect 12 0 9 0;
#X connect 15 0 1 0;
#X connect 15 0 5 0;
#X connect 15 0 10 0;
#X connect 17 0 16 0;
#X restore 241 140 pd using GGEE filter objects;
#X obj 185 23 tgl 15 1 empty empty empty 0 -6 0 8 -258699 -1 -1 1 1
;
#X obj 24 171 hsl 128 15 0 1 0 1 empty empty dry/wet -2 -6 0 8 -241291
-1 -1 12700 1;
#X obj 21 17 vsl 15 128 0 1 0 1 empty empty BASS 0 -8 0 8 -44926 -1
-1 2300 1;
#X obj 76 17 vsl 15 128 0 1 0 1 empty empty MIDS 0 -8 0 8 -44926 -1
-1 2100 1;
#X obj 135 17 vsl 15 128 0 1 0 1 empty empty HIGHS 0 -8 0 8 -44926
-1 -1 2400 1;
#N canvas 401 243 540 481 output_mixer 0;
#X obj 39 11 inlet dry/wet;
#X obj 22 -19 inlet~ dry;
#X obj 248 -19 inlet~ bass;
#X obj 338 -19 inlet~ mids;
#X obj 424 -19 inlet~ highs;
#X obj 87 35 inlet bass;
#X obj 127 60 inlet mids;
#X obj 157 86 inlet highs;
#X obj 22 327 outlet~;
#X obj 111 235 *~;
#X obj 141 235 *~;
#X obj 71 235 *~;
#X obj 23 288 *~;
#X obj 70 288 *~;
#X obj 39 35 * -1;
#X obj 39 57 + 1;
#X connect 0 0 14 0;
#X connect 0 0 13 1;
#X connect 1 0 12 0;
#X connect 2 0 11 0;
#X connect 3 0 9 0;
#X connect 4 0 10 0;
#X connect 5 0 11 1;
#X connect 6 0 9 1;
#X connect 7 0 10 1;
#X connect 9 0 13 0;
#X connect 10 0 13 0;
#X connect 11 0 13 0;
#X connect 12 0 8 0;
#X connect 13 0 8 0;
#X connect 14 0 15 0;
#X connect 15 0 12 1;
#X restore 170 246 pd output_mixer;
#X obj 432 78 tgl 15 1 empty empty ON 0 -6 0 8 -258699 -1 -1 1 1;
#X obj 403 3 cnv 15 255 20 empty empty empty 20 12 0 14 -24198 -66577
0;
#X obj 169 50 *~;
#X obj 168 2 inlet~;
#X obj 170 278 outlet~;
#X obj 261 10 inlet;
#X obj 307 24 inlet;
#X obj 356 47 inlet;
#X connect 1 0 7 5;
#X connect 1 1 7 6;
#X connect 1 2 7 7;
#X connect 2 0 10 1;
#X connect 3 0 7 1;
#X connect 4 0 7 2;
#X connect 5 0 7 3;
#X connect 6 0 7 4;
#X connect 7 0 12 0;
#X connect 8 0 1 1;
#X connect 10 0 7 0;
#X connect 10 0 1 0;
#X connect 11 0 10 0;
#X connect 13 0 4 0;
#X connect 14 0 5 0;
#X connect 15 0 6 0;
#X restore 421 312 pd eq;
#N canvas 133 73 834 427 eq 0;
#X obj 10 3 cnv 15 150 300 empty empty empty 20 12 0 14 -24198 -66577
0;
#N canvas 0 0 454 304 using 0;
#X obj 67 239 outlet~;
#X obj 65 134 biquad~;
#X obj 66 154 biquad~;
#X obj 66 174 biquad~;
#X obj 35 110 lowpass 370 310;
#X obj 194 134 biquad~;
#X obj 193 154 biquad~;
#X obj 194 174 biquad~;
#X obj 163 111 bandpass 1175 490;
#X obj 305 111 highpass 2350 130;
#X obj 334 134 biquad~;
#X obj 334 154 biquad~;
#X obj 163 25 loadbang;
#X obj 193 239 outlet~;
#X obj 335 239 outlet~;
#X obj 66 25 inlet~ signal;
#X obj 235 54 switch~;
#X obj 235 25 inlet switch;
#X connect 1 0 2 0;
#X connect 2 0 3 0;
#X connect 3 0 0 0;
#X connect 4 0 1 0;
#X connect 4 0 2 0;
#X connect 4 0 3 0;
#X connect 5 0 6 0;
#X connect 6 0 7 0;
#X connect 7 0 13 0;
#X connect 8 0 5 0;
#X connect 8 0 6 0;
#X connect 8 0 7 0;
#X connect 9 0 10 0;
#X connect 9 0 11 0;
#X connect 10 0 11 0;
#X connect 11 0 14 0;
#X connect 12 0 4 0;
#X connect 12 0 8 0;
#X connect 12 0 9 0;
#X connect 15 0 1 0;
#X connect 15 0 5 0;
#X connect 15 0 10 0;
#X connect 17 0 16 0;
#X restore 241 140 pd using GGEE filter objects;
#X obj 185 23 tgl 15 1 empty empty empty 0 -6 0 8 -258699 -1 -1 1 1
;
#X obj 24 171 hsl 128 15 0 1 0 1 empty empty dry/wet -2 -6 0 8 -241291
-1 -1 12700 1;
#X obj 21 17 vsl 15 128 0 1 0 1 empty empty BASS 0 -8 0 8 -44926 -1
-1 6100 1;
#X obj 76 17 vsl 15 128 0 1 0 1 empty empty MIDS 0 -8 0 8 -44926 -1
-1 4800 1;
#X obj 135 17 vsl 15 128 0 1 0 1 empty empty HIGHS 0 -8 0 8 -44926
-1 -1 12700 1;
#N canvas 401 243 540 481 output_mixer 0;
#X obj 39 11 inlet dry/wet;
#X obj 22 -19 inlet~ dry;
#X obj 248 -19 inlet~ bass;
#X obj 338 -19 inlet~ mids;
#X obj 424 -19 inlet~ highs;
#X obj 87 35 inlet bass;
#X obj 127 60 inlet mids;
#X obj 157 86 inlet highs;
#X obj 22 327 outlet~;
#X obj 111 235 *~;
#X obj 141 235 *~;
#X obj 71 235 *~;
#X obj 23 288 *~;
#X obj 70 288 *~;
#X obj 39 35 * -1;
#X obj 39 57 + 1;
#X connect 0 0 14 0;
#X connect 0 0 13 1;
#X connect 1 0 12 0;
#X connect 2 0 11 0;
#X connect 3 0 9 0;
#X connect 4 0 10 0;
#X connect 5 0 11 1;
#X connect 6 0 9 1;
#X connect 7 0 10 1;
#X connect 9 0 13 0;
#X connect 10 0 13 0;
#X connect 11 0 13 0;
#X connect 12 0 8 0;
#X connect 13 0 8 0;
#X connect 14 0 15 0;
#X connect 15 0 12 1;
#X restore 170 246 pd output_mixer;
#X obj 432 78 tgl 15 1 empty empty ON 0 -6 0 8 -258699 -1 -1 1 1;
#X obj 403 3 cnv 15 255 20 empty empty empty 20 12 0 14 -24198 -66577
0;
#X obj 169 50 *~;
#X obj 168 2 inlet~;
#X obj 170 278 outlet~;
#X obj 261 10 inlet;
#X obj 307 24 inlet;
#X obj 356 47 inlet;
#X connect 1 0 7 5;
#X connect 1 1 7 6;
#X connect 1 2 7 7;
#X connect 2 0 10 1;
#X connect 3 0 7 1;
#X connect 4 0 7 2;
#X connect 5 0 7 3;
#X connect 6 0 7 4;
#X connect 7 0 12 0;
#X connect 8 0 1 1;
#X connect 10 0 7 0;
#X connect 10 0 1 0;
#X connect 11 0 10 0;
#X connect 13 0 4 0;
#X connect 14 0 5 0;
#X connect 15 0 6 0;
#X restore 315 315 pd eq;
#N canvas 133 73 834 427 eq 0;
#X obj 10 3 cnv 15 150 300 empty empty empty 20 12 0 14 -24198 -66577
0;
#N canvas 0 0 454 304 using 0;
#X obj 67 239 outlet~;
#X obj 65 134 biquad~;
#X obj 66 154 biquad~;
#X obj 66 174 biquad~;
#X obj 35 110 lowpass 370 310;
#X obj 194 134 biquad~;
#X obj 193 154 biquad~;
#X obj 194 174 biquad~;
#X obj 163 111 bandpass 1175 490;
#X obj 305 111 highpass 2350 130;
#X obj 334 134 biquad~;
#X obj 334 154 biquad~;
#X obj 163 25 loadbang;
#X obj 193 239 outlet~;
#X obj 335 239 outlet~;
#X obj 66 25 inlet~ signal;
#X obj 235 54 switch~;
#X obj 235 25 inlet switch;
#X connect 1 0 2 0;
#X connect 2 0 3 0;
#X connect 3 0 0 0;
#X connect 4 0 1 0;
#X connect 4 0 2 0;
#X connect 4 0 3 0;
#X connect 5 0 6 0;
#X connect 6 0 7 0;
#X connect 7 0 13 0;
#X connect 8 0 5 0;
#X connect 8 0 6 0;
#X connect 8 0 7 0;
#X connect 9 0 10 0;
#X connect 9 0 11 0;
#X connect 10 0 11 0;
#X connect 11 0 14 0;
#X connect 12 0 4 0;
#X connect 12 0 8 0;
#X connect 12 0 9 0;
#X connect 15 0 1 0;
#X connect 15 0 5 0;
#X connect 15 0 10 0;
#X connect 17 0 16 0;
#X restore 241 140 pd using GGEE filter objects;
#X obj 185 23 tgl 15 1 empty empty empty 0 -6 0 8 -258699 -1 -1 1 1
;
#X obj 24 171 hsl 128 15 0 1 0 1 empty empty dry/wet -2 -6 0 8 -241291
-1 -1 12700 1;
#X obj 21 17 vsl 15 128 0 1 0 1 empty empty BASS 0 -8 0 8 -44926 -1
-1 6100 1;
#X obj 76 17 vsl 15 128 0 1 0 1 empty empty MIDS 0 -8 0 8 -44926 -1
-1 4800 1;
#X obj 135 17 vsl 15 128 0 1 0 1 empty empty HIGHS 0 -8 0 8 -44926
-1 -1 7200 1;
#N canvas 401 243 540 481 output_mixer 0;
#X obj 39 11 inlet dry/wet;
#X obj 22 -19 inlet~ dry;
#X obj 248 -19 inlet~ bass;
#X obj 338 -19 inlet~ mids;
#X obj 424 -19 inlet~ highs;
#X obj 87 35 inlet bass;
#X obj 127 60 inlet mids;
#X obj 157 86 inlet highs;
#X obj 22 327 outlet~;
#X obj 111 235 *~;
#X obj 141 235 *~;
#X obj 71 235 *~;
#X obj 23 288 *~;
#X obj 70 288 *~;
#X obj 39 35 * -1;
#X obj 39 57 + 1;
#X connect 0 0 14 0;
#X connect 0 0 13 1;
#X connect 1 0 12 0;
#X connect 2 0 11 0;
#X connect 3 0 9 0;
#X connect 4 0 10 0;
#X connect 5 0 11 1;
#X connect 6 0 9 1;
#X connect 7 0 10 1;
#X connect 9 0 13 0;
#X connect 10 0 13 0;
#X connect 11 0 13 0;
#X connect 12 0 8 0;
#X connect 13 0 8 0;
#X connect 14 0 15 0;
#X connect 15 0 12 1;
#X restore 170 246 pd output_mixer;
#X obj 432 78 tgl 15 1 empty empty ON 0 -6 0 8 -258699 -1 -1 1 1;
#X obj 403 3 cnv 15 255 20 empty empty empty 20 12 0 14 -24198 -66577
0;
#X obj 169 50 *~;
#X obj 168 2 inlet~;
#X obj 170 278 outlet~;
#X obj 261 10 inlet;
#X obj 307 24 inlet;
#X obj 356 47 inlet;
#X connect 1 0 7 5;
#X connect 1 1 7 6;
#X connect 1 2 7 7;
#X connect 2 0 10 1;
#X connect 3 0 7 1;
#X connect 4 0 7 2;
#X connect 5 0 7 3;
#X connect 6 0 7 4;
#X connect 7 0 12 0;
#X connect 8 0 1 1;
#X connect 10 0 7 0;
#X connect 10 0 1 0;
#X connect 11 0 10 0;
#X connect 13 0 4 0;
#X connect 14 0 5 0;
#X connect 15 0 6 0;
#X restore 603 314 pd eq;
#N canvas 133 73 834 427 eq 0;
#X obj 10 3 cnv 15 150 300 empty empty empty 20 12 0 14 -24198 -66577
0;
#N canvas 0 0 454 304 using 0;
#X obj 67 239 outlet~;
#X obj 65 134 biquad~;
#X obj 66 154 biquad~;
#X obj 66 174 biquad~;
#X obj 35 110 lowpass 370 310;
#X obj 194 134 biquad~;
#X obj 193 154 biquad~;
#X obj 194 174 biquad~;
#X obj 163 111 bandpass 1175 490;
#X obj 305 111 highpass 2350 130;
#X obj 334 134 biquad~;
#X obj 334 154 biquad~;
#X obj 163 25 loadbang;
#X obj 193 239 outlet~;
#X obj 335 239 outlet~;
#X obj 66 25 inlet~ signal;
#X obj 235 54 switch~;
#X obj 235 25 inlet switch;
#X connect 1 0 2 0;
#X connect 2 0 3 0;
#X connect 3 0 0 0;
#X connect 4 0 1 0;
#X connect 4 0 2 0;
#X connect 4 0 3 0;
#X connect 5 0 6 0;
#X connect 6 0 7 0;
#X connect 7 0 13 0;
#X connect 8 0 5 0;
#X connect 8 0 6 0;
#X connect 8 0 7 0;
#X connect 9 0 10 0;
#X connect 9 0 11 0;
#X connect 10 0 11 0;
#X connect 11 0 14 0;
#X connect 12 0 4 0;
#X connect 12 0 8 0;
#X connect 12 0 9 0;
#X connect 15 0 1 0;
#X connect 15 0 5 0;
#X connect 15 0 10 0;
#X connect 17 0 16 0;
#X restore 241 140 pd using GGEE filter objects;
#X obj 185 23 tgl 15 1 empty empty empty 0 -6 0 8 -258699 -1 -1 1 1
;
#X obj 24 171 hsl 128 15 0 1 0 1 empty empty dry/wet -2 -6 0 8 -241291
-1 -1 12700 1;
#X obj 21 17 vsl 15 128 0 1 0 1 empty empty BASS 0 -8 0 8 -44926 -1
-1 6100 1;
#X obj 76 17 vsl 15 128 0 1 0 1 empty empty MIDS 0 -8 0 8 -44926 -1
-1 4800 1;
#X obj 135 17 vsl 15 128 0 1 0 1 empty empty HIGHS 0 -8 0 8 -44926
-1 -1 7200 1;
#N canvas 401 243 540 481 output_mixer 0;
#X obj 39 11 inlet dry/wet;
#X obj 22 -19 inlet~ dry;
#X obj 248 -19 inlet~ bass;
#X obj 338 -19 inlet~ mids;
#X obj 424 -19 inlet~ highs;
#X obj 87 35 inlet bass;
#X obj 127 60 inlet mids;
#X obj 157 86 inlet highs;
#X obj 22 327 outlet~;
#X obj 111 235 *~;
#X obj 141 235 *~;
#X obj 71 235 *~;
#X obj 23 288 *~;
#X obj 70 288 *~;
#X obj 39 35 * -1;
#X obj 39 57 + 1;
#X connect 0 0 14 0;
#X connect 0 0 13 1;
#X connect 1 0 12 0;
#X connect 2 0 11 0;
#X connect 3 0 9 0;
#X connect 4 0 10 0;
#X connect 5 0 11 1;
#X connect 6 0 9 1;
#X connect 7 0 10 1;
#X connect 9 0 13 0;
#X connect 10 0 13 0;
#X connect 11 0 13 0;
#X connect 12 0 8 0;
#X connect 13 0 8 0;
#X connect 14 0 15 0;
#X connect 15 0 12 1;
#X restore 170 246 pd output_mixer;
#X obj 432 78 tgl 15 1 empty empty ON 0 -6 0 8 -258699 -1 -1 1 1;
#X obj 403 3 cnv 15 255 20 empty empty empty 20 12 0 14 -24198 -66577
0;
#X obj 169 50 *~;
#X obj 168 2 inlet~;
#X obj 170 278 outlet~;
#X obj 261 10 inlet;
#X obj 307 24 inlet;
#X obj 356 47 inlet;
#X connect 1 0 7 5;
#X connect 1 1 7 6;
#X connect 1 2 7 7;
#X connect 2 0 10 1;
#X connect 3 0 7 1;
#X connect 4 0 7 2;
#X connect 5 0 7 3;
#X connect 6 0 7 4;
#X connect 7 0 12 0;
#X connect 8 0 1 1;
#X connect 10 0 7 0;
#X connect 10 0 1 0;
#X connect 11 0 10 0;
#X connect 13 0 4 0;
#X connect 14 0 5 0;
#X connect 15 0 6 0;
#X restore 550 312 pd eq;
#N canvas 133 73 834 427 eq 0;
#X obj 10 3 cnv 15 150 300 empty empty empty 20 12 0 14 -24198 -66577
0;
#N canvas 0 0 454 304 using 0;
#X obj 67 239 outlet~;
#X obj 65 134 biquad~;
#X obj 66 154 biquad~;
#X obj 66 174 biquad~;
#X obj 35 110 lowpass 370 310;
#X obj 194 134 biquad~;
#X obj 193 154 biquad~;
#X obj 194 174 biquad~;
#X obj 163 111 bandpass 1175 490;
#X obj 305 111 highpass 2350 130;
#X obj 334 134 biquad~;
#X obj 334 154 biquad~;
#X obj 163 25 loadbang;
#X obj 193 239 outlet~;
#X obj 335 239 outlet~;
#X obj 66 25 inlet~ signal;
#X obj 235 54 switch~;
#X obj 235 25 inlet switch;
#X connect 1 0 2 0;
#X connect 2 0 3 0;
#X connect 3 0 0 0;
#X connect 4 0 1 0;
#X connect 4 0 2 0;
#X connect 4 0 3 0;
#X connect 5 0 6 0;
#X connect 6 0 7 0;
#X connect 7 0 13 0;
#X connect 8 0 5 0;
#X connect 8 0 6 0;
#X connect 8 0 7 0;
#X connect 9 0 10 0;
#X connect 9 0 11 0;
#X connect 10 0 11 0;
#X connect 11 0 14 0;
#X connect 12 0 4 0;
#X connect 12 0 8 0;
#X connect 12 0 9 0;
#X connect 15 0 1 0;
#X connect 15 0 5 0;
#X connect 15 0 10 0;
#X connect 17 0 16 0;
#X restore 241 140 pd using GGEE filter objects;
#X obj 185 23 tgl 15 1 empty empty empty 0 -6 0 8 -258699 -1 -1 1 1
;
#X obj 24 171 hsl 128 15 0 1 0 1 empty empty dry/wet -2 -6 0 8 -241291
-1 -1 12700 1;
#X obj 21 17 vsl 15 128 0 1 0 1 empty empty BASS 0 -8 0 8 -44926 -1
-1 6100 1;
#X obj 76 17 vsl 15 128 0 1 0 1 empty empty MIDS 0 -8 0 8 -44926 -1
-1 4800 1;
#X obj 135 17 vsl 15 128 0 1 0 1 empty empty HIGHS 0 -8 0 8 -44926
-1 -1 7200 1;
#N canvas 401 243 540 481 output_mixer 0;
#X obj 39 11 inlet dry/wet;
#X obj 22 -19 inlet~ dry;
#X obj 248 -19 inlet~ bass;
#X obj 338 -19 inlet~ mids;
#X obj 424 -19 inlet~ highs;
#X obj 87 35 inlet bass;
#X obj 127 60 inlet mids;
#X obj 157 86 inlet highs;
#X obj 22 327 outlet~;
#X obj 111 235 *~;
#X obj 141 235 *~;
#X obj 71 235 *~;
#X obj 23 288 *~;
#X obj 70 288 *~;
#X obj 39 35 * -1;
#X obj 39 57 + 1;
#X connect 0 0 14 0;
#X connect 0 0 13 1;
#X connect 1 0 12 0;
#X connect 2 0 11 0;
#X connect 3 0 9 0;
#X connect 4 0 10 0;
#X connect 5 0 11 1;
#X connect 6 0 9 1;
#X connect 7 0 10 1;
#X connect 9 0 13 0;
#X connect 10 0 13 0;
#X connect 11 0 13 0;
#X connect 12 0 8 0;
#X connect 13 0 8 0;
#X connect 14 0 15 0;
#X connect 15 0 12 1;
#X restore 170 246 pd output_mixer;
#X obj 432 78 tgl 15 1 empty empty ON 0 -6 0 8 -258699 -1 -1 1 1;
#X obj 403 3 cnv 15 255 20 empty empty empty 20 12 0 14 -24198 -66577
0;
#X obj 169 50 *~;
#X obj 168 2 inlet~;
#X obj 170 278 outlet~;
#X obj 261 10 inlet;
#X obj 307 24 inlet;
#X obj 356 47 inlet;
#X connect 1 0 7 5;
#X connect 1 1 7 6;
#X connect 1 2 7 7;
#X connect 2 0 10 1;
#X connect 3 0 7 1;
#X connect 4 0 7 2;
#X connect 5 0 7 3;
#X connect 6 0 7 4;
#X connect 7 0 12 0;
#X connect 8 0 1 1;
#X connect 10 0 7 0;
#X connect 10 0 1 0;
#X connect 11 0 10 0;
#X connect 13 0 4 0;
#X connect 14 0 5 0;
#X connect 15 0 6 0;
#X restore 370 312 pd eq;
#N canvas 133 73 838 431 eq 0;
#X obj 10 3 cnv 15 150 300 empty empty empty 20 12 0 14 -24198 -66577
0;
#N canvas 0 0 454 304 using 0;
#X obj 67 239 outlet~;
#X obj 65 134 biquad~;
#X obj 66 154 biquad~;
#X obj 66 174 biquad~;
#X obj 35 110 lowpass 370 310;
#X obj 194 134 biquad~;
#X obj 193 154 biquad~;
#X obj 194 174 biquad~;
#X obj 163 111 bandpass 1175 490;
#X obj 305 111 highpass 2350 130;
#X obj 334 134 biquad~;
#X obj 334 154 biquad~;
#X obj 163 25 loadbang;
#X obj 193 239 outlet~;
#X obj 335 239 outlet~;
#X obj 66 25 inlet~ signal;
#X obj 235 54 switch~;
#X obj 235 25 inlet switch;
#X connect 1 0 2 0;
#X connect 2 0 3 0;
#X connect 3 0 0 0;
#X connect 4 0 1 0;
#X connect 4 0 2 0;
#X connect 4 0 3 0;
#X connect 5 0 6 0;
#X connect 6 0 7 0;
#X connect 7 0 13 0;
#X connect 8 0 5 0;
#X connect 8 0 6 0;
#X connect 8 0 7 0;
#X connect 9 0 10 0;
#X connect 9 0 11 0;
#X connect 10 0 11 0;
#X connect 11 0 14 0;
#X connect 12 0 4 0;
#X connect 12 0 8 0;
#X connect 12 0 9 0;
#X connect 15 0 1 0;
#X connect 15 0 5 0;
#X connect 15 0 10 0;
#X connect 17 0 16 0;
#X restore 241 140 pd using GGEE filter objects;
#X obj 185 23 tgl 15 1 empty empty empty 0 -6 0 8 -258699 -1 -1 1 1
;
#X obj 24 171 hsl 128 15 0 1 0 1 empty empty dry/wet -2 -6 0 8 -241291
-1 -1 12700 1;
#X obj 21 17 vsl 15 128 0 1 0 1 empty empty BASS 0 -8 0 8 -44926 -1
-1 2600 1;
#X obj 76 17 vsl 15 128 0 1 0 1 empty empty MIDS 0 -8 0 8 -44926 -1
-1 3700 1;
#X obj 135 17 vsl 15 128 0 1 0 1 empty empty HIGHS 0 -8 0 8 -44926
-1 -1 4700 1;
#N canvas 401 243 540 481 output_mixer 0;
#X obj 39 11 inlet dry/wet;
#X obj 22 -19 inlet~ dry;
#X obj 248 -19 inlet~ bass;
#X obj 338 -19 inlet~ mids;
#X obj 424 -19 inlet~ highs;
#X obj 87 35 inlet bass;
#X obj 127 60 inlet mids;
#X obj 157 86 inlet highs;
#X obj 22 327 outlet~;
#X obj 111 235 *~;
#X obj 141 235 *~;
#X obj 71 235 *~;
#X obj 23 288 *~;
#X obj 70 288 *~;
#X obj 39 35 * -1;
#X obj 39 57 + 1;
#X connect 0 0 14 0;
#X connect 0 0 13 1;
#X connect 1 0 12 0;
#X connect 2 0 11 0;
#X connect 3 0 9 0;
#X connect 4 0 10 0;
#X connect 5 0 11 1;
#X connect 6 0 9 1;
#X connect 7 0 10 1;
#X connect 9 0 13 0;
#X connect 10 0 13 0;
#X connect 11 0 13 0;
#X connect 12 0 8 0;
#X connect 13 0 8 0;
#X connect 14 0 15 0;
#X connect 15 0 12 1;
#X restore 170 246 pd output_mixer;
#X obj 432 78 tgl 15 1 empty empty ON 0 -6 0 8 -258699 -1 -1 1 1;
#X obj 403 3 cnv 15 255 20 empty empty empty 20 12 0 14 -24198 -66577
0;
#X obj 169 50 *~;
#X obj 168 2 inlet~;
#X obj 170 278 outlet~;
#X obj 261 10 inlet;
#X obj 307 24 inlet;
#X obj 356 47 inlet;
#X connect 1 0 7 5;
#X connect 1 1 7 6;
#X connect 1 2 7 7;
#X connect 2 0 10 1;
#X connect 3 0 7 1;
#X connect 4 0 7 2;
#X connect 5 0 7 3;
#X connect 6 0 7 4;
#X connect 7 0 12 0;
#X connect 8 0 1 1;
#X connect 10 0 7 0;
#X connect 10 0 1 0;
#X connect 11 0 10 0;
#X connect 13 0 4 0;
#X connect 14 0 5 0;
#X connect 15 0 6 0;
#X restore 211 316 pd eq;
#N canvas 133 73 834 427 eq 0;
#X obj 10 3 cnv 15 150 300 empty empty empty 20 12 0 14 -24198 -66577
0;
#N canvas 0 0 454 304 using 0;
#X obj 67 239 outlet~;
#X obj 65 134 biquad~;
#X obj 66 154 biquad~;
#X obj 66 174 biquad~;
#X obj 35 110 lowpass 370 310;
#X obj 194 134 biquad~;
#X obj 193 154 biquad~;
#X obj 194 174 biquad~;
#X obj 163 111 bandpass 1175 490;
#X obj 305 111 highpass 2350 130;
#X obj 334 134 biquad~;
#X obj 334 154 biquad~;
#X obj 163 25 loadbang;
#X obj 193 239 outlet~;
#X obj 335 239 outlet~;
#X obj 66 25 inlet~ signal;
#X obj 235 54 switch~;
#X obj 235 25 inlet switch;
#X connect 1 0 2 0;
#X connect 2 0 3 0;
#X connect 3 0 0 0;
#X connect 4 0 1 0;
#X connect 4 0 2 0;
#X connect 4 0 3 0;
#X connect 5 0 6 0;
#X connect 6 0 7 0;
#X connect 7 0 13 0;
#X connect 8 0 5 0;
#X connect 8 0 6 0;
#X connect 8 0 7 0;
#X connect 9 0 10 0;
#X connect 9 0 11 0;
#X connect 10 0 11 0;
#X connect 11 0 14 0;
#X connect 12 0 4 0;
#X connect 12 0 8 0;
#X connect 12 0 9 0;
#X connect 15 0 1 0;
#X connect 15 0 5 0;
#X connect 15 0 10 0;
#X connect 17 0 16 0;
#X restore 241 140 pd using GGEE filter objects;
#X obj 185 23 tgl 15 1 empty empty empty 0 -6 0 8 -258699 -1 -1 1 1
;
#X obj 24 171 hsl 128 15 0 1 0 1 empty empty dry/wet -2 -6 0 8 -241291
-1 -1 12700 1;
#X obj 21 17 vsl 15 128 0 1 0 1 empty empty BASS 0 -8 0 8 -44926 -1
-1 5900 1;
#X obj 76 17 vsl 15 128 0 1 0 1 empty empty MIDS 0 -8 0 8 -44926 -1
-1 4100 1;
#X obj 135 17 vsl 15 128 0 1 0 1 empty empty HIGHS 0 -8 0 8 -44926
-1 -1 4200 1;
#N canvas 401 243 540 481 output_mixer 0;
#X obj 39 11 inlet dry/wet;
#X obj 22 -19 inlet~ dry;
#X obj 248 -19 inlet~ bass;
#X obj 338 -19 inlet~ mids;
#X obj 424 -19 inlet~ highs;
#X obj 87 35 inlet bass;
#X obj 127 60 inlet mids;
#X obj 157 86 inlet highs;
#X obj 22 327 outlet~;
#X obj 111 235 *~;
#X obj 141 235 *~;
#X obj 71 235 *~;
#X obj 23 288 *~;
#X obj 70 288 *~;
#X obj 39 35 * -1;
#X obj 39 57 + 1;
#X connect 0 0 14 0;
#X connect 0 0 13 1;
#X connect 1 0 12 0;
#X connect 2 0 11 0;
#X connect 3 0 9 0;
#X connect 4 0 10 0;
#X connect 5 0 11 1;
#X connect 6 0 9 1;
#X connect 7 0 10 1;
#X connect 9 0 13 0;
#X connect 10 0 13 0;
#X connect 11 0 13 0;
#X connect 12 0 8 0;
#X connect 13 0 8 0;
#X connect 14 0 15 0;
#X connect 15 0 12 1;
#X restore 170 246 pd output_mixer;
#X obj 432 78 tgl 15 1 empty empty ON 0 -6 0 8 -258699 -1 -1 1 1;
#X obj 403 3 cnv 15 255 20 empty empty empty 20 12 0 14 -24198 -66577
0;
#X obj 169 50 *~;
#X obj 168 2 inlet~;
#X obj 170 278 outlet~;
#X obj 261 10 inlet;
#X obj 307 24 inlet;
#X obj 356 47 inlet;
#X connect 1 0 7 5;
#X connect 1 1 7 6;
#X connect 1 2 7 7;
#X connect 2 0 10 1;
#X connect 3 0 7 1;
#X connect 4 0 7 2;
#X connect 5 0 7 3;
#X connect 6 0 7 4;
#X connect 7 0 12 0;
#X connect 8 0 1 1;
#X connect 10 0 7 0;
#X connect 10 0 1 0;
#X connect 11 0 10 0;
#X connect 13 0 4 0;
#X connect 14 0 5 0;
#X connect 15 0 6 0;
#X restore 695 311 pd eq;
#N canvas 133 73 834 427 eq 0;
#X obj 10 3 cnv 15 150 300 empty empty empty 20 12 0 14 -24198 -66577
0;
#N canvas 0 0 454 304 using 0;
#X obj 67 239 outlet~;
#X obj 65 134 biquad~;
#X obj 66 154 biquad~;
#X obj 66 174 biquad~;
#X obj 35 110 lowpass 370 310;
#X obj 194 134 biquad~;
#X obj 193 154 biquad~;
#X obj 194 174 biquad~;
#X obj 163 111 bandpass 1175 490;
#X obj 305 111 highpass 2350 130;
#X obj 334 134 biquad~;
#X obj 334 154 biquad~;
#X obj 163 25 loadbang;
#X obj 193 239 outlet~;
#X obj 335 239 outlet~;
#X obj 66 25 inlet~ signal;
#X obj 235 54 switch~;
#X obj 235 25 inlet switch;
#X connect 1 0 2 0;
#X connect 2 0 3 0;
#X connect 3 0 0 0;
#X connect 4 0 1 0;
#X connect 4 0 2 0;
#X connect 4 0 3 0;
#X connect 5 0 6 0;
#X connect 6 0 7 0;
#X connect 7 0 13 0;
#X connect 8 0 5 0;
#X connect 8 0 6 0;
#X connect 8 0 7 0;
#X connect 9 0 10 0;
#X connect 9 0 11 0;
#X connect 10 0 11 0;
#X connect 11 0 14 0;
#X connect 12 0 4 0;
#X connect 12 0 8 0;
#X connect 12 0 9 0;
#X connect 15 0 1 0;
#X connect 15 0 5 0;
#X connect 15 0 10 0;
#X connect 17 0 16 0;
#X restore 241 140 pd using GGEE filter objects;
#X obj 185 23 tgl 15 1 empty empty empty 0 -6 0 8 -258699 -1 -1 1 1
;
#X obj 24 171 hsl 128 15 0 1 0 1 empty empty dry/wet -2 -6 0 8 -241291
-1 -1 12700 1;
#X obj 21 17 vsl 15 128 0 1 0 1 empty empty BASS 0 -8 0 8 -44926 -1
-1 6100 1;
#X obj 76 17 vsl 15 128 0 1 0 1 empty empty MIDS 0 -8 0 8 -44926 -1
-1 4800 1;
#X obj 135 17 vsl 15 128 0 1 0 1 empty empty HIGHS 0 -8 0 8 -44926
-1 -1 7200 1;
#N canvas 401 243 540 481 output_mixer 0;
#X obj 39 11 inlet dry/wet;
#X obj 22 -19 inlet~ dry;
#X obj 248 -19 inlet~ bass;
#X obj 338 -19 inlet~ mids;
#X obj 424 -19 inlet~ highs;
#X obj 87 35 inlet bass;
#X obj 127 60 inlet mids;
#X obj 157 86 inlet highs;
#X obj 22 327 outlet~;
#X obj 111 235 *~;
#X obj 141 235 *~;
#X obj 71 235 *~;
#X obj 23 288 *~;
#X obj 70 288 *~;
#X obj 39 35 * -1;
#X obj 39 57 + 1;
#X connect 0 0 14 0;
#X connect 0 0 13 1;
#X connect 1 0 12 0;
#X connect 2 0 11 0;
#X connect 3 0 9 0;
#X connect 4 0 10 0;
#X connect 5 0 11 1;
#X connect 6 0 9 1;
#X connect 7 0 10 1;
#X connect 9 0 13 0;
#X connect 10 0 13 0;
#X connect 11 0 13 0;
#X connect 12 0 8 0;
#X connect 13 0 8 0;
#X connect 14 0 15 0;
#X connect 15 0 12 1;
#X restore 170 246 pd output_mixer;
#X obj 432 78 tgl 15 1 empty empty ON 0 -6 0 8 -258699 -1 -1 1 1;
#X obj 403 3 cnv 15 255 20 empty empty empty 20 12 0 14 -24198 -66577
0;
#X obj 169 50 *~;
#X obj 168 2 inlet~;
#X obj 170 278 outlet~;
#X obj 261 10 inlet;
#X obj 307 24 inlet;
#X obj 356 47 inlet;
#X connect 1 0 7 5;
#X connect 1 1 7 6;
#X connect 1 2 7 7;
#X connect 2 0 10 1;
#X connect 3 0 7 1;
#X connect 4 0 7 2;
#X connect 5 0 7 3;
#X connect 6 0 7 4;
#X connect 7 0 12 0;
#X connect 8 0 1 1;
#X connect 10 0 7 0;
#X connect 10 0 1 0;
#X connect 11 0 10 0;
#X connect 13 0 4 0;
#X connect 14 0 5 0;
#X connect 15 0 6 0;
#X restore 651 311 pd eq;
#N canvas 133 73 838 431 eq 0;
#X obj 10 3 cnv 15 150 300 empty empty empty 20 12 0 14 -24198 -66577
0;
#N canvas 0 0 454 304 using 0;
#X obj 67 239 outlet~;
#X obj 65 134 biquad~;
#X obj 66 154 biquad~;
#X obj 66 174 biquad~;
#X obj 35 110 lowpass 370 310;
#X obj 194 134 biquad~;
#X obj 193 154 biquad~;
#X obj 194 174 biquad~;
#X obj 163 111 bandpass 1175 490;
#X obj 305 111 highpass 2350 130;
#X obj 334 134 biquad~;
#X obj 334 154 biquad~;
#X obj 163 25 loadbang;
#X obj 193 239 outlet~;
#X obj 335 239 outlet~;
#X obj 66 25 inlet~ signal;
#X obj 235 54 switch~;
#X obj 235 25 inlet switch;
#X connect 1 0 2 0;
#X connect 2 0 3 0;
#X connect 3 0 0 0;
#X connect 4 0 1 0;
#X connect 4 0 2 0;
#X connect 4 0 3 0;
#X connect 5 0 6 0;
#X connect 6 0 7 0;
#X connect 7 0 13 0;
#X connect 8 0 5 0;
#X connect 8 0 6 0;
#X connect 8 0 7 0;
#X connect 9 0 10 0;
#X connect 9 0 11 0;
#X connect 10 0 11 0;
#X connect 11 0 14 0;
#X connect 12 0 4 0;
#X connect 12 0 8 0;
#X connect 12 0 9 0;
#X connect 15 0 1 0;
#X connect 15 0 5 0;
#X connect 15 0 10 0;
#X connect 17 0 16 0;
#X restore 241 140 pd using GGEE filter objects;
#X obj 185 23 tgl 15 1 empty empty empty 0 -6 0 8 -258699 -1 -1 1 1
;
#X obj 24 171 hsl 128 15 0 1 0 1 empty empty dry/wet -2 -6 0 8 -241291
-1 -1 12700 1;
#X obj 21 17 vsl 15 128 0 1 0 1 empty empty BASS 0 -8 0 8 -44926 -1
-1 4700 1;
#X obj 76 17 vsl 15 128 0 1 0 1 empty empty MIDS 0 -8 0 8 -44926 -1
-1 5100 1;
#X obj 135 17 vsl 15 128 0 1 0 1 empty empty HIGHS 0 -8 0 8 -44926
-1 -1 7100 1;
#N canvas 401 243 540 481 output_mixer 0;
#X obj 39 11 inlet dry/wet;
#X obj 22 -19 inlet~ dry;
#X obj 248 -19 inlet~ bass;
#X obj 338 -19 inlet~ mids;
#X obj 424 -19 inlet~ highs;
#X obj 87 35 inlet bass;
#X obj 127 60 inlet mids;
#X obj 157 86 inlet highs;
#X obj 22 327 outlet~;
#X obj 111 235 *~;
#X obj 141 235 *~;
#X obj 71 235 *~;
#X obj 23 288 *~;
#X obj 70 288 *~;
#X obj 39 35 * -1;
#X obj 39 57 + 1;
#X connect 0 0 14 0;
#X connect 0 0 13 1;
#X connect 1 0 12 0;
#X connect 2 0 11 0;
#X connect 3 0 9 0;
#X connect 4 0 10 0;
#X connect 5 0 11 1;
#X connect 6 0 9 1;
#X connect 7 0 10 1;
#X connect 9 0 13 0;
#X connect 10 0 13 0;
#X connect 11 0 13 0;
#X connect 12 0 8 0;
#X connect 13 0 8 0;
#X connect 14 0 15 0;
#X connect 15 0 12 1;
#X restore 170 246 pd output_mixer;
#X obj 432 78 tgl 15 1 empty empty ON 0 -6 0 8 -258699 -1 -1 1 1;
#X obj 403 3 cnv 15 255 20 empty empty empty 20 12 0 14 -24198 -66577
0;
#X obj 169 50 *~;
#X obj 168 2 inlet~;
#X obj 170 278 outlet~;
#X obj 261 10 inlet;
#X obj 307 24 inlet;
#X obj 356 47 inlet;
#X connect 1 0 7 5;
#X connect 1 1 7 6;
#X connect 1 2 7 7;
#X connect 2 0 10 1;
#X connect 3 0 7 1;
#X connect 4 0 7 2;
#X connect 5 0 7 3;
#X connect 6 0 7 4;
#X connect 7 0 12 0;
#X connect 8 0 1 1;
#X connect 10 0 7 0;
#X connect 10 0 1 0;
#X connect 11 0 10 0;
#X connect 13 0 4 0;
#X connect 14 0 5 0;
#X connect 15 0 6 0;
#X restore 261 314 pd eq;
#N canvas 133 73 846 439 eq 0;
#X obj 10 3 cnv 15 150 300 empty empty empty 20 12 0 14 -24198 -66577
0;
#N canvas 0 0 458 308 using 0;
#X obj 67 239 outlet~;
#X obj 65 134 biquad~;
#X obj 66 154 biquad~;
#X obj 66 174 biquad~;
#X obj 35 110 lowpass 370 310;
#X obj 194 134 biquad~;
#X obj 193 154 biquad~;
#X obj 194 174 biquad~;
#X obj 163 111 bandpass 1175 490;
#X obj 305 111 highpass 2350 130;
#X obj 334 134 biquad~;
#X obj 334 154 biquad~;
#X obj 163 25 loadbang;
#X obj 193 239 outlet~;
#X obj 335 239 outlet~;
#X obj 66 25 inlet~ signal;
#X obj 235 54 switch~;
#X obj 235 25 inlet switch;
#X connect 1 0 2 0;
#X connect 2 0 3 0;
#X connect 3 0 0 0;
#X connect 4 0 1 0;
#X connect 4 0 2 0;
#X connect 4 0 3 0;
#X connect 5 0 6 0;
#X connect 6 0 7 0;
#X connect 7 0 13 0;
#X connect 8 0 5 0;
#X connect 8 0 6 0;
#X connect 8 0 7 0;
#X connect 9 0 10 0;
#X connect 9 0 11 0;
#X connect 10 0 11 0;
#X connect 11 0 14 0;
#X connect 12 0 4 0;
#X connect 12 0 8 0;
#X connect 12 0 9 0;
#X connect 15 0 1 0;
#X connect 15 0 5 0;
#X connect 15 0 10 0;
#X connect 17 0 16 0;
#X restore 241 140 pd using GGEE filter objects;
#X obj 185 23 tgl 15 1 empty empty empty 0 -6 0 8 -258699 -1 -1 1 1
;
#X obj 24 171 hsl 128 15 0 1 0 1 empty empty dry/wet -2 -6 0 8 -241291
-1 -1 12700 1;
#X obj 21 17 vsl 15 128 0 1 0 1 empty empty BASS 0 -8 0 8 -44926 -1
-1 3900 1;
#X obj 76 17 vsl 15 128 0 1 0 1 empty empty MIDS 0 -8 0 8 -44926 -1
-1 3900 1;
#X obj 135 17 vsl 15 128 0 1 0 1 empty empty HIGHS 0 -8 0 8 -44926
-1 -1 6500 1;
#N canvas 401 243 540 481 output_mixer 0;
#X obj 39 11 inlet dry/wet;
#X obj 22 -19 inlet~ dry;
#X obj 248 -19 inlet~ bass;
#X obj 338 -19 inlet~ mids;
#X obj 424 -19 inlet~ highs;
#X obj 87 35 inlet bass;
#X obj 127 60 inlet mids;
#X obj 157 86 inlet highs;
#X obj 22 327 outlet~;
#X obj 111 235 *~;
#X obj 141 235 *~;
#X obj 71 235 *~;
#X obj 23 288 *~;
#X obj 70 288 *~;
#X obj 39 35 * -1;
#X obj 39 57 + 1;
#X connect 0 0 14 0;
#X connect 0 0 13 1;
#X connect 1 0 12 0;
#X connect 2 0 11 0;
#X connect 3 0 9 0;
#X connect 4 0 10 0;
#X connect 5 0 11 1;
#X connect 6 0 9 1;
#X connect 7 0 10 1;
#X connect 9 0 13 0;
#X connect 10 0 13 0;
#X connect 11 0 13 0;
#X connect 12 0 8 0;
#X connect 13 0 8 0;
#X connect 14 0 15 0;
#X connect 15 0 12 1;
#X restore 170 246 pd output_mixer;
#X obj 432 78 tgl 15 1 empty empty ON 0 -6 0 8 -258699 -1 -1 1 1;
#X obj 403 3 cnv 15 255 20 empty empty empty 20 12 0 14 -24198 -66577
0;
#X obj 169 50 *~;
#X obj 168 2 inlet~;
#X obj 170 278 outlet~;
#X obj 261 10 inlet;
#X obj 307 24 inlet;
#X obj 356 47 inlet;
#X connect 1 0 7 5;
#X connect 1 1 7 6;
#X connect 1 2 7 7;
#X connect 2 0 10 1;
#X connect 3 0 7 1;
#X connect 4 0 7 2;
#X connect 5 0 7 3;
#X connect 6 0 7 4;
#X connect 7 0 12 0;
#X connect 8 0 1 1;
#X connect 10 0 7 0;
#X connect 10 0 1 0;
#X connect 11 0 10 0;
#X connect 13 0 4 0;
#X connect 14 0 5 0;
#X connect 15 0 6 0;
#X restore 147 319 pd eq;
#N canvas 133 73 834 427 eq 0;
#X obj 10 3 cnv 15 150 300 empty empty empty 20 12 0 14 -24198 -66577
0;
#N canvas 0 0 454 304 using 0;
#X obj 67 239 outlet~;
#X obj 65 134 biquad~;
#X obj 66 154 biquad~;
#X obj 66 174 biquad~;
#X obj 35 110 lowpass 370 310;
#X obj 194 134 biquad~;
#X obj 193 154 biquad~;
#X obj 194 174 biquad~;
#X obj 163 111 bandpass 1175 490;
#X obj 305 111 highpass 2350 130;
#X obj 334 134 biquad~;
#X obj 334 154 biquad~;
#X obj 163 25 loadbang;
#X obj 193 239 outlet~;
#X obj 335 239 outlet~;
#X obj 66 25 inlet~ signal;
#X obj 235 54 switch~;
#X obj 235 25 inlet switch;
#X connect 1 0 2 0;
#X connect 2 0 3 0;
#X connect 3 0 0 0;
#X connect 4 0 1 0;
#X connect 4 0 2 0;
#X connect 4 0 3 0;
#X connect 5 0 6 0;
#X connect 6 0 7 0;
#X connect 7 0 13 0;
#X connect 8 0 5 0;
#X connect 8 0 6 0;
#X connect 8 0 7 0;
#X connect 9 0 10 0;
#X connect 9 0 11 0;
#X connect 10 0 11 0;
#X connect 11 0 14 0;
#X connect 12 0 4 0;
#X connect 12 0 8 0;
#X connect 12 0 9 0;
#X connect 15 0 1 0;
#X connect 15 0 5 0;
#X connect 15 0 10 0;
#X connect 17 0 16 0;
#X restore 241 140 pd using GGEE filter objects;
#X obj 185 23 tgl 15 1 empty empty empty 0 -6 0 8 -258699 -1 -1 1 1
;
#X obj 24 171 hsl 128 15 0 1 0 1 empty empty dry/wet -2 -6 0 8 -241291
-1 -1 12700 1;
#X obj 21 17 vsl 15 128 0 1 0 1 empty empty BASS 0 -8 0 8 -44926 -1
-1 7900 1;
#X obj 76 17 vsl 15 128 0 1 0 1 empty empty MIDS 0 -8 0 8 -44926 -1
-1 5700 1;
#X obj 135 17 vsl 15 128 0 1 0 1 empty empty HIGHS 0 -8 0 8 -44926
-1 -1 7300 1;
#N canvas 401 243 540 481 output_mixer 0;
#X obj 39 11 inlet dry/wet;
#X obj 22 -19 inlet~ dry;
#X obj 248 -19 inlet~ bass;
#X obj 338 -19 inlet~ mids;
#X obj 424 -19 inlet~ highs;
#X obj 87 35 inlet bass;
#X obj 127 60 inlet mids;
#X obj 157 86 inlet highs;
#X obj 22 327 outlet~;
#X obj 111 235 *~;
#X obj 141 235 *~;
#X obj 71 235 *~;
#X obj 23 288 *~;
#X obj 70 288 *~;
#X obj 39 35 * -1;
#X obj 39 57 + 1;
#X connect 0 0 14 0;
#X connect 0 0 13 1;
#X connect 1 0 12 0;
#X connect 2 0 11 0;
#X connect 3 0 9 0;
#X connect 4 0 10 0;
#X connect 5 0 11 1;
#X connect 6 0 9 1;
#X connect 7 0 10 1;
#X connect 9 0 13 0;
#X connect 10 0 13 0;
#X connect 11 0 13 0;
#X connect 12 0 8 0;
#X connect 13 0 8 0;
#X connect 14 0 15 0;
#X connect 15 0 12 1;
#X restore 170 246 pd output_mixer;
#X obj 432 78 tgl 15 1 empty empty ON 0 -6 0 8 -258699 -1 -1 1 1;
#X obj 403 3 cnv 15 255 20 empty empty empty 20 12 0 14 -24198 -66577
0;
#X obj 169 50 *~;
#X obj 168 2 inlet~;
#X obj 170 278 outlet~;
#X obj 261 10 inlet;
#X obj 307 24 inlet;
#X obj 356 47 inlet;
#X connect 1 0 7 5;
#X connect 1 1 7 6;
#X connect 1 2 7 7;
#X connect 2 0 10 1;
#X connect 3 0 7 1;
#X connect 4 0 7 2;
#X connect 5 0 7 3;
#X connect 6 0 7 4;
#X connect 7 0 12 0;
#X connect 8 0 1 1;
#X connect 10 0 7 0;
#X connect 10 0 1 0;
#X connect 11 0 10 0;
#X connect 13 0 4 0;
#X connect 14 0 5 0;
#X connect 15 0 6 0;
#X restore 742 316 pd eq;
#N canvas 133 73 834 427 eq 0;
#X obj 10 3 cnv 15 150 300 empty empty empty 20 12 0 14 -24198 -66577
0;
#N canvas 0 0 454 304 using 0;
#X obj 67 239 outlet~;
#X obj 65 134 biquad~;
#X obj 66 154 biquad~;
#X obj 66 174 biquad~;
#X obj 35 110 lowpass 370 310;
#X obj 194 134 biquad~;
#X obj 193 154 biquad~;
#X obj 194 174 biquad~;
#X obj 163 111 bandpass 1175 490;
#X obj 305 111 highpass 2350 130;
#X obj 334 134 biquad~;
#X obj 334 154 biquad~;
#X obj 163 25 loadbang;
#X obj 193 239 outlet~;
#X obj 335 239 outlet~;
#X obj 66 25 inlet~ signal;
#X obj 235 54 switch~;
#X obj 235 25 inlet switch;
#X connect 1 0 2 0;
#X connect 2 0 3 0;
#X connect 3 0 0 0;
#X connect 4 0 1 0;
#X connect 4 0 2 0;
#X connect 4 0 3 0;
#X connect 5 0 6 0;
#X connect 6 0 7 0;
#X connect 7 0 13 0;
#X connect 8 0 5 0;
#X connect 8 0 6 0;
#X connect 8 0 7 0;
#X connect 9 0 10 0;
#X connect 9 0 11 0;
#X connect 10 0 11 0;
#X connect 11 0 14 0;
#X connect 12 0 4 0;
#X connect 12 0 8 0;
#X connect 12 0 9 0;
#X connect 15 0 1 0;
#X connect 15 0 5 0;
#X connect 15 0 10 0;
#X connect 17 0 16 0;
#X restore 241 140 pd using GGEE filter objects;
#X obj 185 23 tgl 15 1 empty empty empty 0 -6 0 8 -258699 -1 -1 1 1
;
#X obj 24 171 hsl 128 15 0 1 0 1 empty empty dry/wet -2 -6 0 8 -241291
-1 -1 12700 1;
#X obj 21 17 vsl 15 128 0 1 0 1 empty empty BASS 0 -8 0 8 -44926 -1
-1 6100 1;
#X obj 76 17 vsl 15 128 0 1 0 1 empty empty MIDS 0 -8 0 8 -44926 -1
-1 4800 1;
#X obj 135 17 vsl 15 128 0 1 0 1 empty empty HIGHS 0 -8 0 8 -44926
-1 -1 7200 1;
#N canvas 401 243 540 481 output_mixer 0;
#X obj 39 11 inlet dry/wet;
#X obj 22 -19 inlet~ dry;
#X obj 248 -19 inlet~ bass;
#X obj 338 -19 inlet~ mids;
#X obj 424 -19 inlet~ highs;
#X obj 87 35 inlet bass;
#X obj 127 60 inlet mids;
#X obj 157 86 inlet highs;
#X obj 22 327 outlet~;
#X obj 111 235 *~;
#X obj 141 235 *~;
#X obj 71 235 *~;
#X obj 23 288 *~;
#X obj 70 288 *~;
#X obj 39 35 * -1;
#X obj 39 57 + 1;
#X connect 0 0 14 0;
#X connect 0 0 13 1;
#X connect 1 0 12 0;
#X connect 2 0 11 0;
#X connect 3 0 9 0;
#X connect 4 0 10 0;
#X connect 5 0 11 1;
#X connect 6 0 9 1;
#X connect 7 0 10 1;
#X connect 9 0 13 0;
#X connect 10 0 13 0;
#X connect 11 0 13 0;
#X connect 12 0 8 0;
#X connect 13 0 8 0;
#X connect 14 0 15 0;
#X connect 15 0 12 1;
#X restore 170 246 pd output_mixer;
#X obj 432 78 tgl 15 1 empty empty ON 0 -6 0 8 -258699 -1 -1 1 1;
#X obj 403 3 cnv 15 255 20 empty empty empty 20 12 0 14 -24198 -66577
0;
#X obj 169 50 *~;
#X obj 168 2 inlet~;
#X obj 170 278 outlet~;
#X obj 261 10 inlet;
#X obj 307 24 inlet;
#X obj 356 47 inlet;
#X connect 1 0 7 5;
#X connect 1 1 7 6;
#X connect 1 2 7 7;
#X connect 2 0 10 1;
#X connect 3 0 7 1;
#X connect 4 0 7 2;
#X connect 5 0 7 3;
#X connect 6 0 7 4;
#X connect 7 0 12 0;
#X connect 8 0 1 1;
#X connect 10 0 7 0;
#X connect 10 0 1 0;
#X connect 11 0 10 0;
#X connect 13 0 4 0;
#X connect 14 0 5 0;
#X connect 15 0 6 0;
#X restore 786 319 pd eq;
#N canvas 133 73 834 427 eq 0;
#X obj 10 3 cnv 15 150 300 empty empty empty 20 12 0 14 -24198 -66577
0;
#N canvas 0 0 454 304 using 0;
#X obj 67 239 outlet~;
#X obj 65 134 biquad~;
#X obj 66 154 biquad~;
#X obj 66 174 biquad~;
#X obj 35 110 lowpass 370 310;
#X obj 194 134 biquad~;
#X obj 193 154 biquad~;
#X obj 194 174 biquad~;
#X obj 163 111 bandpass 1175 490;
#X obj 305 111 highpass 2350 130;
#X obj 334 134 biquad~;
#X obj 334 154 biquad~;
#X obj 163 25 loadbang;
#X obj 193 239 outlet~;
#X obj 335 239 outlet~;
#X obj 66 25 inlet~ signal;
#X obj 235 54 switch~;
#X obj 235 25 inlet switch;
#X connect 1 0 2 0;
#X connect 2 0 3 0;
#X connect 3 0 0 0;
#X connect 4 0 1 0;
#X connect 4 0 2 0;
#X connect 4 0 3 0;
#X connect 5 0 6 0;
#X connect 6 0 7 0;
#X connect 7 0 13 0;
#X connect 8 0 5 0;
#X connect 8 0 6 0;
#X connect 8 0 7 0;
#X connect 9 0 10 0;
#X connect 9 0 11 0;
#X connect 10 0 11 0;
#X connect 11 0 14 0;
#X connect 12 0 4 0;
#X connect 12 0 8 0;
#X connect 12 0 9 0;
#X connect 15 0 1 0;
#X connect 15 0 5 0;
#X connect 15 0 10 0;
#X connect 17 0 16 0;
#X restore 241 140 pd using GGEE filter objects;
#X obj 185 23 tgl 15 1 empty empty empty 0 -6 0 8 -258699 -1 -1 1 1
;
#X obj 24 171 hsl 128 15 0 1 0 1 empty empty dry/wet -2 -6 0 8 -241291
-1 -1 12700 1;
#X obj 21 17 vsl 15 128 0 1 0 1 empty empty BASS 0 -8 0 8 -44926 -1
-1 6100 1;
#X obj 76 17 vsl 15 128 0 1 0 1 empty empty MIDS 0 -8 0 8 -44926 -1
-1 4800 1;
#X obj 135 17 vsl 15 128 0 1 0 1 empty empty HIGHS 0 -8 0 8 -44926
-1 -1 7200 1;
#N canvas 401 243 540 481 output_mixer 0;
#X obj 39 11 inlet dry/wet;
#X obj 22 -19 inlet~ dry;
#X obj 248 -19 inlet~ bass;
#X obj 338 -19 inlet~ mids;
#X obj 424 -19 inlet~ highs;
#X obj 87 35 inlet bass;
#X obj 127 60 inlet mids;
#X obj 157 86 inlet highs;
#X obj 22 327 outlet~;
#X obj 111 235 *~;
#X obj 141 235 *~;
#X obj 71 235 *~;
#X obj 23 288 *~;
#X obj 70 288 *~;
#X obj 39 35 * -1;
#X obj 39 57 + 1;
#X connect 0 0 14 0;
#X connect 0 0 13 1;
#X connect 1 0 12 0;
#X connect 2 0 11 0;
#X connect 3 0 9 0;
#X connect 4 0 10 0;
#X connect 5 0 11 1;
#X connect 6 0 9 1;
#X connect 7 0 10 1;
#X connect 9 0 13 0;
#X connect 10 0 13 0;
#X connect 11 0 13 0;
#X connect 12 0 8 0;
#X connect 13 0 8 0;
#X connect 14 0 15 0;
#X connect 15 0 12 1;
#X restore 170 246 pd output_mixer;
#X obj 432 78 tgl 15 1 empty empty ON 0 -6 0 8 -258699 -1 -1 1 1;
#X obj 403 3 cnv 15 255 20 empty empty empty 20 12 0 14 -24198 -66577
0;
#X obj 169 50 *~;
#X obj 168 2 inlet~;
#X obj 170 278 outlet~;
#X obj 261 10 inlet;
#X obj 307 24 inlet;
#X obj 356 47 inlet;
#X connect 1 0 7 5;
#X connect 1 1 7 6;
#X connect 1 2 7 7;
#X connect 2 0 10 1;
#X connect 3 0 7 1;
#X connect 4 0 7 2;
#X connect 5 0 7 3;
#X connect 6 0 7 4;
#X connect 7 0 12 0;
#X connect 8 0 1 1;
#X connect 10 0 7 0;
#X connect 10 0 1 0;
#X connect 11 0 10 0;
#X connect 13 0 4 0;
#X connect 14 0 5 0;
#X connect 15 0 6 0;
#X restore 850 315 pd eq;
#X connect 0 0 17 0;
#X connect 1 0 52 0;
#X connect 2 0 64 0;
#X connect 3 0 60 0;
#X connect 4 0 63 0;
#X connect 5 0 56 0;
#X connect 6 0 59 0;
#X connect 7 0 55 0;
#X connect 8 0 53 0;
#X connect 9 0 1 1;
#X connect 10 0 2 1;
#X connect 11 0 3 1;
#X connect 12 0 4 1;
#X connect 13 0 5 1;
#X connect 14 0 6 1;
#X connect 15 0 7 1;
#X connect 16 0 8 1;
#X connect 17 0 9 0;
#X connect 17 1 10 0;
#X connect 17 2 11 0;
#X connect 17 3 12 0;
#X connect 17 4 13 0;
#X connect 17 5 14 0;
#X connect 17 6 15 0;
#X connect 17 7 16 0;
#X connect 17 8 19 0;
#X connect 17 9 20 0;
#X connect 17 10 21 0;
#X connect 17 11 22 0;
#X connect 17 12 23 0;
#X connect 17 13 24 0;
#X connect 17 14 25 0;
#X connect 17 15 26 0;
#X connect 18 0 27 0;
#X connect 18 0 28 0;
#X connect 18 1 29 0;
#X connect 18 2 30 0;
#X connect 19 0 27 1;
#X connect 20 0 28 1;
#X connect 21 0 29 1;
#X connect 22 0 30 1;
#X connect 23 0 31 1;
#X connect 24 0 32 1;
#X connect 25 0 33 1;
#X connect 26 0 34 1;
#X connect 27 0 54 0;
#X connect 28 0 58 0;
#X connect 29 0 57 0;
#X connect 30 0 62 0;
#X connect 31 0 61 0;
#X connect 32 0 65 0;
#X connect 33 0 66 0;
#X connect 34 0 67 0;
#X connect 36 0 1 0;
#X connect 37 0 2 0;
#X connect 38 0 3 0;
#X connect 39 0 4 0;
#X connect 40 0 6 0;
#X connect 41 0 5 0;
#X connect 42 0 7 0;
#X connect 43 0 8 0;
#X connect 44 0 27 0;
#X connect 45 0 28 0;
#X connect 46 0 29 0;
#X connect 47 0 30 0;
#X connect 48 0 31 0;
#X connect 49 0 32 0;
#X connect 50 0 33 0;
#X connect 51 0 34 0;
#X connect 52 0 35 0;
#X connect 53 0 35 0;
#X connect 54 0 35 0;
#X connect 55 0 35 0;
#X connect 56 0 35 0;
#X connect 57 0 35 0;
#X connect 58 0 35 0;
#X connect 59 0 35 0;
#X connect 60 0 35 0;
#X connect 61 0 35 0;
#X connect 62 0 35 0;
#X connect 63 0 35 0;
#X connect 64 0 35 0;
#X connect 65 0 35 0;
#X connect 66 0 35 0;
#X connect 67 0 35 0;
