#N canvas 0 0 800 532 10;
#N canvas 760 274 800 532 (subpatch) 1;
#X obj 552 35 soundfiler;
#X floatatom 552 78 5 0 0 0 - - -;
#X obj 645 52 / 44.1;
#X floatatom 645 79 5 0 0 0 - - -;
#X obj 552 -43 bng 15 250 50 0 empty empty empty 17 7 0 10 -262144
-1 -1;
#X msg 552 -18 read -resize ../ahande/dnb.wav array1;
#X msg 552 101 \; pos range 0 \$1;
#X obj 553 138 s smp;
#X obj 645 108 s ms;
#X obj 552 -67 loadbang;
#X msg 646 -50 \; pd dsp 1;
#X obj 415 -17 r smp;
#X obj 481 -18 r ms;
#X obj 400 47 f;
#X obj 466 47 f;
#X obj 451 157 / 1;
#X obj 385 157 / 1;
#X obj 307 158 f;
#X obj 452 223 *;
#X obj 523 283 f;
#X obj 428 276 +;
#X obj 307 333 pack f f f;
#X obj 525 348 f;
#X obj 307 47 t b b b;
#X obj 307 10 metro 100;
#X obj 143 21 tgl 20 0 empty empty empty 17 7 0 10 -261234 -1 -1 0
1;
#X obj 307 385 vline~;
#X msg 307 360 \$1 \, \$2 \$3;
#X obj 306 408 tabread~ array1;
#X obj 503 162 bng 15 250 50 0 empty empty empty 17 7 0 10 -262144
-1 -1;
#X obj 503 185 t b b;
#X floatatom 486 101 5 0 0 0 - ns -;
#X obj 267 330 line;
#X obj 267 363 s pos;
#X obj 613 308 spigot;
#X obj 646 277 tgl 15 0 empty empty empty 17 7 0 10 -262144 -1 -1 1
1;
#X obj 722 -38 s ns;
#X msg 722 -71 8;
#N canvas 0 0 800 532 (subpatch) 0;
#X array array1 65450 float 2;
#X coords 0 1 65450 -1 100 70 1;
#X restore 2 15 graph;
#X obj 5 87 hsl 95 8 0 65450 0 0 empty pos empty -2 -8 0 10 -262144
-1 -1 5875 1;
#X text 134 0 ON/OFF;
#X obj 563 207 r slice;
#X obj 250 128 s oo;
#X obj 466 409 dac~;
#X obj 646 246 r rev;
#X text 39 39 comment;
#X connect 0 0 1 0;
#X connect 0 0 2 0;
#X connect 0 0 6 0;
#X connect 1 0 7 0;
#X connect 2 0 3 0;
#X connect 3 0 8 0;
#X connect 4 0 5 0;
#X connect 5 0 0 0;
#X connect 9 0 4 0;
#X connect 9 0 10 0;
#X connect 9 0 37 0;
#X connect 11 0 13 1;
#X connect 12 0 14 1;
#X connect 13 0 16 0;
#X connect 14 0 15 0;
#X connect 15 0 21 2;
#X connect 15 0 24 1;
#X connect 16 0 18 0;
#X connect 16 0 20 0;
#X connect 17 0 21 0;
#X connect 18 0 19 1;
#X connect 18 0 20 1;
#X connect 18 0 17 1;
#X connect 19 0 21 1;
#X connect 20 0 22 1;
#X connect 20 0 21 1;
#X connect 21 0 27 0;
#X connect 22 0 21 0;
#X connect 23 0 17 0;
#X connect 23 1 13 0;
#X connect 23 2 14 0;
#X connect 24 0 23 0;
#X connect 24 0 34 0;
#X connect 24 0 42 0;
#X connect 25 0 24 0;
#X connect 26 0 28 0;
#X connect 27 0 26 0;
#X connect 27 0 32 0;
#X connect 28 0 43 0;
#X connect 28 0 43 1;
#X connect 29 0 30 0;
#X connect 30 0 22 0;
#X connect 30 1 19 0;
#X connect 31 0 15 1;
#X connect 31 0 16 1;
#X connect 32 0 33 0;
#X connect 34 0 29 0;
#X connect 35 0 34 1;
#X connect 37 0 36 0;
#X connect 41 0 18 1;
#X connect 44 0 35 0;
#X coords 0 1 100 -1 200 140 1 0 0;
#X restore 138 61 graph;
#N canvas 0 0 800 532 (subpatch) 1;
#X obj 366 42 r oo;
#X obj 366 94 i;
#X obj 396 94 + 1;
#X obj 366 129 % 8;
#X obj 366 160 sel 0 1 2 3 4 5 6 7;
#X obj 557 268 i;
#X obj 529 268 i;
#X obj 503 268 i;
#X obj 475 268 i;
#X obj 448 268 i;
#X obj 420 268 i;
#X obj 394 268 i;
#X obj 366 268 i;
#X obj 116 3 vradio 15 1 0 8 empty empty empty 0 -8 0 10 -262144 -1
-1 7;
#X obj 98 3 vradio 15 1 0 8 empty empty empty 0 -8 0 10 -262144 -1
-1 2;
#X obj 82 3 vradio 15 1 0 8 empty empty empty 0 -8 0 10 -262144 -1
-1 5;
#X obj 66 3 vradio 15 1 0 8 empty empty empty 0 -8 0 10 -262144 -1
-1 3;
#X obj 50 3 vradio 15 1 0 8 empty empty empty 0 -8 0 10 -262144 -1
-1 4;
#X obj 34 3 vradio 15 1 0 8 empty empty empty 0 -8 0 10 -262144 -1
-1 0;
#X obj 18 3 vradio 15 1 0 8 empty empty empty 0 -8 0 10 -262144 -1
-1 6;
#X obj 2 3 vradio 15 1 0 8 empty empty empty 0 -8 0 10 -262144 -1 -1
5;
#X obj 367 318 s slice;
#X obj 711 366 i;
#X obj 684 366 i;
#X obj 655 366 i;
#X obj 628 366 i;
#X obj 601 366 i;
#X obj 574 366 i;
#X obj 545 366 i;
#X obj 518 366 i;
#X obj 679 175 tgl 15 0 empty empty empty 17 7 0 10 -262144 -1 -1 1
1;
#X obj 663 175 tgl 15 0 empty empty empty 17 7 0 10 -262144 -1 -1 0
1;
#X obj 647 175 tgl 15 0 empty empty empty 17 7 0 10 -262144 -1 -1 1
1;
#X obj 631 175 tgl 15 0 empty empty empty 17 7 0 10 -262144 -1 -1 1
1;
#X obj 615 175 tgl 15 0 empty empty empty 17 7 0 10 -262144 -1 -1 0
1;
#X obj 599 175 tgl 15 0 empty empty empty 17 7 0 10 -262144 -1 -1 0
1;
#X obj 583 175 tgl 15 0 empty empty empty 17 7 0 10 -262144 -1 -1 0
1;
#X obj 566 175 tgl 15 0 empty empty empty 17 7 0 10 -262144 -1 -1 0
1;
#X obj 498 481 s rev;
#X text 149 57 SLICES;
#X text 706 174 REVERSE;
#X obj 467 202 bng 15 100 50 0 empty empty empty 17 7 0 10 -1 -258113
-1;
#X obj 451 202 bng 15 100 50 0 empty empty empty 17 7 0 10 -1 -258113
-1;
#X obj 435 202 bng 15 100 50 0 empty empty empty 17 7 0 10 -1 -258113
-1;
#X obj 419 202 bng 15 100 50 0 empty empty empty 17 7 0 10 -1 -258113
-1;
#X obj 403 202 bng 15 100 50 0 empty empty empty 17 7 0 10 -1 -258113
-1;
#X obj 387 202 bng 15 100 50 0 empty empty empty 17 7 0 10 -1 -258113
-1;
#X obj 371 202 bng 15 100 50 0 empty empty empty 17 7 0 10 -1 -258113
-1;
#X obj 355 202 bng 15 100 50 0 empty empty empty 17 7 0 10 -1 -258113
-1;
#X text 442 103 note value selects slice;
#X connect 0 0 1 0;
#X connect 1 0 2 0;
#X connect 1 0 3 0;
#X connect 2 0 1 1;
#X connect 3 0 4 0;
#X connect 4 0 12 0;
#X connect 4 0 29 0;
#X connect 4 0 48 0;
#X connect 4 1 11 0;
#X connect 4 1 28 0;
#X connect 4 1 47 0;
#X connect 4 2 10 0;
#X connect 4 2 27 0;
#X connect 4 2 46 0;
#X connect 4 3 9 0;
#X connect 4 3 26 0;
#X connect 4 3 45 0;
#X connect 4 4 8 0;
#X connect 4 4 25 0;
#X connect 4 4 44 0;
#X connect 4 5 7 0;
#X connect 4 5 24 0;
#X connect 4 5 43 0;
#X connect 4 6 6 0;
#X connect 4 6 23 0;
#X connect 4 6 42 0;
#X connect 4 7 5 0;
#X connect 4 7 22 0;
#X connect 4 7 41 0;
#X connect 5 0 21 0;
#X connect 6 0 21 0;
#X connect 7 0 21 0;
#X connect 8 0 21 0;
#X connect 9 0 21 0;
#X connect 10 0 21 0;
#X connect 11 0 21 0;
#X connect 12 0 21 0;
#X connect 13 0 5 1;
#X connect 14 0 6 1;
#X connect 15 0 7 1;
#X connect 16 0 8 1;
#X connect 17 0 9 1;
#X connect 18 0 10 1;
#X connect 19 0 11 1;
#X connect 20 0 12 1;
#X connect 22 0 38 0;
#X connect 23 0 38 0;
#X connect 24 0 38 0;
#X connect 25 0 38 0;
#X connect 26 0 38 0;
#X connect 27 0 38 0;
#X connect 28 0 38 0;
#X connect 29 0 38 0;
#X connect 30 0 22 1;
#X connect 31 0 23 1;
#X connect 32 0 24 1;
#X connect 33 0 25 1;
#X connect 34 0 26 1;
#X connect 35 0 27 1;
#X connect 36 0 28 1;
#X connect 37 0 29 1;
#X coords 0 1 100 -1 200 200 1 0 0;
#X restore 340 61 graph;
