#N canvas 0 0 450 300 10;
#N canvas 1242 29 794 597 bag 1;
#X floatatom 88 58 5 0 0 0 - - -;
#X obj 78 97 spigot;
#X floatatom 46 148 5 0 0 0 - - -;
#X floatatom 21 121 5 0 0 0 - - -;
#X obj 440 497 tgl 15 0 empty empty empty 17 7 0 10 -262144 -1 -1 0
1;
#X obj 123 150 tgl 15 0 empty empty empty 17 7 0 10 -262144 -1 -1 0
1;
#X obj 154 154 tgl 15 0 empty empty empty 17 7 0 10 -262144 -1 -1 0
1;
#X obj 88 18 inlet;
#N canvas 333 0 450 697 xlrmtr 1;
#X obj 87 3 r page-4;
#X floatatom 56 451 5 0 0 0 - - -;
#X floatatom 128 451 5 0 0 0 - - -;
#X floatatom 200 453 5 0 0 0 - - -;
#X obj 78 83 * 127;
#X obj 124 82 * 127;
#X obj 51 237 grid grid2 127 1 127 127 1 127 0 1 1 10 10 133.809 283.005
;
#X msg 56 175 goto \$1 \$2;
#X obj 56 138 pack 1 1;
#X text 52 478 ctl20;
#X text 123 481 ctl21;
#X text 197 479 ctl22;
#X text 189 205 chnl#16;
#X obj 89 51 unpack f f f;
#X obj 87 27 spigot;
#X text 104 468 Up/down tilt;
#X text 45 468 L/R Tilt;
#X text 194 468 top/bttm;
#X obj 236 214 vsl 15 256 1 256 0 0 empty empty empty 0 -9 0 10 -262144
-1 -1 0 1;
#X floatatom 212 541 5 0 0 0 - - -;
#X obj 178 83 * 256;
#X obj 218 515 moses 127;
#X obj 317 539 - 127;
#X floatatom 369 611 5 0 0 0 - - -;
#X obj 315 606 t b b;
#X obj 305 651 f;
#X obj 309 681 + 1;
#X obj 319 565 sel 129;
#X obj 202 422 tgl 15 0 empty empty empty 17 7 0 10 -262144 -1 -1 0
1;
#X obj 362 723 * 127;
#X floatatom 267 623 5 0 0 0 - - -;
#X msg 339 635 1;
#X obj 309 710 bng 15 250 50 0 empty empty empty 17 7 0 10 -262144
-1 -1;
#X obj 153 3 inlet;
#X obj 13 612 outlet;
#X obj 58 611 outlet;
#X obj 103 611 outlet;
#X obj 148 611 outlet;
#X text 70 630 Y;
#X text 118 630 Z;
#X text 146 631 Z flip switch;
#X text 25 630 X;
#X obj 322 586 delay 500;
#X connect 0 0 14 0;
#X connect 1 0 34 0;
#X connect 2 0 35 0;
#X connect 3 0 21 0;
#X connect 4 0 8 0;
#X connect 5 0 8 1;
#X connect 6 0 1 0;
#X connect 6 1 2 0;
#X connect 7 0 6 0;
#X connect 8 0 7 0;
#X connect 13 0 4 0;
#X connect 13 1 5 0;
#X connect 13 2 20 0;
#X connect 14 0 13 0;
#X connect 18 0 3 0;
#X connect 19 0 36 0;
#X connect 20 0 18 0;
#X connect 21 0 19 0;
#X connect 21 1 22 0;
#X connect 22 0 27 0;
#X connect 24 0 25 0;
#X connect 24 1 31 0;
#X connect 25 0 26 0;
#X connect 26 0 32 0;
#X connect 27 0 30 0;
#X connect 27 0 42 0;
#X connect 27 1 23 0;
#X connect 28 0 29 0;
#X connect 29 0 37 0;
#X connect 31 0 25 1;
#X connect 32 0 28 0;
#X connect 33 0 14 1;
#X connect 42 0 24 0;
#X restore 215 108 pd xlrmtr ctrl;
#X text 337 109 5;
#X text 336 209 6;
#X obj 204 148 ctlout 36 13;
#X obj 288 148 ctlout 37 13;
#X obj 250 174 ctlout 38 13;
#X obj 333 174 ctlout 39 13;
#X obj 204 240 ctlout 40 13;
#X obj 288 240 ctlout 41 13;
#X obj 250 266 ctlout 42 13;
#X obj 333 266 ctlout 43 13;
#N canvas 333 0 450 752 xlrmtr 0;
#X obj 87 3 r page-4;
#X floatatom 56 451 5 0 0 0 - - -;
#X floatatom 128 451 5 0 0 0 - - -;
#X floatatom 200 453 5 0 0 0 - - -;
#X obj 78 83 * 127;
#X obj 124 82 * 127;
#X obj 51 237 grid grid2 127 1 127 127 1 127 0 1 1 10 10 133.809 296.806
;
#X msg 56 175 goto \$1 \$2;
#X obj 56 138 pack 1 1;
#X text 52 478 ctl20;
#X text 123 481 ctl21;
#X text 197 479 ctl22;
#X text 189 205 chnl#16;
#X obj 89 51 unpack f f f;
#X obj 87 27 spigot;
#X text 104 468 Up/down tilt;
#X text 45 468 L/R Tilt;
#X text 194 468 top/bttm;
#X obj 236 214 vsl 15 256 1 256 0 0 empty empty empty 0 -9 0 10 -262144
-1 -1 0 1;
#X floatatom 212 541 5 0 0 0 - - -;
#X obj 178 83 * 256;
#X obj 218 515 moses 127;
#X obj 317 527 - 127;
#X floatatom 369 611 5 0 0 0 - - -;
#X obj 315 606 t b b;
#X obj 305 651 f;
#X obj 309 681 + 1;
#X obj 320 556 sel 129;
#X obj 202 422 tgl 15 0 empty empty empty 17 7 0 10 -262144 -1 -1 0
1;
#X obj 362 723 * 127;
#X floatatom 267 623 5 0 0 0 - - -;
#X msg 339 635 1;
#X obj 309 710 bng 15 250 50 0 empty empty empty 17 7 0 10 -262144
-1 -1;
#X obj 153 3 inlet;
#X obj 13 612 outlet;
#X obj 58 611 outlet;
#X obj 103 611 outlet;
#X obj 148 611 outlet;
#X text 70 630 Y;
#X text 118 630 Z;
#X text 146 631 Z flip switch;
#X text 25 630 X;
#X obj 322 583 delay 500;
#X connect 0 0 14 0;
#X connect 1 0 34 0;
#X connect 2 0 35 0;
#X connect 3 0 21 0;
#X connect 4 0 8 0;
#X connect 5 0 8 1;
#X connect 6 0 1 0;
#X connect 6 1 2 0;
#X connect 7 0 6 0;
#X connect 8 0 7 0;
#X connect 13 0 4 0;
#X connect 13 1 5 0;
#X connect 13 2 20 0;
#X connect 14 0 13 0;
#X connect 18 0 3 0;
#X connect 19 0 36 0;
#X connect 20 0 18 0;
#X connect 21 0 19 0;
#X connect 21 1 22 0;
#X connect 22 0 27 0;
#X connect 24 0 25 0;
#X connect 24 1 31 0;
#X connect 25 0 26 0;
#X connect 26 0 32 0;
#X connect 27 0 30 0;
#X connect 27 0 42 0;
#X connect 27 1 23 0;
#X connect 28 0 29 0;
#X connect 29 0 37 0;
#X connect 31 0 25 1;
#X connect 32 0 28 0;
#X connect 33 0 14 1;
#X connect 42 0 24 0;
#X restore 213 198 pd xlrmtr ctrl;
#N canvas 1057 0 450 697 xlrmtr 1;
#X floatatom 23 410 5 0 0 0 - - -;
#X floatatom 65 409 5 0 0 0 - - -;
#X floatatom 175 384 5 0 0 0 - - -;
#X obj 78 83 * 127;
#X obj 124 82 * 127;
#X obj 51 237 grid grid2 127 1 127 127 1 127 0 1 1 10 10 126.48 295.969
;
#X msg 56 175 goto \$1 \$2;
#X obj 56 138 pack 1 1;
#X text 184 431 ctl22;
#X text 189 205 chnl#16;
#X obj 89 51 unpack f f f;
#X obj 87 27 spigot;
#X text 42 478 Up/down tilt;
#X text 12 462 L/R Tilt;
#X text 181 420 top/bttm;
#X obj 180 112 vsl 15 256 1 256 0 0 empty empty empty 0 -9 0 10 -262144
-1 -1 4655 1;
#X floatatom 104 410 5 0 0 0 - - -;
#X obj 178 83 * 256;
#X obj 190 400 moses 127;
#X obj 280 152 - 127;
#X floatatom 332 236 5 0 0 0 - - -;
#X obj 278 231 t b b;
#X obj 268 276 f;
#X obj 272 306 + 1;
#X obj 283 181 sel 129;
#X obj 149 408 tgl 15 0 empty empty empty 17 7 0 10 -262144 -1 -1 0
1;
#X obj 275 364 * 127;
#X floatatom 230 248 5 0 0 0 - - -;
#X msg 302 260 1;
#X obj 272 335 bng 15 250 50 0 empty empty empty 17 7 0 10 -262144
-1 -1;
#X obj 153 3 inlet;
#X obj 11 431 outlet;
#X obj 56 430 outlet;
#X obj 101 430 outlet;
#X obj 146 430 outlet;
#X text 68 449 Y;
#X text 116 449 Z;
#X text 144 450 Z flip switch;
#X text 23 449 X;
#X obj 285 208 delay 500;
#X obj 87 3 r xlrmtr1;
#X text 137 506 add links to the crosshairs and text uipdate in the
visual systewm;
#X connect 0 0 31 0;
#X connect 1 0 32 0;
#X connect 2 0 18 0;
#X connect 3 0 7 0;
#X connect 4 0 7 1;
#X connect 5 0 0 0;
#X connect 5 1 1 0;
#X connect 6 0 5 0;
#X connect 7 0 6 0;
#X connect 10 0 3 0;
#X connect 10 1 4 0;
#X connect 10 2 17 0;
#X connect 11 0 10 0;
#X connect 15 0 2 0;
#X connect 16 0 33 0;
#X connect 17 0 15 0;
#X connect 18 0 16 0;
#X connect 18 1 19 0;
#X connect 19 0 24 0;
#X connect 21 0 22 0;
#X connect 21 1 28 0;
#X connect 22 0 23 0;
#X connect 23 0 29 0;
#X connect 24 0 27 0;
#X connect 24 0 39 0;
#X connect 24 1 20 0;
#X connect 25 0 26 0;
#X connect 26 0 34 0;
#X connect 28 0 22 1;
#X connect 29 0 25 0;
#X connect 30 0 11 1;
#X connect 39 0 21 0;
#X connect 40 0 11 0;
#X restore 439 520 pd xlrmtr ctrl;
#X obj 83 124 select 74 72 70;
#X obj 28 320 cnv 15 250 300 empty empty empty 20 12 0 14 -4032 -66577
0;
#X floatatom 102 562 5 0 0 0 - - -;
#X obj 109 602 outlet;
#X obj 192 348 inlet;
#X obj 99 350 inlet;
#X obj 63 372 t b;
#X obj 68 424 bng 15 250 50 0 empty empty empty 17 7 0 10 -262144 -1
-1;
#X obj 63 399 delay 250;
#X obj 168 378 t b;
#X obj 173 430 bng 15 250 50 0 empty empty empty 17 7 0 10 -262144
-1 -1;
#X obj 168 405 delay 250;
#X obj 120 520 counter 1 1 8;
#X text 51 324 plus/minus counter;
#X floatatom 547 154 5 0 0 0 - - -;
#X floatatom 546 118 5 0 0 0 - - -;
#X floatatom 546 62 5 0 0 0 - - -;
#X obj 547 134 wrap -10 10;
#X obj 546 79 clip 57 96;
#X obj 546 98 - 60;
#X text 473 31 this will take the axial range and use it to control
a spigot which will provide xlrmtr control.;
#X obj 437 559 s osc1;
#X obj 493 580 s osc1;
#X obj 463 541 s osc1;
#X obj 520 560 s somethingelse;
#X obj 445 459 > 0.98;
#X obj 444 439 r frange1;
#X obj 585 477 tgl 15 0 empty empty empty 17 7 0 10 -262144 -1 -1 1
1;
#X text 702 506 4;
#N canvas 1532 33 450 697 xlrmtr 0;
#X floatatom 23 410 5 0 0 0 - - -;
#X floatatom 65 409 5 0 0 0 - - -;
#X floatatom 175 384 5 0 0 0 - - -;
#X obj 78 83 * 127;
#X obj 124 82 * 127;
#X obj 51 237 grid grid2 127 1 127 127 1 127 0 1 1 10 10 116.797 329.984
;
#X msg 56 175 goto \$1 \$2;
#X obj 56 138 pack 1 1;
#X text 184 431 ctl22;
#X text 189 205 chnl#16;
#X obj 89 51 unpack f f f;
#X obj 87 27 spigot;
#X text 42 478 Up/down tilt;
#X text 12 462 L/R Tilt;
#X text 181 420 top/bttm;
#X obj 180 112 vsl 15 256 1 256 0 0 empty empty empty 0 -9 0 10 -262144
-1 -1 12037 1;
#X floatatom 104 410 5 0 0 0 - - -;
#X obj 178 83 * 256;
#X obj 190 400 moses 127;
#X obj 280 152 - 127;
#X floatatom 332 236 5 0 0 0 - - -;
#X obj 278 231 t b b;
#X obj 268 276 f;
#X obj 272 306 + 1;
#X obj 283 181 sel 129;
#X obj 149 408 tgl 15 0 empty empty empty 17 7 0 10 -262144 -1 -1 1
1;
#X obj 275 364 * 127;
#X floatatom 230 248 5 0 0 0 - - -;
#X msg 302 260 1;
#X obj 272 335 bng 15 250 50 0 empty empty empty 17 7 0 10 -262144
-1 -1;
#X obj 153 3 inlet;
#X obj 11 431 outlet;
#X obj 56 430 outlet;
#X obj 101 430 outlet;
#X obj 146 430 outlet;
#X text 68 449 Y;
#X text 116 449 Z;
#X text 144 450 Z flip switch;
#X text 23 449 X;
#X obj 285 208 delay 500;
#X obj 87 3 r xlrmtr1;
#X text 137 506 add links to the crosshairs and text uipdate in the
visual systewm;
#X connect 0 0 31 0;
#X connect 1 0 32 0;
#X connect 2 0 18 0;
#X connect 3 0 7 0;
#X connect 4 0 7 1;
#X connect 5 0 0 0;
#X connect 5 1 1 0;
#X connect 6 0 5 0;
#X connect 7 0 6 0;
#X connect 10 0 3 0;
#X connect 10 1 4 0;
#X connect 10 2 17 0;
#X connect 11 0 10 0;
#X connect 15 0 2 0;
#X connect 16 0 33 0;
#X connect 17 0 15 0;
#X connect 18 0 16 0;
#X connect 18 1 19 0;
#X connect 19 0 24 0;
#X connect 21 0 22 0;
#X connect 21 1 28 0;
#X connect 22 0 23 0;
#X connect 23 0 29 0;
#X connect 24 0 27 0;
#X connect 24 0 39 0;
#X connect 24 1 20 0;
#X connect 25 0 26 0;
#X connect 26 0 34 0;
#X connect 28 0 22 1;
#X connect 29 0 25 0;
#X connect 30 0 11 1;
#X connect 39 0 21 0;
#X connect 40 0 11 0;
#X restore 584 500 pd xlrmtr ctrl;
#X obj 582 539 s osc1;
#X obj 638 560 s osc1;
#X obj 608 521 s osc1;
#X obj 665 540 s somethingelse;
#X floatatom 207 482 5 0 0 0 - - -;
#X floatatom 145 482 5 0 0 0 - - -;
#X floatatom 76 485 5 0 0 0 - - -;
#X obj 530 290 bng 15 250 50 0 empty empty empty 17 7 0 10 -262144
-1 -1;
#X floatatom 536 381 5 0 0 0 - - -;
#X obj 564 291 bng 15 250 50 0 empty empty empty 17 7 0 10 -262144
-1 -1;
#X floatatom 583 377 5 0 0 0 - - -;
#X msg 520 242 1;
#X msg 568 265 2;
#X obj 531 337 counter -6;
#X connect 0 0 1 1;
#X connect 1 0 2 0;
#X connect 1 0 21 0;
#X connect 4 0 20 0;
#X connect 5 0 8 0;
#X connect 6 0 19 0;
#X connect 7 0 0 0;
#X connect 8 0 11 0;
#X connect 8 1 12 0;
#X connect 8 2 13 0;
#X connect 8 3 14 0;
#X connect 19 0 15 0;
#X connect 19 1 16 0;
#X connect 19 2 17 0;
#X connect 19 3 18 0;
#X connect 20 0 42 0;
#X connect 20 1 44 0;
#X connect 20 2 43 0;
#X connect 20 3 45 0;
#X connect 21 1 5 0;
#X connect 21 2 6 0;
#X connect 23 0 24 0;
#X connect 25 0 30 0;
#X connect 26 0 27 0;
#X connect 27 0 29 0;
#X connect 28 0 33 0;
#X connect 29 0 28 0;
#X connect 30 0 32 0;
#X connect 31 0 33 3;
#X connect 32 0 31 0;
#X connect 33 0 23 0;
#X connect 36 0 38 0;
#X connect 37 0 39 0;
#X connect 38 0 35 0;
#X connect 39 0 40 0;
#X connect 40 0 36 0;
#X connect 47 0 46 0;
#X connect 48 0 50 0;
#X connect 50 0 51 0;
#X connect 50 1 53 0;
#X connect 50 2 52 0;
#X connect 50 3 54 0;
#X connect 55 0 33 2;
#X connect 56 0 33 1;
#X connect 57 0 33 0;
#X connect 58 0 64 0;
#X connect 60 0 64 3;
#X connect 62 0 64 0;
#X connect 63 0 64 0;
#X connect 64 0 59 0;
#X connect 64 1 61 0;
#X restore -20 570 pd bag 2;
