#N canvas 1672 -8 1366 726 10;
#X declare -stdpath extra/moocow -lib pdstring;
#X declare -stdpath extra/moocow -lib pdstring;
#X declare -stdpath extra/moocow -lib pdstring;
#X obj 879 -10355 r pgmout;
#X obj 914 -10167 tgl 15 0 empty empty empty 17 7 0 10 -262144 -1 -1
0 1;
#X obj 919 -10251 tgl 15 0 empty empty empty 17 7 0 10 -262144 -1 -1
0 1;
#X obj 886 -10252 == 2;
#X obj 882 -10168 == 3;
#X obj 912 -10336 tgl 15 0 empty empty empty 17 7 0 10 -262144 -1 -1
0 1;
#X obj 882 -10335 == 1;
#X obj 880 -9833 == 7;
#X obj 911 -9834 tgl 15 0 empty empty empty 17 7 0 10 -262144 -1 -1
0 1;
#X obj 916 -10086 tgl 15 0 empty empty empty 17 7 0 10 -262144 -1 -1
0 1;
#X obj 884 -10087 == 4;
#X obj 915 -10003 tgl 15 0 empty empty empty 17 7 0 10 -262144 -1 -1
0 1;
#X obj 883 -10004 == 5;
#X obj 912 -9918 tgl 15 0 empty empty empty 17 7 0 10 -262144 -1 -1
1 1;
#X obj 882 -9920 == 6;
#X obj 911 -9750 tgl 15 0 empty empty empty 17 7 0 10 -262144 -1 -1
0 1;
#X obj 879 -9751 == 8;
#X obj -126 -9794 looper1edit;
#X obj 220 -9855 mutemode;
#X obj 214 -9957 feedbackmode;
#N canvas 279 192 1348 708 modes 0;
#X obj 101 101 cnv 15 172 60 empty empty empty 20 12 0 14 -4034 -66577
0;
#X obj 54 52 s rjuforward;
#X obj 135 52 s rjuback;
#X obj 201 51 s rjuup;
#X obj 259 55 s rjudown;
#X obj 85 31 tgl 15 0 empty empty empty 17 7 0 10 -262144 -1 -1 0 1
;
#X obj 83 12 sel 0 1;
#X obj 137 30 tgl 15 0 empty empty empty 17 7 0 10 -262144 -1 -1 0
1;
#X obj 141 10 sel 0 1;
#X obj 201 31 tgl 15 0 empty empty empty 17 7 0 10 -262144 -1 -1 0
1;
#X obj 202 9 sel 0 1;
#X obj 260 31 tgl 15 0 empty empty empty 17 7 0 10 -262144 -1 -1 0
1;
#X msg 271 74 0;
#X msg 208 75 0;
#X msg 149 76 0;
#X msg 86 76 0;
#X obj 145 103 tgl 15 0 empty empty empty 17 7 0 10 -262144 -1 -1 0
1;
#X obj 190 126 tgl 15 0 empty empty empty 17 7 0 10 -262144 -1 -1 0
1;
#X obj 144 142 tgl 15 0 empty empty empty 17 7 0 10 -262144 -1 -1 0
1;
#X obj 103 123 tgl 15 0 empty empty empty 17 7 0 10 -262144 -1 -1 0
1;
#X msg 105 31 1;
#X obj 265 10 sel 0 1;
#X obj 80 -36 r jru1;
#X obj 141 -35 r jru2;
#X obj 198 -34 r jru3;
#X obj 264 -33 r jru4;
#X msg 163 31 2;
#X msg 227 30 3;
#X msg 289 34 4;
#X obj 791 -21 xlrmtrmatrix forward;
#X obj 368 532 r fl4;
#X obj 416 589 s fl4-1;
#X obj 466 589 s fl4-2;
#X obj 517 590 s fl4-3;
#X obj 566 591 s fl4-4;
#X obj 414 421 s fl3-1;
#X obj 462 421 s fl3-2;
#X obj 511 421 s fl3-3;
#X obj 560 422 s fl3-4;
#X obj 419 341 s fl2-1;
#X obj 468 340 s fl2-2;
#X obj 518 342 s fl2-3;
#X obj 567 342 s fl2-4;
#X obj 422 103 s fl1-1;
#X obj 473 103 s fl1-2;
#X obj 523 104 s fl1-3;
#X obj 571 104 s fl1-4;
#X obj 419 667 s fr4-1;
#X obj 469 666 s fr4-2;
#X obj 519 669 s fr4-3;
#X obj 496 683 s fr4-4;
#X obj 423 502 s fr3-1;
#X obj 472 502 s fr3-2;
#X obj 520 504 s fr3-3;
#X obj 569 504 s fr3-4;
#X obj 417 261 s fr2-1;
#X obj 468 262 s fr2-2;
#X obj 517 261 s fr2-3;
#X obj 567 262 s fr2-4;
#X obj 423 185 s fr1-1;
#X obj 471 185 s fr1-2;
#X obj 519 187 s fr1-3;
#X obj 570 188 s fr1-4;
#X obj 366 587 s fl4-0;
#X obj 364 420 s fl3-0;
#X obj 370 340 s fl2-0;
#X obj 373 103 s fl1-0;
#X obj 368 664 s fr4-0;
#X obj 373 502 s fr3-0;
#X obj 369 259 s fr2-0;
#X obj 374 185 s fr1-0;
#X obj 368 564 spigot;
#X obj 411 565 spigot;
#X obj 453 565 spigot;
#X obj 497 567 spigot;
#X obj 540 567 spigot;
#X obj 369 400 spigot;
#X obj 412 401 spigot;
#X obj 453 401 spigot;
#X obj 496 402 spigot;
#X obj 541 403 spigot;
#X obj 369 368 r fl3;
#X obj 365 318 spigot;
#X obj 408 319 spigot;
#X obj 449 319 spigot;
#X obj 492 320 spigot;
#X obj 537 321 spigot;
#X obj 367 282 r fl2;
#X obj 372 80 spigot;
#X obj 415 81 spigot;
#X obj 457 81 spigot;
#X obj 499 82 spigot;
#X obj 542 82 spigot;
#X obj 372 48 r fl1;
#X obj 369 644 spigot;
#X obj 412 645 spigot;
#X obj 453 645 spigot;
#X obj 496 646 spigot;
#X obj 541 647 spigot;
#X obj 374 239 spigot;
#X obj 417 240 spigot;
#X obj 458 240 spigot;
#X obj 501 241 spigot;
#X obj 546 242 spigot;
#X obj 366 477 spigot;
#X obj 409 478 spigot;
#X obj 450 478 spigot;
#X obj 493 479 spigot;
#X obj 538 480 spigot;
#X obj 373 160 spigot;
#X obj 416 161 spigot;
#X obj 457 161 spigot;
#X obj 500 162 spigot;
#X obj 543 162 spigot;
#X obj 369 612 r fr4;
#X obj 374 207 r fr2;
#X obj 366 445 r fr3;
#X obj 373 128 r fr1;
#N canvas 762 231 883 283 recievematrix 0;
#X obj 18 118 r default;
#X obj 80 117 r instedit;
#X obj 146 118 r looperedit;
#X obj 228 118 r systemedit;
#X obj 308 118 r fxedit;
#X obj 19 156 outlet;
#X obj 80 156 outlet;
#X obj 144 155 outlet;
#X obj 226 158 outlet;
#X obj 307 155 outlet;
#X obj 458 21 r rjuforward;
#X obj 319 24 r rjuback;
#X obj 19 26 r rjuup;
#X obj 171 24 r rjudown;
#X obj 462 45 == 0;
#X obj 496 43 == 1;
#X obj 522 65 s instedit;
#X obj 460 65 s default;
#X obj 20 52 == 0;
#X obj 18 72 s default;
#X obj 164 52 == 0;
#X obj 162 72 s default;
#X obj 80 72 s systemedit;
#X obj 318 48 == 0;
#X obj 316 68 s default;
#X obj 352 46 == 1;
#X obj 198 50 == 1;
#X obj 54 50 == 1;
#X obj 534 44 tgl 15 0 empty empty empty 17 7 0 10 -262144 -1 -1 0
1;
#X obj 394 49 tgl 15 0 empty empty empty 17 7 0 10 -262144 -1 -1 0
1;
#X obj 240 50 tgl 15 0 empty empty empty 17 7 0 10 -262144 -1 -1 0
1;
#X obj 94 49 tgl 15 0 empty empty empty 17 7 0 10 -262144 -1 -1 0 1
;
#X obj 380 68 s looperedit;
#X obj 228 73 s fxedit;
#X obj 379 114 r mutemode;
#X obj 472 117 r feedbackmode;
#X obj 393 155 outlet;
#X obj 474 152 outlet;
#X obj 596 43 == 0;
#X obj 630 41 == 1;
#X obj 594 63 s default;
#X obj 668 42 tgl 15 0 empty empty empty 17 7 0 10 -262144 -1 -1 0
1;
#X obj 656 63 s mutemode;
#X obj 736 41 == 0;
#X obj 770 39 == 1;
#X obj 734 61 s default;
#X obj 809 41 tgl 15 0 empty empty empty 17 7 0 10 -262144 -1 -1 0
1;
#X obj 797 62 s feedbackmode;
#X obj 592 19 r jrb3;
#X obj 740 17 r jrb2;
#X msg 608 104 0;
#X connect 0 0 5 0;
#X connect 1 0 6 0;
#X connect 2 0 7 0;
#X connect 3 0 8 0;
#X connect 4 0 9 0;
#X connect 10 0 14 0;
#X connect 10 0 15 0;
#X connect 10 0 28 0;
#X connect 11 0 23 0;
#X connect 11 0 25 0;
#X connect 11 0 29 0;
#X connect 12 0 18 0;
#X connect 12 0 27 0;
#X connect 12 0 31 0;
#X connect 13 0 20 0;
#X connect 13 0 26 0;
#X connect 13 0 30 0;
#X connect 14 0 17 0;
#X connect 15 0 16 0;
#X connect 18 0 19 0;
#X connect 20 0 21 0;
#X connect 23 0 24 0;
#X connect 25 0 32 0;
#X connect 26 0 33 0;
#X connect 27 0 22 0;
#X connect 34 0 36 0;
#X connect 35 0 37 0;
#X connect 38 0 40 0;
#X connect 39 0 42 0;
#X connect 43 0 45 0;
#X connect 44 0 47 0;
#X connect 48 0 38 0;
#X connect 48 0 39 0;
#X connect 48 0 41 0;
#X connect 49 0 43 0;
#X connect 49 0 44 0;
#X connect 49 0 46 0;
#X restore 562 -31 pd recievematrix;
#X msg 17 306 283.465 3 472.441 826.772 23.622 1677.17 1;
#X obj 17 349 s alarm;
#X obj 17 285 sel 1 0;
#X msg 36 327 196.85 1 637.795 283.465 283.465 472.441 0.0866142;
#X obj 612 568 spigot;
#X obj 657 569 spigot;
#X obj 613 648 spigot;
#X obj 658 649 spigot;
#X obj 627 587 s fl4-5;
#X obj 676 588 s fl4-6;
#X obj 629 668 s fr4-5;
#X obj 679 669 s fr4-6;
#X obj 592 400 spigot;
#X obj 637 401 spigot;
#X obj 597 239 spigot;
#X obj 642 240 spigot;
#X obj 607 419 s fl3-5;
#X obj 656 420 s fl3-6;
#X obj 613 259 s fr2-5;
#X obj 663 260 s fr2-6;
#X obj 604 322 spigot;
#X obj 649 323 spigot;
#X obj 607 481 spigot;
#X obj 652 482 spigot;
#X obj 623 501 s fr3-5;
#X obj 673 502 s fr3-6;
#X obj 619 341 s fl2-5;
#X obj 668 342 s fl2-6;
#X obj 591 81 spigot;
#X obj 636 82 spigot;
#X obj 592 161 spigot;
#X obj 637 162 spigot;
#X obj 606 100 s fl1-5;
#X obj 608 181 s fr1-5;
#X obj 658 182 s fr1-6;
#X obj 655 101 s fl1-6;
#X obj 828 119 spigot;
#X obj 871 120 spigot;
#X obj 868 310 s fr2-1;
#X obj 821 389 s fl2-0;
#X obj 820 308 s fr2-0;
#X obj 816 367 spigot;
#X obj 859 368 spigot;
#X obj 818 331 r fl2;
#X obj 825 288 spigot;
#X obj 868 289 spigot;
#X obj 825 256 r fr2;
#X obj 873 391 s fl2-1;
#X obj 828 87 r jrb1;
#X obj 1179 47 spigot;
#X obj 1222 48 spigot;
#X obj 1062 47 spigot;
#X obj 1116 48 spigot;
#X obj 1079 16 r jlb1;
#X obj 829 142 s jrb1-0;
#X obj 884 140 s jrb1-1;
#X obj 1059 70 s jlb1-0;
#X obj 1121 67 s jlb1-1;
#X obj 1180 70 s jlb1-2;
#X obj 1235 68 s jlb1-3;
#X obj 830 196 spigot;
#X obj 873 197 spigot;
#X obj 830 164 r jrb4;
#X obj 831 219 s jrb4-0;
#X obj 886 217 s jrb4-1;
#X obj 1189 147 spigot;
#X obj 1232 148 spigot;
#X obj 1072 147 spigot;
#X obj 1126 148 spigot;
#X obj 1089 116 r jlb4;
#X obj 1069 170 s jlb4-0;
#X obj 1131 167 s jlb4-1;
#X obj 1190 170 s jlb4-2;
#X obj 1245 168 s jlb4-3;
#X obj 1048 224 tgl 15 0 empty empty empty 17 7 0 10 -262144 -1 -1
0 1;
#X obj 66 257 s flash-instr;
#X obj 1005 139 tgl 15 0 empty empty empty 17 7 0 10 -262144 -1 -1
0 1;
#X obj 935 114 tgl 15 0 empty empty empty 17 7 0 10 -262144 -1 -1 0
1;
#X text 161 143 MULTI-MODE;
#X text 209 125 PRESETS;
#X text 119 123 INST/FX-E;
#X text 163 101 LOOPER;
#X connect 5 0 1 0;
#X connect 5 0 19 0;
#X connect 5 0 121 0;
#X connect 5 0 194 0;
#X connect 6 0 5 0;
#X connect 6 1 20 0;
#X connect 7 0 2 0;
#X connect 7 0 16 0;
#X connect 8 0 7 0;
#X connect 8 1 26 0;
#X connect 9 0 3 0;
#X connect 9 0 18 0;
#X connect 10 0 9 0;
#X connect 10 1 27 0;
#X connect 11 0 17 0;
#X connect 11 0 4 0;
#X connect 12 0 9 0;
#X connect 12 0 7 0;
#X connect 12 0 5 0;
#X connect 13 0 5 0;
#X connect 13 0 7 0;
#X connect 13 0 11 0;
#X connect 14 0 5 0;
#X connect 14 0 9 0;
#X connect 14 0 11 0;
#X connect 15 0 7 0;
#X connect 15 0 9 0;
#X connect 15 0 11 0;
#X connect 20 0 15 0;
#X connect 21 0 11 0;
#X connect 21 1 28 0;
#X connect 22 0 6 0;
#X connect 23 0 8 0;
#X connect 24 0 10 0;
#X connect 25 0 21 0;
#X connect 26 0 14 0;
#X connect 27 0 13 0;
#X connect 28 0 12 0;
#X connect 30 0 71 0;
#X connect 30 0 72 0;
#X connect 30 0 74 0;
#X connect 30 0 75 0;
#X connect 30 0 73 0;
#X connect 30 0 123 0;
#X connect 30 0 124 0;
#X connect 71 0 63 0;
#X connect 72 0 31 0;
#X connect 73 0 32 0;
#X connect 74 0 33 0;
#X connect 75 0 34 0;
#X connect 76 0 64 0;
#X connect 77 0 35 0;
#X connect 78 0 36 0;
#X connect 79 0 37 0;
#X connect 80 0 38 0;
#X connect 81 0 76 0;
#X connect 81 0 77 0;
#X connect 81 0 79 0;
#X connect 81 0 80 0;
#X connect 81 0 78 0;
#X connect 81 0 131 0;
#X connect 81 0 132 0;
#X connect 82 0 65 0;
#X connect 83 0 39 0;
#X connect 84 0 40 0;
#X connect 85 0 41 0;
#X connect 86 0 42 0;
#X connect 87 0 82 0;
#X connect 87 0 83 0;
#X connect 87 0 85 0;
#X connect 87 0 86 0;
#X connect 87 0 84 0;
#X connect 87 0 139 0;
#X connect 87 0 140 0;
#X connect 88 0 66 0;
#X connect 89 0 43 0;
#X connect 90 0 44 0;
#X connect 91 0 45 0;
#X connect 92 0 46 0;
#X connect 93 0 88 0;
#X connect 93 0 89 0;
#X connect 93 0 91 0;
#X connect 93 0 92 0;
#X connect 93 0 90 0;
#X connect 93 0 147 0;
#X connect 93 0 148 0;
#X connect 94 0 67 0;
#X connect 95 0 47 0;
#X connect 96 0 48 0;
#X connect 97 0 49 0;
#X connect 98 0 50 0;
#X connect 99 0 69 0;
#X connect 100 0 55 0;
#X connect 101 0 56 0;
#X connect 102 0 57 0;
#X connect 103 0 58 0;
#X connect 104 0 68 0;
#X connect 105 0 51 0;
#X connect 106 0 52 0;
#X connect 107 0 53 0;
#X connect 108 0 54 0;
#X connect 109 0 70 0;
#X connect 110 0 59 0;
#X connect 111 0 60 0;
#X connect 112 0 61 0;
#X connect 113 0 62 0;
#X connect 114 0 94 0;
#X connect 114 0 95 0;
#X connect 114 0 97 0;
#X connect 114 0 98 0;
#X connect 114 0 96 0;
#X connect 114 0 125 0;
#X connect 114 0 126 0;
#X connect 115 0 99 0;
#X connect 115 0 100 0;
#X connect 115 0 102 0;
#X connect 115 0 103 0;
#X connect 115 0 101 0;
#X connect 115 0 133 0;
#X connect 115 0 134 0;
#X connect 116 0 104 0;
#X connect 116 0 105 0;
#X connect 116 0 107 0;
#X connect 116 0 108 0;
#X connect 116 0 106 0;
#X connect 116 0 141 0;
#X connect 116 0 142 0;
#X connect 117 0 109 0;
#X connect 117 0 110 0;
#X connect 117 0 112 0;
#X connect 117 0 113 0;
#X connect 117 0 111 0;
#X connect 117 0 149 0;
#X connect 117 0 150 0;
#X connect 118 0 71 1;
#X connect 118 0 76 1;
#X connect 118 0 82 1;
#X connect 118 0 88 1;
#X connect 118 0 94 1;
#X connect 118 0 99 1;
#X connect 118 0 104 1;
#X connect 118 0 109 1;
#X connect 118 0 155 1;
#X connect 118 0 170 1;
#X connect 118 0 179 1;
#X connect 118 0 186 1;
#X connect 118 1 72 1;
#X connect 118 1 77 1;
#X connect 118 1 83 1;
#X connect 118 1 89 1;
#X connect 118 1 95 1;
#X connect 118 1 100 1;
#X connect 118 1 105 1;
#X connect 118 1 110 1;
#X connect 118 1 156 1;
#X connect 118 1 171 1;
#X connect 118 1 180 1;
#X connect 118 1 187 1;
#X connect 118 2 73 1;
#X connect 118 2 78 1;
#X connect 118 2 84 1;
#X connect 118 2 90 1;
#X connect 118 2 96 1;
#X connect 118 2 101 1;
#X connect 118 2 106 1;
#X connect 118 2 111 1;
#X connect 118 2 168 1;
#X connect 118 3 74 1;
#X connect 118 3 79 1;
#X connect 118 3 85 1;
#X connect 118 3 91 1;
#X connect 118 3 97 1;
#X connect 118 3 102 1;
#X connect 118 3 107 1;
#X connect 118 3 112 1;
#X connect 118 3 169 1;
#X connect 118 3 184 1;
#X connect 118 3 185 1;
#X connect 118 4 75 1;
#X connect 118 4 80 1;
#X connect 118 4 86 1;
#X connect 118 4 92 1;
#X connect 118 4 98 1;
#X connect 118 4 103 1;
#X connect 118 4 108 1;
#X connect 118 4 113 1;
#X connect 118 5 123 1;
#X connect 118 5 125 1;
#X connect 118 5 131 1;
#X connect 118 5 133 1;
#X connect 118 5 139 1;
#X connect 118 5 141 1;
#X connect 118 5 147 1;
#X connect 118 5 149 1;
#X connect 118 6 124 1;
#X connect 118 6 126 1;
#X connect 118 6 132 1;
#X connect 118 6 134 1;
#X connect 118 6 140 1;
#X connect 118 6 142 1;
#X connect 118 6 148 1;
#X connect 118 6 150 1;
#X connect 119 0 120 0;
#X connect 121 0 119 0;
#X connect 121 1 122 0;
#X connect 122 0 120 0;
#X connect 123 0 127 0;
#X connect 124 0 128 0;
#X connect 125 0 129 0;
#X connect 126 0 130 0;
#X connect 131 0 135 0;
#X connect 132 0 136 0;
#X connect 133 0 137 0;
#X connect 134 0 138 0;
#X connect 139 0 145 0;
#X connect 140 0 146 0;
#X connect 141 0 143 0;
#X connect 142 0 144 0;
#X connect 147 0 151 0;
#X connect 148 0 154 0;
#X connect 149 0 152 0;
#X connect 150 0 153 0;
#X connect 155 0 173 0;
#X connect 156 0 174 0;
#X connect 160 0 158 0;
#X connect 161 0 166 0;
#X connect 162 0 160 0;
#X connect 162 0 161 0;
#X connect 163 0 159 0;
#X connect 164 0 157 0;
#X connect 165 0 163 0;
#X connect 165 0 164 0;
#X connect 167 0 155 0;
#X connect 167 0 156 0;
#X connect 167 0 196 0;
#X connect 168 0 177 0;
#X connect 169 0 178 0;
#X connect 170 0 175 0;
#X connect 171 0 176 0;
#X connect 172 0 170 0;
#X connect 172 0 171 0;
#X connect 172 0 168 0;
#X connect 172 0 169 0;
#X connect 179 0 182 0;
#X connect 180 0 183 0;
#X connect 181 0 179 0;
#X connect 181 0 180 0;
#X connect 181 0 195 0;
#X connect 184 0 191 0;
#X connect 185 0 192 0;
#X connect 186 0 189 0;
#X connect 187 0 190 0;
#X connect 188 0 186 0;
#X connect 188 0 187 0;
#X connect 188 0 184 0;
#X connect 188 0 185 0;
#X connect 188 0 193 0;
#X coords 0 -1 1 1 175 60 1 100 100;
#X restore 252 -10162 pd modes;
#X obj 194 -10084 bits2num;
#X obj 336 -10333 beatjazzmouth;
#N canvas 17 103 1366 726 haptic1 0;
#X msg 130 42 3187.5;
#X msg 73 41 3375;
#X msg 25 42 3562.5;
#X floatatom 171 221 5 0 0 0 - - -;
#X obj 170 263 sig~;
#X floatatom 96 221 5 0 0 0 - - -;
#X obj 95 263 sig~;
#X obj 95 306 +~;
#X obj 95 283 osc~ 2000;
#X obj 171 284 osc~ 2000;
#X obj 95 180 * 15.74;
#X obj 170 180 * 15.74;
#X obj 170 200 clip 0 2000;
#X obj 95 200 clip 0 2000;
#X obj 170 242 + 2000;
#X obj 95 242 + 2000;
#X floatatom 202 262 5 0 0 0 - - -;
#X msg 178 41 3000;
#X obj 178 67 s n;
#X obj 318 101 r n;
#X obj 317 125 / 127;
#X obj 165 305 r haptic-vol;
#N canvas 601 92 707 540 alarm 0;
#N canvas 723 216 450 300 multi-tone-alarm 0;
#N canvas 0 0 450 300 cosc 0;
#X obj 144 89 inlet pitch;
#X obj 220 90 inlet spectrum;
#X obj 145 122 osc~;
#X obj 221 123 * 0.25;
#X obj 144 159 +~;
#X obj 145 182 cos~;
#X obj 146 206 outlet~;
#X connect 0 0 2 0;
#X connect 1 0 3 0;
#X connect 2 0 4 0;
#X connect 3 0 4 1;
#X connect 4 0 5 0;
#X connect 5 0 6 0;
#X restore 216 76 pd cosc;
#N canvas 0 0 450 300 cosc 0;
#X obj 144 89 inlet pitch;
#X obj 220 90 inlet spectrum;
#X obj 145 122 osc~;
#X obj 221 123 * 0.25;
#X obj 144 159 +~;
#X obj 145 182 cos~;
#X obj 146 206 outlet~;
#X connect 0 0 2 0;
#X connect 1 0 3 0;
#X connect 2 0 4 0;
#X connect 3 0 4 1;
#X connect 4 0 5 0;
#X connect 5 0 6 0;
#X restore 229 100 pd cosc;
#N canvas 0 0 450 300 cosc 0;
#X obj 144 89 inlet pitch;
#X obj 220 90 inlet spectrum;
#X obj 145 122 osc~;
#X obj 221 123 * 0.25;
#X obj 144 159 +~;
#X obj 145 182 cos~;
#X obj 146 206 outlet~;
#X connect 0 0 2 0;
#X connect 1 0 3 0;
#X connect 2 0 4 0;
#X connect 3 0 4 1;
#X connect 4 0 5 0;
#X connect 5 0 6 0;
#X restore 249 124 pd cosc;
#N canvas 0 0 450 300 cosc 0;
#X obj 144 89 inlet pitch;
#X obj 220 90 inlet spectrum;
#X obj 145 122 osc~;
#X obj 221 123 * 0.25;
#X obj 144 159 +~;
#X obj 145 182 cos~;
#X obj 146 206 outlet~;
#X connect 0 0 2 0;
#X connect 1 0 3 0;
#X connect 2 0 4 0;
#X connect 3 0 4 1;
#X connect 4 0 5 0;
#X connect 5 0 6 0;
#X restore 265 144 pd cosc;
#X obj 77 217 *~;
#X obj 125 216 *~;
#X obj 165 215 *~;
#X obj 210 215 *~;
#X obj 144 247 *~ 0.25;
#X obj 147 277 hip~ 50;
#X obj 148 300 *~ 0.2;
#X obj 146 333 dac~;
#N canvas 0 0 630 343 4phase-osc 0;
#X obj 175 269 cos~;
#X obj 296 76 wrap~;
#X obj 294 53 inlet~ run;
#X obj 296 99 *~ 4;
#X obj 169 135 clip~ 0 1;
#X obj 173 217 *~ 0.5;
#X obj 174 241 -~ 0.25;
#X obj 174 296 outlet~;
#X obj 244 269 cos~;
#X obj 242 217 *~ 0.5;
#X obj 243 241 -~ 0.25;
#X obj 243 296 outlet~;
#X obj 238 135 clip~ 1 2;
#X obj 242 190 -~ 1;
#X obj 311 268 cos~;
#X obj 309 216 *~ 0.5;
#X obj 310 240 -~ 0.25;
#X obj 310 295 outlet~;
#X obj 375 266 cos~;
#X obj 373 214 *~ 0.5;
#X obj 374 238 -~ 0.25;
#X obj 374 293 outlet~;
#X obj 305 134 clip~ 2 3;
#X obj 369 132 clip~ 3 4;
#X obj 309 189 -~ 2;
#X obj 373 187 -~ 3;
#X connect 0 0 7 0;
#X connect 1 0 3 0;
#X connect 2 0 1 0;
#X connect 3 0 4 0;
#X connect 3 0 12 0;
#X connect 3 0 22 0;
#X connect 3 0 23 0;
#X connect 4 0 5 0;
#X connect 5 0 6 0;
#X connect 6 0 0 0;
#X connect 8 0 11 0;
#X connect 9 0 10 0;
#X connect 10 0 8 0;
#X connect 12 0 13 0;
#X connect 13 0 9 0;
#X connect 14 0 17 0;
#X connect 15 0 16 0;
#X connect 16 0 14 0;
#X connect 18 0 21 0;
#X connect 19 0 20 0;
#X connect 20 0 18 0;
#X connect 22 0 24 0;
#X connect 23 0 25 0;
#X connect 24 0 15 0;
#X connect 25 0 19 0;
#X restore 125 94 pd 4phase-osc;
#N canvas 0 0 550 398 timebase 0;
#X obj 199 46 inlet risetime;
#X obj 202 71 trigger f f b;
#X obj 242 101 del;
#X msg 200 133 1 \$1;
#X msg 247 135 0 0;
#X msg 302 131 0;
#X obj 203 190 line~;
#X obj 206 232 *~;
#X obj 247 188 inlet scale;
#X obj 207 265 outlet~ linecontrol;
#X connect 0 0 1 0;
#X connect 1 0 3 0;
#X connect 1 1 2 0;
#X connect 1 2 5 0;
#X connect 2 0 4 0;
#X connect 3 0 6 0;
#X connect 4 0 6 0;
#X connect 5 0 6 0;
#X connect 6 0 7 0;
#X connect 7 0 9 0;
#X connect 8 0 7 1;
#X restore 125 73 pd timebase;
#X obj 161 9 inlet;
#X obj 162 35 unpack f f f f f f f;
#X obj 218 303 r haptic-knob;
#X connect 0 0 4 0;
#X connect 1 0 5 0;
#X connect 2 0 6 0;
#X connect 3 0 7 0;
#X connect 4 0 8 0;
#X connect 5 0 8 0;
#X connect 6 0 8 0;
#X connect 7 0 8 0;
#X connect 8 0 9 0;
#X connect 9 0 10 0;
#X connect 10 0 11 0;
#X connect 10 0 11 1;
#X connect 12 0 4 1;
#X connect 12 1 5 1;
#X connect 12 2 6 1;
#X connect 12 3 7 1;
#X connect 13 0 12 0;
#X connect 14 0 15 0;
#X connect 15 0 13 0;
#X connect 15 1 13 1;
#X connect 15 2 0 0;
#X connect 15 3 1 0;
#X connect 15 4 2 0;
#X connect 15 5 3 0;
#X connect 15 6 0 1;
#X connect 15 6 1 1;
#X connect 15 6 2 1;
#X connect 15 6 3 1;
#X connect 16 0 10 1;
#X restore 86 341 pd multi-tone-alarm;
#X obj 60 194 t;
#X obj 82 30 hsl 128 15 0 1000 0 0 empty empty time -2 -8 0 10 -262144
-1 -1 0 1;
#X obj 114 62 hsl 128 15 0 10 0 0 empty empty speed -2 -8 0 10 -262144
-1 -1 0 1;
#X obj 143 87 hsl 128 15 0 3000 0 0 empty empty freq1 -2 -8 0 10 -262144
-1 -1 0 1;
#X obj 189 110 hsl 128 15 0 3000 0 0 empty empty freq2 -2 -8 0 10 -262144
-1 -1 0 1;
#X obj 242 141 hsl 128 15 0 3000 0 0 empty empty freq3 -2 -8 0 10 -262144
-1 -1 0 1;
#X obj 276 171 hsl 128 15 0 3000 0 0 empty empty freq4 -2 -8 0 10 -262144
-1 -1 0 1;
#X obj 327 196 hsl 128 15 0 1 0 0 empty empty tone -2 -8 0 10 -262144
-1 -1 0 1;
#X obj 104 130 int;
#X obj 87 241 pack f f f f f f f;
#X msg 85 271 set \$1 \$2 \$3 \$4 \$5 \$6 \$7;
#X msg 83 309 0 0 0 0 165.354 0 0;
#X msg 537 80 380 2 349 0 0 0 1;
#X msg 546 107 238 1 317 0 0 476 0;
#X msg 545 175 283.465 3 472.441 826.772 23.622 1677.17 1;
#X obj 296 269 r alarm;
#X msg 22 378 0 0 0 0 165.354 0 0;
#X connect 1 0 10 0;
#X connect 2 0 10 0;
#X connect 3 0 9 0;
#X connect 3 0 1 0;
#X connect 4 0 1 0;
#X connect 4 0 10 2;
#X connect 5 0 1 0;
#X connect 5 0 10 3;
#X connect 6 0 1 0;
#X connect 6 0 10 4;
#X connect 7 0 1 0;
#X connect 7 0 10 5;
#X connect 8 0 1 0;
#X connect 8 0 10 6;
#X connect 9 0 10 1;
#X connect 10 0 11 0;
#X connect 11 0 12 0;
#X connect 11 0 17 0;
#X connect 12 0 0 0;
#X connect 13 0 0 0;
#X connect 14 0 0 0;
#X connect 15 0 0 0;
#X connect 16 0 0 0;
#X restore 520 207 pd alarm gen;
#X obj 95 160 r xaxis;
#X obj 169 159 r yaxis;
#X floatatom 377 217 5 0 0 0 - - -;
#X obj 376 259 sig~;
#X floatatom 302 217 5 0 0 0 - - -;
#X obj 301 259 sig~;
#X obj 301 302 +~;
#X obj 301 279 osc~ 2000;
#X obj 377 280 osc~ 2000;
#X obj 301 176 * 15.74;
#X obj 376 176 * 15.74;
#X obj 376 196 clip 0 2000;
#X obj 301 196 clip 0 2000;
#X obj 376 238 + 2000;
#X obj 301 238 + 2000;
#X floatatom 408 258 5 0 0 0 - - -;
#X obj 524 97 r n;
#X obj 523 121 / 127;
#X obj 371 301 r haptic-vol;
#X obj 301 156 r xaxisr;
#X obj 375 155 r yaxisr;
#X obj 301 323 *~ 0;
#X obj 95 327 *~ 0;
#X obj 96 368 *~;
#X obj 107 118 knob 32 32 0 0.2 0 0 empty empty empty 0 -8 0 8 -262144
-1 -1 620 1;
#X obj 95 438 s~ haptic;
#X obj 200 123 s haptic-vol;
#X obj 149 114 s haptic-knob;
#X obj 93 405 *~;
#X obj 130 373 r haptic-knob;
#X obj 44 83 loadbang;
#X obj 47 110;
#X floatatom 147 139 5 0 0 0 - - -;
#X msg 29 136 0.04;
#X connect 0 0 18 0;
#X connect 1 0 18 0;
#X connect 2 0 18 0;
#X connect 3 0 14 0;
#X connect 4 0 9 0;
#X connect 5 0 15 0;
#X connect 6 0 8 0;
#X connect 7 0 45 0;
#X connect 8 0 7 0;
#X connect 9 0 7 1;
#X connect 10 0 13 0;
#X connect 11 0 12 0;
#X connect 12 0 3 0;
#X connect 13 0 5 0;
#X connect 14 0 4 0;
#X connect 14 0 16 0;
#X connect 15 0 6 0;
#X connect 17 0 18 0;
#X connect 19 0 12 2;
#X connect 19 0 14 1;
#X connect 19 0 9 1;
#X connect 19 0 8 1;
#X connect 19 0 15 1;
#X connect 19 0 13 2;
#X connect 19 0 20 0;
#X connect 20 0 11 1;
#X connect 20 0 10 1;
#X connect 21 0 45 1;
#X connect 23 0 10 0;
#X connect 24 0 11 0;
#X connect 25 0 36 0;
#X connect 26 0 31 0;
#X connect 27 0 37 0;
#X connect 28 0 30 0;
#X connect 29 0 44 0;
#X connect 30 0 29 0;
#X connect 31 0 29 1;
#X connect 32 0 35 0;
#X connect 33 0 34 0;
#X connect 34 0 25 0;
#X connect 35 0 27 0;
#X connect 36 0 26 0;
#X connect 36 0 38 0;
#X connect 37 0 28 0;
#X connect 39 0 34 2;
#X connect 39 0 36 1;
#X connect 39 0 31 1;
#X connect 39 0 30 1;
#X connect 39 0 37 1;
#X connect 39 0 35 2;
#X connect 39 0 40 0;
#X connect 40 0 33 1;
#X connect 40 0 32 1;
#X connect 41 0 44 1;
#X connect 42 0 32 0;
#X connect 43 0 33 0;
#X connect 44 0 46 1;
#X connect 45 0 46 0;
#X connect 46 0 51 0;
#X connect 47 0 50 0;
#X connect 47 0 55 0;
#X connect 51 0 48 0;
#X connect 52 0 51 1;
#X connect 53 0 56 0;
#X connect 56 0 47 0;
#X coords 0 -1 1 1 85 60 1 100 100;
#X restore -114 -10103 pd haptic1;
#X obj 428 -10336 beatjazzright-sys;
#X obj 194 -10022 instrmode3;
#N canvas 1 73 830 485 hidden 0;
#N canvas 99 26 1003 631 effects 0;
#X obj 297 575 outlet~;
#X obj 296 271 *~;
#X obj 312 248 unpack 1 2 3;
#X msg 431 25 1 0 0;
#X obj 334 271 *~;
#X obj 398 174 r effects;
#X obj 430 2 loadbang;
#X obj 366 271 *~;
#X obj 224 114 sel 0 1;
#X floatatom 274 115 5 0 0 0 - - -;
#X msg 224 142 1 0 0;
#X msg 243 162 0 1 0;
#X obj 312 113 sel 0 1;
#X floatatom 362 114 5 0 0 0 - - -;
#X msg 312 137 1 0 0;
#X msg 331 160 0 0 1;
#X obj 296 206 r~ looperfeed;
#N canvas 0 0 899 678 pitcvhshift 0;
#X floatatom 29 97 0 0 0 0 - - -;
#X obj 92 368 *~;
#X obj 215 305 line~;
#X floatatom 247 122 0 0 0 0 - - -;
#X text 78 19 PITCH SHIFTER;
#X obj 215 279 pack 0 200;
#X obj 247 96 r window;
#X obj 29 153 exp;
#X floatatom 29 179 6 0 0 0 - - -;
#X obj 30 262 /;
#X obj 156 199 * 0.001;
#X obj 324 375 line~;
#X obj 324 350 pack 0 200;
#X floatatom 324 299 0 0 0 0 - - -;
#X obj 324 273 r delay;
#X obj 92 394 +~;
#X obj 29 420 cos~;
#X obj 29 447 *~;
#X obj 29 476 +~;
#X obj 116 327 wrap~;
#X obj 261 370 *~;
#X obj 261 403 +~;
#X obj 198 430 cos~;
#X obj 198 457 *~;
#X msg 502 66 \; transpose 0 \; window 100 \; delay 0;
#X obj 502 40 loadbang;
#X obj 156 226 t b f;
#X floatatom 30 288 6 0 0 0 - - -;
#X obj 116 300 +~ 0.5;
#X obj 29 368 -~ 0.5;
#X obj 29 394 *~ 0.5;
#X obj 198 369 -~ 0.5;
#X obj 198 402 *~ 0.5;
#X obj 29 206 - 1;
#X obj 29 127 * 0.05776;
#X obj 29 232 * -1;
#X text 63 96 <-- transposition;
#X text 106 109 (halftones);
#X text 92 173 speed;
#X text 91 187 change;
#X text 291 121 <--window (msec);
#X text 64 262 tape head;
#X text 435 163 This is a classic rotating-tape-head style pitch shifter
using the vd~ variable delay object. Ther are two moving tape heads
\, each of which is loudest at the middle of its trajectory \, and
enveloped out at the moment it has to jump back (or forward) to start
another scratch. Most of the brain work is in computing how fast the
tape heads have to move to get the desired transposition.;
#X text 435 282 The "window size" is the total trajectory of the read
points in the delay line \, in milliseconds. The delay times are controlled
by a phasor~ object. The second delay time \, 180 degrees out of phase
from the first one \, is computed using the "wrap" object.;
#X text 433 372 The "window size" is the total trajectory of the read
points in the delay line \, in milliseconds. The delay times are controlled
by a phasor~ object. The second delay time \, 180 degrees out of phase
from the first one \, is computed using the "wrap" object.;
#X text 432 464 The cos~ objects compute the fadein and fadeout of
the two delay line outputs. They each traverse the positive half of
the cosine waveform (phase -0.25 to +0.25) over the time the phase
goes from one end to the other.;
#X obj 29 326 phasor~;
#X text 699 544 updated for Pd version 0.37-1;
#X obj 324 326 max 1.5;
#X text 327 232 delay;
#X text 324 250 (msec);
#X obj 247 149 max 1;
#X text 65 275 rotation freq;
#X obj 92 420 vd~ G09-del;
#X obj 261 432 vd~ G09-del;
#X obj 274 52 delwrite~ G09-del 5000;
#X obj 274 21 inlet~;
#X obj 55 573 outlet~;
#X obj 29 71 r xaxisr;
#X obj 38 307 sig~;
#X connect 0 0 34 0;
#X connect 1 0 15 0;
#X connect 2 0 1 1;
#X connect 2 0 20 1;
#X connect 3 0 51 0;
#X connect 5 0 2 0;
#X connect 6 0 3 0;
#X connect 7 0 8 0;
#X connect 8 0 33 0;
#X connect 9 0 27 0;
#X connect 10 0 26 0;
#X connect 11 0 15 1;
#X connect 11 0 21 1;
#X connect 12 0 11 0;
#X connect 13 0 48 0;
#X connect 14 0 13 0;
#X connect 15 0 53 0;
#X connect 16 0 17 0;
#X connect 17 0 18 0;
#X connect 18 0 57 0;
#X connect 19 0 20 0;
#X connect 19 0 31 0;
#X connect 20 0 21 0;
#X connect 21 0 54 0;
#X connect 22 0 23 0;
#X connect 23 0 18 1;
#X connect 25 0 24 0;
#X connect 26 0 9 0;
#X connect 26 1 9 1;
#X connect 27 0 59 0;
#X connect 28 0 19 0;
#X connect 29 0 30 0;
#X connect 30 0 16 0;
#X connect 31 0 32 0;
#X connect 32 0 22 0;
#X connect 33 0 35 0;
#X connect 34 0 7 0;
#X connect 35 0 9 0;
#X connect 46 0 1 0;
#X connect 46 0 29 0;
#X connect 46 0 28 0;
#X connect 48 0 12 0;
#X connect 51 0 10 0;
#X connect 51 0 5 0;
#X connect 53 0 17 1;
#X connect 54 0 23 1;
#X connect 56 0 55 0;
#X connect 56 0 57 0;
#X connect 58 0 0 0;
#X connect 59 0 46 0;
#X restore 245 324 pd pitcvhshift;
#N canvas 0 0 647 474 chorus 0;
#X obj 83 91 inlet~;
#X obj 73 164 *;
#X restore 726 365 pd chorus;
#X floatatom 468 247 5 0 0 0 - - -;
#X obj 401 244 mtof;
#X floatatom 430 244 5 0 0 0 - - -;
#X obj 401 199 f;
#X obj 401 274 sig~;
#X obj 468 275 sig~;
#X obj 435 154 r xaxisr;
#X obj 475 177 r yaxisr;
#N canvas 905 497 782 525 axial 0;
#X obj 81 66 inlet;
#X obj 191 267 table axisforward;
#X obj 340 261 table axisbackward;
#X floatatom 161 110 5 0 0 0 - - -;
#X floatatom 165 329 5 0 0 0 - - -;
#X obj 156 307 f;
#X obj 151 404 outlet;
#X obj 159 185 tabread axisbackward;
#X floatatom 207 227 5 0 0 0 - - -;
#X obj 154 224 * 127;
#X obj 162 247 + 100;
#X obj 157 357 clip 0 127;
#X floatatom 172 385 5 0 0 0 - - -;
#X connect 0 0 3 0;
#X connect 0 0 7 0;
#X connect 5 0 4 0;
#X connect 5 0 11 0;
#X connect 7 0 8 0;
#X connect 7 0 9 0;
#X connect 9 0 10 0;
#X connect 10 0 5 0;
#X connect 11 0 6 0;
#X connect 11 0 12 0;
#X restore 560 318 pd axial calibrator;
#X obj 224 70 r jrb1-0;
#X obj 312 69 r jrb4-0;
#X floatatom 530 222 5 0 0 0 - - -;
#X floatatom 564 362 5 0 0 0 - - -;
#X floatatom 429 223 5 0 0 0 - - -;
#N canvas 460 140 236 277 bk 0;
#X obj 99 39 tgl 15 0 empty empty empty 17 7 0 10 -262144 -1 -1 0 3
;
#X obj 88 113 tgl 15 0 empty empty empty 17 7 0 10 -262144 -1 -1 0
0.596351;
#X obj 62 44 * 3;
#X floatatom 27 51 5 0 0 0 - - -;
#X obj 59 9 inlet;
#X obj 98 244 outlet;
#X msg 98 219 1;
#X obj 44 84 threshold 3 0 2 0;
#X msg 127 219 0;
#X floatatom 45 169 5 0 0 0 - - -;
#X obj 96 141 * 2;
#X obj 98 193 sel 1 0;
#X obj 103 168 int;
#X connect 1 0 10 0;
#X connect 2 0 0 0;
#X connect 2 0 3 0;
#X connect 2 0 7 0;
#X connect 4 0 2 0;
#X connect 6 0 5 0;
#X connect 7 0 1 0;
#X connect 7 1 1 0;
#X connect 8 0 5 0;
#X connect 10 0 12 0;
#X connect 11 0 6 0;
#X connect 11 1 8 0;
#X connect 12 0 11 0;
#X connect 12 0 9 0;
#X restore 415 87 pd bk better;
#N canvas 460 140 236 277 bk 0;
#X obj 99 39 tgl 15 0 empty empty empty 17 7 0 10 -262144 -1 -1 0 3
;
#X obj 88 113 tgl 15 0 empty empty empty 17 7 0 10 -262144 -1 -1 0
0.596351;
#X obj 62 44 * 3;
#X floatatom 27 51 5 0 0 0 - - -;
#X obj 59 9 inlet;
#X obj 98 244 outlet;
#X msg 98 219 1;
#X obj 44 84 threshold 3 0 2 0;
#X msg 127 219 0;
#X floatatom 45 169 5 0 0 0 - - -;
#X obj 96 141 * 2;
#X obj 98 193 sel 1 0;
#X obj 103 168 int;
#X connect 1 0 10 0;
#X connect 2 0 0 0;
#X connect 2 0 3 0;
#X connect 2 0 7 0;
#X connect 4 0 2 0;
#X connect 6 0 5 0;
#X connect 7 0 1 0;
#X connect 7 1 1 0;
#X connect 8 0 5 0;
#X connect 10 0 12 0;
#X connect 11 0 6 0;
#X connect 11 1 8 0;
#X connect 12 0 11 0;
#X connect 12 0 9 0;
#X restore 140 82 pd bk better;
#X obj 366 299 vcf~;
#X obj 362 331 vcf~;
#X obj 362 365 vcf~;
#X obj 417 468 *~ 10;
#X obj 418 414 lop~ 80;
#X obj 417 442 *~ 10;
#X floatatom 555 172 5 0 0 0 - - -;
#X obj 468 225 / 10;
#X obj 393 498 clip~ -1 1;
#X connect 1 0 0 0;
#X connect 2 0 1 1;
#X connect 2 1 4 1;
#X connect 2 2 7 1;
#X connect 3 0 2 0;
#X connect 4 0 17 0;
#X connect 5 0 2 0;
#X connect 6 0 3 0;
#X connect 7 0 35 0;
#X connect 8 0 10 0;
#X connect 8 1 11 0;
#X connect 10 0 2 0;
#X connect 11 0 2 0;
#X connect 12 0 14 0;
#X connect 12 1 15 0;
#X connect 14 0 2 0;
#X connect 15 0 2 0;
#X connect 16 0 1 0;
#X connect 16 0 4 0;
#X connect 16 0 7 0;
#X connect 17 0 0 0;
#X connect 19 0 24 0;
#X connect 19 0 35 2;
#X connect 19 0 36 2;
#X connect 19 0 37 2;
#X connect 20 0 21 0;
#X connect 20 0 23 0;
#X connect 22 0 32 0;
#X connect 22 0 20 0;
#X connect 23 0 35 1;
#X connect 23 0 36 1;
#X connect 23 0 37 1;
#X connect 25 0 27 0;
#X connect 25 0 41 0;
#X connect 25 0 42 0;
#X connect 26 0 30 0;
#X connect 26 0 22 0;
#X connect 27 0 31 0;
#X connect 28 0 8 0;
#X connect 28 0 9 0;
#X connect 29 0 12 0;
#X connect 29 0 13 0;
#X connect 35 0 36 0;
#X connect 35 0 43 0;
#X connect 36 0 37 0;
#X connect 37 0 39 0;
#X connect 38 0 43 0;
#X connect 39 0 40 0;
#X connect 40 0 38 0;
#X connect 42 0 19 0;
#X connect 43 0 0 0;
#X restore 243 207 pd effects;
#X obj 250 390 dac~;
#X obj 252 362 *~ 0.5;
#N canvas 665 476 602 413 file 0;
#X obj 325 51 date;
#X obj 286 91 f 0;
#X obj 323 89 + 1;
#X obj 194 14 inlet;
#X obj 194 48 t b b b b b;
#X obj 91 156 inlet~;
#X obj 137 106 del \$1;
#X msg 137 155 stop;
#X msg 185 154 start;
#X obj 181 215 writesf~ 1;
#X obj 156 243 outlet done;
#X obj 269 152 makefilename \$2/soundfile%d.wav;
#X msg 270 177 stop \, open \$1;
#X obj 336 193 outlet number written;
#X obj 289 51 time;
#X connect 1 0 2 0;
#X connect 1 0 11 0;
#X connect 1 0 13 0;
#X connect 2 0 1 1;
#X connect 3 0 4 0;
#X connect 4 1 6 0;
#X connect 4 3 8 0;
#X connect 4 4 1 0;
#X connect 5 0 9 0;
#X connect 6 0 7 0;
#X connect 6 0 10 0;
#X connect 7 0 9 0;
#X connect 8 0 9 0;
#X connect 11 0 12 0;
#X connect 12 0 9 0;
#X restore 305 387 pd file recorder;
#X obj 396 359 r filerec;
#X obj 303 417 bng 15 250 50 0 empty empty empty 17 7 0 10 -262144
-1 -1;
#X floatatom 394 415 5 0 0 0 - - -;
#X obj 251 336 compressor~;
#X obj 230 444 s~ vu;
#X obj 107 105 knob 32 32 0 1 0 0 empty empty empty 0 -8 0 8 -262144
-1 -1 0 1;
#X floatatom 125 140 5 0 0 0 - - -;
#X obj 112 169 vu 15 120 empty empty -1 -8 0 10 -66577 -1 1 0;
#X obj 235 105 env~;
#X obj 233 129 - 100;
#X obj 234 78 r~ vu;
#X obj 311 209 r~ haptic;
#X obj 269 236 +~;
#X obj 289 259 r~ electricity;
#X obj 250 305 +~;
#X msg 332 340 1;
#X obj 291 289 *~ 0.6;
#X obj 612 339 g-mtap;
#X connect 0 0 16 0;
#X connect 0 0 18 0;
#X connect 2 0 1 0;
#X connect 2 0 1 1;
#X connect 2 0 3 0;
#X connect 2 0 8 0;
#X connect 3 0 5 0;
#X connect 3 1 6 0;
#X connect 4 0 3 1;
#X connect 7 0 2 0;
#X connect 9 0 2 1;
#X connect 9 0 10 0;
#X connect 12 0 13 0;
#X connect 13 0 11 0;
#X connect 14 0 12 0;
#X connect 15 0 16 1;
#X connect 17 0 20 0;
#X connect 18 0 7 0;
#X connect 19 0 7 1;
#X connect 20 0 18 1;
#X coords 0 -1 1 1 60 200 2 100 100;
#X restore -111 -10004 pd hidden stuff;
#X obj -114 -10164 electricity;
#N canvas 0 0 450 300 loadmeter 0;
#X floatatom 102 102 0 0 0 0 - - -;
#X obj 102 14 cputime;
#X obj 102 -126 loadbang;
#X obj 102 -42 metro 1000;
#X msg 102 -98 1;
#X floatatom 102 -70 0 0 0 0 - - -;
#X obj 102 -14 t b b;
#X obj 102 74 * 0.1;
#X obj 102 43 int;
#X text 147 -70 <-- on/off;
#X connect 1 0 8 0;
#X connect 2 0 4 0;
#X connect 3 0 6 0;
#X connect 4 0 5 0;
#X connect 5 0 3 0;
#X connect 6 0 1 0;
#X connect 6 1 1 1;
#X connect 7 0 0 0;
#X connect 8 0 7 0;
#X coords 0 -1 1 1 40 20 2 100 100;
#X restore -112 -10028 pd loadmeter;
#X text -111 -10045 CPU;
#X obj -117 -10335 beatjazz_sys_left;
#X obj 882 -10149 gsynththree;
#X obj 107 -10032 1usefulparts;
#N canvas 0 0 646 300 resampler 0;
#N canvas 1962 154 783 507 timestretch 0;
#X floatatom 430 -2055 5 0 0 0 - transpo-set -;
#X floatatom 103 -1987 3 0 0 0 - speed-set -;
#X floatatom -9 -1985 7 0 0 0 - location-set -;
#N canvas 90 42 821 693 fft-analysis 0;
#X obj 51 477 *~;
#X obj 18 477 *~;
#X obj 18 499 -~;
#X obj 167 475 *~;
#X obj 136 475 *~;
#X obj 136 497 +~;
#X obj 109 193 *~;
#X obj 78 193 *~;
#X obj 50 193 *~;
#X obj 19 193 *~;
#X obj 19 218 +~;
#X obj 127 379 *~;
#X obj 20 622 *~;
#X obj 238 430 rfft~;
#X obj 108 161 rfft~;
#X obj 19 564 rifft~;
#X obj 21 646 outlet~;
#X obj 97 379 *~;
#X obj 97 401 +~;
#X obj 124 218 -~;
#X obj 18 431 *~;
#X obj 51 432 *~;
#X obj 127 622 r window-size;
#X obj 426 595 r window-size;
#X obj 426 644 block~;
#X obj 19 349 +~ 1e-015;
#X obj 19 598 *~;
#X obj 52 598 tabreceive~ \$0-hann;
#X obj 127 643 expr 2/(3*$f1);
#X obj 591 563 loadbang;
#X msg 591 589 \; pd dsp 1 \; window-size 2048 \; transpo 0 \; rewind
bang;
#X msg 426 619 set \$1 4;
#X obj 97 425 q8_rsqrt~;
#N canvas 139 105 1006 799 read-windows 0;
#X obj 18 693 *~;
#X obj 340 448 r window-size;
#X obj 156 300 f;
#X obj 102 91 r window-size;
#X obj 102 139 /;
#X obj 195 695 *~;
#X obj 156 255 bang~;
#X obj 17 551 line~;
#X obj 102 164 * 1000;
#X obj 288 224 r speed;
#X obj 178 276 r location;
#X obj 198 302 +;
#X obj 288 272 *;
#X obj 183 470 +;
#X obj 143 446 t f f;
#X msg 17 523 \$1 \, \$2 \$3;
#X obj 17 496 pack 0 0 0;
#X obj 178 371 / 1000;
#X obj 156 394 *;
#X text 188 394 reading location (samples);
#X obj 51 597 / 4;
#X obj 288 245 * 0.01;
#X floatatom 340 498 7 0 0 0 - - -;
#X obj 340 474 *;
#X obj 499 365 r transpo;
#X obj 499 387 * 0.01;
#X obj 501 408 + 69;
#X obj 502 429 mtof;
#X obj 502 451 / 440;
#X obj 375 474 t b f;
#X obj 19 719 outlet~;
#X obj 195 720 outlet~;
#X obj 218 664 tabreceive~ \$0-hann;
#X obj 803 386 r location;
#X msg 803 409 0;
#X obj 803 432 s speed;
#X obj 768 508 r speed;
#X msg 768 532 set \$1;
#X obj 768 557 s speed-set;
#X text 411 498 stretched window size (samples);
#X obj 877 507 r transpo;
#X msg 877 533 set \$1;
#X obj 877 558 s transpo-set;
#X obj 808 94 r location;
#X msg 826 278 set \$1;
#X obj 808 140 t b f;
#X obj 826 257 f;
#X obj 754 171 int;
#X obj 754 203 sel 0;
#X msg 813 174 1;
#X msg 813 197 0;
#X obj 754 228 del 300;
#X obj 826 302 s location-set;
#X obj 17 637 tabread4~ \$0-sample;
#X obj 194 637 tabread4~ \$0-sample;
#X obj 178 347 r \$0-insamprate;
#X obj 528 586 r rewind;
#X msg 528 744 \; location \$1;
#X floatatom 111 187 5 0 0 0 - - -;
#X obj 102 115 t f b;
#X obj 142 139 samplerate~;
#X obj 102 208 / 4;
#X obj 233 306 s see-loc;
#X obj 817 116 r see-loc;
#X obj 193 420 / 2;
#X obj 156 420 -;
#X text 229 417 back up 1/2 window;
#X obj 16 597 -~;
#X text 43 6 Read two windows out of the recorded sample \, one 1/4
ahead of the other. The mid point of the front window is specified
by "location". If "speed" is nonzero \, "location" automatically precesses.
;
#X obj 528 720 * -0.5;
#X text 91 587 "back" window 1/4 cycle behind "front" one;
#X text 137 205 computation period (msec) for overlap of 4;
#X text 164 186 msec in a window;
#X obj 528 666 /;
#X obj 528 691 * 1000;
#X obj 528 642 t f b;
#X obj 568 666 samplerate~;
#X obj 528 619 f;
#X msg 845 711 \; rewind bang \; speed \$1;
#X obj 845 684 r auto;
#X obj 730 685 r no-detune;
#X msg 730 707 \; detune 0;
#X text 326 275 loop to precess the location according;
#X text 325 291 to the "speed" parameter.;
#X text 611 31 if location changes \, update number box;
#X text 610 50 in main window via "location-set" \, but;
#X text 613 69 taking care to limit frequency of updates.;
#X text 756 462 reflect control changes;
#X text 756 479 in main window.;
#X text 754 344 setting location by hand;
#X text 752 362 sets speed to zero.;
#X text 760 653 misc controls;
#X text 496 527 "rewind" control takes us;
#X text 499 545 to a location depending on;
#X text 499 564 stretched window size.;
#X connect 0 0 30 0;
#X connect 1 0 23 0;
#X connect 2 0 11 0;
#X connect 2 0 18 0;
#X connect 3 0 59 0;
#X connect 4 0 8 0;
#X connect 5 0 31 0;
#X connect 6 0 2 0;
#X connect 7 0 67 0;
#X connect 7 0 54 0;
#X connect 8 0 58 0;
#X connect 8 0 61 0;
#X connect 9 0 21 0;
#X connect 10 0 2 1;
#X connect 11 0 2 1;
#X connect 11 0 62 0;
#X connect 12 0 11 1;
#X connect 13 0 16 1;
#X connect 14 0 16 0;
#X connect 14 1 13 0;
#X connect 15 0 7 0;
#X connect 16 0 15 0;
#X connect 17 0 18 1;
#X connect 18 0 65 0;
#X connect 20 0 67 1;
#X connect 21 0 12 0;
#X connect 22 0 20 0;
#X connect 22 0 13 1;
#X connect 22 0 64 0;
#X connect 22 0 77 1;
#X connect 23 0 22 0;
#X connect 24 0 25 0;
#X connect 25 0 26 0;
#X connect 26 0 27 0;
#X connect 27 0 28 0;
#X connect 28 0 29 0;
#X connect 29 0 23 0;
#X connect 29 1 23 1;
#X connect 32 0 5 1;
#X connect 32 0 0 1;
#X connect 33 0 34 0;
#X connect 34 0 35 0;
#X connect 36 0 37 0;
#X connect 37 0 38 0;
#X connect 40 0 41 0;
#X connect 41 0 42 0;
#X connect 43 0 45 0;
#X connect 44 0 52 0;
#X connect 45 0 47 0;
#X connect 45 1 46 1;
#X connect 46 0 44 0;
#X connect 47 0 48 0;
#X connect 48 0 49 0;
#X connect 48 0 51 0;
#X connect 49 0 47 1;
#X connect 50 0 47 1;
#X connect 51 0 50 0;
#X connect 51 0 46 0;
#X connect 53 0 0 0;
#X connect 54 0 5 0;
#X connect 55 0 17 0;
#X connect 56 0 77 0;
#X connect 59 0 4 0;
#X connect 59 1 60 0;
#X connect 60 0 4 1;
#X connect 61 0 16 2;
#X connect 61 0 12 1;
#X connect 63 0 45 0;
#X connect 64 0 65 1;
#X connect 65 0 14 0;
#X connect 67 0 53 0;
#X connect 69 0 57 0;
#X connect 73 0 74 0;
#X connect 74 0 69 0;
#X connect 75 0 73 0;
#X connect 75 1 76 0;
#X connect 76 0 73 1;
#X connect 77 0 75 0;
#X connect 79 0 78 0;
#X connect 80 0 81 0;
#X restore 109 133 pd read-windows;
#X obj 137 543 tabsend~ prev-imag;
#X obj 136 567 tabsend~ prev-real;
#X obj 20 8 tabreceive~ prev-real;
#X obj 73 29 tabreceive~ prev-imag;
#X text 272 5 recall previous output amplitude. Its phase will be added
to the phase difference we measure from two windows in the the recorded
sound.;
#X obj 121 69 *~;
#X obj 89 69 *~;
#X obj 89 91 +~;
#X obj 159 94 q8_rsqrt~;
#X obj 159 71 +~ 1e-020;
#X obj 73 119 *~;
#X obj 19 118 *~;
#X obj 181 290 r lock;
#X obj 29 245 lrshift~ 1;
#X obj 24 269 lrshift~ -1;
#X obj 141 245 lrshift~ 1;
#X obj 133 269 lrshift~ -1;
#X obj 35 300 *~;
#X obj 159 312 *~;
#X obj 19 325 +~;
#X obj 125 331 +~;
#X text 247 66 divide by the magnitude to make a unit-magnitude complex
amplitude (phase only). The 1e-020 is to prevent overflows. q8_rsqrt~
is reciprocal square root.;
#X text 247 165 Take FT of the window in back. Multiply its conjugate
by the normalized previous output. The result has the magnitude of
the input sound and phase (previous output phase) minus (back window
phase).;
#X text 249 370 Normalize again \, this time taking care to salt each
channel with 1e-015 so that we get a unit complex number even if everything
was zero heretofore.;
#X text 288 427 Now take the FT of the forward window and multiply
it by the unit complex number from above. The magnitude will be that
of the forward window and the phase will be the previous output phase
plus the phase difference between the two analysis windows -- except
that if "lock" is on \, they will be modified to agree progressively
better with the inter-channel phase relationships of the input.;
#X text 249 242 If "lock" is on \, encourage neighboring channels to
stay in phase by adding the two neighboring complex amplitudes. The
result will tend toward the channel with the strongest amplitude. If
the phase relationships between channels in the output and those in
the input are in parallel \, then neighboring channels of the quotient
will all have the same phase and this will not change any phases. (lrshift
shifts the signal to the left or right depending on its argument.)
;
#X text 387 560 'set' message to block;
#X text 390 577 allows variable size;
#X text 259 126 Read two windows \, one 1/4 length behind the other
\, of the input sound \, with Hann window function (see inside).;
#X connect 0 0 2 1;
#X connect 1 0 2 0;
#X connect 2 0 35 0;
#X connect 2 0 15 0;
#X connect 3 0 5 1;
#X connect 4 0 5 0;
#X connect 5 0 34 0;
#X connect 5 0 15 1;
#X connect 6 0 19 1;
#X connect 7 0 19 0;
#X connect 8 0 10 1;
#X connect 9 0 10 0;
#X connect 10 0 48 0;
#X connect 10 0 47 0;
#X connect 10 0 53 0;
#X connect 11 0 18 1;
#X connect 12 0 16 0;
#X connect 13 0 1 1;
#X connect 13 0 3 1;
#X connect 13 1 0 1;
#X connect 13 1 4 1;
#X connect 14 0 9 1;
#X connect 14 0 7 1;
#X connect 14 1 6 1;
#X connect 14 1 8 1;
#X connect 15 0 26 0;
#X connect 17 0 18 0;
#X connect 18 0 32 0;
#X connect 19 0 49 0;
#X connect 19 0 50 0;
#X connect 19 0 54 0;
#X connect 20 0 1 0;
#X connect 20 0 4 0;
#X connect 21 0 0 0;
#X connect 21 0 3 0;
#X connect 22 0 28 0;
#X connect 23 0 31 0;
#X connect 25 0 17 1;
#X connect 25 0 17 0;
#X connect 25 0 20 0;
#X connect 26 0 12 0;
#X connect 27 0 26 1;
#X connect 28 0 12 1;
#X connect 29 0 30 0;
#X connect 31 0 24 0;
#X connect 32 0 20 1;
#X connect 32 0 21 1;
#X connect 33 0 14 0;
#X connect 33 1 13 0;
#X connect 36 0 40 1;
#X connect 36 0 40 0;
#X connect 36 0 45 0;
#X connect 37 0 39 1;
#X connect 37 0 39 0;
#X connect 37 0 44 0;
#X connect 39 0 41 1;
#X connect 40 0 41 0;
#X connect 41 0 43 0;
#X connect 42 0 44 1;
#X connect 42 0 45 1;
#X connect 43 0 42 0;
#X connect 44 0 8 0;
#X connect 44 0 7 0;
#X connect 45 0 9 0;
#X connect 45 0 6 0;
#X connect 46 0 51 1;
#X connect 46 0 52 1;
#X connect 47 0 51 0;
#X connect 48 0 51 0;
#X connect 49 0 52 0;
#X connect 50 0 52 0;
#X connect 51 0 53 1;
#X connect 52 0 54 1;
#X connect 53 0 25 0;
#X connect 54 0 11 0;
#X connect 54 0 11 1;
#X connect 54 0 21 0;
#X restore -9 -1890 pd fft-analysis;
#N canvas 260 23 647 768 phase-tables 0;
#N canvas 0 0 450 300 (subpatch) 0;
#X array prev-imag 4096 float 0;
#X coords 0 1000 4096 -1000 400 300 1;
#X restore 169 326 graph;
#N canvas 0 0 450 300 (subpatch) 0;
#X array prev-real 4096 float 0;
#X coords 0 500 4096 -500 400 300 1;
#X restore 170 17 graph;
#X restore 376 -1866 pd phase-tables;
#X obj 430 -2032 s transpo;
#X text 100 -2006 hundredths;
#X text 429 -2076 in cents;
#X text 325 -2011 normal;
#X obj -8 -1853 output~;
#N canvas 0 110 565 454 hann-window 0;
#N canvas 0 0 450 300 (subpatch) 0;
#X array \$0-hann 2048 float 0;
#X coords 0 1 2047 0 300 100 1;
#X restore 82 311 graph;
#X obj 378 165 osc~;
#X obj 378 190 *~ -0.5;
#X obj 378 214 +~ 0.5;
#X obj 331 247 tabwrite~ \$0-hann;
#X obj 37 88 r window-size;
#X obj 38 173 /;
#X obj 127 142 samplerate~;
#X obj 38 251 s window-sec;
#X obj 177 204 swap;
#X obj 177 228 /;
#X obj 177 252 s window-hz;
#X obj 49 201 * 1000;
#X obj 49 228 s window-msec;
#X obj 38 115 t f b f;
#X msg 173 92 resize \$1;
#X obj 173 116 s \$0-hann;
#X obj 330 105 r window-hz;
#X msg 382 130 0;
#X obj 330 131 t f b;
#X text 15 8 calculate Hann window table (variable window size) and
constants window-hz (fundamental frequency of analysis) \, window-sec
and window-msec (analysis window size in seconds and msec).;
#X connect 1 0 2 0;
#X connect 2 0 3 0;
#X connect 3 0 4 0;
#X connect 5 0 14 0;
#X connect 6 0 8 0;
#X connect 6 0 12 0;
#X connect 7 0 6 1;
#X connect 7 0 9 1;
#X connect 9 0 10 0;
#X connect 9 1 10 1;
#X connect 10 0 11 0;
#X connect 12 0 13 0;
#X connect 14 0 6 0;
#X connect 14 0 9 0;
#X connect 14 1 7 0;
#X connect 14 2 15 0;
#X connect 15 0 16 0;
#X connect 17 0 19 0;
#X connect 18 0 1 1;
#X connect 19 0 1 0;
#X connect 19 1 4 0;
#X connect 19 1 18 0;
#X restore 376 -1842 pd hann-window;
#N canvas 388 86 694 447 insample 0;
#N canvas 0 0 450 300 (subpatch) 0;
#X array \$0-sample 62079 float 0;
#X coords 0 1 62078 -1 400 150 1;
#X restore 281 135 graph;
#X obj 28 133 r read-sample;
#X obj 28 184 unpack s f;
#X obj 28 294 soundfiler;
#X text 365 360 read a sample;
#X obj 285 359 loadbang;
#X obj 28 210 t s b;
#X obj 84 209 symbol \$0-sample;
#X obj 28 245 pack s s;
#X msg 28 270 read -resize \$1 \$2;
#X obj 83 156 44100;
#X obj 28 157 t a b;
#X obj 38 318 s \$0-samplength;
#X obj 125 184 s \$0-insamprate;
#X obj 28 357 /;
#X obj 28 381 * 1000;
#X obj 28 404 s \$0-samp-msec;
#X obj 66 357 r \$0-insamprate;
#X obj 29 70 hip~ 5;
#X obj 29 46 adc~ 1;
#X obj 29 9 inlet;
#X obj 91 46 samplerate~;
#X obj 29 93 tabwrite~ \$0-sample;
#X obj 91 70 s \$0-insamprate;
#X msg 285 383 \; read-sample ../sound/voice.wav;
#X obj 276 20 inlet;
#X obj 276 42 openpanel;
#X obj 276 67 s read-sample;
#X connect 1 0 11 0;
#X connect 2 0 6 0;
#X connect 2 1 13 0;
#X connect 3 0 12 0;
#X connect 3 0 14 0;
#X connect 5 0 24 0;
#X connect 6 0 8 0;
#X connect 6 1 7 0;
#X connect 7 0 8 1;
#X connect 8 0 9 0;
#X connect 9 0 3 0;
#X connect 10 0 13 0;
#X connect 11 0 2 0;
#X connect 11 1 10 0;
#X connect 14 0 15 0;
#X connect 15 0 16 0;
#X connect 17 0 14 1;
#X connect 18 0 22 0;
#X connect 19 0 18 0;
#X connect 20 0 21 0;
#X connect 20 0 19 0;
#X connect 21 0 23 0;
#X connect 25 0 26 0;
#X connect 26 0 27 0;
#X restore 377 -1890 pd insample;
#X floatatom 488 -1890 5 0 0 0 - #0-samp-msec -;
#X msg 165 -1884 ../sound/bell.aiff;
#X msg 165 -1859 ../sound/voice.wav;
#X msg 165 -1834 ../sound/voice2.wav;
#X obj 165 -1808 s read-sample;
#X obj 377 -1931 bng 15 250 50 0 empty empty empty 0 -6 0 8 -262144
-1 -1;
#X text 396 -1932 <- record;
#X obj 429 -1983 tgl 15 0 empty empty empty 0 -6 0 8 -262144 -1 -1
0 1;
#X obj -9 -1963 s location;
#X obj 103 -1963 s speed;
#X obj 198 -1984 bng 15 250 50 0 empty empty empty 0 -6 0 8 -262144
-1 -1;
#X obj 198 -1962 s rewind;
#X msg 281 -2034 200;
#X msg 281 -2012 100;
#X msg 281 -1990 20;
#X text 322 -2035 contract;
#X text 326 -1990 expand;
#X obj 429 -1963 s lock;
#X text 430 -2093 detune;
#X text -9 -2040 location;
#X text -12 -2024 (stops;
#X text -7 -2009 motion);
#X text 101 -2022 motion in;
#X text 168 -1906 read input sound;
#X text 540 -1891 length \, msec;
#X floatatom 543 -1951 5 0 0 0 - window-size -;
#X msg 543 -2063 512;
#X msg 543 -2041 1024;
#X msg 543 -2019 2048;
#X msg 543 -1997 4096;
#X obj 543 -1975 s window-size;
#X text 543 -2096 window size \,;
#X text 543 -2081 samples;
#X text 584 -2064 <- set;
#X text 36 -2064 ------- location controls -------;
#X text 596 -1951 (check);
#X obj 281 -1963 s auto;
#X text 419 -1802 updated for Pd version 0.39;
#X obj 487 -2054 bng 15 250 50 0 no-detune empty empty 0 -6 0 8 -262144
-1 -1;
#X obj 471 -1910 bng 15 250 50 0 empty empty empty 0 -6 0 8 -262144
-1 -1;
#X text 402 -1912 file ->;
#X connect 0 0 5 0;
#X connect 1 0 21 0;
#X connect 2 0 20 0;
#X connect 3 0 9 0;
#X connect 3 0 9 1;
#X connect 13 0 16 0;
#X connect 14 0 16 0;
#X connect 15 0 16 0;
#X connect 17 0 11 0;
#X connect 19 0 29 0;
#X connect 22 0 23 0;
#X connect 24 0 48 0;
#X connect 25 0 48 0;
#X connect 26 0 48 0;
#X connect 38 0 42 0;
#X connect 39 0 42 0;
#X connect 40 0 42 0;
#X connect 41 0 42 0;
#X connect 51 0 11 1;
#X restore 60 212 pd timestretch;
#X obj 53 64 inlet;
#X obj 102 101 cnv 15 345 58 empty empty empty 20 12 0 14 -233017 -66577
0;
#X coords 0 -1 1 1 350 60 1 100 100;
#X restore 878 -9729 pd resampler;
#X obj 884 -10067 gsynthfive;
#X obj 252 -10048 beatjazzprograms2;
#X text 718 -10354 The sound of inevitability;
#X obj 884 -9813 gvoice1;
#X obj 882 -10314 gdrumsynth;
#X obj 881 -10232 gdrumsynth2;
#N canvas 0 0 865 524 pre 0;
#X obj 103 102 cnv 15 215 70 empty empty empty 20 12 0 14 -260097 -66577
0;
#X obj 322 102 cnv 15 215 70 empty empty empty 20 12 0 14 -4032 -66577
0;
#N canvas 171 39 968 617 xlrmtr 0;
#X floatatom 11 324 5 0 0 0 - - -;
#X floatatom 83 324 5 0 0 0 - - -;
#X floatatom 153 321 5 0 0 0 - - -;
#X text 7 351 ctl20;
#X text 78 354 ctl21;
#X text 152 352 ctl22;
#X text 59 341 Up/down tilt;
#X text 0 341 L/R Tilt;
#X text 149 341 top/bttm;
#X floatatom 674 508 5 0 0 0 - - -;
#X obj 707 587 t b b;
#X obj 697 632 f;
#X obj 701 662 + 1;
#X obj 482 404 tgl 15 0 empty empty empty 17 7 0 10 -262144 -1 -1 0
1;
#X obj 662 688 * 127;
#X floatatom 659 604 5 0 0 0 - - -;
#X msg 731 616 1;
#X obj 482 423 bng 15 250 50 0 empty empty empty 17 7 0 10 -262144
-1 -1;
#X obj 32 690 outlet;
#X obj 325 693 outlet;
#X obj 589 693 outlet;
#X obj 706 687 outlet;
#X text 255 692 Y;
#X text 525 692 Z;
#X text 669 702 Z flip switch;
#X text -48 691 X;
#X obj 712 486 moses 126;
#X obj 712 537 < 126;
#X obj 709 508 - 126;
#X floatatom 89 440 5 0 0 0 - - -;
#X obj 122 519 t b b;
#X obj 112 564 f;
#X obj 116 594 + 1;
#X obj 349 405 tgl 15 0 empty empty empty 17 7 0 10 -262144 -1 -1 0
1;
#X obj 77 620 * 127;
#X floatatom 74 536 5 0 0 0 - - -;
#X msg 146 548 1;
#X obj 349 422 bng 15 250 50 0 empty empty empty 17 7 0 10 -262144
-1 -1;
#X floatatom 387 512 5 0 0 0 - - -;
#X obj 420 591 t b b;
#X obj 410 636 f;
#X obj 414 666 + 1;
#X obj 418 405 tgl 15 0 empty empty empty 17 7 0 10 -262144 -1 -1 0
1;
#X obj 375 692 * 127;
#X floatatom 372 608 5 0 0 0 - - -;
#X msg 444 620 1;
#X obj 418 423 bng 15 250 50 0 empty empty empty 17 7 0 10 -262144
-1 -1;
#X obj 129 496 delay 150;
#X obj 427 568 delay 150;
#X obj 714 564 delay 150;
#X obj 432 693 outlet;
#X obj 141 629 outlet;
#X text 112 706 x flip switch;
#X text 398 708 y flip switch;
#X floatatom -58 562 5 0 0 0 - - -;
#X obj -58 584 - 1;
#X floatatom -58 607 5 0 0 0 - - -;
#X obj -58 534 clip 2 1;
#X floatatom -3 623 5 0 0 0 - - -;
#X obj -3 575 t b b;
#X obj -3 598 f;
#X obj 303 422 bng 15 250 50 0 empty empty empty 17 7 0 10 -262144
-1 -1;
#X obj -3 534 sel 1;
#X obj -3 555 delay 100;
#X obj 303 403 tgl 15 0 empty empty empty 17 7 0 10 -262144 -1 -1 0
1;
#X obj -32 670 * 127;
#X obj -23 694 outlet;
#X floatatom 246 561 5 0 0 0 - - -;
#X obj 246 583 - 1;
#X floatatom 246 606 5 0 0 0 - - -;
#X obj 246 532 clip 2 1;
#X floatatom 301 622 5 0 0 0 - - -;
#X obj 301 574 t b b;
#X obj 301 597 f;
#X obj 367 423 bng 15 250 50 0 empty empty empty 17 7 0 10 -262144
-1 -1;
#X obj 301 533 sel 1;
#X obj 301 554 delay 100;
#X obj 368 405 tgl 15 0 empty empty empty 17 7 0 10 -262144 -1 -1 0
1;
#X obj 272 669 * 127;
#X obj 272 699 outlet;
#X floatatom 516 562 5 0 0 0 - - -;
#X obj 516 584 - 1;
#X floatatom 516 607 5 0 0 0 - - -;
#X obj 516 533 clip 2 1;
#X floatatom 571 623 5 0 0 0 - - -;
#X obj 571 575 t b b;
#X obj 571 598 f;
#X obj 439 423 bng 15 100 50 0 empty empty empty 17 7 0 10 -262144
-1 -1;
#X obj 571 534 sel 1;
#X obj 571 555 delay 100;
#X obj 437 405 tgl 15 0 empty empty empty 17 7 0 10 -262144 -1 -1 1
1;
#X obj 542 670 * 127;
#X obj 542 692 outlet;
#X obj -3 182 r xaxisr;
#X obj 51 182 r yaxisr;
#X obj 105 183 r zaxisr;
#X obj 508 383 s led50;
#X obj 508 401 s led51;
#X obj 508 419 s led52;
#X obj 508 437 s led53;
#X obj 508 455 s led54;
#X obj 508 473 s led55;
#N canvas 0 0 303 384 rangex 0;
#X obj 106 72 clip 36 96;
#X floatatom 107 102 5 0 0 0 - - -;
#X obj 107 124 - 36;
#X floatatom 108 151 5 0 0 0 - - -;
#X floatatom 109 224 5 0 0 0 - - -;
#X obj 109 196 int;
#X obj 108 176 * 2.2;
#X obj 109 247 clip 0 127;
#X floatatom 112 280 5 0 0 0 - - -;
#X text 146 100 range multiplier;
#X obj 107 40 inlet;
#X obj 115 317 outlet;
#X connect 0 0 1 0;
#X connect 1 0 2 0;
#X connect 2 0 3 0;
#X connect 3 0 6 0;
#X connect 4 0 7 0;
#X connect 5 0 4 0;
#X connect 6 0 5 0;
#X connect 7 0 8 0;
#X connect 8 0 11 0;
#X connect 10 0 0 0;
#X restore 20 652 pd rangex;
#N canvas 0 0 303 384 rangex 0;
#X obj 106 72 clip 36 96;
#X floatatom 107 102 5 0 0 0 - - -;
#X obj 107 124 - 36;
#X floatatom 108 151 5 0 0 0 - - -;
#X floatatom 109 224 5 0 0 0 - - -;
#X obj 109 196 int;
#X obj 108 176 * 2.2;
#X obj 109 247 clip 0 127;
#X floatatom 112 280 5 0 0 0 - - -;
#X text 146 100 range multiplier;
#X obj 107 40 inlet;
#X obj 115 317 outlet;
#X connect 0 0 1 0;
#X connect 1 0 2 0;
#X connect 2 0 3 0;
#X connect 3 0 6 0;
#X connect 4 0 7 0;
#X connect 5 0 4 0;
#X connect 6 0 5 0;
#X connect 7 0 8 0;
#X connect 8 0 11 0;
#X connect 10 0 0 0;
#X restore 229 627 pd rangex;
#X obj 436 452 tgl 15 0 empty empty empty 17 7 0 10 -262144 -1 -1 0
1;
#X obj 425 490 moses 123;
#X obj 422 512 - 123;
#X obj 425 541 < 123;
#X obj 129 277 sel 0 1;
#X msg 129 297 0;
#X msg 158 297 127;
#X obj 5 239 pack f f f;
#X obj 5 282 spigot;
#X obj 5 304 unpack f f f;
#X text -58 342 comment;
#X floatatom 88 290 5 0 0 0 - - -;
#X obj 93 238 change;
#X obj 90 260 > 0.8;
#X obj 95 216 r xlrmtr2a;
#X obj 127 418 moses 100;
#X obj 124 440 - 100;
#X obj 127 469 < 100;
#X obj 142 604 sel 0 2;
#X obj 194 606 * 127;
#X floatatom 163 576 5 0 0 0 - - -;
#X obj 207 629 bng 15 250 50 0 empty empty empty 17 7 0 10 -262144
-1 -1;
#X floatatom 231 255 5 0 0 0 - - -;
#X msg 111 653 0;
#X connect 0 0 57 0;
#X connect 0 0 102 0;
#X connect 0 0 119 0;
#X connect 1 0 105 0;
#X connect 1 0 103 0;
#X connect 1 0 70 0;
#X connect 2 0 26 0;
#X connect 9 0 20 0;
#X connect 10 0 11 0;
#X connect 10 1 16 0;
#X connect 11 0 12 0;
#X connect 12 0 17 0;
#X connect 13 0 14 0;
#X connect 13 0 100 0;
#X connect 14 0 21 0;
#X connect 16 0 11 1;
#X connect 17 0 13 0;
#X connect 26 0 9 0;
#X connect 26 1 27 0;
#X connect 27 0 15 0;
#X connect 27 0 49 0;
#X connect 28 0 27 0;
#X connect 30 0 31 0;
#X connect 30 1 36 0;
#X connect 31 0 32 0;
#X connect 32 0 37 0;
#X connect 32 0 122 0;
#X connect 32 0 124 0;
#X connect 33 0 34 0;
#X connect 33 0 99 0;
#X connect 36 0 31 1;
#X connect 37 0 33 0;
#X connect 39 0 40 0;
#X connect 39 1 45 0;
#X connect 40 0 41 0;
#X connect 41 0 46 0;
#X connect 42 0 43 0;
#X connect 42 0 97 0;
#X connect 43 0 79 0;
#X connect 45 0 40 1;
#X connect 46 0 42 0;
#X connect 47 0 30 0;
#X connect 48 0 39 0;
#X connect 49 0 10 0;
#X connect 54 0 55 0;
#X connect 55 0 56 0;
#X connect 56 0 62 0;
#X connect 57 0 54 0;
#X connect 58 0 61 0;
#X connect 59 0 60 0;
#X connect 60 0 58 0;
#X connect 61 0 64 0;
#X connect 62 0 63 0;
#X connect 63 0 59 0;
#X connect 64 0 65 0;
#X connect 64 0 96 0;
#X connect 65 0 66 0;
#X connect 67 0 68 0;
#X connect 68 0 69 0;
#X connect 69 0 75 0;
#X connect 70 0 67 0;
#X connect 71 0 74 0;
#X connect 72 0 73 0;
#X connect 73 0 71 0;
#X connect 74 0 77 0;
#X connect 75 0 76 0;
#X connect 76 0 72 0;
#X connect 77 0 78 0;
#X connect 77 0 98 0;
#X connect 78 0 50 0;
#X connect 80 0 81 0;
#X connect 81 0 82 0;
#X connect 82 0 88 0;
#X connect 83 0 80 0;
#X connect 84 0 87 0;
#X connect 85 0 86 0;
#X connect 86 0 84 0;
#X connect 87 0 90 0;
#X connect 88 0 89 0;
#X connect 89 0 85 0;
#X connect 90 0 91 0;
#X connect 90 0 101 0;
#X connect 91 0 92 0;
#X connect 93 0 111 0;
#X connect 94 0 111 1;
#X connect 95 0 83 0;
#X connect 95 0 111 2;
#X connect 102 0 18 0;
#X connect 103 0 19 0;
#X connect 105 0 38 0;
#X connect 105 1 107 0;
#X connect 106 0 107 0;
#X connect 107 0 44 0;
#X connect 107 0 48 0;
#X connect 108 0 109 0;
#X connect 108 1 110 0;
#X connect 109 0 79 0;
#X connect 109 0 50 0;
#X connect 109 0 21 0;
#X connect 109 0 66 0;
#X connect 109 0 92 0;
#X connect 110 0 66 0;
#X connect 111 0 112 0;
#X connect 112 0 113 0;
#X connect 113 0 0 0;
#X connect 113 1 1 0;
#X connect 113 2 2 0;
#X connect 116 0 117 0;
#X connect 117 0 108 0;
#X connect 117 0 115 0;
#X connect 118 0 116 0;
#X connect 118 0 112 1;
#X connect 118 0 126 0;
#X connect 119 0 29 0;
#X connect 119 1 121 0;
#X connect 120 0 121 0;
#X connect 121 0 35 0;
#X connect 121 0 47 0;
#X connect 122 0 127 0;
#X connect 122 1 123 0;
#X connect 122 1 125 0;
#X connect 123 0 51 0;
#X connect 127 0 51 0;
#X coords 0 -1 1 1 200 40 2 300 400;
#X restore 327 130 pd xlrmtr l ctrl;
#X text 333 110 |---x---| |---y----| |---z---|;
#N canvas 1672 0 1366 726 xlrmtr 0;
#X floatatom -41 301 5 0 0 0 - - -;
#X floatatom 31 301 5 0 0 0 - - -;
#X floatatom 101 298 5 0 0 0 - - -;
#X text -40 326 ctl20;
#X text 31 329 ctl21;
#X text 105 327 ctl22;
#X text 7 318 Up/down tilt;
#X text -52 318 L/R Tilt;
#X text 97 318 top/bttm;
#X floatatom 674 507 5 0 0 0 - - -;
#X obj 707 586 t b b;
#X obj 697 631 f;
#X obj 701 661 + 1;
#X obj 482 403 tgl 15 0 empty empty empty 17 7 0 10 -262144 -1 -1 0
1;
#X obj 662 687 * 127;
#X floatatom 659 603 5 0 0 0 - - -;
#X msg 731 615 1;
#X obj 482 422 bng 15 250 50 0 empty empty empty 17 7 0 10 -262144
-1 -1;
#X obj 32 689 outlet;
#X obj 325 692 outlet;
#X obj 589 692 outlet;
#X obj 706 686 outlet;
#X text 255 691 Y;
#X text 525 691 Z;
#X text 669 701 Z flip switch;
#X text -48 690 X;
#X obj 712 485 moses 126;
#X obj 712 536 < 126;
#X obj 709 507 - 126;
#X floatatom 85 456 5 0 0 0 - - -;
#X obj 118 535 t b b;
#X obj 108 580 f;
#X obj 112 610 + 1;
#X obj 349 404 tgl 15 0 empty empty empty 17 7 0 10 -262144 -1 -1 0
1;
#X obj 74 628 * 127;
#X floatatom 81 603 5 0 0 0 - - -;
#X msg 142 564 1;
#X obj 349 421 bng 15 250 50 0 empty empty empty 17 7 0 10 -262144
-1 -1;
#X floatatom 387 511 5 0 0 0 - - -;
#X obj 420 590 t b b;
#X obj 410 635 f;
#X obj 414 665 + 1;
#X obj 418 404 tgl 15 0 empty empty empty 17 7 0 10 -262144 -1 -1 0
1;
#X obj 375 691 * 127;
#X floatatom 372 607 5 0 0 0 - - -;
#X msg 444 619 1;
#X obj 418 422 bng 15 250 50 0 empty empty empty 17 7 0 10 -262144
-1 -1;
#X obj 125 512 delay 150;
#X obj 427 567 delay 150;
#X obj 714 563 delay 150;
#X obj 432 692 outlet;
#X obj 149 690 outlet;
#X text 112 705 x flip switch;
#X text 398 707 y flip switch;
#X floatatom -58 561 5 0 0 0 - - -;
#X obj -58 583 - 1;
#X floatatom -58 606 5 0 0 0 - - -;
#X obj -58 533 clip 2 1;
#X floatatom -3 622 5 0 0 0 - - -;
#X obj -3 574 t b b;
#X obj -3 597 f;
#X obj 303 421 bng 15 250 50 0 empty empty empty 17 7 0 10 -262144
-1 -1;
#X obj -3 533 sel 1;
#X obj -3 554 delay 100;
#X obj 303 402 tgl 15 0 empty empty empty 17 7 0 10 -262144 -1 -1 0
1;
#X obj -32 669 * 127;
#X obj -23 693 outlet;
#X floatatom 246 560 5 0 0 0 - - -;
#X obj 246 582 - 1;
#X floatatom 246 605 5 0 0 0 - - -;
#X obj 246 531 clip 2 1;
#X floatatom 301 621 5 0 0 0 - - -;
#X obj 301 573 t b b;
#X obj 301 596 f;
#X obj 367 422 bng 15 250 50 0 empty empty empty 17 7 0 10 -262144
-1 -1;
#X obj 301 532 sel 1;
#X obj 301 553 delay 100;
#X obj 368 404 tgl 15 0 empty empty empty 17 7 0 10 -262144 -1 -1 0
1;
#X obj 272 668 * 127;
#X obj 272 690 outlet;
#X floatatom 516 561 5 0 0 0 - - -;
#X obj 516 583 - 1;
#X floatatom 516 606 5 0 0 0 - - -;
#X obj 516 532 clip 2 1;
#X floatatom 571 622 5 0 0 0 - - -;
#X obj 571 574 t b b;
#X obj 571 597 f;
#X obj 437 422 bng 15 100 50 0 empty empty empty 17 7 0 10 -262144
-1 -1;
#X obj 571 533 sel 1;
#X obj 437 404 tgl 15 0 empty empty empty 17 7 0 10 -262144 -1 -1 0
1;
#X obj 542 669 * 127;
#X obj 542 691 outlet;
#X obj 508 382 s led50;
#X obj 508 400 s led51;
#X obj 508 418 s led52;
#X obj 508 436 s led53;
#X obj 508 454 s led54;
#X obj 508 472 s led55;
#N canvas 0 0 303 384 rangex 0;
#X obj 106 72 clip 36 96;
#X floatatom 107 102 5 0 0 0 - - -;
#X obj 107 124 - 36;
#X floatatom 108 151 5 0 0 0 - - -;
#X floatatom 109 224 5 0 0 0 - - -;
#X obj 109 196 int;
#X obj 108 176 * 2.2;
#X obj 109 247 clip 0 127;
#X floatatom 112 280 5 0 0 0 - - -;
#X text 146 100 range multiplier;
#X obj 107 40 inlet;
#X obj 115 317 outlet;
#X connect 0 0 1 0;
#X connect 1 0 2 0;
#X connect 2 0 3 0;
#X connect 3 0 6 0;
#X connect 4 0 7 0;
#X connect 5 0 4 0;
#X connect 6 0 5 0;
#X connect 7 0 8 0;
#X connect 8 0 11 0;
#X connect 10 0 0 0;
#X restore 20 651 pd rangex;
#N canvas 0 0 303 384 rangex 0;
#X obj 106 72 clip 36 96;
#X floatatom 107 102 5 0 0 0 - - -;
#X obj 107 124 - 36;
#X floatatom 108 151 5 0 0 0 - - -;
#X floatatom 109 224 5 0 0 0 - - -;
#X obj 109 196 int;
#X obj 108 176 * 2.2;
#X obj 109 247 clip 0 127;
#X floatatom 112 280 5 0 0 0 - - -;
#X text 146 100 range multiplier;
#X obj 107 40 inlet;
#X obj 115 317 outlet;
#X connect 0 0 1 0;
#X connect 1 0 2 0;
#X connect 2 0 3 0;
#X connect 3 0 6 0;
#X connect 4 0 7 0;
#X connect 5 0 4 0;
#X connect 6 0 5 0;
#X connect 7 0 8 0;
#X connect 8 0 11 0;
#X connect 10 0 0 0;
#X restore 173 599 pd rangex;
#X obj 436 451 tgl 15 0 empty empty empty 17 7 0 10 -262144 -1 -1 0
1;
#X obj 129 251 sel 0 1;
#X msg 129 271 0;
#X msg 158 271 127;
#X obj 425 489 moses 123;
#X obj 422 511 - 123;
#X obj 425 540 < 123;
#X obj 5 213 pack f f f;
#X obj 5 256 spigot;
#X obj 5 278 unpack f f f;
#X obj 571 554 delay 200;
#X floatatom 497 213 5 0 0 0 - - -;
#X obj 474 213 int;
#X obj 474 195 average 10;
#X obj 475 230 change;
#X floatatom 515 231 5 0 0 0 - - -;
#X floatatom 423 212 5 0 0 0 - - -;
#X obj 400 212 int;
#X obj 400 195 average 10;
#X obj 401 229 change;
#X floatatom 441 230 5 0 0 0 - - -;
#X floatatom 350 211 5 0 0 0 - - -;
#X obj 327 193 average 10;
#X obj 328 228 change;
#X floatatom 368 229 5 0 0 0 - - -;
#X obj 4 193 r xaxisr;
#X obj 58 193 r yaxisr;
#X obj 113 193 r zaxisr;
#X floatatom 73 264 5 0 0 0 - - -;
#X obj 73 234 > 0.8;
#X obj 71 214 r xlrmtr1a;
#X obj 198 302 bng 15 250 50 0 empty empty empty 17 7 0 10 -262144
-1 -1;
#X obj 84 710 bng 15 250 50 0 empty empty empty 17 7 0 10 -262144 -1
-1;
#X obj 123 434 moses 100;
#X obj 120 456 - 100;
#X obj 126 485 < 100;
#X floatatom 160 635 5 0 0 0 - - -;
#X obj 119 661 sel 0 2;
#X obj 171 660 * 127;
#X connect 0 0 98 0;
#X connect 0 0 57 0;
#X connect 0 0 133 0;
#X connect 1 0 104 0;
#X connect 1 0 70 0;
#X connect 1 0 99 0;
#X connect 2 0 26 0;
#X connect 2 0 83 0;
#X connect 9 0 20 0;
#X connect 10 0 11 0;
#X connect 10 1 16 0;
#X connect 11 0 12 0;
#X connect 12 0 17 0;
#X connect 13 0 14 0;
#X connect 13 0 96 0;
#X connect 14 0 21 0;
#X connect 16 0 11 1;
#X connect 17 0 13 0;
#X connect 26 0 9 0;
#X connect 26 1 27 0;
#X connect 27 0 15 0;
#X connect 27 0 49 0;
#X connect 28 0 27 0;
#X connect 30 0 31 0;
#X connect 30 1 36 0;
#X connect 31 0 32 0;
#X connect 32 0 136 0;
#X connect 32 0 137 0;
#X connect 33 0 34 0;
#X connect 33 0 95 0;
#X connect 34 0 132 0;
#X connect 36 0 31 1;
#X connect 37 0 33 0;
#X connect 39 0 40 0;
#X connect 39 1 45 0;
#X connect 40 0 41 0;
#X connect 41 0 46 0;
#X connect 42 0 43 0;
#X connect 42 0 93 0;
#X connect 43 0 50 0;
#X connect 45 0 40 1;
#X connect 46 0 42 0;
#X connect 47 0 30 0;
#X connect 48 0 39 0;
#X connect 49 0 10 0;
#X connect 54 0 55 0;
#X connect 55 0 56 0;
#X connect 56 0 62 0;
#X connect 57 0 54 0;
#X connect 58 0 61 0;
#X connect 59 0 60 0;
#X connect 60 0 58 0;
#X connect 61 0 64 0;
#X connect 62 0 63 0;
#X connect 63 0 59 0;
#X connect 64 0 65 0;
#X connect 64 0 92 0;
#X connect 65 0 66 0;
#X connect 67 0 68 0;
#X connect 68 0 69 0;
#X connect 69 0 75 0;
#X connect 70 0 67 0;
#X connect 71 0 74 0;
#X connect 72 0 73 0;
#X connect 73 0 71 0;
#X connect 74 0 77 0;
#X connect 75 0 76 0;
#X connect 76 0 72 0;
#X connect 77 0 78 0;
#X connect 77 0 94 0;
#X connect 78 0 79 0;
#X connect 80 0 81 0;
#X connect 81 0 82 0;
#X connect 82 0 88 0;
#X connect 83 0 80 0;
#X connect 84 0 87 0;
#X connect 85 0 86 0;
#X connect 86 0 84 0;
#X connect 87 0 89 0;
#X connect 88 0 110 0;
#X connect 89 0 90 0;
#X connect 89 0 97 0;
#X connect 90 0 91 0;
#X connect 98 0 18 0;
#X connect 99 0 19 0;
#X connect 101 0 102 0;
#X connect 101 1 103 0;
#X connect 102 0 66 0;
#X connect 102 0 50 0;
#X connect 102 0 79 0;
#X connect 102 0 21 0;
#X connect 102 0 91 0;
#X connect 103 0 131 0;
#X connect 104 0 38 0;
#X connect 104 1 106 0;
#X connect 105 0 106 0;
#X connect 106 0 44 0;
#X connect 106 0 48 0;
#X connect 107 0 108 0;
#X connect 108 0 109 0;
#X connect 109 0 0 0;
#X connect 109 1 1 0;
#X connect 109 2 2 0;
#X connect 110 0 85 0;
#X connect 112 0 111 0;
#X connect 112 0 114 0;
#X connect 113 0 112 0;
#X connect 114 0 115 0;
#X connect 117 0 116 0;
#X connect 117 0 119 0;
#X connect 118 0 117 0;
#X connect 119 0 120 0;
#X connect 123 0 124 0;
#X connect 125 0 107 0;
#X connect 126 0 107 1;
#X connect 127 0 107 2;
#X connect 129 0 108 1;
#X connect 129 0 101 0;
#X connect 130 0 128 0;
#X connect 130 0 129 0;
#X connect 133 0 29 0;
#X connect 133 1 135 0;
#X connect 134 0 135 0;
#X connect 135 0 35 0;
#X connect 135 0 47 0;
#X connect 137 1 37 0;
#X connect 137 1 138 0;
#X connect 138 0 51 0;
#X coords 0 -1 1 1 200 40 2 300 400;
#X restore 107 130 pd xlrmtr l ctrl;
#X text 115 113 |---x---| |---y----| |---z---|;
#X text 153 103 Pre-FX;
#X text 196 104 RJB1;
#X text 397 100 Post-FX-RJB4;
#X coords 0 -1 1 1 440 75 1 100 100;
#X restore 435 -10162 pd pre post;
#N canvas 0 0 450 300 (subpatch) 0;
#X restore 224 -10252 pd;
#N canvas 525 311 450 300 XLRMTR_L 0;
#X obj 103 104 cnv 15 215 55 empty empty empty 20 12 0 14 -159808 -66577
0;
#N canvas 1985 136 968 468 xlrmtr 0;
#X text -37 94 ctl20;
#X text 34 97 ctl21;
#X text 108 95 ctl22;
#X text 15 84 Up/down tilt;
#X text -44 84 L/R Tilt;
#X text 105 84 top/bttm;
#X floatatom 626 167 5 0 0 0 - - -;
#X obj 659 246 t b b;
#X obj 649 291 f;
#X obj 653 321 + 1;
#X obj 482 403 tgl 15 0 empty empty empty 17 7 0 10 -262144 -1 -1 1
1;
#X obj 614 347 * 127;
#X floatatom 611 263 5 0 0 0 - - -;
#X msg 683 275 1;
#X obj 482 422 bng 15 250 50 0 empty empty empty 17 7 0 10 -262144
-1 -1;
#X obj -16 349 outlet;
#X obj 277 352 outlet;
#X obj 541 352 outlet;
#X obj 658 346 outlet;
#X text 207 351 Y;
#X text 477 351 Z;
#X text 621 361 Z flip switch;
#X text -96 350 X;
#X obj 664 145 moses 126;
#X obj 664 196 < 126;
#X obj 661 167 - 126;
#X obj -31 40 r xaxis;
#X obj 23 40 r yaxis;
#X obj 77 41 r zaxis;
#X floatatom 48 167 5 0 0 0 - - -;
#X obj 81 246 t b b;
#X obj 71 291 f;
#X obj 75 321 + 1;
#X obj 345 404 tgl 15 0 empty empty empty 17 7 0 10 -262144 -1 -1 1
1;
#X obj 36 347 * 127;
#X floatatom 33 263 5 0 0 0 - - -;
#X msg 105 275 1;
#X obj 346 421 bng 15 250 50 0 empty empty empty 17 7 0 10 -262144
-1 -1;
#X obj 86 145 moses 126;
#X obj 86 196 < 126;
#X obj 83 167 - 126;
#X floatatom 339 171 5 0 0 0 - - -;
#X obj 372 250 t b b;
#X obj 362 295 f;
#X obj 366 325 + 1;
#X obj 418 403 tgl 15 0 empty empty empty 17 7 0 10 -262144 -1 -1 0
1;
#X obj 327 351 * 127;
#X floatatom 324 267 5 0 0 0 - - -;
#X msg 396 279 1;
#X obj 418 421 bng 15 250 50 0 empty empty empty 17 7 0 10 -262144
-1 -1;
#X obj 377 149 moses 126;
#X obj 377 200 < 126;
#X obj 374 171 - 126;
#X obj 88 223 delay 150;
#X obj 379 227 delay 150;
#X obj 666 223 delay 150;
#X obj 384 352 outlet;
#X obj 101 350 outlet;
#X text 64 365 x flip switch;
#X text 350 367 y flip switch;
#X floatatom -106 221 5 0 0 0 - - -;
#X obj -106 243 - 1;
#X floatatom -106 266 5 0 0 0 - - -;
#X obj -106 193 clip 2 1;
#X floatatom -51 282 5 0 0 0 - - -;
#X obj -51 234 t b b;
#X obj -51 257 f;
#X obj 302 420 bng 15 250 50 0 empty empty empty 17 7 0 10 -262144
-1 -1;
#X obj -51 193 sel 1;
#X obj -51 214 delay 100;
#X obj 302 403 tgl 15 0 empty empty empty 17 7 0 10 -262144 -1 -1 1
1;
#X obj -80 329 * 127;
#X obj -80 351 outlet;
#X floatatom 198 220 5 0 0 0 - - -;
#X obj 198 242 - 1;
#X floatatom 198 265 5 0 0 0 - - -;
#X obj 198 191 clip 2 1;
#X floatatom 253 281 5 0 0 0 - - -;
#X obj 253 233 t b b;
#X obj 253 256 f;
#X obj 373 422 bng 15 250 50 0 empty empty empty 17 7 0 10 -262144
-1 -1;
#X obj 253 192 sel 1;
#X obj 253 213 delay 100;
#X obj 371 403 tgl 15 0 empty empty empty 17 7 0 10 -262144 -1 -1 0
1;
#X obj 224 328 * 127;
#X obj 224 350 outlet;
#X floatatom 468 221 5 0 0 0 - - -;
#X obj 468 243 - 1;
#X floatatom 468 266 5 0 0 0 - - -;
#X obj 468 192 clip 2 1;
#X floatatom 523 282 5 0 0 0 - - -;
#X obj 523 234 t b b;
#X obj 523 257 f;
#X obj 439 422 bng 15 250 50 0 empty empty empty 17 7 0 10 -262144
-1 -1;
#X obj 523 193 sel 1;
#X obj 523 214 delay 100;
#X obj 439 404 tgl 15 0 empty empty empty 17 7 0 10 -262144 -1 -1 1
1;
#X obj 494 329 * 127;
#X obj 494 351 outlet;
#X text -100 114 right hand joystick xlrmtr triggers;
#X obj 728 343 s led40;
#X obj 727 437 s led45;
#X obj 727 418 s led44;
#X obj 728 399 s led43;
#X obj 728 381 s led42;
#X obj 728 362 s led41;
#N canvas 0 0 303 384 rangex 0;
#X obj 106 72 clip 36 96;
#X floatatom 107 102 5 0 0 0 - - -;
#X obj 107 124 - 36;
#X floatatom 108 151 5 0 0 0 - - -;
#X floatatom 109 224 5 0 0 0 - - -;
#X obj 109 196 int;
#X obj 108 176 * 2.2;
#X obj 109 247 clip 0 127;
#X floatatom 112 280 5 0 0 0 - - -;
#X text 146 100 range multiplier;
#X obj 107 40 inlet;
#X obj 115 317 outlet;
#X connect 0 0 1 0;
#X connect 1 0 2 0;
#X connect 2 0 3 0;
#X connect 3 0 6 0;
#X connect 4 0 7 0;
#X connect 5 0 4 0;
#X connect 6 0 5 0;
#X connect 7 0 8 0;
#X connect 8 0 11 0;
#X connect 10 0 0 0;
#X restore -18 310 pd rangex;
#N canvas 0 0 303 384 rangex 0;
#X obj 106 72 clip 36 96;
#X floatatom 107 102 5 0 0 0 - - -;
#X obj 107 124 - 36;
#X floatatom 108 151 5 0 0 0 - - -;
#X floatatom 109 224 5 0 0 0 - - -;
#X obj 109 196 int;
#X obj 108 176 * 2.2;
#X obj 109 247 clip 0 127;
#X floatatom 112 280 5 0 0 0 - - -;
#X text 146 100 range multiplier;
#X obj 107 40 inlet;
#X obj 115 317 outlet;
#X connect 0 0 1 0;
#X connect 1 0 2 0;
#X connect 2 0 3 0;
#X connect 3 0 6 0;
#X connect 4 0 7 0;
#X connect 5 0 4 0;
#X connect 6 0 5 0;
#X connect 7 0 8 0;
#X connect 8 0 11 0;
#X connect 10 0 0 0;
#X restore 266 306 pd rangex;
#X obj 118 117 r rjuforward;
#X obj 204 435 s xpitchswitch;
#X connect 7 0 8 0;
#X connect 7 1 13 0;
#X connect 8 0 9 0;
#X connect 9 0 14 0;
#X connect 10 0 11 0;
#X connect 10 0 102 0;
#X connect 11 0 18 0;
#X connect 13 0 8 1;
#X connect 14 0 10 0;
#X connect 23 0 6 0;
#X connect 23 0 17 0;
#X connect 23 1 24 0;
#X connect 24 0 12 0;
#X connect 24 0 55 0;
#X connect 25 0 24 0;
#X connect 26 0 63 0;
#X connect 26 0 106 0;
#X connect 26 0 38 0;
#X connect 27 0 107 0;
#X connect 27 0 76 0;
#X connect 27 0 50 0;
#X connect 28 0 89 0;
#X connect 28 0 23 0;
#X connect 30 0 31 0;
#X connect 30 1 36 0;
#X connect 31 0 32 0;
#X connect 32 0 37 0;
#X connect 33 0 34 0;
#X connect 33 0 103 0;
#X connect 33 0 109 0;
#X connect 34 0 57 0;
#X connect 36 0 31 1;
#X connect 37 0 33 0;
#X connect 38 0 29 0;
#X connect 38 1 39 0;
#X connect 39 0 35 0;
#X connect 39 0 53 0;
#X connect 40 0 39 0;
#X connect 42 0 43 0;
#X connect 42 1 48 0;
#X connect 43 0 44 0;
#X connect 44 0 49 0;
#X connect 45 0 46 0;
#X connect 45 0 105 0;
#X connect 46 0 56 0;
#X connect 48 0 43 1;
#X connect 49 0 45 0;
#X connect 50 0 41 0;
#X connect 50 1 51 0;
#X connect 51 0 47 0;
#X connect 51 0 54 0;
#X connect 52 0 51 0;
#X connect 53 0 30 0;
#X connect 54 0 42 0;
#X connect 55 0 7 0;
#X connect 60 0 61 0;
#X connect 61 0 62 0;
#X connect 62 0 68 0;
#X connect 63 0 60 0;
#X connect 64 0 67 0;
#X connect 65 0 66 0;
#X connect 66 0 64 0;
#X connect 67 0 70 0;
#X connect 68 0 69 0;
#X connect 69 0 65 0;
#X connect 70 0 71 0;
#X connect 70 0 100 0;
#X connect 71 0 72 0;
#X connect 73 0 74 0;
#X connect 74 0 75 0;
#X connect 75 0 81 0;
#X connect 76 0 73 0;
#X connect 77 0 80 0;
#X connect 78 0 79 0;
#X connect 79 0 77 0;
#X connect 80 0 83 0;
#X connect 81 0 82 0;
#X connect 82 0 78 0;
#X connect 83 0 84 0;
#X connect 83 0 104 0;
#X connect 84 0 85 0;
#X connect 86 0 87 0;
#X connect 87 0 88 0;
#X connect 88 0 94 0;
#X connect 89 0 86 0;
#X connect 90 0 93 0;
#X connect 91 0 92 0;
#X connect 92 0 90 0;
#X connect 93 0 96 0;
#X connect 94 0 95 0;
#X connect 95 0 91 0;
#X connect 96 0 97 0;
#X connect 96 0 101 0;
#X connect 97 0 98 0;
#X connect 106 0 15 0;
#X connect 107 0 16 0;
#X coords 0 -1 1 1 200 40 2 300 400;
#X restore 110 118 pd xlrmtr l ctrl;
#X text 112 100 |---x---| |---y----| |---z---|;
#X obj 377 243 r pgm2chnl;
#X msg 266 243 100;
#X msg 292 243 101;
#X msg 320 243 102;
#X msg 348 243 103;
#X obj 267 273 ctlout;
#X text 263 221 lEFT-BASE(NOLATCH);
#X floatatom 159 162 5 0 0 0 - - -;
#X floatatom 158 180 5 0 0 0 - - -;
#X floatatom 159 197 5 0 0 0 - - -;
#X floatatom 194 162 5 0 0 0 - - -;
#X floatatom 194 182 5 0 0 0 - - -;
#X floatatom 194 200 5 0 0 0 - - -;
#X floatatom 229 164 5 0 0 0 - - -;
#X floatatom 229 183 5 0 0 0 - - -;
#X floatatom 229 201 5 0 0 0 - - -;
#X connect 1 0 10 0;
#X connect 1 1 11 0;
#X connect 1 2 12 0;
#X connect 1 3 13 0;
#X connect 1 4 14 0;
#X connect 1 5 15 0;
#X connect 1 6 16 0;
#X connect 1 7 17 0;
#X connect 1 8 18 0;
#X connect 3 0 8 2;
#X connect 4 0 8 1;
#X connect 5 0 8 1;
#X connect 6 0 8 1;
#X connect 7 0 8 1;
#X coords 0 -1 1 1 220 120 1 100 100;
#X restore -27 -10161 pd XLRMTR_L;
#X obj 882 -9984 gsynthfour;
#X obj 884 -9899 gsynthsix;
#X connect 0 0 3 0;
#X connect 0 0 4 0;
#X connect 0 0 6 0;
#X connect 0 0 7 0;
#X connect 0 0 10 0;
#X connect 0 0 12 0;
#X connect 0 0 14 0;
#X connect 0 0 16 0;
#X connect 3 0 2 0;
#X connect 3 0 39 0;
#X connect 4 0 1 0;
#X connect 4 0 31 0;
#X connect 6 0 5 0;
#X connect 6 0 38 0;
#X connect 7 0 8 0;
#X connect 7 0 37 0;
#X connect 10 0 9 0;
#X connect 10 0 34 0;
#X connect 12 0 11 0;
#X connect 12 0 43 0;
#X connect 14 0 13 0;
#X connect 14 0 44 0;
#X connect 16 0 15 0;
#X coords 0 726 1 725 1000 650 0;
