#N canvas 687 276 679 492 10;
#X obj 123 108 change;
#X obj 81 108 change;
#X obj 39 108 change;
#X obj -3 108 change;
#X msg 123 127 1;
#X obj 386 107 change;
#X obj 483 107 change;
#X obj 434 108 change;
#X obj 531 106 change;
#N canvas 594 421 450 300 element 0;
#X obj 139 43 inlet;
#X obj 169 103 vsl 15 128 0 1 0 0 empty empty empty 0 -9 0 10 -262144
-1 -1 0 1;
#X obj 131 101 vsl 15 128 0 1 0 0 empty empty empty 0 -9 0 10 -262144
-1 -1 0 1;
#X obj 204 104 vsl 15 128 0 1 0 0 empty empty empty 0 -9 0 10 -262144
-1 -1 0 1;
#X obj 132 259 s r;
#X obj 167 259 s g;
#X obj 205 259 s b;
#X floatatom 175 238 5 0 0 0 - - -;
#X floatatom 215 239 5 0 0 0 - - -;
#X floatatom 139 237 5 0 0 0 - - -;
#X msg 119 76 1;
#X msg 156 72 0;
#X msg 191 71 0;
#X connect 0 0 10 0;
#X connect 0 0 11 0;
#X connect 0 0 12 0;
#X connect 1 0 5 0;
#X connect 1 0 7 0;
#X connect 2 0 4 0;
#X connect 2 0 9 0;
#X connect 3 0 6 0;
#X connect 3 0 8 0;
#X connect 10 0 4 0;
#X connect 11 0 5 0;
#X connect 12 0 6 0;
#X restore 140 163 pd element color;
#N canvas 594 421 450 300 element 0;
#X obj 139 43 inlet;
#X obj 169 103 vsl 15 128 0 1 0 0 empty empty empty 0 -9 0 10 -262144
-1 -1 0 1;
#X obj 131 101 vsl 15 128 0 1 0 0 empty empty empty 0 -9 0 10 -262144
-1 -1 0 1;
#X obj 204 104 vsl 15 128 0 1 0 0 empty empty empty 0 -9 0 10 -262144
-1 -1 0 1;
#X obj 132 259 s r;
#X obj 167 259 s g;
#X obj 205 259 s b;
#X floatatom 175 238 5 0 0 0 - - -;
#X floatatom 215 239 5 0 0 0 - - -;
#X floatatom 139 237 5 0 0 0 - - -;
#X msg 191 71 0;
#X msg 119 76 0;
#X msg 156 72 1;
#X connect 0 0 11 0;
#X connect 0 0 12 0;
#X connect 0 0 10 0;
#X connect 1 0 5 0;
#X connect 1 0 7 0;
#X connect 2 0 4 0;
#X connect 2 0 9 0;
#X connect 3 0 6 0;
#X connect 3 0 8 0;
#X connect 10 0 6 0;
#X connect 11 0 4 0;
#X connect 12 0 5 0;
#X restore 37 212 pd element color;
#N canvas 594 421 450 300 element 0;
#X obj 139 43 inlet;
#X obj 169 103 vsl 15 128 0 1 0 0 empty empty empty 0 -9 0 10 -262144
-1 -1 0 1;
#X obj 131 101 vsl 15 128 0 1 0 0 empty empty empty 0 -9 0 10 -262144
-1 -1 0 1;
#X obj 204 104 vsl 15 128 0 1 0 0 empty empty empty 0 -9 0 10 -262144
-1 -1 0 1;
#X obj 132 259 s r;
#X obj 167 259 s g;
#X obj 205 259 s b;
#X floatatom 175 238 5 0 0 0 - - -;
#X floatatom 215 239 5 0 0 0 - - -;
#X floatatom 139 237 5 0 0 0 - - -;
#X msg 156 72 0;
#X msg 119 76 0;
#X msg 191 71 1;
#X connect 0 0 11 0;
#X connect 0 0 10 0;
#X connect 0 0 12 0;
#X connect 1 0 5 0;
#X connect 1 0 7 0;
#X connect 2 0 4 0;
#X connect 2 0 9 0;
#X connect 3 0 6 0;
#X connect 3 0 8 0;
#X connect 10 0 5 0;
#X connect 11 0 4 0;
#X connect 12 0 6 0;
#X restore 76 188 pd element color;
#N canvas 574 421 450 300 element 0;
#X obj 139 43 inlet;
#X obj 169 103 vsl 15 128 0 1 0 0 empty empty empty 0 -9 0 10 -262144
-1 -1 0 1;
#X obj 131 101 vsl 15 128 0 1 0 0 empty empty empty 0 -9 0 10 -262144
-1 -1 0 1;
#X obj 204 104 vsl 15 128 0 1 0 0 empty empty empty 0 -9 0 10 -262144
-1 -1 0 1;
#X obj 132 259 s r;
#X obj 167 259 s g;
#X obj 205 259 s b;
#X floatatom 175 238 5 0 0 0 - - -;
#X floatatom 215 239 5 0 0 0 - - -;
#X floatatom 139 237 5 0 0 0 - - -;
#X msg 119 76 1;
#X msg 191 71 0;
#X msg 152 71 0.35;
#X connect 0 0 10 0;
#X connect 0 0 12 0;
#X connect 0 0 11 0;
#X connect 1 0 5 0;
#X connect 1 0 7 0;
#X connect 2 0 4 0;
#X connect 2 0 9 0;
#X connect 3 0 6 0;
#X connect 3 0 8 0;
#X connect 10 0 4 0;
#X connect 11 0 6 0;
#X connect 12 0 5 0;
#X restore -4 156 pd element color;
#N canvas 594 421 450 300 element 0;
#X obj 139 43 inlet;
#X obj 169 103 vsl 15 128 0 1 0 0 empty empty empty 0 -9 0 10 -262144
-1 -1 0 1;
#X obj 131 101 vsl 15 128 0 1 0 0 empty empty empty 0 -9 0 10 -262144
-1 -1 0 1;
#X obj 204 104 vsl 15 128 0 1 0 0 empty empty empty 0 -9 0 10 -262144
-1 -1 0 1;
#X obj 132 259 s r;
#X obj 167 259 s g;
#X obj 205 259 s b;
#X floatatom 175 238 5 0 0 0 - - -;
#X floatatom 215 239 5 0 0 0 - - -;
#X floatatom 139 237 5 0 0 0 - - -;
#X msg 119 76 1;
#X msg 156 72 0;
#X msg 191 71 0.566;
#X connect 0 0 10 0;
#X connect 0 0 11 0;
#X connect 0 0 12 0;
#X connect 1 0 5 0;
#X connect 1 0 7 0;
#X connect 2 0 4 0;
#X connect 2 0 9 0;
#X connect 3 0 6 0;
#X connect 3 0 8 0;
#X connect 10 0 4 0;
#X connect 11 0 5 0;
#X connect 12 0 6 0;
#X restore 386 155 pd element color;
#X msg 81 127 2;
#X msg 39 127 3;
#X msg -3 127 4;
#X msg 386 126 5;
#X msg 434 127 6;
#X msg 483 127 7;
#X msg 529 126 8;
#X obj 287 211 s pgmout;
#X text 168 129 <---;
#X text 345 127 --->;
#N canvas 594 421 450 300 element 0;
#X obj 139 43 inlet;
#X obj 169 103 vsl 15 128 0 1 0 0 empty empty empty 0 -9 0 10 -262144
-1 -1 0 1;
#X obj 131 101 vsl 15 128 0 1 0 0 empty empty empty 0 -9 0 10 -262144
-1 -1 0 1;
#X obj 204 104 vsl 15 128 0 1 0 0 empty empty empty 0 -9 0 10 -262144
-1 -1 0 1;
#X obj 132 259 s r;
#X obj 167 259 s g;
#X obj 205 259 s b;
#X floatatom 175 238 5 0 0 0 - - -;
#X floatatom 215 239 5 0 0 0 - - -;
#X floatatom 139 237 5 0 0 0 - - -;
#X msg 119 76 0.07;
#X msg 156 72 0.95;
#X msg 191 71 1;
#X connect 0 0 10 0;
#X connect 0 0 11 0;
#X connect 0 0 12 0;
#X connect 1 0 5 0;
#X connect 1 0 7 0;
#X connect 2 0 4 0;
#X connect 2 0 9 0;
#X connect 3 0 6 0;
#X connect 3 0 8 0;
#X connect 10 0 4 0;
#X connect 11 0 5 0;
#X connect 12 0 6 0;
#X restore 428 221 pd element color;
#N canvas 802 266 450 300 element 0;
#X obj 139 43 inlet;
#X obj 169 103 vsl 15 128 0 1 0 0 empty empty empty 0 -9 0 10 -262144
-1 -1 0 1;
#X obj 135 103 vsl 15 128 0 1 0 0 empty empty empty 0 -9 0 10 -262144
-1 -1 0 1;
#X obj 204 104 vsl 15 128 0 1 0 0 empty empty empty 0 -9 0 10 -262144
-1 -1 0 1;
#X obj 132 259 s r;
#X obj 167 259 s g;
#X obj 205 259 s b;
#X floatatom 175 238 5 0 0 0 - - -;
#X floatatom 215 239 5 0 0 0 - - -;
#X floatatom 139 237 5 0 0 0 - - -;
#X msg 91 74 0.834;
#X msg 156 72 0.46;
#X msg 191 71 0.22;
#X connect 0 0 10 0;
#X connect 0 0 11 0;
#X connect 0 0 12 0;
#X connect 1 0 5 0;
#X connect 1 0 7 0;
#X connect 2 0 4 0;
#X connect 2 0 9 0;
#X connect 3 0 6 0;
#X connect 3 0 8 0;
#X connect 10 0 4 0;
#X connect 11 0 5 0;
#X connect 12 0 6 0;
#X restore 471 198 pd element color;
#N canvas 594 421 450 300 element 0;
#X obj 139 43 inlet;
#X obj 169 103 vsl 15 128 0 1 0 0 empty empty empty 0 -9 0 10 -262144
-1 -1 0 1;
#X obj 131 101 vsl 15 128 0 1 0 0 empty empty empty 0 -9 0 10 -262144
-1 -1 0 1;
#X obj 204 104 vsl 15 128 0 1 0 0 empty empty empty 0 -9 0 10 -262144
-1 -1 0 1;
#X obj 132 259 s r;
#X obj 167 259 s g;
#X obj 205 259 s b;
#X floatatom 175 238 5 0 0 0 - - -;
#X floatatom 215 239 5 0 0 0 - - -;
#X floatatom 139 237 5 0 0 0 - - -;
#X msg 119 76 1;
#X msg 156 72 0;
#X msg 191 71 0.566;
#X connect 0 0 10 0;
#X connect 0 0 11 0;
#X connect 0 0 12 0;
#X connect 1 0 5 0;
#X connect 1 0 7 0;
#X connect 2 0 4 0;
#X connect 2 0 9 0;
#X connect 3 0 6 0;
#X connect 3 0 8 0;
#X connect 10 0 4 0;
#X connect 11 0 5 0;
#X connect 12 0 6 0;
#X restore 514 174 pd element color;
#X text 33 229 each of these has a simple rgb color editor for the
LEDs;
#N canvas 311 233 541 300 program 0;
#X obj 37 33 inlet;
#X msg 57 88 4;
#X obj 37 88 tgl 15 0 empty empty empty 17 7 0 10 -262144 -1 -1 0 1
;
#X obj 37 60 sel 0 1;
#X obj 86 35 inlet;
#X obj 86 90 tgl 15 0 empty empty empty 17 7 0 10 -262144 -1 -1 0 1
;
#X obj 86 62 sel 0 1;
#X obj 138 35 inlet;
#X obj 138 90 tgl 15 0 empty empty empty 17 7 0 10 -262144 -1 -1 0
1;
#X obj 138 62 sel 0 1;
#X obj 187 37 inlet;
#X obj 187 92 tgl 15 0 empty empty empty 17 7 0 10 -262144 -1 -1 0
1;
#X obj 187 64 sel 0 1;
#X obj 278 37 inlet;
#X obj 271 90 tgl 15 0 empty empty empty 17 7 0 10 -262144 -1 -1 1
1;
#X obj 271 62 sel 0 1;
#X obj 320 37 inlet;
#X obj 320 92 tgl 15 0 empty empty empty 17 7 0 10 -262144 -1 -1 0
1;
#X obj 320 64 sel 0 1;
#X obj 372 37 inlet;
#X obj 372 92 tgl 15 0 empty empty empty 17 7 0 10 -262144 -1 -1 0
1;
#X obj 372 64 sel 0 1;
#X obj 421 39 inlet;
#X obj 421 94 tgl 15 0 empty empty empty 17 7 0 10 -262144 -1 -1 0
1;
#X obj 421 66 sel 0 1;
#X msg 207 92 1;
#X msg 158 90 2;
#X msg 106 90 3;
#X msg 441 94 5;
#X msg 392 92 6;
#X msg 340 92 7;
#X msg 291 90 8;
#X obj 187 201 s led1;
#X obj 423 198 s led5;
#X obj 363 198 s led6;
#X obj 316 197 s led7;
#X obj 262 196 s led8;
#X obj 139 199 s led2;
#X obj 85 198 s led3;
#X obj 36 199 s led4;
#X msg 191 161 0;
#X msg 142 161 0;
#X msg 87 159 0;
#X msg 38 157 0;
#X msg 420 167 0;
#X msg 371 167 0;
#X msg 316 165 0;
#X msg 267 163 0;
#X connect 0 0 3 0;
#X connect 1 0 39 0;
#X connect 1 0 43 0;
#X connect 2 0 39 0;
#X connect 3 0 2 0;
#X connect 3 1 1 0;
#X connect 4 0 6 0;
#X connect 5 0 38 0;
#X connect 6 0 5 0;
#X connect 6 1 27 0;
#X connect 7 0 9 0;
#X connect 8 0 37 0;
#X connect 9 0 8 0;
#X connect 9 1 26 0;
#X connect 10 0 12 0;
#X connect 11 0 32 0;
#X connect 12 0 11 0;
#X connect 12 1 25 0;
#X connect 13 0 15 0;
#X connect 14 0 36 0;
#X connect 15 0 14 0;
#X connect 15 1 31 0;
#X connect 16 0 18 0;
#X connect 17 0 35 0;
#X connect 18 0 17 0;
#X connect 18 1 30 0;
#X connect 19 0 21 0;
#X connect 20 0 34 0;
#X connect 21 0 20 0;
#X connect 21 1 29 0;
#X connect 22 0 24 0;
#X connect 23 0 33 0;
#X connect 24 0 23 0;
#X connect 24 1 28 0;
#X connect 25 0 32 0;
#X connect 25 0 40 0;
#X connect 26 0 37 0;
#X connect 26 0 41 0;
#X connect 27 0 38 0;
#X connect 27 0 42 0;
#X connect 28 0 33 0;
#X connect 28 0 44 0;
#X connect 29 0 34 0;
#X connect 29 0 45 0;
#X connect 30 0 35 0;
#X connect 30 0 46 0;
#X connect 31 0 36 0;
#X connect 31 0 47 0;
#X connect 40 0 23 0;
#X connect 40 0 20 0;
#X connect 40 0 17 0;
#X connect 40 0 14 0;
#X connect 40 0 8 0;
#X connect 40 0 5 0;
#X connect 40 0 2 0;
#X connect 41 0 2 0;
#X connect 41 0 5 0;
#X connect 41 0 11 0;
#X connect 41 0 14 0;
#X connect 41 0 17 0;
#X connect 41 0 20 0;
#X connect 41 0 23 0;
#X connect 42 0 2 0;
#X connect 42 0 8 0;
#X connect 42 0 11 0;
#X connect 42 0 14 0;
#X connect 42 0 17 0;
#X connect 42 0 20 0;
#X connect 42 0 23 0;
#X connect 43 0 5 0;
#X connect 43 0 8 0;
#X connect 43 0 11 0;
#X connect 43 0 14 0;
#X connect 43 0 17 0;
#X connect 43 0 20 0;
#X connect 43 0 23 0;
#X connect 44 0 20 0;
#X connect 44 0 17 0;
#X connect 44 0 14 0;
#X connect 44 0 11 0;
#X connect 44 0 8 0;
#X connect 44 0 5 0;
#X connect 44 0 2 0;
#X connect 45 0 23 0;
#X connect 45 0 17 0;
#X connect 45 0 14 0;
#X connect 45 0 11 0;
#X connect 45 0 8 0;
#X connect 45 0 5 0;
#X connect 45 0 2 0;
#X connect 46 0 20 0;
#X connect 46 0 23 0;
#X connect 46 0 14 0;
#X connect 46 0 11 0;
#X connect 46 0 8 0;
#X connect 46 0 5 0;
#X connect 46 0 2 0;
#X connect 47 0 2 0;
#X connect 47 0 5 0;
#X connect 47 0 8 0;
#X connect 47 0 11 0;
#X connect 47 0 17 0;
#X connect 47 0 20 0;
#X connect 47 0 23 0;
#X restore 226 145 pd program display;
#X obj 233 402 tgl 30 0 empty empty empty 17 7 0 10 -4034 -1 -1 0 1
;
#X obj 265 402 tgl 30 0 empty empty empty 17 7 0 10 -4160 -1 -1 0 1
;
#X obj 298 402 tgl 30 0 empty empty empty 17 7 0 10 -258113 -1 -1 0
1;
#X obj 427 402 tgl 30 0 empty empty empty 17 7 0 10 -191407 -1 -1 0
1;
#X obj 394 402 tgl 30 0 empty empty empty 17 7 0 10 -261234 -1 -1 0
1;
#X obj 362 402 tgl 30 0 empty empty empty 17 7 0 10 -4032 -1 -1 0 1
;
#X obj 330 402 tgl 30 0 empty empty empty 17 7 0 10 -159808 -1 -1 1
1;
#X obj 202 403 tgl 30 0 empty empty empty 17 7 0 10 -260097 -1 -1 0
1;
#X obj 80 372 r led4;
#X obj 121 372 r led3;
#X obj 162 372 r led2;
#X obj 204 372 r led1;
#X obj 298 369 r led8;
#X obj 339 369 r led7;
#X obj 380 369 r led6;
#X obj 421 369 r led5;
#X text 308 400 1;
#X text 262 398 2;
#X text 243 398 3;
#X text 210 400 4;
#X text 340 400 5;
#X text 372 400 6;
#X text 405 400 7;
#X text 437 399 8;
#X text 175 108 comment;
#X text 13 8 comment;
#N canvas 0 0 450 300 patch 0;
#N canvas 574 154 450 300 patch 0;
#X obj 63 -76 r controllernotes;
#X floatatom 63 -35 5 0 0 0 - - -;
#X obj 63 91 outlet;
#X text 230 -40 get the channel number;
#X floatatom 319 12 5 0 0 0 - - -;
#X obj 63 -9 - 28;
#X msg 45 44 1;
#X msg 75 44 2;
#X msg 104 44 3;
#X obj 63 17 sel 1 2 3 4 5 6 7 8 9 10;
#X msg 131 64 1;
#X msg 159 65 2;
#X msg 187 65 3;
#X msg 215 65 4;
#X msg 242 66 5;
#X msg 270 66 6;
#X msg 298 66 7;
#X obj 168 136 pgmout;
#X obj 327 66 r pgm2chnl;
#X floatatom 392 66 5 0 0 0 - - -;
#X connect 0 0 1 0;
#X connect 1 0 5 0;
#X connect 5 0 4 0;
#X connect 5 0 9 0;
#X connect 6 0 2 0;
#X connect 7 0 2 0;
#X connect 8 0 2 0;
#X connect 9 0 6 0;
#X connect 9 1 7 0;
#X connect 9 2 8 0;
#X connect 10 0 17 0;
#X connect 11 0 17 0;
#X connect 12 0 17 0;
#X connect 13 0 17 0;
#X connect 14 0 17 0;
#X connect 15 0 17 0;
#X connect 16 0 17 0;
#X connect 18 0 17 1;
#X connect 18 0 19 0;
#X restore 161 79 pd patch note interpreter;
#N canvas 1187 125 534 516 patch 0;
#X text 45 -262 note numbers to 1-10 here;
#N canvas 177 195 779 418 channel 0;
#N canvas 490 159 658 455 (subpatch) 0;
#X array \$0-ch1mute 4 float 3;
#A 0 12 0.090001 0.990009 0.0200005;
#X coords 0 1 4 0 100 100 1;
#X restore 19 110 graph;
#N canvas 0 0 450 300 (subpatch) 0;
#X array \$0-pgmchnge1 20 float 3;
#A 0 0.879999 0.699999 0.579999 0.479999 0.399999 0.339999 0.28 0.22
0.14 0.0399999 -0.04 -0.14 -0.24 -0.34 -0.36 -0.36 -0.4 -0.459999 -0.479999
-0.479999;
#X coords 0 1 20 -1 100 100 1;
#X restore 125 112 graph;
#X obj 72 -163 inlet;
#X obj 130 -23 outlet;
#X obj 130 -62 int;
#X floatatom 130 -42 5 0 0 0 - - -;
#X obj 130 -82 * 100;
#X obj 15 -23 outlet;
#X obj 16 -63 int;
#X floatatom 16 -43 5 0 0 0 - - -;
#X obj 16 -84 * 100;
#X obj 17 -106 tabread \$0-ch1mute;
#X obj 130 -106 tabread \$0-pgmchnge1;
#X connect 2 0 11 0;
#X connect 2 0 12 0;
#X connect 4 0 5 0;
#X connect 5 0 3 0;
#X connect 6 0 4 0;
#X connect 8 0 9 0;
#X connect 9 0 7 0;
#X connect 10 0 8 0;
#X connect 11 0 10 0;
#X connect 12 0 6 0;
#X restore 42 -156 pd channel 1;
#X floatatom 42 -120 5 0 0 0 - - -;
#X text 75 -118 ChnlMute;
#X floatatom 129 -120 5 0 0 0 - - -;
#X text 162 -118 ChnlMute;
#N canvas 402 116 690 418 channel 0;
#N canvas 490 159 658 455 (subpatch) 0;
#X array \$0-ch2mute 4 float 3;
#A 0 -0.0100094 0.99 0.0199916 -0.110011;
#X coords 0 1 4 0 100 100 1;
#X restore 17 111 graph;
#N canvas 0 0 450 300 (subpatch) 0;
#X array \$0-pgmchnge2 20 float 3;
#A 0 0 0.459998 0.579998 0.679998 0.699997 0.739997 0.739997 0.739997
0.639998 0.539998 0.369999 0.279999 0.139999 -0.0200001 -0.12 -0.199999
-0.319999 -0.419999 -0.519998 -0.599998;
#X coords 0 1 20 -1 100 100 1;
#X restore 123 110 graph;
#X obj 72 -163 inlet;
#X obj 122 -22 outlet;
#X obj 122 -61 int;
#X floatatom 122 -41 5 0 0 0 - - -;
#X obj 122 -81 * 100;
#X obj 24 -23 outlet;
#X obj 25 -63 int;
#X floatatom 25 -43 5 0 0 0 - - -;
#X obj 25 -84 * 100;
#X obj 229 -62 int;
#X floatatom 229 -42 5 0 0 0 - - -;
#X obj 229 -82 * 100;
#X obj 25 -105 tabread \$0-ch2mute;
#X obj 122 -103 tabread \$0-pgmchnge2;
#X connect 2 0 14 0;
#X connect 2 0 15 0;
#X connect 4 0 5 0;
#X connect 5 0 3 0;
#X connect 6 0 4 0;
#X connect 8 0 9 0;
#X connect 9 0 7 0;
#X connect 10 0 8 0;
#X connect 11 0 12 0;
#X connect 13 0 11 0;
#X connect 14 0 10 0;
#X connect 15 0 6 0;
#X restore 129 -156 pd channel 2;
#X floatatom 329 -119 5 0 0 0 - - -;
#X text 362 -117 ChnlMute;
#N canvas 144 98 690 418 channel 0;
#N canvas 490 159 658 455 (subpatch) 0;
#X array \$0-ch3mute 4 float 3;
#A 0 -0.959993 0 -3.8743e-007 1.01001;
#X coords 0 1 4 0 100 100 1;
#X restore 19 110 graph;
#X obj 72 -163 inlet;
#X obj 24 -22 outlet;
#X obj 25 -62 int;
#X floatatom 25 -42 5 0 0 0 - - -;
#X obj 25 -83 * 100;
#X obj 25 -105 tabread \$0-ch3mute;
#X connect 1 0 6 0;
#X connect 3 0 4 0;
#X connect 4 0 2 0;
#X connect 5 0 3 0;
#X connect 6 0 5 0;
#X restore 329 -155 pd channel 3;
#X obj 252 -252 spigot;
#X obj 294 -235 tgl 15 0 empty empty empty 17 7 0 10 -262144 -1 -1
0 1;
#X obj 251 -276 inlet;
#X obj 294 -276 r pgm2chnl;
#X obj 42 -100 ctlout 50;
#X obj 129 -100 ctlout 51;
#X obj 329 -99 ctlout 52;
#X floatatom 252 -230 5 0 0 0 - - -;
#X obj 294 -255 == 1;
#X msg 254 -154 1;
#X obj 285 -14 pgmout;
#X obj 260 -18 ==;
#X obj 59 189 patchselector;
#X connect 1 0 2 0;
#X connect 2 0 14 0;
#X connect 4 0 15 0;
#X connect 6 0 4 0;
#X connect 7 0 16 0;
#X connect 9 0 7 0;
#X connect 10 0 17 0;
#X connect 12 0 10 0;
#X connect 13 0 18 0;
#X connect 17 0 1 0;
#X connect 17 0 6 0;
#X connect 17 0 9 0;
#X connect 18 0 10 1;
#X connect 18 0 11 0;
#X connect 18 0 19 0;
#X connect 19 0 14 2;
#X connect 19 0 15 2;
#X connect 19 0 16 2;
#X restore 86 110 pd patch changer 1;
#N canvas 197 114 534 516 patch 0;
#X text 45 -262 note numbers to 1-10 here;
#N canvas 244 335 779 418 channel 0;
#N canvas 490 159 658 455 (subpatch) 0;
#X array \$0-ch1mute 4 float 3;
#A 0 12 0 0.700006 0.0200005;
#X coords 0 1 4 0 100 100 1;
#X restore 19 110 graph;
#N canvas 0 0 450 300 (subpatch) 0;
#X array \$0-pgmchnge1 20 float 3;
#A 0 0.879999 0.699999 0.579999 0.479999 0.399999 0.339999 0.28 0.22
0.14 0.0399999 -0.04 -0.14 -0.24 -0.34 -0.36 -0.36 -0.4 -0.459999 -0.479999
-0.479999;
#X coords 0 1 20 -1 100 100 1;
#X restore 125 112 graph;
#X obj 72 -163 inlet;
#X obj 130 -23 outlet;
#X obj 130 -62 int;
#X floatatom 130 -42 5 0 0 0 - - -;
#X obj 130 -82 * 100;
#X obj 15 -23 outlet;
#X obj 16 -63 int;
#X floatatom 16 -43 5 0 0 0 - - -;
#X obj 16 -84 * 100;
#X obj 17 -106 tabread \$0-ch1mute;
#X obj 130 -106 tabread \$0-pgmchnge1;
#X connect 2 0 11 0;
#X connect 2 0 12 0;
#X connect 4 0 5 0;
#X connect 5 0 3 0;
#X connect 6 0 4 0;
#X connect 8 0 9 0;
#X connect 9 0 7 0;
#X connect 10 0 8 0;
#X connect 11 0 10 0;
#X connect 12 0 6 0;
#X restore 42 -156 pd channel 1;
#X floatatom 42 -120 5 0 0 0 - - -;
#X text 75 -118 ChnlMute;
#X floatatom 129 -120 5 0 0 0 - - -;
#X text 162 -118 ChnlMute;
#N canvas 345 228 690 418 channel 0;
#N canvas 490 159 658 455 (subpatch) 0;
#X array \$0-ch2mute 4 float 3;
#A 0 -0.0100094 0.99 0.0199916 0.99;
#X coords 0 1 4 0 100 100 1;
#X restore 17 111 graph;
#N canvas 0 0 450 300 (subpatch) 0;
#X array \$0-pgmchnge2 20 float 3;
#A 0 0 0.459998 0.579998 0.679998 0.699997 0.739997 0.739997 0.739997
0.639998 0.539998 0.369999 0.279999 0.139999 -0.0200001 -0.12 -0.199999
-0.319999 -0.419999 -0.519998 -0.599998;
#X coords 0 1 20 -1 100 100 1;
#X restore 123 110 graph;
#X obj 72 -163 inlet;
#X obj 122 -22 outlet;
#X obj 122 -61 int;
#X floatatom 122 -41 5 0 0 0 - - -;
#X obj 122 -81 * 100;
#X obj 24 -23 outlet;
#X obj 25 -63 int;
#X floatatom 25 -43 5 0 0 0 - - -;
#X obj 25 -84 * 100;
#X obj 25 -105 tabread \$0-ch2mute;
#X obj 122 -103 tabread \$0-pgmchnge2;
#X connect 2 0 11 0;
#X connect 2 0 12 0;
#X connect 4 0 5 0;
#X connect 5 0 3 0;
#X connect 6 0 4 0;
#X connect 8 0 9 0;
#X connect 9 0 7 0;
#X connect 10 0 8 0;
#X connect 11 0 10 0;
#X connect 12 0 6 0;
#X restore 129 -156 pd channel 2;
#X floatatom 329 -119 5 0 0 0 - - -;
#X text 362 -117 ChnlMute;
#X text 457 -114 ChnlMute;
#N canvas 144 98 690 418 channel 0;
#N canvas 490 159 658 455 (subpatch) 0;
#X array \$0-ch3mute 4 float 3;
#A 0 -0.959993 0 0 0;
#X coords 0 1 4 0 100 100 1;
#X restore 19 110 graph;
#N canvas 0 0 450 300 (subpatch) 0;
#X array \$0-pgmchnge3 20 float 3;
#A 0 0 0.32 0.36 0.639999 0.739999 0.719999 0.679999 0.619999 0.56
0.340001 0.260001 1.65403e-006 -0.299997 -0.539997 -0.599996 -0.639996
-0.639996 -0.639996 -0.639996 -0.679996;
#X coords 0 1 20 -1 100 100 1;
#X restore 123 110 graph;
#X obj 72 -163 inlet;
#X obj 122 -21 outlet;
#X obj 122 -60 int;
#X floatatom 122 -40 5 0 0 0 - - -;
#X obj 122 -80 * 100;
#X obj 24 -22 outlet;
#X obj 25 -62 int;
#X floatatom 25 -42 5 0 0 0 - - -;
#X obj 25 -83 * 100;
#X obj 25 -105 tabread \$0-ch3mute;
#X obj 122 -103 tabread \$0-pgmchnge3;
#X connect 2 0 11 0;
#X connect 2 0 12 0;
#X connect 4 0 5 0;
#X connect 5 0 3 0;
#X connect 6 0 4 0;
#X connect 8 0 9 0;
#X connect 9 0 7 0;
#X connect 10 0 8 0;
#X connect 11 0 10 0;
#X connect 12 0 6 0;
#X restore 329 -155 pd channel 3;
#X obj 252 -252 spigot;
#X obj 294 -235 tgl 15 0 empty empty empty 17 7 0 10 -262144 -1 -1
0 1;
#X obj 251 -276 inlet;
#X obj 294 -276 r pgm2chnl;
#X obj 42 -100 ctlout 50;
#X obj 129 -100 ctlout 51;
#X obj 329 -99 ctlout 52;
#X floatatom 252 -230 5 0 0 0 - - -;
#X obj 294 -255 == 2;
#X msg 261 -110 2;
#X connect 1 0 2 0;
#X connect 2 0 15 0;
#X connect 4 0 16 0;
#X connect 6 0 4 0;
#X connect 7 0 17 0;
#X connect 10 0 7 0;
#X connect 11 0 18 0;
#X connect 13 0 11 0;
#X connect 14 0 19 0;
#X connect 18 0 1 0;
#X connect 18 0 6 0;
#X connect 18 0 10 0;
#X connect 19 0 11 1;
#X connect 19 0 12 0;
#X connect 19 0 20 0;
#X connect 20 0 15 2;
#X connect 20 0 16 2;
#X connect 20 0 17 2;
#X restore 85 132 pd patch changer 2;
#N canvas 197 114 534 516 patch 0;
#X text 45 -262 note numbers to 1-10 here;
#N canvas 244 335 779 418 channel 0;
#N canvas 490 159 658 455 (subpatch) 0;
#X array \$0-ch1mute 4 float 3;
#A 0 12 0 0.700006 0.0200005;
#X coords 0 1 4 0 100 100 1;
#X restore 19 110 graph;
#N canvas 490 159 658 455 (subpatch) 0;
#X array \$0-fx1mute1 4 float 3;
#A 0 1 0 0 0;
#X coords 0 1 4 0 50 50 1;
#X restore 229 113 graph;
#N canvas 490 159 658 455 (subpatch) 0;
#X array \$0-fx2mute1 4 float 3;
#A 0 1 0 0 0;
#X coords 0 1 4 0 50 50 1;
#X restore 327 116 graph;
#N canvas 490 159 658 455 (subpatch) 0;
#X array \$0-fx3mute1 4 float 3;
#A 0 1 0 0 0;
#X coords 0 1 4 0 50 50 1;
#X restore 433 116 graph;
#N canvas 490 159 658 455 (subpatch) 0;
#X array \$0-fx4mute1 4 float 3;
#A 0 1 0 0 0;
#X coords 0 1 4 0 50 50 1;
#X restore 536 115 graph;
#N canvas 0 0 450 300 (subpatch) 0;
#X array \$0-pgmchnge1 20 float 3;
#A 0 0.879999 0.699999 0.579999 0.479999 0.399999 0.339999 0.28 0.22
0.14 0.0399999 -0.04 -0.14 -0.24 -0.34 -0.36 -0.36 -0.4 -0.459999 -0.479999
-0.479999;
#X coords 0 1 20 -1 100 100 1;
#X restore 125 112 graph;
#X obj 72 -163 inlet;
#X obj 130 -23 outlet;
#X obj 130 -62 int;
#X floatatom 130 -42 5 0 0 0 - - -;
#X obj 130 -82 * 100;
#X obj 15 -23 outlet;
#X obj 16 -63 int;
#X floatatom 16 -43 5 0 0 0 - - -;
#X obj 16 -84 * 100;
#X obj 253 -23 outlet;
#X obj 253 -62 int;
#X floatatom 253 -42 5 0 0 0 - - -;
#X obj 253 -82 * 100;
#X obj 375 -23 outlet;
#X obj 375 -62 int;
#X floatatom 375 -42 5 0 0 0 - - -;
#X obj 375 -82 * 100;
#X obj 497 -21 outlet;
#X obj 497 -60 int;
#X floatatom 497 -40 5 0 0 0 - - -;
#X obj 497 -80 * 100;
#X obj 620 -25 outlet;
#X obj 620 -64 int;
#X floatatom 620 -44 5 0 0 0 - - -;
#X obj 620 -84 * 100;
#X obj 17 -106 tabread \$0-ch1mute;
#X obj 130 -106 tabread \$0-pgmchnge1;
#X obj 254 -105 tabread \$0-fx1mute1;
#X obj 375 -104 tabread \$0-fx2mute1;
#X obj 496 -103 tabread \$0-fx3mute1;
#X obj 618 -103 tabread \$0-fx4mute1;
#X connect 6 0 31 0;
#X connect 6 0 32 0;
#X connect 6 0 33 0;
#X connect 6 0 34 0;
#X connect 6 0 35 0;
#X connect 6 0 36 0;
#X connect 8 0 9 0;
#X connect 9 0 7 0;
#X connect 10 0 8 0;
#X connect 12 0 13 0;
#X connect 13 0 11 0;
#X connect 14 0 12 0;
#X connect 16 0 17 0;
#X connect 17 0 15 0;
#X connect 18 0 16 0;
#X connect 20 0 21 0;
#X connect 21 0 19 0;
#X connect 22 0 20 0;
#X connect 24 0 25 0;
#X connect 25 0 23 0;
#X connect 26 0 24 0;
#X connect 28 0 29 0;
#X connect 29 0 27 0;
#X connect 30 0 28 0;
#X connect 31 0 14 0;
#X connect 32 0 10 0;
#X connect 33 0 18 0;
#X connect 34 0 22 0;
#X connect 35 0 26 0;
#X connect 36 0 30 0;
#X restore 42 -156 pd channel 1;
#X floatatom 42 -120 5 0 0 0 - - -;
#X text 75 -118 ChnlMute;
#X floatatom 129 -120 5 0 0 0 - - -;
#X text 162 -118 ChnlMute;
#N canvas 345 228 690 418 channel 0;
#N canvas 490 159 658 455 (subpatch) 0;
#X array \$0-ch2mute 4 float 3;
#A 0 -0.0100094 0.99 0.0199916 0.99;
#X coords 0 1 4 0 100 100 1;
#X restore 17 111 graph;
#N canvas 490 159 658 455 (subpatch) 0;
#X array \$0-fx1mute2 4 float 3;
#A 0 0.25209 0 0 0;
#X coords 0 1 4 0 50 50 1;
#X restore 229 113 graph;
#N canvas 490 159 658 455 (subpatch) 0;
#X array \$0-fx2mute2 4 float 3;
#A 0 -0.427911 0 0 0;
#X coords 0 1 4 0 50 50 1;
#X restore 326 113 graph;
#N canvas 490 159 658 455 (subpatch) 0;
#X array \$0-fx3mute2 4 float 3;
#A 0 -0.427911 0 0 0;
#X coords 0 1 4 0 50 50 1;
#X restore 433 116 graph;
#N canvas 490 159 658 455 (subpatch) 0;
#X array \$0-fx4mute2 4 float 3;
#A 0 -0.427911 0 0 0;
#X coords 0 1 4 0 50 50 1;
#X restore 536 115 graph;
#N canvas 0 0 450 300 (subpatch) 0;
#X array \$0-pgmchnge2 20 float 3;
#A 0 0 0.459998 0.579998 0.679998 0.699997 0.739997 0.739997 0.739997
0.639998 0.539998 0.369999 0.279999 0.139999 -0.0200001 -0.12 -0.199999
-0.319999 -0.419999 -0.519998 -0.599998;
#X coords 0 1 20 -1 100 100 1;
#X restore 123 110 graph;
#X obj 72 -163 inlet;
#X obj 122 -22 outlet;
#X obj 122 -61 int;
#X floatatom 122 -41 5 0 0 0 - - -;
#X obj 122 -81 * 100;
#X obj 24 -23 outlet;
#X obj 25 -63 int;
#X floatatom 25 -43 5 0 0 0 - - -;
#X obj 25 -84 * 100;
#X obj 229 -23 outlet;
#X obj 229 -62 int;
#X floatatom 229 -42 5 0 0 0 - - -;
#X obj 229 -82 * 100;
#X obj 331 -25 outlet;
#X obj 331 -64 int;
#X floatatom 331 -44 5 0 0 0 - - -;
#X obj 331 -84 * 100;
#X obj 434 -24 outlet;
#X obj 434 -63 int;
#X floatatom 434 -43 5 0 0 0 - - -;
#X obj 434 -83 * 100;
#X obj 535 -21 outlet;
#X obj 535 -60 int;
#X floatatom 535 -40 5 0 0 0 - - -;
#X obj 535 -80 * 100;
#X obj 25 -105 tabread \$0-ch2mute;
#X obj 122 -103 tabread \$0-pgmchnge2;
#X obj 230 -103 tabread \$0-fx1mute2;
#X obj 331 -104 tabread \$0-fx2mute2;
#X obj 433 -104 tabread \$0-fx3mute2;
#X obj 535 -104 tabread \$0-fx4mute2;
#X connect 6 0 31 0;
#X connect 6 0 32 0;
#X connect 6 0 33 0;
#X connect 6 0 34 0;
#X connect 6 0 35 0;
#X connect 6 0 36 0;
#X connect 8 0 9 0;
#X connect 9 0 7 0;
#X connect 10 0 8 0;
#X connect 12 0 13 0;
#X connect 13 0 11 0;
#X connect 14 0 12 0;
#X connect 16 0 17 0;
#X connect 17 0 15 0;
#X connect 18 0 16 0;
#X connect 20 0 21 0;
#X connect 21 0 19 0;
#X connect 22 0 20 0;
#X connect 24 0 25 0;
#X connect 25 0 23 0;
#X connect 26 0 24 0;
#X connect 28 0 29 0;
#X connect 29 0 27 0;
#X connect 30 0 28 0;
#X connect 31 0 14 0;
#X connect 32 0 10 0;
#X connect 33 0 18 0;
#X connect 34 0 22 0;
#X connect 35 0 26 0;
#X connect 36 0 30 0;
#X restore 129 -156 pd channel 2;
#X floatatom 329 -119 5 0 0 0 - - -;
#X text 362 -117 ChnlMute;
#X text 457 -114 ChnlMute;
#N canvas 144 98 690 418 channel 0;
#N canvas 490 159 658 455 (subpatch) 0;
#X array \$0-ch3mute 4 float 3;
#A 0 -0.959993 0 0 0;
#X coords 0 1 4 0 100 100 1;
#X restore 19 110 graph;
#N canvas 490 159 658 455 (subpatch) 0;
#X array \$0-fx1mute3 4 float 3;
#A 0 0.25209 0 0 0;
#X coords 0 1 4 0 50 50 1;
#X restore 229 113 graph;
#N canvas 490 159 658 455 (subpatch) 0;
#X array \$0-fx2mute3 4 float 3;
#A 0 1 0 0 0;
#X coords 0 1 4 0 50 50 1;
#X restore 327 116 graph;
#N canvas 490 159 658 455 (subpatch) 0;
#X array \$0-fx3mute3 4 float 3;
#A 0 0 0 0 0;
#X coords 0 1 4 0 50 50 1;
#X restore 433 116 graph;
#N canvas 490 159 658 455 (subpatch) 0;
#X array \$0-fx4mute3 4 float 3;
#A 0 1 0 0 0;
#X coords 0 1 4 0 50 50 1;
#X restore 536 115 graph;
#N canvas 0 0 450 300 (subpatch) 0;
#X array \$0-pgmchnge3 20 float 3;
#A 0 0 0.32 0.36 0.639999 0.739999 0.719999 0.679999 0.619999 0.56
0.340001 0.260001 1.65403e-006 -0.299997 -0.539997 -0.599996 -0.639996
-0.639996 -0.639996 -0.639996 -0.679996;
#X coords 0 1 20 -1 100 100 1;
#X restore 123 110 graph;
#X obj 72 -163 inlet;
#X obj 122 -21 outlet;
#X obj 122 -60 int;
#X floatatom 122 -40 5 0 0 0 - - -;
#X obj 122 -80 * 100;
#X obj 24 -22 outlet;
#X obj 25 -62 int;
#X floatatom 25 -42 5 0 0 0 - - -;
#X obj 25 -83 * 100;
#X obj 229 -22 outlet;
#X obj 229 -61 int;
#X floatatom 229 -41 5 0 0 0 - - -;
#X obj 229 -81 * 100;
#X obj 331 -24 outlet;
#X obj 331 -63 int;
#X floatatom 331 -43 5 0 0 0 - - -;
#X obj 331 -83 * 100;
#X obj 434 -23 outlet;
#X obj 434 -62 int;
#X floatatom 434 -42 5 0 0 0 - - -;
#X obj 434 -82 * 100;
#X obj 535 -20 outlet;
#X obj 535 -59 int;
#X floatatom 535 -39 5 0 0 0 - - -;
#X obj 535 -79 * 100;
#X obj 25 -105 tabread \$0-ch3mute;
#X obj 122 -103 tabread \$0-pgmchnge3;
#X obj 230 -103 tabread \$0-fx1mute3;
#X obj 331 -104 tabread \$0-fx2mute3;
#X obj 433 -104 tabread \$0-fx3mute3;
#X obj 535 -104 tabread \$0-fx4mute3;
#X connect 6 0 31 0;
#X connect 6 0 32 0;
#X connect 6 0 33 0;
#X connect 6 0 34 0;
#X connect 6 0 35 0;
#X connect 6 0 36 0;
#X connect 8 0 9 0;
#X connect 9 0 7 0;
#X connect 10 0 8 0;
#X connect 12 0 13 0;
#X connect 13 0 11 0;
#X connect 14 0 12 0;
#X connect 16 0 17 0;
#X connect 17 0 15 0;
#X connect 18 0 16 0;
#X connect 20 0 21 0;
#X connect 21 0 19 0;
#X connect 22 0 20 0;
#X connect 24 0 25 0;
#X connect 25 0 23 0;
#X connect 26 0 24 0;
#X connect 28 0 29 0;
#X connect 29 0 27 0;
#X connect 30 0 28 0;
#X connect 31 0 14 0;
#X connect 32 0 10 0;
#X connect 33 0 18 0;
#X connect 34 0 22 0;
#X connect 35 0 26 0;
#X connect 36 0 30 0;
#X restore 329 -155 pd channel 3;
#X obj 252 -252 spigot;
#X obj 294 -235 tgl 15 0 empty empty empty 17 7 0 10 -262144 -1 -1
0 1;
#X obj 251 -276 inlet;
#X obj 294 -276 r pgm2chnl;
#X obj 42 -100 ctlout 50;
#X obj 129 -100 ctlout 51;
#X obj 329 -99 ctlout 52;
#X floatatom 252 -230 5 0 0 0 - - -;
#X obj 294 -255 == 3;
#X msg 262 -106 3;
#X connect 1 0 2 0;
#X connect 2 0 15 0;
#X connect 4 0 16 0;
#X connect 6 0 4 0;
#X connect 7 0 17 0;
#X connect 10 0 7 0;
#X connect 11 0 18 0;
#X connect 13 0 11 0;
#X connect 14 0 19 0;
#X connect 18 0 1 0;
#X connect 18 0 6 0;
#X connect 18 0 10 0;
#X connect 19 0 11 1;
#X connect 19 0 12 0;
#X connect 19 0 20 0;
#X connect 20 0 15 2;
#X connect 20 0 16 2;
#X connect 20 0 17 2;
#X restore 84 154 pd patch changer 3;
#N canvas 401 186 534 516 patch 0;
#X text 45 -262 note numbers to 1-10 here;
#N canvas 111 303 779 418 channel 0;
#N canvas 490 159 658 455 (subpatch) 0;
#X array \$0-ch1mute 4 float 3;
#A 0 12 0 0.700006 0.0200005;
#X coords 0 1 4 0 100 100 1;
#X restore 19 110 graph;
#N canvas 490 159 658 455 (subpatch) 0;
#X array \$0-fx1mute1 4 float 3;
#A 0 1 0 0 0;
#X coords 0 1 4 0 50 50 1;
#X restore 229 113 graph;
#N canvas 490 159 658 455 (subpatch) 0;
#X array \$0-fx2mute1 4 float 3;
#A 0 1 0 0 0;
#X coords 0 1 4 0 50 50 1;
#X restore 327 116 graph;
#N canvas 490 159 658 455 (subpatch) 0;
#X array \$0-fx3mute1 4 float 3;
#A 0 1 0 0 0;
#X coords 0 1 4 0 50 50 1;
#X restore 433 116 graph;
#N canvas 490 159 658 455 (subpatch) 0;
#X array \$0-fx4mute1 4 float 3;
#A 0 1 0 0 0;
#X coords 0 1 4 0 50 50 1;
#X restore 536 115 graph;
#N canvas 0 0 450 300 (subpatch) 0;
#X array \$0-pgmchnge1 20 float 3;
#A 0 0.879999 0.699999 0.579999 0.479999 0.399999 0.339999 0.28 0.22
0.14 0.0399999 -0.04 -0.14 -0.24 -0.34 -0.36 -0.36 -0.4 -0.459999 -0.479999
-0.479999;
#X coords 0 1 20 -1 100 100 1;
#X restore 125 112 graph;
#X obj 72 -163 inlet;
#X obj 130 -23 outlet;
#X obj 130 -62 int;
#X floatatom 130 -42 5 0 0 0 - - -;
#X obj 130 -82 * 100;
#X obj 15 -23 outlet;
#X obj 16 -63 int;
#X floatatom 16 -43 5 0 0 0 - - -;
#X obj 16 -84 * 100;
#X obj 253 -23 outlet;
#X obj 253 -62 int;
#X floatatom 253 -42 5 0 0 0 - - -;
#X obj 253 -82 * 100;
#X obj 375 -23 outlet;
#X obj 375 -62 int;
#X floatatom 375 -42 5 0 0 0 - - -;
#X obj 375 -82 * 100;
#X obj 497 -21 outlet;
#X obj 497 -60 int;
#X floatatom 497 -40 5 0 0 0 - - -;
#X obj 497 -80 * 100;
#X obj 620 -25 outlet;
#X obj 620 -64 int;
#X floatatom 620 -44 5 0 0 0 - - -;
#X obj 620 -84 * 100;
#X obj 17 -106 tabread \$0-ch1mute;
#X obj 130 -106 tabread \$0-pgmchnge1;
#X obj 254 -105 tabread \$0-fx1mute1;
#X obj 375 -104 tabread \$0-fx2mute1;
#X obj 496 -103 tabread \$0-fx3mute1;
#X obj 618 -103 tabread \$0-fx4mute1;
#X connect 6 0 31 0;
#X connect 6 0 32 0;
#X connect 6 0 33 0;
#X connect 6 0 34 0;
#X connect 6 0 35 0;
#X connect 6 0 36 0;
#X connect 8 0 9 0;
#X connect 9 0 7 0;
#X connect 10 0 8 0;
#X connect 12 0 13 0;
#X connect 13 0 11 0;
#X connect 14 0 12 0;
#X connect 16 0 17 0;
#X connect 17 0 15 0;
#X connect 18 0 16 0;
#X connect 20 0 21 0;
#X connect 21 0 19 0;
#X connect 22 0 20 0;
#X connect 24 0 25 0;
#X connect 25 0 23 0;
#X connect 26 0 24 0;
#X connect 28 0 29 0;
#X connect 29 0 27 0;
#X connect 30 0 28 0;
#X connect 31 0 14 0;
#X connect 32 0 10 0;
#X connect 33 0 18 0;
#X connect 34 0 22 0;
#X connect 35 0 26 0;
#X connect 36 0 30 0;
#X restore 42 -156 pd channel 1;
#X floatatom 42 -120 5 0 0 0 - - -;
#X text 75 -118 ChnlMute;
#X floatatom 129 -120 5 0 0 0 - - -;
#X text 162 -118 ChnlMute;
#N canvas 264 326 690 418 channel 0;
#N canvas 490 159 658 455 (subpatch) 0;
#X array \$0-ch2mute 4 float 3;
#A 0 -0.0100094 0.99 0.0199916 0.99;
#X coords 0 1 4 0 100 100 1;
#X restore 17 111 graph;
#N canvas 490 159 658 455 (subpatch) 0;
#X array \$0-fx1mute2 4 float 3;
#A 0 0.25209 0 0 0;
#X coords 0 1 4 0 50 50 1;
#X restore 229 113 graph;
#N canvas 490 159 658 455 (subpatch) 0;
#X array \$0-fx2mute2 4 float 3;
#A 0 -0.427911 0 0 0;
#X coords 0 1 4 0 50 50 1;
#X restore 326 113 graph;
#N canvas 490 159 658 455 (subpatch) 0;
#X array \$0-fx3mute2 4 float 3;
#A 0 -0.427911 0 0 0;
#X coords 0 1 4 0 50 50 1;
#X restore 433 116 graph;
#N canvas 490 159 658 455 (subpatch) 0;
#X array \$0-fx4mute2 4 float 3;
#A 0 -0.427911 0 0 0;
#X coords 0 1 4 0 50 50 1;
#X restore 536 115 graph;
#N canvas 0 0 450 300 (subpatch) 0;
#X array \$0-pgmchnge2 20 float 3;
#A 0 0 0.459998 0.579998 0.679998 0.699997 0.739997 0.739997 0.739997
0.639998 0.539998 0.369999 0.279999 0.139999 -0.0200001 -0.12 -0.199999
-0.319999 -0.419999 -0.519998 -0.599998;
#X coords 0 1 20 -1 100 100 1;
#X restore 123 110 graph;
#X obj 72 -163 inlet;
#X obj 122 -22 outlet;
#X obj 122 -61 int;
#X floatatom 122 -41 5 0 0 0 - - -;
#X obj 122 -81 * 100;
#X obj 24 -23 outlet;
#X obj 25 -63 int;
#X floatatom 25 -43 5 0 0 0 - - -;
#X obj 25 -84 * 100;
#X obj 229 -23 outlet;
#X obj 229 -62 int;
#X floatatom 229 -42 5 0 0 0 - - -;
#X obj 229 -82 * 100;
#X obj 331 -25 outlet;
#X obj 331 -64 int;
#X floatatom 331 -44 5 0 0 0 - - -;
#X obj 331 -84 * 100;
#X obj 434 -24 outlet;
#X obj 434 -63 int;
#X floatatom 434 -43 5 0 0 0 - - -;
#X obj 434 -83 * 100;
#X obj 535 -21 outlet;
#X obj 535 -60 int;
#X floatatom 535 -40 5 0 0 0 - - -;
#X obj 535 -80 * 100;
#X obj 25 -105 tabread \$0-ch2mute;
#X obj 122 -103 tabread \$0-pgmchnge2;
#X obj 230 -103 tabread \$0-fx1mute2;
#X obj 331 -104 tabread \$0-fx2mute2;
#X obj 433 -104 tabread \$0-fx3mute2;
#X obj 535 -104 tabread \$0-fx4mute2;
#X connect 6 0 31 0;
#X connect 6 0 32 0;
#X connect 6 0 33 0;
#X connect 6 0 34 0;
#X connect 6 0 35 0;
#X connect 6 0 36 0;
#X connect 8 0 9 0;
#X connect 9 0 7 0;
#X connect 10 0 8 0;
#X connect 12 0 13 0;
#X connect 13 0 11 0;
#X connect 14 0 12 0;
#X connect 16 0 17 0;
#X connect 17 0 15 0;
#X connect 18 0 16 0;
#X connect 20 0 21 0;
#X connect 21 0 19 0;
#X connect 22 0 20 0;
#X connect 24 0 25 0;
#X connect 25 0 23 0;
#X connect 26 0 24 0;
#X connect 28 0 29 0;
#X connect 29 0 27 0;
#X connect 30 0 28 0;
#X connect 31 0 14 0;
#X connect 32 0 10 0;
#X connect 33 0 18 0;
#X connect 34 0 22 0;
#X connect 35 0 26 0;
#X connect 36 0 30 0;
#X restore 129 -156 pd channel 2;
#X floatatom 329 -119 5 0 0 0 - - -;
#X text 362 -117 ChnlMute;
#N canvas 793 345 1280 762 channel 0;
#N canvas 490 159 658 455 (subpatch) 0;
#X array \$0-ch3mute 4 float 3;
#A 0 -0.959993 0 0 0;
#X coords 0 1 4 0 100 100 1;
#X restore 19 110 graph;
#N canvas 490 159 658 455 (subpatch) 0;
#X array \$0-fx1mute3 4 float 3;
#A 0 0.25209 0 0 0;
#X coords 0 1 4 0 50 50 1;
#X restore 229 113 graph;
#N canvas 490 159 658 455 (subpatch) 0;
#X array \$0-fx2mute3 4 float 3;
#A 0 1 0 0 0;
#X coords 0 1 4 0 50 50 1;
#X restore 327 116 graph;
#N canvas 490 159 658 455 (subpatch) 0;
#X array \$0-fx3mute3 4 float 3;
#A 0 0 0 0 0;
#X coords 0 1 4 0 50 50 1;
#X restore 433 116 graph;
#N canvas 490 159 658 455 (subpatch) 0;
#X array \$0-fx4mute3 4 float 3;
#A 0 1 0 0 0;
#X coords 0 1 4 0 50 50 1;
#X restore 536 115 graph;
#N canvas 0 0 450 300 (subpatch) 0;
#X array \$0-pgmchnge3 20 float 3;
#A 0 0 0.32 0.36 0.639999 0.739999 0.719999 0.679999 0.619999 0.56
0.340001 0.260001 1.65403e-006 -0.299997 -0.539997 -0.599996 -0.639996
-0.639996 -0.639996 -0.639996 -0.679996;
#X coords 0 1 20 -1 100 100 1;
#X restore 123 110 graph;
#X obj 72 -163 inlet;
#X obj 122 -21 outlet;
#X obj 122 -60 int;
#X floatatom 122 -40 5 0 0 0 - - -;
#X obj 122 -80 * 100;
#X obj 24 -22 outlet;
#X obj 25 -62 int;
#X floatatom 25 -42 5 0 0 0 - - -;
#X obj 25 -83 * 100;
#X obj 229 -22 outlet;
#X obj 229 -61 int;
#X floatatom 229 -41 5 0 0 0 - - -;
#X obj 229 -81 * 100;
#X obj 331 -24 outlet;
#X obj 331 -63 int;
#X floatatom 331 -43 5 0 0 0 - - -;
#X obj 331 -83 * 100;
#X obj 434 -23 outlet;
#X obj 434 -62 int;
#X floatatom 434 -42 5 0 0 0 - - -;
#X obj 434 -82 * 100;
#X obj 535 -20 outlet;
#X obj 535 -59 int;
#X floatatom 535 -39 5 0 0 0 - - -;
#X obj 535 -79 * 100;
#X obj 25 -105 tabread \$0-ch3mute;
#X obj 122 -103 tabread \$0-pgmchnge3;
#X obj 230 -103 tabread \$0-fx1mute3;
#X obj 331 -104 tabread \$0-fx2mute3;
#X obj 433 -104 tabread \$0-fx3mute3;
#X obj 535 -104 tabread \$0-fx4mute3;
#X connect 6 0 31 0;
#X connect 6 0 32 0;
#X connect 6 0 33 0;
#X connect 6 0 34 0;
#X connect 6 0 35 0;
#X connect 6 0 36 0;
#X connect 8 0 9 0;
#X connect 9 0 7 0;
#X connect 10 0 8 0;
#X connect 12 0 13 0;
#X connect 13 0 11 0;
#X connect 14 0 12 0;
#X connect 16 0 17 0;
#X connect 17 0 15 0;
#X connect 18 0 16 0;
#X connect 20 0 21 0;
#X connect 21 0 19 0;
#X connect 22 0 20 0;
#X connect 24 0 25 0;
#X connect 25 0 23 0;
#X connect 26 0 24 0;
#X connect 28 0 29 0;
#X connect 29 0 27 0;
#X connect 30 0 28 0;
#X connect 31 0 14 0;
#X connect 32 0 10 0;
#X connect 33 0 18 0;
#X connect 34 0 22 0;
#X connect 35 0 26 0;
#X connect 36 0 30 0;
#X restore 329 -155 pd channel 3;
#X obj 252 -252 spigot;
#X obj 294 -235 tgl 15 0 empty empty empty 17 7 0 10 -262144 -1 -1
0 1;
#X obj 251 -276 inlet;
#X obj 294 -276 r pgm2chnl;
#X obj 42 -100 ctlout 50;
#X obj 129 -100 ctlout 51;
#X obj 329 -99 ctlout 52;
#X floatatom 252 -230 5 0 0 0 - - -;
#X obj 294 -255 == 4;
#X msg 258 -130 4;
#X connect 1 0 2 0;
#X connect 2 0 14 0;
#X connect 4 0 15 0;
#X connect 6 0 4 0;
#X connect 7 0 16 0;
#X connect 9 0 7 0;
#X connect 10 0 17 0;
#X connect 12 0 10 0;
#X connect 13 0 18 0;
#X connect 17 0 1 0;
#X connect 17 0 6 0;
#X connect 17 0 9 0;
#X connect 18 0 10 1;
#X connect 18 0 11 0;
#X connect 18 0 19 0;
#X connect 19 0 14 2;
#X connect 19 0 15 2;
#X connect 19 0 16 2;
#X restore 84 176 pd patch changer 4;
#N canvas 197 114 534 516 patch 0;
#X text 45 -262 note numbers to 1-10 here;
#N canvas 244 335 779 418 channel 0;
#N canvas 490 159 658 455 (subpatch) 0;
#X array \$0-ch1mute 4 float 3;
#A 0 12 0 0.700006 0.0200005;
#X coords 0 1 4 0 100 100 1;
#X restore 19 110 graph;
#N canvas 490 159 658 455 (subpatch) 0;
#X array \$0-fx1mute1 4 float 3;
#A 0 1 0 0 0;
#X coords 0 1 4 0 50 50 1;
#X restore 229 113 graph;
#N canvas 490 159 658 455 (subpatch) 0;
#X array \$0-fx2mute1 4 float 3;
#A 0 1 0 0 0;
#X coords 0 1 4 0 50 50 1;
#X restore 327 116 graph;
#N canvas 490 159 658 455 (subpatch) 0;
#X array \$0-fx3mute1 4 float 3;
#A 0 1 0 0 0;
#X coords 0 1 4 0 50 50 1;
#X restore 433 116 graph;
#N canvas 490 159 658 455 (subpatch) 0;
#X array \$0-fx4mute1 4 float 3;
#A 0 1 0 0 0;
#X coords 0 1 4 0 50 50 1;
#X restore 536 115 graph;
#N canvas 0 0 450 300 (subpatch) 0;
#X array \$0-pgmchnge1 20 float 3;
#A 0 0.879999 0.699999 0.579999 0.479999 0.399999 0.339999 0.28 0.22
0.14 0.0399999 -0.04 -0.14 -0.24 -0.34 -0.36 -0.36 -0.4 -0.459999 -0.479999
-0.479999;
#X coords 0 1 20 -1 100 100 1;
#X restore 125 112 graph;
#X obj 72 -163 inlet;
#X obj 130 -23 outlet;
#X obj 130 -62 int;
#X floatatom 130 -42 5 0 0 0 - - -;
#X obj 130 -82 * 100;
#X obj 15 -23 outlet;
#X obj 16 -63 int;
#X floatatom 16 -43 5 0 0 0 - - -;
#X obj 16 -84 * 100;
#X obj 253 -23 outlet;
#X obj 253 -62 int;
#X floatatom 253 -42 5 0 0 0 - - -;
#X obj 253 -82 * 100;
#X obj 375 -23 outlet;
#X obj 375 -62 int;
#X floatatom 375 -42 5 0 0 0 - - -;
#X obj 375 -82 * 100;
#X obj 497 -21 outlet;
#X obj 497 -60 int;
#X floatatom 497 -40 5 0 0 0 - - -;
#X obj 497 -80 * 100;
#X obj 620 -25 outlet;
#X obj 620 -64 int;
#X floatatom 620 -44 5 0 0 0 - - -;
#X obj 620 -84 * 100;
#X obj 17 -106 tabread \$0-ch1mute;
#X obj 130 -106 tabread \$0-pgmchnge1;
#X obj 254 -105 tabread \$0-fx1mute1;
#X obj 375 -104 tabread \$0-fx2mute1;
#X obj 496 -103 tabread \$0-fx3mute1;
#X obj 618 -103 tabread \$0-fx4mute1;
#X connect 6 0 31 0;
#X connect 6 0 32 0;
#X connect 6 0 33 0;
#X connect 6 0 34 0;
#X connect 6 0 35 0;
#X connect 6 0 36 0;
#X connect 8 0 9 0;
#X connect 9 0 7 0;
#X connect 10 0 8 0;
#X connect 12 0 13 0;
#X connect 13 0 11 0;
#X connect 14 0 12 0;
#X connect 16 0 17 0;
#X connect 17 0 15 0;
#X connect 18 0 16 0;
#X connect 20 0 21 0;
#X connect 21 0 19 0;
#X connect 22 0 20 0;
#X connect 24 0 25 0;
#X connect 25 0 23 0;
#X connect 26 0 24 0;
#X connect 28 0 29 0;
#X connect 29 0 27 0;
#X connect 30 0 28 0;
#X connect 31 0 14 0;
#X connect 32 0 10 0;
#X connect 33 0 18 0;
#X connect 34 0 22 0;
#X connect 35 0 26 0;
#X connect 36 0 30 0;
#X restore 42 -156 pd channel 1;
#X floatatom 42 -120 5 0 0 0 - - -;
#X text 75 -118 ChnlMute;
#X floatatom 129 -120 5 0 0 0 - - -;
#X text 162 -118 ChnlMute;
#N canvas 345 228 690 418 channel 0;
#N canvas 490 159 658 455 (subpatch) 0;
#X array \$0-ch2mute 4 float 3;
#A 0 -0.0100094 0.99 0.0199916 0.99;
#X coords 0 1 4 0 100 100 1;
#X restore 17 111 graph;
#N canvas 490 159 658 455 (subpatch) 0;
#X array \$0-fx1mute2 4 float 3;
#A 0 0.25209 0 0 0;
#X coords 0 1 4 0 50 50 1;
#X restore 229 113 graph;
#N canvas 490 159 658 455 (subpatch) 0;
#X array \$0-fx2mute2 4 float 3;
#A 0 -0.427911 0 0 0;
#X coords 0 1 4 0 50 50 1;
#X restore 326 113 graph;
#N canvas 490 159 658 455 (subpatch) 0;
#X array \$0-fx3mute2 4 float 3;
#A 0 -0.427911 0 0 0;
#X coords 0 1 4 0 50 50 1;
#X restore 433 116 graph;
#N canvas 490 159 658 455 (subpatch) 0;
#X array \$0-fx4mute2 4 float 3;
#A 0 -0.427911 0 0 0;
#X coords 0 1 4 0 50 50 1;
#X restore 536 115 graph;
#N canvas 0 0 450 300 (subpatch) 0;
#X array \$0-pgmchnge2 20 float 3;
#A 0 0 0.459998 0.579998 0.679998 0.699997 0.739997 0.739997 0.739997
0.639998 0.539998 0.369999 0.279999 0.139999 -0.0200001 -0.12 -0.199999
-0.319999 -0.419999 -0.519998 -0.599998;
#X coords 0 1 20 -1 100 100 1;
#X restore 123 110 graph;
#X obj 72 -163 inlet;
#X obj 122 -22 outlet;
#X obj 122 -61 int;
#X floatatom 122 -41 5 0 0 0 - - -;
#X obj 122 -81 * 100;
#X obj 24 -23 outlet;
#X obj 25 -63 int;
#X floatatom 25 -43 5 0 0 0 - - -;
#X obj 25 -84 * 100;
#X obj 229 -23 outlet;
#X obj 229 -62 int;
#X floatatom 229 -42 5 0 0 0 - - -;
#X obj 229 -82 * 100;
#X obj 331 -25 outlet;
#X obj 331 -64 int;
#X floatatom 331 -44 5 0 0 0 - - -;
#X obj 331 -84 * 100;
#X obj 434 -24 outlet;
#X obj 434 -63 int;
#X floatatom 434 -43 5 0 0 0 - - -;
#X obj 434 -83 * 100;
#X obj 535 -21 outlet;
#X obj 535 -60 int;
#X floatatom 535 -40 5 0 0 0 - - -;
#X obj 535 -80 * 100;
#X obj 25 -105 tabread \$0-ch2mute;
#X obj 122 -103 tabread \$0-pgmchnge2;
#X obj 230 -103 tabread \$0-fx1mute2;
#X obj 331 -104 tabread \$0-fx2mute2;
#X obj 433 -104 tabread \$0-fx3mute2;
#X obj 535 -104 tabread \$0-fx4mute2;
#X connect 6 0 31 0;
#X connect 6 0 32 0;
#X connect 6 0 33 0;
#X connect 6 0 34 0;
#X connect 6 0 35 0;
#X connect 6 0 36 0;
#X connect 8 0 9 0;
#X connect 9 0 7 0;
#X connect 10 0 8 0;
#X connect 12 0 13 0;
#X connect 13 0 11 0;
#X connect 14 0 12 0;
#X connect 16 0 17 0;
#X connect 17 0 15 0;
#X connect 18 0 16 0;
#X connect 20 0 21 0;
#X connect 21 0 19 0;
#X connect 22 0 20 0;
#X connect 24 0 25 0;
#X connect 25 0 23 0;
#X connect 26 0 24 0;
#X connect 28 0 29 0;
#X connect 29 0 27 0;
#X connect 30 0 28 0;
#X connect 31 0 14 0;
#X connect 32 0 10 0;
#X connect 33 0 18 0;
#X connect 34 0 22 0;
#X connect 35 0 26 0;
#X connect 36 0 30 0;
#X restore 129 -156 pd channel 2;
#X floatatom 329 -119 5 0 0 0 - - -;
#X text 362 -117 ChnlMute;
#X text 457 -114 ChnlMute;
#N canvas 144 98 690 418 channel 0;
#N canvas 490 159 658 455 (subpatch) 0;
#X array \$0-ch3mute 4 float 3;
#A 0 -0.959993 0 0 0;
#X coords 0 1 4 0 100 100 1;
#X restore 19 110 graph;
#N canvas 490 159 658 455 (subpatch) 0;
#X array \$0-fx1mute3 4 float 3;
#A 0 0.25209 0 0 0;
#X coords 0 1 4 0 50 50 1;
#X restore 229 113 graph;
#N canvas 490 159 658 455 (subpatch) 0;
#X array \$0-fx2mute3 4 float 3;
#A 0 1 0 0 0;
#X coords 0 1 4 0 50 50 1;
#X restore 327 116 graph;
#N canvas 490 159 658 455 (subpatch) 0;
#X array \$0-fx3mute3 4 float 3;
#A 0 0 0 0 0;
#X coords 0 1 4 0 50 50 1;
#X restore 433 116 graph;
#N canvas 490 159 658 455 (subpatch) 0;
#X array \$0-fx4mute3 4 float 3;
#A 0 1 0 0 0;
#X coords 0 1 4 0 50 50 1;
#X restore 536 115 graph;
#N canvas 0 0 450 300 (subpatch) 0;
#X array \$0-pgmchnge3 20 float 3;
#A 0 0 0.32 0.36 0.639999 0.739999 0.719999 0.679999 0.619999 0.56
0.340001 0.260001 1.65403e-006 -0.299997 -0.539997 -0.599996 -0.639996
-0.639996 -0.639996 -0.639996 -0.679996;
#X coords 0 1 20 -1 100 100 1;
#X restore 123 110 graph;
#X obj 72 -163 inlet;
#X obj 122 -21 outlet;
#X obj 122 -60 int;
#X floatatom 122 -40 5 0 0 0 - - -;
#X obj 122 -80 * 100;
#X obj 24 -22 outlet;
#X obj 25 -62 int;
#X floatatom 25 -42 5 0 0 0 - - -;
#X obj 25 -83 * 100;
#X obj 229 -22 outlet;
#X obj 229 -61 int;
#X floatatom 229 -41 5 0 0 0 - - -;
#X obj 229 -81 * 100;
#X obj 331 -24 outlet;
#X obj 331 -63 int;
#X floatatom 331 -43 5 0 0 0 - - -;
#X obj 331 -83 * 100;
#X obj 434 -23 outlet;
#X obj 434 -62 int;
#X floatatom 434 -42 5 0 0 0 - - -;
#X obj 434 -82 * 100;
#X obj 535 -20 outlet;
#X obj 535 -59 int;
#X floatatom 535 -39 5 0 0 0 - - -;
#X obj 535 -79 * 100;
#X obj 25 -105 tabread \$0-ch3mute;
#X obj 122 -103 tabread \$0-pgmchnge3;
#X obj 230 -103 tabread \$0-fx1mute3;
#X obj 331 -104 tabread \$0-fx2mute3;
#X obj 433 -104 tabread \$0-fx3mute3;
#X obj 535 -104 tabread \$0-fx4mute3;
#X connect 6 0 31 0;
#X connect 6 0 32 0;
#X connect 6 0 33 0;
#X connect 6 0 34 0;
#X connect 6 0 35 0;
#X connect 6 0 36 0;
#X connect 8 0 9 0;
#X connect 9 0 7 0;
#X connect 10 0 8 0;
#X connect 12 0 13 0;
#X connect 13 0 11 0;
#X connect 14 0 12 0;
#X connect 16 0 17 0;
#X connect 17 0 15 0;
#X connect 18 0 16 0;
#X connect 20 0 21 0;
#X connect 21 0 19 0;
#X connect 22 0 20 0;
#X connect 24 0 25 0;
#X connect 25 0 23 0;
#X connect 26 0 24 0;
#X connect 28 0 29 0;
#X connect 29 0 27 0;
#X connect 30 0 28 0;
#X connect 31 0 14 0;
#X connect 32 0 10 0;
#X connect 33 0 18 0;
#X connect 34 0 22 0;
#X connect 35 0 26 0;
#X connect 36 0 30 0;
#X restore 329 -155 pd channel 3;
#X obj 252 -252 spigot;
#X obj 294 -235 tgl 15 0 empty empty empty 17 7 0 10 -262144 -1 -1
1 1;
#X obj 251 -276 inlet;
#X obj 294 -276 r pgm2chnl;
#X obj 42 -100 ctlout 50;
#X obj 129 -100 ctlout 51;
#X obj 329 -99 ctlout 52;
#X floatatom 252 -230 5 0 0 0 - - -;
#X obj 294 -255 == 5;
#X msg 263 -132 5;
#X connect 1 0 2 0;
#X connect 2 0 15 0;
#X connect 4 0 16 0;
#X connect 6 0 4 0;
#X connect 7 0 17 0;
#X connect 10 0 7 0;
#X connect 11 0 18 0;
#X connect 13 0 11 0;
#X connect 14 0 19 0;
#X connect 18 0 1 0;
#X connect 18 0 6 0;
#X connect 18 0 10 0;
#X connect 19 0 11 1;
#X connect 19 0 12 0;
#X connect 19 0 20 0;
#X connect 20 0 15 2;
#X connect 20 0 16 2;
#X connect 20 0 17 2;
#X restore 213 110 pd patch changer 5;
#N canvas 197 114 534 516 patch 0;
#X text 45 -262 note numbers to 1-10 here;
#X floatatom 42 -120 5 0 0 0 - - -;
#X text 75 -118 ChnlMute;
#X floatatom 129 -120 5 0 0 0 - - -;
#X text 162 -118 ChnlMute;
#X floatatom 329 -119 5 0 0 0 - - -;
#X text 362 -117 ChnlMute;
#X text 457 -114 ChnlMute;
#X obj 252 -252 spigot;
#X obj 294 -235 tgl 15 0 empty empty empty 17 7 0 10 -262144 -1 -1
0 1;
#X obj 251 -276 inlet;
#X obj 294 -276 r pgm2chnl;
#X obj 42 -100 ctlout 50;
#X obj 129 -100 ctlout 51;
#X obj 329 -99 ctlout 52;
#X floatatom 252 -230 5 0 0 0 - - -;
#X obj 294 -255 == 6;
#X msg 268 -158 6;
#N canvas 177 195 779 418 channel 0;
#N canvas 490 159 658 455 (subpatch) 0;
#X array \$0-ch1mute 4 float 3;
#A 0 12 0.090001 0.990009 0.0200005;
#X coords 0 1 4 0 100 100 1;
#X restore 19 110 graph;
#N canvas 0 0 450 300 (subpatch) 0;
#X array \$0-pgmchnge1 20 float 3;
#A 0 0.879999 0.699999 0.579999 0.479999 0.399999 0.339999 0.28 0.22
0.14 0.0399999 -0.04 -0.14 -0.24 -0.34 -0.36 -0.36 -0.4 -0.459999 -0.479999
-0.479999;
#X coords 0 1 20 -1 100 100 1;
#X restore 125 112 graph;
#X obj 72 -163 inlet;
#X obj 130 -23 outlet;
#X obj 130 -62 int;
#X floatatom 130 -42 5 0 0 0 - - -;
#X obj 130 -82 * 100;
#X obj 15 -23 outlet;
#X obj 16 -63 int;
#X floatatom 16 -43 5 0 0 0 - - -;
#X obj 16 -84 * 100;
#X obj 17 -106 tabread \$0-ch1mute;
#X obj 130 -106 tabread \$0-pgmchnge1;
#X connect 2 0 11 0;
#X connect 2 0 12 0;
#X connect 4 0 5 0;
#X connect 5 0 3 0;
#X connect 6 0 4 0;
#X connect 8 0 9 0;
#X connect 9 0 7 0;
#X connect 10 0 8 0;
#X connect 11 0 10 0;
#X connect 12 0 6 0;
#X restore 52 -146 pd channel 1;
#N canvas 402 116 690 418 channel 0;
#N canvas 490 159 658 455 (subpatch) 0;
#X array \$0-ch2mute 4 float 3;
#A 0 -0.0100094 0.99 0.0199916 -0.110011;
#X coords 0 1 4 0 100 100 1;
#X restore 17 111 graph;
#N canvas 0 0 450 300 (subpatch) 0;
#X array \$0-pgmchnge2 20 float 3;
#A 0 0 0.459998 0.579998 0.679998 0.699997 0.739997 0.739997 0.739997
0.639998 0.539998 0.369999 0.279999 0.139999 -0.0200001 -0.12 -0.199999
-0.319999 -0.419999 -0.519998 -0.599998;
#X coords 0 1 20 -1 100 100 1;
#X restore 123 110 graph;
#X obj 72 -163 inlet;
#X obj 122 -22 outlet;
#X obj 122 -61 int;
#X floatatom 122 -41 5 0 0 0 - - -;
#X obj 122 -81 * 100;
#X obj 24 -23 outlet;
#X obj 25 -63 int;
#X floatatom 25 -43 5 0 0 0 - - -;
#X obj 25 -84 * 100;
#X obj 229 -62 int;
#X floatatom 229 -42 5 0 0 0 - - -;
#X obj 229 -82 * 100;
#X obj 25 -105 tabread \$0-ch2mute;
#X obj 122 -103 tabread \$0-pgmchnge2;
#X connect 2 0 14 0;
#X connect 2 0 15 0;
#X connect 4 0 5 0;
#X connect 5 0 3 0;
#X connect 6 0 4 0;
#X connect 8 0 9 0;
#X connect 9 0 7 0;
#X connect 10 0 8 0;
#X connect 11 0 12 0;
#X connect 13 0 11 0;
#X connect 14 0 10 0;
#X connect 15 0 6 0;
#X restore 139 -146 pd channel 2;
#N canvas 144 98 690 418 channel 0;
#N canvas 490 159 658 455 (subpatch) 0;
#X array \$0-ch3mute 4 float 3;
#A 0 -0.959993 0 -3.8743e-007 1.01001;
#X coords 0 1 4 0 100 100 1;
#X restore 19 110 graph;
#X obj 72 -163 inlet;
#X obj 24 -22 outlet;
#X obj 25 -62 int;
#X floatatom 25 -42 5 0 0 0 - - -;
#X obj 25 -83 * 100;
#X obj 25 -105 tabread \$0-ch3mute;
#X connect 1 0 6 0;
#X connect 3 0 4 0;
#X connect 4 0 2 0;
#X connect 5 0 3 0;
#X connect 6 0 5 0;
#X restore 339 -145 pd channel 3;
#X connect 1 0 12 0;
#X connect 3 0 13 0;
#X connect 5 0 14 0;
#X connect 8 0 15 0;
#X connect 10 0 8 0;
#X connect 11 0 16 0;
#X connect 15 0 18 0;
#X connect 15 0 19 0;
#X connect 15 0 20 0;
#X connect 16 0 8 1;
#X connect 16 0 9 0;
#X connect 16 0 17 0;
#X connect 17 0 12 2;
#X connect 17 0 13 2;
#X connect 17 0 14 2;
#X connect 18 0 1 0;
#X connect 19 0 3 0;
#X connect 20 0 5 0;
#X restore 213 132 pd patch changer 6;
#N canvas 197 114 534 516 patch 0;
#X text 45 -262 note numbers to 1-10 here;
#N canvas 244 335 779 418 channel 0;
#N canvas 490 159 658 455 (subpatch) 0;
#X array \$0-ch1mute 4 float 3;
#A 0 12 0 0.700006 0.0200005;
#X coords 0 1 4 0 100 100 1;
#X restore 19 110 graph;
#N canvas 490 159 658 455 (subpatch) 0;
#X array \$0-fx1mute1 4 float 3;
#A 0 1 0 0 0;
#X coords 0 1 4 0 50 50 1;
#X restore 229 113 graph;
#N canvas 490 159 658 455 (subpatch) 0;
#X array \$0-fx2mute1 4 float 3;
#A 0 1 0 0 0;
#X coords 0 1 4 0 50 50 1;
#X restore 327 116 graph;
#N canvas 490 159 658 455 (subpatch) 0;
#X array \$0-fx3mute1 4 float 3;
#A 0 1 0 0 0;
#X coords 0 1 4 0 50 50 1;
#X restore 433 116 graph;
#N canvas 490 159 658 455 (subpatch) 0;
#X array \$0-fx4mute1 4 float 3;
#A 0 1 0 0 0;
#X coords 0 1 4 0 50 50 1;
#X restore 536 115 graph;
#N canvas 0 0 450 300 (subpatch) 0;
#X array \$0-pgmchnge1 20 float 3;
#A 0 0.879999 0.699999 0.579999 0.479999 0.399999 0.339999 0.28 0.22
0.14 0.0399999 -0.04 -0.14 -0.24 -0.34 -0.36 -0.36 -0.4 -0.459999 -0.479999
-0.479999;
#X coords 0 1 20 -1 100 100 1;
#X restore 125 112 graph;
#X obj 72 -163 inlet;
#X obj 130 -23 outlet;
#X obj 130 -62 int;
#X floatatom 130 -42 5 0 0 0 - - -;
#X obj 130 -82 * 100;
#X obj 15 -23 outlet;
#X obj 16 -63 int;
#X floatatom 16 -43 5 0 0 0 - - -;
#X obj 16 -84 * 100;
#X obj 253 -23 outlet;
#X obj 253 -62 int;
#X floatatom 253 -42 5 0 0 0 - - -;
#X obj 253 -82 * 100;
#X obj 375 -23 outlet;
#X obj 375 -62 int;
#X floatatom 375 -42 5 0 0 0 - - -;
#X obj 375 -82 * 100;
#X obj 497 -21 outlet;
#X obj 497 -60 int;
#X floatatom 497 -40 5 0 0 0 - - -;
#X obj 497 -80 * 100;
#X obj 620 -25 outlet;
#X obj 620 -64 int;
#X floatatom 620 -44 5 0 0 0 - - -;
#X obj 620 -84 * 100;
#X obj 17 -106 tabread \$0-ch1mute;
#X obj 130 -106 tabread \$0-pgmchnge1;
#X obj 254 -105 tabread \$0-fx1mute1;
#X obj 375 -104 tabread \$0-fx2mute1;
#X obj 496 -103 tabread \$0-fx3mute1;
#X obj 618 -103 tabread \$0-fx4mute1;
#X connect 6 0 31 0;
#X connect 6 0 32 0;
#X connect 6 0 33 0;
#X connect 6 0 34 0;
#X connect 6 0 35 0;
#X connect 6 0 36 0;
#X connect 8 0 9 0;
#X connect 9 0 7 0;
#X connect 10 0 8 0;
#X connect 12 0 13 0;
#X connect 13 0 11 0;
#X connect 14 0 12 0;
#X connect 16 0 17 0;
#X connect 17 0 15 0;
#X connect 18 0 16 0;
#X connect 20 0 21 0;
#X connect 21 0 19 0;
#X connect 22 0 20 0;
#X connect 24 0 25 0;
#X connect 25 0 23 0;
#X connect 26 0 24 0;
#X connect 28 0 29 0;
#X connect 29 0 27 0;
#X connect 30 0 28 0;
#X connect 31 0 14 0;
#X connect 32 0 10 0;
#X connect 33 0 18 0;
#X connect 34 0 22 0;
#X connect 35 0 26 0;
#X connect 36 0 30 0;
#X restore 42 -156 pd channel 1;
#X floatatom 42 -120 5 0 0 0 - - -;
#X text 75 -118 ChnlMute;
#X floatatom 129 -120 5 0 0 0 - - -;
#X text 162 -118 ChnlMute;
#N canvas 345 228 690 418 channel 0;
#N canvas 490 159 658 455 (subpatch) 0;
#X array \$0-ch2mute 4 float 3;
#A 0 -0.0100094 0.99 0.0199916 0.99;
#X coords 0 1 4 0 100 100 1;
#X restore 17 111 graph;
#N canvas 490 159 658 455 (subpatch) 0;
#X array \$0-fx1mute2 4 float 3;
#A 0 0.25209 0 0 0;
#X coords 0 1 4 0 50 50 1;
#X restore 229 113 graph;
#N canvas 490 159 658 455 (subpatch) 0;
#X array \$0-fx2mute2 4 float 3;
#A 0 -0.427911 0 0 0;
#X coords 0 1 4 0 50 50 1;
#X restore 326 113 graph;
#N canvas 490 159 658 455 (subpatch) 0;
#X array \$0-fx3mute2 4 float 3;
#A 0 -0.427911 0 0 0;
#X coords 0 1 4 0 50 50 1;
#X restore 433 116 graph;
#N canvas 490 159 658 455 (subpatch) 0;
#X array \$0-fx4mute2 4 float 3;
#A 0 -0.427911 0 0 0;
#X coords 0 1 4 0 50 50 1;
#X restore 536 115 graph;
#N canvas 0 0 450 300 (subpatch) 0;
#X array \$0-pgmchnge2 20 float 3;
#A 0 0 0.459998 0.579998 0.679998 0.699997 0.739997 0.739997 0.739997
0.639998 0.539998 0.369999 0.279999 0.139999 -0.0200001 -0.12 -0.199999
-0.319999 -0.419999 -0.519998 -0.599998;
#X coords 0 1 20 -1 100 100 1;
#X restore 123 110 graph;
#X obj 72 -163 inlet;
#X obj 122 -22 outlet;
#X obj 122 -61 int;
#X floatatom 122 -41 5 0 0 0 - - -;
#X obj 122 -81 * 100;
#X obj 24 -23 outlet;
#X obj 25 -63 int;
#X floatatom 25 -43 5 0 0 0 - - -;
#X obj 25 -84 * 100;
#X obj 229 -23 outlet;
#X obj 229 -62 int;
#X floatatom 229 -42 5 0 0 0 - - -;
#X obj 229 -82 * 100;
#X obj 331 -25 outlet;
#X obj 331 -64 int;
#X floatatom 331 -44 5 0 0 0 - - -;
#X obj 331 -84 * 100;
#X obj 434 -24 outlet;
#X obj 434 -63 int;
#X floatatom 434 -43 5 0 0 0 - - -;
#X obj 434 -83 * 100;
#X obj 535 -21 outlet;
#X obj 535 -60 int;
#X floatatom 535 -40 5 0 0 0 - - -;
#X obj 535 -80 * 100;
#X obj 25 -105 tabread \$0-ch2mute;
#X obj 122 -103 tabread \$0-pgmchnge2;
#X obj 230 -103 tabread \$0-fx1mute2;
#X obj 331 -104 tabread \$0-fx2mute2;
#X obj 433 -104 tabread \$0-fx3mute2;
#X obj 535 -104 tabread \$0-fx4mute2;
#X connect 6 0 31 0;
#X connect 6 0 32 0;
#X connect 6 0 33 0;
#X connect 6 0 34 0;
#X connect 6 0 35 0;
#X connect 6 0 36 0;
#X connect 8 0 9 0;
#X connect 9 0 7 0;
#X connect 10 0 8 0;
#X connect 12 0 13 0;
#X connect 13 0 11 0;
#X connect 14 0 12 0;
#X connect 16 0 17 0;
#X connect 17 0 15 0;
#X connect 18 0 16 0;
#X connect 20 0 21 0;
#X connect 21 0 19 0;
#X connect 22 0 20 0;
#X connect 24 0 25 0;
#X connect 25 0 23 0;
#X connect 26 0 24 0;
#X connect 28 0 29 0;
#X connect 29 0 27 0;
#X connect 30 0 28 0;
#X connect 31 0 14 0;
#X connect 32 0 10 0;
#X connect 33 0 18 0;
#X connect 34 0 22 0;
#X connect 35 0 26 0;
#X connect 36 0 30 0;
#X restore 129 -156 pd channel 2;
#X floatatom 329 -119 5 0 0 0 - - -;
#X text 362 -117 ChnlMute;
#N canvas 144 98 690 418 channel 0;
#N canvas 490 159 658 455 (subpatch) 0;
#X array \$0-ch3mute 4 float 3;
#A 0 -0.959993 0 0 0;
#X coords 0 1 4 0 100 100 1;
#X restore 19 110 graph;
#N canvas 490 159 658 455 (subpatch) 0;
#X array \$0-fx1mute3 4 float 3;
#A 0 0.25209 0 0 0;
#X coords 0 1 4 0 50 50 1;
#X restore 229 113 graph;
#N canvas 490 159 658 455 (subpatch) 0;
#X array \$0-fx2mute3 4 float 3;
#A 0 1 0 0 0;
#X coords 0 1 4 0 50 50 1;
#X restore 327 116 graph;
#N canvas 490 159 658 455 (subpatch) 0;
#X array \$0-fx3mute3 4 float 3;
#A 0 0 0 0 0;
#X coords 0 1 4 0 50 50 1;
#X restore 433 116 graph;
#N canvas 490 159 658 455 (subpatch) 0;
#X array \$0-fx4mute3 4 float 3;
#A 0 1 0 0 0;
#X coords 0 1 4 0 50 50 1;
#X restore 536 115 graph;
#N canvas 0 0 450 300 (subpatch) 0;
#X array \$0-pgmchnge3 20 float 3;
#A 0 0 0.32 0.36 0.639999 0.739999 0.719999 0.679999 0.619999 0.56
0.340001 0.260001 1.65403e-006 -0.299997 -0.539997 -0.599996 -0.639996
-0.639996 -0.639996 -0.639996 -0.679996;
#X coords 0 1 20 -1 100 100 1;
#X restore 123 110 graph;
#X obj 72 -163 inlet;
#X obj 122 -21 outlet;
#X obj 122 -60 int;
#X floatatom 122 -40 5 0 0 0 - - -;
#X obj 122 -80 * 100;
#X obj 24 -22 outlet;
#X obj 25 -62 int;
#X floatatom 25 -42 5 0 0 0 - - -;
#X obj 25 -83 * 100;
#X obj 229 -22 outlet;
#X obj 229 -61 int;
#X floatatom 229 -41 5 0 0 0 - - -;
#X obj 229 -81 * 100;
#X obj 331 -24 outlet;
#X obj 331 -63 int;
#X floatatom 331 -43 5 0 0 0 - - -;
#X obj 331 -83 * 100;
#X obj 434 -23 outlet;
#X obj 434 -62 int;
#X floatatom 434 -42 5 0 0 0 - - -;
#X obj 434 -82 * 100;
#X obj 535 -20 outlet;
#X obj 535 -59 int;
#X floatatom 535 -39 5 0 0 0 - - -;
#X obj 535 -79 * 100;
#X obj 25 -105 tabread \$0-ch3mute;
#X obj 122 -103 tabread \$0-pgmchnge3;
#X obj 230 -103 tabread \$0-fx1mute3;
#X obj 331 -104 tabread \$0-fx2mute3;
#X obj 433 -104 tabread \$0-fx3mute3;
#X obj 535 -104 tabread \$0-fx4mute3;
#X connect 6 0 31 0;
#X connect 6 0 32 0;
#X connect 6 0 33 0;
#X connect 6 0 34 0;
#X connect 6 0 35 0;
#X connect 6 0 36 0;
#X connect 8 0 9 0;
#X connect 9 0 7 0;
#X connect 10 0 8 0;
#X connect 12 0 13 0;
#X connect 13 0 11 0;
#X connect 14 0 12 0;
#X connect 16 0 17 0;
#X connect 17 0 15 0;
#X connect 18 0 16 0;
#X connect 20 0 21 0;
#X connect 21 0 19 0;
#X connect 22 0 20 0;
#X connect 24 0 25 0;
#X connect 25 0 23 0;
#X connect 26 0 24 0;
#X connect 28 0 29 0;
#X connect 29 0 27 0;
#X connect 30 0 28 0;
#X connect 31 0 14 0;
#X connect 32 0 10 0;
#X connect 33 0 18 0;
#X connect 34 0 22 0;
#X connect 35 0 26 0;
#X connect 36 0 30 0;
#X restore 329 -155 pd channel 3;
#X obj 252 -252 spigot;
#X obj 294 -235 tgl 15 0 empty empty empty 17 7 0 10 -262144 -1 -1
0 1;
#X obj 251 -276 inlet;
#X obj 294 -276 r pgm2chnl;
#X obj 42 -100 ctlout 50;
#X obj 129 -100 ctlout 51;
#X obj 329 -99 ctlout 52;
#X floatatom 252 -230 5 0 0 0 - - -;
#X obj 294 -255 == 7;
#X msg 258 -152 7;
#X connect 1 0 2 0;
#X connect 2 0 14 0;
#X connect 4 0 15 0;
#X connect 6 0 4 0;
#X connect 7 0 16 0;
#X connect 9 0 7 0;
#X connect 10 0 17 0;
#X connect 12 0 10 0;
#X connect 13 0 18 0;
#X connect 17 0 1 0;
#X connect 17 0 6 0;
#X connect 17 0 9 0;
#X connect 18 0 10 1;
#X connect 18 0 11 0;
#X connect 18 0 19 0;
#X connect 19 0 14 2;
#X connect 19 0 15 2;
#X connect 19 0 16 2;
#X restore 213 152 pd patch changer 7;
#N canvas 197 114 534 516 patch 0;
#X text 45 -262 note numbers to 1-10 here;
#N canvas 244 335 779 418 channel 0;
#N canvas 490 159 658 455 (subpatch) 0;
#X array \$0-ch1mute 4 float 3;
#A 0 12 0 0.700006 0.0200005;
#X coords 0 1 4 0 100 100 1;
#X restore 19 110 graph;
#N canvas 490 159 658 455 (subpatch) 0;
#X array \$0-fx1mute1 4 float 3;
#A 0 1 0 0 0;
#X coords 0 1 4 0 50 50 1;
#X restore 229 113 graph;
#N canvas 490 159 658 455 (subpatch) 0;
#X array \$0-fx2mute1 4 float 3;
#A 0 1 0 0 0;
#X coords 0 1 4 0 50 50 1;
#X restore 327 116 graph;
#N canvas 490 159 658 455 (subpatch) 0;
#X array \$0-fx3mute1 4 float 3;
#A 0 1 0 0 0;
#X coords 0 1 4 0 50 50 1;
#X restore 433 116 graph;
#N canvas 490 159 658 455 (subpatch) 0;
#X array \$0-fx4mute1 4 float 3;
#A 0 1 0 0 0;
#X coords 0 1 4 0 50 50 1;
#X restore 536 115 graph;
#N canvas 0 0 450 300 (subpatch) 0;
#X array \$0-pgmchnge1 20 float 3;
#A 0 0.879999 0.699999 0.579999 0.479999 0.399999 0.339999 0.28 0.22
0.14 0.0399999 -0.04 -0.14 -0.24 -0.34 -0.36 -0.36 -0.4 -0.459999 -0.479999
-0.479999;
#X coords 0 1 20 -1 100 100 1;
#X restore 125 112 graph;
#X obj 72 -163 inlet;
#X obj 130 -23 outlet;
#X obj 130 -62 int;
#X floatatom 130 -42 5 0 0 0 - - -;
#X obj 130 -82 * 100;
#X obj 15 -23 outlet;
#X obj 16 -63 int;
#X floatatom 16 -43 5 0 0 0 - - -;
#X obj 16 -84 * 100;
#X obj 253 -23 outlet;
#X obj 253 -62 int;
#X floatatom 253 -42 5 0 0 0 - - -;
#X obj 253 -82 * 100;
#X obj 375 -23 outlet;
#X obj 375 -62 int;
#X floatatom 375 -42 5 0 0 0 - - -;
#X obj 375 -82 * 100;
#X obj 497 -21 outlet;
#X obj 497 -60 int;
#X floatatom 497 -40 5 0 0 0 - - -;
#X obj 497 -80 * 100;
#X obj 620 -25 outlet;
#X obj 620 -64 int;
#X floatatom 620 -44 5 0 0 0 - - -;
#X obj 620 -84 * 100;
#X obj 17 -106 tabread \$0-ch1mute;
#X obj 130 -106 tabread \$0-pgmchnge1;
#X obj 254 -105 tabread \$0-fx1mute1;
#X obj 375 -104 tabread \$0-fx2mute1;
#X obj 496 -103 tabread \$0-fx3mute1;
#X obj 618 -103 tabread \$0-fx4mute1;
#X connect 6 0 31 0;
#X connect 6 0 32 0;
#X connect 6 0 33 0;
#X connect 6 0 34 0;
#X connect 6 0 35 0;
#X connect 6 0 36 0;
#X connect 8 0 9 0;
#X connect 9 0 7 0;
#X connect 10 0 8 0;
#X connect 12 0 13 0;
#X connect 13 0 11 0;
#X connect 14 0 12 0;
#X connect 16 0 17 0;
#X connect 17 0 15 0;
#X connect 18 0 16 0;
#X connect 20 0 21 0;
#X connect 21 0 19 0;
#X connect 22 0 20 0;
#X connect 24 0 25 0;
#X connect 25 0 23 0;
#X connect 26 0 24 0;
#X connect 28 0 29 0;
#X connect 29 0 27 0;
#X connect 30 0 28 0;
#X connect 31 0 14 0;
#X connect 32 0 10 0;
#X connect 33 0 18 0;
#X connect 34 0 22 0;
#X connect 35 0 26 0;
#X connect 36 0 30 0;
#X restore 42 -156 pd channel 1;
#X floatatom 42 -120 5 0 0 0 - - -;
#X text 75 -118 ChnlMute;
#X floatatom 129 -120 5 0 0 0 - - -;
#X text 162 -118 ChnlMute;
#N canvas 345 228 690 418 channel 0;
#N canvas 490 159 658 455 (subpatch) 0;
#X array \$0-ch2mute 4 float 3;
#A 0 -0.0100094 0.99 0.0199916 0.99;
#X coords 0 1 4 0 100 100 1;
#X restore 17 111 graph;
#N canvas 490 159 658 455 (subpatch) 0;
#X array \$0-fx1mute2 4 float 3;
#A 0 0.25209 0 0 0;
#X coords 0 1 4 0 50 50 1;
#X restore 229 113 graph;
#N canvas 490 159 658 455 (subpatch) 0;
#X array \$0-fx2mute2 4 float 3;
#A 0 -0.427911 0 0 0;
#X coords 0 1 4 0 50 50 1;
#X restore 326 113 graph;
#N canvas 490 159 658 455 (subpatch) 0;
#X array \$0-fx3mute2 4 float 3;
#A 0 -0.427911 0 0 0;
#X coords 0 1 4 0 50 50 1;
#X restore 433 116 graph;
#N canvas 490 159 658 455 (subpatch) 0;
#X array \$0-fx4mute2 4 float 3;
#A 0 -0.427911 0 0 0;
#X coords 0 1 4 0 50 50 1;
#X restore 536 115 graph;
#N canvas 0 0 450 300 (subpatch) 0;
#X array \$0-pgmchnge2 20 float 3;
#A 0 0 0.459998 0.579998 0.679998 0.699997 0.739997 0.739997 0.739997
0.639998 0.539998 0.369999 0.279999 0.139999 -0.0200001 -0.12 -0.199999
-0.319999 -0.419999 -0.519998 -0.599998;
#X coords 0 1 20 -1 100 100 1;
#X restore 123 110 graph;
#X obj 72 -163 inlet;
#X obj 122 -22 outlet;
#X obj 122 -61 int;
#X floatatom 122 -41 5 0 0 0 - - -;
#X obj 122 -81 * 100;
#X obj 24 -23 outlet;
#X obj 25 -63 int;
#X floatatom 25 -43 5 0 0 0 - - -;
#X obj 25 -84 * 100;
#X obj 229 -23 outlet;
#X obj 229 -62 int;
#X floatatom 229 -42 5 0 0 0 - - -;
#X obj 229 -82 * 100;
#X obj 331 -25 outlet;
#X obj 331 -64 int;
#X floatatom 331 -44 5 0 0 0 - - -;
#X obj 331 -84 * 100;
#X obj 434 -24 outlet;
#X obj 434 -63 int;
#X floatatom 434 -43 5 0 0 0 - - -;
#X obj 434 -83 * 100;
#X obj 535 -21 outlet;
#X obj 535 -60 int;
#X floatatom 535 -40 5 0 0 0 - - -;
#X obj 535 -80 * 100;
#X obj 25 -105 tabread \$0-ch2mute;
#X obj 122 -103 tabread \$0-pgmchnge2;
#X obj 230 -103 tabread \$0-fx1mute2;
#X obj 331 -104 tabread \$0-fx2mute2;
#X obj 433 -104 tabread \$0-fx3mute2;
#X obj 535 -104 tabread \$0-fx4mute2;
#X connect 6 0 31 0;
#X connect 6 0 32 0;
#X connect 6 0 33 0;
#X connect 6 0 34 0;
#X connect 6 0 35 0;
#X connect 6 0 36 0;
#X connect 8 0 9 0;
#X connect 9 0 7 0;
#X connect 10 0 8 0;
#X connect 12 0 13 0;
#X connect 13 0 11 0;
#X connect 14 0 12 0;
#X connect 16 0 17 0;
#X connect 17 0 15 0;
#X connect 18 0 16 0;
#X connect 20 0 21 0;
#X connect 21 0 19 0;
#X connect 22 0 20 0;
#X connect 24 0 25 0;
#X connect 25 0 23 0;
#X connect 26 0 24 0;
#X connect 28 0 29 0;
#X connect 29 0 27 0;
#X connect 30 0 28 0;
#X connect 31 0 14 0;
#X connect 32 0 10 0;
#X connect 33 0 18 0;
#X connect 34 0 22 0;
#X connect 35 0 26 0;
#X connect 36 0 30 0;
#X restore 129 -156 pd channel 2;
#X floatatom 329 -119 5 0 0 0 - - -;
#X text 362 -117 ChnlMute;
#N canvas 144 98 690 418 channel 0;
#N canvas 490 159 658 455 (subpatch) 0;
#X array \$0-ch3mute 4 float 3;
#A 0 -0.959993 0 0 0;
#X coords 0 1 4 0 100 100 1;
#X restore 19 110 graph;
#N canvas 490 159 658 455 (subpatch) 0;
#X array \$0-fx1mute3 4 float 3;
#A 0 0.25209 0 0 0;
#X coords 0 1 4 0 50 50 1;
#X restore 229 113 graph;
#N canvas 490 159 658 455 (subpatch) 0;
#X array \$0-fx2mute3 4 float 3;
#A 0 1 0 0 0;
#X coords 0 1 4 0 50 50 1;
#X restore 327 116 graph;
#N canvas 490 159 658 455 (subpatch) 0;
#X array \$0-fx3mute3 4 float 3;
#A 0 0 0 0 0;
#X coords 0 1 4 0 50 50 1;
#X restore 433 116 graph;
#N canvas 490 159 658 455 (subpatch) 0;
#X array \$0-fx4mute3 4 float 3;
#A 0 1 0 0 0;
#X coords 0 1 4 0 50 50 1;
#X restore 536 115 graph;
#N canvas 0 0 450 300 (subpatch) 0;
#X array \$0-pgmchnge3 20 float 3;
#A 0 0 0.32 0.36 0.639999 0.739999 0.719999 0.679999 0.619999 0.56
0.340001 0.260001 1.65403e-006 -0.299997 -0.539997 -0.599996 -0.639996
-0.639996 -0.639996 -0.639996 -0.679996;
#X coords 0 1 20 -1 100 100 1;
#X restore 123 110 graph;
#X obj 72 -163 inlet;
#X obj 122 -21 outlet;
#X obj 122 -60 int;
#X floatatom 122 -40 5 0 0 0 - - -;
#X obj 122 -80 * 100;
#X obj 24 -22 outlet;
#X obj 25 -62 int;
#X floatatom 25 -42 5 0 0 0 - - -;
#X obj 25 -83 * 100;
#X obj 229 -22 outlet;
#X obj 229 -61 int;
#X floatatom 229 -41 5 0 0 0 - - -;
#X obj 229 -81 * 100;
#X obj 331 -24 outlet;
#X obj 331 -63 int;
#X floatatom 331 -43 5 0 0 0 - - -;
#X obj 331 -83 * 100;
#X obj 434 -23 outlet;
#X obj 434 -62 int;
#X floatatom 434 -42 5 0 0 0 - - -;
#X obj 434 -82 * 100;
#X obj 535 -20 outlet;
#X obj 535 -59 int;
#X floatatom 535 -39 5 0 0 0 - - -;
#X obj 535 -79 * 100;
#X obj 25 -105 tabread \$0-ch3mute;
#X obj 122 -103 tabread \$0-pgmchnge3;
#X obj 230 -103 tabread \$0-fx1mute3;
#X obj 331 -104 tabread \$0-fx2mute3;
#X obj 433 -104 tabread \$0-fx3mute3;
#X obj 535 -104 tabread \$0-fx4mute3;
#X connect 6 0 31 0;
#X connect 6 0 32 0;
#X connect 6 0 33 0;
#X connect 6 0 34 0;
#X connect 6 0 35 0;
#X connect 6 0 36 0;
#X connect 8 0 9 0;
#X connect 9 0 7 0;
#X connect 10 0 8 0;
#X connect 12 0 13 0;
#X connect 13 0 11 0;
#X connect 14 0 12 0;
#X connect 16 0 17 0;
#X connect 17 0 15 0;
#X connect 18 0 16 0;
#X connect 20 0 21 0;
#X connect 21 0 19 0;
#X connect 22 0 20 0;
#X connect 24 0 25 0;
#X connect 25 0 23 0;
#X connect 26 0 24 0;
#X connect 28 0 29 0;
#X connect 29 0 27 0;
#X connect 30 0 28 0;
#X connect 31 0 14 0;
#X connect 32 0 10 0;
#X connect 33 0 18 0;
#X connect 34 0 22 0;
#X connect 35 0 26 0;
#X connect 36 0 30 0;
#X restore 329 -155 pd channel 3;
#X obj 252 -252 spigot;
#X obj 294 -235 tgl 15 0 empty empty empty 17 7 0 10 -262144 -1 -1
0 1;
#X obj 251 -276 inlet;
#X obj 294 -276 r pgm2chnl;
#X obj 42 -100 ctlout 50;
#X obj 129 -100 ctlout 51;
#X obj 329 -99 ctlout 52;
#X floatatom 252 -230 5 0 0 0 - - -;
#X obj 294 -255 == 8;
#X msg 261 -156 8;
#X connect 1 0 2 0;
#X connect 2 0 14 0;
#X connect 4 0 15 0;
#X connect 6 0 4 0;
#X connect 7 0 16 0;
#X connect 9 0 7 0;
#X connect 10 0 17 0;
#X connect 12 0 10 0;
#X connect 13 0 18 0;
#X connect 17 0 1 0;
#X connect 17 0 6 0;
#X connect 17 0 9 0;
#X connect 18 0 10 1;
#X connect 18 0 11 0;
#X connect 18 0 19 0;
#X connect 19 0 14 2;
#X connect 19 0 15 2;
#X connect 19 0 16 2;
#X restore 213 173 pd patch changer 8;
#X connect 0 0 1 0;
#X connect 0 0 2 0;
#X connect 0 0 3 0;
#X connect 0 0 4 0;
#X connect 0 0 5 0;
#X connect 0 0 6 0;
#X connect 0 0 7 0;
#X connect 0 0 8 0;
#X restore 242 65 pd patch system;
#N canvas 0 0 297 328 zflick 0;
#X obj 177 189 s z1;
#X floatatom 122 157 5 0 0 0 - - -;
#X floatatom 121 216 5 0 0 0 - - -;
#X obj 119 245 * 127;
#X floatatom 172 157 5 0 0 0 - - -;
#X text 153 207 FX tap tempo flip;
#X floatatom 120 98 5 0 0 0 - - -;
#X obj 97 58 r zaxisr;
#X obj 208 261 ctlout 31;
#X obj 123 130 clip 1 2;
#X obj 122 186 - 1;
#X connect 1 0 10 0;
#X connect 2 0 3 0;
#X connect 3 0 4 0;
#X connect 4 0 0 0;
#X connect 4 0 8 0;
#X connect 6 0 9 0;
#X connect 7 0 6 0;
#X connect 9 0 1 0;
#X connect 10 0 2 0;
#X restore 299 256 pd zflick;
#X obj -11 63 r fl4-0;
#X obj 38 65 r fl3-0;
#X obj 85 65 r fl2-0;
#X obj 131 64 r fl1-0;
#X obj 231 211 pgmout;
#X obj 241 110 tgl 15 0 empty empty empty 17 7 0 10 -262144 -1 -1 0
1;
#X obj 528 65 r fr1-0;
#X obj 384 66 r fr4-0;
#X floatatom 397 37 5 0 0 0 - - -;
#X obj 131 88 > 0.96;
#X obj 434 88 > 0.965;
#X obj 482 86 > 0.96;
#X obj 85 88 > 0.965;
#X obj -11 88 > 0.94;
#X obj 38 88 > 0.94;
#X obj 386 87 > 0.96;
#X obj 530 87 > 0.9;
#X msg 487 268 238 1 317 0 0 476 0;
#X obj 497 301 s alarm;
#X obj 432 66 r fr2-0;
#X obj 481 65 r fr3-0;
#X connect 0 0 4 0;
#X connect 0 0 9 0;
#X connect 0 0 28 3;
#X connect 0 0 62 0;
#X connect 0 0 74 0;
#X connect 1 0 14 0;
#X connect 1 0 11 0;
#X connect 1 0 28 2;
#X connect 1 0 74 0;
#X connect 2 0 15 0;
#X connect 2 0 10 0;
#X connect 2 0 28 1;
#X connect 2 0 74 0;
#X connect 3 0 16 0;
#X connect 3 0 28 0;
#X connect 3 0 74 0;
#X connect 4 0 21 0;
#X connect 4 0 61 0;
#X connect 5 0 17 0;
#X connect 5 0 13 0;
#X connect 5 0 28 4;
#X connect 5 0 74 0;
#X connect 6 0 19 0;
#X connect 6 0 25 0;
#X connect 6 0 28 6;
#X connect 6 0 74 0;
#X connect 7 0 18 0;
#X connect 7 0 24 0;
#X connect 7 0 28 5;
#X connect 7 0 74 0;
#X connect 8 0 20 0;
#X connect 8 0 26 0;
#X connect 8 0 28 7;
#X connect 8 0 74 0;
#X connect 14 0 21 0;
#X connect 14 0 61 0;
#X connect 15 0 21 0;
#X connect 15 0 61 0;
#X connect 16 0 12 0;
#X connect 16 0 21 0;
#X connect 16 0 61 0;
#X connect 17 0 21 0;
#X connect 17 0 61 0;
#X connect 18 0 21 0;
#X connect 18 0 61 0;
#X connect 19 0 21 0;
#X connect 19 0 61 0;
#X connect 20 0 21 0;
#X connect 20 0 61 0;
#X connect 37 0 36 0;
#X connect 38 0 29 0;
#X connect 39 0 30 0;
#X connect 40 0 31 0;
#X connect 41 0 35 0;
#X connect 42 0 34 0;
#X connect 43 0 33 0;
#X connect 44 0 32 0;
#X connect 57 0 70 0;
#X connect 58 0 71 0;
#X connect 59 0 69 0;
#X connect 60 0 66 0;
#X connect 63 0 65 0;
#X connect 63 0 73 0;
#X connect 64 0 72 0;
#X connect 66 0 0 0;
#X connect 67 0 7 0;
#X connect 68 0 6 0;
#X connect 69 0 1 0;
#X connect 70 0 3 0;
#X connect 71 0 2 0;
#X connect 72 0 5 0;
#X connect 73 0 8 0;
#X connect 74 0 75 0;
#X connect 76 0 65 0;
#X connect 76 0 67 0;
#X connect 77 0 65 0;
#X connect 77 0 68 0;
#X coords 0 -1 1 1 260 35 1 200 400;
