#N canvas 0 0 1366 730 10;
#X obj 904 420 tgl 15 0 empty empty connected 20 7 0 8 -24198 -241291
-1 1 1;
#X msg 990 324 disconnect;
#X msg 981 302 connect localhost 13001;
#X obj 982 377 netsend;
#X msg 441 74 send 2 \$1;
#X msg 373 73 send 1 \$1;
#X msg 509 74 send 3 \$1;
#X floatatom 442 41 5 0 0 0 - - -;
#X floatatom 346 49 5 0 0 0 - - -;
#X floatatom 520 48 5 0 0 0 - - -;
#X obj 904 437 tgl 15 0 empty empty connected 20 7 0 8 -24198 -241291
-1 1 1;
#X msg 637 76 send 5 \$1;
#X msg 904 250 send 9 \$1;
#X msg 970 249 send 10 \$1;
#X msg 1040 249 send 11 \$1;
#X msg 747 257 send 16 \$1;
#X msg 819 260 send 17 \$1;
#X msg 825 188 send 18 \$1;
#X msg 899 190 send 19 \$1;
#X obj 462 -9 r breath;
#X obj 927 153 r rjuforward;
#X obj 1004 152 r rjuback;
#X obj 1064 152 r rjuup;
#X obj 1112 152 r rjudown;
#X obj 963 4 r jrb2;
#X obj 1017 6 r jrb3;
#X obj 910 7 r jrb1;
#X obj 1063 7 r jrb4;
#X obj 520 -10 r noteval;
#X obj 386 -31 r pgmout;
#X obj 668 -11 r parakey;
#X obj 586 -10 r mynotemsg;
#X msg 970 190 send 20 \$1;
#X msg 1037 193 send 21 \$1;
#X msg 1102 194 send 22 \$1;
#X msg 1167 195 send 23 \$1;
#X obj 905 402 tgl 15 0 empty empty empty 17 7 0 10 -262144 -1 -1 1
1;
#X obj 1029 441 sel 0 1;
#X obj 923 402 tgl 15 0 empty empty empty 17 7 0 10 -262144 -1 -1 1
1;
#X obj 896 -31 r frange5;
#X obj 958 -31 r frange6;
#X obj 1021 -30 r frange7;
#X obj 1083 -30 r frange8;
#X msg 895 220 send 29 \$1;
#X msg 967 220 send 30 \$1;
#X msg 1041 218 send 31 \$1;
#X msg 1113 218 send 32 \$1;
#X obj 461 24 r loopsize;
#X msg 392 94 send 33 \$1;
#X msg 461 94 send 34 \$1;
#X obj 376 22 r packedindex;
#X obj 594 23 r clear;
#X msg 613 113 send 36 \$1;
#X obj 645 23 r alarm;
#X obj 918 63 r mute5;
#X obj 966 63 r mute6;
#X obj 1016 63 r mute7;
#X obj 1069 63 r mute8;
#X obj 923 93 r fb5;
#X obj 971 93 r f6;
#X obj 1021 93 r f7;
#X obj 1069 93 r fb8;
#X msg 312 223 send 39 \$1;
#X msg 390 225 send 40 \$1;
#X msg 464 225 send 41 \$1;
#X msg 606 298 send 42 \$1;
#X msg 680 298 send 43 \$1;
#X msg 758 300 send 44 \$1;
#X msg 832 300 send 45 \$1;
#X msg 310 252 send 47 \$1;
#X msg 388 254 send 48 \$1;
#X msg 462 254 send 49 \$1;
#X msg 597 330 send 50 \$1;
#X msg 678 327 send 51 \$1;
#X msg 753 328 send 52 \$1;
#X msg 830 329 send 53 \$1;
#X obj 1111 119 r looprec;
#X msg 907 328 send 54 \$1;
#X floatatom 390 -4 5 0 0 0 - - -;
#X msg 575 51 send 4 \$1 \$2 \$3;
#X msg 1137 303 connect localhost 13002;
#X msg 1144 325 disconnect;
#X obj 1207 424 sel 0 1;
#X text 1009 283 synths/looper;
#X text 1158 290 Visuals;
#X msg 1139 503 disconnect;
#X obj 1202 602 sel 0 1;
#X text 1153 468 Visuals;
#X msg 1132 481 connect localhost 13003;
#X obj 1128 555 netsend;
#X obj 904 454 tgl 15 0 empty empty connected 20 7 0 8 -24198 -241291
-1 1 1;
#X obj 904 471 tgl 15 0 empty empty connected 20 7 0 8 -24198 -241291
-1 1 1;
#X obj 943 403 tgl 15 0 empty empty empty 17 7 0 10 -262144 -1 -1 1
1;
#X obj 963 405 tgl 15 0 empty empty empty 17 7 0 10 -262144 -1 -1 1
1;
#X obj 907 370 loadbang;
#X obj 1133 377 netsend;
#X obj 1001 347 r msg1;
#X obj 1159 350 r msg2;
#X obj 1154 528 r msg3;
#X obj 543 194 s msg2;
#X obj 663 467 s msg3;
#X msg 463 285 send 55 \$1;
#X obj 722 39 r haptic;
#X msg 684 113 send 37 \$1 \$2 \$3 \$4 \$5 \$6 \$7;
#X obj 1078 26 change;
#X obj 1015 27 change;
#X obj 962 29 change;
#X obj 908 30 change;
#X msg 779 92 send 56 \$1;
#X obj 814 29 r inhale;
#X msg 810 59 send 57 \$1;
#X msg 339 355 disconnect;
#X obj 331 408 netsend;
#X obj 378 472 sel 0 1;
#X msg 493 356 disconnect;
#X obj 531 469 sel 0 1;
#X text 358 314 synths/looper;
#X text 507 321 Visuals;
#X msg 488 534 disconnect;
#X obj 533 588 sel 0 1;
#X text 502 499 Visuals;
#X obj 477 586 netsend;
#X obj 482 408 netsend;
#X obj 350 378 r msg1;
#X obj 508 381 r msg2;
#X obj 503 559 r msg3;
#X msg 330 333 connect localhost 13004;
#X msg 476 346 connect localhost 13005;
#X msg 481 512 connect localhost 13006;
#X obj 79 331 r r;
#X obj 109 329 r g;
#X obj 140 335 r b;
#X msg 78 361 send 58 \$1;
#X msg 102 380 send 59 \$1;
#X msg 135 402 send 60 \$1;
#X obj 106 438 r jlb1;
#X obj 148 438 r jlb2;
#X obj 192 438 r jlb3;
#X obj 232 438 r jlb4;
#X msg 95 464 send 61 \$1;
#X msg 165 465 send 62 \$1;
#X msg 236 464 send 63 \$1;
#X msg 306 464 send 64 \$1;
#X obj 131 500 r lip;
#X msg 120 522 send 65 \$1;
#X obj 282 542 r transpose;
#X msg 280 578 send 66 \$1;
#X msg 361 575 send 67 \$1;
#X obj 363 539 r outlevel;
#X obj 255 631;
#X obj 291 611 r zctrl-l;
#X obj 372 608 r zctrl-r;
#X msg 370 644 send 69 \$1;
#X floatatom 468 643 5 0 0 0 - - -;
#X msg 289 647 send 68 \$1;
#X msg 232 194 send 15 \$1;
#X msg 159 194 send 14 \$1;
#X msg 238 223 send 38 \$1;
#X msg 236 252 send 46 \$1;
#X obj 120 301 s msg1;
#X obj 65 -2 r fb2;
#X obj 115 -2 r fb3;
#X obj 163 -2 r fb4;
#X obj 12 -32 r mute1;
#X obj 60 -32 r mute2;
#X obj 110 -32 r mute3;
#X obj 158 -32 r mute4;
#X obj 214 -29 r looperctrl;
#X msg 324 159 send 13 \$1;
#X msg 33 148 send 6 \$1;
#X msg 98 149 send 7 \$1;
#X msg 163 150 send 8 \$1;
#X msg 249 157 send 12 \$1;
#X msg 28 126 send 25 \$1;
#X msg 99 125 send 26 \$1;
#X msg 174 124 send 27 \$1;
#X msg 246 124 send 28 \$1;
#X obj 179 54 r jlu4;
#X obj 95 54 r jlu2;
#X obj 51 53 r jlu1;
#X obj 136 54 r jlu3;
#X obj 49 85 r frange1;
#X obj 111 85 r frange2;
#X obj 174 86 r frange3;
#X obj 236 86 r frange4;
#X obj 49 21 r xlx;
#X obj 101 23 r xly;
#X obj 149 22 r xlz;
#X obj 933 125 r xrx;
#X obj 996 123 r xry;
#X obj 1043 123 r xrz;
#X obj 17 -2 r lipswitch;
#X text 903 483 Network;
#X floatatom 954 481 5 0 0 0 - - -;
#X obj 820 490 outlet;
#X obj 650 557 s red-l;
#X obj 668 579 s green-l;
#X obj 684 616 s red-r;
#X obj 701 636 s blue-r;
#X obj 645 489 netreceive 13008;
#X floatatom 626 553 5 0 0 0 - - -;
#X floatatom 696 597 5 0 0 0 - - -;
#X obj 716 557 s r-m;
#X obj 731 579 s g-m;
#X obj 748 604 s b-m;
#X obj 765 555 s r-l;
#X obj 780 577 s g-l;
#X obj 797 602 s b-l;
#X obj 811 554 s r-r;
#X obj 828 577 s g-r;
#X obj 840 603 s b-r;
#X msg 627 212 send 70 \$1;
#X obj 631 182 r alt-note;
#X obj 859 629 s loop_in_ms;
#X obj 653 528 route 1 2 3 4 5 6 7 8 9 10 11 12 13 14 15;
#X obj 932 593 s vocolor;
#X floatatom 147 570 5 0 0 0 - - -;
#X obj 715 147 r slicenum;
#X msg 711 177 send 71 \$1;
#X connect 1 0 3 0;
#X connect 2 0 3 0;
#X connect 3 0 0 0;
#X connect 4 0 99 0;
#X connect 5 0 99 0;
#X connect 6 0 99 0;
#X connect 7 0 4 0;
#X connect 8 0 5 0;
#X connect 9 0 6 0;
#X connect 11 0 99 0;
#X connect 12 0 100 0;
#X connect 13 0 100 0;
#X connect 14 0 100 0;
#X connect 15 0 100 0;
#X connect 16 0 100 0;
#X connect 17 0 100 0;
#X connect 18 0 100 0;
#X connect 19 0 4 0;
#X connect 20 0 32 0;
#X connect 21 0 33 0;
#X connect 22 0 34 0;
#X connect 23 0 35 0;
#X connect 24 0 106 0;
#X connect 25 0 105 0;
#X connect 26 0 107 0;
#X connect 27 0 104 0;
#X connect 28 0 6 0;
#X connect 29 0 5 0;
#X connect 29 0 78 0;
#X connect 30 0 11 0;
#X connect 31 0 79 0;
#X connect 32 0 100 0;
#X connect 33 0 100 0;
#X connect 34 0 100 0;
#X connect 35 0 100 0;
#X connect 36 0 37 0;
#X connect 36 0 113 0;
#X connect 37 0 1 0;
#X connect 37 1 2 0;
#X connect 38 0 82 0;
#X connect 38 0 115 0;
#X connect 39 0 43 0;
#X connect 40 0 44 0;
#X connect 41 0 45 0;
#X connect 42 0 46 0;
#X connect 43 0 100 0;
#X connect 44 0 100 0;
#X connect 45 0 100 0;
#X connect 46 0 100 0;
#X connect 47 0 49 0;
#X connect 48 0 99 0;
#X connect 49 0 99 0;
#X connect 50 0 48 0;
#X connect 51 0 52 0;
#X connect 52 0 99 0;
#X connect 53 0 103 0;
#X connect 54 0 65 0;
#X connect 55 0 66 0;
#X connect 56 0 67 0;
#X connect 57 0 68 0;
#X connect 58 0 72 0;
#X connect 59 0 73 0;
#X connect 60 0 74 0;
#X connect 61 0 75 0;
#X connect 62 0 159 0;
#X connect 63 0 159 0;
#X connect 64 0 159 0;
#X connect 65 0 100 0;
#X connect 66 0 100 0;
#X connect 67 0 100 0;
#X connect 68 0 100 0;
#X connect 69 0 159 0;
#X connect 70 0 159 0;
#X connect 71 0 159 0;
#X connect 72 0 100 0;
#X connect 73 0 100 0;
#X connect 74 0 100 0;
#X connect 75 0 100 0;
#X connect 76 0 77 0;
#X connect 77 0 100 0;
#X connect 79 0 99 0;
#X connect 80 0 95 0;
#X connect 81 0 95 0;
#X connect 82 0 81 0;
#X connect 82 1 80 0;
#X connect 85 0 89 0;
#X connect 86 0 85 0;
#X connect 86 1 88 0;
#X connect 88 0 89 0;
#X connect 89 0 90 0;
#X connect 92 0 86 0;
#X connect 92 0 119 0;
#X connect 94 0 36 0;
#X connect 94 0 38 0;
#X connect 94 0 92 0;
#X connect 94 0 93 0;
#X connect 95 0 10 0;
#X connect 96 0 3 0;
#X connect 97 0 95 0;
#X connect 98 0 89 0;
#X connect 101 0 159 0;
#X connect 102 0 108 0;
#X connect 103 0 99 0;
#X connect 104 0 18 0;
#X connect 105 0 17 0;
#X connect 106 0 16 0;
#X connect 107 0 15 0;
#X connect 108 0 99 0;
#X connect 109 0 110 0;
#X connect 110 0 99 0;
#X connect 111 0 112 0;
#X connect 113 0 111 0;
#X connect 113 1 126 0;
#X connect 114 0 122 0;
#X connect 115 0 114 0;
#X connect 115 1 127 0;
#X connect 118 0 121 0;
#X connect 119 0 118 0;
#X connect 119 1 128 0;
#X connect 122 0 91 0;
#X connect 123 0 112 0;
#X connect 124 0 122 0;
#X connect 125 0 121 0;
#X connect 126 0 112 0;
#X connect 127 0 122 0;
#X connect 128 0 121 0;
#X connect 129 0 132 0;
#X connect 130 0 133 0;
#X connect 131 0 134 0;
#X connect 132 0 99 0;
#X connect 133 0 99 0;
#X connect 134 0 99 0;
#X connect 135 0 139 0;
#X connect 136 0 140 0;
#X connect 137 0 141 0;
#X connect 138 0 142 0;
#X connect 139 0 99 0;
#X connect 140 0 99 0;
#X connect 141 0 99 0;
#X connect 142 0 99 0;
#X connect 143 0 144 0;
#X connect 143 0 216 0;
#X connect 144 0 99 0;
#X connect 145 0 146 0;
#X connect 146 0 99 0;
#X connect 147 0 99 0;
#X connect 148 0 147 0;
#X connect 150 0 154 0;
#X connect 151 0 152 0;
#X connect 152 0 99 0;
#X connect 154 0 99 0;
#X connect 155 0 159 0;
#X connect 156 0 159 0;
#X connect 157 0 159 0;
#X connect 158 0 159 0;
#X connect 160 0 69 0;
#X connect 161 0 70 0;
#X connect 162 0 71 0;
#X connect 163 0 157 0;
#X connect 164 0 62 0;
#X connect 165 0 63 0;
#X connect 166 0 64 0;
#X connect 167 0 101 0;
#X connect 168 0 159 0;
#X connect 169 0 159 0;
#X connect 170 0 159 0;
#X connect 171 0 159 0;
#X connect 172 0 159 0;
#X connect 173 0 159 0;
#X connect 174 0 159 0;
#X connect 175 0 159 0;
#X connect 176 0 159 0;
#X connect 177 0 155 0;
#X connect 178 0 168 0;
#X connect 179 0 172 0;
#X connect 180 0 156 0;
#X connect 181 0 173 0;
#X connect 182 0 174 0;
#X connect 183 0 175 0;
#X connect 184 0 176 0;
#X connect 185 0 169 0;
#X connect 186 0 170 0;
#X connect 187 0 171 0;
#X connect 188 0 12 0;
#X connect 189 0 13 0;
#X connect 190 0 14 0;
#X connect 191 0 158 0;
#X connect 199 0 214 0;
#X connect 199 1 193 0;
#X connect 199 1 194 0;
#X connect 211 0 99 0;
#X connect 212 0 211 0;
#X connect 214 0 195 0;
#X connect 214 0 200 0;
#X connect 214 1 196 0;
#X connect 214 2 197 0;
#X connect 214 3 198 0;
#X connect 214 3 201 0;
#X connect 214 4 202 0;
#X connect 214 5 203 0;
#X connect 214 6 204 0;
#X connect 214 7 205 0;
#X connect 214 8 206 0;
#X connect 214 9 207 0;
#X connect 214 10 208 0;
#X connect 214 11 209 0;
#X connect 214 12 210 0;
#X connect 214 13 213 0;
#X connect 214 14 215 0;
#X connect 217 0 218 0;
#X connect 218 0 99 0;
#X coords 0 -1 1 1 90 100 2 900 400;
