#N canvas -8 -8 1366 726 10;
#N canvas 109 702 450 300 table 0;
#N canvas 169 114 450 300 (subpatch) 0;
#X array \$0-table23 2000 float 0;
#X coords 0 1.02 1999 -1.02 200 130 1 0 0;
#X restore 45 -131 graph;
#X restore 216 195 pd table;
#X obj 155 -184 r loop_in_ms;
#X floatatom 176 -161 5 0 0 0 - - -;
#X floatatom 192 -110 5 0 0 0 - - -;
#X obj 163 -129 / 8;
#X obj 168 -65 * 2;
#X floatatom 293 -152 5 0 0 0 - - -;
#X obj 164 -42 pack f f;
#X obj 118 -130 bng 15 250 50 0 empty empty empty 17 7 0 10 -262144
-1 -1;
#X msg 175 9 7500 3750;
#X msg 175 -21 set \$1 \$2;
#X obj 265 -67 * 3;
#X obj 262 -41 pack f f;
#X msg 273 10 11250 3750;
#X msg 273 -20 set \$1 \$2;
#X obj 219 -40 bng 15 250 50 0 empty empty empty 17 7 0 10 -262144
-1 -1;
#X obj 319 -39 bng 15 250 50 0 empty empty empty 17 7 0 10 -262144
-1 -1;
#X obj 347 -43 pack f f;
#X msg 358 8 15000 3750;
#X msg 358 -22 set \$1 \$2;
#X obj 108 74 pack f f;
#X msg 119 125 18750 3750;
#X msg 119 95 set \$1 \$2;
#X obj 402 -41 bng 15 250 50 0 empty empty empty 17 7 0 10 -262144
-1 -1;
#X obj 165 76 bng 15 250 50 0 empty empty empty 17 7 0 10 -262144 -1
-1;
#X obj 350 -69 * 4;
#X obj 111 48 * 5;
#X msg 98 12 1 3750;
#X obj 144 -37 bng 15 250 50 0 empty empty empty 17 7 0 10 -262144
-1 -1;
#X obj 209 69 pack f f;
#X msg 220 120 22500 3750;
#X msg 220 90 set \$1 \$2;
#X obj 307 70 pack f f;
#X msg 318 121 26250 3750;
#X msg 318 91 set \$1 \$2;
#X obj 264 71 bng 15 250 50 0 empty empty empty 17 7 0 10 -262144 -1
-1;
#X obj 364 72 bng 15 250 50 0 empty empty empty 17 7 0 10 -262144 -1
-1;
#X obj 392 68 pack f f;
#X msg 403 119 30000 3750;
#X msg 403 89 set \$1 \$2;
#X obj 447 70 bng 15 250 50 0 empty empty empty 17 7 0 10 -262144 -1
-1;
#X obj 213 46 * 6;
#X obj 310 44 * 7;
#X obj 395 42 * 8;
#X obj 198 328 tabplay~ \$0-table23;
#X obj 349 -119 route 53 56 63 55 64 58 60 62;
#X msg 80 -93 265456;
#X msg 98 -18 set 1 \$1;
#X obj 359 -156 inlet;
#X obj 186 261 spigot 1;
#X obj 227 399 dac~;
#X connect 1 0 2 0;
#X connect 1 0 4 0;
#X connect 4 0 3 0;
#X connect 4 0 5 0;
#X connect 4 0 7 1;
#X connect 4 0 11 0;
#X connect 4 0 47 0;
#X connect 4 0 25 0;
#X connect 4 0 26 0;
#X connect 4 0 41 0;
#X connect 4 0 42 0;
#X connect 4 0 43 0;
#X connect 4 0 12 1;
#X connect 4 0 17 1;
#X connect 4 0 20 1;
#X connect 4 0 29 1;
#X connect 4 0 32 1;
#X connect 4 0 37 1;
#X connect 5 0 6 0;
#X connect 6 0 7 0;
#X connect 7 0 10 0;
#X connect 8 0 4 0;
#X connect 9 0 49 0;
#X connect 10 0 9 0;
#X connect 11 0 12 0;
#X connect 12 0 14 0;
#X connect 13 0 49 0;
#X connect 14 0 13 0;
#X connect 15 0 9 0;
#X connect 16 0 13 0;
#X connect 17 0 19 0;
#X connect 18 0 49 0;
#X connect 19 0 18 0;
#X connect 20 0 22 0;
#X connect 21 0 49 0;
#X connect 22 0 21 0;
#X connect 23 0 18 0;
#X connect 24 0 21 0;
#X connect 25 0 17 0;
#X connect 26 0 20 0;
#X connect 27 0 49 0;
#X connect 28 0 27 0;
#X connect 29 0 31 0;
#X connect 30 0 49 0;
#X connect 31 0 30 0;
#X connect 32 0 34 0;
#X connect 33 0 49 0;
#X connect 34 0 33 0;
#X connect 35 0 30 0;
#X connect 36 0 33 0;
#X connect 37 0 39 0;
#X connect 38 0 49 0;
#X connect 39 0 38 0;
#X connect 40 0 38 0;
#X connect 41 0 29 0;
#X connect 42 0 32 0;
#X connect 43 0 37 0;
#X connect 44 0 50 0;
#X connect 44 0 50 1;
#X connect 45 0 28 0;
#X connect 45 1 15 0;
#X connect 45 2 16 0;
#X connect 45 3 23 0;
#X connect 45 4 24 0;
#X connect 45 5 35 0;
#X connect 45 6 36 0;
#X connect 45 7 40 0;
#X connect 46 0 4 0;
#X connect 47 0 27 0;
#X connect 48 0 45 0;
#X connect 49 0 44 0;
