#N canvas 0 42 1366 726 10;
#X declare -stdpath extra/moocow -lib pdstring;
#X obj 574 215 tgl 25 0 empty empty empty 17 7 0 10 -260097 -1 -1 0
1;
#X obj 548 240 tgl 25 0 empty empty empty 17 7 0 10 -262144 -1 -1 0
1;
#X obj 548 190 tgl 25 0 empty empty empty 17 7 0 10 -262144 -1 -1 0
1;
#X obj 522 215 tgl 25 0 empty empty empty 17 7 0 10 -260097 -1 -1 0
1;
#X obj 660 108 vsl 30 128 1 0 0 0 empty empty empty 0 -9 0 10 -258113
-1 -1 0 1;
#X obj 695 109 vsl 30 128 1 0 0 0 empty empty empty 0 -9 0 10 -258113
-1 -1 12700 1;
#X obj 730 109 vsl 30 128 1 0 0 0 empty empty empty 0 -9 0 10 -258113
-1 -1 0 1;
#X obj 623 108 vsl 30 128 1 0 0 0 empty empty empty 0 -9 0 10 -258113
-1 -1 0 1;
#X obj 803 519 s xaxisr;
#X obj 857 519 s yaxisr;
#X obj 913 519 s zaxisr;
#X obj 782 118 grid grid2 127 1 127 127 1 127 1 1 1 13 13 861.949 193.728
;
#X obj 909 117 vsl 15 127 1 127 0 0 empty empty empty 0 -9 0 10 -260097
-1 -1 7001 1;
#X obj 830 57 pack f f f;
#N canvas 229 189 450 300 accelerometer 0;
#X text 106 146 Accelerometer;
#X msg 51 164 goto \$1 \$2;
#X obj 51 145 pack 1 1;
#X obj 80 51 unpack f f f;
#X obj 53 126 * 127;
#X obj 104 127 * 127;
#X obj 80 27 inlet;
#X obj 51 190 outlet;
#X obj 152 195 outlet;
#X obj 151 127 * 127;
#X obj 158 51 s xlrmtr2;
#X connect 1 0 7 0;
#X connect 2 0 1 0;
#X connect 3 0 4 0;
#X connect 3 1 5 0;
#X connect 3 2 9 0;
#X connect 4 0 2 0;
#X connect 5 0 2 1;
#X connect 6 0 3 0;
#X connect 6 0 10 0;
#X connect 9 0 8 0;
#X restore 830 76 pd accelerometer;
#X obj 506 118 tgl 50 0 empty empty empty 17 7 0 10 -258113 -1 -1 0
1;
#X obj 572 119 tgl 50 0 empty empty empty 17 7 0 10 -4034 -1 -1 0 1
;
#X obj 557 119 tgl 15 0 empty empty empty 17 7 0 10 -260097 -1 -1 0
1;
#X obj 557 152 tgl 15 0 empty empty empty 17 7 0 10 -260097 -1 -1 0
1;
#N canvas 275 39 1366 726 RJB 0;
#X obj 162 46 sel 0 1;
#X msg 135 71 127 16 1;
#X msg 197 72 0 16 1;
#X obj 188 190 change;
#X obj 187 211 sel 0 1;
#X msg 165 236 127 17 1;
#X msg 225 236 0 17 1;
#X floatatom 212 47 5 0 0 0 - - -;
#N canvas 460 140 236 277 bk 0;
#X obj 99 39 tgl 15 0 empty empty empty 17 7 0 10 -262144 -1 -1 0 3
;
#X obj 88 113 tgl 15 0 empty empty empty 17 7 0 10 -262144 -1 -1 0
0.596351;
#X obj 62 44 * 3;
#X floatatom 27 51 5 0 0 0 - - -;
#X obj 59 9 inlet;
#X obj 98 244 outlet;
#X msg 98 219 1;
#X obj 44 84 threshold 3 0 2 0;
#X msg 127 219 0;
#X floatatom 45 169 5 0 0 0 - - -;
#X obj 96 141 * 2;
#X obj 98 193 sel 1 0;
#X obj 103 168 int;
#X connect 1 0 10 0;
#X connect 2 0 0 0;
#X connect 2 0 3 0;
#X connect 2 0 7 0;
#X connect 4 0 2 0;
#X connect 6 0 5 0;
#X connect 7 0 1 0;
#X connect 7 1 1 0;
#X connect 8 0 5 0;
#X connect 10 0 12 0;
#X connect 11 0 6 0;
#X connect 11 1 8 0;
#X connect 12 0 11 0;
#X connect 12 0 9 0;
#X restore 162 25 pd bk better;
#X text 248 48 comment;
#X obj 200 -7 s led64;
#X obj 257 -6 s led65;
#X obj 163 -37 r jrb2;
#X obj 216 -38 r jrb3;
#X obj 109 -37 r jrb1;
#X obj 269 -37 r jrb4;
#X obj 181 147 ctlout;
#X obj 986 201 ctlout 28;
#X obj 845 179 ctlout 21;
#X obj 985 179 ctlout 20;
#X obj 914 179 ctlout 22;
#N canvas 171 39 968 617 xlrmtr 0;
#X floatatom 11 324 5 0 0 0 - - -;
#X floatatom 83 324 5 0 0 0 - - -;
#X floatatom 153 321 5 0 0 0 - - -;
#X text 7 351 ctl20;
#X text 78 354 ctl21;
#X text 152 352 ctl22;
#X text 59 341 Up/down tilt;
#X text 0 341 L/R Tilt;
#X text 149 341 top/bttm;
#X floatatom 674 508 5 0 0 0 - - -;
#X obj 707 587 t b b;
#X obj 697 632 f;
#X obj 701 662 + 1;
#X obj 482 404 tgl 15 0 empty empty empty 17 7 0 10 -262144 -1 -1 0
1;
#X obj 662 688 * 127;
#X floatatom 659 604 5 0 0 0 - - -;
#X msg 731 616 1;
#X obj 482 423 bng 15 250 50 0 empty empty empty 17 7 0 10 -262144
-1 -1;
#X obj 32 690 outlet;
#X obj 325 693 outlet;
#X obj 589 693 outlet;
#X obj 706 687 outlet;
#X text 255 692 Y;
#X text 525 692 Z;
#X text 669 702 Z flip switch;
#X text -48 691 X;
#X obj 712 486 moses 126;
#X obj 712 537 < 126;
#X obj 709 508 - 126;
#X floatatom 89 440 5 0 0 0 - - -;
#X obj 122 519 t b b;
#X obj 112 564 f;
#X obj 116 594 + 1;
#X obj 349 405 tgl 15 0 empty empty empty 17 7 0 10 -262144 -1 -1 0
1;
#X obj 77 620 * 127;
#X floatatom 74 536 5 0 0 0 - - -;
#X msg 146 548 1;
#X obj 349 422 bng 15 250 50 0 empty empty empty 17 7 0 10 -262144
-1 -1;
#X floatatom 387 512 5 0 0 0 - - -;
#X obj 420 591 t b b;
#X obj 410 636 f;
#X obj 414 666 + 1;
#X obj 418 405 tgl 15 0 empty empty empty 17 7 0 10 -262144 -1 -1 0
1;
#X obj 375 692 * 127;
#X floatatom 372 608 5 0 0 0 - - -;
#X msg 444 620 1;
#X obj 418 423 bng 15 250 50 0 empty empty empty 17 7 0 10 -262144
-1 -1;
#X obj 129 496 delay 150;
#X obj 427 568 delay 150;
#X obj 714 564 delay 150;
#X obj 432 693 outlet;
#X obj 141 629 outlet;
#X text 112 706 x flip switch;
#X text 398 708 y flip switch;
#X floatatom -58 562 5 0 0 0 - - -;
#X obj -58 584 - 1;
#X floatatom -58 607 5 0 0 0 - - -;
#X obj -58 534 clip 2 1;
#X floatatom -3 623 5 0 0 0 - - -;
#X obj -3 575 t b b;
#X obj -3 598 f;
#X obj 303 422 bng 15 250 50 0 empty empty empty 17 7 0 10 -262144
-1 -1;
#X obj -3 534 sel 1;
#X obj -3 555 delay 100;
#X obj 303 403 tgl 15 0 empty empty empty 17 7 0 10 -262144 -1 -1 0
1;
#X obj -32 670 * 127;
#X obj -23 694 outlet;
#X floatatom 246 561 5 0 0 0 - - -;
#X obj 246 583 - 1;
#X floatatom 246 606 5 0 0 0 - - -;
#X obj 246 532 clip 2 1;
#X floatatom 301 622 5 0 0 0 - - -;
#X obj 301 574 t b b;
#X obj 301 597 f;
#X obj 367 423 bng 15 250 50 0 empty empty empty 17 7 0 10 -262144
-1 -1;
#X obj 301 533 sel 1;
#X obj 301 554 delay 100;
#X obj 368 405 tgl 15 0 empty empty empty 17 7 0 10 -262144 -1 -1 0
1;
#X obj 272 669 * 127;
#X obj 272 699 outlet;
#X floatatom 516 562 5 0 0 0 - - -;
#X obj 516 584 - 1;
#X floatatom 516 607 5 0 0 0 - - -;
#X obj 516 533 clip 2 1;
#X floatatom 571 623 5 0 0 0 - - -;
#X obj 571 575 t b b;
#X obj 571 598 f;
#X obj 439 423 bng 15 100 50 0 empty empty empty 17 7 0 10 -262144
-1 -1;
#X obj 571 534 sel 1;
#X obj 571 555 delay 100;
#X obj 437 405 tgl 15 0 empty empty empty 17 7 0 10 -262144 -1 -1 1
1;
#X obj 542 670 * 127;
#X obj 542 692 outlet;
#X obj -3 182 r xaxisr;
#X obj 51 182 r yaxisr;
#X obj 105 183 r zaxisr;
#X obj 508 383 s led50;
#X obj 508 401 s led51;
#X obj 508 419 s led52;
#X obj 508 437 s led53;
#X obj 508 455 s led54;
#X obj 508 473 s led55;
#N canvas 0 0 303 384 rangex 0;
#X obj 106 72 clip 36 96;
#X floatatom 107 102 5 0 0 0 - - -;
#X obj 107 124 - 36;
#X floatatom 108 151 5 0 0 0 - - -;
#X floatatom 109 224 5 0 0 0 - - -;
#X obj 109 196 int;
#X obj 108 176 * 2.2;
#X obj 109 247 clip 0 127;
#X floatatom 112 280 5 0 0 0 - - -;
#X text 146 100 range multiplier;
#X obj 107 40 inlet;
#X obj 115 317 outlet;
#X connect 0 0 1 0;
#X connect 1 0 2 0;
#X connect 2 0 3 0;
#X connect 3 0 6 0;
#X connect 4 0 7 0;
#X connect 5 0 4 0;
#X connect 6 0 5 0;
#X connect 7 0 8 0;
#X connect 8 0 11 0;
#X connect 10 0 0 0;
#X restore 20 652 pd rangex;
#N canvas 0 0 303 384 rangex 0;
#X obj 106 72 clip 36 96;
#X floatatom 107 102 5 0 0 0 - - -;
#X obj 107 124 - 36;
#X floatatom 108 151 5 0 0 0 - - -;
#X floatatom 109 224 5 0 0 0 - - -;
#X obj 109 196 int;
#X obj 108 176 * 2.2;
#X obj 109 247 clip 0 127;
#X floatatom 112 280 5 0 0 0 - - -;
#X text 146 100 range multiplier;
#X obj 107 40 inlet;
#X obj 115 317 outlet;
#X connect 0 0 1 0;
#X connect 1 0 2 0;
#X connect 2 0 3 0;
#X connect 3 0 6 0;
#X connect 4 0 7 0;
#X connect 5 0 4 0;
#X connect 6 0 5 0;
#X connect 7 0 8 0;
#X connect 8 0 11 0;
#X connect 10 0 0 0;
#X restore 229 627 pd rangex;
#X obj 436 452 tgl 15 0 empty empty empty 17 7 0 10 -262144 -1 -1 0
1;
#X obj 425 490 moses 123;
#X obj 422 512 - 123;
#X obj 425 541 < 123;
#X obj 129 277 sel 0 1;
#X msg 129 297 0;
#X msg 158 297 127;
#X obj 5 239 pack f f f;
#X obj 5 282 spigot;
#X obj 5 304 unpack f f f;
#X text -58 342 comment;
#X floatatom 88 290 5 0 0 0 - - -;
#X obj 93 238 change;
#X obj 90 260 > 0.8;
#X obj 95 216 r xlrmtr2a;
#X obj 127 418 moses 100;
#X obj 124 440 - 100;
#X obj 127 469 < 100;
#X obj 142 604 sel 0 2;
#X obj 194 606 * 127;
#X floatatom 163 576 5 0 0 0 - - -;
#X obj 207 629 bng 15 250 50 0 empty empty empty 17 7 0 10 -262144
-1 -1;
#X floatatom 231 255 5 0 0 0 - - -;
#X msg 111 653 0;
#X connect 0 0 57 0;
#X connect 0 0 102 0;
#X connect 0 0 119 0;
#X connect 1 0 105 0;
#X connect 1 0 103 0;
#X connect 1 0 70 0;
#X connect 2 0 26 0;
#X connect 9 0 20 0;
#X connect 10 0 11 0;
#X connect 10 1 16 0;
#X connect 11 0 12 0;
#X connect 12 0 17 0;
#X connect 13 0 14 0;
#X connect 13 0 100 0;
#X connect 14 0 21 0;
#X connect 16 0 11 1;
#X connect 17 0 13 0;
#X connect 26 0 9 0;
#X connect 26 1 27 0;
#X connect 27 0 15 0;
#X connect 27 0 49 0;
#X connect 28 0 27 0;
#X connect 30 0 31 0;
#X connect 30 1 36 0;
#X connect 31 0 32 0;
#X connect 32 0 37 0;
#X connect 32 0 122 0;
#X connect 32 0 124 0;
#X connect 33 0 34 0;
#X connect 33 0 99 0;
#X connect 36 0 31 1;
#X connect 37 0 33 0;
#X connect 39 0 40 0;
#X connect 39 1 45 0;
#X connect 40 0 41 0;
#X connect 41 0 46 0;
#X connect 42 0 43 0;
#X connect 42 0 97 0;
#X connect 43 0 79 0;
#X connect 45 0 40 1;
#X connect 46 0 42 0;
#X connect 47 0 30 0;
#X connect 48 0 39 0;
#X connect 49 0 10 0;
#X connect 54 0 55 0;
#X connect 55 0 56 0;
#X connect 56 0 62 0;
#X connect 57 0 54 0;
#X connect 58 0 61 0;
#X connect 59 0 60 0;
#X connect 60 0 58 0;
#X connect 61 0 64 0;
#X connect 62 0 63 0;
#X connect 63 0 59 0;
#X connect 64 0 65 0;
#X connect 64 0 96 0;
#X connect 65 0 66 0;
#X connect 67 0 68 0;
#X connect 68 0 69 0;
#X connect 69 0 75 0;
#X connect 70 0 67 0;
#X connect 71 0 74 0;
#X connect 72 0 73 0;
#X connect 73 0 71 0;
#X connect 74 0 77 0;
#X connect 75 0 76 0;
#X connect 76 0 72 0;
#X connect 77 0 78 0;
#X connect 77 0 98 0;
#X connect 78 0 50 0;
#X connect 80 0 81 0;
#X connect 81 0 82 0;
#X connect 82 0 88 0;
#X connect 83 0 80 0;
#X connect 84 0 87 0;
#X connect 85 0 86 0;
#X connect 86 0 84 0;
#X connect 87 0 90 0;
#X connect 88 0 89 0;
#X connect 89 0 85 0;
#X connect 90 0 91 0;
#X connect 90 0 101 0;
#X connect 91 0 92 0;
#X connect 93 0 111 0;
#X connect 94 0 111 1;
#X connect 95 0 83 0;
#X connect 95 0 111 2;
#X connect 102 0 18 0;
#X connect 103 0 19 0;
#X connect 105 0 38 0;
#X connect 105 1 107 0;
#X connect 106 0 107 0;
#X connect 107 0 44 0;
#X connect 107 0 48 0;
#X connect 108 0 109 0;
#X connect 108 1 110 0;
#X connect 109 0 79 0;
#X connect 109 0 50 0;
#X connect 109 0 21 0;
#X connect 109 0 66 0;
#X connect 109 0 92 0;
#X connect 110 0 66 0;
#X connect 111 0 112 0;
#X connect 112 0 113 0;
#X connect 113 0 0 0;
#X connect 113 1 1 0;
#X connect 113 2 2 0;
#X connect 116 0 117 0;
#X connect 117 0 108 0;
#X connect 117 0 115 0;
#X connect 118 0 116 0;
#X connect 118 0 112 1;
#X connect 118 0 126 0;
#X connect 119 0 29 0;
#X connect 119 1 121 0;
#X connect 120 0 121 0;
#X connect 121 0 35 0;
#X connect 121 0 47 0;
#X connect 122 0 127 0;
#X connect 122 1 123 0;
#X connect 122 1 125 0;
#X connect 123 0 51 0;
#X connect 127 0 51 0;
#X coords 0 -1 1 1 200 40 2 300 400;
#X restore 845 110 pd xlrmtr l ctrl;
#X text 851 90 |---x---| |---y----| |---z---|;
#X obj 845 158 ctlout 110;
#X obj 914 202 ctlout 111;
#N canvas 0 0 1366 726 xlrmtr 0;
#X floatatom 47 243 5 0 0 0 - - -;
#X floatatom 119 243 5 0 0 0 - - -;
#X floatatom 189 240 5 0 0 0 - - -;
#X text 48 268 ctl20;
#X text 119 271 ctl21;
#X text 193 269 ctl22;
#X text 95 260 Up/down tilt;
#X text 36 260 L/R Tilt;
#X text 185 260 top/bttm;
#X floatatom 762 449 5 0 0 0 - - -;
#X obj 795 528 t b b;
#X obj 785 573 f;
#X obj 789 603 + 1;
#X obj 482 403 tgl 15 0 empty empty empty 17 7 0 10 -262144 -1 -1 0
1;
#X obj 750 629 * 127;
#X floatatom 747 545 5 0 0 0 - - -;
#X msg 819 557 1;
#X obj 482 422 bng 15 250 50 0 empty empty empty 17 7 0 10 -262144
-1 -1;
#X obj 120 631 outlet;
#X obj 413 634 outlet;
#X obj 677 634 outlet;
#X obj 794 628 outlet;
#X text 343 633 Y;
#X text 613 633 Z;
#X text 757 643 Z flip switch;
#X text 40 632 X;
#X obj 800 427 moses 126;
#X obj 800 478 < 126;
#X obj 797 449 - 126;
#X floatatom 173 398 5 0 0 0 - - -;
#X obj 206 477 t b b;
#X obj 196 522 f;
#X obj 200 552 + 1;
#X obj 349 404 tgl 15 0 empty empty empty 17 7 0 10 -262144 -1 -1 0
1;
#X obj 162 570 * 127;
#X floatatom 169 545 5 0 0 0 - - -;
#X msg 230 506 1;
#X obj 349 421 bng 15 250 50 0 empty empty empty 17 7 0 10 -262144
-1 -1;
#X floatatom 475 453 5 0 0 0 - - -;
#X obj 508 532 t b b;
#X obj 498 577 f;
#X obj 502 607 + 1;
#X obj 418 404 tgl 15 0 empty empty empty 17 7 0 10 -262144 -1 -1 0
1;
#X obj 463 633 * 127;
#X floatatom 460 549 5 0 0 0 - - -;
#X msg 532 561 1;
#X obj 418 422 bng 15 250 50 0 empty empty empty 17 7 0 10 -262144
-1 -1;
#X obj 213 454 delay 150;
#X obj 515 509 delay 150;
#X obj 802 505 delay 150;
#X obj 520 634 outlet;
#X obj 237 632 outlet;
#X text 200 647 x flip switch;
#X text 486 649 y flip switch;
#X floatatom 30 503 5 0 0 0 - - -;
#X obj 30 525 - 1;
#X floatatom 30 548 5 0 0 0 - - -;
#X obj 30 475 clip 2 1;
#X floatatom 85 564 5 0 0 0 - - -;
#X obj 85 516 t b b;
#X obj 85 539 f;
#X obj 303 421 bng 15 250 50 0 empty empty empty 17 7 0 10 -262144
-1 -1;
#X obj 85 475 sel 1;
#X obj 85 496 delay 100;
#X obj 303 402 tgl 15 0 empty empty empty 17 7 0 10 -262144 -1 -1 0
1;
#X obj 56 611 * 127;
#X obj 65 635 outlet;
#X floatatom 334 502 5 0 0 0 - - -;
#X obj 334 524 - 1;
#X floatatom 334 547 5 0 0 0 - - -;
#X obj 334 473 clip 2 1;
#X floatatom 389 563 5 0 0 0 - - -;
#X obj 389 515 t b b;
#X obj 389 538 f;
#X obj 367 422 bng 15 250 50 0 empty empty empty 17 7 0 10 -262144
-1 -1;
#X obj 389 474 sel 1;
#X obj 389 495 delay 100;
#X obj 368 404 tgl 15 0 empty empty empty 17 7 0 10 -262144 -1 -1 0
1;
#X obj 360 610 * 127;
#X obj 360 632 outlet;
#X floatatom 604 503 5 0 0 0 - - -;
#X obj 604 525 - 1;
#X floatatom 604 548 5 0 0 0 - - -;
#X obj 604 474 clip 2 1;
#X floatatom 659 564 5 0 0 0 - - -;
#X obj 659 516 t b b;
#X obj 659 539 f;
#X obj 437 422 bng 15 100 50 0 empty empty empty 17 7 0 10 -262144
-1 -1;
#X obj 659 475 sel 1;
#X obj 437 404 tgl 15 0 empty empty empty 17 7 0 10 -262144 -1 -1 0
1;
#X obj 630 611 * 127;
#X obj 630 633 outlet;
#X obj 596 324 s led50;
#X obj 596 342 s led51;
#X obj 596 360 s led52;
#X obj 596 378 s led53;
#X obj 596 396 s led54;
#X obj 596 414 s led55;
#N canvas 0 0 303 384 rangex 0;
#X obj 106 72 clip 36 96;
#X floatatom 107 102 5 0 0 0 - - -;
#X obj 107 124 - 36;
#X floatatom 108 151 5 0 0 0 - - -;
#X floatatom 109 224 5 0 0 0 - - -;
#X obj 109 196 int;
#X obj 108 176 * 2.2;
#X obj 109 247 clip 0 127;
#X floatatom 112 280 5 0 0 0 - - -;
#X text 146 100 range multiplier;
#X obj 107 40 inlet;
#X obj 115 317 outlet;
#X connect 0 0 1 0;
#X connect 1 0 2 0;
#X connect 2 0 3 0;
#X connect 3 0 6 0;
#X connect 4 0 7 0;
#X connect 5 0 4 0;
#X connect 6 0 5 0;
#X connect 7 0 8 0;
#X connect 8 0 11 0;
#X connect 10 0 0 0;
#X restore 108 593 pd rangex;
#N canvas 0 0 303 384 rangex 0;
#X obj 106 72 clip 36 96;
#X floatatom 107 102 5 0 0 0 - - -;
#X obj 107 124 - 36;
#X floatatom 108 151 5 0 0 0 - - -;
#X floatatom 109 224 5 0 0 0 - - -;
#X obj 109 196 int;
#X obj 108 176 * 2.2;
#X obj 109 247 clip 0 127;
#X floatatom 112 280 5 0 0 0 - - -;
#X text 146 100 range multiplier;
#X obj 107 40 inlet;
#X obj 115 317 outlet;
#X connect 0 0 1 0;
#X connect 1 0 2 0;
#X connect 2 0 3 0;
#X connect 3 0 6 0;
#X connect 4 0 7 0;
#X connect 5 0 4 0;
#X connect 6 0 5 0;
#X connect 7 0 8 0;
#X connect 8 0 11 0;
#X connect 10 0 0 0;
#X restore 261 541 pd rangex;
#X obj 524 393 tgl 15 0 empty empty empty 17 7 0 10 -262144 -1 -1 0
1;
#X obj 217 193 sel 0 1;
#X msg 217 213 0;
#X msg 246 213 127;
#X obj 513 431 moses 123;
#X obj 510 453 - 123;
#X obj 513 482 < 123;
#X obj 93 155 pack f f f;
#X obj 93 198 spigot;
#X obj 93 220 unpack f f f;
#X obj 659 496 delay 200;
#X floatatom 585 155 5 0 0 0 - - -;
#X obj 562 155 int;
#X obj 562 137 average 10;
#X obj 563 172 change;
#X floatatom 603 173 5 0 0 0 - - -;
#X floatatom 511 154 5 0 0 0 - - -;
#X obj 488 154 int;
#X obj 488 137 average 10;
#X obj 489 171 change;
#X floatatom 529 172 5 0 0 0 - - -;
#X floatatom 438 153 5 0 0 0 - - -;
#X obj 415 135 average 10;
#X obj 416 170 change;
#X floatatom 456 171 5 0 0 0 - - -;
#X obj 92 135 r xaxisr;
#X obj 146 135 r yaxisr;
#X obj 201 135 r zaxisr;
#X floatatom 161 206 5 0 0 0 - - -;
#X obj 161 176 > 0.8;
#X obj 159 156 r xlrmtr1a;
#X obj 286 244 bng 15 250 50 0 empty empty empty 17 7 0 10 -262144
-1 -1;
#X obj 172 652 bng 15 250 50 0 empty empty empty 17 7 0 10 -262144
-1 -1;
#X obj 211 376 moses 100;
#X obj 208 398 - 100;
#X obj 214 427 < 100;
#X floatatom 248 577 5 0 0 0 - - -;
#X obj 207 603 sel 0 2;
#X obj 259 602 * 127;
#X connect 0 0 98 0;
#X connect 0 0 57 0;
#X connect 0 0 133 0;
#X connect 1 0 104 0;
#X connect 1 0 70 0;
#X connect 1 0 99 0;
#X connect 2 0 26 0;
#X connect 2 0 83 0;
#X connect 9 0 20 0;
#X connect 10 0 11 0;
#X connect 10 1 16 0;
#X connect 11 0 12 0;
#X connect 12 0 17 0;
#X connect 13 0 14 0;
#X connect 13 0 96 0;
#X connect 14 0 21 0;
#X connect 16 0 11 1;
#X connect 17 0 13 0;
#X connect 26 0 9 0;
#X connect 26 1 27 0;
#X connect 27 0 15 0;
#X connect 27 0 49 0;
#X connect 28 0 27 0;
#X connect 30 0 31 0;
#X connect 30 1 36 0;
#X connect 31 0 32 0;
#X connect 32 0 136 0;
#X connect 32 0 137 0;
#X connect 33 0 34 0;
#X connect 33 0 95 0;
#X connect 34 0 132 0;
#X connect 36 0 31 1;
#X connect 37 0 33 0;
#X connect 39 0 40 0;
#X connect 39 1 45 0;
#X connect 40 0 41 0;
#X connect 41 0 46 0;
#X connect 42 0 43 0;
#X connect 42 0 93 0;
#X connect 43 0 50 0;
#X connect 45 0 40 1;
#X connect 46 0 42 0;
#X connect 47 0 30 0;
#X connect 48 0 39 0;
#X connect 49 0 10 0;
#X connect 54 0 55 0;
#X connect 55 0 56 0;
#X connect 56 0 62 0;
#X connect 57 0 54 0;
#X connect 58 0 61 0;
#X connect 59 0 60 0;
#X connect 60 0 58 0;
#X connect 61 0 64 0;
#X connect 62 0 63 0;
#X connect 63 0 59 0;
#X connect 64 0 65 0;
#X connect 64 0 92 0;
#X connect 65 0 66 0;
#X connect 67 0 68 0;
#X connect 68 0 69 0;
#X connect 69 0 75 0;
#X connect 70 0 67 0;
#X connect 71 0 74 0;
#X connect 72 0 73 0;
#X connect 73 0 71 0;
#X connect 74 0 77 0;
#X connect 75 0 76 0;
#X connect 76 0 72 0;
#X connect 77 0 78 0;
#X connect 77 0 94 0;
#X connect 78 0 79 0;
#X connect 80 0 81 0;
#X connect 81 0 82 0;
#X connect 82 0 88 0;
#X connect 83 0 80 0;
#X connect 84 0 87 0;
#X connect 85 0 86 0;
#X connect 86 0 84 0;
#X connect 87 0 89 0;
#X connect 88 0 110 0;
#X connect 89 0 90 0;
#X connect 89 0 97 0;
#X connect 90 0 91 0;
#X connect 98 0 18 0;
#X connect 99 0 19 0;
#X connect 101 0 102 0;
#X connect 101 1 103 0;
#X connect 102 0 66 0;
#X connect 102 0 50 0;
#X connect 102 0 79 0;
#X connect 102 0 21 0;
#X connect 102 0 91 0;
#X connect 103 0 131 0;
#X connect 104 0 38 0;
#X connect 104 1 106 0;
#X connect 105 0 106 0;
#X connect 106 0 44 0;
#X connect 106 0 48 0;
#X connect 107 0 108 0;
#X connect 108 0 109 0;
#X connect 109 0 0 0;
#X connect 109 1 1 0;
#X connect 109 2 2 0;
#X connect 110 0 85 0;
#X connect 112 0 111 0;
#X connect 112 0 114 0;
#X connect 113 0 112 0;
#X connect 114 0 115 0;
#X connect 117 0 116 0;
#X connect 117 0 119 0;
#X connect 118 0 117 0;
#X connect 119 0 120 0;
#X connect 123 0 124 0;
#X connect 125 0 107 0;
#X connect 126 0 107 1;
#X connect 127 0 107 2;
#X connect 129 0 108 1;
#X connect 129 0 101 0;
#X connect 130 0 128 0;
#X connect 130 0 129 0;
#X connect 133 0 29 0;
#X connect 133 1 135 0;
#X connect 134 0 135 0;
#X connect 135 0 35 0;
#X connect 135 0 47 0;
#X connect 137 1 37 0;
#X connect 137 1 138 0;
#X connect 138 0 51 0;
#X coords 0 -1 1 1 200 40 2 300 400;
#X restore 402 112 pd xlrmtr l ctrl;
#X text 410 95 |---x---| |---y----| |---z---|;
#X text 448 79 Pre-FX;
#X text 915 80 Post-FX;
#X obj 399 158 ctlout 112;
#X obj 399 178 ctlout 113;
#X obj 478 177 ctlout 114;
#X obj 552 157 ctlout 115;
#X obj 552 177 ctlout 116;
#X obj 553 197 ctlout 117;
#X text 491 79 RJB-FORWARD;
#X obj 267 164 s xlrmtr2a;
#X obj 400 200 ctlout 118;
#X obj 847 198 ctlout 118;
#X obj 87 168 s xlrmtr1a;
#N canvas 24 42 1280 726 xlrmtr 0;
#X floatatom -41 301 5 0 0 0 - - -;
#X floatatom 31 301 5 0 0 0 - - -;
#X floatatom 101 298 5 0 0 0 - - -;
#X text -40 326 ctl20;
#X text 31 329 ctl21;
#X text 105 327 ctl22;
#X text 7 318 Up/down tilt;
#X text -52 318 L/R Tilt;
#X text 97 318 top/bttm;
#X floatatom 674 507 5 0 0 0 - - -;
#X obj 707 586 t b b;
#X obj 697 631 f;
#X obj 701 661 + 1;
#X obj 482 403 tgl 15 0 empty empty empty 17 7 0 10 -262144 -1 -1 0
1;
#X obj 662 687 * 127;
#X floatatom 659 603 5 0 0 0 - - -;
#X msg 731 615 1;
#X obj 482 422 bng 15 250 50 0 empty empty empty 17 7 0 10 -262144
-1 -1;
#X obj 32 689 outlet;
#X obj 325 692 outlet;
#X obj 589 692 outlet;
#X obj 706 686 outlet;
#X text 255 691 Y;
#X text 525 691 Z;
#X text 669 701 Z flip switch;
#X text -48 690 X;
#X obj 712 485 moses 126;
#X obj 712 536 < 126;
#X obj 709 507 - 126;
#X floatatom 85 456 5 0 0 0 - - -;
#X obj 118 535 t b b;
#X obj 108 580 f;
#X obj 112 610 + 1;
#X obj 349 404 tgl 15 0 empty empty empty 17 7 0 10 -262144 -1 -1 0
1;
#X obj 74 628 * 127;
#X floatatom 81 603 5 0 0 0 - - -;
#X msg 142 564 1;
#X obj 349 421 bng 15 250 50 0 empty empty empty 17 7 0 10 -262144
-1 -1;
#X floatatom 387 511 5 0 0 0 - - -;
#X obj 420 590 t b b;
#X obj 410 635 f;
#X obj 414 665 + 1;
#X obj 418 404 tgl 15 0 empty empty empty 17 7 0 10 -262144 -1 -1 0
1;
#X obj 375 691 * 127;
#X floatatom 372 607 5 0 0 0 - - -;
#X msg 444 619 1;
#X obj 418 422 bng 15 250 50 0 empty empty empty 17 7 0 10 -262144
-1 -1;
#X obj 125 512 delay 150;
#X obj 427 567 delay 150;
#X obj 714 563 delay 150;
#X obj 432 692 outlet;
#X obj 149 690 outlet;
#X text 112 705 x flip switch;
#X text 398 707 y flip switch;
#X floatatom -58 561 5 0 0 0 - - -;
#X obj -58 583 - 1;
#X floatatom -58 606 5 0 0 0 - - -;
#X obj -58 533 clip 2 1;
#X floatatom -3 622 5 0 0 0 - - -;
#X obj -3 574 t b b;
#X obj -3 597 f;
#X obj 303 421 bng 15 250 50 0 empty empty empty 17 7 0 10 -262144
-1 -1;
#X obj -3 533 sel 1;
#X obj -3 554 delay 100;
#X obj 303 402 tgl 15 0 empty empty empty 17 7 0 10 -262144 -1 -1 0
1;
#X obj -32 669 * 127;
#X obj -23 693 outlet;
#X floatatom 246 560 5 0 0 0 - - -;
#X obj 246 582 - 1;
#X floatatom 246 605 5 0 0 0 - - -;
#X obj 246 531 clip 2 1;
#X floatatom 301 621 5 0 0 0 - - -;
#X obj 301 573 t b b;
#X obj 301 596 f;
#X obj 367 422 bng 15 250 50 0 empty empty empty 17 7 0 10 -262144
-1 -1;
#X obj 301 532 sel 1;
#X obj 301 553 delay 100;
#X obj 368 404 tgl 15 0 empty empty empty 17 7 0 10 -262144 -1 -1 0
1;
#X obj 272 668 * 127;
#X obj 272 690 outlet;
#X floatatom 516 561 5 0 0 0 - - -;
#X obj 516 583 - 1;
#X floatatom 516 606 5 0 0 0 - - -;
#X obj 516 532 clip 2 1;
#X floatatom 571 622 5 0 0 0 - - -;
#X obj 571 574 t b b;
#X obj 571 597 f;
#X obj 437 422 bng 15 100 50 0 empty empty empty 17 7 0 10 -262144
-1 -1;
#X obj 571 533 sel 1;
#X obj 437 404 tgl 15 0 empty empty empty 17 7 0 10 -262144 -1 -1 0
1;
#X obj 542 669 * 127;
#X obj 542 691 outlet;
#X obj 508 382 s led50;
#X obj 508 400 s led51;
#X obj 508 418 s led52;
#X obj 508 436 s led53;
#X obj 508 454 s led54;
#X obj 508 472 s led55;
#N canvas 0 0 303 384 rangex 0;
#X obj 106 72 clip 36 96;
#X floatatom 107 102 5 0 0 0 - - -;
#X obj 107 124 - 36;
#X floatatom 108 151 5 0 0 0 - - -;
#X floatatom 109 224 5 0 0 0 - - -;
#X obj 109 196 int;
#X obj 108 176 * 2.2;
#X obj 109 247 clip 0 127;
#X floatatom 112 280 5 0 0 0 - - -;
#X text 146 100 range multiplier;
#X obj 107 40 inlet;
#X obj 115 317 outlet;
#X connect 0 0 1 0;
#X connect 1 0 2 0;
#X connect 2 0 3 0;
#X connect 3 0 6 0;
#X connect 4 0 7 0;
#X connect 5 0 4 0;
#X connect 6 0 5 0;
#X connect 7 0 8 0;
#X connect 8 0 11 0;
#X connect 10 0 0 0;
#X restore 20 651 pd rangex;
#N canvas 0 0 303 384 rangex 0;
#X obj 106 72 clip 36 96;
#X floatatom 107 102 5 0 0 0 - - -;
#X obj 107 124 - 36;
#X floatatom 108 151 5 0 0 0 - - -;
#X floatatom 109 224 5 0 0 0 - - -;
#X obj 109 196 int;
#X obj 108 176 * 2.2;
#X obj 109 247 clip 0 127;
#X floatatom 112 280 5 0 0 0 - - -;
#X text 146 100 range multiplier;
#X obj 107 40 inlet;
#X obj 115 317 outlet;
#X connect 0 0 1 0;
#X connect 1 0 2 0;
#X connect 2 0 3 0;
#X connect 3 0 6 0;
#X connect 4 0 7 0;
#X connect 5 0 4 0;
#X connect 6 0 5 0;
#X connect 7 0 8 0;
#X connect 8 0 11 0;
#X connect 10 0 0 0;
#X restore 173 599 pd rangex;
#X obj 436 451 tgl 15 0 empty empty empty 17 7 0 10 -262144 -1 -1 0
1;
#X obj 129 251 sel 0 1;
#X msg 129 271 0;
#X msg 158 271 127;
#X obj 425 489 moses 123;
#X obj 422 511 - 123;
#X obj 425 540 < 123;
#X obj 5 213 pack f f f;
#X obj 5 278 unpack f f f;
#X obj 571 554 delay 200;
#X floatatom 497 213 5 0 0 0 - - -;
#X obj 474 213 int;
#X obj 474 195 average 10;
#X obj 475 230 change;
#X floatatom 515 231 5 0 0 0 - - -;
#X floatatom 423 212 5 0 0 0 - - -;
#X obj 400 212 int;
#X obj 400 195 average 10;
#X obj 401 229 change;
#X floatatom 441 230 5 0 0 0 - - -;
#X floatatom 350 211 5 0 0 0 - - -;
#X obj 327 193 average 10;
#X obj 328 228 change;
#X floatatom 368 229 5 0 0 0 - - -;
#X obj 4 193 r xaxisr;
#X obj 58 193 r yaxisr;
#X obj 113 193 r zaxisr;
#X floatatom 73 264 5 0 0 0 - - -;
#X obj 87 239 > 0.8;
#X obj 198 302 bng 15 250 50 0 empty empty empty 17 7 0 10 -262144
-1 -1;
#X obj 84 710 bng 15 250 50 0 empty empty empty 17 7 0 10 -262144 -1
-1;
#X obj 123 434 moses 100;
#X obj 120 456 - 100;
#X obj 126 485 < 100;
#X floatatom 160 635 5 0 0 0 - - -;
#X obj 119 661 sel 0 2;
#X obj 171 660 * 127;
#X obj 24 245 spigot;
#X obj 71 214 r jru2;
#X connect 0 0 98 0;
#X connect 0 0 57 0;
#X connect 0 0 131 0;
#X connect 1 0 104 0;
#X connect 1 0 70 0;
#X connect 1 0 99 0;
#X connect 2 0 26 0;
#X connect 2 0 83 0;
#X connect 9 0 20 0;
#X connect 10 0 11 0;
#X connect 10 1 16 0;
#X connect 11 0 12 0;
#X connect 12 0 17 0;
#X connect 13 0 14 0;
#X connect 13 0 96 0;
#X connect 14 0 21 0;
#X connect 16 0 11 1;
#X connect 17 0 13 0;
#X connect 26 0 9 0;
#X connect 26 1 27 0;
#X connect 27 0 15 0;
#X connect 27 0 49 0;
#X connect 28 0 27 0;
#X connect 30 0 31 0;
#X connect 30 1 36 0;
#X connect 31 0 32 0;
#X connect 32 0 134 0;
#X connect 32 0 135 0;
#X connect 33 0 34 0;
#X connect 33 0 95 0;
#X connect 34 0 130 0;
#X connect 36 0 31 1;
#X connect 37 0 33 0;
#X connect 39 0 40 0;
#X connect 39 1 45 0;
#X connect 40 0 41 0;
#X connect 41 0 46 0;
#X connect 42 0 43 0;
#X connect 42 0 93 0;
#X connect 43 0 50 0;
#X connect 45 0 40 1;
#X connect 46 0 42 0;
#X connect 47 0 30 0;
#X connect 48 0 39 0;
#X connect 49 0 10 0;
#X connect 54 0 55 0;
#X connect 55 0 56 0;
#X connect 56 0 62 0;
#X connect 57 0 54 0;
#X connect 58 0 61 0;
#X connect 59 0 60 0;
#X connect 60 0 58 0;
#X connect 61 0 64 0;
#X connect 62 0 63 0;
#X connect 63 0 59 0;
#X connect 64 0 65 0;
#X connect 64 0 92 0;
#X connect 65 0 66 0;
#X connect 67 0 68 0;
#X connect 68 0 69 0;
#X connect 69 0 75 0;
#X connect 70 0 67 0;
#X connect 71 0 74 0;
#X connect 72 0 73 0;
#X connect 73 0 71 0;
#X connect 74 0 77 0;
#X connect 75 0 76 0;
#X connect 76 0 72 0;
#X connect 77 0 78 0;
#X connect 77 0 94 0;
#X connect 78 0 79 0;
#X connect 80 0 81 0;
#X connect 81 0 82 0;
#X connect 82 0 88 0;
#X connect 83 0 80 0;
#X connect 84 0 87 0;
#X connect 85 0 86 0;
#X connect 86 0 84 0;
#X connect 87 0 89 0;
#X connect 88 0 109 0;
#X connect 89 0 90 0;
#X connect 89 0 97 0;
#X connect 90 0 91 0;
#X connect 98 0 18 0;
#X connect 99 0 19 0;
#X connect 101 0 102 0;
#X connect 101 1 103 0;
#X connect 102 0 66 0;
#X connect 102 0 50 0;
#X connect 102 0 79 0;
#X connect 102 0 21 0;
#X connect 102 0 91 0;
#X connect 103 0 129 0;
#X connect 104 0 38 0;
#X connect 104 1 106 0;
#X connect 105 0 106 0;
#X connect 106 0 44 0;
#X connect 106 0 48 0;
#X connect 107 0 108 0;
#X connect 108 0 0 0;
#X connect 108 1 1 0;
#X connect 108 2 2 0;
#X connect 109 0 85 0;
#X connect 111 0 110 0;
#X connect 111 0 113 0;
#X connect 112 0 111 0;
#X connect 113 0 114 0;
#X connect 116 0 115 0;
#X connect 116 0 118 0;
#X connect 117 0 116 0;
#X connect 118 0 119 0;
#X connect 122 0 123 0;
#X connect 124 0 107 0;
#X connect 125 0 107 1;
#X connect 126 0 107 2;
#X connect 128 0 101 0;
#X connect 128 0 137 1;
#X connect 131 0 29 0;
#X connect 131 1 133 0;
#X connect 132 0 133 0;
#X connect 133 0 35 0;
#X connect 133 0 47 0;
#X connect 135 1 37 0;
#X connect 135 1 136 0;
#X connect 136 0 51 0;
#X connect 137 0 108 0;
#X connect 138 0 127 0;
#X connect 138 0 137 1;
#X connect 138 0 101 0;
#X coords 0 -1 1 1 200 40 2 300 400;
#X restore 615 111 pd xlrmtr l ctrl;
#X text 673 85 Non-Latched;
#X obj 622 165 ctlout 119;
#X obj 624 185 ctlout 121;
#X obj 692 189 ctlout 122;
#X obj 764 168 ctlout 123;
#X obj 761 189 ctlout 124;
#X connect 0 0 1 0;
#X connect 0 1 2 0;
#X connect 1 0 16 0;
#X connect 2 0 16 0;
#X connect 3 0 4 0;
#X connect 4 0 5 0;
#X connect 4 1 6 0;
#X connect 5 0 16 0;
#X connect 6 0 16 0;
#X connect 8 0 0 0;
#X connect 8 0 7 0;
#X connect 12 0 8 0;
#X connect 13 0 3 0;
#X connect 14 0 10 0;
#X connect 15 0 11 0;
#X connect 15 0 36 0;
#X connect 21 0 23 0;
#X connect 21 1 18 0;
#X connect 21 2 38 0;
#X connect 21 4 20 0;
#X connect 21 5 24 0;
#X connect 21 7 19 0;
#X connect 21 8 17 0;
#X connect 25 0 29 0;
#X connect 25 1 30 0;
#X connect 25 2 37 0;
#X connect 25 4 31 0;
#X connect 25 6 32 0;
#X connect 25 7 33 0;
#X connect 25 8 34 0;
#X connect 40 1 42 0;
#X connect 40 2 43 0;
#X connect 40 4 44 0;
#X connect 40 7 46 0;
#X connect 40 8 45 0;
#X coords 0 -1 1 1 650 80 2 400 80;
#X restore 421 268 pd RJB controlmatrix;
#X obj 356 82 r rjuforward;
#X obj 433 81 r rjuback;
#X obj 493 81 r rjuup;
#X obj 541 81 r rjudown;
#X text 554 134 UR;
#X text 549 217 BR;
#X text 557 117 2;
#X text 556 150 3;
#X text 552 192 2;
#X text 553 244 3;
#X text 524 131 1;
#X text 596 134 4;
#X text 525 218 1;
#X text 578 218 4;
#X obj 612 77 change;
#X obj 654 77 change;
#X obj 699 75 change;
#X obj 747 76 change;
#X obj 566 522 s frange5;
#X obj 626 522 s frange6;
#X obj 686 523 s frange7;
#X obj 745 522 s frange8;
#X obj 770 35 bjcright;
#X floatatom 730 244 5 0 0 0 - - -;
#X obj 995 109 s xlrmtr2;
#X floatatom 626 243 5 0 0 0 - - -;
#X floatatom 695 244 5 0 0 0 - - -;
#X floatatom 661 243 5 0 0 0 - - -;
#X obj 543 61 r jrb4;
#X obj 490 60 r jrb3;
#X obj 437 61 r jrb2;
#X obj 383 61 r jrb1;
#X obj 827 35 r xrz;
#X obj 868 36 r xrx;
#X obj 905 37 r xry;
#X obj 611 56 r fr1;
#X obj 653 58 r fr3;
#X obj 697 55 r fr4;
#X obj 748 56 r fr2;
#X connect 4 0 41 0;
#X connect 4 0 47 0;
#X connect 5 0 39 0;
#X connect 5 0 46 0;
#X connect 6 0 38 0;
#X connect 6 0 43 0;
#X connect 7 0 40 0;
#X connect 7 0 45 0;
#X connect 11 0 8 0;
#X connect 11 1 9 0;
#X connect 12 0 10 0;
#X connect 13 0 14 0;
#X connect 13 0 44 0;
#X connect 14 0 11 0;
#X connect 14 1 12 0;
#X connect 20 0 15 0;
#X connect 21 0 17 0;
#X connect 22 0 18 0;
#X connect 23 0 16 0;
#X connect 34 0 6 0;
#X connect 35 0 5 0;
#X connect 36 0 7 0;
#X connect 37 0 4 0;
#X connect 48 0 0 0;
#X connect 49 0 1 0;
#X connect 50 0 2 0;
#X connect 51 0 3 0;
#X connect 52 0 13 0;
#X connect 53 0 13 1;
#X connect 54 0 13 2;
#X connect 55 0 34 0;
#X connect 56 0 35 0;
#X connect 57 0 36 0;
#X connect 58 0 37 0;
#X coords 0 -1 1 1 700 250 1 400 100;
