#N canvas 4 55 450 300 10;
#X declare -lib mrpeach;
#N canvas 177 317 738 564 netreceive 1;
#X floatatom -328 506 5 0 0 0 - - -;
#X floatatom -214 99 5 0 0 0 - - -;
#X obj -109 47 import mrpeach;
#X obj -109 7 bng 15 250 50 0 empty empty empty 17 7 0 10 -262144 -1
-1;
#X floatatom -269 485 5 0 0 0 - - -;
#X obj -332 89 netreceive 13002;
#X obj -334 120 route 1 2 3 4 5 6 7 8 9 10 11 12 13 14 15 16 17 18
19;
#X obj -253 267 s yaxis;
#X obj -353 267 s xaxis;
#X obj -301 268 s zaxis;
#X obj -202 268 s xaxisr;
#X obj -148 268 s yaxisr;
#X obj -92 268 s zaxisr;
#X obj -352 291 s r;
#X obj -325 291 s g;
#X obj -300 292 s b;
#X obj -312 323 s note;
#X obj -268 322 s breath;
#X obj -268 292 s jlb1;
#X obj -226 292 s jlb2;
#X obj -184 292 s jlb3;
#X obj -142 292 s jlb4;
#X obj -54 325 s jlu4;
#X obj -97 326 s jlu3;
#X obj -142 326 s jlu2;
#X obj -188 325 s jlu1;
#X obj -310 391 s jrb1;
#X obj -257 388 s jrb2;
#X obj -203 390 s jrb3;
#X obj -150 391 s jrb4;
#X obj -83 389 s rjuforward;
#X obj -6 388 s rjuback;
#X obj 54 388 s rjuup;
#X obj 102 388 s rjudown;
#X floatatom -353 381 5 0 0 0 - - -;
#X obj -396 325 unpack f f f;
#X connect 3 0 2 0;
#X connect 5 0 6 0;
#X connect 5 1 1 0;
#X connect 6 0 34 0;
#X connect 6 1 0 0;
#X connect 6 2 4 0;
#X restore 184 81 pd netreceive;
