#N canvas -176 65 1024 703 10;
#X obj 328 201 tgl 15 0 empty empty empty 17 7 0 10 -262144 -1 -1 0
1;
#X obj 271 159 moses 0.97;
#X obj 271 203 spigot;
#X obj 271 246 tgl 15 0 empty empty empty 17 7 0 10 -262144 -1 -1 0
1;
#X obj 344 265 s stop1;
#X msg 414 217 0;
#X obj 379 200 sel 0;
#X floatatom 414 200 5 0 0 0 - - -;
#X floatatom 346 201 5 0 0 0 - - -;
#X obj 329 181 > 0.985;
#X obj 271 41 inlet frange;
#X floatatom 239 202 5 0 0 0 - - -;
#X obj 395 265 s \$0-textoff;
#X obj 271 115 spigot;
#X obj 463 38 inlet;
#X obj 463 67 s gcut;
#X obj 357 62 s fkey;
#X obj 307 498 outlet x;
#X obj 383 498 outlet y;
#X obj 460 500 outlet z;
#X obj 307 308 bbgxlrmtr1;
#X obj 270 227 == 1;
#X obj 357 43 r key1;
#X connect 0 0 2 1;
#X connect 0 0 4 0;
#X connect 0 0 6 0;
#X connect 1 1 9 0;
#X connect 2 0 11 0;
#X connect 2 0 21 0;
#X connect 3 0 20 0;
#X connect 5 0 3 0;
#X connect 6 0 7 0;
#X connect 6 0 5 0;
#X connect 6 0 12 0;
#X connect 6 0 4 0;
#X connect 9 0 0 0;
#X connect 9 0 8 0;
#X connect 10 0 13 0;
#X connect 13 0 1 0;
#X connect 14 0 13 1;
#X connect 14 0 15 0;
#X connect 20 0 17 0;
#X connect 20 1 18 0;
#X connect 20 2 19 0;
#X connect 21 0 3 0;
#X connect 22 0 16 0;
#X connect 22 0 2 0;
#X coords 0 -1 1 1 200 140 1 300 300;
