#N canvas 1002 113 320 443 10;
#X declare -stdpath extra/moocow -lib pdstring;
#X obj 103 106 vsl 20 100 0 127 0 0 empty empty empty 0 -9 0 10 -159808
-1 -1 0 1;
#X text 100 224 Breath;
#N canvas 1618 46 818 722 lip 0;
#X floatatom 123 284 5 0 0 0 - - -;
#X obj 169 338 s lip;
#X obj 126 338 outlet;
#X obj 157 284 r pgmout;
#X obj 202 93 r xpitchswitch;
#X obj 143 95 spigot;
#X floatatom 187 95 1 0 0 0 - - -;
#X obj 167 112 sel 0 1;
#X msg 167 130 64;
#X msg 196 130 64;
#X text 293 92 Pitch Bend x-axis/switch;
#X floatatom 210 284 5 0 0 0 - - -;
#N canvas 0 0 450 300 (subpatch) 0;
#X array pitchflatzone 127 float 1;
#A 0 -0.557146 -0.457145 -0.428574 -0.414288 -0.385716 -0.371431 -0.357145
-0.357145 -0.242859 -0.228573 -0.185716 -0.128573 -0.128573 -0.128573
-0.114287 -0.114287 -0.0857153 -0.0285722 -0.0285722 -0.0285722 -0.0285722
0.0142851 0.0142851 0.0142851 0.0142851 0.0142851 0.0142851 0.0142851
0.0285709 0.0285709 0.0285709 0.0285709 0.0285709 0.0285709 0.0285709
0.0285709 0.0285709 0.0285709 0.0285709 0.0285709 0.0285709 0.0285709
0.0285709 0.0285709 0.0285709 0.0285709 0.0285709 0.0285709 0.0285709
0.0285709 0.0285709 0.0285709 0.0285709 0.0285709 0.0285709 0.0285709
0.0285709 0.0285709 0.0285709 0.0285709 0.0285709 0.0285709 0.0285709
0.0285709 0.0285709 0.0285709 0.0285709 0.0285709 0.0285709 0.0285709
0.0285709 0.0285709 0.0285709 0.0285709 0.0285709 0.0285709 0.0285709
0.0285709 0.0285709 0.0285709 0.0285709 0.0285709 0.0285709 0.0285709
0.0285709 0.0285709 0.0285709 0.0285709 0.0285709 0.0285709 0.0285709
0.0285709 0.0285709 0.0285709 0.0285709 0.0285709 0.0285709 0.0285709
0.0285709 0.0285709 0.0285709 0.0285709 0.0285709 0.021428 0.021428
0.0357138 0.0357138 0.0499995 0.0642853 0.0642853 0.0785711 0.0785711
0.0785711 0.0928569 0.107143 0.121428 0.135714 0.15 0.164286 0.178571
0.178571 0.207143 0.221429 0.235715 0.235715 0.278572 0.307143;
#X coords 0 1 126 -1 200 140 1;
#X restore 489 69 graph;
#X obj 126 178 tabread pitchflatzone;
#X floatatom 200 162 5 0 0 0 - - -;
#X obj 123 152 clip 10 127;
#X floatatom 553 275 5 0 0 0 - - -;
#X obj 584 317 -;
#X floatatom 589 405 5 0 0 0 - - -;
#X obj 584 377 int;
#X obj 585 352 average 5;
#X floatatom 576 555 5 0 0 0 - - -;
#X obj 589 427 t f f;
#X obj 577 532 accum;
#X obj 612 470 tgl 15 0 empty empty empty 17 7 0 10 -262144 -1 -1 0
1;
#X obj 614 449 != 0;
#X msg 577 506 bang;
#X obj 577 579 max;
#X obj 601 580 f;
#X floatatom 576 617 5 0 0 0 - - -;
#X obj 657 579 f;
#X floatatom 632 616 5 0 0 0 - - -;
#X obj 633 578 min;
#X obj 646 539 bng 15 250 50 0 empty empty empty 17 7 0 10 -262144
-1 -1;
#X msg 678 549 0;
#X obj 140 -27 r lip1;
#X floatatom 183 -26 5 0 0 0 - - -;
#X obj 308 191 s rwlip;
#X obj 94 425 bendout;
#X obj 68 403 ctlout 1;
#X obj 109 455 ctlout 18;
#X floatatom 227 61 5 0 0 0 - - -;
#X obj 291 369 int;
#X obj 293 334 * 64;
#X obj 291 391 mean_n 1;
#X obj 294 351 + 24;
#X obj 124 212 * 1000;
#X obj 333 31 -;
#X floatatom 170 229 5 0 0 0 - - -;
#X obj 131 248 clip 0 127;
#X obj 133 61 * 100;
#X connect 0 0 2 0;
#X connect 0 0 16 0;
#X connect 0 0 1 0;
#X connect 3 0 11 0;
#X connect 5 0 15 0;
#X connect 6 0 5 1;
#X connect 6 0 7 0;
#X connect 7 0 8 0;
#X connect 7 1 9 0;
#X connect 8 0 15 0;
#X connect 9 0 15 0;
#X connect 13 0 46 0;
#X connect 13 0 48 0;
#X connect 14 0 13 0;
#X connect 15 0 13 0;
#X connect 15 0 37 0;
#X connect 16 0 17 0;
#X connect 16 0 17 1;
#X connect 18 0 22 0;
#X connect 19 0 18 0;
#X connect 20 0 19 0;
#X connect 21 0 27 0;
#X connect 21 0 32 0;
#X connect 22 0 23 1;
#X connect 22 1 25 0;
#X connect 23 0 21 0;
#X connect 24 0 26 0;
#X connect 25 0 24 0;
#X connect 26 0 23 0;
#X connect 27 0 28 0;
#X connect 27 0 29 0;
#X connect 28 0 27 1;
#X connect 30 0 32 1;
#X connect 32 0 30 0;
#X connect 32 0 31 0;
#X connect 33 0 27 0;
#X connect 33 0 27 1;
#X connect 33 0 34 0;
#X connect 34 0 27 1;
#X connect 35 0 36 0;
#X connect 35 0 50 0;
#X connect 42 0 44 0;
#X connect 43 0 45 0;
#X connect 45 0 42 0;
#X connect 46 0 49 0;
#X connect 49 0 0 0;
#X connect 50 0 15 0;
#X restore 190 57 pd lip calibration;
#N canvas 52 63 980 558 boehmsys 0;
#X text -51 9 note number;
#X text -137 27 breath;
#X floatatom -74 201 5 0 0 0 - - -;
#X floatatom -157 201 5 0 0 0 - - -;
#X obj -65 170 f \$1;
#X obj -132 53 > 0;
#X obj -96 256 int;
#X obj -157 339 pack f f;
#X obj -132 170 sel 1 0;
#X msg -74 345 \$1 0;
#X obj -157 367 flush;
#X obj -132 76 tgl 15 0 empty empty empty 17 7 0 10 -262144 -1 -1 0
1;
#X obj -99 366 bng 15 250 50 0 empty empty empty 17 7 0 10 -262144
-1 -1;
#X obj -111 226 delay;
#X obj -112 311 moses 1;
#N canvas 282 16 253 200 bk 0;
#X obj 99 39 tgl 15 0 empty empty empty 17 7 0 10 -262144 -1 -1 0 3
;
#X obj 88 113 tgl 15 0 empty empty empty 17 7 0 10 -262144 -1 -1 0
0.596351;
#X obj 62 44 * 3;
#X floatatom 27 51 5 0 0 0 - - -;
#X obj 59 9 inlet;
#X obj 91 164 outlet;
#X obj 70 155 bng 15 250 50 0 empty empty empty 17 7 0 10 -262144 -1
-1;
#X msg 90 137 1;
#X floatatom 38 119 5 0 0 0 - - -;
#X obj 44 84 threshold 1 0 1 0;
#X connect 1 0 7 0;
#X connect 2 0 0 0;
#X connect 2 0 3 0;
#X connect 2 0 9 0;
#X connect 4 0 2 0;
#X connect 7 0 5 0;
#X connect 9 0 1 0;
#X connect 9 0 8 0;
#X connect 9 1 1 0;
#X restore -120 119 pd bk;
#X obj 64 275 spigot;
#X obj 61 296 average 2;
#X floatatom 85 26 5 0 0 0 - - -;
#X text 63 48 program change;
#X floatatom 376 104 5 0 0 0 - - -;
#X obj 34 65 pgmout;
#X obj 289 153 +;
#X obj 30 144 s pgm2chnl;
#X obj -148 394 pack f f f;
#X obj -153 424 sustain;
#X obj 144 191 r cc2;
#X obj 189 236 tgl 15 0 empty empty empty 17 7 0 10 -262144 -1 -1 0
2.5;
#X obj 144 212 select 1;
#X obj 189 256 spigot;
#X obj 304 104 r transpose;
#X obj 189 281 tgl 15 0 empty empty empty 17 7 0 10 -262144 -1 -1 0
1.5;
#X obj 308 126 s transdisp;
#X obj -100 426 s controllernotes;
#X obj 60 232 s cc18 pgm2chnl;
#X obj 25 25 r pgmout;
#X obj 64 340 s cc2;
#X obj -73 364 s noteoff;
#X obj 289 197 r lje;
#X obj 284 371 tgl 15 0 empty empty empty 17 7 0 10 -262144 -1 -1 0
1;
#X obj 284 271 t b b;
#X obj 284 310 f;
#X obj 284 333 + 1;
#X msg 311 293 1;
#X obj 284 354 bng 15 250 50 0 empty empty empty 17 7 0 10 -262144
-1 -1;
#X obj 291 248 delay 50;
#X obj 289 221 sel 1;
#X obj 251 389 spigot;
#X obj 251 409 tgl 15 0 empty empty empty 17 7 0 10 -262144 -1 -1 0
1;
#X text 166 27 sustain can be toggled on/off with the left-west joystick/position
run the [flush]into [sustain] then [sustain] into [noteout] with the
channel going there also. get rid of the [pack f f f ]. backup before
doing any of this;
#X obj 298 389 s toscsustain;
#X obj 32 190 t f f f f f f f;
#X obj -53 80 tgl 15 0 empty empty empty 17 7 0 10 -262144 -1 -1 0
1;
#X obj -13 79 bng 15 250 50 0 empty empty empty 17 7 0 10 -262144 -1
-1;
#X obj -15 105 spigot;
#X msg -53 104 100;
#X obj -159 141 bng 15 250 50 0 empty empty empty 17 7 0 10 -262144
-1 -1;
#X obj 262 104 r note;
#X obj -96 28 r breath;
#X obj -150 448 pack f f f;
#X obj -150 468 s mynotemsg;
#X obj 59 319 print breath;
#X obj -76 468 print note;
#X obj -145 518 noteout;
#X obj -151 493 unpack f f f;
#X obj 222 211 == 6;
#X obj 100 72 sel 0 1;
#X msg 145 103 0;
#X msg 112 103 1;
#X obj 108 134 spigot;
#X obj -150 95 s hit;
#X obj -53 54 == 7;
#X obj 56 378 ctlout 2;
#X obj 111 380 ctlout 7;
#X obj 173 379 ctlout 11;
#X connect 2 0 9 0;
#X connect 2 0 53 0;
#X connect 3 0 13 0;
#X connect 3 0 7 0;
#X connect 4 0 2 0;
#X connect 4 0 3 0;
#X connect 5 0 11 0;
#X connect 6 0 14 0;
#X connect 7 0 10 0;
#X connect 8 0 3 0;
#X connect 8 1 2 0;
#X connect 9 0 12 0;
#X connect 9 0 37 0;
#X connect 10 0 24 0;
#X connect 10 0 25 0;
#X connect 10 1 24 1;
#X connect 10 1 25 1;
#X connect 11 0 47 0;
#X connect 11 0 15 0;
#X connect 11 0 16 1;
#X connect 11 0 70 0;
#X connect 12 0 10 0;
#X connect 13 0 6 0;
#X connect 14 0 7 1;
#X connect 14 1 7 1;
#X connect 15 0 56 0;
#X connect 15 0 8 0;
#X connect 16 0 17 0;
#X connect 17 0 36 0;
#X connect 17 0 61 0;
#X connect 22 0 4 0;
#X connect 24 0 33 0;
#X connect 25 0 59 0;
#X connect 25 1 59 1;
#X connect 26 0 28 0;
#X connect 27 0 29 0;
#X connect 28 1 27 0;
#X connect 29 0 31 0;
#X connect 30 0 20 0;
#X connect 30 0 22 1;
#X connect 30 0 32 0;
#X connect 35 0 18 0;
#X connect 35 0 21 0;
#X connect 35 0 23 0;
#X connect 35 0 51 0;
#X connect 38 0 46 0;
#X connect 39 0 47 1;
#X connect 39 0 50 0;
#X connect 40 0 41 0;
#X connect 40 1 43 0;
#X connect 41 0 42 0;
#X connect 42 0 44 0;
#X connect 43 0 41 1;
#X connect 44 0 39 0;
#X connect 45 0 40 0;
#X connect 46 0 45 0;
#X connect 47 0 48 0;
#X connect 48 0 25 2;
#X connect 51 2 34 0;
#X connect 51 4 59 2;
#X connect 51 5 65 0;
#X connect 51 6 71 0;
#X connect 52 0 8 0;
#X connect 52 0 55 0;
#X connect 52 0 54 1;
#X connect 52 0 66 0;
#X connect 53 0 54 0;
#X connect 54 0 55 0;
#X connect 55 0 6 0;
#X connect 57 0 22 0;
#X connect 58 0 16 0;
#X connect 58 0 6 0;
#X connect 58 0 69 0;
#X connect 59 0 60 0;
#X connect 59 0 62 0;
#X connect 59 0 64 0;
#X connect 64 0 63 0;
#X connect 64 1 63 1;
#X connect 64 2 63 2;
#X connect 65 0 29 1;
#X connect 66 0 68 0;
#X connect 66 1 67 0;
#X connect 67 0 69 1;
#X connect 68 0 69 1;
#X connect 69 0 5 0;
#X connect 71 0 52 0;
#X restore 103 61 pd boehmsys;
#X floatatom 103 212 5 0 0 0 - - -;
#X obj 42 66 r breath;
#X obj 146 105 knob 30 30 0 1 0 0 empty empty empty 0 -8 0 8 -258113
-258113 -258113 1072 1;
#X text 151 131 Gyro;
#X obj 144 206 knob 32 32 0 127 0 0 empty empty empty 0 -8 0 8 -4034
-4034 -4034 0 1;
#X obj 210 211 r volume;
#X text 137 242 volume;
#X obj 131 149 knob 20 20 0 127 0 0 empty empty empty 0 -8 0 8 -258113
-258113 -258113 0 1;
#X floatatom 127 173 5 0 0 0 - - -;
#X obj 102 360 average 100;
#X floatatom 51 400 5 0 0 0 - - -;
#X obj 214 108 r lip;
#X text 184 139 comment;
#X obj 156 150 knob 20 20 0 127 0 0 empty empty empty 0 -8 0 8 -258113
-258113 -258113 150 1;
#X obj 250 154 r rwlip;
#X floatatom 149 190 5 0 0 0 - - -;
#X obj 111 83 bjcmouth-linux;
#X connect 0 0 4 0;
#X connect 5 0 0 0;
#X connect 9 0 8 0;
#X connect 11 0 12 0;
#X connect 11 0 13 0;
#X connect 13 0 14 0;
#X connect 15 0 11 0;
#X connect 17 0 19 0;
#X connect 18 0 17 0;
#X connect 20 0 6 0;
#X coords 0 -1 1 1 90 160 2 100 100;
