#N canvas 0 0 812 539 10;
#X obj 463 211 tgl 25 0 empty empty empty 17 7 0 10 -260097 -1 -1 0
1;
#X obj 514 210 tgl 25 0 empty empty empty 17 7 0 10 -260097 -1 -1 0
1;
#X obj 475 143 tgl 15 0 empty empty empty 17 7 0 10 -260097 -1 -1 0
1;
#X obj 458 125 tgl 15 0 empty empty empty 17 7 0 10 -4034 -1 -1 0 1
;
#X obj 369 108 vsl 30 128 1 0.9 0 0 empty empty empty 0 -9 0 10 -258113
-1 -1 12700 1;
#X obj 401 109 vsl 30 128 1 0.9 0 0 empty empty empty 0 -9 0 10 -258113
-1 -1 12700 1;
#X obj 337 108 vsl 30 128 1 0.9 0 0 empty empty empty 0 -9 0 10 -258113
-1 -1 12700 1;
#X obj 305 108 vsl 30 128 1 0.9 0 0 empty empty empty 0 -9 0 10 -258113
-1 -1 12700 1;
#X obj 210 270 s yaxis;
#X obj 112 271 s xaxis;
#X obj 490 235 tgl 25 0 empty empty empty 17 7 0 10 -262144 -1 -1 0
1;
#X obj 489 184 tgl 25 0 empty empty empty 17 7 0 10 -262144 -1 -1 0
1;
#X obj 162 271 s zaxis;
#X obj 493 110 tgl 50 0 empty empty empty 17 7 0 10 -4034 -1 -1 0 1
;
#X obj 137 116 grid grid2 127 1 127 127 1 127 1 1 1 13 13 213.349 176.831
;
#X obj 119 116 vsl 15 127 1 127 0 0 empty empty empty 0 -9 0 10 -260097
-1 -1 2122 1;
#X obj 110 61 pack f f f;
#N canvas 423 201 450 300 accelerometer 0;
#X text 106 146 Accelerometer;
#X msg 51 164 goto \$1 \$2;
#X obj 51 145 pack 1 1;
#X obj 80 51 unpack f f f;
#X obj 53 126 * 127;
#X obj 104 127 * 127;
#X obj 80 27 inlet;
#X obj 51 190 outlet;
#X obj 156 196 outlet;
#X obj 151 127 * 127;
#X obj 158 50 s xlrmtr1;
#X connect 1 0 7 0;
#X connect 2 0 1 0;
#X connect 3 0 4 0;
#X connect 3 1 5 0;
#X connect 3 2 9 0;
#X connect 4 0 2 0;
#X connect 5 0 2 1;
#X connect 6 0 3 0;
#X connect 6 0 10 0;
#X connect 9 0 8 0;
#X restore 110 80 pd accelerometer;
#X text 26 -74 left hand joystick;
#X obj 507 164 s lje;
#X obj 475 109 tgl 15 0 empty empty empty 17 7 0 10 -260097 -1 -1 0
1;
#X text 430 125 stop;
#X text 435 105 volume;
#N canvas 337 194 687 300 LJT 0;
#X msg 67 143 127 81 1;
#X obj 91 103 change;
#X msg 131 143 0 81 1;
#X obj 247 90 change;
#X msg 241 137 127 80 1;
#X msg 303 137 0 80 1;
#X obj 252 112 sel 1 0;
#X obj 91 122 sel 1 0;
#X obj 91 83 > 0.9;
#X obj 194 174 ctlout;
#X obj 29 165 outlet;
#N canvas 372 391 450 300 volume 0;
#X obj 78 -61 spigot;
#X floatatom 112 -80 1 0 0 0 - - -;
#N canvas 769 382 450 300 volume 0;
#X floatatom 197 42 5 0 0 0 - - -;
#X floatatom 203 171 5 0 0 0 - - -;
#X obj 203 141 int;
#X obj 205 193 clip 0 127;
#X obj 196 16 inlet;
#X obj 207 265 outlet;
#X obj 215 222 average 25;
#X floatatom 215 241 5 0 0 0 - - -;
#X connect 0 0 2 0;
#X connect 1 0 3 0;
#X connect 2 0 1 0;
#X connect 3 0 6 0;
#X connect 4 0 0 0;
#X connect 6 0 7 0;
#X connect 7 0 5 0;
#X restore 65 -102 pd volume;
#X obj 78 -40 ctlout 27;
#X obj 100 -142 inlet;
#X obj 152 -142 inlet;
#X floatatom 27 -41 5 0 0 0 - - -;
#X connect 0 0 3 0;
#X connect 0 0 6 0;
#X connect 1 0 0 1;
#X connect 2 0 0 0;
#X connect 4 0 2 0;
#X connect 5 0 1 0;
#X restore 148 103 pd volume main;
#X obj 148 80 r xaxis;
#X obj 84 38 r jlu4;
#X obj 194 33 r jlu2;
#X obj 247 34 r jlu1;
#X connect 0 0 9 0;
#X connect 1 0 7 0;
#X connect 1 0 10 0;
#X connect 2 0 9 0;
#X connect 3 0 6 0;
#X connect 4 0 9 0;
#X connect 5 0 9 0;
#X connect 6 0 4 0;
#X connect 6 1 5 0;
#X connect 7 0 0 0;
#X connect 7 1 2 0;
#X connect 8 0 1 0;
#X connect 12 0 11 0;
#X connect 13 0 3 0;
#X connect 14 0 11 1;
#X connect 15 0 8 0;
#X restore 437 60 pd LJT controlmatrix;
#X text 436 239 LEFT;
#X text 471 216 1;
#X text 498 189 2;
#X text 498 239 3;
#X text 523 214 4;
#X text 460 123 1;
#X text 479 107 2;
#X text 478 142 3;
#X text 514 125 4;
#X obj 110 42 r xlx;
#X obj 146 42 r xly;
#X obj 182 42 r xlz;
#X obj 436 80 r jlu2;
#X obj 520 80 r jlu3;
#X obj 478 80 r jlu1;
#X obj 395 272 r jlb1;
#X obj 437 272 r jlb2;
#X obj 479 272 r jlb3;
#X obj 521 272 r jlb4;
#X obj 375 291 s frange1;
#X obj 315 293 s frange2;
#X obj 254 293 s frange3;
#X obj 195 292 s frange4;
#X obj 394 80 change;
#X obj 353 79 change;
#X obj 311 79 change;
#X obj 269 79 change;
#X obj 375 59 r fl1;
#X obj 339 59 r fl2;
#X obj 304 59 r fl3;
#X obj 269 59 r fl4;
#X obj 218 80 bjcleft;
#X floatatom 367 250 5 0 0 0 - - -;
#X floatatom 334 249 5 0 0 0 - - -;
#X floatatom 300 247 5 0 0 0 - - -;
#X floatatom 267 -4 5 0 0 0 - - -;
#X floatatom 400 250 5 0 0 0 - - -;
#N canvas 41 43 811 450 RJB 0;
#X msg 135 71 127 16 1;
#X msg 197 72 0 16 1;
#X msg 304 79 127 17 1;
#X msg 364 79 0 17 1;
#X floatatom 212 47 5 0 0 0 - - -;
#N canvas 460 140 236 277 bk 0;
#X obj 99 39 tgl 15 0 empty empty empty 17 7 0 10 -262144 -1 -1 0 3
;
#X obj 88 113 tgl 15 0 empty empty empty 17 7 0 10 -262144 -1 -1 0
0.596351;
#X obj 62 44 * 3;
#X floatatom 27 51 5 0 0 0 - - -;
#X obj 59 9 inlet;
#X obj 98 244 outlet;
#X msg 98 219 1;
#X obj 44 84 threshold 3 0 2 0;
#X msg 127 219 0;
#X floatatom 45 169 5 0 0 0 - - -;
#X obj 96 141 * 2;
#X obj 98 193 sel 1 0;
#X obj 103 168 int;
#X connect 1 0 10 0;
#X connect 2 0 0 0;
#X connect 2 0 3 0;
#X connect 2 0 7 0;
#X connect 4 0 2 0;
#X connect 6 0 5 0;
#X connect 7 0 1 0;
#X connect 7 1 1 0;
#X connect 8 0 5 0;
#X connect 10 0 12 0;
#X connect 11 0 6 0;
#X connect 11 1 8 0;
#X connect 12 0 11 0;
#X connect 12 0 9 0;
#X restore 162 25 pd bk better;
#X text 248 48 comment;
#X obj 200 -7 s led64;
#X obj 257 -6 s led65;
#X obj 181 147 ctlout;
#X obj 585 274 ctlout 28;
#X obj 444 252 ctlout 21;
#X obj 584 252 ctlout 20;
#X obj 513 252 ctlout 22;
#N canvas 4 47 968 617 xlrmtr 0;
#X floatatom 11 324 5 0 0 0 - - -;
#X floatatom 83 324 5 0 0 0 - - -;
#X floatatom 153 321 5 0 0 0 - - -;
#X text 7 351 ctl20;
#X text 78 354 ctl21;
#X text 152 352 ctl22;
#X text 59 341 Up/down tilt;
#X text 0 341 L/R Tilt;
#X text 149 341 top/bttm;
#X floatatom 674 508 5 0 0 0 - - -;
#X obj 707 587 t b b;
#X obj 697 632 f;
#X obj 701 662 + 1;
#X obj 482 404 tgl 15 0 empty empty empty 17 7 0 10 -262144 -1 -1 0
1;
#X obj 662 688 * 127;
#X floatatom 659 604 5 0 0 0 - - -;
#X msg 731 616 1;
#X obj 482 423 bng 15 250 50 0 empty empty empty 17 7 0 10 -262144
-1 -1;
#X obj 32 690 outlet;
#X obj 325 693 outlet;
#X obj 589 693 outlet;
#X obj 706 687 outlet;
#X text 255 692 Y;
#X text 525 692 Z;
#X text 669 702 Z flip switch;
#X text -48 691 X;
#X obj 712 486 moses 126;
#X obj 712 537 < 126;
#X obj 709 508 - 126;
#X floatatom 96 508 5 0 0 0 - - -;
#X obj 129 587 t b b;
#X obj 119 632 f;
#X obj 123 662 + 1;
#X obj 349 405 tgl 15 0 empty empty empty 17 7 0 10 -262144 -1 -1 0
1;
#X obj 84 688 * 127;
#X floatatom 81 604 5 0 0 0 - - -;
#X msg 153 616 1;
#X obj 349 422 bng 15 250 50 0 empty empty empty 17 7 0 10 -262144
-1 -1;
#X obj 134 486 moses 126;
#X obj 134 537 < 126;
#X obj 131 508 - 126;
#X floatatom 387 512 5 0 0 0 - - -;
#X obj 420 591 t b b;
#X obj 410 636 f;
#X obj 414 666 + 1;
#X obj 418 405 tgl 15 0 empty empty empty 17 7 0 10 -262144 -1 -1 0
1;
#X obj 375 692 * 127;
#X floatatom 372 608 5 0 0 0 - - -;
#X msg 444 620 1;
#X obj 418 423 bng 15 250 50 0 empty empty empty 17 7 0 10 -262144
-1 -1;
#X obj 136 564 delay 150;
#X obj 427 568 delay 150;
#X obj 714 564 delay 150;
#X obj 432 693 outlet;
#X obj 149 691 outlet;
#X text 112 706 x flip switch;
#X text 398 708 y flip switch;
#X floatatom -58 562 5 0 0 0 - - -;
#X obj -58 584 - 1;
#X floatatom -58 607 5 0 0 0 - - -;
#X obj -58 534 clip 2 1;
#X floatatom -3 623 5 0 0 0 - - -;
#X obj -3 575 t b b;
#X obj -3 598 f;
#X obj 303 422 bng 15 250 50 0 empty empty empty 17 7 0 10 -262144
-1 -1;
#X obj -3 534 sel 1;
#X obj -3 555 delay 100;
#X obj 303 403 tgl 15 0 empty empty empty 17 7 0 10 -262144 -1 -1 0
1;
#X obj -32 670 * 127;
#X obj -23 694 outlet;
#X floatatom 246 561 5 0 0 0 - - -;
#X obj 246 583 - 1;
#X floatatom 246 606 5 0 0 0 - - -;
#X obj 246 532 clip 2 1;
#X floatatom 301 622 5 0 0 0 - - -;
#X obj 301 574 t b b;
#X obj 301 597 f;
#X obj 367 423 bng 15 250 50 0 empty empty empty 17 7 0 10 -262144
-1 -1;
#X obj 301 533 sel 1;
#X obj 301 554 delay 100;
#X obj 368 405 tgl 15 0 empty empty empty 17 7 0 10 -262144 -1 -1 0
1;
#X obj 272 669 * 127;
#X obj 272 699 outlet;
#X floatatom 516 562 5 0 0 0 - - -;
#X obj 516 584 - 1;
#X floatatom 516 607 5 0 0 0 - - -;
#X obj 516 533 clip 2 1;
#X floatatom 571 623 5 0 0 0 - - -;
#X obj 571 575 t b b;
#X obj 571 598 f;
#X obj 439 423 bng 15 100 50 0 empty empty empty 17 7 0 10 -262144
-1 -1;
#X obj 571 534 sel 1;
#X obj 571 555 delay 100;
#X obj 437 405 tgl 15 0 empty empty empty 17 7 0 10 -262144 -1 -1 0
1;
#X obj 542 670 * 127;
#X obj 542 692 outlet;
#X obj 508 383 s led50;
#X obj 508 401 s led51;
#X obj 508 419 s led52;
#X obj 508 437 s led53;
#X obj 508 455 s led54;
#X obj 508 473 s led55;
#N canvas 0 0 303 384 rangex 0;
#X obj 106 72 clip 36 96;
#X floatatom 107 102 5 0 0 0 - - -;
#X obj 107 124 - 36;
#X floatatom 108 151 5 0 0 0 - - -;
#X floatatom 109 224 5 0 0 0 - - -;
#X obj 109 196 int;
#X obj 108 176 * 2.2;
#X obj 109 247 clip 0 127;
#X floatatom 112 280 5 0 0 0 - - -;
#X text 146 100 range multiplier;
#X obj 107 40 inlet;
#X obj 115 317 outlet;
#X connect 0 0 1 0;
#X connect 1 0 2 0;
#X connect 2 0 3 0;
#X connect 3 0 6 0;
#X connect 4 0 7 0;
#X connect 5 0 4 0;
#X connect 6 0 5 0;
#X connect 7 0 8 0;
#X connect 8 0 11 0;
#X connect 10 0 0 0;
#X restore 20 652 pd rangex;
#N canvas 0 0 303 384 rangex 0;
#X obj 106 72 clip 36 96;
#X floatatom 107 102 5 0 0 0 - - -;
#X obj 107 124 - 36;
#X floatatom 108 151 5 0 0 0 - - -;
#X floatatom 109 224 5 0 0 0 - - -;
#X obj 109 196 int;
#X obj 108 176 * 2.2;
#X obj 109 247 clip 0 127;
#X floatatom 112 280 5 0 0 0 - - -;
#X text 146 100 range multiplier;
#X obj 107 40 inlet;
#X obj 115 317 outlet;
#X connect 0 0 1 0;
#X connect 1 0 2 0;
#X connect 2 0 3 0;
#X connect 3 0 6 0;
#X connect 4 0 7 0;
#X connect 5 0 4 0;
#X connect 6 0 5 0;
#X connect 7 0 8 0;
#X connect 8 0 11 0;
#X connect 10 0 0 0;
#X restore 184 651 pd rangex;
#X obj 436 452 tgl 15 0 empty empty empty 17 7 0 10 -262144 -1 -1 0
1;
#X obj 425 490 moses 123;
#X obj 422 512 - 123;
#X obj 425 541 < 123;
#X obj 129 277 sel 0 1;
#X msg 129 297 0;
#X msg 158 297 127;
#X obj 5 239 pack f f f;
#X obj 5 282 spigot;
#X obj 5 304 unpack f f f;
#X text -58 342 comment;
#X floatatom 88 290 5 0 0 0 - - -;
#X obj 93 238 change;
#X obj 90 260 > 0.8;
#X obj 95 216 r xlrmtr2a;
#X obj -3 182 r xaxis;
#X obj 51 182 r yaxis;
#X obj 105 183 r zaxis;
#X connect 0 0 38 0;
#X connect 0 0 60 0;
#X connect 0 0 102 0;
#X connect 1 0 105 0;
#X connect 1 0 103 0;
#X connect 1 0 73 0;
#X connect 2 0 26 0;
#X connect 9 0 20 0;
#X connect 10 0 11 0;
#X connect 10 1 16 0;
#X connect 11 0 12 0;
#X connect 12 0 17 0;
#X connect 13 0 14 0;
#X connect 13 0 100 0;
#X connect 14 0 21 0;
#X connect 16 0 11 1;
#X connect 17 0 13 0;
#X connect 26 0 9 0;
#X connect 26 1 27 0;
#X connect 27 0 15 0;
#X connect 27 0 52 0;
#X connect 28 0 27 0;
#X connect 30 0 31 0;
#X connect 30 1 36 0;
#X connect 31 0 32 0;
#X connect 32 0 37 0;
#X connect 33 0 34 0;
#X connect 33 0 99 0;
#X connect 34 0 54 0;
#X connect 36 0 31 1;
#X connect 37 0 33 0;
#X connect 38 0 29 0;
#X connect 38 1 39 0;
#X connect 39 0 35 0;
#X connect 39 0 50 0;
#X connect 40 0 39 0;
#X connect 42 0 43 0;
#X connect 42 1 48 0;
#X connect 43 0 44 0;
#X connect 44 0 49 0;
#X connect 45 0 46 0;
#X connect 45 0 97 0;
#X connect 46 0 82 0;
#X connect 48 0 43 1;
#X connect 49 0 45 0;
#X connect 50 0 30 0;
#X connect 51 0 42 0;
#X connect 52 0 10 0;
#X connect 57 0 58 0;
#X connect 58 0 59 0;
#X connect 59 0 65 0;
#X connect 60 0 57 0;
#X connect 61 0 64 0;
#X connect 62 0 63 0;
#X connect 63 0 61 0;
#X connect 64 0 67 0;
#X connect 65 0 66 0;
#X connect 66 0 62 0;
#X connect 67 0 68 0;
#X connect 67 0 96 0;
#X connect 68 0 69 0;
#X connect 70 0 71 0;
#X connect 71 0 72 0;
#X connect 72 0 78 0;
#X connect 73 0 70 0;
#X connect 74 0 77 0;
#X connect 75 0 76 0;
#X connect 76 0 74 0;
#X connect 77 0 80 0;
#X connect 78 0 79 0;
#X connect 79 0 75 0;
#X connect 80 0 81 0;
#X connect 80 0 98 0;
#X connect 81 0 53 0;
#X connect 83 0 84 0;
#X connect 84 0 85 0;
#X connect 85 0 91 0;
#X connect 86 0 83 0;
#X connect 87 0 90 0;
#X connect 88 0 89 0;
#X connect 89 0 87 0;
#X connect 90 0 93 0;
#X connect 91 0 92 0;
#X connect 92 0 88 0;
#X connect 93 0 94 0;
#X connect 93 0 101 0;
#X connect 94 0 95 0;
#X connect 102 0 18 0;
#X connect 103 0 19 0;
#X connect 105 0 41 0;
#X connect 105 1 107 0;
#X connect 106 0 107 0;
#X connect 107 0 47 0;
#X connect 107 0 51 0;
#X connect 108 0 109 0;
#X connect 108 1 110 0;
#X connect 109 0 82 0;
#X connect 109 0 53 0;
#X connect 109 0 21 0;
#X connect 109 0 69 0;
#X connect 109 0 54 0;
#X connect 109 0 95 0;
#X connect 110 0 69 0;
#X connect 111 0 112 0;
#X connect 112 0 113 0;
#X connect 113 0 0 0;
#X connect 113 1 1 0;
#X connect 113 2 2 0;
#X connect 116 0 117 0;
#X connect 117 0 112 1;
#X connect 117 0 108 0;
#X connect 117 0 115 0;
#X connect 118 0 116 0;
#X connect 119 0 111 0;
#X connect 120 0 111 1;
#X connect 121 0 86 0;
#X connect 121 0 111 2;
#X coords 0 -1 1 1 200 40 2 300 400;
#X restore 444 183 pd xlrmtr l ctrl;
#X text 450 163 |---x---| |---y----| |---z---|;
#X obj 444 231 ctlout 110;
#X obj 513 275 ctlout 111;
#N canvas 64 0 895 734 xlrmtr 0;
#X floatatom -41 301 5 0 0 0 - - -;
#X floatatom 31 301 5 0 0 0 - - -;
#X floatatom 101 298 5 0 0 0 - - -;
#X text -40 326 ctl20;
#X text 31 329 ctl21;
#X text 105 327 ctl22;
#X text 7 318 Up/down tilt;
#X text -52 318 L/R Tilt;
#X text 97 318 top/bttm;
#X floatatom 674 507 5 0 0 0 - - -;
#X obj 707 586 t b b;
#X obj 697 631 f;
#X obj 701 661 + 1;
#X obj 482 403 tgl 15 0 empty empty empty 17 7 0 10 -262144 -1 -1 0
1;
#X obj 662 687 * 127;
#X floatatom 659 603 5 0 0 0 - - -;
#X msg 731 615 1;
#X obj 482 422 bng 15 250 50 0 empty empty empty 17 7 0 10 -262144
-1 -1;
#X obj 32 689 outlet;
#X obj 325 692 outlet;
#X obj 589 692 outlet;
#X obj 706 686 outlet;
#X text 255 691 Y;
#X text 525 691 Z;
#X text 669 701 Z flip switch;
#X text -48 690 X;
#X obj 712 485 moses 126;
#X obj 712 536 < 126;
#X obj 709 507 - 126;
#X floatatom 96 507 5 0 0 0 - - -;
#X obj 129 586 t b b;
#X obj 119 631 f;
#X obj 123 661 + 1;
#X obj 349 404 tgl 15 0 empty empty empty 17 7 0 10 -262144 -1 -1 0
1;
#X obj 84 687 * 127;
#X floatatom 81 603 5 0 0 0 - - -;
#X msg 153 615 1;
#X obj 349 421 bng 15 250 50 0 empty empty empty 17 7 0 10 -262144
-1 -1;
#X obj 134 485 moses 126;
#X obj 134 536 < 126;
#X obj 131 507 - 126;
#X floatatom 387 511 5 0 0 0 - - -;
#X obj 420 590 t b b;
#X obj 410 635 f;
#X obj 414 665 + 1;
#X obj 418 404 tgl 15 0 empty empty empty 17 7 0 10 -262144 -1 -1 0
1;
#X obj 375 691 * 127;
#X floatatom 372 607 5 0 0 0 - - -;
#X msg 444 619 1;
#X obj 418 422 bng 15 250 50 0 empty empty empty 17 7 0 10 -262144
-1 -1;
#X obj 136 563 delay 150;
#X obj 427 567 delay 150;
#X obj 714 563 delay 150;
#X obj 432 692 outlet;
#X obj 149 690 outlet;
#X text 112 705 x flip switch;
#X text 398 707 y flip switch;
#X floatatom -58 561 5 0 0 0 - - -;
#X obj -58 583 - 1;
#X floatatom -58 606 5 0 0 0 - - -;
#X obj -58 533 clip 2 1;
#X floatatom -3 622 5 0 0 0 - - -;
#X obj -3 574 t b b;
#X obj -3 597 f;
#X obj 303 421 bng 15 250 50 0 empty empty empty 17 7 0 10 -262144
-1 -1;
#X obj -3 533 sel 1;
#X obj -3 554 delay 100;
#X obj 303 402 tgl 15 0 empty empty empty 17 7 0 10 -262144 -1 -1 0
1;
#X obj -32 669 * 127;
#X obj -23 693 outlet;
#X floatatom 246 560 5 0 0 0 - - -;
#X obj 246 582 - 1;
#X floatatom 246 605 5 0 0 0 - - -;
#X obj 246 531 clip 2 1;
#X floatatom 301 621 5 0 0 0 - - -;
#X obj 301 573 t b b;
#X obj 301 596 f;
#X obj 367 422 bng 15 250 50 0 empty empty empty 17 7 0 10 -262144
-1 -1;
#X obj 301 532 sel 1;
#X obj 301 553 delay 100;
#X obj 368 404 tgl 15 0 empty empty empty 17 7 0 10 -262144 -1 -1 0
1;
#X obj 272 668 * 127;
#X obj 272 690 outlet;
#X floatatom 516 561 5 0 0 0 - - -;
#X obj 516 583 - 1;
#X floatatom 516 606 5 0 0 0 - - -;
#X obj 516 532 clip 2 1;
#X floatatom 571 622 5 0 0 0 - - -;
#X obj 571 574 t b b;
#X obj 571 597 f;
#X obj 437 422 bng 15 100 50 0 empty empty empty 17 7 0 10 -262144
-1 -1;
#X obj 571 533 sel 1;
#X obj 437 404 tgl 15 0 empty empty empty 17 7 0 10 -262144 -1 -1 0
1;
#X obj 542 669 * 127;
#X obj 542 691 outlet;
#X obj 508 382 s led50;
#X obj 508 400 s led51;
#X obj 508 418 s led52;
#X obj 508 436 s led53;
#X obj 508 454 s led54;
#X obj 508 472 s led55;
#N canvas 0 0 303 384 rangex 0;
#X obj 106 72 clip 36 96;
#X floatatom 107 102 5 0 0 0 - - -;
#X obj 107 124 - 36;
#X floatatom 108 151 5 0 0 0 - - -;
#X floatatom 109 224 5 0 0 0 - - -;
#X obj 109 196 int;
#X obj 108 176 * 2.2;
#X obj 109 247 clip 0 127;
#X floatatom 112 280 5 0 0 0 - - -;
#X text 146 100 range multiplier;
#X obj 107 40 inlet;
#X obj 115 317 outlet;
#X connect 0 0 1 0;
#X connect 1 0 2 0;
#X connect 2 0 3 0;
#X connect 3 0 6 0;
#X connect 4 0 7 0;
#X connect 5 0 4 0;
#X connect 6 0 5 0;
#X connect 7 0 8 0;
#X connect 8 0 11 0;
#X connect 10 0 0 0;
#X restore 20 651 pd rangex;
#N canvas 0 0 303 384 rangex 0;
#X obj 106 72 clip 36 96;
#X floatatom 107 102 5 0 0 0 - - -;
#X obj 107 124 - 36;
#X floatatom 108 151 5 0 0 0 - - -;
#X floatatom 109 224 5 0 0 0 - - -;
#X obj 109 196 int;
#X obj 108 176 * 2.2;
#X obj 109 247 clip 0 127;
#X floatatom 112 280 5 0 0 0 - - -;
#X text 146 100 range multiplier;
#X obj 107 40 inlet;
#X obj 115 317 outlet;
#X connect 0 0 1 0;
#X connect 1 0 2 0;
#X connect 2 0 3 0;
#X connect 3 0 6 0;
#X connect 4 0 7 0;
#X connect 5 0 4 0;
#X connect 6 0 5 0;
#X connect 7 0 8 0;
#X connect 8 0 11 0;
#X connect 10 0 0 0;
#X restore 184 650 pd rangex;
#X obj 436 451 tgl 15 0 empty empty empty 17 7 0 10 -262144 -1 -1 0
1;
#X obj 129 251 sel 0 1;
#X msg 129 271 0;
#X msg 158 271 127;
#X obj 425 489 moses 123;
#X obj 422 511 - 123;
#X obj 425 540 < 123;
#X obj 5 213 pack f f f;
#X obj 5 256 spigot;
#X obj 5 278 unpack f f f;
#X obj 571 554 delay 200;
#X floatatom 497 213 5 0 0 0 - - -;
#X obj 474 213 int;
#X obj 474 195 average 10;
#X obj 475 230 change;
#X floatatom 515 231 5 0 0 0 - - -;
#X floatatom 423 212 5 0 0 0 - - -;
#X obj 400 212 int;
#X obj 400 195 average 10;
#X obj 401 229 change;
#X floatatom 441 230 5 0 0 0 - - -;
#X floatatom 350 211 5 0 0 0 - - -;
#X obj 327 193 average 10;
#X obj 328 228 change;
#X floatatom 368 229 5 0 0 0 - - -;
#X floatatom 73 264 5 0 0 0 - - -;
#X obj 73 234 > 0.8;
#X obj 71 214 r xlrmtr1a;
#X obj 4 193 r xaxis;
#X obj 58 193 r yaxis;
#X obj 113 193 r zaxis;
#X connect 0 0 38 0;
#X connect 0 0 101 0;
#X connect 0 0 60 0;
#X connect 1 0 107 0;
#X connect 1 0 73 0;
#X connect 1 0 102 0;
#X connect 2 0 26 0;
#X connect 2 0 86 0;
#X connect 9 0 20 0;
#X connect 10 0 11 0;
#X connect 10 1 16 0;
#X connect 11 0 12 0;
#X connect 12 0 17 0;
#X connect 13 0 14 0;
#X connect 13 0 99 0;
#X connect 14 0 21 0;
#X connect 16 0 11 1;
#X connect 17 0 13 0;
#X connect 26 0 9 0;
#X connect 26 1 27 0;
#X connect 27 0 15 0;
#X connect 27 0 52 0;
#X connect 28 0 27 0;
#X connect 30 0 31 0;
#X connect 30 1 36 0;
#X connect 31 0 32 0;
#X connect 32 0 37 0;
#X connect 33 0 34 0;
#X connect 33 0 98 0;
#X connect 34 0 54 0;
#X connect 36 0 31 1;
#X connect 37 0 33 0;
#X connect 38 0 29 0;
#X connect 38 1 39 0;
#X connect 39 0 35 0;
#X connect 39 0 50 0;
#X connect 40 0 39 0;
#X connect 42 0 43 0;
#X connect 42 1 48 0;
#X connect 43 0 44 0;
#X connect 44 0 49 0;
#X connect 45 0 46 0;
#X connect 45 0 96 0;
#X connect 46 0 53 0;
#X connect 48 0 43 1;
#X connect 49 0 45 0;
#X connect 50 0 30 0;
#X connect 51 0 42 0;
#X connect 52 0 10 0;
#X connect 57 0 58 0;
#X connect 58 0 59 0;
#X connect 59 0 65 0;
#X connect 60 0 57 0;
#X connect 61 0 64 0;
#X connect 62 0 63 0;
#X connect 63 0 61 0;
#X connect 64 0 67 0;
#X connect 65 0 66 0;
#X connect 66 0 62 0;
#X connect 67 0 68 0;
#X connect 67 0 95 0;
#X connect 68 0 69 0;
#X connect 70 0 71 0;
#X connect 71 0 72 0;
#X connect 72 0 78 0;
#X connect 73 0 70 0;
#X connect 74 0 77 0;
#X connect 75 0 76 0;
#X connect 76 0 74 0;
#X connect 77 0 80 0;
#X connect 78 0 79 0;
#X connect 79 0 75 0;
#X connect 80 0 81 0;
#X connect 80 0 97 0;
#X connect 81 0 82 0;
#X connect 83 0 84 0;
#X connect 84 0 85 0;
#X connect 85 0 91 0;
#X connect 86 0 83 0;
#X connect 87 0 90 0;
#X connect 88 0 89 0;
#X connect 89 0 87 0;
#X connect 90 0 92 0;
#X connect 91 0 113 0;
#X connect 92 0 93 0;
#X connect 92 0 100 0;
#X connect 93 0 94 0;
#X connect 101 0 18 0;
#X connect 102 0 19 0;
#X connect 104 0 105 0;
#X connect 104 1 106 0;
#X connect 105 0 69 0;
#X connect 105 0 53 0;
#X connect 105 0 54 0;
#X connect 105 0 82 0;
#X connect 105 0 21 0;
#X connect 105 0 94 0;
#X connect 107 0 41 0;
#X connect 107 1 109 0;
#X connect 108 0 109 0;
#X connect 109 0 47 0;
#X connect 109 0 51 0;
#X connect 110 0 111 0;
#X connect 111 0 112 0;
#X connect 112 0 0 0;
#X connect 112 1 1 0;
#X connect 112 2 2 0;
#X connect 113 0 88 0;
#X connect 115 0 114 0;
#X connect 115 0 117 0;
#X connect 116 0 115 0;
#X connect 117 0 118 0;
#X connect 120 0 119 0;
#X connect 120 0 122 0;
#X connect 121 0 120 0;
#X connect 122 0 123 0;
#X connect 126 0 127 0;
#X connect 129 0 111 1;
#X connect 129 0 104 0;
#X connect 130 0 128 0;
#X connect 130 0 129 0;
#X connect 131 0 110 0;
#X connect 132 0 110 1;
#X connect 133 0 110 2;
#X coords 0 -1 1 1 200 40 2 300 400;
#X restore 445 55 pd xlrmtr l ctrl;
#X text 453 38 |---x---| |---y----| |---z---|;
#X text 491 22 Pre-FX;
#X text 514 153 Post-FX;
#X obj 442 101 ctlout 112;
#X obj 442 121 ctlout 113;
#X obj 521 120 ctlout 114;
#X obj 687 116 ctlout 115;
#X obj 595 120 ctlout 116;
#X obj 596 140 ctlout 117;
#X text 534 22 RJB-FORWARD;
#X obj 87 168 s xlrmtr1a;
#X obj 267 164 s xlrmtr2a;
#X obj 109 -37 r jlb1;
#X obj 163 -38 r jlb2;
#X obj 216 -38 r jlb3;
#X obj 269 -37 r jlb4;
#X obj 286 208 tgl 15 0 empty empty empty 17 7 0 10 -262144 -1 -1 0
1;
#N canvas 460 140 236 277 bk 0;
#X obj 99 39 tgl 15 0 empty empty empty 17 7 0 10 -262144 -1 -1 0 3
;
#X obj 88 113 tgl 15 0 empty empty empty 17 7 0 10 -262144 -1 -1 0
0.596351;
#X obj 62 44 * 3;
#X floatatom 27 51 5 0 0 0 - - -;
#X obj 59 9 inlet;
#X obj 98 244 outlet;
#X msg 98 219 1;
#X obj 44 84 threshold 3 0 2 0;
#X msg 127 219 0;
#X floatatom 45 169 5 0 0 0 - - -;
#X obj 96 141 * 2;
#X obj 98 193 sel 1 0;
#X obj 103 168 int;
#X connect 1 0 10 0;
#X connect 2 0 0 0;
#X connect 2 0 3 0;
#X connect 2 0 7 0;
#X connect 4 0 2 0;
#X connect 6 0 5 0;
#X connect 7 0 1 0;
#X connect 7 1 1 0;
#X connect 8 0 5 0;
#X connect 10 0 12 0;
#X connect 11 0 6 0;
#X connect 11 1 8 0;
#X connect 12 0 11 0;
#X connect 12 0 9 0;
#X restore 323 26 pd bk better;
#X obj 162 46 sel 1 0;
#X obj 326 54 sel 1 0;
#X connect 0 0 9 0;
#X connect 1 0 9 0;
#X connect 2 0 9 0;
#X connect 3 0 9 0;
#X connect 5 0 4 0;
#X connect 5 0 37 0;
#X connect 14 0 16 0;
#X connect 14 1 11 0;
#X connect 14 4 13 0;
#X connect 14 5 17 0;
#X connect 14 7 12 0;
#X connect 14 8 10 0;
#X connect 18 0 22 0;
#X connect 18 1 23 0;
#X connect 18 4 24 0;
#X connect 18 6 25 0;
#X connect 18 7 26 0;
#X connect 18 8 27 0;
#X connect 31 0 7 0;
#X connect 31 0 29 0;
#X connect 32 0 5 0;
#X connect 33 0 36 0;
#X connect 34 0 8 0;
#X connect 34 0 30 0;
#X connect 36 0 35 0;
#X connect 36 0 38 0;
#X connect 37 0 0 0;
#X connect 37 1 1 0;
#X connect 38 0 2 0;
#X connect 38 1 3 0;
#X restore 455 305 pd RJB controlmatrix;
#X text 458 159 Vocoder;
#X obj 586 157 tgl 15 0 empty empty empty 17 7 0 10 -262144 -1 -1 0
1;
#X obj 585 117 change;
#X obj 586 137 sel 1;
#X obj 586 176 * 127;
#X obj 585 200 ctlout 49 1;
#X obj 604 280 tgl 15 0 empty empty empty 17 7 0 10 -262144 -1 -1 0
1;
#X obj 603 240 change;
#X obj 604 299 * 127;
#X obj 603 323 ctlout 50 1;
#X connect 1 0 69 0;
#X connect 2 0 19 0;
#X connect 2 0 64 0;
#X connect 4 0 44 0;
#X connect 4 0 56 0;
#X connect 5 0 43 0;
#X connect 5 0 60 0;
#X connect 6 0 45 0;
#X connect 6 0 57 0;
#X connect 7 0 46 0;
#X connect 7 0 58 0;
#X connect 14 0 9 0;
#X connect 14 1 8 0;
#X connect 15 0 12 0;
#X connect 16 0 17 0;
#X connect 17 0 14 0;
#X connect 17 1 15 0;
#X connect 23 0 13 0;
#X connect 33 0 16 0;
#X connect 34 0 16 1;
#X connect 35 0 16 2;
#X connect 36 0 20 0;
#X connect 37 0 2 0;
#X connect 38 0 3 0;
#X connect 39 0 0 0;
#X connect 40 0 11 0;
#X connect 41 0 10 0;
#X connect 42 0 1 0;
#X connect 47 0 5 0;
#X connect 48 0 4 0;
#X connect 49 0 6 0;
#X connect 50 0 7 0;
#X connect 51 0 47 0;
#X connect 52 0 48 0;
#X connect 53 0 49 0;
#X connect 54 0 50 0;
#X connect 63 0 66 0;
#X connect 64 0 65 0;
#X connect 65 0 63 0;
#X connect 66 0 67 0;
#X connect 68 0 70 0;
#X connect 69 0 68 0;
#X connect 70 0 71 0;
#X coords 0 -1 1 1 450 170 1 100 100;
