#N canvas 0 0 1362 722 10;
#X declare -stdpath extra/moocow -lib pdstring;
#X declare -stdpath extra/moocow -lib pdstring;
#X declare -stdpath extra/moocow -lib pdstring;
#X obj 459 -193 beatjazzmouth;
#X obj 549 -192 beatjazzright;
#N canvas 342 52 1024 716 modes 0;
#X obj 101 101 cnv 15 172 60 empty empty empty 20 12 0 14 -4034 -66577
0;
#N canvas 0 75 992 547 jru 0;
#X obj 495 74 gemhead 1;
#X obj 512 131 tgl 15 0 empty empty empty 17 7 0 10 -262144 -1 -1 0
1;
#X obj 495 201 color;
#X msg 565 177 1 0 0;
#X obj 515 152 sel 0 1;
#X msg 507 176 0.4 0 0;
#X obj 195 77 gemhead 1;
#X obj 208 139 tgl 15 0 empty empty empty 17 7 0 10 -262144 -1 -1 0
1;
#X obj 195 204 color;
#X obj 208 157 sel 0 1;
#X obj 348 75 gemhead 1;
#X obj 361 137 tgl 15 0 empty empty empty 17 7 0 10 -262144 -1 -1 0
1;
#X obj 348 202 color;
#X obj 361 155 sel 0 1;
#X obj 53 79 gemhead 1;
#X obj 66 141 tgl 15 0 empty empty empty 17 7 0 10 -262144 -1 -1 0
1;
#X obj 53 206 color;
#X msg 123 182 1 0 0;
#X obj 66 159 sel 0 1;
#X msg 65 181 0.4 0 0;
#X obj 52 233 square 0.3;
#X obj 494 228 square 0.12;
#X obj 194 231 square 0.12;
#X obj 347 229 square 0.12;
#X obj 72 120 r rjuforward;
#X obj 207 117 r rjuback;
#X obj 363 118 r rjuup;
#X obj 495 95 translateXYZ 5.07 2.6 0;
#X obj 195 98 translateXYZ 4.8 2.78 0;
#X obj 348 96 translateXYZ 4.8 2.4 0;
#X obj 53 100 translateXYZ 4.3 2.6 0;
#X obj 509 113 r rjudown;
#X obj 735 63 gemhead;
#X obj 779 116 loadbang;
#X msg 730 15 1;
#X obj 735 232 text3d;
#X msg 587 212 text ---;
#X obj 734 88 translateXYZ 4.5 3.08 0;
#X msg 618 232 text FX MODE;
#X msg 767 164 2.5;
#X obj 774 185 r jrutext;
#X obj 628 255 s jrutext;
#X msg 422 229 text ---;
#X obj 463 272 s jrutext;
#X msg 276 230 text ---;
#X obj 317 273 s jrutext;
#X msg 124 232 text ---;
#X obj 165 275 s jrutext;
#X msg 207 179 0.4 0.3 0;
#X msg 265 180 1 1 0;
#X msg 360 177 0.4 0.3 0;
#X msg 418 178 1 1 0;
#X obj 426 368 s righthandparameters;
#X msg 453 249 text System Edit;
#X msg 155 252 text Instr mode;
#X msg 307 250 text Looper mode;
#X text 630 314 create a large transparent overlay to indicate that
its in an edit mode;
#X connect 0 0 27 0;
#X connect 1 0 4 0;
#X connect 2 0 21 0;
#X connect 3 0 2 1;
#X connect 4 0 5 0;
#X connect 4 0 36 0;
#X connect 4 1 3 0;
#X connect 4 1 38 0;
#X connect 5 0 2 1;
#X connect 6 0 28 0;
#X connect 7 0 9 0;
#X connect 8 0 22 0;
#X connect 9 0 48 0;
#X connect 9 0 44 0;
#X connect 9 1 49 0;
#X connect 9 1 55 0;
#X connect 10 0 29 0;
#X connect 11 0 13 0;
#X connect 12 0 23 0;
#X connect 13 0 50 0;
#X connect 13 0 42 0;
#X connect 13 1 51 0;
#X connect 13 1 53 0;
#X connect 14 0 30 0;
#X connect 15 0 18 0;
#X connect 16 0 20 0;
#X connect 17 0 16 1;
#X connect 18 0 19 0;
#X connect 18 0 46 0;
#X connect 18 1 17 0;
#X connect 18 1 54 0;
#X connect 19 0 16 1;
#X connect 24 0 15 0;
#X connect 25 0 7 0;
#X connect 26 0 11 0;
#X connect 27 0 2 0;
#X connect 28 0 8 0;
#X connect 29 0 12 0;
#X connect 30 0 16 0;
#X connect 31 0 1 0;
#X connect 32 0 37 0;
#X connect 33 0 39 0;
#X connect 34 0 32 0;
#X connect 36 0 41 0;
#X connect 36 0 52 0;
#X connect 37 0 35 0;
#X connect 38 0 41 0;
#X connect 38 0 52 0;
#X connect 39 0 35 1;
#X connect 40 0 35 0;
#X connect 42 0 43 0;
#X connect 42 0 52 0;
#X connect 44 0 45 0;
#X connect 44 0 52 0;
#X connect 46 0 47 0;
#X connect 46 0 52 0;
#X connect 48 0 8 1;
#X connect 49 0 8 1;
#X connect 50 0 12 1;
#X connect 51 0 12 1;
#X connect 53 0 43 0;
#X connect 53 0 52 0;
#X connect 54 0 47 0;
#X connect 54 0 52 0;
#X connect 55 0 45 0;
#X connect 55 0 52 0;
#X restore 104 164 pd jru;
#X obj 54 52 s rjuforward;
#X obj 135 52 s rjuback;
#X obj 201 51 s rjuup;
#X obj 322 75 s rjudown;
#X obj 85 31 tgl 15 0 empty empty empty 17 7 0 10 -262144 -1 -1 0 1
;
#X obj 83 12 sel 0 1;
#X obj 137 30 tgl 15 0 empty empty empty 17 7 0 10 -262144 -1 -1 0
1;
#X obj 141 10 sel 0 1;
#X obj 201 31 tgl 15 0 empty empty empty 17 7 0 10 -262144 -1 -1 0
1;
#X obj 202 9 sel 0 1;
#X obj 260 31 tgl 15 0 empty empty empty 17 7 0 10 -262144 -1 -1 0
1;
#X msg 271 74 0;
#X msg 208 75 0;
#X msg 149 76 0;
#X msg 86 76 0;
#X obj 145 101 tgl 15 0 empty empty empty 17 7 0 10 -262144 -1 -1 0
1;
#X obj 192 124 tgl 15 0 empty empty empty 17 7 0 10 -262144 -1 -1 0
1;
#X obj 144 142 tgl 15 0 empty empty empty 17 7 0 10 -262144 -1 -1 0
1;
#X obj 103 123 tgl 15 0 empty empty empty 17 7 0 10 -262144 -1 -1 0
1;
#X msg 105 31 1;
#X obj 265 10 sel 0 1;
#X obj 80 -36 r jru1;
#X obj 141 -35 r jru2;
#X obj 198 -34 r jru3;
#X obj 264 -33 r jru4;
#X msg 163 31 2;
#X msg 227 30 3;
#X msg 289 34 4;
#X text 119 123 SynthEditMode;
#X text 164 101 LooperEditMode;
#X text 161 142 SystemEditMode;
#X text 208 123 FXEditMode;
#X obj 9 202 r fl4;
#X obj 57 259 s fl4-1;
#X obj 107 259 s fl4-2;
#X obj 158 260 s fl4-3;
#X obj 207 261 s fl4-4;
#X obj 311 261 s fl3-1;
#X obj 359 261 s fl3-2;
#X obj 408 261 s fl3-3;
#X obj 457 262 s fl3-4;
#X obj 560 262 s fl2-1;
#X obj 609 261 s fl2-2;
#X obj 659 263 s fl2-3;
#X obj 708 263 s fl2-4;
#X obj 807 262 s fl1-1;
#X obj 858 262 s fl1-2;
#X obj 908 263 s fl1-3;
#X obj 956 263 s fl1-4;
#X obj 60 337 s fr4-1;
#X obj 110 336 s fr4-2;
#X obj 160 339 s fr4-3;
#X obj 212 342 s fr4-4;
#X obj 562 344 s fr3-1;
#X obj 611 344 s fr3-2;
#X obj 659 346 s fr3-3;
#X obj 708 346 s fr3-4;
#X obj 310 342 s fr2-1;
#X obj 361 343 s fr2-2;
#X obj 410 342 s fr2-3;
#X obj 460 343 s fr2-4;
#X obj 808 344 s fr1-1;
#X obj 856 344 s fr1-2;
#X obj 904 346 s fr1-3;
#X obj 955 347 s fr1-4;
#X obj 7 257 s fl4-0;
#X obj 261 260 s fl3-0;
#X obj 511 261 s fl2-0;
#X obj 758 262 s fl1-0;
#X obj 9 334 s fr4-0;
#X obj 512 344 s fr3-0;
#X obj 262 340 s fr2-0;
#X obj 759 344 s fr1-0;
#X obj 9 234 spigot;
#X obj 52 235 spigot;
#X obj 94 235 spigot;
#X obj 138 237 spigot;
#X obj 181 237 spigot;
#X obj 266 240 spigot;
#X obj 309 241 spigot;
#X obj 350 241 spigot;
#X obj 393 242 spigot;
#X obj 438 243 spigot;
#X obj 266 208 r fl3;
#X obj 506 239 spigot;
#X obj 549 240 spigot;
#X obj 590 240 spigot;
#X obj 633 241 spigot;
#X obj 678 242 spigot;
#X obj 506 207 r fl2;
#X obj 757 239 spigot;
#X obj 800 240 spigot;
#X obj 842 240 spigot;
#X obj 884 241 spigot;
#X obj 927 241 spigot;
#X obj 757 207 r fl1;
#X obj 10 314 spigot;
#X obj 53 315 spigot;
#X obj 94 315 spigot;
#X obj 137 316 spigot;
#X obj 182 317 spigot;
#X obj 267 320 spigot;
#X obj 310 321 spigot;
#X obj 351 321 spigot;
#X obj 394 322 spigot;
#X obj 439 323 spigot;
#X obj 505 319 spigot;
#X obj 548 320 spigot;
#X obj 589 320 spigot;
#X obj 632 321 spigot;
#X obj 677 322 spigot;
#X obj 758 319 spigot;
#X obj 801 320 spigot;
#X obj 842 320 spigot;
#X obj 885 321 spigot;
#X obj 928 321 spigot;
#X obj 10 282 r fr4;
#X obj 267 288 r fr2;
#X obj 505 287 r fr3;
#X obj 758 287 r fr1;
#N canvas 252 295 623 189 recievematrix 0;
#X obj 18 118 r default;
#X obj 80 117 r instedit;
#X obj 146 118 r looperedit;
#X obj 228 118 r systemedit;
#X obj 308 118 r fxedit;
#X obj 19 156 outlet;
#X obj 80 156 outlet;
#X obj 144 155 outlet;
#X obj 226 158 outlet;
#X obj 307 155 outlet;
#X obj 445 29 r rjuforward;
#X obj 319 24 r rjuback;
#X obj 19 26 r rjuup;
#X obj 449 53 == 0;
#X obj 483 51 == 1;
#X obj 509 73 s instedit;
#X obj 447 73 s default;
#X obj 20 52 == 0;
#X obj 18 72 s default;
#X obj 164 52 == 0;
#X obj 162 72 s default;
#X obj 80 72 s systemedit;
#X obj 318 48 == 0;
#X obj 316 68 s default;
#X obj 352 46 == 1;
#X obj 198 50 == 1;
#X obj 54 50 == 1;
#X obj 521 52 tgl 15 0 empty empty empty 17 7 0 10 -262144 -1 -1 0
1;
#X obj 394 49 tgl 15 0 empty empty empty 17 7 0 10 -262144 -1 -1 0
1;
#X obj 240 50 tgl 15 0 empty empty empty 17 7 0 10 -262144 -1 -1 0
1;
#X obj 94 49 tgl 15 0 empty empty empty 17 7 0 10 -262144 -1 -1 0 1
;
#X obj 380 68 s looperedit;
#X obj 228 73 s fxedit;
#X obj 171 24 r rjudownNULL;
#X connect 0 0 5 0;
#X connect 1 0 6 0;
#X connect 2 0 7 0;
#X connect 3 0 8 0;
#X connect 4 0 9 0;
#X connect 10 0 13 0;
#X connect 10 0 14 0;
#X connect 10 0 27 0;
#X connect 11 0 22 0;
#X connect 11 0 24 0;
#X connect 11 0 28 0;
#X connect 12 0 17 0;
#X connect 12 0 26 0;
#X connect 12 0 30 0;
#X connect 13 0 16 0;
#X connect 14 0 15 0;
#X connect 17 0 18 0;
#X connect 19 0 20 0;
#X connect 22 0 23 0;
#X connect 24 0 31 0;
#X connect 25 0 32 0;
#X connect 26 0 21 0;
#X connect 33 0 19 0;
#X connect 33 0 25 0;
#X connect 33 0 29 0;
#X restore 604 17 pd recievematrix;
#X obj 40 5 bng 15 250 50 0 empty empty empty 17 7 0 10 -262144 -1
-1;
#X obj 394 48 s xlrmtr1a;
#X obj 350 16 tgl 15 0 empty empty empty 17 7 0 10 -262144 -1 -1 0
1;
#N canvas 572 227 249 223 bk 0;
#X obj 69 63 tgl 15 0 empty empty empty 17 7 0 10 -262144 -1 -1 0 3
;
#X obj 88 113 tgl 15 0 empty empty empty 17 7 0 10 -262144 -1 -1 0
1;
#X obj 62 44 * 3;
#X floatatom 27 51 5 0 0 0 - - -;
#X floatatom 98 139 5 0 0 0 - - -;
#X obj 59 3 inlet;
#X obj 94 199 outlet;
#X obj 173 68 r flash;
#X msg 176 103 0;
#X obj 42 81 threshold 2 0 2 0;
#X connect 1 0 4 0;
#X connect 1 0 6 0;
#X connect 2 0 0 0;
#X connect 2 0 3 0;
#X connect 2 0 9 0;
#X connect 5 0 2 0;
#X connect 7 0 8 0;
#X connect 8 0 1 0;
#X connect 9 0 1 0;
#X connect 9 1 1 0;
#X restore 350 -31 pd bk;
#X obj 348 -8 sel 1;
#X obj 38 149 s haptic;
#X connect 6 0 2 0;
#X connect 6 0 20 0;
#X connect 6 0 128 0;
#X connect 7 0 6 0;
#X connect 7 1 21 0;
#X connect 8 0 3 0;
#X connect 8 0 17 0;
#X connect 8 0 128 0;
#X connect 9 0 8 0;
#X connect 9 1 27 0;
#X connect 10 0 4 0;
#X connect 10 0 19 0;
#X connect 10 0 128 0;
#X connect 11 0 10 0;
#X connect 11 1 28 0;
#X connect 12 0 18 0;
#X connect 12 0 128 0;
#X connect 13 0 10 0;
#X connect 13 0 8 0;
#X connect 13 0 6 0;
#X connect 14 0 6 0;
#X connect 14 0 8 0;
#X connect 14 0 12 0;
#X connect 15 0 6 0;
#X connect 15 0 10 0;
#X connect 15 0 12 0;
#X connect 16 0 8 0;
#X connect 16 0 10 0;
#X connect 16 0 12 0;
#X connect 21 0 16 0;
#X connect 22 0 12 0;
#X connect 22 1 29 0;
#X connect 23 0 123 0;
#X connect 23 0 7 0;
#X connect 24 0 126 0;
#X connect 25 0 11 0;
#X connect 26 0 22 0;
#X connect 27 0 15 0;
#X connect 28 0 14 0;
#X connect 29 0 13 0;
#X connect 34 0 75 0;
#X connect 34 0 76 0;
#X connect 34 0 78 0;
#X connect 34 0 79 0;
#X connect 34 0 77 0;
#X connect 75 0 67 0;
#X connect 76 0 35 0;
#X connect 77 0 36 0;
#X connect 78 0 37 0;
#X connect 79 0 38 0;
#X connect 80 0 68 0;
#X connect 81 0 39 0;
#X connect 82 0 40 0;
#X connect 83 0 41 0;
#X connect 84 0 42 0;
#X connect 85 0 80 0;
#X connect 85 0 81 0;
#X connect 85 0 83 0;
#X connect 85 0 84 0;
#X connect 85 0 82 0;
#X connect 86 0 69 0;
#X connect 87 0 43 0;
#X connect 88 0 44 0;
#X connect 89 0 45 0;
#X connect 90 0 46 0;
#X connect 91 0 86 0;
#X connect 91 0 87 0;
#X connect 91 0 89 0;
#X connect 91 0 90 0;
#X connect 91 0 88 0;
#X connect 92 0 70 0;
#X connect 93 0 47 0;
#X connect 94 0 48 0;
#X connect 95 0 49 0;
#X connect 96 0 50 0;
#X connect 97 0 92 0;
#X connect 97 0 93 0;
#X connect 97 0 95 0;
#X connect 97 0 96 0;
#X connect 97 0 94 0;
#X connect 98 0 71 0;
#X connect 99 0 51 0;
#X connect 100 0 52 0;
#X connect 101 0 53 0;
#X connect 102 0 54 0;
#X connect 103 0 73 0;
#X connect 104 0 59 0;
#X connect 105 0 60 0;
#X connect 106 0 61 0;
#X connect 107 0 62 0;
#X connect 108 0 72 0;
#X connect 109 0 55 0;
#X connect 110 0 56 0;
#X connect 111 0 57 0;
#X connect 112 0 58 0;
#X connect 113 0 74 0;
#X connect 114 0 63 0;
#X connect 115 0 64 0;
#X connect 116 0 65 0;
#X connect 117 0 66 0;
#X connect 118 0 98 0;
#X connect 118 0 99 0;
#X connect 118 0 101 0;
#X connect 118 0 102 0;
#X connect 118 0 100 0;
#X connect 119 0 103 0;
#X connect 119 0 104 0;
#X connect 119 0 106 0;
#X connect 119 0 107 0;
#X connect 119 0 105 0;
#X connect 120 0 108 0;
#X connect 120 0 109 0;
#X connect 120 0 111 0;
#X connect 120 0 112 0;
#X connect 120 0 110 0;
#X connect 121 0 113 0;
#X connect 121 0 114 0;
#X connect 121 0 116 0;
#X connect 121 0 117 0;
#X connect 121 0 115 0;
#X connect 122 0 75 1;
#X connect 122 0 80 1;
#X connect 122 0 86 1;
#X connect 122 0 92 1;
#X connect 122 0 98 1;
#X connect 122 0 103 1;
#X connect 122 0 108 1;
#X connect 122 0 113 1;
#X connect 122 1 76 1;
#X connect 122 1 81 1;
#X connect 122 1 87 1;
#X connect 122 1 93 1;
#X connect 122 1 99 1;
#X connect 122 1 104 1;
#X connect 122 1 109 1;
#X connect 122 1 114 1;
#X connect 122 2 77 1;
#X connect 122 2 82 1;
#X connect 122 2 88 1;
#X connect 122 2 94 1;
#X connect 122 2 100 1;
#X connect 122 2 105 1;
#X connect 122 2 110 1;
#X connect 122 2 115 1;
#X connect 122 3 78 1;
#X connect 122 3 83 1;
#X connect 122 3 89 1;
#X connect 122 3 95 1;
#X connect 122 3 101 1;
#X connect 122 3 106 1;
#X connect 122 3 111 1;
#X connect 122 3 116 1;
#X connect 122 4 79 1;
#X connect 122 4 84 1;
#X connect 122 4 90 1;
#X connect 122 4 96 1;
#X connect 122 4 102 1;
#X connect 122 4 107 1;
#X connect 122 4 112 1;
#X connect 122 4 117 1;
#X connect 125 0 124 0;
#X connect 125 0 5 0;
#X connect 126 0 127 0;
#X connect 127 0 125 0;
#X coords 0 -1 1 1 175 60 1 100 100;
#X restore 668 63 pd modes;
#X obj 846 64 bits2num;
#N canvas 88 185 247 143 Gem.init 0;
#X obj 118 46 loadbang;
#X msg 118 81 reset;
#X obj 118 113 outlet;
#X connect 0 0 1 0;
#X connect 1 0 2 0;
#X restore 463 -4 pd Gem.init;
#N canvas 338 111 682 322 gemwin 0;
#X obj 103 105 tgl 15 0 \$0-gemstart \$0-gemstart empty 17 7 0 10 -262144
-1 -1 0 1;
#X obj 102 161 r \$0-gemstart;
#X obj 102 182 select 1 0;
#X msg 102 214 create \, 1;
#X msg 177 215 destroy;
#X obj 102 239 t a;
#X obj 318 54 inlet;
#X obj 318 287 outlet;
#X obj 350 128 route create destroy;
#X obj 350 150 t b;
#X msg 350 172 1;
#X obj 390 150 t b;
#X msg 390 172 0;
#X obj 350 195 t f;
#X msg 350 219 set \$1;
#X text 118 122 rendering;
#X obj 319 255 gemwin 60;
#X msg 493 236 fullscreen;
#X msg 454 183 dimen 1024 768;
#X obj 318 100 t a a b b;
#X connect 1 0 2 0;
#X connect 2 0 3 0;
#X connect 2 1 4 0;
#X connect 3 0 5 0;
#X connect 4 0 5 0;
#X connect 5 0 19 0;
#X connect 6 0 19 0;
#X connect 8 0 9 0;
#X connect 8 1 11 0;
#X connect 9 0 10 0;
#X connect 10 0 13 0;
#X connect 11 0 12 0;
#X connect 12 0 13 0;
#X connect 13 0 14 0;
#X connect 14 0 0 0;
#X connect 16 0 7 0;
#X connect 17 0 16 0;
#X connect 18 0 16 0;
#X connect 19 0 16 0;
#X connect 19 1 8 0;
#X connect 19 2 17 0;
#X connect 19 3 18 0;
#X coords 0 -1 1 1 85 25 2 100 100;
#X restore 460 18 pd gemwin;
#X obj 3 -193 beatjazzleft;
#X obj 464 -25 beatjazzviz1;
#X obj 194 63 hradio 15 1 0 12 empty empty empty 0 -8 0 10 -262144
-1 -1 0;
#X obj 196 81 s transend;
#X obj 379 64 beatjazzprograms;
#X obj -52 127 instrmodeKORE;
#X connect 4 0 5 0;
#X connect 8 0 9 0;
#X coords 0 0 1 1 1000 650 0;
