#N canvas 4 55 450 300 10;
#N canvas 1952 35 738 564 netreceive 1;
#X obj -332 89 netreceive 13001;
#X floatatom -198 89 5 0 0 0 - - -;
#X floatatom -340 335 5 0 0 0 - - -;
#X obj -159 218 s yaxis;
#X obj -259 218 s xaxis;
#X obj -207 219 s zaxis;
#X obj -257 241 s xaxisr;
#X obj -203 241 s yaxisr;
#X obj -147 241 s zaxisr;
#X obj -280 273 s breath;
#X obj -35 190 s jlu4;
#X obj -78 191 s jlu3;
#X obj -123 191 s jlu2;
#X obj -169 190 s jlu1;
#X obj 16 167 s jrb1;
#X obj 69 164 s jrb2;
#X obj 123 166 s jrb3;
#X obj 176 167 s jrb4;
#X obj 13 190 s rjuforward;
#X obj 90 189 s rjuback;
#X obj 150 189 s rjuup;
#X obj 198 189 s rjudown;
#X obj -341 295 unpack f f f;
#X obj -335 114 route 1 2 3 4 5 6 7 8 9 10 11 12 13 14 15 16 17 18
19 20 21 22 23;
#X floatatom -300 334 5 0 0 0 - - -;
#X floatatom -261 335 5 0 0 0 - - -;
#X obj -336 274 s pgmout;
#X obj -221 274 s noteval;
#X obj -157 275 s mynotemsg;
#X obj -84 274 s parakey;
#X connect 0 0 23 0;
#X connect 0 1 1 0;
#X connect 23 0 2 0;
#X connect 23 0 22 0;
#X connect 23 0 26 0;
#X connect 23 1 24 0;
#X connect 23 1 9 0;
#X connect 23 2 25 0;
#X connect 23 2 27 0;
#X connect 23 3 28 0;
#X connect 23 4 29 0;
#X connect 23 5 4 0;
#X connect 23 6 5 0;
#X connect 23 7 3 0;
#X connect 23 8 6 0;
#X connect 23 9 7 0;
#X connect 23 10 8 0;
#X connect 23 11 13 0;
#X connect 23 12 12 0;
#X connect 23 13 11 0;
#X connect 23 14 10 0;
#X connect 23 15 14 0;
#X connect 23 16 15 0;
#X connect 23 17 16 0;
#X connect 23 18 17 0;
#X connect 23 19 18 0;
#X connect 23 20 19 0;
#X connect 23 21 20 0;
#X connect 23 22 21 0;
#X restore 184 81 pd netreceive;
