#N canvas 0 35 1024 730 10;
#X obj 417 105 tgl 30 0 empty empty empty 17 7 0 10 -258113 -1 -1 0
1;
#X obj 383 105 tgl 30 0 empty empty empty 17 7 0 10 -4034 -1 -1 0 1
;
#X obj 349 105 tgl 30 0 empty empty empty 17 7 0 10 -4032 -1 -1 0 1
;
#X obj 316 127 tgl 30 0 empty empty empty 17 7 0 10 -257985 -1 -1 0
1;
#X text 315 110 Left;
#X obj 408 46 > 0.03;
#X obj 320 46 > 0.03;
#X obj 275 49 > 0.03;
#X obj 365 46 > 0.05;
#X text 424 113 1;
#X text 389 112 2;
#X text 355 113 3;
#X text 322 133 4;
#X obj 264 120 s flash;
#X obj 296 142 bng 15 250 50 0 empty empty empty 17 7 0 10 -262144
-1 -1;
#X obj 466 75 r frange1;
#X obj 528 75 r frange2;
#X obj 588 76 r frange3;
#X obj 650 75 r frange4;
#N canvas 598 180 236 269 bk 0;
#X obj 69 63 tgl 15 0 empty empty empty 17 7 0 10 -262144 -1 -1 0 3
;
#X obj 88 113 tgl 15 0 empty empty empty 17 7 0 10 -262144 -1 -1 0
1;
#X obj 62 44 * 3;
#X floatatom 27 51 5 0 0 0 - - -;
#X floatatom 98 139 5 0 0 0 - - -;
#X obj 59 3 inlet;
#X obj 94 199 outlet;
#X obj 42 81 threshold 2 1 1 2;
#X obj 173 68 r flash;
#X msg 176 103 0;
#X connect 1 0 4 0;
#X connect 2 0 0 0;
#X connect 2 0 3 0;
#X connect 2 0 7 0;
#X connect 4 0 6 0;
#X connect 5 0 2 0;
#X connect 7 0 1 0;
#X connect 7 1 1 0;
#X connect 8 0 9 0;
#X connect 9 0 1 0;
#X restore 415 76 pd bk;
#N canvas 598 180 236 269 bk 0;
#X obj 69 63 tgl 15 0 empty empty empty 17 7 0 10 -262144 -1 -1 0 3
;
#X obj 88 113 tgl 15 0 empty empty empty 17 7 0 10 -262144 -1 -1 0
1;
#X obj 62 44 * 3;
#X floatatom 27 51 5 0 0 0 - - -;
#X floatatom 98 139 5 0 0 0 - - -;
#X obj 59 3 inlet;
#X obj 94 199 outlet;
#X obj 42 81 threshold 2 1 1 2;
#X obj 173 68 r flash;
#X msg 176 103 0;
#X connect 1 0 4 0;
#X connect 2 0 0 0;
#X connect 2 0 3 0;
#X connect 2 0 7 0;
#X connect 4 0 6 0;
#X connect 5 0 2 0;
#X connect 7 0 1 0;
#X connect 7 1 1 0;
#X connect 8 0 9 0;
#X connect 9 0 1 0;
#X restore 289 74 pd bk;
#N canvas 598 180 236 269 bk 0;
#X obj 69 63 tgl 15 0 empty empty empty 17 7 0 10 -262144 -1 -1 0 3
;
#X obj 88 113 tgl 15 0 empty empty empty 17 7 0 10 -262144 -1 -1 0
1;
#X obj 62 44 * 3;
#X floatatom 27 51 5 0 0 0 - - -;
#X floatatom 98 139 5 0 0 0 - - -;
#X obj 59 3 inlet;
#X obj 94 199 outlet;
#X obj 42 81 threshold 2 1 1 2;
#X obj 173 68 r flash;
#X msg 176 103 0;
#X connect 1 0 4 0;
#X connect 2 0 0 0;
#X connect 2 0 3 0;
#X connect 2 0 7 0;
#X connect 4 0 6 0;
#X connect 5 0 2 0;
#X connect 7 0 1 0;
#X connect 7 1 1 0;
#X connect 8 0 9 0;
#X connect 9 0 1 0;
#X restore 330 76 pd bk;
#N canvas 598 180 236 269 bk 0;
#X obj 69 63 tgl 15 0 empty empty empty 17 7 0 10 -262144 -1 -1 0 3
;
#X obj 88 113 tgl 15 0 empty empty empty 17 7 0 10 -262144 -1 -1 0
1;
#X obj 62 44 * 3;
#X floatatom 27 51 5 0 0 0 - - -;
#X floatatom 98 139 5 0 0 0 - - -;
#X obj 59 3 inlet;
#X obj 94 199 outlet;
#X obj 42 81 threshold 2 1 1 2;
#X obj 173 68 r flash;
#X msg 176 103 0;
#X connect 1 0 4 0;
#X connect 2 0 0 0;
#X connect 2 0 3 0;
#X connect 2 0 7 0;
#X connect 4 0 6 0;
#X connect 5 0 2 0;
#X connect 7 0 1 0;
#X connect 7 1 1 0;
#X connect 8 0 9 0;
#X connect 9 0 1 0;
#X restore 374 76 pd bk;
#X obj 267 25 r fl4;
#X obj 315 24 r fl3;
#X obj 363 23 r fl2;
#X obj 413 24 r fl1;
#N canvas 0 0 1024 730 beatboxkey1 0;
#X floatatom 136 416 5 0 0 0 - - -;
#X obj 137 198 * 127;
#X obj 183 197 * 127;
#X obj 128 327 grid grid2 85 1 127 85 1 127 1 1 1 1 5 648 500;
#X msg 119 290 goto \$1 \$2;
#X obj 119 253 pack 1 1;
#X obj 152 166 unpack f f f;
#X obj 225 310 vsl 15 127 1 127 0 0 empty empty empty 0 -9 0 10 -262144
-1 -1 2400 1;
#X obj 150 76 r xlrmtr1;
#N canvas 0 0 303 384 rangex 0;
#X obj 106 72 clip 36 96;
#X floatatom 107 102 5 0 0 0 - - -;
#X obj 107 124 - 36;
#X floatatom 108 151 5 0 0 0 - - -;
#X floatatom 109 224 5 0 0 0 - - -;
#X obj 109 196 int;
#X obj 108 176 * 2.2;
#X obj 109 247 clip 0 127;
#X floatatom 112 280 5 0 0 0 - - -;
#X text 146 100 range multiplier;
#X obj 107 40 inlet;
#X obj 115 317 outlet;
#X connect 0 0 1 0;
#X connect 1 0 2 0;
#X connect 2 0 3 0;
#X connect 3 0 6 0;
#X connect 4 0 7 0;
#X connect 5 0 4 0;
#X connect 6 0 5 0;
#X connect 7 0 8 0;
#X connect 8 0 11 0;
#X connect 10 0 0 0;
#X restore 110 224 pd rangex;
#N canvas 0 0 303 384 rangex 0;
#X obj 106 72 clip 36 96;
#X floatatom 107 102 5 0 0 0 - - -;
#X obj 107 124 - 36;
#X floatatom 108 151 5 0 0 0 - - -;
#X floatatom 109 224 5 0 0 0 - - -;
#X obj 109 196 int;
#X obj 108 176 * 2.2;
#X obj 109 247 clip 0 127;
#X floatatom 112 280 5 0 0 0 - - -;
#X text 146 100 range multiplier;
#X obj 107 40 inlet;
#X obj 115 317 outlet;
#X connect 0 0 1 0;
#X connect 1 0 2 0;
#X connect 2 0 3 0;
#X connect 3 0 6 0;
#X connect 4 0 7 0;
#X connect 5 0 4 0;
#X connect 6 0 5 0;
#X connect 7 0 8 0;
#X connect 8 0 11 0;
#X connect 10 0 0 0;
#X restore 176 224 pd rangex;
#N canvas 663 216 303 384 rangex 0;
#X obj 106 72 clip 36 96;
#X floatatom 107 102 5 0 0 0 - - -;
#X obj 107 124 - 36;
#X floatatom 108 151 5 0 0 0 - - -;
#X floatatom 109 224 5 0 0 0 - - -;
#X obj 109 196 int;
#X obj 108 176 * 2.2;
#X obj 109 247 clip 0 127;
#X floatatom 112 280 5 0 0 0 - - -;
#X text 146 100 range multiplier;
#X obj 107 40 inlet;
#X obj 115 317 outlet;
#X connect 0 0 1 0;
#X connect 1 0 2 0;
#X connect 2 0 3 0;
#X connect 3 0 6 0;
#X connect 4 0 7 0;
#X connect 5 0 4 0;
#X connect 6 0 5 0;
#X connect 7 0 8 0;
#X connect 8 0 11 0;
#X connect 10 0 0 0;
#X restore 249 225 pd rangex;
#X obj 152 107 spigot;
#N canvas 561 216 463 496 z 0;
#X text 116 139 chnl#16;
#X floatatom 224 123 5 0 0 0 - - -;
#X obj 175 172 t b b;
#X obj 175 200 f;
#X obj 175 223 + 1;
#X obj 123 103 tgl 15 0 empty empty empty 17 7 0 10 -262144 -1 -1 0
1;
#X floatatom 143 124 5 0 0 0 - - -;
#X msg 202 200 1;
#X obj 103 103 bng 15 250 50 0 empty empty empty 17 7 0 10 -262144
-1 -1;
#X obj 122 187 outlet;
#X obj 175 147 delay 500;
#X obj 124 51 inlet zflip in;
#X obj 183 101 s moseszflip;
#X floatatom 107 333 5 0 0 0 - - -;
#X obj 176 123 sel 127;
#X obj 125 76 moses 120;
#X connect 2 0 3 0;
#X connect 2 1 7 0;
#X connect 3 0 4 0;
#X connect 4 0 8 0;
#X connect 5 0 9 0;
#X connect 7 0 3 1;
#X connect 8 0 5 0;
#X connect 10 0 2 0;
#X connect 11 0 15 0;
#X connect 14 0 6 0;
#X connect 14 0 10 0;
#X connect 14 1 1 0;
#X connect 15 0 12 0;
#X connect 15 1 14 0;
#X coords 0 -1 1 1 40 20 2 100 100;
#X restore 171 417 pd z flip switch;
#X obj 178 245 s \$0-r;
#X obj 224 246 s \$0-g;
#X obj 268 246 s \$0-b;
#X floatatom 293 193 5 0 0 0 - - -;
#X obj 237 198 * 127;
#X obj 96 455 s 1x1x;
#X obj 145 454 s 1x1y;
#X obj 192 455 s 1x1z;
#X floatatom 108 140 5 0 0 0 - - -;
#X obj 88 476 outlet x;
#X obj 160 482 outlet y;
#X obj 250 277 outlet z;
#X obj 218 76 inlet;
#X obj 328 477 outlet onoff;
#X obj 328 456 * 127;
#X connect 1 0 9 0;
#X connect 2 0 10 0;
#X connect 3 0 0 0;
#X connect 3 0 19 0;
#X connect 3 0 23 0;
#X connect 3 1 20 0;
#X connect 3 1 24 0;
#X connect 4 0 3 0;
#X connect 5 0 4 0;
#X connect 6 0 1 0;
#X connect 6 0 14 0;
#X connect 6 1 2 0;
#X connect 6 1 15 0;
#X connect 6 2 17 0;
#X connect 6 2 18 0;
#X connect 6 2 16 0;
#X connect 7 0 13 0;
#X connect 8 0 12 0;
#X connect 9 0 5 0;
#X connect 10 0 5 1;
#X connect 11 0 7 0;
#X connect 11 0 25 0;
#X connect 12 0 22 0;
#X connect 12 0 6 0;
#X connect 13 0 21 0;
#X connect 18 0 11 0;
#X connect 26 0 12 1;
#X connect 26 0 28 0;
#X connect 28 0 27 0;
#X coords 0 -1 1 1 150 150 1 100 300;
#X restore 538 193 pd beatboxkey1;
#N canvas 0 0 1024 730 beatboxkey1 0;
#X floatatom 136 416 5 0 0 0 - - -;
#X obj 137 198 * 127;
#X obj 183 197 * 127;
#X obj 128 327 grid grid2 85 1 127 85 1 127 1 1 1 1 5 588 453;
#X msg 119 290 goto \$1 \$2;
#X obj 119 253 pack 1 1;
#X obj 152 166 unpack f f f;
#X obj 225 310 vsl 15 127 1 127 0 0 empty empty empty 0 -9 0 10 -262144
-1 -1 0 1;
#X obj 150 76 r xlrmtr1;
#N canvas 0 0 303 384 rangex 0;
#X obj 106 72 clip 36 96;
#X floatatom 107 102 5 0 0 0 - - -;
#X obj 107 124 - 36;
#X floatatom 108 151 5 0 0 0 - - -;
#X floatatom 109 224 5 0 0 0 - - -;
#X obj 109 196 int;
#X obj 108 176 * 2.2;
#X obj 109 247 clip 0 127;
#X floatatom 112 280 5 0 0 0 - - -;
#X text 146 100 range multiplier;
#X obj 107 40 inlet;
#X obj 115 317 outlet;
#X connect 0 0 1 0;
#X connect 1 0 2 0;
#X connect 2 0 3 0;
#X connect 3 0 6 0;
#X connect 4 0 7 0;
#X connect 5 0 4 0;
#X connect 6 0 5 0;
#X connect 7 0 8 0;
#X connect 8 0 11 0;
#X connect 10 0 0 0;
#X restore 110 224 pd rangex;
#N canvas 0 0 303 384 rangex 0;
#X obj 106 72 clip 36 96;
#X floatatom 107 102 5 0 0 0 - - -;
#X obj 107 124 - 36;
#X floatatom 108 151 5 0 0 0 - - -;
#X floatatom 109 224 5 0 0 0 - - -;
#X obj 109 196 int;
#X obj 108 176 * 2.2;
#X obj 109 247 clip 0 127;
#X floatatom 112 280 5 0 0 0 - - -;
#X text 146 100 range multiplier;
#X obj 107 40 inlet;
#X obj 115 317 outlet;
#X connect 0 0 1 0;
#X connect 1 0 2 0;
#X connect 2 0 3 0;
#X connect 3 0 6 0;
#X connect 4 0 7 0;
#X connect 5 0 4 0;
#X connect 6 0 5 0;
#X connect 7 0 8 0;
#X connect 8 0 11 0;
#X connect 10 0 0 0;
#X restore 176 224 pd rangex;
#N canvas 1265 221 303 384 rangex 0;
#X obj 106 72 clip 36 96;
#X floatatom 107 102 5 0 0 0 - - -;
#X obj 107 124 - 36;
#X floatatom 108 151 5 0 0 0 - - -;
#X floatatom 109 224 5 0 0 0 - - -;
#X obj 109 196 int;
#X obj 108 176 * 2.2;
#X obj 109 247 clip 0 127;
#X floatatom 112 280 5 0 0 0 - - -;
#X text 146 100 range multiplier;
#X obj 107 40 inlet;
#X obj 115 317 outlet;
#X connect 0 0 1 0;
#X connect 1 0 2 0;
#X connect 2 0 3 0;
#X connect 3 0 6 0;
#X connect 4 0 7 0;
#X connect 5 0 4 0;
#X connect 6 0 5 0;
#X connect 7 0 8 0;
#X connect 8 0 11 0;
#X connect 10 0 0 0;
#X restore 249 225 pd rangex;
#X obj 152 107 spigot;
#N canvas 561 216 463 496 z 0;
#X text 116 139 chnl#16;
#X floatatom 224 123 5 0 0 0 - - -;
#X obj 175 172 t b b;
#X obj 175 200 f;
#X obj 175 223 + 1;
#X obj 123 103 tgl 15 0 empty empty empty 17 7 0 10 -262144 -1 -1 0
1;
#X floatatom 143 124 5 0 0 0 - - -;
#X msg 202 200 1;
#X obj 103 103 bng 15 250 50 0 empty empty empty 17 7 0 10 -262144
-1 -1;
#X obj 122 187 outlet;
#X obj 175 147 delay 500;
#X obj 124 51 inlet zflip in;
#X obj 183 101 s moseszflip;
#X floatatom 107 333 5 0 0 0 - - -;
#X obj 176 123 sel 127;
#X obj 125 76 moses 120;
#X connect 2 0 3 0;
#X connect 2 1 7 0;
#X connect 3 0 4 0;
#X connect 4 0 8 0;
#X connect 5 0 9 0;
#X connect 7 0 3 1;
#X connect 8 0 5 0;
#X connect 10 0 2 0;
#X connect 11 0 15 0;
#X connect 14 0 6 0;
#X connect 14 0 10 0;
#X connect 14 1 1 0;
#X connect 15 0 12 0;
#X connect 15 1 14 0;
#X coords 0 -1 1 1 40 20 2 100 100;
#X restore 171 417 pd z flip switch;
#X obj 178 245 s \$0-r;
#X obj 224 246 s \$0-g;
#X obj 268 246 s \$0-b;
#X floatatom 293 193 5 0 0 0 - - -;
#X obj 237 198 * 127;
#X obj 96 455 s 1x1x;
#X obj 145 454 s 1x1y;
#X obj 192 455 s 1x1z;
#X floatatom 108 140 5 0 0 0 - - -;
#X obj 88 476 outlet x;
#X obj 160 482 outlet y;
#X obj 250 277 outlet z;
#X obj 218 76 inlet;
#X obj 328 477 outlet onoff;
#X obj 328 456 * 127;
#X connect 1 0 9 0;
#X connect 2 0 10 0;
#X connect 3 0 0 0;
#X connect 3 0 19 0;
#X connect 3 0 23 0;
#X connect 3 1 20 0;
#X connect 3 1 24 0;
#X connect 4 0 3 0;
#X connect 5 0 4 0;
#X connect 6 0 1 0;
#X connect 6 0 14 0;
#X connect 6 1 2 0;
#X connect 6 1 15 0;
#X connect 6 2 17 0;
#X connect 6 2 18 0;
#X connect 6 2 16 0;
#X connect 7 0 13 0;
#X connect 8 0 12 0;
#X connect 9 0 5 0;
#X connect 10 0 5 1;
#X connect 11 0 7 0;
#X connect 11 0 25 0;
#X connect 12 0 22 0;
#X connect 12 0 6 0;
#X connect 13 0 21 0;
#X connect 18 0 11 0;
#X connect 26 0 12 1;
#X connect 26 0 28 0;
#X connect 28 0 27 0;
#X coords 0 -1 1 1 150 150 1 100 300;
#X restore 64 193 pd beatboxkey1;
#N canvas 0 0 1024 730 beatboxkey1 0;
#X floatatom 136 416 5 0 0 0 - - -;
#X obj 137 198 * 127;
#X obj 183 197 * 127;
#X obj 128 327 grid grid2 85 1 127 85 1 127 1 1 1 1 5 588 453;
#X msg 119 290 goto \$1 \$2;
#X obj 119 253 pack 1 1;
#X obj 152 166 unpack f f f;
#X obj 225 310 vsl 15 127 1 127 0 0 empty empty empty 0 -9 0 10 -262144
-1 -1 0 1;
#X obj 150 76 r xlrmtr1;
#N canvas 0 0 303 384 rangex 0;
#X obj 106 72 clip 36 96;
#X floatatom 107 102 5 0 0 0 - - -;
#X obj 107 124 - 36;
#X floatatom 108 151 5 0 0 0 - - -;
#X floatatom 109 224 5 0 0 0 - - -;
#X obj 109 196 int;
#X obj 108 176 * 2.2;
#X obj 109 247 clip 0 127;
#X floatatom 112 280 5 0 0 0 - - -;
#X text 146 100 range multiplier;
#X obj 107 40 inlet;
#X obj 115 317 outlet;
#X connect 0 0 1 0;
#X connect 1 0 2 0;
#X connect 2 0 3 0;
#X connect 3 0 6 0;
#X connect 4 0 7 0;
#X connect 5 0 4 0;
#X connect 6 0 5 0;
#X connect 7 0 8 0;
#X connect 8 0 11 0;
#X connect 10 0 0 0;
#X restore 110 224 pd rangex;
#N canvas 0 0 303 384 rangex 0;
#X obj 106 72 clip 36 96;
#X floatatom 107 102 5 0 0 0 - - -;
#X obj 107 124 - 36;
#X floatatom 108 151 5 0 0 0 - - -;
#X floatatom 109 224 5 0 0 0 - - -;
#X obj 109 196 int;
#X obj 108 176 * 2.2;
#X obj 109 247 clip 0 127;
#X floatatom 112 280 5 0 0 0 - - -;
#X text 146 100 range multiplier;
#X obj 107 40 inlet;
#X obj 115 317 outlet;
#X connect 0 0 1 0;
#X connect 1 0 2 0;
#X connect 2 0 3 0;
#X connect 3 0 6 0;
#X connect 4 0 7 0;
#X connect 5 0 4 0;
#X connect 6 0 5 0;
#X connect 7 0 8 0;
#X connect 8 0 11 0;
#X connect 10 0 0 0;
#X restore 176 224 pd rangex;
#N canvas 1265 221 303 384 rangex 0;
#X obj 106 72 clip 36 96;
#X floatatom 107 102 5 0 0 0 - - -;
#X obj 107 124 - 36;
#X floatatom 108 151 5 0 0 0 - - -;
#X floatatom 109 224 5 0 0 0 - - -;
#X obj 109 196 int;
#X obj 108 176 * 2.2;
#X obj 109 247 clip 0 127;
#X floatatom 112 280 5 0 0 0 - - -;
#X text 146 100 range multiplier;
#X obj 107 40 inlet;
#X obj 115 317 outlet;
#X connect 0 0 1 0;
#X connect 1 0 2 0;
#X connect 2 0 3 0;
#X connect 3 0 6 0;
#X connect 4 0 7 0;
#X connect 5 0 4 0;
#X connect 6 0 5 0;
#X connect 7 0 8 0;
#X connect 8 0 11 0;
#X connect 10 0 0 0;
#X restore 249 225 pd rangex;
#X obj 152 107 spigot;
#N canvas 561 216 463 496 z 0;
#X text 116 139 chnl#16;
#X floatatom 224 123 5 0 0 0 - - -;
#X obj 175 172 t b b;
#X obj 175 200 f;
#X obj 175 223 + 1;
#X obj 123 103 tgl 15 0 empty empty empty 17 7 0 10 -262144 -1 -1 0
1;
#X floatatom 143 124 5 0 0 0 - - -;
#X msg 202 200 1;
#X obj 103 103 bng 15 250 50 0 empty empty empty 17 7 0 10 -262144
-1 -1;
#X obj 122 187 outlet;
#X obj 175 147 delay 500;
#X obj 124 51 inlet zflip in;
#X obj 183 101 s moseszflip;
#X floatatom 107 333 5 0 0 0 - - -;
#X obj 176 123 sel 127;
#X obj 125 76 moses 120;
#X connect 2 0 3 0;
#X connect 2 1 7 0;
#X connect 3 0 4 0;
#X connect 4 0 8 0;
#X connect 5 0 9 0;
#X connect 7 0 3 1;
#X connect 8 0 5 0;
#X connect 10 0 2 0;
#X connect 11 0 15 0;
#X connect 14 0 6 0;
#X connect 14 0 10 0;
#X connect 14 1 1 0;
#X connect 15 0 12 0;
#X connect 15 1 14 0;
#X coords 0 -1 1 1 40 20 2 100 100;
#X restore 171 417 pd z flip switch;
#X obj 178 245 s \$0-r;
#X obj 224 246 s \$0-g;
#X obj 268 246 s \$0-b;
#X floatatom 293 193 5 0 0 0 - - -;
#X obj 237 198 * 127;
#X obj 96 455 s 1x1x;
#X obj 145 454 s 1x1y;
#X obj 192 455 s 1x1z;
#X floatatom 108 140 5 0 0 0 - - -;
#X obj 88 476 outlet x;
#X obj 160 482 outlet y;
#X obj 250 277 outlet z;
#X obj 218 76 inlet;
#X obj 328 477 outlet onoff;
#X obj 328 456 * 127;
#X connect 1 0 9 0;
#X connect 2 0 10 0;
#X connect 3 0 0 0;
#X connect 3 0 19 0;
#X connect 3 0 23 0;
#X connect 3 1 20 0;
#X connect 3 1 24 0;
#X connect 4 0 3 0;
#X connect 5 0 4 0;
#X connect 6 0 1 0;
#X connect 6 0 14 0;
#X connect 6 1 2 0;
#X connect 6 1 15 0;
#X connect 6 2 17 0;
#X connect 6 2 18 0;
#X connect 6 2 16 0;
#X connect 7 0 13 0;
#X connect 8 0 12 0;
#X connect 9 0 5 0;
#X connect 10 0 5 1;
#X connect 11 0 7 0;
#X connect 11 0 25 0;
#X connect 12 0 22 0;
#X connect 12 0 6 0;
#X connect 13 0 21 0;
#X connect 18 0 11 0;
#X connect 26 0 12 1;
#X connect 26 0 28 0;
#X connect 28 0 27 0;
#X coords 0 -1 1 1 150 150 1 100 300;
#X restore 223 193 pd beatboxkey1;
#N canvas 0 0 1024 730 beatboxkey1 0;
#X floatatom 136 416 5 0 0 0 - - -;
#X obj 137 198 * 127;
#X obj 183 197 * 127;
#X obj 128 327 grid grid2 85 1 127 85 1 127 1 1 1 1 5 588 453;
#X msg 119 290 goto \$1 \$2;
#X obj 119 253 pack 1 1;
#X obj 152 166 unpack f f f;
#X obj 225 310 vsl 15 127 1 127 0 0 empty empty empty 0 -9 0 10 -262144
-1 -1 0 1;
#X obj 150 76 r xlrmtr1;
#N canvas 0 0 303 384 rangex 0;
#X obj 106 72 clip 36 96;
#X floatatom 107 102 5 0 0 0 - - -;
#X obj 107 124 - 36;
#X floatatom 108 151 5 0 0 0 - - -;
#X floatatom 109 224 5 0 0 0 - - -;
#X obj 109 196 int;
#X obj 108 176 * 2.2;
#X obj 109 247 clip 0 127;
#X floatatom 112 280 5 0 0 0 - - -;
#X text 146 100 range multiplier;
#X obj 107 40 inlet;
#X obj 115 317 outlet;
#X connect 0 0 1 0;
#X connect 1 0 2 0;
#X connect 2 0 3 0;
#X connect 3 0 6 0;
#X connect 4 0 7 0;
#X connect 5 0 4 0;
#X connect 6 0 5 0;
#X connect 7 0 8 0;
#X connect 8 0 11 0;
#X connect 10 0 0 0;
#X restore 110 224 pd rangex;
#N canvas 0 0 303 384 rangex 0;
#X obj 106 72 clip 36 96;
#X floatatom 107 102 5 0 0 0 - - -;
#X obj 107 124 - 36;
#X floatatom 108 151 5 0 0 0 - - -;
#X floatatom 109 224 5 0 0 0 - - -;
#X obj 109 196 int;
#X obj 108 176 * 2.2;
#X obj 109 247 clip 0 127;
#X floatatom 112 280 5 0 0 0 - - -;
#X text 146 100 range multiplier;
#X obj 107 40 inlet;
#X obj 115 317 outlet;
#X connect 0 0 1 0;
#X connect 1 0 2 0;
#X connect 2 0 3 0;
#X connect 3 0 6 0;
#X connect 4 0 7 0;
#X connect 5 0 4 0;
#X connect 6 0 5 0;
#X connect 7 0 8 0;
#X connect 8 0 11 0;
#X connect 10 0 0 0;
#X restore 176 224 pd rangex;
#N canvas 1265 221 303 384 rangex 0;
#X obj 106 72 clip 36 96;
#X floatatom 107 102 5 0 0 0 - - -;
#X obj 107 124 - 36;
#X floatatom 108 151 5 0 0 0 - - -;
#X floatatom 109 224 5 0 0 0 - - -;
#X obj 109 196 int;
#X obj 108 176 * 2.2;
#X obj 109 247 clip 0 127;
#X floatatom 112 280 5 0 0 0 - - -;
#X text 146 100 range multiplier;
#X obj 107 40 inlet;
#X obj 115 317 outlet;
#X connect 0 0 1 0;
#X connect 1 0 2 0;
#X connect 2 0 3 0;
#X connect 3 0 6 0;
#X connect 4 0 7 0;
#X connect 5 0 4 0;
#X connect 6 0 5 0;
#X connect 7 0 8 0;
#X connect 8 0 11 0;
#X connect 10 0 0 0;
#X restore 249 225 pd rangex;
#X obj 152 107 spigot;
#N canvas 561 216 463 496 z 0;
#X text 116 139 chnl#16;
#X floatatom 224 123 5 0 0 0 - - -;
#X obj 175 172 t b b;
#X obj 175 200 f;
#X obj 175 223 + 1;
#X obj 123 103 tgl 15 0 empty empty empty 17 7 0 10 -262144 -1 -1 0
1;
#X floatatom 143 124 5 0 0 0 - - -;
#X msg 202 200 1;
#X obj 103 103 bng 15 250 50 0 empty empty empty 17 7 0 10 -262144
-1 -1;
#X obj 122 187 outlet;
#X obj 175 147 delay 500;
#X obj 124 51 inlet zflip in;
#X obj 183 101 s moseszflip;
#X floatatom 107 333 5 0 0 0 - - -;
#X obj 176 123 sel 127;
#X obj 125 76 moses 120;
#X connect 2 0 3 0;
#X connect 2 1 7 0;
#X connect 3 0 4 0;
#X connect 4 0 8 0;
#X connect 5 0 9 0;
#X connect 7 0 3 1;
#X connect 8 0 5 0;
#X connect 10 0 2 0;
#X connect 11 0 15 0;
#X connect 14 0 6 0;
#X connect 14 0 10 0;
#X connect 14 1 1 0;
#X connect 15 0 12 0;
#X connect 15 1 14 0;
#X coords 0 -1 1 1 40 20 2 100 100;
#X restore 171 417 pd z flip switch;
#X obj 178 245 s \$0-r;
#X obj 224 246 s \$0-g;
#X obj 268 246 s \$0-b;
#X floatatom 293 193 5 0 0 0 - - -;
#X obj 237 198 * 127;
#X obj 96 455 s 1x1x;
#X obj 145 454 s 1x1y;
#X obj 192 455 s 1x1z;
#X floatatom 108 140 5 0 0 0 - - -;
#X obj 88 476 outlet x;
#X obj 160 482 outlet y;
#X obj 250 277 outlet z;
#X obj 218 76 inlet;
#X obj 328 477 outlet onoff;
#X obj 328 456 * 127;
#X connect 1 0 9 0;
#X connect 2 0 10 0;
#X connect 3 0 0 0;
#X connect 3 0 19 0;
#X connect 3 0 23 0;
#X connect 3 1 20 0;
#X connect 3 1 24 0;
#X connect 4 0 3 0;
#X connect 5 0 4 0;
#X connect 6 0 1 0;
#X connect 6 0 14 0;
#X connect 6 1 2 0;
#X connect 6 1 15 0;
#X connect 6 2 17 0;
#X connect 6 2 18 0;
#X connect 6 2 16 0;
#X connect 7 0 13 0;
#X connect 8 0 12 0;
#X connect 9 0 5 0;
#X connect 10 0 5 1;
#X connect 11 0 7 0;
#X connect 11 0 25 0;
#X connect 12 0 22 0;
#X connect 12 0 6 0;
#X connect 13 0 21 0;
#X connect 18 0 11 0;
#X connect 26 0 12 1;
#X connect 26 0 28 0;
#X connect 28 0 27 0;
#X coords 0 -1 1 1 150 150 1 100 300;
#X restore 379 193 pd beatboxkey1;
#X obj 384 503 ctlout;
#X msg 658 445 \$1 33 1;
#X msg 722 502 \$1 34 1;
#X msg 783 547 \$1 35 1;
#X msg 847 634 \$1 36 1;
#X msg 373 372 \$1 37 1;
#X msg 443 375 \$1 38 1;
#X msg 529 379 \$1 39 1;
#X msg 593 408 \$1 40 1;
#X msg 128 433 \$1 41 1;
#X msg 173 407 \$1 42 1;
#X msg 220 380 \$1 43 1;
#X msg 305 377 \$1 44 1;
#X msg -1 636 \$1 45 1;
#X msg 21 544 \$1 46 1;
#X msg 39 508 \$1 47 1;
#X msg 85 464 \$1 48 1;
#X connect 0 0 27 0;
#X connect 1 0 30 0;
#X connect 2 0 29 0;
#X connect 3 0 28 0;
#X connect 5 0 19 0;
#X connect 6 0 21 0;
#X connect 7 0 20 0;
#X connect 8 0 22 0;
#X connect 14 0 13 0;
#X connect 19 0 0 0;
#X connect 20 0 3 0;
#X connect 21 0 2 0;
#X connect 22 0 1 0;
#X connect 23 0 7 0;
#X connect 24 0 6 0;
#X connect 25 0 8 0;
#X connect 26 0 5 0;
#X connect 27 0 32 0;
#X connect 27 1 33 0;
#X connect 27 2 34 0;
#X connect 27 3 35 0;
#X connect 28 0 44 0;
#X connect 28 1 45 0;
#X connect 28 2 46 0;
#X connect 28 3 47 0;
#X connect 29 0 40 0;
#X connect 29 1 41 0;
#X connect 29 2 42 0;
#X connect 29 3 43 0;
#X connect 30 0 36 0;
#X connect 30 1 37 0;
#X connect 30 2 38 0;
#X connect 30 3 39 0;
#X connect 32 0 31 0;
#X connect 33 0 31 0;
#X connect 34 0 31 0;
#X connect 35 0 31 0;
#X connect 36 0 31 0;
#X connect 37 0 31 0;
#X connect 38 0 31 0;
#X connect 39 0 31 0;
#X connect 40 0 31 0;
#X connect 41 0 31 0;
#X connect 42 0 31 0;
#X connect 43 0 31 0;
#X connect 44 0 31 0;
#X connect 45 0 31 0;
#X connect 46 0 31 0;
#X connect 47 0 31 0;
#X coords 0 -1 1 1 650 250 1 60 100;
