#N canvas 0 0 1362 722 10;
#X obj 422 173 t b f;
#X obj 387 178 +;
#X obj 364 201 t b f;
#X obj 351 227 +;
#X obj 323 251 t b f;
#X obj 299 276 +;
#X obj 269 300 t b f;
#X obj 257 326 +;
#X obj 230 349 t b f;
#X obj 216 381 +;
#X obj 184 406 t b f;
#X obj 163 429 +;
#X obj 135 450 t b f;
#X obj 128 483 +;
#X obj 444 81 * 128;
#X obj 395 81 * 64;
#X obj 346 81 * 32;
#X obj 297 81 * 16;
#X obj 102 76 * 8;
#X obj 140 72 * 4;
#X obj 179 74 * 2;
#X obj 205 106 tgl 30 0 empty empty empty 17 7 0 10 -4034 -1 -1 0 1
;
#X obj 172 107 tgl 30 0 empty empty empty 17 7 0 10 -4034 -1 -1 2 2
;
#X obj 139 108 tgl 30 0 empty empty empty 17 7 0 10 -4034 -1 -1 0 4
;
#X obj 106 125 tgl 30 0 empty empty empty 17 7 0 10 -4034 -1 -1 0 8
;
#X obj 314 104 tgl 30 0 empty empty empty 17 7 0 10 -4034 -1 -1 0 16
;
#X obj 347 104 tgl 30 0 empty empty empty 17 7 0 10 -4034 -1 -1 0 32
;
#X obj 379 104 tgl 30 0 empty empty empty 17 7 0 10 -4034 -1 -1 0 64
;
#X obj 420 121 tgl 30 0 empty empty empty 17 7 0 10 -4034 -1 -1 0 128
;
#X text 236 93 Left;
#X text 411 108 Right;
#X msg 404 492 64;
#X msg 445 491 63;
#X msg 481 492 62;
#X msg 513 492 61;
#X msg 165 515 60;
#X msg 201 515 59;
#X msg 237 516 58;
#X msg 269 514 57;
#X msg 304 516 56;
#X msg 340 516 55;
#X msg 376 517 54;
#X msg 408 517 53;
#X msg 360 493 65;
#X msg 327 494 66;
#X msg 294 493 67;
#X msg 264 493 68;
#X msg 234 493 69;
#X msg 201 493 70;
#X msg 170 494 71;
#X msg 482 516 51;
#X msg 938 525 12;
#X obj 826 676 +;
#X msg 778 523 -12;
#X msg 845 526 0;
#X obj 902 466 sel 0 1;
#X obj 978 469 sel 0 1;
#X text 793 419 octave changer;
#X obj 905 542 bng 15 250 50 0 empty empty empty 17 7 0 10 -262144
-1 -1;
#X obj 921 526 bng 15 250 50 0 empty empty empty 17 7 0 10 -262144
-1 -1;
#X obj 740 465 sel 0 1;
#X obj 744 542 bng 15 250 50 0 empty empty empty 17 7 0 10 -262144
-1 -1;
#X obj 760 525 bng 15 250 50 0 empty empty empty 17 7 0 10 -262144
-1 -1;
#X obj 267 117 tgl 15 0 empty empty empty 17 7 0 10 -262144 -1 -1 0
1;
#X obj 291 115 tgl 15 0 empty empty empty 17 7 0 10 -262144 -1 -1 0
1;
#X obj 276 102 tgl 15 0 empty empty empty 17 7 0 10 -262144 -1 -1 0
1;
#X obj 660 464 sel 0 1;
#X obj 660 538 bng 15 250 50 0 empty empty empty 17 7 0 10 -262144
-1 -1;
#X obj 679 523 bng 15 250 50 0 empty empty empty 17 7 0 10 -262144
-1 -1;
#X obj 277 131 tgl 15 0 empty empty empty 17 7 0 10 -262144 -1 -1 0
1;
#X msg 697 523 -24;
#X msg 444 517 50;
#X obj 756 166 s transpose;
#X msg 519 520 65;
#X msg 552 520 63;
#X msg 584 521 64;
#X msg 617 521 61;
#X msg 579 494 60;
#X obj 206 444 select 12 4 36 20 52 244 116 0 2 1 17 3 15 7 39 23 55
247 119 255 127 32 33 34 35 47 49;
#X msg 544 493 62;
#X obj 1224 654 s note;
#X text 466 121 note#;
#X text 212 114 1;
#X text 180 112 2;
#X text 145 116 3;
#X text 111 132 4;
#X text 322 111 5;
#X text 354 111 6;
#X text 386 111 7;
#X text 432 128 8;
#X text 291 113 C3;
#X text 275 101 C4;
#X text 268 116 C2;
#X text 277 129 C1;
#X obj 839 352 +;
#X floatatom 460 104 5 0 0 0 - - -;
#X floatatom 55 507 5 0 0 0 - - -;
#X obj 95 200 s flash;
#X obj 51 138 tgl 15 0 empty empty empty 17 7 0 10 -262144 -1 -1 0
1;
#X obj 259 250 s off;
#X obj 257 207 tgl 15 0 empty empty empty 17 7 0 10 -262144 -1 -1 0
1;
#X obj 1250 593 r off;
#X obj 1239 629 spigot;
#X floatatom 779 721 5 0 0 0 - - -;
#X obj 89 3 r fl4-0;
#X obj 137 3 r fl3-0;
#X obj 185 4 r fl2-0;
#X obj 233 4 r fl1-0;
#X msg 1014 523 24;
#X obj 997 524 bng 15 250 50 0 empty empty empty 17 7 0 10 -262144
-1 -1;
#X obj 978 541 bng 15 250 50 0 empty empty empty 17 7 0 10 -262144
-1 -1;
#X obj 100 173 s key4;
#X obj 154 173 s key3;
#X obj 209 173 s key2;
#X obj 264 173 s key1;
#X obj 326 167 s key5;
#X obj 301 195 s key6;
#X obj 479 168 s key7;
#X obj 523 169 s key8;
#X obj 1026 463 r jlb4;
#X floatatom 1152 95 5 0 0 0 - - -;
#X obj 659 395 r jlb3;
#X obj 978 416 r jlb2;
#X obj 737 412 r jlb1;
#X obj 905 419 r jlb4;
#X obj 701 67 spigot;
#X obj 727 25 r jru2;
#X floatatom 706 132 5 0 0 0 - - -;
#X obj 727 45 change;
#X obj 846 68 / 10;
#X floatatom 941 -41 5 0 0 0 - - -;
#X floatatom 898 -15 5 0 0 0 - - -;
#X obj 761 98 tgl 15 0 empty empty empty 17 7 0 10 -262144 -1 -1 0
1;
#X obj 938 -14 clip 0 11;
#X obj 896 -42 -;
#X obj 853 38 average 10;
#X obj 707 116 int;
#X obj 810 46 bng 15 250 50 0 empty empty empty 17 7 0 10 -262144 -1
-1;
#X floatatom 698 89 5 0 0 0 - - -;
#X obj 806 6 r breath;
#X obj 806 25 < 1;
#X floatatom 652 478 5 0 0 0 - - -;
#X obj 493 -89 route 53 54 55 56 57 58 59 60 61 62 63 64;
#X obj 840 96 mod 48;
#X obj 842 121 -;
#X msg 480 -48 11;
#X msg 513 -48 10;
#X obj 614 52 int;
#X msg 542 -48 9;
#X msg 572 -47 8;
#X msg 607 -48 7;
#X msg 640 -48 6;
#X msg 669 -48 5;
#X msg 699 -47 4;
#X msg 732 -47 3;
#X msg 765 -47 2;
#X msg 794 -47 1;
#X msg 824 -46 0;
#X floatatom 586 91 5 0 0 0 - - -;
#X msg 760 120 bang;
#X obj 749 71 del 0.5;
#X floatatom 521 98 5 0 0 0 - - -;
#X obj 503 19 - 54;
#X obj 507 56 mod 12;
#X obj 642 85 -;
#X obj 18 -50 r flash-instr;
#X obj 63 71 == 1;
#X obj 308 2 r fr4-0;
#X obj 434 2 r fr1-0;
#X obj 347 2 r fr2-0;
#X obj 389 2 r fr3-0;
#X obj 106 49 bk;
#X obj 143 48 bk;
#X obj 179 49 bk;
#X obj 224 49 bk;
#X obj 317 46 bk;
#X obj 353 47 bk;
#X obj 393 45 bk;
#X obj 429 46 bk;
#X floatatom 1186 -38 5 0 0 0 - - -;
#X obj 1131 -62 - 0.29;
#X obj 1131 -39 clip 0 1;
#X floatatom 1198 8 5 0 0 0 - - -;
#X floatatom 1317 7 5 0 0 0 - - -;
#X floatatom 1269 6 5 0 0 0 - - -;
#X msg 1198 32 0;
#X obj 1139 -15 moses 0;
#X msg 1226 33 1;
#X msg 1258 34 0;
#X msg 1293 34 0;
#X msg 1321 35 1;
#X msg 1353 36 0;
#X obj 1343 -15 moses 0.6;
#X msg 1389 36 0;
#X msg 1417 37 1;
#X msg 1445 38 0;
#X obj 1212 70 change;
#X obj 1294 74 change;
#X obj 1398 75 change;
#X obj 1294 106 tgl 15 0 empty empty empty 17 7 0 10 -262144 -1 -1
1 1;
#X obj 1398 115 tgl 15 0 empty empty empty 17 7 0 10 -262144 -1 -1
0 1;
#X obj 1215 107 tgl 15 0 empty empty empty 17 7 0 10 -262144 -1 -1
0 1;
#X msg 1421 265 12;
#X obj 1313 357 +;
#X msg 1261 263 -12;
#X msg 1328 266 0;
#X obj 1385 206 sel 0 1;
#X text 1276 159 octave changer;
#X obj 1388 282 bng 15 250 50 0 empty empty empty 17 7 0 10 -262144
-1 -1;
#X obj 1404 266 bng 15 250 50 0 empty empty empty 17 7 0 10 -262144
-1 -1;
#X obj 1223 205 sel 0 1;
#X obj 1227 282 bng 15 250 50 0 empty empty empty 17 7 0 10 -262144
-1 -1;
#X obj 1243 265 bng 15 250 50 0 empty empty empty 17 7 0 10 -262144
-1 -1;
#X floatatom 1301 440 5 0 0 0 - - -;
#X obj 245 101 tgl 20 0 empty empty empty 17 7 0 10 -204786 -1 -1 0
1;
#X obj 245 122 tgl 20 0 empty empty empty 17 7 0 10 -204786 -1 -1 1
1;
#X obj 245 143 tgl 20 0 empty empty empty 17 7 0 10 -204786 -1 -1 0
1;
#X obj 822 717 s alt-note;
#X obj 102 25 > 0.1;
#X obj 145 25 > 0.1;
#X obj 187 25 > 0.1;
#X obj 237 26 > 0.1;
#X obj 309 26 > 0.1;
#X obj 350 26 > 0.1;
#X obj 434 27 > 0.1;
#X obj 1265 -17 moses 0.4;
#X obj 1068 -119 r xlx;
#X obj 1070 -99 * 100;
#X msg 1073 -55 100 \$1;
#X obj 1072 -36 -;
#X obj 1070 -15 / 100;
#X obj 391 26 > 0.3;
#X obj 1195 -15 moses 0.025;
#X msg 576 254 1;
#X msg 606 252 2;
#X msg 636 253 3;
#X msg 666 251 4;
#X msg 589 277 5;
#X msg 619 275 6;
#X msg 648 277 7;
#X obj 610 304 int;
#X obj 617 330 s slice;
#X obj 572 228 select 119 55 23 7 3 1 2 0;
#X msg 698 252 0;
#X obj 1067 -79 average 1;
#X connect 0 0 1 0;
#X connect 0 1 1 1;
#X connect 1 0 2 0;
#X connect 2 0 3 0;
#X connect 2 1 3 1;
#X connect 3 0 4 0;
#X connect 4 0 5 0;
#X connect 4 1 5 1;
#X connect 5 0 6 0;
#X connect 6 0 7 0;
#X connect 6 1 7 1;
#X connect 7 0 8 0;
#X connect 8 0 9 0;
#X connect 8 1 9 1;
#X connect 9 0 10 0;
#X connect 10 0 11 0;
#X connect 10 1 11 1;
#X connect 11 0 12 0;
#X connect 12 0 13 0;
#X connect 12 1 13 1;
#X connect 13 0 78 0;
#X connect 13 0 96 0;
#X connect 13 0 242 0;
#X connect 14 0 28 0;
#X connect 15 0 27 0;
#X connect 16 0 26 0;
#X connect 17 0 25 0;
#X connect 18 0 24 0;
#X connect 19 0 23 0;
#X connect 20 0 22 0;
#X connect 21 0 13 0;
#X connect 21 0 114 0;
#X connect 22 0 11 0;
#X connect 22 0 113 0;
#X connect 23 0 9 0;
#X connect 23 0 112 0;
#X connect 24 0 7 0;
#X connect 24 0 111 0;
#X connect 25 0 5 0;
#X connect 25 0 115 0;
#X connect 26 0 3 0;
#X connect 26 0 116 0;
#X connect 27 0 1 0;
#X connect 27 0 117 0;
#X connect 28 0 0 0;
#X connect 28 0 118 0;
#X connect 31 0 95 0;
#X connect 32 0 95 0;
#X connect 33 0 95 0;
#X connect 34 0 95 0;
#X connect 35 0 95 0;
#X connect 36 0 95 0;
#X connect 37 0 95 0;
#X connect 38 0 95 0;
#X connect 39 0 95 0;
#X connect 40 0 95 0;
#X connect 41 0 95 0;
#X connect 42 0 95 0;
#X connect 43 0 95 0;
#X connect 44 0 95 0;
#X connect 45 0 95 0;
#X connect 46 0 95 0;
#X connect 47 0 95 0;
#X connect 48 0 95 0;
#X connect 49 0 95 0;
#X connect 50 0 95 0;
#X connect 51 0 52 1;
#X connect 52 0 103 0;
#X connect 52 0 203 0;
#X connect 52 0 217 0;
#X connect 53 0 52 1;
#X connect 54 0 52 1;
#X connect 55 0 54 0;
#X connect 55 0 58 0;
#X connect 55 1 51 0;
#X connect 55 1 59 0;
#X connect 56 0 54 0;
#X connect 56 0 110 0;
#X connect 56 1 108 0;
#X connect 56 1 109 0;
#X connect 58 0 52 0;
#X connect 59 0 52 0;
#X connect 60 0 54 0;
#X connect 60 0 61 0;
#X connect 60 1 53 0;
#X connect 60 1 62 0;
#X connect 61 0 52 0;
#X connect 62 0 52 0;
#X connect 64 0 55 0;
#X connect 66 0 67 0;
#X connect 66 0 54 0;
#X connect 66 1 70 0;
#X connect 66 1 68 0;
#X connect 67 0 52 0;
#X connect 68 0 52 0;
#X connect 69 0 66 0;
#X connect 70 0 52 1;
#X connect 71 0 95 0;
#X connect 73 0 95 0;
#X connect 74 0 95 0;
#X connect 75 0 95 0;
#X connect 76 0 95 0;
#X connect 77 0 95 0;
#X connect 78 0 49 0;
#X connect 78 1 48 0;
#X connect 78 2 47 0;
#X connect 78 3 46 0;
#X connect 78 4 45 0;
#X connect 78 5 44 0;
#X connect 78 6 43 0;
#X connect 78 7 31 0;
#X connect 78 8 32 0;
#X connect 78 9 33 0;
#X connect 78 10 34 0;
#X connect 78 11 35 0;
#X connect 78 12 36 0;
#X connect 78 13 37 0;
#X connect 78 14 38 0;
#X connect 78 15 39 0;
#X connect 78 16 40 0;
#X connect 78 17 41 0;
#X connect 78 18 42 0;
#X connect 78 19 71 0;
#X connect 78 20 50 0;
#X connect 78 21 73 0;
#X connect 78 22 74 0;
#X connect 78 23 75 0;
#X connect 78 24 76 0;
#X connect 78 25 77 0;
#X connect 78 26 79 0;
#X connect 79 0 95 0;
#X connect 94 0 52 0;
#X connect 95 0 94 0;
#X connect 95 0 141 0;
#X connect 95 0 142 0;
#X connect 95 0 162 0;
#X connect 98 0 97 0;
#X connect 100 0 99 0;
#X connect 101 0 102 1;
#X connect 102 0 80 0;
#X connect 104 0 218 0;
#X connect 105 0 219 0;
#X connect 106 0 220 0;
#X connect 107 0 221 0;
#X connect 108 0 52 1;
#X connect 109 0 52 0;
#X connect 110 0 52 0;
#X connect 121 0 66 0;
#X connect 122 0 56 0;
#X connect 123 0 60 0;
#X connect 124 0 55 0;
#X connect 125 0 138 0;
#X connect 126 0 128 0;
#X connect 128 0 125 1;
#X connect 128 0 160 0;
#X connect 130 0 133 0;
#X connect 132 0 159 0;
#X connect 132 0 145 0;
#X connect 132 0 146 0;
#X connect 132 0 148 0;
#X connect 132 0 149 0;
#X connect 132 0 150 0;
#X connect 132 0 151 0;
#X connect 132 0 152 0;
#X connect 132 0 153 0;
#X connect 132 0 154 0;
#X connect 132 0 155 0;
#X connect 132 0 156 0;
#X connect 132 0 157 0;
#X connect 133 0 134 0;
#X connect 134 0 131 0;
#X connect 135 0 129 0;
#X connect 136 0 94 1;
#X connect 136 0 72 0;
#X connect 136 0 127 0;
#X connect 138 0 136 0;
#X connect 139 0 140 0;
#X connect 140 0 137 0;
#X connect 142 0 145 0;
#X connect 142 1 146 0;
#X connect 142 2 148 0;
#X connect 142 3 149 0;
#X connect 142 4 150 0;
#X connect 142 5 151 0;
#X connect 142 6 152 0;
#X connect 142 7 153 0;
#X connect 142 8 154 0;
#X connect 142 9 155 0;
#X connect 142 10 156 0;
#X connect 142 11 157 0;
#X connect 143 0 144 0;
#X connect 145 0 147 0;
#X connect 146 0 147 0;
#X connect 147 0 158 0;
#X connect 147 0 164 0;
#X connect 148 0 147 0;
#X connect 149 0 147 0;
#X connect 150 0 147 0;
#X connect 151 0 147 0;
#X connect 152 0 147 0;
#X connect 153 0 147 0;
#X connect 154 0 147 0;
#X connect 155 0 147 0;
#X connect 156 0 147 0;
#X connect 157 0 147 0;
#X connect 159 0 147 0;
#X connect 160 0 132 0;
#X connect 162 0 163 0;
#X connect 163 0 161 0;
#X connect 164 0 125 0;
#X connect 165 0 166 0;
#X connect 167 0 222 0;
#X connect 168 0 224 0;
#X connect 169 0 223 0;
#X connect 170 0 231 0;
#X connect 171 0 18 0;
#X connect 172 0 19 0;
#X connect 173 0 20 0;
#X connect 174 0 21 0;
#X connect 175 0 17 0;
#X connect 176 0 16 0;
#X connect 177 0 15 0;
#X connect 178 0 14 0;
#X connect 180 0 181 0;
#X connect 181 0 179 0;
#X connect 181 0 186 0;
#X connect 185 0 196 0;
#X connect 186 0 185 0;
#X connect 186 1 232 0;
#X connect 187 0 196 0;
#X connect 188 0 196 0;
#X connect 189 0 197 0;
#X connect 190 0 197 0;
#X connect 191 0 197 0;
#X connect 192 0 194 0;
#X connect 192 1 195 0;
#X connect 193 0 198 0;
#X connect 194 0 198 0;
#X connect 195 0 198 0;
#X connect 196 0 201 0;
#X connect 197 0 199 0;
#X connect 198 0 200 0;
#X connect 199 0 215 0;
#X connect 200 0 210 0;
#X connect 200 0 216 0;
#X connect 201 0 206 0;
#X connect 201 0 214 0;
#X connect 202 0 203 1;
#X connect 203 0 213 0;
#X connect 203 0 80 0;
#X connect 204 0 203 1;
#X connect 205 0 203 1;
#X connect 206 0 205 0;
#X connect 206 0 208 0;
#X connect 206 1 202 0;
#X connect 206 1 209 0;
#X connect 208 0 203 0;
#X connect 209 0 203 0;
#X connect 210 0 205 0;
#X connect 210 0 211 0;
#X connect 210 1 204 0;
#X connect 210 1 212 0;
#X connect 211 0 203 0;
#X connect 212 0 203 0;
#X connect 218 0 171 0;
#X connect 219 0 172 0;
#X connect 220 0 173 0;
#X connect 221 0 174 0;
#X connect 222 0 175 0;
#X connect 223 0 176 0;
#X connect 224 0 178 0;
#X connect 225 0 184 0;
#X connect 225 0 190 0;
#X connect 225 0 193 0;
#X connect 225 1 183 0;
#X connect 225 1 191 0;
#X connect 225 1 194 0;
#X connect 226 0 227 0;
#X connect 227 0 228 0;
#X connect 228 0 229 0;
#X connect 229 0 230 0;
#X connect 230 0 180 0;
#X connect 231 0 177 0;
#X connect 232 0 182 0;
#X connect 232 0 187 0;
#X connect 232 0 189 0;
#X connect 232 1 188 0;
#X connect 232 1 225 0;
#X connect 233 0 240 0;
#X connect 234 0 240 0;
#X connect 235 0 240 0;
#X connect 236 0 240 0;
#X connect 237 0 240 0;
#X connect 238 0 240 0;
#X connect 239 0 240 0;
#X connect 240 0 241 0;
#X connect 242 0 233 0;
#X connect 242 1 234 0;
#X connect 242 2 235 0;
#X connect 242 3 236 0;
#X connect 242 4 237 0;
#X connect 242 5 238 0;
#X connect 242 6 239 0;
#X connect 242 7 243 0;
#X connect 243 0 240 0;
#X coords 0 -1 1 1 400 65 1 100 100;
