#N canvas 2 80 1353 688 12;
#X declare -stdpath extra/moocow -lib pdstring;
#X msg 217 -6 close;
#X obj 172 101 route analog;
#X msg 302 28 analogIns 1 1;
#X obj 172 -181 loadbang;
#X msg 302 9 analogIns 0 1;
#X obj 663 129 tgl 15 0 empty empty empty 0 -6 0 8 -262144 -1 -1 0
2;
#X obj 428 94 tgl 15 0 empty empty empty 0 -6 0 8 -262144 -1 -1 -5
-5;
#X msg 428 112 digital 2 \$1;
#X obj 692 31 r breath;
#X obj 428 71 r lip;
#X obj 679 108 invert;
#X obj 271 -104 hsl 150 17 0 1 0 0 empty empty PWM_control_(0-1) -2
-6 1 10 -260818 -1 -1 8940 1;
#X text 274 -58 disable PWM:;
#X obj 441 -109 hsl 150 17 0 1 0 0 empty empty PWM_control_(0-1) -2
-6 1 10 -260818 -1 -1 5960 1;
#X text 442 -58 disable PWM:;
#X obj 605 -111 hsl 150 17 0 1 0 0 empty empty PWM_control_(0-1) -2
-6 1 10 -260818 -1 -1 14751 1;
#X text 604 -58 disable PWM:;
#X obj 643 -147 r r;
#X obj 313 -139 r g;
#X obj 490 -143 r b;
#X obj 458 -19 r lights off;
#X msg 444 -39 pwm 5 0;
#X msg 606 -39 pwm 6 0;
#X msg 274 -41 pwm 3 0;
#X floatatom 682 128 5 0 0 0 - - -;
#X text 596 -138 PIN6:;
#X text 437 -137 PIN5:;
#X text 266 -140 PIN3:;
#X msg 298 -167 0.6;
#X msg 333 -167 0.4;
#X msg 365 -168 0.99;
#X text 718 122 should blink the light on each breath input but is
a bit slow;
#X text 245 81 comment;
#X text 429 -172 initial rgb light color;
#X floatatom 246 214 5 0 0 0 - - -;
#X obj 209 253 s breath;
#X obj 200 170 s rawbreath;
#X floatatom 169 254 5 0 0 0 - - -;
#X obj 164 147 * 1024;
#X obj 164 212 clip 0 127;
#X obj 164 233 int;
#X floatatom 120 201 5 0 0 0 - - -;
#X obj 167 168 / 3;
#X msg 62 17 analogIns 2 1;
#X floatatom 357 219 5 0 0 0 - - -;
#X floatatom 304 218 5 0 0 0 - - -;
#X obj 317 275 hsl 128 15 0 1 0 0 empty empty empty -2 -8 0 10 -262144
-1 -1 4693 1;
#X obj 264 327 outlet gyro;
#X msg 438 -81 pwm 9 \$1;
#X msg 501 -82 pinMode 9 pwm;
#X msg 596 -84 pwm 10 \$1;
#X msg 268 -79 pwm 11 \$1;
#X msg 328 -79 pinMode 11 pwm;
#X floatatom 54 350 5 0 0 0 - - -;
#X obj 85 392 -;
#X floatatom 90 443 5 0 0 0 - - -;
#X obj 86 427 average 5;
#X floatatom 77 630 5 0 0 0 - - -;
#X obj 90 465 t f f;
#X obj 78 607 accum;
#X obj 113 545 tgl 15 0 empty empty empty 17 7 0 10 -262144 -1 -1 0
1;
#X obj 115 524 != 0;
#X msg 78 581 bang;
#X floatatom 202 445 5 0 0 0 - - -;
#X obj 181 568 vsl 15 128 0 127 0 0 empty empty empty 0 -9 0 10 -262144
-1 -1 0 1;
#X obj 203 505 int;
#N canvas 832 312 249 185 bk 0;
#X obj 69 63 tgl 15 0 empty empty empty 17 7 0 10 -262144 -1 -1 0 6
;
#X obj 88 113 tgl 15 0 empty empty empty 17 7 0 10 -262144 -1 -1 0
1;
#X obj 62 44 * 3;
#X floatatom 27 51 5 0 0 0 - - -;
#X floatatom 98 139 5 0 0 0 - - -;
#X obj 59 3 inlet;
#X obj 94 199 outlet;
#X obj 173 68 r flash;
#X msg 176 103 0;
#X floatatom 92 56 5 0 0 0 - - -;
#X obj 42 81 threshold 2 0 1 0;
#X connect 0 0 9 0;
#X connect 1 0 4 0;
#X connect 1 0 6 0;
#X connect 2 0 0 0;
#X connect 2 0 3 0;
#X connect 2 0 10 0;
#X connect 5 0 2 0;
#X connect 7 0 8 0;
#X connect 8 0 1 0;
#X connect 10 0 1 0;
#X connect 10 1 1 0;
#X restore 681 152 pd bk;
#X obj 681 180 tgl 15 0 empty empty empty 17 7 0 10 -262144 -1 -1 0
1;
#X obj 625 211 tgl 15 0 empty empty empty 17 7 0 10 -262144 -1 -1 0
1;
#X floatatom 557 207 5 0 0 0 - - -;
#X obj 589 121 > 0;
#X msg 373 154 pinMode 10 output;
#X obj 172 122 route 0 1 2 3;
#X msg 57 74 analogIns 3 1;
#X obj 762 404 s lip1;
#X obj 166 190 - 28;
#X msg 38 117 pinMode 5 pwm;
#X obj 766 -112 hsl 150 17 0 1 0 0 empty empty PWM_control_(0-1) -2
-6 1 10 -260818 -1 -1 0 1;
#X msg 784 -88 pwm 5 \$1;
#X obj 766 -157 r haptic;
#X msg 671 -86 pinMode 10 pwm;
#X obj 678 204 sel 0 1;
#X msg 722 251 0;
#X floatatom 509 303 5 0 0 0 - - -;
#X obj 455 394 max 1e-21;
#X floatatom 471 474 5 0 0 0 - - -;
#X obj 563 453 t f f;
#X floatatom 565 478 5 0 0 0 - - -;
#X obj 555 407 min 0;
#X obj 525 476 bng 15 250 50 0 empty empty empty 17 7 0 10 -262144
-1 -1;
#X obj 474 443 t f f b;
#X obj 548 524 <;
#X floatatom 556 598 5 0 0 0 - - -;
#X msg 558 561;
#X obj 485 520 s max;
#X obj 621 527 s min;
#X obj 660 580 r max;
#X obj 606 290 vsl 15 128 0 1 0 0 empty empty empty 0 -9 0 10 -262144
-1 -1 0 1;
#X floatatom 875 -75 5 0 0 0 - - -;
#X msg 120 -30 devicename /dev/mouth;
#X obj 172 80 arduino;
#X connect 0 0 100 0;
#X connect 1 0 72 0;
#X connect 2 0 100 0;
#X connect 3 0 2 0;
#X connect 3 0 4 0;
#X connect 3 0 52 0;
#X connect 3 0 49 0;
#X connect 3 0 80 0;
#X connect 3 0 28 0;
#X connect 3 0 29 0;
#X connect 3 0 30 0;
#X connect 3 0 43 0;
#X connect 3 0 73 0;
#X connect 3 0 76 0;
#X connect 3 0 99 0;
#X connect 3 0 100 0;
#X connect 4 0 100 0;
#X connect 5 0 24 0;
#X connect 5 0 66 0;
#X connect 6 0 7 0;
#X connect 8 0 70 0;
#X connect 9 0 6 0;
#X connect 10 0 5 0;
#X connect 11 0 51 0;
#X connect 13 0 48 0;
#X connect 15 0 50 0;
#X connect 17 0 15 0;
#X connect 18 0 11 0;
#X connect 19 0 13 0;
#X connect 20 0 23 0;
#X connect 20 0 21 0;
#X connect 20 0 22 0;
#X connect 21 0 100 0;
#X connect 22 0 100 0;
#X connect 23 0 100 0;
#X connect 28 0 11 0;
#X connect 29 0 13 0;
#X connect 30 0 15 0;
#X connect 38 0 36 0;
#X connect 38 0 42 0;
#X connect 39 0 40 0;
#X connect 39 0 34 0;
#X connect 40 0 37 0;
#X connect 40 0 35 0;
#X connect 42 0 41 0;
#X connect 42 0 75 0;
#X connect 43 0 100 0;
#X connect 45 0 46 0;
#X connect 46 0 47 0;
#X connect 48 0 100 0;
#X connect 49 0 100 0;
#X connect 50 0 100 0;
#X connect 51 0 100 0;
#X connect 52 0 100 0;
#X connect 53 0 54 0;
#X connect 53 0 54 1;
#X connect 54 0 56 0;
#X connect 54 0 63 0;
#X connect 55 0 58 0;
#X connect 56 0 55 0;
#X connect 57 0 64 0;
#X connect 58 0 59 1;
#X connect 58 1 65 0;
#X connect 59 0 57 0;
#X connect 60 0 62 0;
#X connect 61 0 60 0;
#X connect 62 0 59 0;
#X connect 65 0 61 0;
#X connect 66 0 67 0;
#X connect 67 0 81 0;
#X connect 70 0 68 0;
#X connect 71 0 100 0;
#X connect 72 0 38 0;
#X connect 72 1 45 0;
#X connect 72 2 44 0;
#X connect 72 3 74 0;
#X connect 72 3 83 0;
#X connect 73 0 100 0;
#X connect 75 0 39 0;
#X connect 76 0 100 0;
#X connect 77 0 78 0;
#X connect 77 0 98 0;
#X connect 78 0 100 0;
#X connect 79 0 77 0;
#X connect 80 0 100 0;
#X connect 81 0 11 0;
#X connect 81 0 13 0;
#X connect 81 0 15 0;
#X connect 81 1 82 0;
#X connect 82 0 50 0;
#X connect 82 0 48 0;
#X connect 82 0 51 0;
#X connect 83 0 97 0;
#X connect 84 0 90 0;
#X connect 85 0 91 1;
#X connect 85 0 94 0;
#X connect 86 0 87 0;
#X connect 86 1 88 1;
#X connect 87 0 91 0;
#X connect 88 0 86 0;
#X connect 90 0 85 0;
#X connect 90 1 84 1;
#X connect 93 0 92 0;
#X connect 99 0 100 0;
#X connect 100 0 1 0;
