#N canvas 6 79 1353 688 12;
#X declare -stdpath extra/moocow -lib pdstring;
#X declare -lib mrpeach;
#X msg 217 -6 close;
#X obj 172 101 route analog;
#X msg 302 28 analogIns 1 1;
#X msg 302 9 analogIns 0 1;
#X obj 663 129 tgl 15 0 empty empty empty 0 -6 0 8 -262144 -1 -1 0
1;
#X obj 428 94 tgl 15 0 empty empty empty 0 -6 0 8 -262144 -1 -1 0.190318
0.190318;
#X msg 428 112 digital 2 \$1;
#X obj 428 71 r lip;
#X obj 268 -107 hsl 150 17 0 1 0 0 empty empty PWM_control_(0-1) -2
-6 1 10 -260818 -1 -1 0 1;
#X text 274 -58 disable PWM:;
#X obj 441 -109 hsl 150 17 0 1 0 0 empty empty PWM_control_(0-1) -2
-6 1 10 -260818 -1 -1 0 1;
#X text 442 -58 disable PWM:;
#X obj 605 -111 hsl 150 17 0 1 0 0 empty empty PWM_control_(0-1) -2
-6 1 10 -260818 -1 -1 0 1;
#X text 604 -58 disable PWM:;
#X obj 689 -237 r r;
#X obj 362 -226 r g;
#X obj 558 -232 r b;
#X obj 458 -19 r lights off;
#X msg 444 -39 pwm 5 0;
#X msg 606 -39 pwm 6 0;
#X msg 274 -41 pwm 3 0;
#X text 596 -138 PIN6:;
#X text 437 -137 PIN5:;
#X text 266 -140 PIN3:;
#X msg 354 -156 0.6;
#X msg 525 -157 0.4;
#X msg 679 -162 0.99;
#X text 245 81 comment;
#X text 429 -172 initial rgb light color;
#X floatatom 246 214 5 0 0 0 - - -;
#X obj 325 591 s breath;
#X obj 200 170 s rawbreath;
#X floatatom 169 254 5 0 0 0 - - -;
#X obj 164 147 * 1024;
#X obj 164 212 clip 0 127;
#X obj 172 231 int;
#X floatatom 120 201 5 0 0 0 - - -;
#X obj 167 168 / 3;
#X msg 62 17 analogIns 2 1;
#X floatatom 357 219 5 0 0 0 - - -;
#X floatatom 304 218 5 0 0 0 - - -;
#X obj 329 351 hsl 128 15 0 1 0 0 empty empty empty -2 -8 0 10 -262144
-1 -1 0 1;
#X obj 274 380 outlet gyro;
#X msg 438 -81 pwm 9 \$1;
#X msg 501 -82 pinMode 9 pwm;
#X msg 596 -84 pwm 10 \$1;
#X msg 268 -79 pwm 11 \$1;
#X msg 328 -79 pinMode 11 pwm;
#X floatatom 54 350 5 0 0 0 - - -;
#X obj 85 392 -;
#X floatatom 90 443 5 0 0 0 - - -;
#X obj 86 427 average 5;
#X floatatom 77 630 5 0 0 0 - - -;
#X obj 90 465 t f f;
#X obj 78 607 accum;
#X obj 113 545 tgl 15 0 empty empty empty 17 7 0 10 -262144 -1 -1 0
1;
#X obj 115 524 != 0;
#X msg 78 581 bang;
#X floatatom 202 445 5 0 0 0 - - -;
#X obj 181 568 vsl 15 128 0 127 0 0 empty empty empty 0 -9 0 10 -262144
-1 -1 0 1;
#X obj 203 505 int;
#X obj 681 180 tgl 15 0 empty empty empty 17 7 0 10 -262144 -1 -1 0
1;
#X obj 625 211 tgl 15 0 empty empty empty 17 7 0 10 -262144 -1 -1 0
1;
#X floatatom 557 207 5 0 0 0 - - -;
#X obj 589 121 > 0;
#X msg 373 154 pinMode 10 output;
#X msg 57 74 analogIns 3 1;
#X msg 38 117 pinMode 5 pwm;
#X obj 766 -112 hsl 150 17 0 1 0 0 empty empty PWM_control_(0-1) -2
-6 1 10 -260818 -1 -1 0 1;
#X msg 784 -88 pwm 5 \$1;
#X obj 766 -157 r haptic;
#X msg 671 -86 pinMode 10 pwm;
#X floatatom 509 303 5 0 0 0 - - -;
#X obj 455 394 max 1e-021;
#X floatatom 471 474 5 0 0 0 - - -;
#X obj 563 453 t f f;
#X floatatom 565 478 5 0 0 0 - - -;
#X obj 555 407 min 0;
#X obj 525 476 bng 15 250 50 0 empty empty empty 17 7 0 10 -262144
-1 -1;
#X obj 474 443 t f f b;
#X obj 548 524 <;
#X floatatom 556 598 5 0 0 0 - - -;
#X msg 558 561;
#X obj 485 520 s max;
#X obj 621 527 s min;
#X obj 660 580 r max;
#X obj 606 290 vsl 15 128 0 1 0 0 empty empty empty 0 -9 0 10 -262144
-1 -1 0 1;
#X floatatom 875 -75 5 0 0 0 - - -;
#X msg 120 -30 devicename /dev/mouth;
#X obj 311 251 - 0.369;
#X floatatom 331 277 5 0 0 0 - - -;
#X obj 325 324 + 0.5;
#X obj 172 122 route 0 1 2 3 4;
#X obj 708 321 s inhale;
#X msg 46 154 analogIns 4 1;
#X floatatom 404 204 5 0 0 0 - - -;
#X obj 497 173 vsl 15 128 0 1 0 0 empty empty empty 0 -9 0 10 -262144
-1 -1 11806 1;
#X obj 568 261 clip 0.925 0.8;
#X floatatom 571 306 5 0 0 0 - - -;
#X floatatom 151 298 5 0 0 0 - - -;
#X floatatom 141 352 5 0 0 0 - - -;
#X obj 74 280 bng 15 250 50 0 empty empty empty 17 7 0 10 -262144 -1
-1;
#X obj 196 286 unpack 0.1 0.1;
#X obj 189 321 * 127;
#X obj 186 378 -;
#X msg 187 349 127 \$1;
#X floatatom 196 413 5 0 0 0 - - -;
#X floatatom 329 437 5 0 0 0 - - -;
#X floatatom 261 528 5 0 0 0 - - -;
#X obj 287 407 clip 0 127;
#X obj 246 435 int;
#X obj 343 482 spigot;
#X msg 432 503 0;
#X msg 399 500 1;
#X obj 290 435 * 10;
#X obj 237 409 - 8;
#X obj 384 425 > 0;
#X obj 393 455 sel 0 1;
#X obj 329 560 spigot;
#X msg 406 553 0;
#X msg 443 548 1;
#X obj 250 478 > 0;
#X obj 251 513 s breathin;
#X obj 822 273 s robolight;
#X obj 251 364 s raw breath;
#X obj 248 315 / 127;
#X floatatom 266 348 5 0 0 0 - - -;
#X obj 118 -147 bng 15 250 50 0 empty empty empty 17 7 0 10 -262144
-1 -1;
#X obj 75 -156 r on;
#X obj 1052 -70 /;
#X obj 1090 -68 /;
#X obj 1135 -71 /;
#X obj 1037 -144 / 127;
#X obj 1060 -175 r breath;
#X obj 708 -191 f;
#X obj 554 -189 f;
#X obj 386 -195 f;
#X obj 518 -241 bng 15 250 50 0 empty empty empty 17 7 0 10 -262144
-1 -1;
#X obj 425 -218 r g-m;
#X obj 612 -230 r b-m;
#X obj 778 -225 r r-m;
#X obj 172 -181 bang;
#X obj 161 -216 loadbang;
#X obj 975 -172 r vocolor;
#X floatatom 975 -140 5 0 0 0 - - -;
#X obj 679 108 invert;
#X floatatom 682 128 5 0 0 0 - - -;
#X text 718 122 should blink the light on each breath input but is
a bit slow;
#N canvas 832 312 249 185 bk 0;
#X obj 69 63 tgl 15 0 empty empty empty 17 7 0 10 -262144 -1 -1 0 3
;
#X obj 88 113 tgl 15 0 empty empty empty 17 7 0 10 -262144 -1 -1 0
1;
#X obj 62 44 * 3;
#X floatatom 27 51 5 0 0 0 - - -;
#X floatatom 98 139 5 0 0 0 - - -;
#X obj 59 3 inlet;
#X obj 94 199 outlet;
#X obj 173 68 r flash;
#X msg 176 103 0;
#X floatatom 92 56 5 0 0 0 - - -;
#X obj 42 81 threshold 2 0 1 0;
#X connect 0 0 9 0;
#X connect 1 0 4 0;
#X connect 1 0 6 0;
#X connect 2 0 0 0;
#X connect 2 0 3 0;
#X connect 2 0 10 0;
#X connect 5 0 2 0;
#X connect 7 0 8 0;
#X connect 8 0 1 0;
#X connect 10 0 1 0;
#X connect 10 1 1 0;
#X restore 681 152 pd bk;
#X obj 678 204 sel 0 1;
#X msg 722 251 0;
#X obj 762 404 s lip1;
#X obj 172 80 myarduino4-udp;
#X msg 16 252 samplingInterval 10;
#X obj 166 187 - 27.37;
#X connect 0 0 152 0;
#X connect 1 0 92 0;
#X connect 2 0 152 0;
#X connect 3 0 152 0;
#X connect 4 0 146 0;
#X connect 4 0 148 0;
#X connect 5 0 6 0;
#X connect 7 0 5 0;
#X connect 8 0 46 0;
#X connect 10 0 43 0;
#X connect 12 0 45 0;
#X connect 14 0 131 1;
#X connect 14 0 134 0;
#X connect 15 0 129 1;
#X connect 15 0 136 0;
#X connect 16 0 130 1;
#X connect 16 0 135 0;
#X connect 17 0 20 0;
#X connect 17 0 18 0;
#X connect 17 0 19 0;
#X connect 18 0 152 0;
#X connect 19 0 152 0;
#X connect 20 0 152 0;
#X connect 24 0 8 0;
#X connect 25 0 10 0;
#X connect 26 0 12 0;
#X connect 33 0 31 0;
#X connect 33 0 37 0;
#X connect 34 0 35 0;
#X connect 34 0 29 0;
#X connect 35 0 32 0;
#X connect 35 0 30 0;
#X connect 35 0 125 0;
#X connect 37 0 36 0;
#X connect 37 0 154 0;
#X connect 38 0 152 0;
#X connect 40 0 89 0;
#X connect 41 0 42 0;
#X connect 43 0 152 0;
#X connect 44 0 152 0;
#X connect 45 0 152 0;
#X connect 46 0 152 0;
#X connect 47 0 152 0;
#X connect 48 0 49 0;
#X connect 48 0 49 1;
#X connect 49 0 51 0;
#X connect 49 0 58 0;
#X connect 50 0 53 0;
#X connect 51 0 50 0;
#X connect 52 0 59 0;
#X connect 53 0 54 1;
#X connect 53 1 60 0;
#X connect 54 0 52 0;
#X connect 55 0 57 0;
#X connect 56 0 55 0;
#X connect 57 0 54 0;
#X connect 60 0 56 0;
#X connect 61 0 149 0;
#X connect 64 0 62 0;
#X connect 64 0 123 0;
#X connect 65 0 152 0;
#X connect 66 0 152 0;
#X connect 67 0 152 0;
#X connect 68 0 69 0;
#X connect 68 0 87 0;
#X connect 69 0 152 0;
#X connect 70 0 68 0;
#X connect 71 0 152 0;
#X connect 72 0 86 0;
#X connect 73 0 79 0;
#X connect 74 0 80 1;
#X connect 74 0 83 0;
#X connect 75 0 76 0;
#X connect 75 1 77 1;
#X connect 76 0 80 0;
#X connect 77 0 75 0;
#X connect 79 0 74 0;
#X connect 79 1 73 1;
#X connect 82 0 81 0;
#X connect 89 0 90 0;
#X connect 89 0 91 0;
#X connect 91 0 41 0;
#X connect 92 0 33 0;
#X connect 92 2 39 0;
#X connect 92 3 72 0;
#X connect 92 3 151 0;
#X connect 92 4 95 0;
#X connect 92 4 97 0;
#X connect 92 4 93 0;
#X connect 94 0 152 0;
#X connect 95 0 96 0;
#X connect 97 0 98 0;
#X connect 102 0 99 0;
#X connect 102 0 103 0;
#X connect 103 0 100 0;
#X connect 103 0 105 0;
#X connect 104 0 106 0;
#X connect 104 0 115 0;
#X connect 105 0 104 0;
#X connect 109 0 114 0;
#X connect 110 0 109 0;
#X connect 110 0 121 0;
#X connect 112 0 111 1;
#X connect 113 0 111 1;
#X connect 114 0 107 0;
#X connect 114 0 111 0;
#X connect 114 0 122 0;
#X connect 115 0 110 0;
#X connect 116 0 117 0;
#X connect 117 0 113 0;
#X connect 117 0 119 0;
#X connect 117 1 112 0;
#X connect 117 1 120 0;
#X connect 119 0 118 1;
#X connect 120 0 118 1;
#X connect 125 0 126 0;
#X connect 125 0 124 0;
#X connect 127 0 141 0;
#X connect 128 0 127 0;
#X connect 129 0 8 0;
#X connect 130 0 10 0;
#X connect 131 0 12 0;
#X connect 132 0 64 0;
#X connect 132 0 129 0;
#X connect 132 0 130 0;
#X connect 132 0 131 0;
#X connect 133 0 132 0;
#X connect 134 0 12 0;
#X connect 135 0 10 0;
#X connect 136 0 8 0;
#X connect 137 0 136 0;
#X connect 137 0 135 0;
#X connect 137 0 134 0;
#X connect 138 0 8 0;
#X connect 139 0 10 0;
#X connect 140 0 12 0;
#X connect 141 0 2 0;
#X connect 141 0 3 0;
#X connect 141 0 47 0;
#X connect 141 0 44 0;
#X connect 141 0 71 0;
#X connect 141 0 24 0;
#X connect 141 0 25 0;
#X connect 141 0 26 0;
#X connect 141 0 38 0;
#X connect 141 0 66 0;
#X connect 141 0 67 0;
#X connect 141 0 94 0;
#X connect 141 0 153 0;
#X connect 141 0 152 0;
#X connect 142 0 141 0;
#X connect 143 0 132 0;
#X connect 143 0 144 0;
#X connect 145 0 4 0;
#X connect 148 0 61 0;
#X connect 149 0 8 0;
#X connect 149 0 10 0;
#X connect 149 0 12 0;
#X connect 149 1 150 0;
#X connect 150 0 45 0;
#X connect 150 0 43 0;
#X connect 150 0 46 0;
#X connect 152 0 1 0;
#X connect 153 0 152 0;
#X connect 154 0 34 0;
