#N canvas 1 79 1290 688 10;
#X declare -stdpath extra/moocow -lib pdstring;
#X declare -lib mrpeach;
#X declare -stdpath extra/moocow -lib pdstring;
#X declare -lib mrpeach;
#X declare -stdpath extra/moocow -lib pdstring;
#X declare -lib mrpeach;
#X declare -stdpath extra/moocow -lib pdstring;
#X declare -lib mrpeach;
#X declare -stdpath extra/moocow -lib pdstring;
#X declare -lib mrpeach;
#X obj 24 12 beatjazz_sys_left;
#X obj 477 12 beatjazzmouth;
#X obj 599 11 beatjazzright-sys;
#N canvas 0 630 1680 1004 modes 0;
#X obj 101 101 cnv 15 172 60 empty empty empty 20 12 0 14 -4034 -66577
0;
#X obj 54 52 s rjuforward;
#X obj 144 54 s rjuback;
#X obj 201 51 s rjuup;
#X obj 259 55 s rjudown;
#X obj 102 124 tgl 15 0 empty empty empty 17 7 0 10 -262144 -1 -1 0
1;
#X obj 83 12 sel 0 1;
#X obj 137 30 tgl 15 0 empty empty empty 17 7 0 10 -262144 -1 -1 0
1;
#X obj 141 10 sel 0 1;
#X obj 201 31 tgl 15 0 empty empty empty 17 7 0 10 -262144 -1 -1 0
1;
#X obj 202 9 sel 0 1;
#X obj 260 31 tgl 15 0 empty empty empty 17 7 0 10 -262144 -1 -1 0
1;
#X msg 271 74 0;
#X msg 208 75 0;
#X msg 153 74 0;
#X msg 86 76 0;
#X obj 145 103 tgl 15 0 empty empty empty 17 7 0 10 -262144 -1 -1 0
1;
#X obj 190 126 tgl 15 0 empty empty empty 17 7 0 10 -262144 -1 -1 0
1;
#X obj 144 142 tgl 15 0 empty empty empty 17 7 0 10 -262144 -1 -1 0
1;
#X obj 67 131 tgl 15 0 empty empty empty 17 7 0 10 -262144 -1 -1 0
1;
#X msg 105 31 1;
#X obj 265 10 sel 0 1;
#X obj 198 -34 r jru3;
#X obj 264 -33 r jru4;
#X msg 163 31 2;
#X msg 227 30 3;
#X msg 289 34 4;
#X obj 368 532 r fl4;
#X obj 416 589 s fl4-1;
#X obj 466 589 s fl4-2;
#X obj 517 590 s fl4-3;
#X obj 566 591 s fl4-4;
#X obj 414 421 s fl3-1;
#X obj 462 421 s fl3-2;
#X obj 511 421 s fl3-3;
#X obj 560 422 s fl3-4;
#X obj 419 341 s fl2-1;
#X obj 468 340 s fl2-2;
#X obj 518 342 s fl2-3;
#X obj 567 342 s fl2-4;
#X obj 422 103 s fl1-1;
#X obj 473 103 s fl1-2;
#X obj 523 104 s fl1-3;
#X obj 571 104 s fl1-4;
#X obj 419 667 s fr4-1;
#X obj 469 666 s fr4-2;
#X obj 519 669 s fr4-3;
#X obj 496 683 s fr4-4;
#X obj 423 502 s fr3-1;
#X obj 472 502 s fr3-2;
#X obj 520 504 s fr3-3;
#X obj 569 504 s fr3-4;
#X obj 417 261 s fr2-1;
#X obj 468 262 s fr2-2;
#X obj 517 261 s fr2-3;
#X obj 567 262 s fr2-4;
#X obj 423 185 s fr1-1;
#X obj 471 185 s fr1-2;
#X obj 519 187 s fr1-3;
#X obj 570 188 s fr1-4;
#X obj 366 587 s fl4-0;
#X obj 364 420 s fl3-0;
#X obj 370 340 s fl2-0;
#X obj 373 103 s fl1-0;
#X obj 368 664 s fr4-0;
#X obj 373 502 s fr3-0;
#X obj 369 259 s fr2-0;
#X obj 374 185 s fr1-0;
#X obj 368 564 spigot;
#X obj 411 565 spigot;
#X obj 453 565 spigot;
#X obj 497 567 spigot;
#X obj 540 567 spigot;
#X obj 369 400 spigot;
#X obj 412 401 spigot;
#X obj 453 401 spigot;
#X obj 496 402 spigot;
#X obj 541 403 spigot;
#X obj 369 368 r fl3;
#X obj 365 318 spigot;
#X obj 408 319 spigot;
#X obj 449 319 spigot;
#X obj 492 320 spigot;
#X obj 537 321 spigot;
#X obj 367 282 r fl2;
#X obj 372 80 spigot;
#X obj 415 81 spigot;
#X obj 457 81 spigot;
#X obj 499 82 spigot;
#X obj 542 82 spigot;
#X obj 372 48 r fl1;
#X obj 369 644 spigot;
#X obj 412 645 spigot;
#X obj 453 645 spigot;
#X obj 496 646 spigot;
#X obj 541 647 spigot;
#X obj 374 239 spigot;
#X obj 417 240 spigot;
#X obj 458 240 spigot;
#X obj 501 241 spigot;
#X obj 546 242 spigot;
#X obj 366 477 spigot;
#X obj 409 478 spigot;
#X obj 450 478 spigot;
#X obj 493 479 spigot;
#X obj 538 480 spigot;
#X obj 373 160 spigot;
#X obj 416 161 spigot;
#X obj 457 161 spigot;
#X obj 500 162 spigot;
#X obj 543 162 spigot;
#X obj 369 612 r fr4;
#X obj 374 207 r fr2;
#X obj 366 445 r fr3;
#X obj 373 128 r fr1;
#N canvas 762 231 883 283 recievematrix 0;
#X obj 18 118 r default;
#X obj 80 117 r instedit;
#X obj 146 118 r looperedit;
#X obj 228 118 r systemedit;
#X obj 308 118 r fxedit;
#X obj 19 156 outlet;
#X obj 80 156 outlet;
#X obj 144 155 outlet;
#X obj 226 158 outlet;
#X obj 307 155 outlet;
#X obj 458 21 r rjuforward;
#X obj 319 24 r rjuback;
#X obj 19 26 r rjuup;
#X obj 171 24 r rjudown;
#X obj 462 45 == 0;
#X obj 496 43 == 1;
#X obj 522 65 s instedit;
#X obj 460 65 s default;
#X obj 20 52 == 0;
#X obj 18 72 s default;
#X obj 164 52 == 0;
#X obj 162 72 s default;
#X obj 80 72 s systemedit;
#X obj 318 48 == 0;
#X obj 316 68 s default;
#X obj 352 46 == 1;
#X obj 198 50 == 1;
#X obj 54 50 == 1;
#X obj 534 44 tgl 15 0 empty empty empty 17 7 0 10 -262144 -1 -1 0
1;
#X obj 394 49 tgl 15 0 empty empty empty 17 7 0 10 -262144 -1 -1 0
1;
#X obj 240 50 tgl 15 0 empty empty empty 17 7 0 10 -262144 -1 -1 0
1;
#X obj 94 49 tgl 15 0 empty empty empty 17 7 0 10 -262144 -1 -1 0 1
;
#X obj 380 68 s looperedit;
#X obj 228 73 s fxedit;
#X obj 379 114 r mutemode;
#X obj 472 117 r feedbackmode;
#X obj 393 155 outlet;
#X obj 474 152 outlet;
#X obj 596 43 == 0;
#X obj 630 41 == 1;
#X obj 594 63 s default;
#X obj 668 42 tgl 15 0 empty empty empty 17 7 0 10 -262144 -1 -1 0
1;
#X obj 656 63 s mutemode;
#X obj 736 41 == 0;
#X obj 770 39 == 1;
#X obj 734 61 s default;
#X obj 809 41 tgl 15 0 empty empty empty 17 7 0 10 -262144 -1 -1 0
1;
#X obj 797 62 s feedbackmode;
#X obj 592 19 r jrb3;
#X msg 608 104 0;
#X obj 754 14 r jrb2;
#X connect 0 0 5 0;
#X connect 1 0 6 0;
#X connect 2 0 7 0;
#X connect 3 0 8 0;
#X connect 4 0 9 0;
#X connect 10 0 14 0;
#X connect 10 0 15 0;
#X connect 10 0 28 0;
#X connect 11 0 23 0;
#X connect 11 0 25 0;
#X connect 11 0 29 0;
#X connect 12 0 18 0;
#X connect 12 0 27 0;
#X connect 12 0 31 0;
#X connect 13 0 20 0;
#X connect 13 0 26 0;
#X connect 13 0 30 0;
#X connect 14 0 17 0;
#X connect 15 0 16 0;
#X connect 18 0 19 0;
#X connect 20 0 21 0;
#X connect 23 0 24 0;
#X connect 25 0 32 0;
#X connect 26 0 33 0;
#X connect 27 0 22 0;
#X connect 34 0 36 0;
#X connect 35 0 37 0;
#X connect 38 0 40 0;
#X connect 39 0 42 0;
#X connect 43 0 45 0;
#X connect 44 0 47 0;
#X connect 48 0 38 0;
#X connect 48 0 39 0;
#X connect 48 0 41 0;
#X restore 562 -31 pd recievematrix;
#X msg 17 306 283.465 3 472.441 826.772 23.622 1677.17 1;
#X obj 17 349 s alarm;
#X obj 17 285 sel 1 0;
#X msg 36 327 196.85 1 637.795 283.465 283.465 472.441 0.0866142;
#X obj 612 568 spigot;
#X obj 657 569 spigot;
#X obj 613 648 spigot;
#X obj 658 649 spigot;
#X obj 627 587 s fl4-5;
#X obj 676 588 s fl4-6;
#X obj 629 668 s fr4-5;
#X obj 679 669 s fr4-6;
#X obj 592 400 spigot;
#X obj 637 401 spigot;
#X obj 597 239 spigot;
#X obj 642 240 spigot;
#X obj 607 419 s fl3-5;
#X obj 656 420 s fl3-6;
#X obj 613 259 s fr2-5;
#X obj 663 260 s fr2-6;
#X obj 604 322 spigot;
#X obj 649 323 spigot;
#X obj 607 481 spigot;
#X obj 652 482 spigot;
#X obj 623 501 s fr3-5;
#X obj 673 502 s fr3-6;
#X obj 619 341 s fl2-5;
#X obj 668 342 s fl2-6;
#X obj 591 81 spigot;
#X obj 636 82 spigot;
#X obj 592 161 spigot;
#X obj 637 162 spigot;
#X obj 606 100 s fl1-5;
#X obj 608 181 s fr1-5;
#X obj 658 182 s fr1-6;
#X obj 655 101 s fl1-6;
#X obj 828 119 spigot;
#X obj 871 120 spigot;
#X obj 868 310 s fr2-1;
#X obj 821 389 s fl2-0;
#X obj 820 308 s fr2-0;
#X obj 816 367 spigot;
#X obj 859 368 spigot;
#X obj 818 331 r fl2;
#X obj 825 288 spigot;
#X obj 868 289 spigot;
#X obj 825 256 r fr2;
#X obj 873 391 s fl2-1;
#X obj 828 87 r jrb1;
#X obj 1179 47 spigot;
#X obj 1222 48 spigot;
#X obj 1062 47 spigot;
#X obj 1116 48 spigot;
#X obj 1079 16 r jlb1;
#X obj 829 142 s jrb1-0;
#X obj 884 140 s jrb1-1;
#X obj 1059 70 s jlb1-0;
#X obj 1121 67 s jlb1-1;
#X obj 1180 70 s jlb1-2;
#X obj 1235 68 s jlb1-3;
#X obj 830 196 spigot;
#X obj 873 197 spigot;
#X obj 830 164 r jrb4;
#X obj 831 219 s jrb4-0;
#X obj 886 217 s jrb4-1;
#X obj 1189 147 spigot;
#X obj 1232 148 spigot;
#X obj 1072 147 spigot;
#X obj 1126 148 spigot;
#X obj 1089 116 r jlb4;
#X obj 1069 170 s jlb4-0;
#X obj 1131 167 s jlb4-1;
#X obj 1190 170 s jlb4-2;
#X obj 1245 168 s jlb4-3;
#X obj 1048 224 tgl 15 0 empty empty empty 17 7 0 10 -262144 -1 -1
0 1;
#X obj 66 257 s flash-instr;
#X obj 1005 139 tgl 15 0 empty empty empty 17 7 0 10 -262144 -1 -1
0 1;
#X obj 935 114 tgl 15 0 empty empty empty 17 7 0 10 -262144 -1 -1 0
1;
#X text 161 143 MULTI-MODE;
#X text 209 125 PRESETS;
#X text 119 123 INST/FX-E;
#X obj 52 402 spigot;
#X text 163 101 ACTION;
#X obj 50 373 r xaxis;
#X obj 44 441 s a-xaxis;
#X obj 116 399 spigot;
#X obj 114 370 r yaxis;
#X obj 108 438 s a-yaxis;
#X obj 181 401 spigot;
#X obj 249 401 spigot;
#X obj 179 372 r xaxisr;
#X obj 173 440 s a-xaxisr;
#X obj 241 440 s a-yaxisr;
#X obj 247 372 r yaxisr;
#X floatatom 183 476 5 0 0 0 - - -;
#X floatatom 107 480 5 0 0 0 - - -;
#X floatatom 48 479 5 0 0 0 - - -;
#X floatatom 268 475 5 0 0 0 - - -;
#X obj 80 -36 r inhale;
#X obj 28 131 tgl 15 0 empty empty empty 17 7 0 10 -262144 -1 -1 0
1;
#X obj 27 101 sel 1;
#X obj 51 -14 < 0.9;
#X obj 141 -35 r jru1;
#X obj 151 -12 tgl 15 0 empty empty empty 17 7 0 10 -262144 -1 -1 0
1;
#X obj 37 12 bk;
#X connect 5 0 1 0;
#X connect 5 0 19 0;
#X connect 5 0 118 0;
#X connect 6 0 5 0;
#X connect 6 1 20 0;
#X connect 7 0 2 0;
#X connect 7 0 16 0;
#X connect 7 0 197 1;
#X connect 7 0 201 1;
#X connect 7 0 204 1;
#X connect 7 0 205 1;
#X connect 8 0 7 0;
#X connect 8 1 24 0;
#X connect 9 0 3 0;
#X connect 9 0 18 0;
#X connect 10 0 9 0;
#X connect 10 1 25 0;
#X connect 11 0 17 0;
#X connect 11 0 4 0;
#X connect 12 0 9 0;
#X connect 12 0 5 0;
#X connect 13 0 5 0;
#X connect 13 0 11 0;
#X connect 20 0 15 0;
#X connect 21 0 11 0;
#X connect 21 1 26 0;
#X connect 24 0 14 0;
#X connect 25 0 13 0;
#X connect 26 0 12 0;
#X connect 27 0 68 0;
#X connect 27 0 69 0;
#X connect 27 0 71 0;
#X connect 27 0 72 0;
#X connect 27 0 70 0;
#X connect 27 0 120 0;
#X connect 27 0 121 0;
#X connect 68 0 60 0;
#X connect 69 0 28 0;
#X connect 70 0 29 0;
#X connect 71 0 30 0;
#X connect 72 0 31 0;
#X connect 73 0 61 0;
#X connect 74 0 32 0;
#X connect 75 0 33 0;
#X connect 76 0 34 0;
#X connect 77 0 35 0;
#X connect 78 0 73 0;
#X connect 78 0 74 0;
#X connect 78 0 76 0;
#X connect 78 0 77 0;
#X connect 78 0 75 0;
#X connect 78 0 128 0;
#X connect 78 0 129 0;
#X connect 79 0 62 0;
#X connect 80 0 36 0;
#X connect 81 0 37 0;
#X connect 82 0 38 0;
#X connect 83 0 39 0;
#X connect 84 0 79 0;
#X connect 84 0 80 0;
#X connect 84 0 82 0;
#X connect 84 0 83 0;
#X connect 84 0 81 0;
#X connect 84 0 136 0;
#X connect 84 0 137 0;
#X connect 85 0 63 0;
#X connect 86 0 40 0;
#X connect 87 0 41 0;
#X connect 88 0 42 0;
#X connect 89 0 43 0;
#X connect 90 0 85 0;
#X connect 90 0 86 0;
#X connect 90 0 88 0;
#X connect 90 0 89 0;
#X connect 90 0 87 0;
#X connect 90 0 144 0;
#X connect 90 0 145 0;
#X connect 91 0 64 0;
#X connect 92 0 44 0;
#X connect 93 0 45 0;
#X connect 94 0 46 0;
#X connect 95 0 47 0;
#X connect 96 0 66 0;
#X connect 97 0 52 0;
#X connect 98 0 53 0;
#X connect 99 0 54 0;
#X connect 100 0 55 0;
#X connect 101 0 65 0;
#X connect 102 0 48 0;
#X connect 103 0 49 0;
#X connect 104 0 50 0;
#X connect 105 0 51 0;
#X connect 106 0 67 0;
#X connect 107 0 56 0;
#X connect 108 0 57 0;
#X connect 109 0 58 0;
#X connect 110 0 59 0;
#X connect 111 0 91 0;
#X connect 111 0 92 0;
#X connect 111 0 94 0;
#X connect 111 0 95 0;
#X connect 111 0 93 0;
#X connect 111 0 122 0;
#X connect 111 0 123 0;
#X connect 112 0 96 0;
#X connect 112 0 97 0;
#X connect 112 0 99 0;
#X connect 112 0 100 0;
#X connect 112 0 98 0;
#X connect 112 0 130 0;
#X connect 112 0 131 0;
#X connect 113 0 101 0;
#X connect 113 0 102 0;
#X connect 113 0 104 0;
#X connect 113 0 105 0;
#X connect 113 0 103 0;
#X connect 113 0 138 0;
#X connect 113 0 139 0;
#X connect 114 0 106 0;
#X connect 114 0 107 0;
#X connect 114 0 109 0;
#X connect 114 0 110 0;
#X connect 114 0 108 0;
#X connect 114 0 146 0;
#X connect 114 0 147 0;
#X connect 115 0 68 1;
#X connect 115 0 73 1;
#X connect 115 0 79 1;
#X connect 115 0 85 1;
#X connect 115 0 91 1;
#X connect 115 0 96 1;
#X connect 115 0 101 1;
#X connect 115 0 106 1;
#X connect 115 0 152 1;
#X connect 115 0 167 1;
#X connect 115 0 176 1;
#X connect 115 0 183 1;
#X connect 115 1 69 1;
#X connect 115 1 74 1;
#X connect 115 1 80 1;
#X connect 115 1 86 1;
#X connect 115 1 92 1;
#X connect 115 1 97 1;
#X connect 115 1 102 1;
#X connect 115 1 107 1;
#X connect 115 1 153 1;
#X connect 115 1 168 1;
#X connect 115 1 177 1;
#X connect 115 1 184 1;
#X connect 115 2 70 1;
#X connect 115 2 75 1;
#X connect 115 2 81 1;
#X connect 115 2 87 1;
#X connect 115 2 93 1;
#X connect 115 2 98 1;
#X connect 115 2 103 1;
#X connect 115 2 108 1;
#X connect 115 2 165 1;
#X connect 115 3 71 1;
#X connect 115 3 76 1;
#X connect 115 3 82 1;
#X connect 115 3 88 1;
#X connect 115 3 94 1;
#X connect 115 3 99 1;
#X connect 115 3 104 1;
#X connect 115 3 109 1;
#X connect 115 3 166 1;
#X connect 115 3 181 1;
#X connect 115 3 182 1;
#X connect 115 4 72 1;
#X connect 115 4 77 1;
#X connect 115 4 83 1;
#X connect 115 4 89 1;
#X connect 115 4 95 1;
#X connect 115 4 100 1;
#X connect 115 4 105 1;
#X connect 115 4 110 1;
#X connect 115 5 120 1;
#X connect 115 5 122 1;
#X connect 115 5 128 1;
#X connect 115 5 130 1;
#X connect 115 5 136 1;
#X connect 115 5 138 1;
#X connect 115 5 144 1;
#X connect 115 5 146 1;
#X connect 115 6 121 1;
#X connect 115 6 123 1;
#X connect 115 6 129 1;
#X connect 115 6 131 1;
#X connect 115 6 137 1;
#X connect 115 6 139 1;
#X connect 115 6 145 1;
#X connect 115 6 147 1;
#X connect 116 0 117 0;
#X connect 118 0 116 0;
#X connect 118 1 119 0;
#X connect 119 0 117 0;
#X connect 120 0 124 0;
#X connect 121 0 125 0;
#X connect 122 0 126 0;
#X connect 123 0 127 0;
#X connect 128 0 132 0;
#X connect 129 0 133 0;
#X connect 130 0 134 0;
#X connect 131 0 135 0;
#X connect 136 0 142 0;
#X connect 137 0 143 0;
#X connect 138 0 140 0;
#X connect 139 0 141 0;
#X connect 144 0 148 0;
#X connect 145 0 151 0;
#X connect 146 0 149 0;
#X connect 147 0 150 0;
#X connect 152 0 170 0;
#X connect 153 0 171 0;
#X connect 157 0 155 0;
#X connect 158 0 163 0;
#X connect 159 0 157 0;
#X connect 159 0 158 0;
#X connect 160 0 156 0;
#X connect 161 0 154 0;
#X connect 162 0 160 0;
#X connect 162 0 161 0;
#X connect 164 0 152 0;
#X connect 164 0 153 0;
#X connect 164 0 193 0;
#X connect 165 0 174 0;
#X connect 166 0 175 0;
#X connect 167 0 172 0;
#X connect 168 0 173 0;
#X connect 169 0 167 0;
#X connect 169 0 168 0;
#X connect 169 0 165 0;
#X connect 169 0 166 0;
#X connect 176 0 179 0;
#X connect 177 0 180 0;
#X connect 178 0 176 0;
#X connect 178 0 177 0;
#X connect 178 0 192 0;
#X connect 181 0 188 0;
#X connect 182 0 189 0;
#X connect 183 0 186 0;
#X connect 184 0 187 0;
#X connect 185 0 183 0;
#X connect 185 0 184 0;
#X connect 185 0 181 0;
#X connect 185 0 182 0;
#X connect 185 0 190 0;
#X connect 197 0 200 0;
#X connect 197 0 212 0;
#X connect 199 0 197 0;
#X connect 201 0 203 0;
#X connect 201 0 211 0;
#X connect 202 0 201 0;
#X connect 204 0 207 0;
#X connect 204 0 210 0;
#X connect 205 0 208 0;
#X connect 205 0 213 0;
#X connect 206 0 204 0;
#X connect 209 0 205 0;
#X connect 214 0 217 0;
#X connect 215 0 118 0;
#X connect 216 0 5 0;
#X connect 216 0 215 0;
#X connect 217 0 220 0;
#X connect 218 0 219 0;
#X connect 220 0 216 0;
#X coords 0 -1 1 1 175 60 1 100 100;
#X restore 26 184 pd modes;
#X obj 320 185 bits2num;
#X obj 318 273 instrmode3;
#X obj 420 246 beatjazzprograms2;
#X obj 357 335 mutemode;
#N canvas 0 0 450 300 loadmeter 0;
#X floatatom 102 102 0 0 0 0 - - -;
#X obj 102 14 cputime;
#X obj 102 -126 loadbang;
#X msg 102 -98 1;
#X floatatom 102 -70 0 0 0 0 - - -;
#X obj 102 -14 t b b;
#X obj 102 74 * 0.1;
#X obj 102 43 int;
#X text 147 -70 <-- on/off;
#X obj 102 -42 metro 200;
#X connect 1 0 7 0;
#X connect 2 0 3 0;
#X connect 3 0 4 0;
#X connect 4 0 9 0;
#X connect 5 0 1 0;
#X connect 5 1 1 1;
#X connect 6 0 0 0;
#X connect 7 0 6 0;
#X connect 9 0 5 0;
#X coords 0 -1 1 1 40 20 2 100 100;
#X restore 265 222 pd loadmeter;
#X text 266 205 CPU;
#X obj 938 267 s on;
#X obj 982 234 bng 40 250 50 0 empty empty empty 17 7 0 10 -260097
-1 -1;
#N canvas 0 79 1366 689 litemodule 0;
#X obj 373 363 s red-l;
#X obj 584 493 s red-r;
#X obj 537 395 s blue-r;
#X obj 516 515 s green-l;
#X obj 506 388 tgl 15 0 empty empty empty 17 7 0 10 -262144 -1 -1 0
32;
#X obj 481 362 tgl 15 0 empty empty empty 17 7 0 10 -262144 -1 -1 0
1;
#X obj 486 393 tgl 15 0 empty empty empty 17 7 0 10 -262144 -1 -1 0
2;
#X obj 506 358 tgl 15 0 empty empty empty 17 7 0 10 -262144 -1 -1 0
16;
#X obj 382 334 r key1;
#X obj 424 334 r key2;
#X obj 507 328 r key5;
#X obj 549 328 r key6;
#X floatatom 562 349 5 0 0 0 - - -;
#X floatatom 667 576 5 0 0 0 - - -;
#X obj 578 449 metro 500;
#X obj 579 432 bng 15 250 50 0 empty empty empty 17 7 0 10 -262144
-1 -1;
#X floatatom 634 369 5 0 0 0 - - -;
#X obj 521 269 metro 500;
#X obj 520 245 bng 15 250 50 0 empty empty empty 17 7 0 10 -262144
-1 -1;
#X floatatom 565 217 5 0 0 0 - - -;
#X obj 616 540 s r;
#X floatatom 589 549 5 0 0 0 - - -;
#X obj 547 622 s b;
#X obj 532 363 tgl 15 0 empty empty empty 17 7 0 10 -262144 -1 -1 0
1;
#X obj 580 469 tgl 15 0 empty empty empty 17 7 0 10 -262144 -1 -1 0
168;
#X obj 637 390 clip 20 147;
#X obj 569 244 clip 20 147;
#X obj 592 279 r xaxis;
#X obj 692 344 + 20;
#X floatatom 694 367 5 0 0 0 - - -;
#X obj 594 305 t b f;
#X obj 621 332 int;
#X obj 88 11 r loop_in_ms;
#X obj 76 103 t b f;
#X obj 76 129 metro;
#X obj 79 180 sel 0 1;
#X msg 110 38 10000;
#X obj 126 151 tgl 15 0 empty empty empty 17 7 0 10 -262144 -1 -1 0
1;
#X msg 75 245 1 0;
#X msg 109 247 0 1;
#X obj 105 311 unpack f f;
#X obj 139 382 s left;
#X obj 58 381 s right;
#X floatatom 36 50 5 0 0 0 - - -;
#X obj 75 81 / 8;
#X obj 190 232 mod 3;
#X obj 181 496 s r-l;
#X obj 182 520 s g-l;
#X obj 183 543 s b-l;
#X obj 230 540 s b-m;
#X obj 229 517 s g-m;
#X obj 228 493 s r-m;
#X obj 274 497 s r-r;
#X obj 275 521 s g-r;
#X obj 276 544 s b-r;
#X obj 321 497 s r-b1;
#X obj 322 521 s g-b1;
#X obj 323 544 s b-b1;
#X connect 14 0 24 0;
#X connect 15 0 14 0;
#X connect 16 0 25 0;
#X connect 18 0 17 0;
#X connect 19 0 26 0;
#X connect 23 0 2 0;
#X connect 23 0 3 0;
#X connect 24 0 1 0;
#X connect 24 0 3 0;
#X connect 25 0 14 1;
#X connect 26 0 17 1;
#X connect 27 0 30 0;
#X connect 28 0 29 0;
#X connect 28 0 25 0;
#X connect 30 1 31 0;
#X connect 31 0 14 1;
#X connect 32 0 43 0;
#X connect 32 0 44 0;
#X connect 33 0 34 0;
#X connect 33 1 34 1;
#X connect 34 0 37 0;
#X connect 35 0 38 0;
#X connect 35 1 39 0;
#X connect 36 0 44 0;
#X connect 37 0 35 0;
#X connect 38 0 40 0;
#X connect 39 0 40 0;
#X connect 40 0 42 0;
#X connect 40 1 41 0;
#X connect 44 0 33 0;
#X restore 747 240 pd litemodule;
#X obj 756 267 Beatjazznetsend;
#X text 66 260 Fractal Recursion;
#N canvas 1 79 1362 688 bot 0;
#X msg 235 -39 pinMode 2 servo;
#X msg 235 -14 pinMode 4 servo;
#X obj 146 26 loadbang;
#X floatatom 423 224 5 0 0 0 - - -;
#X text 1038 568 <-- COMMAND;
#X floatatom 490 333 5 0 0 0 - - -;
#X obj 872 167 * 100;
#X floatatom 888 197 5 0 0 0 - - -;
#X obj 871 228 / 2;
#X floatatom 896 257 5 0 0 0 - - -;
#X obj 875 278 / 100;
#X floatatom 906 299 5 0 0 0 - - -;
#X obj 782 169 / 100;
#X floatatom 764 126 5 0 0 0 - - -;
#X floatatom 796 200 5 0 0 0 - - -;
#X floatatom 802 266 5 0 0 0 - - -;
#X floatatom 1047 284 5 0 0 0 - - -;
#X obj 87 300 threshold;
#X floatatom 489 243 5 0 0 0 - - -;
#X obj 487 269 clip 0 100;
#X text 8 234 zero recalibration to trigger a spigot with position
data;
#X floatatom 607 460 5 0 0 0 - - -;
#N canvas 572 227 249 223 bk 0;
#X obj 69 63 tgl 15 0 empty empty empty 17 7 0 10 -262144 -1 -1 0 3
;
#X obj 88 113 tgl 15 0 empty empty empty 17 7 0 10 -262144 -1 -1 0
1;
#X obj 62 44 * 3;
#X floatatom 27 51 5 0 0 0 - - -;
#X floatatom 98 139 5 0 0 0 - - -;
#X obj 59 3 inlet;
#X obj 94 199 outlet;
#X obj 173 68 r flash;
#X msg 176 103 0;
#X obj 42 81 threshold 3 2 1 2;
#X connect 1 0 4 0;
#X connect 1 0 6 0;
#X connect 2 0 0 0;
#X connect 2 0 3 0;
#X connect 2 0 9 0;
#X connect 5 0 2 0;
#X connect 7 0 8 0;
#X connect 8 0 1 0;
#X connect 9 0 1 0;
#X connect 9 1 1 0;
#X restore 655 504 pd bk;
#X msg 780 496 analog 2 \$1;
#X obj 271 504 vsl 15 128 0 1 0 0 empty empty empty 0 -9 0 10 -262144
-1 -1 0 1;
#X obj 226 530 > 0.05;
#X floatatom 941 160 5 0 0 0 - - -;
#X floatatom 681 230 5 0 0 0 - - -;
#X floatatom 302 359 5 0 0 0 - - -;
#X floatatom 271 273 5 0 0 0 - - -;
#X obj 269 299 clip 0 100;
#X floatatom 663 348 5 0 0 0 - - -;
#X floatatom 662 258 5 0 0 0 - - -;
#X obj 660 284 clip 0 100;
#X msg 37 71 pinMode 6 pwm;
#X msg 513 404 pwm 6 \$1;
#X obj 526 513 * 100;
#X floatatom 540 539 5 0 0 0 - - -;
#X obj 526 591 -;
#X msg 528 565 100 \$1;
#X obj 524 615 / 100;
#X floatatom 492 514 5 0 0 0 - - -;
#X floatatom 329 325 5 0 0 0 - - -;
#X floatatom 519 228 5 0 0 0 - - -;
#X floatatom 353 253 5 0 0 0 - - -;
#X msg 887 498 analog 4 \$1;
#X floatatom 708 214 5 0 0 0 - - -;
#X obj 789 233 clip 0 0.999;
#X msg 33 92 pinMode 3 pwm;
#X msg 32 113 pinMode 5 pwm;
#X msg 442 407 pwm 3 \$1;
#X msg 585 403 pwm 5 \$1;
#X obj 698 192 r botx;
#X floatatom 1223 40 5 0 0 0 - - -;
#X msg 1114 284 1 0 0;
#X msg 1127 306 0.8 0.2 0;
#X msg 1145 328 0.6 0.4 0;
#X msg 1160 348 0.4 0.6 0;
#X msg 1174 370 0.2 0.8 0;
#X msg 1188 392 0 1 0;
#X msg 1204 264 0 0.8 0.2;
#X msg 1221 285 0 0.6 0.4;
#X msg 1234 308 0 0.4 0.6;
#X msg 1247 330 0 0.2 0.8;
#X msg 1262 352 0 0 1;
#X msg 1103 264 0.2 0 0.8;
#X obj 1101 241 sel 0 1 2 3 4 5 6 7 8 9 10 11 12;
#X text 1261 38 redo with moses;
#X obj 1181 80 mod 12;
#X floatatom 1273 86 5 0 0 0 - - -;
#X obj 1180 26 r mynotemsg;
#X obj 1180 55 unpack f f f;
#X obj 394 207 bng 15 250 50 0 empty empty empty 17 7 0 10 -262144
-1 -1;
#X obj 433 117 unpack f f f;
#X obj 432 83 r notecolor-l;
#X obj 1101 409 s notecolor-l;
#X obj 463 60 spigot 1;
#X obj 517 66 t b f;
#X floatatom 607 42 5 0 0 0 - - -;
#X floatatom 423 194 5 0 0 0 - - -;
#X floatatom 402 168 5 0 0 0 - - -;
#X obj 525 43 > 0;
#X obj 699 260 /;
#X obj 590 246 /;
#X obj 400 257 /;
#X obj 123 7 bng 15 250 50 0 empty empty empty 17 7 0 10 -262144 -1
-1;
#X msg 968 498 analog 12 \$1;
#X msg 236 12 pinMode 12 servo;
#X floatatom 608 70 5 0 0 0 - - -;
#X obj 803 30 r botx;
#X obj 1004 24 r boty;
#X obj 914 28 average 5;
#X obj 49 9 r on;
#X obj 698 26 average 10;
#X floatatom 863 97 5 0 0 0 - - -;
#X obj 267 70 r r;
#X obj 629 119 r g;
#X obj 528 120 r b;
#X text 402 -4 initial rgb light color;
#X obj 286 116 f;
#X obj 524 163 f;
#X obj 653 150 f;
#X obj 497 -56 bng 15 250 50 0 empty empty empty 17 7 0 10 -262144
-1 -1;
#X obj 692 127 r g-m;
#X obj 582 122 r b-m;
#X obj 356 82 r r-m;
#X obj 633 -12 r vocolor;
#X floatatom 1044 180 5 0 0 0 - - -;
#X obj 1044 212 / 100;
#X obj 660 305 f;
#X obj 487 290 f;
#X obj 269 320 f;
#X obj 1034 251 clip 0 0.5;
#X obj 876 131 clip 0 0.9;
#X msg 56 139 samplingInterval 5;
#X obj 554 -49 r breath;
#X obj 1124 82 mtof;
#X floatatom 1101 118 10 0 0 0 - - -;
#X msg 1113 47 127;
#X obj 115 167 myarduino2-udp;
#X connect 0 0 119 0;
#X connect 1 0 119 0;
#X connect 2 0 34 0;
#X connect 2 0 48 0;
#X connect 2 0 49 0;
#X connect 2 0 0 0;
#X connect 2 0 1 0;
#X connect 2 0 87 0;
#X connect 2 0 114 0;
#X connect 6 0 7 0;
#X connect 6 0 8 0;
#X connect 8 0 9 0;
#X connect 8 0 10 0;
#X connect 10 0 11 0;
#X connect 10 0 45 0;
#X connect 12 0 14 0;
#X connect 12 0 47 0;
#X connect 13 0 12 0;
#X connect 18 0 19 0;
#X connect 19 0 110 0;
#X connect 23 0 119 0;
#X connect 24 0 25 0;
#X connect 29 0 30 0;
#X connect 30 0 111 0;
#X connect 32 0 33 0;
#X connect 33 0 109 0;
#X connect 34 0 119 0;
#X connect 35 0 119 0;
#X connect 36 0 37 0;
#X connect 36 0 39 0;
#X connect 38 0 40 0;
#X connect 39 0 38 0;
#X connect 45 0 119 0;
#X connect 47 0 15 0;
#X connect 47 0 23 0;
#X connect 48 0 119 0;
#X connect 49 0 119 0;
#X connect 50 0 119 0;
#X connect 51 0 119 0;
#X connect 52 0 46 0;
#X connect 54 0 75 0;
#X connect 55 0 75 0;
#X connect 56 0 75 0;
#X connect 57 0 75 0;
#X connect 58 0 75 0;
#X connect 59 0 75 0;
#X connect 60 0 75 0;
#X connect 61 0 75 0;
#X connect 62 0 75 0;
#X connect 63 0 75 0;
#X connect 64 0 75 0;
#X connect 65 0 75 0;
#X connect 66 0 65 0;
#X connect 66 1 54 0;
#X connect 66 2 55 0;
#X connect 66 3 56 0;
#X connect 66 4 57 0;
#X connect 66 5 58 0;
#X connect 66 6 59 0;
#X connect 66 7 60 0;
#X connect 66 8 61 0;
#X connect 66 9 62 0;
#X connect 66 10 63 0;
#X connect 66 11 64 0;
#X connect 66 12 54 0;
#X connect 68 0 69 0;
#X connect 68 0 66 0;
#X connect 70 0 53 0;
#X connect 70 0 71 0;
#X connect 71 0 68 0;
#X connect 73 0 35 0;
#X connect 73 0 80 0;
#X connect 73 0 50 0;
#X connect 73 1 51 0;
#X connect 73 2 50 0;
#X connect 77 0 76 0;
#X connect 77 1 76 1;
#X connect 79 0 50 0;
#X connect 81 0 77 0;
#X connect 82 0 33 0;
#X connect 83 0 19 0;
#X connect 84 0 30 0;
#X connect 85 0 2 0;
#X connect 86 0 119 0;
#X connect 87 0 119 0;
#X connect 88 0 81 0;
#X connect 89 0 93 0;
#X connect 90 0 91 0;
#X connect 91 0 112 0;
#X connect 91 0 113 0;
#X connect 92 0 85 0;
#X connect 93 0 47 0;
#X connect 94 0 113 0;
#X connect 95 0 99 0;
#X connect 96 0 101 0;
#X connect 97 0 100 0;
#X connect 99 0 84 1;
#X connect 99 0 44 0;
#X connect 99 0 50 0;
#X connect 100 0 35 0;
#X connect 100 0 83 1;
#X connect 100 0 43 0;
#X connect 101 0 51 0;
#X connect 101 0 82 1;
#X connect 102 0 101 0;
#X connect 102 0 100 0;
#X connect 102 0 99 0;
#X connect 103 0 51 0;
#X connect 104 0 35 0;
#X connect 105 0 50 0;
#X connect 106 0 77 0;
#X connect 106 0 73 0;
#X connect 107 0 108 0;
#X connect 108 0 112 0;
#X connect 109 0 31 0;
#X connect 109 0 51 0;
#X connect 110 0 5 0;
#X connect 110 0 35 0;
#X connect 111 0 28 0;
#X connect 111 0 50 0;
#X connect 112 0 16 0;
#X connect 112 0 86 0;
#X connect 113 0 26 0;
#X connect 113 0 45 0;
#X connect 114 0 119 0;
#X connect 115 0 78 0;
#X connect 115 0 81 0;
#X connect 115 0 82 0;
#X connect 115 0 83 0;
#X connect 115 0 84 0;
#X connect 116 0 117 0;
#X connect 118 0 116 0;
#X restore 723 191 pd bot left;
#N canvas 0 0 1362 722 bot 0;
#X msg 241 58 pinMode 2 servo;
#X msg 241 83 pinMode 4 servo;
#X obj 146 26 loadbang;
#X floatatom 423 224 5 0 0 0 - - -;
#X obj 521 340 / 100;
#X text 1038 568 <-- COMMAND;
#X msg 268 385 pwm 11 \$1;
#X msg 704 441 pwm 10 \$1;
#X obj 1055 216 r botz;
#X floatatom 524 383 5 0 0 0 - - -;
#X obj 872 167 * 100;
#X floatatom 888 197 5 0 0 0 - - -;
#X obj 871 228 / 2;
#X floatatom 896 257 5 0 0 0 - - -;
#X obj 872 292 / 100;
#X floatatom 887 354 5 0 0 0 - - -;
#X obj 814 228 / 100;
#X floatatom 817 186 5 0 0 0 - - -;
#X floatatom 828 259 5 0 0 0 - - -;
#X floatatom 815 380 5 0 0 0 - - -;
#X floatatom 1028 339 5 0 0 0 - - -;
#X obj 87 300 threshold;
#X floatatom 469 247 5 0 0 0 - - -;
#X obj 487 269 clip 0 100;
#X text 8 234 zero recalibration to trigger a spigot with position
data;
#X floatatom 607 460 5 0 0 0 - - -;
#N canvas 572 227 249 223 bk 0;
#X obj 69 63 tgl 15 0 empty empty empty 17 7 0 10 -262144 -1 -1 0 3
;
#X obj 88 113 tgl 15 0 empty empty empty 17 7 0 10 -262144 -1 -1 0
1;
#X obj 62 44 * 3;
#X floatatom 27 51 5 0 0 0 - - -;
#X floatatom 98 139 5 0 0 0 - - -;
#X obj 59 3 inlet;
#X obj 94 199 outlet;
#X obj 173 68 r flash;
#X msg 176 103 0;
#X obj 42 81 threshold 3 2 1 2;
#X connect 1 0 4 0;
#X connect 1 0 6 0;
#X connect 2 0 0 0;
#X connect 2 0 3 0;
#X connect 2 0 9 0;
#X connect 5 0 2 0;
#X connect 7 0 8 0;
#X connect 8 0 1 0;
#X connect 9 0 1 0;
#X connect 9 1 1 0;
#X restore 655 504 pd bk;
#X msg 780 496 analog 2 \$1;
#X obj 930 75 int;
#X obj 271 504 vsl 15 128 0 1 0 0 empty empty empty 0 -9 0 10 -262144
-1 -1 0 1;
#X obj 226 530 > 0.05;
#X floatatom 922 170 5 0 0 0 - - -;
#X floatatom 687 191 5 0 0 0 - - -;
#X floatatom 319 382 5 0 0 0 - - -;
#X floatatom 271 273 5 0 0 0 - - -;
#X obj 269 299 clip 0 100;
#X floatatom 723 410 5 0 0 0 - - -;
#X floatatom 655 247 5 0 0 0 - - -;
#X obj 675 284 clip 0 100;
#X msg 37 71 pinMode 6 pwm;
#X msg 513 404 pwm 6 \$1;
#X obj 526 513 * 100;
#X floatatom 540 539 5 0 0 0 - - -;
#X obj 526 591 -;
#X msg 528 565 100 \$1;
#X obj 524 615 / 100;
#X floatatom 492 514 5 0 0 0 - - -;
#X floatatom 329 325 5 0 0 0 - - -;
#X floatatom 353 253 5 0 0 0 - - -;
#X floatatom 708 214 5 0 0 0 - - -;
#X obj 270 363 / 100;
#X obj 872 142 clip 0 0.999;
#X obj 802 347 clip 0 0.999;
#X obj 914 28 r botr-y;
#X obj 698 26 r botr-x;
#X obj 821 623 tgl 15 0 empty empty empty 17 7 0 10 -262144 -1 -1 0
1;
#X floatatom 832 659 5 0 0 0 - - -;
#X obj 1079 625 tgl 15 0 empty empty empty 17 7 0 10 -262144 -1 -1
0 1;
#X obj 953 629 tgl 15 0 empty empty empty 17 7 0 10 -262144 -1 -1 0
1;
#X obj 772 658 spigot 1;
#X obj 893 651 spigot 1;
#X obj 1019 647 spigot 1;
#X obj 846 629 t b f;
#X obj 1032 622 t b f;
#X obj 975 628 t b f;
#X obj 907 597 threshold 0.038 2 1 2;
#X obj 1033 593 threshold 0.038 2 1 2;
#X obj 776 601 threshold 0.05 2 1 2;
#X msg 887 496 analog 4 \$1;
#X floatatom 188 169 5 0 0 0 - - -;
#X msg 246 108 pinMode 7 servo;
#X msg 968 498 analog 7 \$1;
#X obj 742 181 r botr-x;
#X obj 1034 251 clip 0 1;
#X msg 33 92 pinMode 10 pwm;
#X msg 32 113 pinMode 11 pwm;
#X obj 699 328 -;
#X floatatom 639 281 5 0 0 0 - - -;
#X obj 720 367 / 100;
#X msg 718 306 100 \$1;
#X obj 555 316 -;
#X msg 494 290 100 \$1;
#X obj 270 341 -;
#X msg 271 318 100 \$1;
#X obj 518 175 r g;
#X obj 657 213 r r;
#X obj 295 175 r b;
#X obj 693 255 * 100;
#X obj 524 242 * 100;
#X obj 263 250 * 100;
#X obj 463 36 > 0;
#X floatatom 1233 50 5 0 0 0 - - -;
#X msg 1124 294 1 0 0;
#X msg 1137 316 0.8 0.2 0;
#X msg 1155 338 0.6 0.4 0;
#X msg 1170 358 0.4 0.6 0;
#X msg 1184 380 0.2 0.8 0;
#X msg 1198 402 0 1 0;
#X msg 1214 274 0 0.8 0.2;
#X msg 1231 295 0 0.6 0.4;
#X msg 1244 318 0 0.4 0.6;
#X msg 1257 340 0 0.2 0.8;
#X msg 1272 362 0 0 1;
#X msg 1113 274 0.2 0 0.8;
#X obj 1111 251 sel 0 1 2 3 4 5 6 7 8 9 10 11 12;
#X text 1271 48 redo with moses;
#X obj 1191 90 mod 12;
#X floatatom 1283 96 5 0 0 0 - - -;
#X obj 1190 36 r mynotemsg;
#X obj 1190 65 unpack f f f;
#X obj 428 94 unpack f f f;
#X obj 1111 419 s notecolor-r;
#X obj 430 61 spigot 1;
#X obj 387 10 r notecolor-r;
#X obj 576 211 /;
#X obj 743 248 /;
#X obj 397 260 /;
#X obj 560 36 r vocolor;
#X obj 89 20 r on;
#X obj 51 37 bng 15 250 50 0 empty empty empty 17 7 0 10 -262144 -1
-1;
#X floatatom 1044 150 5 0 0 0 - - -;
#X obj 1044 182 / 100;
#X obj 507 55 t b f;
#X floatatom 559 11 5 0 0 0 - - -;
#X obj 493 -16 r breath;
#X msg 56 139 samplingInterval 5;
#X obj 151 -3 bng 15 250 50 0 empty empty empty 17 7 0 10 -262144 -1
-1;
#X obj 115 167 myarduino5-udp;
#X connect 0 0 127 0;
#X connect 1 0 127 0;
#X connect 2 0 39 0;
#X connect 2 0 74 0;
#X connect 2 0 75 0;
#X connect 2 0 0 0;
#X connect 2 0 1 0;
#X connect 2 0 70 0;
#X connect 2 0 125 0;
#X connect 4 0 9 0;
#X connect 4 0 40 0;
#X connect 6 0 127 0;
#X connect 7 0 127 0;
#X connect 10 0 11 0;
#X connect 10 0 12 0;
#X connect 12 0 14 0;
#X connect 13 0 14 0;
#X connect 14 0 15 0;
#X connect 16 0 18 0;
#X connect 16 0 52 0;
#X connect 17 0 16 0;
#X connect 22 0 23 0;
#X connect 23 0 81 0;
#X connect 27 0 127 0;
#X connect 29 0 30 0;
#X connect 34 0 35 0;
#X connect 35 0 83 0;
#X connect 37 0 38 0;
#X connect 38 0 77 0;
#X connect 38 0 79 0;
#X connect 39 0 127 0;
#X connect 40 0 127 0;
#X connect 41 0 42 0;
#X connect 41 0 44 0;
#X connect 43 0 45 0;
#X connect 44 0 43 0;
#X connect 50 0 33 0;
#X connect 50 0 6 0;
#X connect 51 0 31 0;
#X connect 51 0 10 0;
#X connect 52 0 19 0;
#X connect 52 0 27 0;
#X connect 53 0 51 0;
#X connect 53 0 73 0;
#X connect 54 0 52 0;
#X connect 55 0 56 0;
#X connect 55 0 62 0;
#X connect 57 0 63 0;
#X connect 58 0 64 0;
#X connect 62 0 59 0;
#X connect 62 1 59 1;
#X connect 63 0 61 0;
#X connect 63 1 61 1;
#X connect 64 0 60 0;
#X connect 64 1 60 1;
#X connect 65 0 58 0;
#X connect 65 1 58 0;
#X connect 66 0 57 0;
#X connect 66 1 57 0;
#X connect 67 0 55 0;
#X connect 67 1 55 0;
#X connect 68 0 127 0;
#X connect 70 0 127 0;
#X connect 71 0 127 0;
#X connect 72 0 49 0;
#X connect 73 0 20 0;
#X connect 73 0 71 0;
#X connect 73 0 68 0;
#X connect 74 0 127 0;
#X connect 75 0 127 0;
#X connect 76 0 78 0;
#X connect 78 0 36 0;
#X connect 78 0 7 0;
#X connect 79 0 76 0;
#X connect 80 0 4 0;
#X connect 81 0 80 0;
#X connect 82 0 50 0;
#X connect 83 0 82 0;
#X connect 84 0 114 1;
#X connect 85 0 32 0;
#X connect 85 0 115 1;
#X connect 86 0 48 0;
#X connect 86 0 116 1;
#X connect 87 0 38 0;
#X connect 88 0 23 0;
#X connect 89 0 35 0;
#X connect 90 0 122 0;
#X connect 92 0 111 0;
#X connect 93 0 111 0;
#X connect 94 0 111 0;
#X connect 95 0 111 0;
#X connect 96 0 111 0;
#X connect 97 0 111 0;
#X connect 98 0 111 0;
#X connect 99 0 111 0;
#X connect 100 0 111 0;
#X connect 101 0 111 0;
#X connect 102 0 111 0;
#X connect 103 0 111 0;
#X connect 104 0 103 0;
#X connect 104 1 92 0;
#X connect 104 2 93 0;
#X connect 104 3 94 0;
#X connect 104 4 95 0;
#X connect 104 5 96 0;
#X connect 104 6 97 0;
#X connect 104 7 98 0;
#X connect 104 8 99 0;
#X connect 104 9 100 0;
#X connect 104 10 101 0;
#X connect 104 11 102 0;
#X connect 104 12 92 0;
#X connect 106 0 107 0;
#X connect 106 0 104 0;
#X connect 108 0 91 0;
#X connect 108 0 109 0;
#X connect 109 0 106 0;
#X connect 110 0 6 0;
#X connect 110 1 40 0;
#X connect 110 2 7 0;
#X connect 113 0 112 0;
#X connect 114 0 88 0;
#X connect 115 0 87 0;
#X connect 116 0 89 0;
#X connect 117 0 110 0;
#X connect 118 0 119 0;
#X connect 118 0 2 0;
#X connect 120 0 121 0;
#X connect 121 0 73 0;
#X connect 122 0 112 0;
#X connect 122 1 112 1;
#X connect 124 0 90 0;
#X connect 124 0 114 0;
#X connect 124 0 115 0;
#X connect 124 0 116 0;
#X connect 124 0 123 0;
#X connect 125 0 127 0;
#X connect 126 0 2 0;
#X restore 801 194 pd bot right;
#X connect 11 0 10 0;
