#N canvas 151 245 860 619 10;
#X declare -stdpath extra/moocow -lib pdstring;
#X declare -lib mrpeach;
#X obj 394 -82 route 0 1 2 3 4 5 6 7;
#X obj -85 -4 route 0 1 2 3 4 5 6 7 8 9 10 11 12 13;
#X obj -58 24 tgl 15 0 empty ARDUINO_TEST_RESET 2 4 23 1 12 -258113
-1 -1 0 1;
#X obj -41 24 tgl 15 0 empty ARDUINO_TEST_RESET 3 4 23 1 12 -258113
-1 -1 0 1;
#X obj -24 24 tgl 15 0 empty ARDUINO_TEST_RESET 4 4 23 1 12 -258113
-1 -1 0 1;
#X obj -7 24 tgl 15 0 empty ARDUINO_TEST_RESET 5 4 23 1 12 -258113
-1 -1 0 1;
#X obj 10 24 tgl 15 0 empty ARDUINO_TEST_RESET 6 4 23 1 12 -258113
-1 -1 0 1;
#X obj 27 24 tgl 15 0 empty ARDUINO_TEST_RESET 7 4 23 1 12 -4160 -1
-1 0 1;
#X obj 44 24 tgl 15 0 empty ARDUINO_TEST_RESET 8 4 23 1 12 -4160 -1
-1 0 1;
#X obj 61 24 tgl 15 0 empty ARDUINO_TEST_RESET 9 4 23 1 12 -232448
-1 -1 0 1;
#X obj 78 24 tgl 15 0 empty ARDUINO_TEST_RESET 10 0 23 1 12 -232448
-1 -1 0 1;
#X obj 95 24 tgl 15 0 empty ARDUINO_TEST_RESET 11 0 23 1 12 -232448
-1 -1 0 1;
#X obj 112 24 tgl 15 0 empty ARDUINO_TEST_RESET 12 0 23 1 12 -4160
-1 -1 0 1;
#X obj 129 24 tgl 15 0 empty ARDUINO_TEST_RESET 13 0 23 1 12 -4160
-1 -1 0 1;
#X obj -92 24 tgl 15 0 empty ARDUINO_TEST_RESET 0 4 23 1 12 -232448
-1 -1 0 1;
#X obj -75 24 tgl 15 0 empty ARDUINO_TEST_RESET 1 4 23 1 12 -232448
-1 -1 0 1;
#X text -70 -47 analog inputs:;
#X obj 42 -112 route analog digital;
#N canvas 307 118 1303 688 arduinopinload 0;
#X msg 109 223 close;
#X text 264 295 <-- argument sets port #;
#X msg 14 151 analogIns 1 1;
#X msg 136 139 analogIns 5 1;
#X msg 137 160 analogIns 6 1;
#X msg 235 189 pinMode 11 pwm;
#X msg 226 212 pinMode 10 pwm;
#X msg 217 235 pinMode 9 pwm;
#X msg 40 186 analogIns 3 1;
#X msg 133 119 analogIns 4 1;
#X msg -84 169 pinMode 2 input;
#X msg -66 210 pinMode 4 input;
#X msg -44 231 pinMode 5 input;
#X msg -35 250 pinMode 6 input;
#X obj 120 348 outlet;
#X obj 363 125 hsl 150 17 0 1 0 0 empty empty PWM_control_(0-1) -2
-6 1 10 -260818 -1 -1 8940 1;
#X text 368 176 disable PWM:;
#X obj 526 126 hsl 150 17 0 1 0 0 empty empty PWM_control_(0-1) -2
-6 1 10 -260818 -1 -1 14751 1;
#X text 536 176 disable PWM:;
#X obj 693 129 hsl 150 17 0 1 0 0 empty empty PWM_control_(0-1) -2
-6 1 10 -260818 -1 -1 5960 1;
#X text 698 176 disable PWM:;
#X text 360 94 PIN9:;
#X text 528 96 PIN10:;
#X text 690 96 PIN11:;
#X msg 690 150 pwm 11 \$1;
#X msg 370 195 pwm 9 0;
#X msg 538 195 pwm 10 0;
#X msg 700 195 pwm 11 0;
#X text 563 57 PIN10:;
#X msg 296 95 0.6;
#X msg 271 115 0.99;
#X msg 242 135 0.4;
#X obj 498 30 r lights off;
#X msg -13 288 pinMode 8 input;
#X msg 2 308 pinMode 12 input;
#X msg 25 168 analogIns 2 1;
#X msg 144 182 analogIns 7 1;
#X msg 528 150 pwm 9 \$1;
#X msg 360 150 pwm 10 \$1;
#X msg 0 131 analogIns 0 1;
#X msg 6 335 pinMode 13 input;
#X obj 20 75 bng 15 250 50 0 empty empty empty 17 7 0 10 -262144 -1
-1;
#X obj 121 291 myarduino3-udp;
#X obj 25 46 r on;
#X msg -38 270 pinMode 7 output;
#X msg -102 187 pinMode 3 output;
#X obj 595 245 tgl 15 0 empty empty empty 17 7 0 10 -262144 -1 -1 0
1;
#X obj 634 274 tgl 15 0 empty empty empty 17 7 0 10 -262144 -1 -1 0
32;
#X obj 727 276 tgl 15 0 empty empty empty 17 7 0 10 -262144 -1 -1 0
1;
#X obj 746 225 r red-r;
#X obj 667 223 r blue-r;
#X msg 166 320 samplingInterval 10;
#X msg 629 307 digital 7 \$1;
#X msg 714 308 digital 3 \$1;
#X floatatom 772 285 5 0 0 0 - - -;
#X obj 741 254 > 0;
#X obj 663 254 > 0;
#X text 526 19 PIN10:;
#X text 329 20 PIN11:;
#X text 726 25 PIN2:;
#X obj 344 -27 r b;
#X obj 567 -34 r g;
#X obj 761 -24 r r;
#X obj 346 5 f;
#X obj 548 5 f;
#X obj 751 8 f;
#X obj 512 -47 bng 15 250 50 0 empty empty empty 17 7 0 10 -262144
-1 -1;
#X obj 643 -28 vsl 15 128 0 1 0 0 empty empty empty 0 -9 0 10 -262144
-1 -1 0 1;
#X obj 796 21 r r-r;
#X obj 595 12 r g-r;
#X obj 400 9 r b-r;
#X obj 914 81 /;
#X obj 966 84 /;
#X obj 1013 85 /;
#X obj 914 23 r right;
#X obj 125 55 bang;
#X obj 118 15 loadbang;
#X obj 73 35 bng 15 250 50 0 empty empty empty 17 7 0 10 -262144 -1
-1;
#X connect 0 0 42 0;
#X connect 2 0 42 0;
#X connect 3 0 42 0;
#X connect 4 0 42 0;
#X connect 5 0 42 0;
#X connect 6 0 42 0;
#X connect 7 0 42 0;
#X connect 8 0 42 0;
#X connect 9 0 42 0;
#X connect 10 0 42 0;
#X connect 11 0 42 0;
#X connect 12 0 42 0;
#X connect 13 0 42 0;
#X connect 15 0 38 0;
#X connect 17 0 37 0;
#X connect 19 0 24 0;
#X connect 24 0 42 0;
#X connect 25 0 42 0;
#X connect 26 0 42 0;
#X connect 27 0 42 0;
#X connect 29 0 15 0;
#X connect 30 0 17 0;
#X connect 31 0 19 0;
#X connect 32 0 25 0;
#X connect 32 0 26 0;
#X connect 32 0 27 0;
#X connect 33 0 42 0;
#X connect 34 0 42 0;
#X connect 35 0 42 0;
#X connect 36 0 42 0;
#X connect 37 0 42 0;
#X connect 38 0 42 0;
#X connect 39 0 42 0;
#X connect 40 0 42 0;
#X connect 42 0 14 0;
#X connect 43 0 41 0;
#X connect 43 0 75 0;
#X connect 44 0 42 0;
#X connect 45 0 42 0;
#X connect 48 0 53 0;
#X connect 48 0 54 0;
#X connect 49 0 55 0;
#X connect 50 0 56 0;
#X connect 51 0 42 0;
#X connect 52 0 42 0;
#X connect 53 0 42 0;
#X connect 55 0 48 0;
#X connect 56 0 52 0;
#X connect 60 0 63 0;
#X connect 60 0 71 1;
#X connect 61 0 64 0;
#X connect 61 0 72 1;
#X connect 62 0 65 0;
#X connect 62 0 73 1;
#X connect 63 0 15 0;
#X connect 64 0 17 0;
#X connect 65 0 19 0;
#X connect 66 0 65 0;
#X connect 66 0 64 0;
#X connect 66 0 63 0;
#X connect 68 0 19 0;
#X connect 69 0 17 0;
#X connect 70 0 15 0;
#X connect 71 0 15 0;
#X connect 72 0 17 0;
#X connect 73 0 19 0;
#X connect 74 0 71 0;
#X connect 74 0 72 0;
#X connect 74 0 73 0;
#X connect 75 0 2 0;
#X connect 75 0 8 0;
#X connect 75 0 9 0;
#X connect 75 0 3 0;
#X connect 75 0 4 0;
#X connect 75 0 35 0;
#X connect 75 0 10 0;
#X connect 75 0 45 0;
#X connect 75 0 11 0;
#X connect 75 0 12 0;
#X connect 75 0 13 0;
#X connect 75 0 5 0;
#X connect 75 0 6 0;
#X connect 75 0 7 0;
#X connect 75 0 29 0;
#X connect 75 0 30 0;
#X connect 75 0 31 0;
#X connect 75 0 44 0;
#X connect 75 0 33 0;
#X connect 75 0 34 0;
#X connect 75 0 36 0;
#X connect 75 0 40 0;
#X connect 75 0 51 0;
#X connect 75 0 39 0;
#X connect 76 0 75 0;
#X connect 77 0 75 0;
#X restore 44 -161 pd arduinopinload;
#X text -79 92 lower joystick outlets;
#X text 364 101 accelerometer;
#X obj 336 77 s xrx;
#X obj 385 79 s xry;
#X obj 433 79 s xrz;
#X obj 386 118 s oscyr;
#X obj 444 121 s osczr;
#X obj 329 118 s oscxr;
#X text 591 81 Keys 1234;
#X floatatom 622 -140 5 0 0 0 - - -;
#X floatatom 585 -132 5 0 0 0 - - -;
#X floatatom 524 -139 5 0 0 0 - - -;
#X floatatom 482 -138 5 0 0 0 - - -;
#X obj 637 59 s fr2;
#X obj 567 61 s fr4;
#X obj 602 59 s fr3;
#X obj 674 59 s fr1;
#X obj -77 181 s jru2;
#X obj 10 180 s jru3;
#X text 178 371 Upper joystick outlets;
#X obj 248 179 s jrb1;
#X obj 115 178 s jrb2;
#X obj 198 180 s jrb4;
#X obj 157 179 s jrb3;
#X msg 225 139 0;
#X msg 182 139 0;
#X msg 140 137 0;
#X msg 99 137 0;
#X msg 41 130 0;
#X msg 9 129 0;
#X msg -27 129 0;
#X msg -62 127 0;
#X obj 315 -26 tgl 15 0 empty empty empty 17 7 0 10 -262144 -1 -1 0
1;
#X obj 59 178 s jru4;
#X obj -35 181 s jru1;
#X obj 358 -41 bk;
#X connect 0 0 54 0;
#X connect 0 1 21 0;
#X connect 0 2 22 0;
#X connect 0 3 23 0;
#X connect 0 4 31 0;
#X connect 0 4 33 0;
#X connect 0 5 30 0;
#X connect 0 5 35 0;
#X connect 0 6 29 0;
#X connect 0 6 32 0;
#X connect 0 7 28 0;
#X connect 0 7 34 0;
#X connect 1 0 14 0;
#X connect 1 1 15 0;
#X connect 1 2 2 0;
#X connect 1 3 3 0;
#X connect 1 4 4 0;
#X connect 1 5 5 0;
#X connect 1 6 6 0;
#X connect 1 7 7 0;
#X connect 1 8 8 0;
#X connect 1 9 9 0;
#X connect 1 10 10 0;
#X connect 1 11 11 0;
#X connect 1 12 12 0;
#X connect 1 13 13 0;
#X connect 2 0 36 0;
#X connect 2 0 50 0;
#X connect 4 0 37 0;
#X connect 4 0 48 0;
#X connect 5 0 47 0;
#X connect 5 0 52 0;
#X connect 6 0 40 0;
#X connect 6 0 46 0;
#X connect 8 0 42 0;
#X connect 8 0 45 0;
#X connect 12 0 41 0;
#X connect 12 0 44 0;
#X connect 13 0 39 0;
#X connect 13 0 43 0;
#X connect 17 0 0 0;
#X connect 17 1 1 0;
#X connect 18 0 17 0;
#X connect 43 0 40 0;
#X connect 43 0 41 0;
#X connect 44 0 40 0;
#X connect 44 0 39 0;
#X connect 45 0 40 0;
#X connect 45 0 41 0;
#X connect 45 0 39 0;
#X connect 46 0 41 0;
#X connect 46 0 39 0;
#X connect 47 0 36 0;
#X connect 47 0 37 0;
#X connect 47 0 53 0;
#X connect 48 0 36 0;
#X connect 48 0 52 0;
#X connect 48 0 53 0;
#X connect 49 0 36 0;
#X connect 49 0 37 0;
#X connect 49 0 52 0;
#X connect 50 0 37 0;
#X connect 50 0 52 0;
#X connect 50 0 53 0;
#X connect 54 0 51 0;
#X connect 54 0 53 0;
