#N canvas 1672 0 1366 726 10;
#X declare -lib mrpeach;
#N canvas 17 494 1329 666 netrecieve 0;
#X obj -312 109 netreceive 13001;
#X floatatom -178 109 5 0 0 0 - - -;
#X floatatom -127 49 5 0 0 0 - - -;
#X obj -13 447 s yaxis;
#X obj -113 447 s xaxis;
#X obj -61 448 s zaxis;
#X obj -111 470 s xaxisr;
#X obj -57 470 s yaxisr;
#X obj -1 470 s zaxisr;
#X obj -345 307 s breath;
#X obj 157 358 s jlu4;
#X obj 114 359 s jlu3;
#X obj 69 359 s jlu2;
#X obj 23 358 s jlu1;
#X obj 36 187 s jrb1;
#X obj 89 184 s jrb2;
#X obj 143 186 s jrb3;
#X obj 196 187 s jrb4;
#X obj 33 210 s rjuforward;
#X obj 110 209 s rjuback;
#X obj 170 209 s rjuup;
#X obj 218 209 s rjudown;
#X floatatom -87 48 5 0 0 0 - - -;
#X floatatom -48 49 5 0 0 0 - - -;
#X obj -404 307 s pgmout;
#X obj -285 308 s noteval;
#X obj -222 309 s mynotemsg;
#X obj -149 308 s parakey;
#X obj 239 355 s loop_in_ms;
#X obj 99 255 s frange1;
#X obj 162 254 s frange2;
#X obj 225 253 s frange3;
#X obj 288 252 s frange4;
#X obj 101 280 s frange5;
#X obj 164 279 s frange6;
#X obj 227 278 s frange7;
#X obj 290 277 s frange8;
#X obj -227 164 outlet;
#X obj 425 333 s loopsize;
#X obj 373 303 s packedindex;
#X obj 473 228 s clear;
#X obj 409 228 s filerec;
#X obj 197 421 s looperctrl;
#X obj 367 173 s alarm;
#X obj 293 419 s mute1;
#X obj 353 420 s mute2;
#X obj 393 463 s fb1;
#X obj 431 463 s fb2;
#X obj 470 463 s fb3;
#X obj 508 463 s fb4;
#X obj 548 463 s fb5;
#X obj 586 463 s fb6;
#X obj 625 463 s fb7;
#X obj 663 463 s fb8;
#X obj 406 420 s mute3;
#X obj 466 421 s mute4;
#X obj 522 421 s mute5;
#X obj 582 422 s mute6;
#X obj 635 422 s mute7;
#X obj 695 423 s mute8;
#X obj 504 157 s looprec;
#X obj 117 53 route 1 2 3 4 5 6 7 8 9 10 11 12 13 14 15 16 17 18 19
20 21 22 23 24 25 26 27 28 29 30 31 32 33 34 35 36 37 38 39 40 41 42
43 44 45 46 47 48 49 50 51 52 53 54;
#X obj 709 313 vline~;
#X obj 709 336 s~ vline;
#X msg 707 292 0 \, \$2 \$1;
#X msg 790 353 set \$1 \$2;
#X msg 792 395 1.44e+006 30000;
#X obj 703 213 r loop_in_ms;
#X obj 788 213 r loopsize;
#X obj 726 257 pack f f;
#X connect 0 0 61 0;
#X connect 0 1 1 0;
#X connect 0 1 37 0;
#X connect 61 0 2 0;
#X connect 61 0 24 0;
#X connect 61 1 22 0;
#X connect 61 1 9 0;
#X connect 61 2 23 0;
#X connect 61 2 25 0;
#X connect 61 3 26 0;
#X connect 61 4 27 0;
#X connect 61 5 4 0;
#X connect 61 6 5 0;
#X connect 61 7 3 0;
#X connect 61 8 6 0;
#X connect 61 9 7 0;
#X connect 61 10 8 0;
#X connect 61 11 13 0;
#X connect 61 12 12 0;
#X connect 61 13 11 0;
#X connect 61 14 10 0;
#X connect 61 14 42 0;
#X connect 61 15 14 0;
#X connect 61 16 15 0;
#X connect 61 17 16 0;
#X connect 61 18 17 0;
#X connect 61 19 18 0;
#X connect 61 20 19 0;
#X connect 61 21 20 0;
#X connect 61 22 21 0;
#X connect 61 23 28 0;
#X connect 61 24 29 0;
#X connect 61 25 30 0;
#X connect 61 26 31 0;
#X connect 61 27 32 0;
#X connect 61 28 33 0;
#X connect 61 29 34 0;
#X connect 61 30 35 0;
#X connect 61 31 36 0;
#X connect 61 32 39 0;
#X connect 61 33 38 0;
#X connect 61 34 41 0;
#X connect 61 35 40 0;
#X connect 61 36 43 0;
#X connect 61 37 44 0;
#X connect 61 38 45 0;
#X connect 61 39 54 0;
#X connect 61 40 55 0;
#X connect 61 41 56 0;
#X connect 61 42 57 0;
#X connect 61 43 58 0;
#X connect 61 44 59 0;
#X connect 61 45 46 0;
#X connect 61 46 47 0;
#X connect 61 47 48 0;
#X connect 61 48 49 0;
#X connect 61 49 50 0;
#X connect 61 50 51 0;
#X connect 61 51 52 0;
#X connect 61 52 53 0;
#X connect 61 53 60 0;
#X connect 62 0 63 0;
#X connect 64 0 62 0;
#X connect 64 0 65 0;
#X connect 65 0 66 0;
#X connect 67 0 69 0;
#X connect 68 0 69 1;
#X connect 69 0 64 0;
#X restore 100 76 pd netrecieve 1;
#X obj 103 104 tgl 40 0 empty empty BJnet 40 7 0 10 -4034 -1 -1 1 1
;
#X obj 614 156 r pgmout;
#X obj 791 323 tgl 15 0 empty empty empty 17 7 0 10 -262144 -1 -1 1
1;
#X obj 786 200 catch~ drumout;
#X obj 766 300 == 1;
#X obj 724 577 *~;
#X obj 739 482 r mute1;
#X obj 777 402 tgl 40 0 empty empty empty 17 7 0 10 -191407 -1 -1 1
1;
#X obj 742 528 sig~;
#X obj 743 553 lop~ 80;
#X obj 743 462 s fbo1;
#X text 774 354 1;
#N canvas 212 335 450 300 volctrl 0;
#X obj 67 97 inlet~ synthsig;
#X obj 183 97 r outlevel;
#X obj 268 98 inlet chnltoggle;
#X obj 184 134 spigot;
#X obj 94 233 outlet~ synthsigout;
#X obj 88 175 *~ 0.5;
#X obj 252 262 outlet vol;
#X obj 184 158 clip 0 1;
#X connect 0 0 5 0;
#X connect 1 0 3 0;
#X connect 2 0 3 1;
#X connect 3 0 7 0;
#X connect 5 0 4 0;
#X connect 7 0 5 1;
#X connect 7 0 6 0;
#X restore 745 279 pd volctrl;
#X obj 733 506 sel 1 0;
#X obj 795 531 == 0;
#X obj 797 550 s recspigot1;
#X obj 725 349 looplayer;
#N canvas 906 149 613 601 loopctrlr 0;
#X obj 102 81 spigot;
#X obj 26 291 throw~ synthfeed2;
#X obj 104 102 tgl 15 0 empty empty empty 17 7 0 10 -262144 -1 -1 0
1;
#X obj 145 81 sel 0;
#X msg 145 102 0;
#X obj 42 58 inlet~;
#X obj 174 171 outlet looprec;
#X obj 121 314 outlet~;
#X obj 166 53 inlet;
#X obj 102 54 r looprec;
#X obj 263 54 r xaxis;
#X obj 263 80 spigot;
#X obj 265 168 outlet feedback;
#X obj 105 130 sel 0 1;
#X msg 106 157 1 0;
#X msg 139 158 0 1;
#X obj 106 189 unpack f f;
#X obj 50 244 lop~ 80;
#X obj 136 235 lop~ 80;
#X obj 35 264 *~;
#X obj 121 257 *~;
#X obj 51 222 sig~;
#X obj 136 212 sig~;
#X obj 198 82 loadbang;
#X obj 392 131 spigot;
#X obj 393 101 r outlevel;
#X obj 387 178 outlet outlevel;
#X floatatom 447 233 5 0 0 0 - - -;
#X obj 517 178 outlet clear;
#X obj 314 54 r fb1;
#N canvas 633 345 450 300 loopclear 0;
#X obj 167 106 spigot;
#X floatatom 211 119 5 0 0 0 - - -;
#X obj 181 144 == 1;
#X msg 263 141 0;
#X obj 79 82 inlet looprec;
#X obj 124 246 outlet clearer;
#X obj 201 82 r recspigot1;
#X obj 192 218 send mute1;
#X connect 0 0 2 0;
#X connect 0 0 5 0;
#X connect 2 0 3 0;
#X connect 2 0 7 0;
#X connect 3 0 0 1;
#X connect 4 0 0 0;
#X connect 6 0 0 1;
#X connect 6 0 1 0;
#X restore 517 140 pd loopclear 1;
#X connect 0 0 2 0;
#X connect 2 0 6 0;
#X connect 2 0 13 0;
#X connect 2 0 30 0;
#X connect 3 0 4 0;
#X connect 4 0 2 0;
#X connect 5 0 19 0;
#X connect 5 0 20 0;
#X connect 8 0 0 1;
#X connect 8 0 3 0;
#X connect 8 0 24 1;
#X connect 9 0 0 0;
#X connect 10 0 11 0;
#X connect 11 0 12 0;
#X connect 13 0 14 0;
#X connect 13 1 15 0;
#X connect 14 0 16 0;
#X connect 15 0 16 0;
#X connect 16 0 21 0;
#X connect 16 1 22 0;
#X connect 17 0 19 1;
#X connect 18 0 20 1;
#X connect 19 0 1 0;
#X connect 20 0 7 0;
#X connect 21 0 17 0;
#X connect 22 0 18 0;
#X connect 23 0 14 0;
#X connect 24 0 26 0;
#X connect 24 0 27 0;
#X connect 25 0 24 0;
#X connect 29 0 11 1;
#X connect 30 0 28 0;
#X coords 0 -1 1 1 50 20 2 100 100;
#X restore 730 322 pd loopctrlr;
#N canvas 0 0 1366 726 pre_fx_here 0;
#X obj 243 554 outlet~;
#X obj 149 223 *~;
#X obj 254 58 loadbang;
#X obj 157 102 sel 0 1;
#X floatatom 207 103 5 0 0 0 - - -;
#X floatatom 502 251 5 0 0 0 - - -;
#X obj 435 248 mtof;
#X floatatom 464 248 5 0 0 0 - - -;
#X obj 435 203 f;
#X obj 515 283 sig~;
#X floatatom 562 182 5 0 0 0 - - -;
#X floatatom 440 222 5 0 0 0 - - -;
#X floatatom 524 158 5 0 0 0 - - -;
#X obj 380 336 bp~;
#X obj 475 460 bp~;
#X obj 384 304 bp~;
#X obj 412 313 sig~;
#X obj 283 512 *~ 3;
#X obj 502 229 / 5;
#X obj 401 408 hip~ 10000;
#X obj 478 486 bp~;
#X obj 469 158 r yaxisr;
#X obj 509 181 r xaxisr;
#X obj 161 43 r jrb1;
#X obj 99 161 inlet~;
#X msg 255 81 1 0;
#X obj 154 172 unpack f f;
#X floatatom 227 193 5 0 0 0 - - -;
#X floatatom 115 198 5 0 0 0 - - -;
#X obj 196 222 *~;
#X msg 176 149 0 1;
#X obj 161 65 change;
#X msg 157 126 1 0;
#X connect 1 0 0 0;
#X connect 2 0 25 0;
#X connect 3 0 32 0;
#X connect 3 1 30 0;
#X connect 5 0 9 0;
#X connect 5 0 13 2;
#X connect 5 0 14 2;
#X connect 5 0 15 2;
#X connect 5 0 20 2;
#X connect 6 0 7 0;
#X connect 6 0 15 1;
#X connect 6 0 13 1;
#X connect 6 0 14 1;
#X connect 6 0 19 1;
#X connect 6 0 20 1;
#X connect 8 0 11 0;
#X connect 8 0 6 0;
#X connect 13 0 17 0;
#X connect 14 0 20 0;
#X connect 14 0 0 0;
#X connect 15 0 13 0;
#X connect 15 0 17 0;
#X connect 17 0 0 0;
#X connect 18 0 5 0;
#X connect 19 0 14 0;
#X connect 20 0 17 0;
#X connect 21 0 12 0;
#X connect 21 0 18 0;
#X connect 22 0 10 0;
#X connect 22 0 8 0;
#X connect 23 0 4 0;
#X connect 23 0 31 0;
#X connect 24 0 29 0;
#X connect 24 0 1 0;
#X connect 25 0 26 0;
#X connect 26 0 1 1;
#X connect 26 0 28 0;
#X connect 26 1 27 0;
#X connect 26 1 29 1;
#X connect 29 0 15 0;
#X connect 30 0 26 0;
#X connect 31 0 3 0;
#X connect 32 0 26 0;
#X restore 738 239 pd pre_fx_here;
#N canvas 1672 -8 1366 726 synth 1;
#X obj 301 559 r t-cym;
#X obj 753 111 r t-hato;
#X obj 819 112 r t-crash;
#N canvas 0 0 331 381 accent 0;
#X obj 48 193 sig~ 0.6;
#X obj 49 218 +~;
#X obj 122 143 line~;
#X obj 121 168 *~;
#X msg 125 89 1 1;
#X obj 228 90 r timeacc;
#X obj 163 115 pack 0 150;
#X obj 163 90 del 4;
#X obj 132 51 t b;
#X obj 30 137 inlet~;
#X obj 33 281 outlet~;
#X obj 132 19 inlet;
#X obj 121 193 *~ 0.6;
#X obj 32 244 *~ 1;
#X connect 0 0 1 0;
#X connect 2 0 3 0;
#X connect 2 0 3 1;
#X connect 3 0 12 0;
#X connect 4 0 2 0;
#X connect 5 0 6 1;
#X connect 6 0 2 0;
#X connect 7 0 6 0;
#X connect 8 0 4 0;
#X connect 8 0 7 0;
#X connect 9 0 13 0;
#X connect 11 0 8 0;
#X connect 12 0 1 1;
#X connect 13 0 10 0;
#X restore 1031 575 pd accent;
#X text 964 130 Warranty void if opened;
#X text 963 149 No user serviceable parts inside;
#X text 963 109 Risque de choc!;
#X obj -110 7 r mynotemsg;
#X floatatom -88 60 5 0 0 0 - - -;
#X floatatom -54 61 5 0 0 0 - - -;
#X obj -95 42 unpack f f f;
#X obj -94 85 spigot;
#N canvas 659 176 236 193 bk 0;
#X obj 99 39 tgl 15 0 empty empty empty 17 7 0 10 -262144 -1 -1 0 3
;
#X obj 88 113 tgl 15 0 empty empty empty 17 7 0 10 -262144 -1 -1 0
0.596351;
#X obj 62 44 * 3;
#X floatatom 27 51 5 0 0 0 - - -;
#X obj 59 9 inlet;
#X obj 91 164 outlet;
#X obj 70 155 bng 15 250 50 0 empty empty empty 17 7 0 10 -262144 -1
-1;
#X msg 90 137 1;
#X floatatom 38 119 5 0 0 0 - - -;
#X obj 44 84 threshold 3 0 3 0;
#X connect 1 0 7 0;
#X connect 2 0 0 0;
#X connect 2 0 3 0;
#X connect 2 0 9 0;
#X connect 4 0 2 0;
#X connect 7 0 5 0;
#X connect 9 0 1 0;
#X connect 9 0 8 0;
#X connect 9 1 1 0;
#X restore -112 132 pd bk;
#X obj 336 47 r hit;
#X obj -94 106 stripnote;
#X obj 233 559 == 63;
#X obj 175 563 == 57;
#X obj -2 9 inlet;
#N canvas 287 226 754 405 effects 0;
#X obj 104 45 inlet~;
#X obj 107 148 outlet~;
#N canvas 0 0 450 300 distort 0;
#X obj 115 40 inlet~;
#X obj 115 163 outlet~;
#X obj 115 68 clip~ -0.2 0.2;
#X obj 115 90 *~ 30;
#X obj 115 114 clip~ -0.9 0.9;
#X obj 115 137 *~ 0.5;
#X connect 0 0 2 0;
#X connect 2 0 3 0;
#X connect 3 0 4 0;
#X connect 4 0 5 0;
#X connect 5 0 1 0;
#X restore 188 115 pd distort;
#X obj 187 64 unpack 1 2 3;
#X msg 192 30 1 0 0;
#X obj 189 92 *~;
#X obj 310 17 r effects;
#X obj 191 7 loadbang;
#X obj 284 92 *~;
#X obj 283 116 gdrumdelay;
#X obj 109 94 *~ 1;
#N canvas 464 116 716 563 eq 0;
#X obj 220 40 cnv 15 150 300 empty empty empty 20 12 0 14 -24198 -66577
0;
#N canvas 0 0 454 304 using 0;
#X obj 67 239 outlet~;
#X obj 65 134 biquad~;
#X obj 66 154 biquad~;
#X obj 66 174 biquad~;
#X obj 35 110 lowpass 370 310;
#X obj 194 134 biquad~;
#X obj 193 154 biquad~;
#X obj 194 174 biquad~;
#X obj 163 111 bandpass 1175 490;
#X obj 305 111 highpass 2350 130;
#X obj 334 134 biquad~;
#X obj 334 154 biquad~;
#X obj 163 25 loadbang;
#X obj 193 239 outlet~;
#X obj 335 239 outlet~;
#X obj 66 25 inlet~ signal;
#X obj 235 54 switch~;
#X obj 235 25 inlet switch;
#X connect 1 0 2 0;
#X connect 2 0 3 0;
#X connect 3 0 0 0;
#X connect 4 0 1 0;
#X connect 4 0 2 0;
#X connect 4 0 3 0;
#X connect 5 0 6 0;
#X connect 6 0 7 0;
#X connect 7 0 13 0;
#X connect 8 0 5 0;
#X connect 8 0 6 0;
#X connect 8 0 7 0;
#X connect 9 0 10 0;
#X connect 9 0 11 0;
#X connect 10 0 11 0;
#X connect 11 0 14 0;
#X connect 12 0 4 0;
#X connect 12 0 8 0;
#X connect 12 0 9 0;
#X connect 15 0 1 0;
#X connect 15 0 5 0;
#X connect 15 0 10 0;
#X connect 17 0 16 0;
#X restore 451 175 pd using GGEE filter objects;
#X obj 395 60 tgl 15 1 empty empty empty 0 -6 0 8 -258699 -1 -1 1 1
;
#X obj 323 375 hsl 128 15 0 1 0 1 empty empty dry/wet -2 -6 0 8 -241291
-1 -1 12700 1;
#X obj 228 60 vsl 15 128 0 1 0 1 empty empty BASS 0 -8 0 8 -44926 -1
-1 12000 1;
#X obj 308 53 vsl 15 128 0 1 0 1 empty empty MIDS 0 -8 0 8 -44926 -1
-1 10500 1;
#X obj 345 54 vsl 15 128 0 1 0 1 empty empty HIGHS 0 -8 0 8 -44926
-1 -1 12601 1;
#N canvas 401 243 540 481 output_mixer 0;
#X obj 39 11 inlet dry/wet;
#X obj 22 -19 inlet~ dry;
#X obj 248 -19 inlet~ bass;
#X obj 338 -19 inlet~ mids;
#X obj 424 -19 inlet~ highs;
#X obj 87 35 inlet bass;
#X obj 127 60 inlet mids;
#X obj 157 86 inlet highs;
#X obj 22 327 outlet~;
#X obj 111 235 *~;
#X obj 141 235 *~;
#X obj 71 235 *~;
#X obj 39 35 * -1;
#X obj 39 57 + 1;
#X obj 23 287 *~;
#X obj 70 288 *~ 1;
#X connect 0 0 12 0;
#X connect 1 0 14 0;
#X connect 2 0 11 0;
#X connect 3 0 9 0;
#X connect 4 0 10 0;
#X connect 5 0 11 1;
#X connect 6 0 9 1;
#X connect 7 0 10 1;
#X connect 9 0 15 0;
#X connect 10 0 15 0;
#X connect 11 0 15 0;
#X connect 12 0 13 0;
#X connect 13 0 14 1;
#X connect 14 0 8 0;
#X connect 15 0 8 0;
#X restore 380 283 pd output_mixer;
#X obj 516 388 cnv 15 255 20 empty empty empty 20 12 0 14 -24198 -66577
0;
#X obj 379 87 *~;
#X obj 378 39 inlet~;
#X obj 380 333 outlet~;
#X obj 253 375 print;
#X obj 109 182 knob 32 32 0 1 0 0 empty empty empty 0 -8 0 8 -4160
-1 -1 2929 1;
#X obj 110 141 knob 32 32 0 1 0 0 empty empty empty 0 -8 0 8 -260097
-1 -1 2563 1;
#X obj 112 104 knob 32 32 0 1 0 0 empty empty empty 0 -8 0 8 -4034
-1 -1 3076 1;
#X text 512 31 nodal names;
#X obj 514 57 r \$0-n22x;
#X obj 450 60 r \$0-n21x;
#X obj 570 62 r \$0-n23x;
#X obj 459 106 / 127;
#X obj 509 102 / 127;
#X obj 573 99 / 127;
#X floatatom 518 132 5 0 0 0 - - -;
#X floatatom 472 136 5 0 0 0 - - -;
#X floatatom 572 133 5 0 0 0 - - -;
#X floatatom 297 214 5 0 0 0 - - -;
#X floatatom 247 236 5 0 0 0 - - -;
#X floatatom 338 212 5 0 0 0 - - -;
#X floatatom 508 291 5 0 5 0 - - -;
#X obj 390 306 compressor~ 3;
#X msg 495 329 3;
#X obj 544 305 loadbang;
#X obj 656 157 inlet;
#X obj 642 115 tgl 15 1 empty empty ON 0 -6 0 8 -258699 -1 -1 1 1;
#X connect 1 0 7 5;
#X connect 1 1 7 6;
#X connect 1 2 7 7;
#X connect 2 0 9 1;
#X connect 3 0 7 1;
#X connect 4 0 7 2;
#X connect 4 0 12 0;
#X connect 4 0 13 0;
#X connect 4 0 27 0;
#X connect 5 0 7 3;
#X connect 5 0 14 0;
#X connect 5 0 26 0;
#X connect 6 0 7 4;
#X connect 6 0 15 0;
#X connect 6 0 28 0;
#X connect 7 0 30 0;
#X connect 9 0 7 0;
#X connect 9 0 1 0;
#X connect 10 0 9 0;
#X connect 17 0 21 0;
#X connect 18 0 20 0;
#X connect 19 0 22 0;
#X connect 20 0 4 0;
#X connect 20 0 24 0;
#X connect 21 0 5 0;
#X connect 21 0 23 0;
#X connect 22 0 6 0;
#X connect 22 0 25 0;
#X connect 30 0 11 0;
#X connect 31 0 30 1;
#X connect 32 0 31 0;
#X connect 33 0 1 1;
#X coords 0 -1 1 1 50 120 1 100 100;
#X restore 453 265 pd eq;
#X floatatom 503 204 5 0 0 0 - - -;
#X obj 501 183 r \$0-n7x;
#X obj 453 207 gdel;
#X obj 640 191 r \$0-n8y;
#X obj 585 190 r \$0-n8x;
#N canvas 0 0 771 300 centerer 0;
#X floatatom 219 94 5 0 0 0 - - -;
#X obj 255 68 / 10;
#X obj 255 95 - 9;
#X floatatom 217 117 5 0 0 0 - - -;
#X floatatom 215 62 5 0 0 0 - - -;
#X floatatom 219 141 5 0 0 0 - - -;
#X obj 255 118 + 3;
#X floatatom 287 122 5 0 0 0 - - -;
#X floatatom 285 183 5 0 0 0 - - -;
#X obj 255 144 +;
#X obj 255 168 f;
#X text 490 10 centerer;
#X obj 256 46 inlet axis;
#X obj 356 48 inlet centerval;
#X obj 102 103 knob 32 32 0 127 0 0 empty empty empty 0 -8 0 8 -262144
-1 -1 0 1;
#X obj 108 109 knob 20 20 -5 5 0 0 empty empty empty 0 -8 0 8 -258113
-1 -1 1270 1;
#X text 7 14 this value will be the xlrmtr axis scaled to only be5-6
degrees around the center value coming from the second inlet;
#X text 353 65 this value will come from a gesture node value;
#X obj 255 207 outlet;
#X connect 1 0 0 0;
#X connect 1 0 2 0;
#X connect 2 0 3 0;
#X connect 2 0 6 0;
#X connect 6 0 5 0;
#X connect 6 0 9 0;
#X connect 7 0 9 1;
#X connect 9 0 10 0;
#X connect 10 0 8 0;
#X connect 10 0 18 0;
#X connect 10 0 15 0;
#X connect 12 0 1 0;
#X connect 12 0 4 0;
#X connect 13 0 9 1;
#X connect 13 0 14 0;
#X coords 0 -1 1 1 40 60 2 100 100;
#X restore 592 213 pd centerer;
#N canvas 0 0 771 300 centerer 0;
#X floatatom 219 94 5 0 0 0 - - -;
#X obj 255 68 / 10;
#X obj 255 95 - 9;
#X floatatom 217 117 5 0 0 0 - - -;
#X floatatom 215 62 5 0 0 0 - - -;
#X floatatom 219 141 5 0 0 0 - - -;
#X obj 255 118 + 3;
#X floatatom 287 122 5 0 0 0 - - -;
#X floatatom 285 183 5 0 0 0 - - -;
#X obj 255 144 +;
#X obj 255 168 f;
#X text 490 10 centerer;
#X obj 256 46 inlet axis;
#X obj 356 48 inlet centerval;
#X obj 102 103 knob 32 32 0 127 0 0 empty empty empty 0 -8 0 8 -262144
-1 -1 0 1;
#X obj 108 109 knob 20 20 -5 5 0 0 empty empty empty 0 -8 0 8 -258113
-1 -1 562 1;
#X text 7 14 this value will be the xlrmtr axis scaled to only be5-6
degrees around the center value coming from the second inlet;
#X text 353 65 this value will come from a gesture node value;
#X obj 255 207 outlet;
#X connect 1 0 0 0;
#X connect 1 0 2 0;
#X connect 2 0 3 0;
#X connect 2 0 6 0;
#X connect 6 0 5 0;
#X connect 6 0 9 0;
#X connect 7 0 9 1;
#X connect 9 0 10 0;
#X connect 10 0 8 0;
#X connect 10 0 18 0;
#X connect 10 0 15 0;
#X connect 12 0 1 0;
#X connect 12 0 4 0;
#X connect 13 0 9 1;
#X connect 13 0 14 0;
#X coords 0 -1 1 1 40 40 2 100 100;
#X restore 636 212 pd centerer;
#X obj 586 171 r xaxisr;
#X obj 641 171 r yaxisr;
#X obj 453 242 gverb;
#X obj 452 182 gflange;
#X obj 488 69 r \$0-n5y;
#X obj 490 113 centerer;
#X obj 490 91 r yaxisr;
#X connect 0 0 10 0;
#X connect 3 1 5 1;
#X connect 3 2 8 1;
#X connect 4 0 3 0;
#X connect 5 0 2 0;
#X connect 6 0 3 0;
#X connect 7 0 4 0;
#X connect 8 0 9 0;
#X connect 10 0 1 0;
#X connect 11 0 1 0;
#X connect 12 0 14 1;
#X connect 13 0 12 0;
#X connect 14 0 21 0;
#X connect 15 0 18 1;
#X connect 16 0 17 1;
#X connect 17 0 21 3;
#X connect 18 0 21 2;
#X connect 19 0 17 0;
#X connect 20 0 18 0;
#X connect 21 0 11 0;
#X connect 22 0 14 0;
#X connect 23 0 24 1;
#X connect 24 0 22 1;
#X connect 25 0 24 0;
#X restore 1031 595 pd effects;
#X obj 138 406;
#X obj 895 112 r breath;
#X obj 189 600 gbongo1;
#X obj 324 598 gcym;
#X obj 731 151 gcrash;
#X obj 186 140 tgl 15 0 empty empty empty 17 7 0 10 -262144 -1 -1 0
1;
#X obj 662 36 tgl 15 0 empty empty empty 17 7 0 10 -262144 -1 -1 0
1;
#X obj 509 16 tgl 15 0 empty empty empty 17 7 0 10 -262144 -1 -1 0
1;
#X obj 116 143 tgl 15 0 empty empty empty 17 7 0 10 -262144 -1 -1 1
1;
#X obj 220 144 tgl 15 0 empty empty empty 17 7 0 10 -262144 -1 -1 1
1;
#X obj 140 140 tgl 15 0 empty empty empty 17 7 0 10 -262144 -1 -1 1
1;
#X obj 796 4 tgl 15 0 empty empty empty 17 7 0 10 -262144 -1 -1 0 1
;
#X obj 92 143 tgl 15 0 empty empty empty 17 7 0 10 -262144 -1 -1 1
1;
#X obj 946 70 tgl 15 0 empty empty empty 17 7 0 10 -262144 -1 -1 0
1;
#X obj 160 141 tgl 15 0 empty empty empty 17 7 0 10 -262144 -1 -1 0
1;
#X obj 1061 649 clip~ -1 2;
#X obj 1034 623 *~ 7;
#X floatatom -21 143 5 0 0 0 - - -;
#X obj -95 234 DIY2/perk-bassdrum /key;
#X obj 91 234 DIY2/perk-snare /key;
#N canvas 0 0 450 300 breath 0;
#X obj 167 28 r breath;
#X obj 168 64 / 127;
#X obj 173 97 sig~;
#X obj 172 138 lop~ 200;
#X obj 159 188 outlet~;
#X connect 0 0 1 0;
#X connect 1 0 2 0;
#X connect 2 0 3 0;
#X connect 3 0 4 0;
#X restore 605 609 pd breath;
#X obj 276 234 DIY2/perk-clap /key;
#N canvas 0 0 450 300 breath 0;
#X obj 167 28 r breath;
#X obj 168 64 / 127;
#X obj 173 97 sig~;
#X obj 172 138 lop~ 200;
#X obj 159 188 outlet~;
#X obj 251 173 outlet;
#X connect 0 0 1 0;
#X connect 1 0 2 0;
#X connect 1 0 5 0;
#X connect 2 0 3 0;
#X connect 3 0 4 0;
#X restore 110 -4 pd breath;
#X obj 462 235 DIY2/perk-hihat /key;
#X obj 649 238 DIY2/perk-cowbell /key;
#X obj -76 465 DIY2/perk-lowtom /key;
#X obj 131 460 DIY2/perk-hightom /key;
#X obj 89 101 sel 53 56 63 55 64 58 60 62;
#X obj 334 436 DIY2/perk-andyhat /key;
#X obj 570 424 *~ 0.2;
#X obj 1035 671 outlet~ drumout;
#X obj 2 33 tgl 15 0 empty empty empty 17 7 0 10 -262144 -1 -1 1 1
;
#X floatatom -11 63 5 0 0 0 - - -;
#X text 57 51 fix the mynotemsg input.;
#X obj 1089 512 osc~ 880;
#X connect 0 0 22 0;
#X connect 0 0 30 0;
#X connect 2 0 23 0;
#X connect 3 0 18 0;
#X connect 7 0 10 0;
#X connect 10 0 8 0;
#X connect 10 0 11 0;
#X connect 10 1 9 0;
#X connect 10 1 14 1;
#X connect 10 2 51 0;
#X connect 11 0 14 0;
#X connect 14 0 15 0;
#X connect 14 0 16 0;
#X connect 14 0 36 0;
#X connect 14 0 46 0;
#X connect 16 0 21 0;
#X connect 16 0 25 0;
#X connect 17 0 11 1;
#X connect 18 0 35 0;
#X connect 20 0 3 1;
#X connect 21 0 3 0;
#X connect 22 0 3 0;
#X connect 23 0 3 0;
#X connect 35 0 49 0;
#X connect 37 0 3 0;
#X connect 38 0 3 0;
#X connect 40 0 3 0;
#X connect 42 0 48 0;
#X connect 43 0 3 0;
#X connect 44 0 3 0;
#X connect 45 0 3 0;
#X connect 46 0 31 0;
#X connect 46 0 37 0;
#X connect 46 1 38 0;
#X connect 46 1 27 0;
#X connect 46 2 29 0;
#X connect 46 2 40 0;
#X connect 46 3 42 0;
#X connect 46 3 33 0;
#X connect 46 4 43 0;
#X connect 46 4 24 0;
#X connect 46 5 28 0;
#X connect 46 5 44 0;
#X connect 46 6 45 0;
#X connect 46 7 47 0;
#X connect 47 0 3 0;
#X connect 48 0 3 0;
#X connect 50 0 11 1;
#X restore 740 167 pd synth;
#X obj 487 261 gesturenode;
#X obj 4 529 gesturenode-r;
#X floatatom 190 438 5 0 0 0 - - -;
#X obj 454 380 s \$0-n1x;
#X obj 504 402 s \$0-n1y;
#X obj 535 380 s \$0-n1z;
#X obj 397 380 s \$0-n2z;
#X obj 353 400 s \$0-n2y;
#X obj 310 381 s \$0-n2x;
#X obj 251 380 s \$0-n3z;
#X obj 215 404 s \$0-n3y;
#X obj 167 381 s \$0-n3x;
#X obj 108 383 s \$0-n4z;
#X obj 57 401 s \$0-n4y;
#X obj 16 381 s \$0-n4x;
#X obj 94 658 s \$0-n5z;
#X obj 48 676 s \$0-n5y;
#X obj 5 657 s \$0-n5x;
#X obj 247 657 s \$0-n6z;
#X obj 159 657 s \$0-n6x;
#X obj 389 654 s \$0-n7z;
#X obj 347 676 s \$0-n7y;
#X obj 303 657 s \$0-n7x;
#X obj 538 655 s \$0-n8z;
#X obj 490 680 s \$0-n8y;
#X obj 451 657 s \$0-n8x;
#X text 103 442 n=node;
#X obj 313 435 s \$0-n \$1 z;
#X obj 233 436 s \$0-pgm;
#X text 442 170 assign to single unrelated vectors;
#X obj 547 188 r parakey;
#X obj 487 231 == 1;
#X obj 73 227 r frange4;
#X obj 217 230 r frange3;
#X obj 376 231 r frange2;
#X obj 524 231 r frange1;
#X obj 40 228 == 4;
#X obj 184 231 == 3;
#X obj 340 232 == 2;
#X obj 394 457 r parakey;
#X obj 55 477 == 5;
#X obj 88 476 r frange5;
#X obj 200 478 == 6;
#X obj 233 477 r frange6;
#X obj 330 482 == 7;
#X obj 366 481 r frange7;
#X obj 472 485 == 8;
#X obj 509 485 r frange8;
#X obj 159 532 gesturenode-r;
#X obj 313 532 gesturenode-r;
#X obj 470 530 gesturenode-r;
#X obj 177 260 gesturenode;
#X obj 331 260 gesturenode;
#X obj 21 258 gesturenode;
#X obj 401 487;
#X floatatom -14 663 5 0 0 0 - - -;
#X obj 203 677 s \$0-n6y;
#X obj 652 262 switch~;
#X obj 264 114 centerer;
#X obj 616 189 == 1;
#X obj 1 33 loadbang;
#X obj -9 69 import mrpeach;
#X obj -31 49 bng 15 250 50 0 empty empty empty 17 7 0 10 -262144 -1
-1;
#X obj 102 147 tgl 40 0 empty empty AudioSend 40 7 0 10 -260097 -1
-1 1 1;
#X msg 698 593 connect localhost 8001;
#X msg 693 619 disconnect;
#X floatatom 681 184 5 0 0 0 - - -;
#X obj 785 618 catch~ synthfeed2;
#X obj 896 497 osc~ 440;
#X obj 724 659 udpsend~ 1 128;
#X connect 0 0 1 0;
#X connect 2 0 80 0;
#X connect 2 0 5 0;
#X connect 2 0 87 0;
#X connect 3 0 18 1;
#X connect 5 0 3 0;
#X connect 5 0 13 1;
#X connect 6 0 90 0;
#X connect 7 0 14 0;
#X connect 8 0 9 0;
#X connect 8 0 15 0;
#X connect 9 0 10 0;
#X connect 10 0 6 1;
#X connect 13 0 18 0;
#X connect 13 1 17 3;
#X connect 14 0 8 0;
#X connect 15 0 16 0;
#X connect 17 0 6 0;
#X connect 17 1 11 0;
#X connect 18 0 17 0;
#X connect 18 2 17 1;
#X connect 18 4 17 2;
#X connect 19 0 13 0;
#X connect 20 0 19 0;
#X connect 21 0 24 0;
#X connect 21 1 25 0;
#X connect 21 2 26 0;
#X connect 22 0 38 0;
#X connect 22 0 76 0;
#X connect 22 1 37 0;
#X connect 22 2 36 0;
#X connect 51 0 52 0;
#X connect 51 0 57 0;
#X connect 51 0 58 0;
#X connect 51 0 59 0;
#X connect 52 0 21 0;
#X connect 53 0 74 2;
#X connect 54 0 72 2;
#X connect 55 0 73 2;
#X connect 56 0 21 2;
#X connect 57 0 74 0;
#X connect 58 0 72 0;
#X connect 59 0 73 0;
#X connect 60 0 61 0;
#X connect 60 0 63 0;
#X connect 60 0 65 0;
#X connect 60 0 67 0;
#X connect 61 0 22 0;
#X connect 62 0 22 2;
#X connect 63 0 69 0;
#X connect 64 0 69 2;
#X connect 65 0 70 0;
#X connect 66 0 70 2;
#X connect 67 0 71 0;
#X connect 68 0 71 2;
#X connect 69 0 40 0;
#X connect 69 1 77 0;
#X connect 69 2 39 0;
#X connect 70 0 43 0;
#X connect 70 1 42 0;
#X connect 70 2 41 0;
#X connect 71 0 46 0;
#X connect 71 1 45 0;
#X connect 71 2 44 0;
#X connect 72 0 32 0;
#X connect 72 1 31 0;
#X connect 72 2 30 0;
#X connect 73 0 29 0;
#X connect 73 1 28 0;
#X connect 73 2 27 0;
#X connect 74 0 35 0;
#X connect 74 1 34 0;
#X connect 74 2 33 0;
#X connect 80 0 23 0;
#X connect 80 0 49 0;
#X connect 80 0 21 1;
#X connect 80 0 22 1;
#X connect 80 0 69 1;
#X connect 80 0 70 1;
#X connect 80 0 71 1;
#X connect 80 0 72 1;
#X connect 80 0 73 1;
#X connect 80 0 74 1;
#X connect 80 0 78 0;
#X connect 80 0 20 0;
#X connect 81 0 82 0;
#X connect 81 0 85 0;
#X connect 83 0 82 0;
#X connect 85 0 90 0;
#X connect 86 0 90 0;
#X connect 88 0 90 0;
#X connect 90 0 84 0;
#X coords 0 -1 1 1 100 100 1 100 100;
