#N canvas 1672 -8 1366 726 10;
#X declare -lib mrpeach;
#N canvas 17 494 1329 666 netrecieve 0;
#X obj -312 109 netreceive 13001;
#X floatatom -178 109 5 0 0 0 - - -;
#X floatatom -127 49 5 0 0 0 - - -;
#X obj -13 447 s yaxis;
#X obj -113 447 s xaxis;
#X obj -61 448 s zaxis;
#X obj -111 470 s xaxisr;
#X obj -57 470 s yaxisr;
#X obj -1 470 s zaxisr;
#X obj -345 307 s breath;
#X obj 157 358 s jlu4;
#X obj 114 359 s jlu3;
#X obj 69 359 s jlu2;
#X obj 23 358 s jlu1;
#X obj 36 187 s jrb1;
#X obj 89 184 s jrb2;
#X obj 143 186 s jrb3;
#X obj 196 187 s jrb4;
#X obj 33 210 s rjuforward;
#X obj 110 209 s rjuback;
#X obj 170 209 s rjuup;
#X obj 218 209 s rjudown;
#X floatatom -87 48 5 0 0 0 - - -;
#X floatatom -48 49 5 0 0 0 - - -;
#X obj -404 307 s pgmout;
#X obj -285 308 s noteval;
#X obj -222 309 s mynotemsg;
#X obj -149 308 s parakey;
#X obj 239 355 s loop_in_ms;
#X obj 99 255 s frange1;
#X obj 162 254 s frange2;
#X obj 225 253 s frange3;
#X obj 288 252 s frange4;
#X obj 101 280 s frange5;
#X obj 164 279 s frange6;
#X obj 227 278 s frange7;
#X obj 290 277 s frange8;
#X obj -227 164 outlet;
#X obj 425 333 s loopsize;
#X obj 373 303 s packedindex;
#X obj 473 228 s clear;
#X obj 409 228 s filerec;
#X obj 197 421 s looperctrl;
#X obj 367 173 s alarm;
#X obj 293 419 s mute1;
#X obj 353 420 s mute2;
#X obj 393 463 s fb1;
#X obj 431 463 s fb2;
#X obj 470 463 s fb3;
#X obj 508 463 s fb4;
#X obj 548 463 s fb5;
#X obj 586 463 s fb6;
#X obj 625 463 s fb7;
#X obj 663 463 s fb8;
#X obj 406 420 s mute3;
#X obj 466 421 s mute4;
#X obj 522 421 s mute5;
#X obj 582 422 s mute6;
#X obj 635 422 s mute7;
#X obj 695 423 s mute8;
#X obj 504 157 s looprec;
#X obj 117 53 route 1 2 3 4 5 6 7 8 9 10 11 12 13 14 15 16 17 18 19
20 21 22 23 24 25 26 27 28 29 30 31 32 33 34 35 36 37 38 39 40 41 42
43 44 45 46 47 48 49 50 51 52 53 54;
#X obj 709 313 vline~;
#X obj 709 336 s~ vline;
#X msg 707 292 0 \, \$2 \$1;
#X msg 790 353 set \$1 \$2;
#X msg 792 395 1.44e+006 30000;
#X obj 703 213 r loop_in_ms;
#X obj 788 213 r loopsize;
#X obj 726 257 pack f f;
#X connect 0 0 61 0;
#X connect 0 1 1 0;
#X connect 0 1 37 0;
#X connect 61 0 2 0;
#X connect 61 0 24 0;
#X connect 61 1 22 0;
#X connect 61 1 9 0;
#X connect 61 2 23 0;
#X connect 61 2 25 0;
#X connect 61 3 26 0;
#X connect 61 4 27 0;
#X connect 61 5 4 0;
#X connect 61 6 5 0;
#X connect 61 7 3 0;
#X connect 61 8 6 0;
#X connect 61 9 7 0;
#X connect 61 10 8 0;
#X connect 61 11 13 0;
#X connect 61 12 12 0;
#X connect 61 13 11 0;
#X connect 61 14 10 0;
#X connect 61 14 42 0;
#X connect 61 15 14 0;
#X connect 61 16 15 0;
#X connect 61 17 16 0;
#X connect 61 18 17 0;
#X connect 61 19 18 0;
#X connect 61 20 19 0;
#X connect 61 21 20 0;
#X connect 61 22 21 0;
#X connect 61 23 28 0;
#X connect 61 24 29 0;
#X connect 61 25 30 0;
#X connect 61 26 31 0;
#X connect 61 27 32 0;
#X connect 61 28 33 0;
#X connect 61 29 34 0;
#X connect 61 30 35 0;
#X connect 61 31 36 0;
#X connect 61 32 39 0;
#X connect 61 33 38 0;
#X connect 61 34 41 0;
#X connect 61 35 40 0;
#X connect 61 36 43 0;
#X connect 61 37 44 0;
#X connect 61 38 45 0;
#X connect 61 39 54 0;
#X connect 61 40 55 0;
#X connect 61 41 56 0;
#X connect 61 42 57 0;
#X connect 61 43 58 0;
#X connect 61 44 59 0;
#X connect 61 45 46 0;
#X connect 61 46 47 0;
#X connect 61 47 48 0;
#X connect 61 48 49 0;
#X connect 61 49 50 0;
#X connect 61 50 51 0;
#X connect 61 51 52 0;
#X connect 61 52 53 0;
#X connect 61 53 60 0;
#X connect 62 0 63 0;
#X connect 64 0 62 0;
#X connect 64 0 65 0;
#X connect 65 0 66 0;
#X connect 67 0 69 0;
#X connect 68 0 69 1;
#X connect 69 0 64 0;
#X restore 100 76 pd netrecieve 1;
#X obj 103 104 tgl 40 0 empty empty BJnet 40 7 0 10 -4034 -1 -1 0 1
;
#X obj 1 33 loadbang;
#X obj -9 69 import mrpeach;
#X obj -31 49 bng 15 250 50 0 empty empty empty 17 7 0 10 -262144 -1
-1;
#X obj 102 147 tgl 40 0 empty empty AudioSend 40 7 0 10 -260097 -1
-1 0 1;
#X msg 693 619 disconnect;
#X msg 698 593 connect localhost 8002;
#X obj 396 265 looper2edit;
#X obj 328 403;
#X obj 278 492 udpreceive~ 8001 9 128;
#X obj 724 659 udpsend~ 2 128;
#N canvas 119 111 1366 730 hidden 0;
#N canvas 0 0 1680 1008 effects 0;
#X obj 398 565 outlet~;
#X obj 296 271 *~;
#X obj 312 248 unpack 1 2 3;
#X msg 410 92 1 0 0;
#X obj 334 271 *~;
#X obj 398 174 r effects;
#X obj 409 69 loadbang;
#X obj 417 280 *~;
#X obj 165 109 sel 0 1;
#X floatatom 215 110 5 0 0 0 - - -;
#X msg 165 137 1 0 0;
#X msg 184 157 0 1 0;
#X obj 312 113 sel 0 1;
#X floatatom 362 114 5 0 0 0 - - -;
#X msg 312 137 1 0 0;
#X msg 331 160 0 0 1;
#X obj 296 206 r~ looperfeed;
#N canvas 0 0 647 474 chorus 0;
#X obj 83 91 inlet~;
#X obj 73 164 *;
#X restore 726 365 pd chorus;
#X floatatom 468 247 5 0 0 0 - - -;
#X obj 401 244 mtof;
#X floatatom 430 244 5 0 0 0 - - -;
#X obj 401 199 f;
#X obj 468 275 sig~;
#N canvas 266 389 782 525 axial 0;
#X obj 81 66 inlet;
#X obj 191 267 table axisforward;
#X obj 340 261 table axisbackward;
#X floatatom 161 110 5 0 0 0 - - -;
#X floatatom 165 329 5 0 0 0 - - -;
#X obj 156 307 f;
#X obj 151 404 outlet;
#X obj 159 185 tabread axisbackward;
#X floatatom 207 227 5 0 0 0 - - -;
#X obj 154 224 * 127;
#X obj 162 247 + 100;
#X obj 157 357 clip 0 127;
#X floatatom 172 385 5 0 0 0 - - -;
#X connect 0 0 3 0;
#X connect 0 0 7 0;
#X connect 5 0 4 0;
#X connect 5 0 11 0;
#X connect 7 0 8 0;
#X connect 7 0 9 0;
#X connect 9 0 10 0;
#X connect 10 0 5 0;
#X connect 11 0 6 0;
#X connect 11 0 12 0;
#X restore 750 254 pd axial calibrator;
#X obj 165 65 r jrb1-0;
#X obj 312 69 r jrb4-0;
#X floatatom 528 178 5 0 0 0 - - -;
#X floatatom 754 298 5 0 0 0 - - -;
#X floatatom 429 223 5 0 0 0 - - -;
#N canvas 460 140 236 277 bk 0;
#X obj 99 39 tgl 15 0 empty empty empty 17 7 0 10 -262144 -1 -1 0 3
;
#X obj 88 113 tgl 15 0 empty empty empty 17 7 0 10 -262144 -1 -1 0
0.596351;
#X obj 62 44 * 3;
#X floatatom 27 51 5 0 0 0 - - -;
#X obj 59 9 inlet;
#X obj 98 244 outlet;
#X msg 98 219 1;
#X obj 44 84 threshold 3 0 2 0;
#X msg 127 219 0;
#X floatatom 45 169 5 0 0 0 - - -;
#X obj 96 141 * 2;
#X obj 98 193 sel 1 0;
#X obj 103 168 int;
#X connect 1 0 10 0;
#X connect 2 0 0 0;
#X connect 2 0 3 0;
#X connect 2 0 7 0;
#X connect 4 0 2 0;
#X connect 6 0 5 0;
#X connect 7 0 1 0;
#X connect 7 1 1 0;
#X connect 8 0 5 0;
#X connect 10 0 12 0;
#X connect 11 0 6 0;
#X connect 11 1 8 0;
#X connect 12 0 11 0;
#X connect 12 0 9 0;
#X restore 666 98 pd bk better;
#N canvas 460 140 236 182 bk 0;
#X obj 99 39 tgl 15 0 empty empty empty 17 7 0 10 -262144 -1 -1 0 3
;
#X obj 88 113 tgl 15 0 empty empty empty 17 7 0 10 -262144 -1 -1 0
0.596351;
#X obj 62 44 * 3;
#X floatatom 27 51 5 0 0 0 - - -;
#X obj 59 9 inlet;
#X obj 98 244 outlet;
#X msg 98 219 1;
#X obj 44 84 threshold 3 0 2 0;
#X msg 127 219 0;
#X floatatom 45 169 5 0 0 0 - - -;
#X obj 96 141 * 2;
#X obj 98 193 sel 1 0;
#X obj 103 168 int;
#X connect 1 0 10 0;
#X connect 2 0 0 0;
#X connect 2 0 3 0;
#X connect 2 0 7 0;
#X connect 4 0 2 0;
#X connect 6 0 5 0;
#X connect 7 0 1 0;
#X connect 7 1 1 0;
#X connect 8 0 5 0;
#X connect 10 0 12 0;
#X connect 11 0 6 0;
#X connect 11 1 8 0;
#X connect 12 0 11 0;
#X connect 12 0 9 0;
#X restore 596 55 pd bk better;
#X floatatom 490 154 5 0 0 0 - - -;
#X obj 468 225 / 5;
#X obj 435 154 r yaxisr;
#X obj 475 177 r xaxisr;
#X obj 547 325 mono-pitchshifter /key;
#X obj 157 449 st-flanger /key;
#X obj 165 339 mono-highpass /key;
#X obj 456 474 *~;
#X floatatom 1004 393 5 0 0 0 - - -;
#X obj 937 390 mtof;
#X floatatom 966 390 5 0 0 0 - - -;
#X obj 937 345 f;
#X obj 1017 425 sig~;
#X floatatom 1064 324 5 0 0 0 - - -;
#X floatatom 942 364 5 0 0 0 - - -;
#X floatatom 1026 300 5 0 0 0 - - -;
#X obj 882 478 bp~;
#X obj 934 542 bp~;
#X obj 886 446 bp~;
#X obj 914 455 sig~;
#X obj 785 654 *~ 3;
#X obj 1004 371 / 5;
#X obj 936 515 hip~ 10000;
#X obj 937 568 bp~;
#X obj 971 300 r yaxisr;
#X obj 1011 323 r xaxisr;
#X connect 1 0 0 0;
#X connect 2 0 1 1;
#X connect 2 1 4 1;
#X connect 2 2 7 1;
#X connect 2 2 38 1;
#X connect 3 0 2 0;
#X connect 4 0 0 0;
#X connect 5 0 2 0;
#X connect 6 0 3 0;
#X connect 7 0 35 0;
#X connect 7 0 37 0;
#X connect 7 0 49 0;
#X connect 8 0 10 0;
#X connect 8 1 11 0;
#X connect 12 0 14 0;
#X connect 12 1 15 0;
#X connect 14 0 2 0;
#X connect 15 0 2 0;
#X connect 16 0 1 0;
#X connect 16 0 4 0;
#X connect 16 0 7 0;
#X connect 18 0 22 0;
#X connect 19 0 20 0;
#X connect 21 0 28 0;
#X connect 21 0 19 0;
#X connect 23 0 27 0;
#X connect 24 0 8 0;
#X connect 24 0 9 0;
#X connect 25 0 12 0;
#X connect 25 0 13 0;
#X connect 32 0 18 0;
#X connect 33 0 23 0;
#X connect 33 0 31 0;
#X connect 33 0 32 0;
#X connect 34 0 26 0;
#X connect 34 0 21 0;
#X connect 35 0 37 0;
#X connect 36 0 38 0;
#X connect 37 0 36 0;
#X connect 38 0 0 0;
#X connect 39 0 43 0;
#X connect 39 0 47 2;
#X connect 39 0 48 2;
#X connect 39 0 49 2;
#X connect 39 0 54 2;
#X connect 40 0 41 0;
#X connect 40 0 49 1;
#X connect 40 0 47 1;
#X connect 40 0 48 1;
#X connect 40 0 53 1;
#X connect 40 0 54 1;
#X connect 42 0 45 0;
#X connect 42 0 40 0;
#X connect 47 0 51 0;
#X connect 48 0 54 0;
#X connect 49 0 47 0;
#X connect 49 0 51 0;
#X connect 51 0 0 0;
#X connect 52 0 39 0;
#X connect 53 0 48 0;
#X connect 54 0 51 0;
#X connect 54 0 0 0;
#X connect 55 0 46 0;
#X connect 55 0 52 0;
#X connect 56 0 44 0;
#X connect 56 0 42 0;
#X restore 471 217 pd effects;
#X obj 492 372 *~ 0.5;
#X obj 541 335 compressor~;
#X obj 397 450 s~ vu;
#X obj 225 150 knob 32 32 0 1 0 0 empty empty empty 0 -8 0 8 -262144
-1 -1 0 1;
#X floatatom 243 185 5 0 0 0 - - -;
#X obj 113 109 vu 15 120 empty empty -1 -8 0 10 -66577 -1 1 0;
#X obj 489 145 - 100;
#X obj 462 88 r~ vu;
#X obj 539 219 r~ haptic;
#X obj 478 315 +~;
#X msg 560 350 1;
#X obj 519 299 *~ 0.6;
#X obj 612 339 g-mtap;
#N canvas 55 157 716 563 eq 0;
#X obj 220 40 cnv 15 150 300 empty empty empty 20 12 0 14 -24198 -66577
0;
#N canvas 0 0 454 304 using 0;
#X obj 67 239 outlet~;
#X obj 65 134 biquad~;
#X obj 66 154 biquad~;
#X obj 66 174 biquad~;
#X obj 35 110 lowpass 370 310;
#X obj 194 134 biquad~;
#X obj 193 154 biquad~;
#X obj 194 174 biquad~;
#X obj 163 111 bandpass 1175 490;
#X obj 305 111 highpass 2350 130;
#X obj 334 134 biquad~;
#X obj 334 154 biquad~;
#X obj 163 25 loadbang;
#X obj 193 239 outlet~;
#X obj 335 239 outlet~;
#X obj 66 25 inlet~ signal;
#X obj 235 54 switch~;
#X obj 235 25 inlet switch;
#X connect 1 0 2 0;
#X connect 2 0 3 0;
#X connect 3 0 0 0;
#X connect 4 0 1 0;
#X connect 4 0 2 0;
#X connect 4 0 3 0;
#X connect 5 0 6 0;
#X connect 6 0 7 0;
#X connect 7 0 13 0;
#X connect 8 0 5 0;
#X connect 8 0 6 0;
#X connect 8 0 7 0;
#X connect 9 0 10 0;
#X connect 9 0 11 0;
#X connect 10 0 11 0;
#X connect 11 0 14 0;
#X connect 12 0 4 0;
#X connect 12 0 8 0;
#X connect 12 0 9 0;
#X connect 15 0 1 0;
#X connect 15 0 5 0;
#X connect 15 0 10 0;
#X connect 17 0 16 0;
#X restore 451 175 pd using GGEE filter objects;
#X obj 395 60 tgl 15 1 empty empty empty 0 -6 0 8 -258699 -1 -1 1 1
;
#X obj 323 375 hsl 128 15 0 1 0 1 empty empty dry/wet -2 -6 0 8 -241291
-1 -1 12700 1;
#X obj 253 60 vsl 15 128 0 1 0 1 empty empty BASS 0 -8 0 8 -44926 -1
-1 400 1;
#X obj 308 53 vsl 15 128 0 1 0 1 empty empty MIDS 0 -8 0 8 -44926 -1
-1 200 1;
#X obj 345 54 vsl 15 128 0 1 0 1 empty empty HIGHS 0 -8 0 8 -44926
-1 -1 400 1;
#N canvas 401 243 540 481 output_mixer 0;
#X obj 39 11 inlet dry/wet;
#X obj 22 -19 inlet~ dry;
#X obj 248 -19 inlet~ bass;
#X obj 338 -19 inlet~ mids;
#X obj 424 -19 inlet~ highs;
#X obj 87 35 inlet bass;
#X obj 127 60 inlet mids;
#X obj 157 86 inlet highs;
#X obj 22 327 outlet~;
#X obj 111 235 *~;
#X obj 141 235 *~;
#X obj 71 235 *~;
#X obj 39 35 * -1;
#X obj 39 57 + 1;
#X obj 23 287 *~;
#X obj 70 288 *~ 1;
#X connect 0 0 12 0;
#X connect 1 0 14 0;
#X connect 2 0 11 0;
#X connect 3 0 9 0;
#X connect 4 0 10 0;
#X connect 5 0 11 1;
#X connect 6 0 9 1;
#X connect 7 0 10 1;
#X connect 9 0 15 0;
#X connect 10 0 15 0;
#X connect 11 0 15 0;
#X connect 12 0 13 0;
#X connect 13 0 14 1;
#X connect 14 0 8 0;
#X connect 15 0 8 0;
#X restore 380 283 pd output_mixer;
#X obj 516 388 cnv 15 255 20 empty empty empty 20 12 0 14 -24198 -66577
0;
#X obj 379 87 *~;
#X obj 378 39 inlet~;
#X obj 380 333 outlet~;
#X obj 253 375 print;
#X obj 109 182 knob 32 32 0 1 0 0 empty empty empty 0 -8 0 8 -4160
-1 -1 98 1;
#X obj 110 141 knob 32 32 0 1 0 0 empty empty empty 0 -8 0 8 -260097
-1 -1 49 1;
#X obj 112 104 knob 32 32 0 1 0 0 empty empty empty 0 -8 0 8 -4034
-1 -1 98 1;
#X text 512 31 nodal names;
#X obj 514 57 r \$0-n22x;
#X obj 450 60 r \$0-n21x;
#X obj 570 62 r \$0-n23x;
#X obj 459 106 / 127;
#X obj 509 102 / 127;
#X obj 573 99 / 127;
#X floatatom 518 132 5 0 0 0 - - -;
#X floatatom 472 136 5 0 0 0 - - -;
#X floatatom 572 133 5 0 0 0 - - -;
#X floatatom 297 214 5 0 0 0 - - -;
#X floatatom 247 236 5 0 0 0 - - -;
#X floatatom 338 212 5 0 0 0 - - -;
#X floatatom 508 291 5 0 5 0 - - -;
#X obj 390 306 compressor~ 3;
#X msg 495 329 3;
#X obj 544 305 loadbang;
#X obj 656 157 inlet;
#X obj 646 116 tgl 15 1 empty empty ON 0 -6 0 8 -258699 -1 -1 1 1;
#X connect 1 0 7 5;
#X connect 1 1 7 6;
#X connect 1 2 7 7;
#X connect 2 0 9 1;
#X connect 3 0 7 1;
#X connect 4 0 12 0;
#X connect 4 0 13 0;
#X connect 4 0 27 0;
#X connect 5 0 14 0;
#X connect 5 0 26 0;
#X connect 6 0 15 0;
#X connect 6 0 28 0;
#X connect 7 0 30 0;
#X connect 9 0 7 0;
#X connect 9 0 1 0;
#X connect 10 0 9 0;
#X connect 13 0 7 2;
#X connect 14 0 7 3;
#X connect 15 0 7 4;
#X connect 17 0 21 0;
#X connect 18 0 20 0;
#X connect 19 0 22 0;
#X connect 20 0 4 0;
#X connect 20 0 24 0;
#X connect 21 0 5 0;
#X connect 21 0 23 0;
#X connect 22 0 6 0;
#X connect 22 0 25 0;
#X connect 30 0 11 0;
#X connect 31 0 30 1;
#X connect 32 0 31 0;
#X connect 33 0 1 1;
#X connect 34 0 1 1;
#X coords 0 -1 1 1 50 120 1 100 100;
#X restore 168 110 pd eq;
#N canvas 0 0 450 300 loadmeter 0;
#X floatatom 102 102 0 0 0 0 - - -;
#X obj 102 14 cputime;
#X obj 102 -126 loadbang;
#X obj 102 -42 metro 1000;
#X msg 102 -98 1;
#X floatatom 102 -70 0 0 0 0 - - -;
#X obj 102 -14 t b b;
#X obj 102 74 * 0.1;
#X obj 102 43 int;
#X text 147 -70 <-- on/off;
#X connect 1 0 8 0;
#X connect 2 0 4 0;
#X connect 3 0 6 0;
#X connect 4 0 5 0;
#X connect 5 0 3 0;
#X connect 6 0 1 0;
#X connect 6 1 1 1;
#X connect 7 0 0 0;
#X connect 8 0 7 0;
#X coords 0 -1 1 1 40 20 2 100 100;
#X restore 222 120 pd loadmeter;
#X text 223 103 CPU;
#X msg 437 381 print;
#X obj 484 451 *~;
#X obj 515 451 *~;
#X obj 421 473 env~;
#X floatatom 421 491 4 0 0 0 - - -;
#X obj 532 430 z~ 64;
#X obj 484 431 z~ 64;
#X text 571 432 just a small delay of 64 samples;
#X obj 500 516 dac~;
#X obj 833 411 env~;
#X floatatom 476 195 5 0 0 0 - - -;
#X obj 463 115 snapshot~;
#X obj 601 76 metro 80;
#X obj 605 45 tgl 15 0 empty empty empty 17 7 0 10 -262144 -1 -1 0
1;
#X floatatom 561 139 5 0 0 0 - - -;
#X text 657 326 send frequencies to differnt band passes with different
compression rates;
#X obj 544 245 bp~ 80 1;
#X obj 523 401 limiter~ 5 1;
#X obj 497 246 *~;
#N canvas 17 103 1366 726 haptic1 0;
#X msg 130 42 3187.5;
#X msg 73 41 3375;
#X msg 25 42 3562.5;
#X floatatom 171 221 5 0 0 0 - - -;
#X obj 170 263 sig~;
#X floatatom 96 221 5 0 0 0 - - -;
#X obj 95 263 sig~;
#X obj 95 306 +~;
#X obj 95 283 osc~ 2000;
#X obj 171 284 osc~ 2000;
#X obj 95 180 * 15.74;
#X obj 170 180 * 15.74;
#X obj 170 200 clip 0 2000;
#X obj 95 200 clip 0 2000;
#X obj 170 242 + 2000;
#X obj 95 242 + 2000;
#X floatatom 202 262 5 0 0 0 - - -;
#X msg 178 41 3000;
#X obj 178 67 s n;
#X obj 318 101 r n;
#X obj 317 125 / 127;
#X obj 165 305 r haptic-vol;
#N canvas 601 92 707 540 alarm 0;
#N canvas 723 216 450 300 multi-tone-alarm 0;
#N canvas 0 0 450 300 cosc 0;
#X obj 144 89 inlet pitch;
#X obj 220 90 inlet spectrum;
#X obj 145 122 osc~;
#X obj 221 123 * 0.25;
#X obj 144 159 +~;
#X obj 145 182 cos~;
#X obj 146 206 outlet~;
#X connect 0 0 2 0;
#X connect 1 0 3 0;
#X connect 2 0 4 0;
#X connect 3 0 4 1;
#X connect 4 0 5 0;
#X connect 5 0 6 0;
#X restore 216 76 pd cosc;
#N canvas 0 0 450 300 cosc 0;
#X obj 144 89 inlet pitch;
#X obj 220 90 inlet spectrum;
#X obj 145 122 osc~;
#X obj 221 123 * 0.25;
#X obj 144 159 +~;
#X obj 145 182 cos~;
#X obj 146 206 outlet~;
#X connect 0 0 2 0;
#X connect 1 0 3 0;
#X connect 2 0 4 0;
#X connect 3 0 4 1;
#X connect 4 0 5 0;
#X connect 5 0 6 0;
#X restore 229 100 pd cosc;
#N canvas 0 0 450 300 cosc 0;
#X obj 144 89 inlet pitch;
#X obj 220 90 inlet spectrum;
#X obj 145 122 osc~;
#X obj 221 123 * 0.25;
#X obj 144 159 +~;
#X obj 145 182 cos~;
#X obj 146 206 outlet~;
#X connect 0 0 2 0;
#X connect 1 0 3 0;
#X connect 2 0 4 0;
#X connect 3 0 4 1;
#X connect 4 0 5 0;
#X connect 5 0 6 0;
#X restore 249 124 pd cosc;
#N canvas 0 0 450 300 cosc 0;
#X obj 144 89 inlet pitch;
#X obj 220 90 inlet spectrum;
#X obj 145 122 osc~;
#X obj 221 123 * 0.25;
#X obj 144 159 +~;
#X obj 145 182 cos~;
#X obj 146 206 outlet~;
#X connect 0 0 2 0;
#X connect 1 0 3 0;
#X connect 2 0 4 0;
#X connect 3 0 4 1;
#X connect 4 0 5 0;
#X connect 5 0 6 0;
#X restore 265 144 pd cosc;
#X obj 77 217 *~;
#X obj 125 216 *~;
#X obj 165 215 *~;
#X obj 210 215 *~;
#X obj 144 247 *~ 0.25;
#X obj 147 277 hip~ 50;
#X obj 148 300 *~ 0.2;
#X obj 146 333 dac~;
#N canvas 0 0 630 343 4phase-osc 0;
#X obj 175 269 cos~;
#X obj 296 76 wrap~;
#X obj 294 53 inlet~ run;
#X obj 296 99 *~ 4;
#X obj 169 135 clip~ 0 1;
#X obj 173 217 *~ 0.5;
#X obj 174 241 -~ 0.25;
#X obj 174 296 outlet~;
#X obj 244 269 cos~;
#X obj 242 217 *~ 0.5;
#X obj 243 241 -~ 0.25;
#X obj 243 296 outlet~;
#X obj 238 135 clip~ 1 2;
#X obj 242 190 -~ 1;
#X obj 311 268 cos~;
#X obj 309 216 *~ 0.5;
#X obj 310 240 -~ 0.25;
#X obj 310 295 outlet~;
#X obj 375 266 cos~;
#X obj 373 214 *~ 0.5;
#X obj 374 238 -~ 0.25;
#X obj 374 293 outlet~;
#X obj 305 134 clip~ 2 3;
#X obj 369 132 clip~ 3 4;
#X obj 309 189 -~ 2;
#X obj 373 187 -~ 3;
#X connect 0 0 7 0;
#X connect 1 0 3 0;
#X connect 2 0 1 0;
#X connect 3 0 4 0;
#X connect 3 0 12 0;
#X connect 3 0 22 0;
#X connect 3 0 23 0;
#X connect 4 0 5 0;
#X connect 5 0 6 0;
#X connect 6 0 0 0;
#X connect 8 0 11 0;
#X connect 9 0 10 0;
#X connect 10 0 8 0;
#X connect 12 0 13 0;
#X connect 13 0 9 0;
#X connect 14 0 17 0;
#X connect 15 0 16 0;
#X connect 16 0 14 0;
#X connect 18 0 21 0;
#X connect 19 0 20 0;
#X connect 20 0 18 0;
#X connect 22 0 24 0;
#X connect 23 0 25 0;
#X connect 24 0 15 0;
#X connect 25 0 19 0;
#X restore 125 94 pd 4phase-osc;
#N canvas 0 0 550 398 timebase 0;
#X obj 199 46 inlet risetime;
#X obj 202 71 trigger f f b;
#X obj 242 101 del;
#X msg 200 133 1 \$1;
#X msg 247 135 0 0;
#X msg 302 131 0;
#X obj 203 190 line~;
#X obj 206 232 *~;
#X obj 247 188 inlet scale;
#X obj 207 265 outlet~ linecontrol;
#X connect 0 0 1 0;
#X connect 1 0 3 0;
#X connect 1 1 2 0;
#X connect 1 2 5 0;
#X connect 2 0 4 0;
#X connect 3 0 6 0;
#X connect 4 0 6 0;
#X connect 5 0 6 0;
#X connect 6 0 7 0;
#X connect 7 0 9 0;
#X connect 8 0 7 1;
#X restore 125 73 pd timebase;
#X obj 161 9 inlet;
#X obj 162 35 unpack f f f f f f f;
#X obj 218 303 r haptic-knob;
#X connect 0 0 4 0;
#X connect 1 0 5 0;
#X connect 2 0 6 0;
#X connect 3 0 7 0;
#X connect 4 0 8 0;
#X connect 5 0 8 0;
#X connect 6 0 8 0;
#X connect 7 0 8 0;
#X connect 8 0 9 0;
#X connect 9 0 10 0;
#X connect 10 0 11 0;
#X connect 10 0 11 1;
#X connect 12 0 4 1;
#X connect 12 1 5 1;
#X connect 12 2 6 1;
#X connect 12 3 7 1;
#X connect 13 0 12 0;
#X connect 14 0 15 0;
#X connect 15 0 13 0;
#X connect 15 1 13 1;
#X connect 15 2 0 0;
#X connect 15 3 1 0;
#X connect 15 4 2 0;
#X connect 15 5 3 0;
#X connect 15 6 0 1;
#X connect 15 6 1 1;
#X connect 15 6 2 1;
#X connect 15 6 3 1;
#X connect 16 0 10 1;
#X restore 86 341 pd multi-tone-alarm;
#X obj 60 194 t;
#X obj 82 30 hsl 128 15 0 1000 0 0 empty empty time -2 -8 0 10 -262144
-1 -1 0 1;
#X obj 114 62 hsl 128 15 0 10 0 0 empty empty speed -2 -8 0 10 -262144
-1 -1 0 1;
#X obj 143 87 hsl 128 15 0 3000 0 0 empty empty freq1 -2 -8 0 10 -262144
-1 -1 0 1;
#X obj 189 110 hsl 128 15 0 3000 0 0 empty empty freq2 -2 -8 0 10 -262144
-1 -1 0 1;
#X obj 242 141 hsl 128 15 0 3000 0 0 empty empty freq3 -2 -8 0 10 -262144
-1 -1 0 1;
#X obj 276 171 hsl 128 15 0 3000 0 0 empty empty freq4 -2 -8 0 10 -262144
-1 -1 0 1;
#X obj 327 196 hsl 128 15 0 1 0 0 empty empty tone -2 -8 0 10 -262144
-1 -1 0 1;
#X obj 104 130 int;
#X obj 87 241 pack f f f f f f f;
#X msg 85 271 set \$1 \$2 \$3 \$4 \$5 \$6 \$7;
#X msg 83 309 0 0 0 0 165.354 0 0;
#X msg 537 80 380 2 349 0 0 0 1;
#X msg 546 107 238 1 317 0 0 476 0;
#X msg 545 175 283.465 3 472.441 826.772 23.622 1677.17 1;
#X obj 296 269 r alarm;
#X msg 22 378 0 0 0 0 165.354 0 0;
#X connect 1 0 10 0;
#X connect 2 0 10 0;
#X connect 3 0 9 0;
#X connect 3 0 1 0;
#X connect 4 0 1 0;
#X connect 4 0 10 2;
#X connect 5 0 1 0;
#X connect 5 0 10 3;
#X connect 6 0 1 0;
#X connect 6 0 10 4;
#X connect 7 0 1 0;
#X connect 7 0 10 5;
#X connect 8 0 1 0;
#X connect 8 0 10 6;
#X connect 9 0 10 1;
#X connect 10 0 11 0;
#X connect 11 0 12 0;
#X connect 11 0 17 0;
#X connect 12 0 0 0;
#X connect 13 0 0 0;
#X connect 14 0 0 0;
#X connect 15 0 0 0;
#X connect 16 0 0 0;
#X restore 520 207 pd alarm gen;
#X obj 95 160 r xaxis;
#X obj 169 159 r yaxis;
#X floatatom 377 217 5 0 0 0 - - -;
#X obj 376 259 sig~;
#X floatatom 302 217 5 0 0 0 - - -;
#X obj 301 259 sig~;
#X obj 301 302 +~;
#X obj 301 279 osc~ 2000;
#X obj 377 280 osc~ 2000;
#X obj 301 176 * 15.74;
#X obj 376 176 * 15.74;
#X obj 376 196 clip 0 2000;
#X obj 301 196 clip 0 2000;
#X obj 376 238 + 2000;
#X obj 301 238 + 2000;
#X floatatom 408 258 5 0 0 0 - - -;
#X obj 524 97 r n;
#X obj 523 121 / 127;
#X obj 371 301 r haptic-vol;
#X obj 301 156 r xaxisr;
#X obj 375 155 r yaxisr;
#X obj 301 323 *~ 0;
#X obj 95 327 *~ 0;
#X obj 96 368 *~;
#X obj 107 118 knob 32 32 0 0.2 0 0 empty empty empty 0 -8 0 8 -262144
-1 -1 620 1;
#X obj 95 438 s~ haptic;
#X obj 200 123 s haptic-vol;
#X obj 149 114 s haptic-knob;
#X obj 93 405 *~;
#X obj 130 373 r haptic-knob;
#X obj 44 83 loadbang;
#X obj 47 110;
#X floatatom 147 139 5 0 0 0 - - -;
#X msg 29 136 0.04;
#X connect 0 0 18 0;
#X connect 1 0 18 0;
#X connect 2 0 18 0;
#X connect 3 0 14 0;
#X connect 4 0 9 0;
#X connect 5 0 15 0;
#X connect 6 0 8 0;
#X connect 7 0 45 0;
#X connect 8 0 7 0;
#X connect 9 0 7 1;
#X connect 10 0 13 0;
#X connect 11 0 12 0;
#X connect 12 0 3 0;
#X connect 13 0 5 0;
#X connect 14 0 4 0;
#X connect 14 0 16 0;
#X connect 15 0 6 0;
#X connect 17 0 18 0;
#X connect 19 0 12 2;
#X connect 19 0 14 1;
#X connect 19 0 9 1;
#X connect 19 0 8 1;
#X connect 19 0 15 1;
#X connect 19 0 13 2;
#X connect 19 0 20 0;
#X connect 20 0 11 1;
#X connect 20 0 10 1;
#X connect 21 0 45 1;
#X connect 23 0 10 0;
#X connect 24 0 11 0;
#X connect 25 0 36 0;
#X connect 26 0 31 0;
#X connect 27 0 37 0;
#X connect 28 0 30 0;
#X connect 29 0 44 0;
#X connect 30 0 29 0;
#X connect 31 0 29 1;
#X connect 32 0 35 0;
#X connect 33 0 34 0;
#X connect 34 0 25 0;
#X connect 35 0 27 0;
#X connect 36 0 26 0;
#X connect 36 0 38 0;
#X connect 37 0 28 0;
#X connect 39 0 34 2;
#X connect 39 0 36 1;
#X connect 39 0 31 1;
#X connect 39 0 30 1;
#X connect 39 0 37 1;
#X connect 39 0 35 2;
#X connect 39 0 40 0;
#X connect 40 0 33 1;
#X connect 40 0 32 1;
#X connect 41 0 44 1;
#X connect 42 0 32 0;
#X connect 43 0 33 0;
#X connect 44 0 46 1;
#X connect 45 0 46 0;
#X connect 46 0 51 0;
#X connect 47 0 50 0;
#X connect 47 0 55 0;
#X connect 51 0 48 0;
#X connect 52 0 51 1;
#X connect 53 0 56 0;
#X connect 56 0 47 0;
#X coords 0 -1 1 1 85 60 1 100 100;
#X restore 271 109 pd haptic1;
#N canvas 665 476 602 413 file 0;
#X obj 325 51 date;
#X obj 286 91 f 0;
#X obj 323 89 + 1;
#X obj 194 14 inlet;
#X obj 194 48 t b b b b b;
#X obj 91 156 inlet~;
#X obj 137 106 del \$1;
#X msg 137 155 stop;
#X msg 185 154 start;
#X obj 181 215 writesf~ 1;
#X obj 156 243 outlet done;
#X obj 269 152 makefilename \$2/soundfile%d.wav;
#X msg 270 177 stop \, open \$1;
#X obj 336 193 outlet number written;
#X obj 289 51 time;
#X connect 1 0 2 0;
#X connect 1 0 11 0;
#X connect 1 0 13 0;
#X connect 2 0 1 1;
#X connect 3 0 4 0;
#X connect 4 1 6 0;
#X connect 4 3 8 0;
#X connect 4 4 1 0;
#X connect 5 0 9 0;
#X connect 6 0 7 0;
#X connect 6 0 10 0;
#X connect 7 0 9 0;
#X connect 8 0 9 0;
#X connect 11 0 12 0;
#X connect 12 0 9 0;
#X restore 798 531 pd file recorder;
#X obj 889 503 r filerec;
#X obj 796 561 bng 15 250 50 0 empty empty empty 17 7 0 10 -262144
-1 -1;
#X floatatom 887 559 5 0 0 0 - - -;
#X obj 461 172 rmstodb;
#X obj 100 233 recorder;
#X connect 0 0 10 0;
#X connect 0 0 35 0;
#X connect 1 0 23 0;
#X connect 1 0 22 0;
#X connect 1 0 34 0;
#X connect 2 0 14 0;
#X connect 4 0 1 1;
#X connect 4 0 5 0;
#X connect 8 0 28 0;
#X connect 9 0 35 1;
#X connect 10 0 14 0;
#X connect 11 0 2 1;
#X connect 12 0 10 1;
#X connect 14 0 1 0;
#X connect 17 0 34 0;
#X connect 18 0 20 0;
#X connect 18 0 25 0;
#X connect 18 0 42 0;
#X connect 19 0 25 1;
#X connect 20 0 21 0;
#X connect 22 0 19 1;
#X connect 23 0 18 0;
#X connect 28 0 7 0;
#X connect 28 0 31 0;
#X connect 28 0 41 0;
#X connect 29 0 28 0;
#X connect 30 0 29 0;
#X connect 34 0 19 0;
#X connect 34 0 18 1;
#X connect 34 0 3 0;
#X connect 35 0 10 0;
#X connect 37 0 39 0;
#X connect 37 1 40 0;
#X connect 38 0 37 1;
#X connect 41 0 6 0;
#X connect 41 0 27 0;
#X coords 0 -1 1 1 325 200 2 100 100;
#X restore -120 -10029 pd hidden stuff;
#X connect 0 0 1 0;
#X connect 2 0 3 0;
#X connect 2 0 7 0;
#X connect 4 0 3 0;
#X connect 6 0 11 0;
#X connect 7 0 11 0;
#X connect 10 0 8 0;
#X connect 10 1 8 1;
#X connect 10 2 8 2;
#X connect 10 4 8 3;
#X connect 10 5 8 4;
#X connect 10 6 8 5;
#X connect 10 7 8 6;
#X connect 10 8 8 7;
#X connect 10 9 11 0;
#X connect 11 0 5 0;
#X coords 0 -1 1 1 100 100 1 100 100;
