#N canvas 1672 -8 1366 726 10;
#X declare -lib mrpeach;
#N canvas 17 494 1329 666 netrecieve 0;
#X obj -312 109 netreceive 13001;
#X floatatom -178 109 5 0 0 0 - - -;
#X floatatom -127 49 5 0 0 0 - - -;
#X obj -13 447 s yaxis;
#X obj -113 447 s xaxis;
#X obj -61 448 s zaxis;
#X obj -111 470 s xaxisr;
#X obj -57 470 s yaxisr;
#X obj -1 470 s zaxisr;
#X obj -345 307 s breath;
#X obj 157 358 s jlu4;
#X obj 114 359 s jlu3;
#X obj 69 359 s jlu2;
#X obj 23 358 s jlu1;
#X obj 36 187 s jrb1;
#X obj 89 184 s jrb2;
#X obj 143 186 s jrb3;
#X obj 196 187 s jrb4;
#X obj 33 210 s rjuforward;
#X obj 110 209 s rjuback;
#X obj 170 209 s rjuup;
#X obj 218 209 s rjudown;
#X floatatom -87 48 5 0 0 0 - - -;
#X floatatom -48 49 5 0 0 0 - - -;
#X obj -404 307 s pgmout;
#X obj -285 308 s noteval;
#X obj -222 309 s mynotemsg;
#X obj -149 308 s parakey;
#X obj 239 355 s loop_in_ms;
#X obj 99 255 s frange1;
#X obj 162 254 s frange2;
#X obj 225 253 s frange3;
#X obj 288 252 s frange4;
#X obj 101 280 s frange5;
#X obj 164 279 s frange6;
#X obj 227 278 s frange7;
#X obj 290 277 s frange8;
#X obj -227 164 outlet;
#X obj 425 333 s loopsize;
#X obj 373 303 s packedindex;
#X obj 473 228 s clear;
#X obj 409 228 s filerec;
#X obj 197 421 s looperctrl;
#X obj 367 173 s alarm;
#X obj 293 419 s mute1;
#X obj 353 420 s mute2;
#X obj 393 463 s fb1;
#X obj 431 463 s fb2;
#X obj 470 463 s fb3;
#X obj 508 463 s fb4;
#X obj 548 463 s fb5;
#X obj 586 463 s fb6;
#X obj 625 463 s fb7;
#X obj 663 463 s fb8;
#X obj 406 420 s mute3;
#X obj 466 421 s mute4;
#X obj 522 421 s mute5;
#X obj 582 422 s mute6;
#X obj 635 422 s mute7;
#X obj 695 423 s mute8;
#X obj 504 157 s looprec;
#X obj 117 53 route 1 2 3 4 5 6 7 8 9 10 11 12 13 14 15 16 17 18 19
20 21 22 23 24 25 26 27 28 29 30 31 32 33 34 35 36 37 38 39 40 41 42
43 44 45 46 47 48 49 50 51 52 53 54;
#X obj 709 313 vline~;
#X obj 709 336 s~ vline;
#X msg 707 292 0 \, \$2 \$1;
#X msg 790 353 set \$1 \$2;
#X msg 792 395 1.44e+006 30000;
#X obj 703 213 r loop_in_ms;
#X obj 788 213 r loopsize;
#X obj 726 257 pack f f;
#X connect 0 0 61 0;
#X connect 0 1 1 0;
#X connect 0 1 37 0;
#X connect 61 0 2 0;
#X connect 61 0 24 0;
#X connect 61 1 22 0;
#X connect 61 1 9 0;
#X connect 61 2 23 0;
#X connect 61 2 25 0;
#X connect 61 3 26 0;
#X connect 61 4 27 0;
#X connect 61 5 4 0;
#X connect 61 6 5 0;
#X connect 61 7 3 0;
#X connect 61 8 6 0;
#X connect 61 9 7 0;
#X connect 61 10 8 0;
#X connect 61 11 13 0;
#X connect 61 12 12 0;
#X connect 61 13 11 0;
#X connect 61 14 10 0;
#X connect 61 14 42 0;
#X connect 61 15 14 0;
#X connect 61 16 15 0;
#X connect 61 17 16 0;
#X connect 61 18 17 0;
#X connect 61 19 18 0;
#X connect 61 20 19 0;
#X connect 61 21 20 0;
#X connect 61 22 21 0;
#X connect 61 23 28 0;
#X connect 61 24 29 0;
#X connect 61 25 30 0;
#X connect 61 26 31 0;
#X connect 61 27 32 0;
#X connect 61 28 33 0;
#X connect 61 29 34 0;
#X connect 61 30 35 0;
#X connect 61 31 36 0;
#X connect 61 32 39 0;
#X connect 61 33 38 0;
#X connect 61 34 41 0;
#X connect 61 35 40 0;
#X connect 61 36 43 0;
#X connect 61 37 44 0;
#X connect 61 38 45 0;
#X connect 61 39 54 0;
#X connect 61 40 55 0;
#X connect 61 41 56 0;
#X connect 61 42 57 0;
#X connect 61 43 58 0;
#X connect 61 44 59 0;
#X connect 61 45 46 0;
#X connect 61 46 47 0;
#X connect 61 47 48 0;
#X connect 61 48 49 0;
#X connect 61 49 50 0;
#X connect 61 50 51 0;
#X connect 61 51 52 0;
#X connect 61 52 53 0;
#X connect 61 53 60 0;
#X connect 62 0 63 0;
#X connect 64 0 62 0;
#X connect 64 0 65 0;
#X connect 65 0 66 0;
#X connect 67 0 69 0;
#X connect 68 0 69 1;
#X connect 69 0 64 0;
#X restore 100 76 pd netrecieve 1;
#X obj 103 104 tgl 40 0 empty empty BJnet 40 7 0 10 -4034 -1 -1 0 1
;
#X obj 264 114 centerer;
#X obj 1 33 loadbang;
#X obj -9 69 import mrpeach;
#X obj -31 49 bng 15 250 50 0 empty empty empty 17 7 0 10 -262144 -1
-1;
#X obj 102 147 tgl 40 0 empty empty AudioSend 40 7 0 10 -260097 -1
-1 0 1;
#X obj 889 -10345 r pgmout;
#X obj 924 -10157 tgl 15 0 empty empty empty 17 7 0 10 -262144 -1 -1
0 1;
#X obj 929 -10241 tgl 15 0 empty empty empty 17 7 0 10 -262144 -1 -1
0 1;
#X obj 896 -10242 == 2;
#X obj 892 -10158 == 3;
#X obj 922 -10326 tgl 15 0 empty empty empty 17 7 0 10 -262144 -1 -1
0 1;
#X obj 892 -10325 == 1;
#X obj 890 -9823 == 7;
#X obj 921 -9824 tgl 15 0 empty empty empty 17 7 0 10 -262144 -1 -1
0 1;
#X obj 926 -10076 tgl 15 0 empty empty empty 17 7 0 10 -262144 -1 -1
0 1;
#X obj 894 -10077 == 4;
#X obj 925 -9993 tgl 15 0 empty empty empty 17 7 0 10 -262144 -1 -1
0 1;
#X obj 893 -9994 == 5;
#X obj 922 -9908 tgl 15 0 empty empty empty 17 7 0 10 -262144 -1 -1
0 1;
#X obj 892 -9910 == 6;
#X obj 921 -9740 tgl 15 0 empty empty empty 17 7 0 10 -262144 -1 -1
0 1;
#X obj 889 -9741 == 8;
#X obj 892 -10139 gsynththree;
#N canvas 0 0 646 300 resampler 0;
#N canvas 1962 154 783 507 timestretch 0;
#X floatatom 430 -2055 5 0 0 0 - transpo-set -;
#X floatatom 103 -1987 3 0 0 0 - speed-set -;
#X floatatom -9 -1985 7 0 0 0 - location-set -;
#N canvas 90 42 821 693 fft-analysis 0;
#X obj 51 477 *~;
#X obj 18 477 *~;
#X obj 18 499 -~;
#X obj 167 475 *~;
#X obj 136 475 *~;
#X obj 136 497 +~;
#X obj 109 193 *~;
#X obj 78 193 *~;
#X obj 50 193 *~;
#X obj 19 193 *~;
#X obj 19 218 +~;
#X obj 127 379 *~;
#X obj 20 622 *~;
#X obj 238 430 rfft~;
#X obj 108 161 rfft~;
#X obj 19 564 rifft~;
#X obj 21 646 outlet~;
#X obj 97 379 *~;
#X obj 97 401 +~;
#X obj 124 218 -~;
#X obj 18 431 *~;
#X obj 51 432 *~;
#X obj 127 622 r window-size;
#X obj 426 595 r window-size;
#X obj 426 644 block~;
#X obj 19 349 +~ 1e-015;
#X obj 19 598 *~;
#X obj 52 598 tabreceive~ \$0-hann;
#X obj 127 643 expr 2/(3*$f1);
#X obj 591 563 loadbang;
#X msg 591 589 \; pd dsp 1 \; window-size 2048 \; transpo 0 \; rewind
bang;
#X msg 426 619 set \$1 4;
#X obj 97 425 q8_rsqrt~;
#N canvas 139 105 1006 799 read-windows 0;
#X obj 18 693 *~;
#X obj 340 448 r window-size;
#X obj 156 300 f;
#X obj 102 91 r window-size;
#X obj 102 139 /;
#X obj 195 695 *~;
#X obj 156 255 bang~;
#X obj 17 551 line~;
#X obj 102 164 * 1000;
#X obj 288 224 r speed;
#X obj 178 276 r location;
#X obj 198 302 +;
#X obj 288 272 *;
#X obj 183 470 +;
#X obj 143 446 t f f;
#X msg 17 523 \$1 \, \$2 \$3;
#X obj 17 496 pack 0 0 0;
#X obj 178 371 / 1000;
#X obj 156 394 *;
#X text 188 394 reading location (samples);
#X obj 51 597 / 4;
#X obj 288 245 * 0.01;
#X floatatom 340 498 7 0 0 0 - - -;
#X obj 340 474 *;
#X obj 499 365 r transpo;
#X obj 499 387 * 0.01;
#X obj 501 408 + 69;
#X obj 502 429 mtof;
#X obj 502 451 / 440;
#X obj 375 474 t b f;
#X obj 19 719 outlet~;
#X obj 195 720 outlet~;
#X obj 218 664 tabreceive~ \$0-hann;
#X obj 803 386 r location;
#X msg 803 409 0;
#X obj 803 432 s speed;
#X obj 768 508 r speed;
#X msg 768 532 set \$1;
#X obj 768 557 s speed-set;
#X text 411 498 stretched window size (samples);
#X obj 877 507 r transpo;
#X msg 877 533 set \$1;
#X obj 877 558 s transpo-set;
#X obj 808 94 r location;
#X msg 826 278 set \$1;
#X obj 808 140 t b f;
#X obj 826 257 f;
#X obj 754 171 int;
#X obj 754 203 sel 0;
#X msg 813 174 1;
#X msg 813 197 0;
#X obj 754 228 del 300;
#X obj 826 302 s location-set;
#X obj 17 637 tabread4~ \$0-sample;
#X obj 194 637 tabread4~ \$0-sample;
#X obj 178 347 r \$0-insamprate;
#X obj 528 586 r rewind;
#X msg 528 744 \; location \$1;
#X floatatom 111 187 5 0 0 0 - - -;
#X obj 102 115 t f b;
#X obj 142 139 samplerate~;
#X obj 102 208 / 4;
#X obj 233 306 s see-loc;
#X obj 817 116 r see-loc;
#X obj 193 420 / 2;
#X obj 156 420 -;
#X text 229 417 back up 1/2 window;
#X obj 16 597 -~;
#X text 43 6 Read two windows out of the recorded sample \, one 1/4
ahead of the other. The mid point of the front window is specified
by "location". If "speed" is nonzero \, "location" automatically precesses.
;
#X obj 528 720 * -0.5;
#X text 91 587 "back" window 1/4 cycle behind "front" one;
#X text 137 205 computation period (msec) for overlap of 4;
#X text 164 186 msec in a window;
#X obj 528 666 /;
#X obj 528 691 * 1000;
#X obj 528 642 t f b;
#X obj 568 666 samplerate~;
#X obj 528 619 f;
#X msg 845 711 \; rewind bang \; speed \$1;
#X obj 845 684 r auto;
#X obj 730 685 r no-detune;
#X msg 730 707 \; detune 0;
#X text 326 275 loop to precess the location according;
#X text 325 291 to the "speed" parameter.;
#X text 611 31 if location changes \, update number box;
#X text 610 50 in main window via "location-set" \, but;
#X text 613 69 taking care to limit frequency of updates.;
#X text 756 462 reflect control changes;
#X text 756 479 in main window.;
#X text 754 344 setting location by hand;
#X text 752 362 sets speed to zero.;
#X text 760 653 misc controls;
#X text 496 527 "rewind" control takes us;
#X text 499 545 to a location depending on;
#X text 499 564 stretched window size.;
#X connect 0 0 30 0;
#X connect 1 0 23 0;
#X connect 2 0 11 0;
#X connect 2 0 18 0;
#X connect 3 0 59 0;
#X connect 4 0 8 0;
#X connect 5 0 31 0;
#X connect 6 0 2 0;
#X connect 7 0 67 0;
#X connect 7 0 54 0;
#X connect 8 0 58 0;
#X connect 8 0 61 0;
#X connect 9 0 21 0;
#X connect 10 0 2 1;
#X connect 11 0 2 1;
#X connect 11 0 62 0;
#X connect 12 0 11 1;
#X connect 13 0 16 1;
#X connect 14 0 16 0;
#X connect 14 1 13 0;
#X connect 15 0 7 0;
#X connect 16 0 15 0;
#X connect 17 0 18 1;
#X connect 18 0 65 0;
#X connect 20 0 67 1;
#X connect 21 0 12 0;
#X connect 22 0 20 0;
#X connect 22 0 13 1;
#X connect 22 0 64 0;
#X connect 22 0 77 1;
#X connect 23 0 22 0;
#X connect 24 0 25 0;
#X connect 25 0 26 0;
#X connect 26 0 27 0;
#X connect 27 0 28 0;
#X connect 28 0 29 0;
#X connect 29 0 23 0;
#X connect 29 1 23 1;
#X connect 32 0 5 1;
#X connect 32 0 0 1;
#X connect 33 0 34 0;
#X connect 34 0 35 0;
#X connect 36 0 37 0;
#X connect 37 0 38 0;
#X connect 40 0 41 0;
#X connect 41 0 42 0;
#X connect 43 0 45 0;
#X connect 44 0 52 0;
#X connect 45 0 47 0;
#X connect 45 1 46 1;
#X connect 46 0 44 0;
#X connect 47 0 48 0;
#X connect 48 0 49 0;
#X connect 48 0 51 0;
#X connect 49 0 47 1;
#X connect 50 0 47 1;
#X connect 51 0 50 0;
#X connect 51 0 46 0;
#X connect 53 0 0 0;
#X connect 54 0 5 0;
#X connect 55 0 17 0;
#X connect 56 0 77 0;
#X connect 59 0 4 0;
#X connect 59 1 60 0;
#X connect 60 0 4 1;
#X connect 61 0 16 2;
#X connect 61 0 12 1;
#X connect 63 0 45 0;
#X connect 64 0 65 1;
#X connect 65 0 14 0;
#X connect 67 0 53 0;
#X connect 69 0 57 0;
#X connect 73 0 74 0;
#X connect 74 0 69 0;
#X connect 75 0 73 0;
#X connect 75 1 76 0;
#X connect 76 0 73 1;
#X connect 77 0 75 0;
#X connect 79 0 78 0;
#X connect 80 0 81 0;
#X restore 109 133 pd read-windows;
#X obj 137 543 tabsend~ prev-imag;
#X obj 136 567 tabsend~ prev-real;
#X obj 20 8 tabreceive~ prev-real;
#X obj 73 29 tabreceive~ prev-imag;
#X text 272 5 recall previous output amplitude. Its phase will be added
to the phase difference we measure from two windows in the the recorded
sound.;
#X obj 121 69 *~;
#X obj 89 69 *~;
#X obj 89 91 +~;
#X obj 159 94 q8_rsqrt~;
#X obj 159 71 +~ 1e-020;
#X obj 73 119 *~;
#X obj 19 118 *~;
#X obj 181 290 r lock;
#X obj 29 245 lrshift~ 1;
#X obj 24 269 lrshift~ -1;
#X obj 141 245 lrshift~ 1;
#X obj 133 269 lrshift~ -1;
#X obj 35 300 *~;
#X obj 159 312 *~;
#X obj 19 325 +~;
#X obj 125 331 +~;
#X text 247 66 divide by the magnitude to make a unit-magnitude complex
amplitude (phase only). The 1e-020 is to prevent overflows. q8_rsqrt~
is reciprocal square root.;
#X text 247 165 Take FT of the window in back. Multiply its conjugate
by the normalized previous output. The result has the magnitude of
the input sound and phase (previous output phase) minus (back window
phase).;
#X text 249 370 Normalize again \, this time taking care to salt each
channel with 1e-015 so that we get a unit complex number even if everything
was zero heretofore.;
#X text 288 427 Now take the FT of the forward window and multiply
it by the unit complex number from above. The magnitude will be that
of the forward window and the phase will be the previous output phase
plus the phase difference between the two analysis windows -- except
that if "lock" is on \, they will be modified to agree progressively
better with the inter-channel phase relationships of the input.;
#X text 249 242 If "lock" is on \, encourage neighboring channels to
stay in phase by adding the two neighboring complex amplitudes. The
result will tend toward the channel with the strongest amplitude. If
the phase relationships between channels in the output and those in
the input are in parallel \, then neighboring channels of the quotient
will all have the same phase and this will not change any phases. (lrshift
shifts the signal to the left or right depending on its argument.)
;
#X text 387 560 'set' message to block;
#X text 390 577 allows variable size;
#X text 259 126 Read two windows \, one 1/4 length behind the other
\, of the input sound \, with Hann window function (see inside).;
#X connect 0 0 2 1;
#X connect 1 0 2 0;
#X connect 2 0 35 0;
#X connect 2 0 15 0;
#X connect 3 0 5 1;
#X connect 4 0 5 0;
#X connect 5 0 34 0;
#X connect 5 0 15 1;
#X connect 6 0 19 1;
#X connect 7 0 19 0;
#X connect 8 0 10 1;
#X connect 9 0 10 0;
#X connect 10 0 48 0;
#X connect 10 0 47 0;
#X connect 10 0 53 0;
#X connect 11 0 18 1;
#X connect 12 0 16 0;
#X connect 13 0 1 1;
#X connect 13 0 3 1;
#X connect 13 1 0 1;
#X connect 13 1 4 1;
#X connect 14 0 9 1;
#X connect 14 0 7 1;
#X connect 14 1 6 1;
#X connect 14 1 8 1;
#X connect 15 0 26 0;
#X connect 17 0 18 0;
#X connect 18 0 32 0;
#X connect 19 0 49 0;
#X connect 19 0 50 0;
#X connect 19 0 54 0;
#X connect 20 0 1 0;
#X connect 20 0 4 0;
#X connect 21 0 0 0;
#X connect 21 0 3 0;
#X connect 22 0 28 0;
#X connect 23 0 31 0;
#X connect 25 0 17 1;
#X connect 25 0 17 0;
#X connect 25 0 20 0;
#X connect 26 0 12 0;
#X connect 27 0 26 1;
#X connect 28 0 12 1;
#X connect 29 0 30 0;
#X connect 31 0 24 0;
#X connect 32 0 20 1;
#X connect 32 0 21 1;
#X connect 33 0 14 0;
#X connect 33 1 13 0;
#X connect 36 0 40 1;
#X connect 36 0 40 0;
#X connect 36 0 45 0;
#X connect 37 0 39 1;
#X connect 37 0 39 0;
#X connect 37 0 44 0;
#X connect 39 0 41 1;
#X connect 40 0 41 0;
#X connect 41 0 43 0;
#X connect 42 0 44 1;
#X connect 42 0 45 1;
#X connect 43 0 42 0;
#X connect 44 0 8 0;
#X connect 44 0 7 0;
#X connect 45 0 9 0;
#X connect 45 0 6 0;
#X connect 46 0 51 1;
#X connect 46 0 52 1;
#X connect 47 0 51 0;
#X connect 48 0 51 0;
#X connect 49 0 52 0;
#X connect 50 0 52 0;
#X connect 51 0 53 1;
#X connect 52 0 54 1;
#X connect 53 0 25 0;
#X connect 54 0 11 0;
#X connect 54 0 11 1;
#X connect 54 0 21 0;
#X restore -9 -1890 pd fft-analysis;
#N canvas 260 23 647 768 phase-tables 0;
#N canvas 0 0 450 300 (subpatch) 0;
#X array prev-imag 4096 float 0;
#X coords 0 1000 4096 -1000 400 300 1;
#X restore 169 326 graph;
#N canvas 0 0 450 300 (subpatch) 0;
#X array prev-real 4096 float 0;
#X coords 0 500 4096 -500 400 300 1;
#X restore 170 17 graph;
#X restore 376 -1866 pd phase-tables;
#X obj 430 -2032 s transpo;
#X text 100 -2006 hundredths;
#X text 429 -2076 in cents;
#X text 325 -2011 normal;
#X obj -8 -1853 output~;
#N canvas 0 110 565 454 hann-window 0;
#N canvas 0 0 450 300 (subpatch) 0;
#X array \$0-hann 2048 float 0;
#X coords 0 1 2047 0 300 100 1;
#X restore 82 311 graph;
#X obj 378 165 osc~;
#X obj 378 190 *~ -0.5;
#X obj 378 214 +~ 0.5;
#X obj 331 247 tabwrite~ \$0-hann;
#X obj 37 88 r window-size;
#X obj 38 173 /;
#X obj 127 142 samplerate~;
#X obj 38 251 s window-sec;
#X obj 177 204 swap;
#X obj 177 228 /;
#X obj 177 252 s window-hz;
#X obj 49 201 * 1000;
#X obj 49 228 s window-msec;
#X obj 38 115 t f b f;
#X msg 173 92 resize \$1;
#X obj 173 116 s \$0-hann;
#X obj 330 105 r window-hz;
#X msg 382 130 0;
#X obj 330 131 t f b;
#X text 15 8 calculate Hann window table (variable window size) and
constants window-hz (fundamental frequency of analysis) \, window-sec
and window-msec (analysis window size in seconds and msec).;
#X connect 1 0 2 0;
#X connect 2 0 3 0;
#X connect 3 0 4 0;
#X connect 5 0 14 0;
#X connect 6 0 8 0;
#X connect 6 0 12 0;
#X connect 7 0 6 1;
#X connect 7 0 9 1;
#X connect 9 0 10 0;
#X connect 9 1 10 1;
#X connect 10 0 11 0;
#X connect 12 0 13 0;
#X connect 14 0 6 0;
#X connect 14 0 9 0;
#X connect 14 1 7 0;
#X connect 14 2 15 0;
#X connect 15 0 16 0;
#X connect 17 0 19 0;
#X connect 18 0 1 1;
#X connect 19 0 1 0;
#X connect 19 1 4 0;
#X connect 19 1 18 0;
#X restore 376 -1842 pd hann-window;
#N canvas 388 86 694 447 insample 0;
#N canvas 0 0 450 300 (subpatch) 0;
#X array \$0-sample 14568 float 0;
#X coords 0 1 14567 -1 400 150 1;
#X restore 281 135 graph;
#X obj 28 133 r read-sample;
#X obj 28 184 unpack s f;
#X obj 28 294 soundfiler;
#X text 365 360 read a sample;
#X obj 285 359 loadbang;
#X obj 28 210 t s b;
#X obj 84 209 symbol \$0-sample;
#X obj 28 245 pack s s;
#X msg 28 270 read -resize \$1 \$2;
#X obj 83 156 44100;
#X obj 28 157 t a b;
#X obj 38 318 s \$0-samplength;
#X obj 125 184 s \$0-insamprate;
#X obj 28 357 /;
#X obj 28 381 * 1000;
#X obj 28 404 s \$0-samp-msec;
#X obj 66 357 r \$0-insamprate;
#X obj 29 70 hip~ 5;
#X obj 29 46 adc~ 1;
#X obj 29 9 inlet;
#X obj 91 46 samplerate~;
#X obj 29 93 tabwrite~ \$0-sample;
#X obj 91 70 s \$0-insamprate;
#X obj 276 20 inlet;
#X obj 276 42 openpanel;
#X obj 276 67 s read-sample;
#X msg 285 383 \; read-sample chord.wav;
#X connect 1 0 11 0;
#X connect 2 0 6 0;
#X connect 2 1 13 0;
#X connect 3 0 12 0;
#X connect 3 0 14 0;
#X connect 5 0 27 0;
#X connect 6 0 8 0;
#X connect 6 1 7 0;
#X connect 7 0 8 1;
#X connect 8 0 9 0;
#X connect 9 0 3 0;
#X connect 10 0 13 0;
#X connect 11 0 2 0;
#X connect 11 1 10 0;
#X connect 14 0 15 0;
#X connect 15 0 16 0;
#X connect 17 0 14 1;
#X connect 18 0 22 0;
#X connect 19 0 18 0;
#X connect 20 0 21 0;
#X connect 20 0 19 0;
#X connect 21 0 23 0;
#X connect 24 0 25 0;
#X connect 25 0 26 0;
#X restore 377 -1890 pd insample;
#X floatatom 488 -1890 5 0 0 0 - #0-samp-msec -;
#X msg 165 -1884 ../sound/bell.aiff;
#X msg 165 -1859 ../sound/voice.wav;
#X msg 165 -1834 ../sound/voice2.wav;
#X obj 165 -1808 s read-sample;
#X obj 377 -1931 bng 15 250 50 0 empty empty empty 0 -6 0 8 -262144
-1 -1;
#X text 396 -1932 <- record;
#X obj 429 -1983 tgl 15 0 empty empty empty 0 -6 0 8 -262144 -1 -1
0 1;
#X obj -9 -1963 s location;
#X obj 103 -1963 s speed;
#X obj 198 -1984 bng 15 250 50 0 empty empty empty 0 -6 0 8 -262144
-1 -1;
#X obj 198 -1962 s rewind;
#X msg 281 -2034 200;
#X msg 281 -2012 100;
#X msg 281 -1990 20;
#X text 322 -2035 contract;
#X text 326 -1990 expand;
#X obj 429 -1963 s lock;
#X text 430 -2093 detune;
#X text -9 -2040 location;
#X text -12 -2024 (stops;
#X text -7 -2009 motion);
#X text 101 -2022 motion in;
#X text 168 -1906 read input sound;
#X text 540 -1891 length \, msec;
#X floatatom 543 -1951 5 0 0 0 - window-size -;
#X msg 543 -2063 512;
#X msg 543 -2041 1024;
#X msg 543 -2019 2048;
#X msg 543 -1997 4096;
#X obj 543 -1975 s window-size;
#X text 543 -2096 window size \,;
#X text 543 -2081 samples;
#X text 584 -2064 <- set;
#X text 36 -2064 ------- location controls -------;
#X text 596 -1951 (check);
#X obj 281 -1963 s auto;
#X text 419 -1802 updated for Pd version 0.39;
#X obj 487 -2054 bng 15 250 50 0 no-detune empty empty 0 -6 0 8 -262144
-1 -1;
#X obj 471 -1910 bng 15 250 50 0 empty empty empty 0 -6 0 8 -262144
-1 -1;
#X text 402 -1912 file ->;
#X connect 0 0 5 0;
#X connect 1 0 21 0;
#X connect 2 0 20 0;
#X connect 3 0 9 0;
#X connect 3 0 9 1;
#X connect 13 0 16 0;
#X connect 14 0 16 0;
#X connect 15 0 16 0;
#X connect 17 0 11 0;
#X connect 19 0 29 0;
#X connect 22 0 23 0;
#X connect 24 0 48 0;
#X connect 25 0 48 0;
#X connect 26 0 48 0;
#X connect 38 0 42 0;
#X connect 39 0 42 0;
#X connect 40 0 42 0;
#X connect 41 0 42 0;
#X connect 51 0 11 1;
#X restore 60 212 pd timestretch;
#X obj 53 64 inlet;
#X obj 102 101 cnv 15 345 58 empty empty empty 20 12 0 14 -233017 -66577
0;
#X obj 59 177 outlet;
#X connect 1 0 3 0;
#X coords 0 -1 1 1 350 60 1 100 100;
#X restore 888 -9719 pd resampler;
#X obj 894 -10057 gsynthfive;
#X obj 894 -9803 gvoice1;
#X obj 892 -10304 gdrumsynth;
#X obj 892 -9974 gsynthfour;
#X obj 894 -9889 gsynthsix;
#X obj 895 -10219 gdrumsynth3;
#X obj 528 24 catch~ synthout2;
#X obj 753 25 catch~ drumout;
#X obj 425 23 catch~ synthout3;
#X obj 857 27 catch~ synthout4;
#X obj 986 24 catch~ synthout5;
#X obj 1094 24 catch~ synthout6;
#X obj 636 26 catch~ drumout2;
#X obj 1202 24 r~ resampler;
#X msg 708 603 connect localhost 8001;
#X msg 703 629 disconnect;
#X obj 795 628 catch~ synthfeed2;
#X obj 483 128 udpsend~ 9 64;
#X obj 754 483 loadbang;
#X connect 0 0 1 0;
#X connect 3 0 4 0;
#X connect 5 0 4 0;
#X connect 7 0 10 0;
#X connect 7 0 11 0;
#X connect 7 0 13 0;
#X connect 7 0 14 0;
#X connect 7 0 17 0;
#X connect 7 0 19 0;
#X connect 7 0 21 0;
#X connect 7 0 23 0;
#X connect 10 0 9 0;
#X connect 10 0 31 0;
#X connect 11 0 8 0;
#X connect 11 0 24 0;
#X connect 13 0 12 0;
#X connect 13 0 28 0;
#X connect 14 0 15 0;
#X connect 14 0 27 0;
#X connect 17 0 16 0;
#X connect 17 0 26 0;
#X connect 19 0 18 0;
#X connect 19 0 29 0;
#X connect 21 0 20 0;
#X connect 21 0 30 0;
#X connect 23 0 22 0;
#X connect 23 0 25 0;
#X connect 32 0 43 1;
#X connect 33 0 43 3;
#X connect 34 0 43 0;
#X connect 35 0 43 4;
#X connect 36 0 43 5;
#X connect 37 0 43 6;
#X connect 38 0 43 2;
#X connect 39 0 43 7;
#X connect 40 0 43 0;
#X connect 41 0 43 0;
#X connect 42 0 43 8;
#X connect 44 0 40 0;
#X connect 44 0 41 0;
#X coords 0 -1 1 1 100 100 1 100 100;
