#N canvas 0 94 1362 690 10;
#X declare -path ./rj;
#N canvas 0 0 1366 726 netrecieve 0;
#X obj -418 27 netreceive 13001;
#X floatatom -264 29 5 0 0 0 - - -;
#X obj 164 207 s breath;
#X obj -238 315 s jlu4;
#X obj -281 316 s jlu3;
#X obj -326 316 s jlu2;
#X obj -372 315 s jlu1;
#X obj 546 154 s jrb1;
#X obj 599 151 s jrb2;
#X obj 653 153 s jrb3;
#X obj 706 154 s jrb4;
#X obj 543 177 s rjuforward;
#X obj 620 176 s rjuback;
#X obj 680 176 s rjuup;
#X obj 728 176 s rjudown;
#X obj 105 207 s pgmout;
#X obj 224 208 s noteval;
#X obj 287 209 s mynotemsg;
#X obj 360 208 s parakey;
#X obj -393 357 s frange1;
#X obj -330 356 s frange2;
#X obj -267 355 s frange3;
#X obj -204 354 s frange4;
#X obj 553 210 s frange5;
#X obj 616 209 s frange6;
#X obj 679 208 s frange7;
#X obj 742 207 s frange8;
#X obj -309 28 outlet;
#X obj 200 177 s loopsize;
#X obj 106 176 s packedindex;
#X obj 334 181 s clear;
#X obj -119 220 s looperctrl;
#X obj 404 396 s alarm;
#X obj -359 218 s mute1;
#X obj -299 219 s mute2;
#X obj 641 319 s fb6;
#X obj 680 319 s fb7;
#X obj 718 319 s fb8;
#X obj -246 219 s mute3;
#X obj -186 220 s mute4;
#X obj 577 277 s mute5;
#X obj 637 278 s mute6;
#X obj 690 278 s mute7;
#X obj 750 279 s mute8;
#X obj 767 317 s looprec;
#X obj 185 498 r;
#X floatatom 677 35 5 0 0 0 - - -;
#X obj 633 40 outlet;
#X floatatom 319 81 5 0 0 0 - - -;
#X obj 360 82 outlet;
#X obj 185 81 netreceive 13002;
#X obj 528 41 netreceive 13003;
#X obj 524 94 route 9 10 11 16 17 18 19 20 21 22 23 29 30 31 32 42
43 44 45 50 51 52 53 54;
#X obj -426 62 route 6 7 8 12 13 14 15 25 26 27 28 38 39 40 41 46 47
48 49 55;
#X floatatom 128 120 5 0 0 0 - - -;
#X obj 382 241 s haptic;
#X obj 398 265 r alarm;
#X msg 404 312 set \$1 \$2 \$3 \$4 \$5 \$6 \$7;
#X msg 402 350 238 1 317 0 0 476 0;
#X obj 409 162 s inhale;
#X obj -241 559 netsend;
#X msg -157 451 connect localhost 13007;
#X msg -173 473 disconnect;
#X obj -155 525 r msg4;
#X obj 45 461 s msg4;
#X obj -151 380 loadbang;
#X obj 102 505 tgl 15 0 empty empty empty 17 7 0 10 -262144 -1 -1 1
1;
#X obj -173 423 sel 0 1;
#X obj 121 505 tgl 15 0 empty empty empty 17 7 0 10 -262144 -1 -1 0
1;
#X obj 29 367 r filerec;
#X msg 45 419 send 1 \$1;
#X obj 104 368 r att;
#X obj 146 372 r dub;
#X msg 99 438 send 2 \$1;
#X msg 168 417 send 3 \$1;
#X obj -9 327 r metrobang;
#X msg -40 352 send 4 \$1;
#X obj -76 252 r loop1;
#X msg -75 274 send 5 \$1;
#X obj -12 251 r loop2;
#X msg -11 273 send 6 \$1;
#X obj 54 250 r loop3;
#X obj 118 249 r loop4;
#X obj 43 295 r loop5;
#X obj 107 294 r loop6;
#X obj 173 293 r loop7;
#X obj 237 292 r loop8;
#X msg 55 272 send 7 \$1;
#X msg 119 271 send 8 \$1;
#X msg 44 317 send 9 \$1;
#X msg 108 316 send 10 \$1;
#X msg 174 315 send 11 \$1;
#X msg 238 314 send 12 \$1;
#X obj 460 190 s transpose;
#X floatatom 447 213 5 0 0 0 - - -;
#X obj -416 234 tgl 15 0 empty empty empty 17 7 0 10 -262144 -1 -1
0 1;
#X obj 436 146 s outlevel;
#X obj 603 319 s fb5;
#X obj -240 250 s fb4;
#X obj -278 250 s fb3;
#X obj -317 250 s fb2;
#X obj 255 427 r fbo1;
#X obj 301 428 r fbo2;
#X obj 347 429 r fbo3;
#X obj 393 430 r fbo4;
#X obj 437 431 r fbo5;
#X obj 483 432 r fbo6;
#X obj 529 433 r fbo7;
#X obj 575 434 r fbo8;
#X msg 253 461 send 13 \$1;
#X msg 327 460 send 14 \$1;
#X msg 403 461 send 15 \$1;
#X msg 477 460 send 16 \$1;
#X msg 266 486 send 17 \$1;
#X msg 340 485 send 18 \$1;
#X msg 416 486 send 19 \$1;
#X msg 490 485 send 20 \$1;
#X obj 71 50;
#X obj 24 13 netreceive 13005;
#X obj 25 50 route 65;
#X obj 22 96 s lip;
#X floatatom 138 49 5 0 0 0 - - -;
#X obj 473 176 s zctrl-l;
#X obj 485 220 s zctrl-r;
#N canvas 1187 151 450 576 accelerometer 0;
#X text 106 146 Accelerometer;
#X obj 80 51 unpack f f f;
#X obj 104 127 * 127;
#X obj 80 27 inlet;
#X obj 158 50 s xlrmtr1;
#N canvas 503 226 821 444 xaxis 0;
#X floatatom 147 75 5 0 0 0 - - -;
#X floatatom 124 250 5 0 0 0 - - -;
#X obj 124 -2 inlet;
#X obj 124 75 int;
#X obj 127 304 outlet;
#X obj 124 230 int;
#X floatatom 200 162 5 0 0 0 - - -;
#X obj 124 36 * 127;
#X floatatom 182 226 5 0 0 0 - - -;
#X obj 120 133 * 127;
#X obj 121 156 + 60;
#X msg 122 92 127 \$1;
#X obj 122 115 -;
#X connect 1 0 4 0;
#X connect 2 0 7 0;
#X connect 3 0 0 0;
#X connect 3 0 11 0;
#X connect 5 0 1 0;
#X connect 7 0 3 0;
#X connect 9 0 10 0;
#X connect 10 0 5 0;
#X connect 10 0 8 0;
#X connect 11 0 12 0;
#X connect 12 0 9 0;
#X restore 41 98 pd xaxis calibration;
#X obj 153 124 * 127;
#X obj 34 194 outlet x;
#X obj 94 195 outlet y;
#X obj 156 196 outlet z;
#X floatatom 229 194 5 0 0 0 - - -;
#X floatatom 161 308 5 0 0 0 - - -;
#X floatatom 151 362 5 0 0 0 - - -;
#X obj 206 296 unpack 0.1 0.1;
#X obj 199 331 * 127;
#X obj 196 388 -;
#X msg 197 359 127 \$1;
#X floatatom 164 405 5 0 0 0 - - -;
#X floatatom 28 334 5 0 0 0 - - -;
#X obj 19 371 clip 0 127;
#X floatatom 22 409 5 0 0 0 - - -;
#X obj 10 443 mod 127;
#X floatatom 1 428 5 0 0 0 - - -;
#X obj 33 232 * 2.2;
#X obj 31 306 - 76;
#X floatatom 365 332 5 0 0 0 - - -;
#X obj 332 351 clip 0 127;
#X floatatom 323 432 5 0 0 0 - - -;
#X floatatom 302 451 5 0 0 0 - - -;
#X obj 332 306 * 2.2;
#X obj 332 329 - 76;
#X connect 1 0 13 0;
#X connect 1 1 2 0;
#X connect 1 2 6 0;
#X connect 1 2 10 0;
#X connect 2 0 29 0;
#X connect 3 0 1 0;
#X connect 3 0 4 0;
#X connect 6 0 9 0;
#X connect 13 0 11 0;
#X connect 13 0 14 0;
#X connect 14 0 12 0;
#X connect 14 0 16 0;
#X connect 15 0 17 0;
#X connect 15 0 23 0;
#X connect 16 0 15 0;
#X connect 19 0 20 0;
#X connect 19 0 21 0;
#X connect 21 0 7 0;
#X connect 23 0 24 0;
#X connect 24 0 18 0;
#X connect 24 0 19 0;
#X connect 26 0 27 0;
#X connect 26 0 8 0;
#X connect 29 0 30 0;
#X connect 30 0 25 0;
#X connect 30 0 26 0;
#X restore 701 426 pd accelerometer;
#X floatatom -412 198 5 0 0 0 - - -;
#X obj 287 530 r xlx;
#X obj 326 532 r xly;
#X obj 362 531 r xlz;
#X obj 377 627 pack f f f;
#X obj 461 624 pack f f f;
#X obj 377 651 s xlrmtr1;
#X obj 460 647 s xlrmtr2;
#X obj 596 564 * 127;
#X obj 641 562 * 127;
#X obj 691 563 * 127;
#X obj 560 668 s xaxisr;
#X obj 702 674 s zaxisr;
#X obj 212 596 * 127;
#X obj 262 597 * 127;
#X obj 63 682 s xaxis;
#X obj 221 703 s yaxis;
#X obj 635 673 s yaxisr;
#N canvas 417 128 821 444 xaxis 0;
#X floatatom 147 75 5 0 0 0 - - -;
#X floatatom 124 250 5 0 0 0 - - -;
#X obj 124 -2 inlet;
#X obj 124 75 int;
#X obj 127 304 outlet;
#X obj 124 230 int;
#X floatatom 200 162 5 0 0 0 - - -;
#X obj 124 36 * 127;
#X floatatom 182 226 5 0 0 0 - - -;
#X obj 116 142 -;
#X msg 113 100 127 \$1;
#X connect 1 0 4 0;
#X connect 2 0 7 0;
#X connect 3 0 0 0;
#X connect 5 0 1 0;
#X connect 7 0 3 0;
#X connect 7 0 10 0;
#X connect 9 0 4 0;
#X connect 10 0 9 0;
#X restore 52 560 pd xaxis calibration;
#X obj 493 528 r xrz;
#X obj 534 528 r xrx;
#X obj 574 528 r xry;
#X obj -306 283 s xly;
#X obj -358 282 s xlx;
#X obj -258 282 s xlz;
#X obj 580 239 s xrx;
#X obj 634 239 s xry;
#X obj 690 239 s xrz;
#X floatatom 474 556 5 0 0 0 - - -;
#X floatatom 582 629 5 0 0 0 - - -;
#X obj 700 595 * 2.2;
#X obj 704 624 - 76;
#X obj 703 652 clip 0 127;
#X obj 629 592 * 2.2;
#X obj 633 621 - 76;
#X obj 632 649 clip 0 127;
#X obj 559 588 * 2.2;
#X obj 563 617 - 76;
#X obj 562 645 clip 0 127;
#X obj 277 622 * 2.2;
#X obj 281 651 - 76;
#X obj 280 679 clip 0 127;
#X obj 280 700 s zaxis;
#X obj 212 623 * 2.2;
#X obj 216 652 - 76;
#X obj 215 680 clip 0 127;
#X obj 57 596 * 2.2;
#X obj 61 625 - 76;
#X obj 60 653 clip 0 127;
#X obj -391 250 s lipswitch;
#X obj 487 258 s alt-note;
#X obj -283 598 r panlite1;
#X obj -219 597 r panlite2;
#X obj -153 596 r panlite3;
#X obj -89 595 r panlite4;
#X msg -282 620 send 21 \$1;
#X msg -218 619 send 22 \$1;
#X msg -152 618 send 23 \$1;
#X msg -88 617 send 24 \$1;
#X obj -280 648 r panlite5;
#X obj -216 647 r panlite6;
#X obj -150 646 r panlite7;
#X msg -279 670 send 25 \$1;
#X msg -215 669 send 26 \$1;
#X msg -149 668 send 27 \$1;
#X floatatom 348 271 5 0 0 0 - - -;
#X obj 218 347 r loop_in_ms;
#X msg 226 378 send 29 \$1;
#X obj -74 644 r panlite8;
#X msg -73 666 send 28 \$1;
#X obj 316 366 r vocolor;
#X msg 296 401 send 30 \$1;
#X obj 681 453 r mynotemsg;
#X obj 681 475 unpack f f f;
#X obj 692 503 s note;
#X obj 545 284 s lip;
#X floatatom 321 648 5 0 0 0 - - -;
#X floatatom 810 669 5 0 0 0 - - -;
#X floatatom 499 705 5 0 0 0 - - -;
#X obj 616 694 / 127;
#X obj 567 695 / 127;
#X obj 666 697 / 127;
#X obj 149 680 / 127;
#X obj 403 600 / 127;
#X obj 412 683 / 127;
#X obj 155 108 route 1 2 3 4 5 33 34 35 36 37 24 56 57 66 67 68 69
70 65 71;
#X obj 470 288 s slicenum;
#X floatatom 129 701 5 0 0 0 - - -;
#X connect 0 0 53 0;
#X connect 0 1 1 0;
#X connect 0 1 27 0;
#X connect 50 0 210 0;
#X connect 50 1 48 0;
#X connect 50 1 49 0;
#X connect 51 0 52 0;
#X connect 51 1 46 0;
#X connect 51 1 47 0;
#X connect 52 0 150 0;
#X connect 52 1 151 0;
#X connect 52 2 152 0;
#X connect 52 3 7 0;
#X connect 52 4 8 0;
#X connect 52 5 9 0;
#X connect 52 6 10 0;
#X connect 52 7 11 0;
#X connect 52 8 12 0;
#X connect 52 9 13 0;
#X connect 52 10 14 0;
#X connect 52 11 23 0;
#X connect 52 12 24 0;
#X connect 52 13 25 0;
#X connect 52 14 26 0;
#X connect 52 15 40 0;
#X connect 52 16 41 0;
#X connect 52 17 42 0;
#X connect 52 18 43 0;
#X connect 52 19 97 0;
#X connect 52 20 35 0;
#X connect 52 21 36 0;
#X connect 52 22 37 0;
#X connect 52 23 44 0;
#X connect 53 0 125 0;
#X connect 53 0 148 0;
#X connect 53 1 147 0;
#X connect 53 2 149 0;
#X connect 53 3 6 0;
#X connect 53 4 5 0;
#X connect 53 5 4 0;
#X connect 53 6 3 0;
#X connect 53 7 19 0;
#X connect 53 8 20 0;
#X connect 53 9 21 0;
#X connect 53 10 22 0;
#X connect 53 11 33 0;
#X connect 53 12 34 0;
#X connect 53 13 38 0;
#X connect 53 14 39 0;
#X connect 53 15 174 0;
#X connect 53 16 100 0;
#X connect 53 17 99 0;
#X connect 53 18 98 0;
#X connect 53 19 31 0;
#X connect 57 0 58 0;
#X connect 60 0 68 0;
#X connect 61 0 60 0;
#X connect 62 0 60 0;
#X connect 63 0 60 0;
#X connect 65 0 66 0;
#X connect 66 0 67 0;
#X connect 67 0 62 0;
#X connect 67 1 61 0;
#X connect 69 0 70 0;
#X connect 70 0 64 0;
#X connect 71 0 73 0;
#X connect 72 0 74 0;
#X connect 73 0 64 0;
#X connect 74 0 64 0;
#X connect 75 0 76 0;
#X connect 76 0 64 0;
#X connect 77 0 78 0;
#X connect 78 0 64 0;
#X connect 79 0 80 0;
#X connect 80 0 64 0;
#X connect 81 0 87 0;
#X connect 82 0 88 0;
#X connect 83 0 89 0;
#X connect 84 0 90 0;
#X connect 85 0 91 0;
#X connect 86 0 92 0;
#X connect 87 0 64 0;
#X connect 88 0 64 0;
#X connect 89 0 64 0;
#X connect 90 0 64 0;
#X connect 91 0 64 0;
#X connect 92 0 64 0;
#X connect 101 0 109 0;
#X connect 102 0 110 0;
#X connect 103 0 111 0;
#X connect 104 0 112 0;
#X connect 105 0 113 0;
#X connect 106 0 114 0;
#X connect 107 0 115 0;
#X connect 108 0 116 0;
#X connect 109 0 64 0;
#X connect 110 0 64 0;
#X connect 111 0 64 0;
#X connect 112 0 64 0;
#X connect 113 0 64 0;
#X connect 114 0 64 0;
#X connect 115 0 64 0;
#X connect 116 0 64 0;
#X connect 118 0 119 0;
#X connect 118 1 121 0;
#X connect 119 0 120 0;
#X connect 126 0 143 0;
#X connect 127 0 138 0;
#X connect 128 0 139 0;
#X connect 129 0 131 0;
#X connect 130 0 132 0;
#X connect 133 0 161 0;
#X connect 134 0 154 0;
#X connect 134 0 158 0;
#X connect 135 0 155 0;
#X connect 138 0 168 0;
#X connect 139 0 164 0;
#X connect 143 0 171 0;
#X connect 144 0 133 0;
#X connect 144 0 153 0;
#X connect 145 0 134 0;
#X connect 146 0 135 0;
#X connect 155 0 156 0;
#X connect 156 0 157 0;
#X connect 157 0 137 0;
#X connect 157 0 202 0;
#X connect 157 0 206 0;
#X connect 158 0 159 0;
#X connect 159 0 160 0;
#X connect 160 0 142 0;
#X connect 160 0 204 0;
#X connect 161 0 162 0;
#X connect 162 0 163 0;
#X connect 163 0 136 0;
#X connect 163 0 205 0;
#X connect 164 0 166 0;
#X connect 164 0 201 0;
#X connect 166 0 167 0;
#X connect 166 0 209 0;
#X connect 168 0 169 0;
#X connect 169 0 170 0;
#X connect 170 0 141 0;
#X connect 170 0 208 0;
#X connect 171 0 172 0;
#X connect 172 0 173 0;
#X connect 173 0 140 0;
#X connect 173 0 207 0;
#X connect 173 0 212 0;
#X connect 176 0 180 0;
#X connect 177 0 181 0;
#X connect 178 0 182 0;
#X connect 179 0 183 0;
#X connect 180 0 64 0;
#X connect 181 0 64 0;
#X connect 182 0 64 0;
#X connect 183 0 64 0;
#X connect 184 0 187 0;
#X connect 185 0 188 0;
#X connect 186 0 189 0;
#X connect 187 0 64 0;
#X connect 188 0 64 0;
#X connect 189 0 64 0;
#X connect 191 0 192 0;
#X connect 192 0 64 0;
#X connect 193 0 194 0;
#X connect 194 0 64 0;
#X connect 195 0 196 0;
#X connect 196 0 64 0;
#X connect 197 0 198 0;
#X connect 198 0 199 0;
#X connect 204 0 130 2;
#X connect 205 0 130 1;
#X connect 206 0 130 0;
#X connect 207 0 129 0;
#X connect 208 0 129 1;
#X connect 209 0 129 2;
#X connect 210 0 15 0;
#X connect 210 1 2 0;
#X connect 210 1 54 0;
#X connect 210 2 16 0;
#X connect 210 3 17 0;
#X connect 210 4 18 0;
#X connect 210 5 29 0;
#X connect 210 6 28 0;
#X connect 210 8 30 0;
#X connect 210 9 57 0;
#X connect 210 9 32 0;
#X connect 210 10 190 0;
#X connect 210 11 55 0;
#X connect 210 12 59 0;
#X connect 210 13 93 0;
#X connect 210 13 94 0;
#X connect 210 14 96 0;
#X connect 210 15 122 0;
#X connect 210 16 123 0;
#X connect 210 17 175 0;
#X connect 210 18 200 0;
#X connect 210 19 211 0;
#X coords 0 -1 1 1 40 25 2 100 500;
#X restore -171 -155 pd netrecieve 1;
#X obj -171 -131 tgl 30 0 empty empty 1 40 7 0 10 -4034 -1 -1 0 1;
#X obj 514 -1 r pgmout;
#X obj 451 20 tgl 15 0 empty empty empty 17 7 0 10 -262144 -1 -1 0
1;
#X obj 452 -17 tgl 15 0 empty empty empty 17 7 0 10 -262144 -1 -1 0
1;
#X obj 377 -82 == 2;
#X obj 374 11 == 3;
#X obj 497 -69 tgl 15 0 empty empty empty 17 7 0 10 -262144 -1 -1 0
1;
#X obj 481 -160 == 1;
#X obj 607 8 == 7;
#X obj 580 26 tgl 15 0 empty empty empty 17 7 0 10 -262144 -1 -1 0
1;
#X obj 491 69 tgl 15 0 empty empty empty 17 7 0 10 -262144 -1 -1 0
1;
#X obj 445 96 == 4;
#X obj 534 -70 tgl 15 0 empty empty empty 17 7 0 10 -262144 -1 -1 0
1;
#X obj 532 -160 == 5;
#X obj 581 -15 tgl 15 0 empty empty empty 17 7 0 10 -262144 -1 -1 0
1;
#X obj 605 -76 == 6;
#X obj 529 69 tgl 15 0 empty empty empty 17 7 0 10 -262144 -1 -1 0
1;
#X obj 539 91 == 8;
#X obj 374 30 gsynththree;
#X obj 531 -137 gsynthfour;
#N canvas 1 1 1348 708 hidden 1;
#N canvas 0 0 1362 710 effects 0;
#X obj 392 737 outlet~;
#X obj 184 376 *~;
#X obj 222 376 *~;
#X obj 398 174 r effects;
#X obj 409 69 loadbang;
#X obj 408 384 *~;
#X obj 165 109 sel 0 1;
#X floatatom 215 110 5 0 0 0 - - -;
#X msg 165 137 1 0 0;
#X msg 184 157 0 1 0;
#X obj 312 113 sel 0 1;
#X floatatom 362 114 5 0 0 0 - - -;
#N canvas 0 0 647 474 chorus 0;
#X obj 83 91 inlet~;
#X obj 73 164 *;
#X restore 726 365 pd chorus;
#X floatatom 468 247 5 0 0 0 - - -;
#X obj 401 244 mtof;
#X floatatom 430 244 5 0 0 0 - - -;
#X obj 401 199 f;
#X obj 468 275 sig~;
#N canvas 266 389 782 525 axial 0;
#X obj 81 66 inlet;
#X obj 191 267 table axisforward;
#X obj 340 261 table axisbackward;
#X floatatom 161 110 5 0 0 0 - - -;
#X floatatom 165 329 5 0 0 0 - - -;
#X obj 156 307 f;
#X obj 151 404 outlet;
#X obj 159 185 tabread axisbackward;
#X floatatom 207 227 5 0 0 0 - - -;
#X obj 154 224 * 127;
#X obj 162 247 + 100;
#X obj 157 357 clip 0 127;
#X floatatom 172 385 5 0 0 0 - - -;
#X connect 0 0 3 0;
#X connect 0 0 7 0;
#X connect 5 0 4 0;
#X connect 5 0 11 0;
#X connect 7 0 8 0;
#X connect 7 0 9 0;
#X connect 9 0 10 0;
#X connect 10 0 5 0;
#X connect 11 0 6 0;
#X connect 11 0 12 0;
#X restore 595 186 pd axial calibrator;
#X floatatom 528 178 5 0 0 0 - - -;
#X floatatom 599 230 5 0 0 0 - - -;
#X floatatom 429 223 5 0 0 0 - - -;
#X floatatom 490 154 5 0 0 0 - - -;
#X obj 468 225 / 5;
#X obj 435 154 r yaxisr;
#X obj 475 177 r xaxisr;
#X obj 1118 263 mono-pitchshifter /key;
#X obj 1108 443 st-flanger /key;
#X obj 1114 354 mono-highpass /key;
#X floatatom 1004 393 5 0 0 0 - - -;
#X obj 937 390 mtof;
#X floatatom 966 390 5 0 0 0 - - -;
#X obj 937 345 f;
#X obj 1017 425 sig~;
#X floatatom 1064 324 5 0 0 0 - - -;
#X floatatom 942 364 5 0 0 0 - - -;
#X floatatom 1026 300 5 0 0 0 - - -;
#X obj 882 478 bp~;
#X obj 934 542 bp~;
#X obj 886 446 bp~;
#X obj 914 455 sig~;
#X obj 1004 371 / 5;
#X obj 936 515 hip~ 10000;
#X obj 937 568 bp~;
#X obj 312 69 r jrb4;
#X obj 165 65 r jrb1;
#X obj 387 343 tgl 15 0 empty empty empty 17 7 0 10 -262144 -1 -1 0
1;
#X obj 551 274 r xaxis;
#X floatatom 556 304 5 0 0 0 - - -;
#X obj 542 315 / 100;
#X obj 593 733 outlet~;
#X msg 410 92 1 1 0;
#X obj 487 366 *~;
#X obj 1103 622 mono-pitchshifter /key;
#X obj 1105 710 mono-highpass /key;
#X floatatom 989 752 5 0 0 0 - - -;
#X obj 922 749 mtof;
#X floatatom 951 749 5 0 0 0 - - -;
#X obj 922 704 f;
#X obj 1002 784 sig~;
#X floatatom 1049 683 5 0 0 0 - - -;
#X floatatom 927 723 5 0 0 0 - - -;
#X floatatom 1011 659 5 0 0 0 - - -;
#X obj 869 846 bp~;
#X obj 919 901 bp~;
#X obj 871 805 bp~;
#X obj 899 814 sig~;
#X obj 989 730 / 5;
#X obj 921 874 hip~ 10000;
#X obj 922 927 bp~;
#X obj 956 659 r yaxisr;
#X obj 996 682 r xaxisr;
#X msg 312 137 1 0;
#X msg 331 160 0 1;
#X obj 300 237 unpack f f;
#X obj 408 307 sig~;
#X obj 410 335 lop~ 80;
#X obj 487 303 sig~;
#X obj 489 331 lop~ 80;
#X obj 250 321 sig~;
#X obj 252 349 lop~ 80;
#X obj 188 314 sig~;
#X obj 190 342 lop~ 80;
#X obj 813 899 *~ 1;
#X obj 785 654 *~ 1;
#X obj 1281 568 *~ 1;
#X obj 1115 577 *~ 1;
#X obj 1043 467 / 100;
#X obj 86 190 r~ looperfeed-l;
#X obj 205 195 r~ looperfeed-r;
#X obj 1012 248 / 127;
#X obj 971 300 r yaxis;
#X obj 1011 323 r xaxis;
#X obj 1045 732 / 127;
#X connect 1 0 0 0;
#X connect 2 0 50 0;
#X connect 3 0 74 0;
#X connect 4 0 51 0;
#X connect 5 0 26 0;
#X connect 5 0 39 0;
#X connect 5 0 28 0;
#X connect 6 0 8 0;
#X connect 6 1 9 0;
#X connect 10 0 72 0;
#X connect 10 1 73 0;
#X connect 13 0 17 0;
#X connect 14 0 15 0;
#X connect 16 0 21 0;
#X connect 16 0 14 0;
#X connect 18 0 20 0;
#X connect 23 0 13 0;
#X connect 24 0 18 0;
#X connect 24 0 22 0;
#X connect 24 0 23 0;
#X connect 25 0 19 0;
#X connect 25 0 16 0;
#X connect 26 0 28 0;
#X connect 27 0 86 0;
#X connect 27 1 85 0;
#X connect 28 0 27 0;
#X connect 29 0 33 0;
#X connect 29 0 37 2;
#X connect 29 0 38 2;
#X connect 29 0 39 2;
#X connect 29 0 43 2;
#X connect 30 0 31 0;
#X connect 30 0 39 1;
#X connect 30 0 37 1;
#X connect 30 0 38 1;
#X connect 30 0 42 1;
#X connect 30 0 43 1;
#X connect 32 0 35 0;
#X connect 32 0 30 0;
#X connect 37 0 84 0;
#X connect 38 0 43 0;
#X connect 39 0 37 0;
#X connect 39 0 84 0;
#X connect 41 0 29 0;
#X connect 42 0 38 0;
#X connect 43 0 84 0;
#X connect 44 0 10 0;
#X connect 44 0 11 0;
#X connect 45 0 6 0;
#X connect 45 0 7 0;
#X connect 47 0 48 0;
#X connect 47 0 49 0;
#X connect 49 0 26 1;
#X connect 51 0 74 0;
#X connect 52 0 53 0;
#X connect 52 0 54 0;
#X connect 52 0 65 0;
#X connect 53 0 54 0;
#X connect 54 0 27 1;
#X connect 55 0 59 0;
#X connect 55 0 63 2;
#X connect 55 0 64 2;
#X connect 55 0 65 2;
#X connect 55 0 69 2;
#X connect 56 0 57 0;
#X connect 56 0 65 1;
#X connect 56 0 63 1;
#X connect 56 0 64 1;
#X connect 56 0 68 1;
#X connect 56 0 69 1;
#X connect 58 0 61 0;
#X connect 58 0 56 0;
#X connect 63 0 83 0;
#X connect 64 0 69 0;
#X connect 65 0 63 0;
#X connect 65 0 83 0;
#X connect 67 0 55 0;
#X connect 68 0 64 0;
#X connect 69 0 83 0;
#X connect 70 0 62 0;
#X connect 70 0 67 0;
#X connect 70 0 93 0;
#X connect 71 0 60 0;
#X connect 71 0 58 0;
#X connect 72 0 74 0;
#X connect 73 0 74 0;
#X connect 74 0 79 0;
#X connect 74 0 81 0;
#X connect 74 1 77 0;
#X connect 74 1 75 0;
#X connect 75 0 76 0;
#X connect 76 0 5 1;
#X connect 77 0 78 0;
#X connect 78 0 52 1;
#X connect 79 0 80 0;
#X connect 80 0 2 1;
#X connect 81 0 82 0;
#X connect 82 0 1 1;
#X connect 83 0 50 0;
#X connect 84 0 0 0;
#X connect 85 0 50 0;
#X connect 86 0 0 0;
#X connect 87 0 53 1;
#X connect 88 0 5 0;
#X connect 88 0 1 0;
#X connect 89 0 2 0;
#X connect 89 0 52 0;
#X connect 90 0 26 2;
#X connect 91 0 36 0;
#X connect 91 0 41 0;
#X connect 91 0 90 0;
#X connect 92 0 34 0;
#X connect 92 0 32 0;
#X connect 92 0 87 0;
#X connect 93 0 53 2;
#X restore 497 162 pd effects;
#X obj 380 172 knob 32 32 0 1 0 0 empty empty empty 0 -8 0 8 -262144
-1 -1 310 1;
#X floatatom 383 210 5 0 0 0 - - -;
#X obj 624 452 r~ haptic;
#N canvas 0 0 450 300 loadmeter 0;
#X floatatom 102 102 0 0 0 0 - - -;
#X obj 102 14 cputime;
#X obj 102 -126 loadbang;
#X msg 102 -98 1;
#X floatatom 102 -70 0 0 0 0 - - -;
#X obj 102 -14 t b b;
#X obj 102 74 * 0.1;
#X obj 102 43 int;
#X text 147 -70 <-- on/off;
#X obj 102 -42 metro 250;
#X connect 1 0 7 0;
#X connect 2 0 3 0;
#X connect 3 0 4 0;
#X connect 4 0 9 0;
#X connect 5 0 1 0;
#X connect 5 1 1 1;
#X connect 6 0 0 0;
#X connect 7 0 6 0;
#X connect 9 0 5 0;
#X coords 0 -1 1 1 40 20 2 100 100;
#X restore 319 208 pd loadmeter;
#X text 320 191 CPU;
#X msg 437 381 print;
#N canvas 950 170 1366 726 haptic1 0;
#X msg 130 42 3187.5;
#X msg 73 41 3375;
#X msg 25 42 3562.5;
#X floatatom 171 221 5 0 0 0 - - -;
#X obj 170 263 sig~;
#X floatatom 96 221 5 0 0 0 - - -;
#X obj 95 263 sig~;
#X obj 95 306 +~;
#X obj 95 283 osc~ 2000;
#X obj 171 284 osc~ 2000;
#X obj 95 180 * 15.74;
#X obj 170 180 * 15.74;
#X obj 170 200 clip 0 2000;
#X obj 95 200 clip 0 2000;
#X obj 170 242 + 2000;
#X obj 95 242 + 2000;
#X floatatom 202 262 5 0 0 0 - - -;
#X msg 178 41 3000;
#X obj 178 67 s n;
#X obj 318 101 r n;
#X obj 317 125 / 127;
#X obj 165 305 r haptic-vol;
#N canvas 1956 146 707 540 alarm 0;
#N canvas 2073 174 450 447 multi-tone-alarm 0;
#N canvas 0 0 450 300 cosc 0;
#X obj 144 89 inlet pitch;
#X obj 220 90 inlet spectrum;
#X obj 145 122 osc~;
#X obj 221 123 * 0.25;
#X obj 144 159 +~;
#X obj 145 182 cos~;
#X obj 146 206 outlet~;
#X connect 0 0 2 0;
#X connect 1 0 3 0;
#X connect 2 0 4 0;
#X connect 3 0 4 1;
#X connect 4 0 5 0;
#X connect 5 0 6 0;
#X restore 216 76 pd cosc;
#N canvas 0 0 450 300 cosc 0;
#X obj 144 89 inlet pitch;
#X obj 220 90 inlet spectrum;
#X obj 145 122 osc~;
#X obj 221 123 * 0.25;
#X obj 144 159 +~;
#X obj 145 182 cos~;
#X obj 146 206 outlet~;
#X connect 0 0 2 0;
#X connect 1 0 3 0;
#X connect 2 0 4 0;
#X connect 3 0 4 1;
#X connect 4 0 5 0;
#X connect 5 0 6 0;
#X restore 229 100 pd cosc;
#N canvas 0 0 450 300 cosc 0;
#X obj 144 89 inlet pitch;
#X obj 220 90 inlet spectrum;
#X obj 145 122 osc~;
#X obj 221 123 * 0.25;
#X obj 144 159 +~;
#X obj 145 182 cos~;
#X obj 146 206 outlet~;
#X connect 0 0 2 0;
#X connect 1 0 3 0;
#X connect 2 0 4 0;
#X connect 3 0 4 1;
#X connect 4 0 5 0;
#X connect 5 0 6 0;
#X restore 249 124 pd cosc;
#N canvas 0 0 450 300 cosc 0;
#X obj 144 89 inlet pitch;
#X obj 220 90 inlet spectrum;
#X obj 145 122 osc~;
#X obj 221 123 * 0.25;
#X obj 144 159 +~;
#X obj 145 182 cos~;
#X obj 146 206 outlet~;
#X connect 0 0 2 0;
#X connect 1 0 3 0;
#X connect 2 0 4 0;
#X connect 3 0 4 1;
#X connect 4 0 5 0;
#X connect 5 0 6 0;
#X restore 265 144 pd cosc;
#X obj 77 217 *~;
#X obj 125 216 *~;
#X obj 165 215 *~;
#X obj 210 215 *~;
#X obj 144 247 *~ 0.25;
#X obj 147 277 hip~ 50;
#N canvas 0 0 630 343 4phase-osc 0;
#X obj 175 269 cos~;
#X obj 296 76 wrap~;
#X obj 294 53 inlet~ run;
#X obj 296 99 *~ 4;
#X obj 169 135 clip~ 0 1;
#X obj 173 217 *~ 0.5;
#X obj 174 241 -~ 0.25;
#X obj 174 296 outlet~;
#X obj 244 269 cos~;
#X obj 242 217 *~ 0.5;
#X obj 243 241 -~ 0.25;
#X obj 243 296 outlet~;
#X obj 238 135 clip~ 1 2;
#X obj 242 190 -~ 1;
#X obj 311 268 cos~;
#X obj 309 216 *~ 0.5;
#X obj 310 240 -~ 0.25;
#X obj 310 295 outlet~;
#X obj 375 266 cos~;
#X obj 373 214 *~ 0.5;
#X obj 374 238 -~ 0.25;
#X obj 374 293 outlet~;
#X obj 305 134 clip~ 2 3;
#X obj 369 132 clip~ 3 4;
#X obj 309 189 -~ 2;
#X obj 373 187 -~ 3;
#X connect 0 0 7 0;
#X connect 1 0 3 0;
#X connect 2 0 1 0;
#X connect 3 0 4 0;
#X connect 3 0 12 0;
#X connect 3 0 22 0;
#X connect 3 0 23 0;
#X connect 4 0 5 0;
#X connect 5 0 6 0;
#X connect 6 0 0 0;
#X connect 8 0 11 0;
#X connect 9 0 10 0;
#X connect 10 0 8 0;
#X connect 12 0 13 0;
#X connect 13 0 9 0;
#X connect 14 0 17 0;
#X connect 15 0 16 0;
#X connect 16 0 14 0;
#X connect 18 0 21 0;
#X connect 19 0 20 0;
#X connect 20 0 18 0;
#X connect 22 0 24 0;
#X connect 23 0 25 0;
#X connect 24 0 15 0;
#X connect 25 0 19 0;
#X restore 125 94 pd 4phase-osc;
#N canvas 0 0 550 398 timebase 0;
#X obj 199 46 inlet risetime;
#X obj 202 71 trigger f f b;
#X obj 242 101 del;
#X msg 200 133 1 \$1;
#X msg 247 135 0 0;
#X msg 302 131 0;
#X obj 203 190 line~;
#X obj 206 232 *~;
#X obj 247 188 inlet scale;
#X obj 207 265 outlet~ linecontrol;
#X connect 0 0 1 0;
#X connect 1 0 3 0;
#X connect 1 1 2 0;
#X connect 1 2 5 0;
#X connect 2 0 4 0;
#X connect 3 0 6 0;
#X connect 4 0 6 0;
#X connect 5 0 6 0;
#X connect 6 0 7 0;
#X connect 7 0 9 0;
#X connect 8 0 7 1;
#X restore 125 73 pd timebase;
#X obj 161 9 inlet;
#X obj 162 35 unpack f f f f f f f;
#X obj 218 303 r haptic-knob;
#X obj 148 300 *~ 0.6;
#X obj 152 340 s~ haptic;
#X connect 0 0 4 0;
#X connect 1 0 5 0;
#X connect 2 0 6 0;
#X connect 3 0 7 0;
#X connect 4 0 8 0;
#X connect 5 0 8 0;
#X connect 6 0 8 0;
#X connect 7 0 8 0;
#X connect 8 0 9 0;
#X connect 9 0 15 0;
#X connect 10 0 4 1;
#X connect 10 1 5 1;
#X connect 10 2 6 1;
#X connect 10 3 7 1;
#X connect 11 0 10 0;
#X connect 12 0 13 0;
#X connect 13 0 11 0;
#X connect 13 1 11 1;
#X connect 13 2 0 0;
#X connect 13 3 1 0;
#X connect 13 4 2 0;
#X connect 13 5 3 0;
#X connect 13 6 0 1;
#X connect 13 6 1 1;
#X connect 13 6 2 1;
#X connect 13 6 3 1;
#X connect 14 0 15 1;
#X connect 15 0 16 0;
#X restore 86 341 pd multi-tone-alarm;
#X obj 60 194 t;
#X obj 82 30 hsl 128 15 0 1000 0 0 empty empty time -2 -8 0 10 -262144
-1 -1 0 1;
#X obj 114 62 hsl 128 15 0 10 0 0 empty empty speed -2 -8 0 10 -262144
-1 -1 0 1;
#X obj 143 87 hsl 128 15 0 3000 0 0 empty empty freq1 -2 -8 0 10 -262144
-1 -1 0 1;
#X obj 189 110 hsl 128 15 0 3000 0 0 empty empty freq2 -2 -8 0 10 -262144
-1 -1 0 1;
#X obj 242 141 hsl 128 15 0 3000 0 0 empty empty freq3 -2 -8 0 10 -262144
-1 -1 0 1;
#X obj 276 171 hsl 128 15 0 3000 0 0 empty empty freq4 -2 -8 0 10 -262144
-1 -1 0 1;
#X obj 327 196 hsl 128 15 0 1 0 0 empty empty tone -2 -8 0 10 -262144
-1 -1 0 1;
#X obj 104 130 int;
#X obj 87 241 pack f f f f f f f;
#X msg 85 271 set \$1 \$2 \$3 \$4 \$5 \$6 \$7;
#X msg 83 309 0 0 0 0 165.354 0 0;
#X msg 537 80 380 2 349 0 0 0 1;
#X msg 546 107 238 1 317 0 0 476 0;
#X msg 545 175 283.465 3 472.441 826.772 23.622 1677.17 1;
#X obj 296 269 r alarm;
#X msg 22 378 0 0 0 0 165.354 0 0;
#X msg 302 316 set \$1 \$2 \$3 \$4 \$5 \$6 \$7;
#X msg 300 354 354.331 2 1960.63 0 0 0 0;
#X connect 1 0 10 0;
#X connect 2 0 10 0;
#X connect 3 0 9 0;
#X connect 3 0 1 0;
#X connect 4 0 1 0;
#X connect 4 0 10 2;
#X connect 5 0 1 0;
#X connect 5 0 10 3;
#X connect 6 0 1 0;
#X connect 6 0 10 4;
#X connect 7 0 1 0;
#X connect 7 0 10 5;
#X connect 8 0 1 0;
#X connect 8 0 10 6;
#X connect 9 0 10 1;
#X connect 10 0 11 0;
#X connect 11 0 12 0;
#X connect 11 0 17 0;
#X connect 12 0 0 0;
#X connect 13 0 0 0;
#X connect 14 0 0 0;
#X connect 15 0 0 0;
#X connect 16 0 18 0;
#X connect 16 0 0 0;
#X connect 18 0 19 0;
#X restore 520 207 pd alarm gen;
#X obj 95 160 r xaxis;
#X obj 169 159 r yaxis;
#X floatatom 377 217 5 0 0 0 - - -;
#X obj 376 259 sig~;
#X floatatom 302 217 5 0 0 0 - - -;
#X obj 301 259 sig~;
#X obj 301 302 +~;
#X obj 301 279 osc~ 2000;
#X obj 377 280 osc~ 2000;
#X obj 301 176 * 15.74;
#X obj 376 176 * 15.74;
#X obj 376 196 clip 0 2000;
#X obj 301 196 clip 0 2000;
#X obj 376 238 + 2000;
#X obj 301 238 + 2000;
#X floatatom 408 258 5 0 0 0 - - -;
#X obj 524 97 r n;
#X obj 523 121 / 127;
#X obj 371 301 r haptic-vol;
#X obj 301 156 r xaxisr;
#X obj 375 155 r yaxisr;
#X obj 301 323 *~ 0;
#X obj 95 327 *~ 0;
#X obj 96 368 *~;
#X obj 107 118 knob 32 32 0 0.2 0 0 empty empty empty 0 -8 0 8 -262144
-1 -1 3100 1;
#X obj 196 136 s haptic-vol;
#X obj 149 114 s haptic-knob;
#X obj 93 405 *~;
#X obj 130 373 r haptic-knob;
#X obj 44 83 loadbang;
#X obj 47 110;
#X floatatom 147 139 5 0 0 0 - - -;
#X msg 29 136 1;
#X connect 0 0 18 0;
#X connect 1 0 18 0;
#X connect 2 0 18 0;
#X connect 3 0 14 0;
#X connect 4 0 9 0;
#X connect 5 0 15 0;
#X connect 6 0 8 0;
#X connect 7 0 45 0;
#X connect 8 0 7 0;
#X connect 9 0 7 1;
#X connect 10 0 13 0;
#X connect 11 0 12 0;
#X connect 12 0 3 0;
#X connect 13 0 5 0;
#X connect 14 0 4 0;
#X connect 14 0 16 0;
#X connect 15 0 6 0;
#X connect 17 0 18 0;
#X connect 19 0 12 2;
#X connect 19 0 14 1;
#X connect 19 0 9 1;
#X connect 19 0 8 1;
#X connect 19 0 15 1;
#X connect 19 0 13 2;
#X connect 19 0 20 0;
#X connect 20 0 11 1;
#X connect 20 0 10 1;
#X connect 21 0 45 1;
#X connect 23 0 10 0;
#X connect 24 0 11 0;
#X connect 25 0 36 0;
#X connect 26 0 31 0;
#X connect 27 0 37 0;
#X connect 28 0 30 0;
#X connect 29 0 44 0;
#X connect 30 0 29 0;
#X connect 31 0 29 1;
#X connect 32 0 35 0;
#X connect 33 0 34 0;
#X connect 34 0 25 0;
#X connect 35 0 27 0;
#X connect 36 0 26 0;
#X connect 36 0 38 0;
#X connect 37 0 28 0;
#X connect 39 0 34 2;
#X connect 39 0 36 1;
#X connect 39 0 31 1;
#X connect 39 0 30 1;
#X connect 39 0 37 1;
#X connect 39 0 35 2;
#X connect 39 0 40 0;
#X connect 40 0 33 1;
#X connect 40 0 32 1;
#X connect 41 0 44 1;
#X connect 42 0 32 0;
#X connect 43 0 33 0;
#X connect 44 0 46 1;
#X connect 45 0 46 0;
#X connect 46 0 50 0;
#X connect 47 0 49 0;
#X connect 47 0 54 0;
#X connect 51 0 50 1;
#X connect 52 0 55 0;
#X connect 55 0 47 0;
#X coords 0 -1 1 1 85 60 1 100 100;
#X restore 334 103 pd haptic1;
#X obj 100 233 recorder;
#X obj 831 24 g_nbx comp1;
#X obj 831 53 g_nbx comp2;
#X obj 831 85 g_nbx att;
#X obj 831 116 g_nbx rel;
#X obj 831 148 g_nbx makeup;
#X obj 831 240 s \$0-CTL;
#X obj 831 209 g_hsl dry 0 1;
#N canvas 0 0 450 300 compressor 0;
#X obj 149 103 inlet;
#X obj 149 153 outlet;
#X msg 149 128 comp1 \$1 \, comp2 1;
#X connect 0 0 2 0;
#X connect 2 0 1 0;
#X restore 546 51 pd compressor;
#X floatatom 546 31 5 0 0 0 ratio - -;
#X floatatom 650 34 5 0 0 0 - - -;
#N canvas 0 0 450 300 noisegate 0;
#X obj 149 103 inlet;
#X obj 149 153 outlet;
#X msg 149 128 comp1 1 \, comp2 \$1;
#X connect 0 0 2 0;
#X connect 2 0 1 0;
#X restore 650 54 pd noisegate;
#X floatatom 556 81 5 0 0 0 - - -;
#N canvas 0 0 450 300 limiter 0;
#X obj 149 103 inlet;
#X obj 149 153 outlet;
#X msg 149 128 comp1 \$1 \, comp2 1;
#X connect 0 0 2 0;
#X connect 2 0 1 0;
#X restore 557 102 pd limiter;
#X floatatom 651 82 5 0 0 0 - - -;
#N canvas 0 0 450 300 expander 0;
#X obj 149 54 inlet;
#X obj 149 153 outlet;
#X msg 149 128 comp1 1 \, comp2 \$1;
#X msg 149 80 1 \$1;
#X obj 149 103 /;
#X connect 0 0 3 0;
#X connect 2 0 1 0;
#X connect 3 0 4 0;
#X connect 4 0 2 0;
#X restore 651 102 pd expander;
#X obj 831 178 g_nhsl thresh 0 120;
#X text 915 92 default: 50;
#X text 913 125 default: 50;
#X text 915 155 units: percent;
#X obj 801 290 r \$0-CTL;
#X obj 817 350 s~ \$0-env~;
#X obj 828 422 u_cocollect;
#X msg 870 273 save;
#X obj 870 298 t a b;
#X msg 828 452 comp2 1 \, comp1 17 \, rel 200 \, att 20 \, thresh 70.8304
\,;
#X msg 833 325 help;
#X obj 746 314 e_dynproc MYDYN;
#X obj 269 108 vu 15 120 empty compressed 20 -12 1 10 -66577 -1 1 0
;
#X obj 111 110 vu 15 120 empty orig -20 -12 1 10 -66577 -1 1 0;
#N canvas 0 0 598 284 vumeter 0;
#X obj 301 122 env~;
#X obj 301 147 - 100;
#X obj 64 117 env~;
#X obj 64 142 - 100;
#X obj 64 170 outlet;
#X obj 301 173 outlet;
#X obj 64 92 r~ \$0-orig~l;
#X obj 146 118 env~;
#X obj 146 143 - 100;
#X obj 146 171 outlet;
#X obj 146 93 r~ \$0-orig~r;
#X obj 381 124 env~;
#X obj 381 149 - 100;
#X obj 381 175 outlet;
#X obj 380 103 r~ \$0-comp~r;
#X obj 300 101 r~ \$0-comp~l;
#X connect 0 0 1 0;
#X connect 1 0 5 0;
#X connect 2 0 3 0;
#X connect 3 0 4 0;
#X connect 6 0 2 0;
#X connect 7 0 8 0;
#X connect 8 0 9 0;
#X connect 10 0 7 0;
#X connect 11 0 12 0;
#X connect 12 0 13 0;
#X connect 14 0 11 0;
#X connect 15 0 0 0;
#X restore 110 65 pd vumeter;
#X floatatom 1010 645 5 0 0 0 - - -;
#X obj 421 12 loadbang;
#X msg 462 52;
#X msg 428 51 76;
#X msg 431 83 112;
#X msg 466 80 1;
#X obj 494 466 r jru2;
#X obj 495 490 sel 0 1;
#X msg 489 516 1 0;
#X msg 518 516 0 1;
#X obj 489 544 unpack f f;
#X obj 489 566 sig~;
#X obj 490 585 lop~ 80;
#X obj 548 567 sig~;
#X obj 549 586 lop~ 80;
#X obj 660 596 dac~ 1 2 3 4;
#X obj 1079 267 r \$0-CTL;
#X obj 1095 327 s~ \$0-env~;
#X obj 1106 399 u_cocollect;
#X msg 1148 250 save;
#X obj 1148 275 t a b;
#X msg 1106 429 comp2 1 \, comp1 17 \, rel 200 \, att 20 \, thresh
70.8304 \,;
#X msg 1111 302 help;
#X obj 1024 291 e_dynproc MYDYN;
#X obj 760 413 s~ \$0-rec-l;
#X obj 1038 390 s~ \$0-rec-r;
#N canvas 756 298 381 325 limiter-for-two-channels 0;
#X obj 24 22 inlet~;
#X obj 121 21 loadbang;
#X obj 57 64 z~ 64;
#X obj 24 200 outlet~;
#X obj 121 113 zexy/limiter~;
#X msg 154 62 limit 100;
#X obj 57 173 *~;
#X connect 0 0 2 0;
#X connect 0 0 4 0;
#X connect 0 0 3 0;
#X connect 2 0 6 0;
#X connect 4 0 6 1;
#X connect 5 0 4 0;
#X restore 709 531 pd limiter-for-two-channels;
#X obj 220 108 vu 15 120 empty compressed 20 -12 1 10 -66577 -1 1 0
;
#X obj 162 112 vu 15 120 empty orig -20 -12 1 10 -66577 -1 1 0;
#X obj 477 331 s~ \$0-orig~l;
#X obj 560 327 s~ \$0-orig~r;
#X obj 759 577 s~ \$0-comp~l;
#X obj 843 574 s~ \$0-comp~r;
#X text 337 164 Volume;
#X obj 465 259 *~ 1;
#X obj 538 254 *~ 1;
#X obj 626 481 gdel-haptic;
#X msg 455 170 0.05;
#X connect 0 0 74 0;
#X connect 0 1 73 0;
#X connect 1 0 2 0;
#X connect 1 0 73 1;
#X connect 1 0 74 1;
#X connect 3 0 75 0;
#X connect 3 0 54 0;
#X connect 3 0 54 1;
#X connect 9 0 10 0;
#X connect 10 0 11 0;
#X connect 11 0 12 0;
#X connect 12 0 13 0;
#X connect 13 0 24 0;
#X connect 15 0 14 0;
#X connect 16 0 9 0;
#X connect 17 0 16 0;
#X connect 18 0 19 0;
#X connect 19 0 9 0;
#X connect 20 0 21 0;
#X connect 21 0 9 0;
#X connect 22 0 23 0;
#X connect 23 0 9 0;
#X connect 24 0 15 0;
#X connect 28 0 35 2;
#X connect 30 0 33 0;
#X connect 31 0 32 0;
#X connect 32 0 35 2;
#X connect 32 1 30 1;
#X connect 34 0 35 2;
#X connect 35 0 8 0;
#X connect 35 0 63 0;
#X connect 35 0 54 0;
#X connect 35 0 70 0;
#X connect 35 1 29 0;
#X connect 35 2 30 0;
#X connect 38 0 37 0;
#X connect 38 1 67 0;
#X connect 38 2 66 1;
#X connect 38 3 36 0;
#X connect 40 0 42 0;
#X connect 40 0 43 0;
#X connect 40 0 76 0;
#X connect 42 0 17 0;
#X connect 43 0 20 0;
#X connect 45 0 46 0;
#X connect 46 0 47 0;
#X connect 46 1 48 0;
#X connect 47 0 49 0;
#X connect 48 0 49 0;
#X connect 49 0 50 0;
#X connect 49 1 52 0;
#X connect 50 0 51 0;
#X connect 52 0 53 0;
#X connect 55 0 62 2;
#X connect 57 0 60 0;
#X connect 58 0 59 0;
#X connect 59 0 62 2;
#X connect 59 1 57 1;
#X connect 61 0 62 2;
#X connect 62 0 64 0;
#X connect 62 0 8 1;
#X connect 62 0 54 1;
#X connect 62 0 71 0;
#X connect 62 1 56 0;
#X connect 62 2 57 0;
#X connect 73 0 35 0;
#X connect 73 0 68 0;
#X connect 74 0 62 0;
#X connect 74 0 69 0;
#X connect 75 0 54 0;
#X connect 75 0 54 1;
#X connect 76 0 1 0;
#X coords 0 -1 1 1 325 200 2 100 100;
#X restore -188 7 pd hidden stuff;
#X obj -171 -98 tgl 30 0 empty empty 2 40 7 0 10 -4034 -1 -1 0 1;
#X obj -171 -66 tgl 30 0 empty empty 3 40 7 0 10 -4034 -1 -1 0 1;
#X obj -138 219 looper4edit;
#X text -174 -27 kinesonic Beatjazz prosthetic exo-voice;
#X obj 604 -56 gsynthsix;
#X obj 444 119 gsynthfive;
#X obj 607 30 gvoice1;
#N canvas 0 0 1644 992 resampler 0;
#X obj 170 176 inlet;
#X obj 81 654 outlet;
#X obj 51 306 tgl 15 0 empty empty empty 17 7 0 10 -262144 -1 -1 0
1;
#X obj 21 351 r loop_in_ms;
#X floatatom 27 381 5 0 0 0 - - -;
#X obj 82 514 bng 15 250 50 0 empty empty empty 17 7 0 10 -262144 -1
-1;
#X obj 156 212 r looprec;
#X obj 41 567 s all clear;
#X msg 42 543 clear;
#X obj 39 438 spigot;
#X msg 152 455 0;
#X obj 138 352 == 1;
#X floatatom 164 485 5 0 0 0 - - -;
#X obj 78 492 delay 1000;
#X msg 42 466 \$1;
#X obj 174 399 tgl 15 0 empty empty empty 17 7 0 10 -262144 -1 -1 0
1;
#X obj 137 244 spigot;
#X floatatom 195 237 5 0 0 0 - - -;
#X obj 563 418 vsl 15 128 -3 3 0 0 empty empty empty 0 -9 0 10 -262144
-1 -1 0 1;
#X floatatom 616 437 5 0 0 0 - - -;
#X obj 607 478 / 127;
#X floatatom 644 457 5 0 0 0 - - -;
#X floatatom 644 478 5 0 0 0 - - -;
#X floatatom 644 498 5 0 0 0 - - -;
#X obj 616 558 bng 15 250 50 0 empty empty empty 17 7 0 10 -262144
-1 -1;
#X obj 610 497 * 5;
#X obj 607 457 - 127;
#X obj 563 557 s xaxisfrom8;
#X obj 964 37 inlet pgmout;
#X obj 1144 160 gesturenode;
#X obj 702 446 gesturenode-r;
#X floatatom 1016 354 5 0 0 0 - - -;
#X obj 1111 279 s \$0-n1x;
#X obj 1161 301 s \$0-n1y;
#X obj 1192 279 s \$0-n1z;
#X obj 1054 279 s \$0-n2z;
#X obj 1010 299 s \$0-n2y;
#X obj 967 280 s \$0-n2x;
#X obj 908 279 s \$0-n3z;
#X obj 872 303 s \$0-n3y;
#X obj 824 280 s \$0-n3x;
#X obj 765 282 s \$0-n4z;
#X obj 714 300 s \$0-n4y;
#X obj 673 280 s \$0-n4x;
#X obj 802 580 s \$0-n5z;
#X obj 756 598 s \$0-n5y;
#X obj 713 579 s \$0-n5x;
#X obj 955 579 s \$0-n6z;
#X obj 867 579 s \$0-n6x;
#X obj 1097 576 s \$0-n7z;
#X obj 1055 598 s \$0-n7y;
#X obj 1011 579 s \$0-n7x;
#X obj 1249 579 s \$0-n8z;
#X obj 1198 602 s \$0-n8y;
#X obj 1159 579 s \$0-n8x;
#X text 929 358 n=node;
#X obj 1139 351 s \$0-n \$1 z;
#X obj 1059 352 s \$0-pgm;
#X obj 1204 87 r parakey;
#X obj 1144 130 == 1;
#X obj 730 126 r frange4;
#X obj 874 129 r frange3;
#X obj 1033 130 r frange2;
#X obj 1209 126 r frange1;
#X obj 697 127 == 4;
#X obj 841 130 == 3;
#X obj 997 131 == 2;
#X obj 1092 374 r parakey;
#X obj 703 422 == 5;
#X obj 785 422 r frange5;
#X obj 857 427 == 6;
#X obj 932 426 r frange6;
#X obj 1010 428 == 7;
#X obj 1096 427 r frange7;
#X obj 1168 423 == 8;
#X obj 1257 424 r frange8;
#X obj 857 449 gesturenode-r;
#X obj 1011 449 gesturenode-r;
#X obj 1168 447 gesturenode-r;
#X obj 834 159 gesturenode;
#X obj 988 159 gesturenode;
#X obj 678 157 gesturenode;
#X obj 911 599 s \$0-n6y;
#X floatatom 634 170 5 0 0 0 - - -;
#X obj 606 418 r \$0-n4x;
#X obj 77 532 == 1;
#X obj 122 532 == 2;
#X obj 77 574 s looptrigstart;
#X obj 122 552 s looptrigend;
#X floatatom 159 503 5 0 0 0 - - -;
#X floatatom 63 627 5 0 0 0 - - -;
#X floatatom 110 629 5 0 0 0 - - -;
#X obj 77 510 r parakey 2;
#X obj 608 312 r \$0-n8y;
#X obj 553 311 r \$0-n8x;
#X obj 554 292 r xaxisr;
#X obj 609 292 r yaxisr;
#N canvas 0 0 1366 726 resampler 0;
#X obj 408 194 inlet~;
#X obj 687 584 hip~ 5;
#X floatatom 689 102 4 0 100 0 - - -;
#X obj 688 531 *~;
#X floatatom 693 168 0 0 200 0 - - -;
#X obj 688 433 +~;
#X obj 687 385 samphold~;
#X obj 688 409 *~;
#X floatatom 1036 93 0 0 0 0 - - -;
#X text 805 137 chunk size;
#X text 802 151 in seconds;
#X obj 1050 159 t b f;
#X obj 853 464 -~ 0.5;
#X obj 853 488 *~ 0.5;
#X obj 853 511 cos~;
#X obj 1038 239 phasor~;
#X obj 1125 258 +~ 0.5;
#X obj 1126 284 wrap~;
#X obj 687 560 +~;
#X text 1072 98 <-- transposition \, halftones/10;
#X obj 689 122 * 0.001;
#X obj 671 289 phasor~;
#X obj 688 457 *~ 44100;
#X floatatom 1046 216 5 0 0 0 - - -;
#X obj 1163 158 t b f;
#X obj 688 201 * 0.01;
#X obj 939 540 *~;
#X obj 939 442 +~;
#X obj 938 394 samphold~;
#X obj 939 418 *~;
#X obj 1104 473 -~ 0.5;
#X obj 1104 497 *~ 0.5;
#X obj 1104 520 cos~;
#X obj 939 466 *~ 44100;
#X text 718 178 <-- precession \, percent;
#X obj 689 58 loadbang;
#X text 689 35 TIME COMPRESSION/EXPANSION BY LOOPED SAMPLING;
#X floatatom 820 244 10 0 900 0 - - -;
#X obj 820 267 * 0.001;
#X text 729 102 <-- chunk size (msec);
#X obj 820 292 t b f;
#X text 863 243 <-- loop length;
#X text 904 258 (msec);
#X obj 671 313 *~;
#X obj 688 246 /;
#X floatatom 917 312 10 0 0 0 - - -;
#X obj 894 82 r pgmout;
#X obj 889 111 == 8;
#X msg 878 133 stop;
#X obj 924 106 r loop_in_ms;
#X obj 941 129 sel 0 1;
#X msg 973 154 0;
#X msg 941 154 1;
#X obj 917 209 bng 15 250 50 0 empty empty empty 17 7 0 10 -262144
-1 -1;
#X obj 915 177 spigot 1;
#X obj 641 686 outlet~;
#X obj 639 438 inlet;
#X floatatom 585 317 10 0 0 0 - - -;
#X obj 547 294 r loopsize;
#X msg 730 175 100;
#X floatatom 647 474 5 0 0 0 - - -;
#X msg 1008 93 14;
#X obj 612 435 tgl 15 0 empty empty empty 17 7 0 10 -262144 -1 -1 0
1;
#X obj 636 155 * 2;
#X obj 1073 18 unpack f f f;
#X obj 519 451 r breath;
#X floatatom 492 479 5 0 0 0 - - -;
#X obj 525 480 / 64;
#X obj 615 408 r loop8;
#X floatatom 590 244 5 0 0 0 - - -;
#X obj 1038 191 expr (pow(2 \, $f1/12)-$f3)/$f2;
#X obj 841 397 samplerate~;
#X obj 842 373 loadbang;
#X obj 1398 454 poke~;
#N canvas 756 298 252 128 limiter-for-two-channels 0;
#X obj 24 22 inlet~;
#X msg 121 85 limit 100;
#X obj 121 21 loadbang;
#X obj 24 60 z~ 64;
#X obj 24 169 *~;
#X obj 24 200 outlet~;
#X obj 121 113 zexy/limiter~ 10;
#X connect 0 0 3 0;
#X connect 0 0 6 0;
#X connect 1 0 6 0;
#X connect 2 0 1 0;
#X connect 3 0 4 0;
#X connect 4 0 5 0;
#X connect 6 0 4 1;
#X restore 362 250 pd limiter-for-two-channels;
#X obj 417 308 bng 50 250 50 0 empty empty empty 17 7 0 10 -228856
-260097 -1;
#X msg 417 370 const 0;
#X text 469 325 clear loop;
#X obj 405 216 hip~ 5;
#X msg 480 153 0;
#X floatatom 1072 85 5 0 0 0 - - -;
#X msg 689 80 25;
#X msg 300 285 start;
#X obj 1072 65 - 64;
#X obj 618 98 r xaxis;
#X obj 572 171 mod 127;
#X floatatom 651 236 5 0 0 0 - - -;
#X obj 593 188 average 20;
#X obj 665 185 - 96;
#X obj 643 637 *~;
#X obj 633 578 lop~ 80;
#X obj 496 552 clip;
#X obj 636 502 int;
#X obj 632 543 sig~;
#X msg 854 347 -1;
#X text 903 337 use this to shift the play point backward to sync with
system loops;
#X obj 828 320 sel 0 1;
#X msg 822 346 1;
#X obj 687 483 +~ 1;
#X obj 938 492 +~ 1;
#N canvas 0 0 450 300 (subpatch) 0;
#X array table20 1.44e+006 float 0;
#X coords 0 1.02 1.44e+006 -1.02 200 130 1 0 0;
#X restore 256 450 graph;
#X floatatom 597 524 5 0 0 0 - - -;
#X obj 553 436 sel 0 1;
#N canvas 0 0 450 300 table 0;
#X restore 251 388 pd table;
#X obj 1070 47 ftom;
#X obj 1072 -2 r noteval;
#X obj 167 403 env~;
#X floatatom 169 422 5 0 0 0 - - -;
#X obj 496 204 -~;
#X obj 871 181 tgl 15 0 empty empty empty 17 7 0 10 -262144 -1 -1 0
1;
#X obj 716 262 cnv 15 40 40 empty empty change 20 12 0 14 -258113 -66577
0;
#X obj 168 458 env~;
#X floatatom 170 477 5 0 0 0 - - -;
#X obj 78 489 snapshot~;
#X obj 76 452 snapshot~;
#X floatatom 39 473 5 0 0 0 - - -;
#X floatatom 43 512 5 0 0 0 - - -;
#X obj 63 406 bng 15 250 50 0 empty empty empty 17 7 0 10 -262144 -1
-1;
#X obj 228 118;
#X floatatom 639 261 5 0 0 0 - - -;
#X obj 711 265 -;
#X floatatom 633 284 5 0 0 0 - - -;
#X msg 537 342 \; table20 resize \$1;
#X obj 277 336 tabwrite~ table20;
#X obj 429 395 s table20;
#X obj 688 507 tabread4~ table20;
#X obj 939 516 tabread4~ table20;
#X obj 916 292 arraysize table20;
#X obj 624 52 r \$0-n26x;
#X obj 634 129 r \$0-n25x;
#X obj 563 90 r \$0-n1x;
#X obj 624 21 r \$0-n2x;
#X obj 1125 406;
#X obj 1026 395 r~ phase2o1;
#X obj 974 419 r~ phase2o1;
#X obj 977 442 r~ read-pto1;
#X obj 726 433 r~ read-pto1;
#X obj 723 410 r~ phaseo1;
#X obj 775 386 r~ phaseo1;
#X obj 696 224 s precessiono1;
#X obj 689 145 s chunk-sizeo1;
#X obj 1050 134 r chunk-sizeo1;
#X obj 1163 133 r precessiono1;
#X obj 1126 309 s~ phase2o1;
#X obj 687 360 r chunk-sizeo1;
#X obj 687 338 s~ read-pto1;
#X obj 1038 265 s~ phaseo1;
#X obj 938 369 r chunk-sizeo1;
#X obj 853 440 r~ phaseo1;
#X obj 1104 449 r~ phase2o1;
#X obj 996 10 r alt-note;
#X floatatom 566 61 5 0 0 0 - - -;
#X obj 511 56 clip 0 127;
#X obj 503 24 - 10;
#X connect 0 0 78 0;
#X connect 1 0 89 0;
#X connect 2 0 20 0;
#X connect 3 0 18 0;
#X connect 4 0 25 0;
#X connect 5 0 22 0;
#X connect 6 0 7 0;
#X connect 7 0 5 0;
#X connect 8 0 70 0;
#X connect 11 0 70 0;
#X connect 11 1 70 1;
#X connect 12 0 13 0;
#X connect 13 0 14 0;
#X connect 14 0 3 1;
#X connect 15 0 16 0;
#X connect 15 0 146 0;
#X connect 16 0 17 0;
#X connect 17 0 143 0;
#X connect 18 0 1 0;
#X connect 20 0 140 0;
#X connect 21 0 43 0;
#X connect 22 0 98 0;
#X connect 24 0 70 0;
#X connect 24 1 70 2;
#X connect 25 0 44 0;
#X connect 25 0 139 0;
#X connect 26 0 18 1;
#X connect 27 0 33 0;
#X connect 28 0 29 0;
#X connect 29 0 27 0;
#X connect 30 0 31 0;
#X connect 31 0 32 0;
#X connect 32 0 26 1;
#X connect 33 0 99 0;
#X connect 35 0 81 0;
#X connect 37 0 38 0;
#X connect 38 0 40 0;
#X connect 38 0 43 1;
#X connect 40 0 44 0;
#X connect 40 1 44 1;
#X connect 43 0 145 0;
#X connect 44 0 119 0;
#X connect 44 0 120 0;
#X connect 44 0 21 0;
#X connect 46 0 47 0;
#X connect 47 0 48 0;
#X connect 47 0 50 0;
#X connect 47 0 79 0;
#X connect 47 0 109 0;
#X connect 48 0 123 0;
#X connect 49 0 54 0;
#X connect 50 0 52 0;
#X connect 50 0 59 0;
#X connect 50 0 61 0;
#X connect 50 0 81 0;
#X connect 50 1 51 0;
#X connect 51 0 54 1;
#X connect 52 0 54 1;
#X connect 53 0 127 0;
#X connect 54 0 53 0;
#X connect 54 0 37 0;
#X connect 54 0 82 0;
#X connect 56 0 60 0;
#X connect 56 0 92 0;
#X connect 58 0 122 0;
#X connect 58 0 57 0;
#X connect 59 0 4 0;
#X connect 61 0 8 0;
#X connect 62 0 102 0;
#X connect 62 0 92 0;
#X connect 63 0 85 0;
#X connect 63 0 87 0;
#X connect 63 0 88 0;
#X connect 64 0 104 0;
#X connect 65 0 67 0;
#X connect 67 0 66 0;
#X connect 68 0 62 0;
#X connect 70 0 15 0;
#X connect 70 0 23 0;
#X connect 71 0 22 1;
#X connect 71 0 33 1;
#X connect 72 0 71 0;
#X connect 75 0 76 0;
#X connect 76 0 124 0;
#X connect 78 0 123 0;
#X connect 81 0 2 0;
#X connect 82 0 123 0;
#X connect 83 0 80 0;
#X connect 83 0 8 0;
#X connect 88 0 86 0;
#X connect 88 0 4 0;
#X connect 89 0 55 0;
#X connect 90 0 89 1;
#X connect 92 0 93 0;
#X connect 92 0 101 0;
#X connect 93 0 90 0;
#X connect 94 0 98 1;
#X connect 94 0 99 1;
#X connect 96 1 94 0;
#X connect 97 0 98 1;
#X connect 97 0 99 1;
#X connect 98 0 125 0;
#X connect 99 0 126 0;
#X connect 104 0 83 0;
#X connect 105 0 64 0;
#X connect 106 0 107 0;
#X connect 106 0 114 0;
#X connect 109 0 120 1;
#X connect 111 0 112 0;
#X connect 111 0 113 0;
#X connect 113 0 116 0;
#X connect 114 0 115 0;
#X connect 117 0 114 0;
#X connect 117 0 113 0;
#X connect 120 0 121 0;
#X connect 125 0 3 0;
#X connect 126 0 26 0;
#X connect 127 0 45 0;
#X connect 128 0 153 0;
#X connect 129 0 63 0;
#X connect 130 0 63 0;
#X connect 131 0 151 0;
#X connect 131 0 153 0;
#X connect 133 0 28 1;
#X connect 134 0 29 1;
#X connect 135 0 27 1;
#X connect 136 0 5 1;
#X connect 137 0 7 1;
#X connect 138 0 6 1;
#X connect 141 0 11 0;
#X connect 142 0 24 0;
#X connect 144 0 6 0;
#X connect 147 0 28 0;
#X connect 148 0 12 0;
#X connect 149 0 30 0;
#X connect 152 0 2 0;
#X connect 153 0 152 0;
#X restore 479 143 pd resampler;
#X obj 688 85 s 8clear;
#N canvas 109 25 1208 722 mypitchshifter 0;
#X obj 197 318 e_pitchshift;
#X msg 266 295 pitch \$1;
#X floatatom 266 274 5 0 0 0 - - -;
#X text 309 274 Pitch Shift;
#X obj 268 148 r mynotemsg;
#X obj 269 171 unpack f f f;
#X obj 375 200 r breath;
#X obj 381 253 sig~;
#X obj 379 228 / 127;
#X obj 385 275 lop~ 80;
#X floatatom 416 228 5 0 0 0 - - -;
#X floatatom 405 310 5 0 0 0 - - -;
#X floatatom 279 193 5 0 0 0 - - -;
#X obj 272 226 mod 48;
#X floatatom 297 250 5 0 0 0 - - -;
#X obj 366 479 outlet~;
#X obj 198 295 inlet~;
#X obj 380 335 sig~;
#X obj 380 361 lop~ 80;
#X obj 365 387 *~;
#X text 192 245 was -28;
#X obj 380 309 * 1;
#X obj 265 253 - 64;
#X connect 0 0 19 0;
#X connect 1 0 0 1;
#X connect 2 0 1 0;
#X connect 4 0 5 0;
#X connect 5 0 12 0;
#X connect 5 0 22 0;
#X connect 6 0 8 0;
#X connect 7 0 9 0;
#X connect 8 0 7 0;
#X connect 8 0 10 0;
#X connect 8 0 21 0;
#X connect 13 0 14 0;
#X connect 13 0 22 0;
#X connect 16 0 0 0;
#X connect 17 0 18 0;
#X connect 18 0 19 1;
#X connect 19 0 15 0;
#X connect 21 0 11 0;
#X connect 21 0 17 0;
#X connect 22 0 2 0;
#X restore 412 295 pd mypitchshifter;
#X obj 77 274 sel 1 0;
#X floatatom 296 265 5 0 0 0 - - -;
#X obj 571 361 gverb;
#X obj 253 296 sig~;
#X obj 268 356 lop~ 80;
#X obj 232 404 *~;
#X floatatom 302 260 5 0 0 0 - - -;
#X floatatom 307 212 5 0 0 0 - - -;
#X obj 512 188 r breath;
#X obj 574 224 < 0;
#X obj 574 258 tgl 15 0 empty empty empty 17 7 0 10 -262144 -1 -1 0
1;
#X obj 274 219 / 16;
#X obj 481 41 r~ respchnl-l;
#N canvas 0 91 1366 726 resampler 0;
#X obj 408 194 inlet~;
#X obj 687 584 hip~ 5;
#X floatatom 689 102 4 0 100 0 - - -;
#X obj 688 531 *~;
#X floatatom 693 168 0 0 200 0 - - -;
#X obj 688 433 +~;
#X obj 687 385 samphold~;
#X obj 688 409 *~;
#X floatatom 1036 93 0 0 0 0 - - -;
#X text 805 137 chunk size;
#X text 802 151 in seconds;
#X obj 1050 159 t b f;
#X obj 853 464 -~ 0.5;
#X obj 853 488 *~ 0.5;
#X obj 853 511 cos~;
#X obj 1038 239 phasor~;
#X obj 1125 258 +~ 0.5;
#X obj 1126 284 wrap~;
#X obj 687 560 +~;
#X text 1072 98 <-- transposition \, halftones/10;
#X obj 689 122 * 0.001;
#X obj 671 289 phasor~;
#X obj 688 457 *~ 44100;
#X floatatom 1046 216 5 0 0 0 - - -;
#X obj 1163 158 t b f;
#X obj 688 201 * 0.01;
#X obj 939 540 *~;
#X obj 939 442 +~;
#X obj 938 394 samphold~;
#X obj 939 418 *~;
#X obj 1104 473 -~ 0.5;
#X obj 1104 497 *~ 0.5;
#X obj 1104 520 cos~;
#X obj 939 466 *~ 44100;
#X text 718 178 <-- precession \, percent;
#X obj 689 58 loadbang;
#X text 689 35 TIME COMPRESSION/EXPANSION BY LOOPED SAMPLING;
#X floatatom 820 244 10 0 900 0 - - -;
#X obj 820 267 * 0.001;
#X text 729 102 <-- chunk size (msec);
#X obj 820 292 t b f;
#X text 863 243 <-- loop length;
#X text 904 258 (msec);
#X obj 671 313 *~;
#X obj 688 246 /;
#X floatatom 917 312 10 0 0 0 - - -;
#X obj 894 82 r pgmout;
#X obj 889 111 == 8;
#X msg 878 133 stop;
#X obj 924 106 r loop_in_ms;
#X obj 941 129 sel 0 1;
#X msg 973 154 0;
#X msg 941 154 1;
#X obj 917 209 bng 15 250 50 0 empty empty empty 17 7 0 10 -262144
-1 -1;
#X obj 915 177 spigot 1;
#X obj 641 686 outlet~;
#X obj 639 438 inlet;
#X floatatom 585 317 10 0 0 0 - - -;
#X obj 547 294 r loopsize;
#X msg 730 175 100;
#X floatatom 647 474 5 0 0 0 - - -;
#X msg 1008 93 14;
#X obj 612 435 tgl 15 0 empty empty empty 17 7 0 10 -262144 -1 -1 0
1;
#X obj 636 155 * 2;
#X obj 519 451 r breath;
#X floatatom 492 479 5 0 0 0 - - -;
#X obj 525 480 / 64;
#X obj 615 408 r loop8;
#X floatatom 590 244 5 0 0 0 - - -;
#X obj 1038 191 expr (pow(2 \, $f1/12)-$f3)/$f2;
#X obj 841 397 samplerate~;
#X obj 842 373 loadbang;
#X obj 1398 454 poke~;
#N canvas 756 298 252 33 limiter-for-two-channels 0;
#X obj 24 22 inlet~;
#X msg 121 85 limit 100;
#X obj 121 21 loadbang;
#X obj 24 60 z~ 64;
#X obj 24 169 *~;
#X obj 24 200 outlet~;
#X obj 121 113 zexy/limiter~ 10;
#X connect 0 0 3 0;
#X connect 0 0 6 0;
#X connect 1 0 6 0;
#X connect 2 0 1 0;
#X connect 3 0 4 0;
#X connect 4 0 5 0;
#X connect 6 0 4 1;
#X restore 354 250 pd limiter-for-two-channels;
#X obj 417 308 bng 50 250 50 0 empty empty empty 17 7 0 10 -228856
-260097 -1;
#X msg 417 370 const 0;
#X text 469 325 clear loop;
#X obj 405 216 hip~ 5;
#X msg 480 153 0;
#X floatatom 1072 85 5 0 0 0 - - -;
#X msg 689 80 25;
#X msg 300 285 start;
#X obj 1072 65 - 64;
#X obj 572 171 mod 127;
#X floatatom 651 236 5 0 0 0 - - -;
#X obj 593 188 average 20;
#X obj 665 185 - 96;
#X obj 643 637 *~;
#X obj 633 578 lop~ 80;
#X obj 496 552 clip;
#X obj 636 502 int;
#X obj 632 543 sig~;
#X msg 854 347 -1;
#X text 903 337 use this to shift the play point backward to sync with
system loops;
#X obj 828 320 sel 0 1;
#X msg 822 346 1;
#X obj 687 483 +~ 1;
#X obj 938 492 +~ 1;
#N canvas 0 0 450 300 (subpatch) 0;
#X array table22 1.44e+006 float 0;
#X coords 0 1.02 1.44e+006 -1.02 200 130 1 0 0;
#X restore 256 450 graph;
#X obj 687 338 s~ read-pto;
#X obj 1126 309 s~ phase2o;
#X obj 689 145 s chunk-sizeo;
#X obj 1050 134 r chunk-sizeo;
#X obj 1163 133 r precessiono;
#X obj 696 224 s precessiono;
#X obj 687 360 r chunk-sizeo;
#X obj 775 386 r~ phaseo;
#X obj 1026 395 r~ phase2o;
#X obj 938 369 r chunk-sizeo;
#X obj 723 410 r~ phaseo;
#X obj 726 433 r~ read-pto;
#X obj 977 442 r~ read-pto;
#X obj 974 419 r~ phase2o;
#X obj 1104 449 r~ phase2o;
#X obj 853 440 r~ phaseo;
#X obj 1038 265 s~ phaseo;
#X floatatom 597 524 5 0 0 0 - - -;
#X obj 553 436 sel 0 1;
#N canvas 0 0 450 300 table 0;
#X restore 251 388 pd table;
#X obj 1077 39 ftom;
#X obj 1072 -2 r noteval;
#X obj 167 403 env~;
#X floatatom 169 422 5 0 0 0 - - -;
#X obj 496 204 -~;
#X obj 871 181 tgl 15 0 empty empty empty 17 7 0 10 -262144 -1 -1 0
1;
#X obj 716 262 cnv 15 40 40 empty empty change 20 12 0 14 -258113 -66577
0;
#X obj 168 458 env~;
#X floatatom 170 477 5 0 0 0 - - -;
#X obj 78 489 snapshot~;
#X obj 76 452 snapshot~;
#X floatatom 39 473 5 0 0 0 - - -;
#X floatatom 43 512 5 0 0 0 - - -;
#X obj 63 406 bng 15 250 50 0 empty empty empty 17 7 0 10 -262144 -1
-1;
#X obj 228 118;
#X floatatom 639 261 5 0 0 0 - - -;
#X obj 711 265 -;
#X floatatom 633 284 5 0 0 0 - - -;
#X msg 537 342 \; table22 resize \$1;
#X obj 277 336 tabwrite~ table22;
#X obj 688 507 tabread4~ table22;
#X obj 939 516 tabread4~ table22;
#X obj 916 292 arraysize table22;
#X obj 564 24 r parakey;
#X obj 565 60 == 1;
#X obj 634 129 r \$0-n27xr;
#X obj 624 52 r \$0-n28xr;
#X obj 574 96 r \$0-n1x;
#X obj 635 27 r \$0-n2x;
#X obj 429 395 s \$0-table22;
#X obj 1073 18 unpack f f f;
#X obj 521 66 clip 0 127;
#X obj 513 34 - 10;
#X connect 0 0 77 0;
#X connect 1 0 87 0;
#X connect 2 0 20 0;
#X connect 3 0 18 0;
#X connect 4 0 25 0;
#X connect 5 0 22 0;
#X connect 6 0 7 0;
#X connect 7 0 5 0;
#X connect 8 0 69 0;
#X connect 11 0 69 0;
#X connect 11 1 69 1;
#X connect 12 0 13 0;
#X connect 13 0 14 0;
#X connect 14 0 3 1;
#X connect 15 0 16 0;
#X connect 15 0 115 0;
#X connect 16 0 17 0;
#X connect 17 0 100 0;
#X connect 18 0 1 0;
#X connect 20 0 101 0;
#X connect 21 0 43 0;
#X connect 22 0 96 0;
#X connect 24 0 69 0;
#X connect 24 1 69 2;
#X connect 25 0 44 0;
#X connect 25 0 104 0;
#X connect 26 0 18 1;
#X connect 27 0 33 0;
#X connect 28 0 29 0;
#X connect 29 0 27 0;
#X connect 30 0 31 0;
#X connect 31 0 32 0;
#X connect 32 0 26 1;
#X connect 33 0 97 0;
#X connect 35 0 80 0;
#X connect 37 0 38 0;
#X connect 38 0 40 0;
#X connect 38 0 43 1;
#X connect 40 0 44 0;
#X connect 40 1 44 1;
#X connect 43 0 99 0;
#X connect 44 0 134 0;
#X connect 44 0 135 0;
#X connect 44 0 21 0;
#X connect 46 0 47 0;
#X connect 47 0 48 0;
#X connect 47 0 50 0;
#X connect 47 0 78 0;
#X connect 47 0 124 0;
#X connect 48 0 138 0;
#X connect 49 0 54 0;
#X connect 50 0 52 0;
#X connect 50 0 59 0;
#X connect 50 0 61 0;
#X connect 50 0 80 0;
#X connect 50 1 51 0;
#X connect 51 0 54 1;
#X connect 52 0 54 1;
#X connect 53 0 141 0;
#X connect 54 0 53 0;
#X connect 54 0 37 0;
#X connect 54 0 81 0;
#X connect 56 0 60 0;
#X connect 56 0 90 0;
#X connect 58 0 137 0;
#X connect 58 0 57 0;
#X connect 59 0 4 0;
#X connect 61 0 8 0;
#X connect 62 0 117 0;
#X connect 62 0 90 0;
#X connect 63 0 83 0;
#X connect 63 0 85 0;
#X connect 63 0 86 0;
#X connect 64 0 66 0;
#X connect 66 0 65 0;
#X connect 67 0 62 0;
#X connect 69 0 15 0;
#X connect 69 0 23 0;
#X connect 70 0 22 1;
#X connect 70 0 33 1;
#X connect 71 0 70 0;
#X connect 74 0 75 0;
#X connect 75 0 148 0;
#X connect 77 0 138 0;
#X connect 80 0 2 0;
#X connect 81 0 138 0;
#X connect 82 0 79 0;
#X connect 82 0 8 0;
#X connect 86 0 84 0;
#X connect 86 0 4 0;
#X connect 87 0 55 0;
#X connect 88 0 87 1;
#X connect 90 0 91 0;
#X connect 90 0 116 0;
#X connect 91 0 88 0;
#X connect 92 0 96 1;
#X connect 92 0 97 1;
#X connect 94 1 92 0;
#X connect 95 0 96 1;
#X connect 95 0 97 1;
#X connect 96 0 139 0;
#X connect 97 0 140 0;
#X connect 102 0 11 0;
#X connect 103 0 24 0;
#X connect 105 0 6 0;
#X connect 106 0 6 1;
#X connect 107 0 28 1;
#X connect 108 0 28 0;
#X connect 109 0 7 1;
#X connect 110 0 5 1;
#X connect 111 0 27 1;
#X connect 112 0 29 1;
#X connect 113 0 30 0;
#X connect 114 0 12 0;
#X connect 119 0 82 0;
#X connect 120 0 149 0;
#X connect 121 0 122 0;
#X connect 121 0 129 0;
#X connect 124 0 135 1;
#X connect 126 0 127 0;
#X connect 126 0 128 0;
#X connect 128 0 131 0;
#X connect 129 0 130 0;
#X connect 132 0 129 0;
#X connect 132 0 128 0;
#X connect 135 0 136 0;
#X connect 139 0 3 0;
#X connect 140 0 26 0;
#X connect 141 0 45 0;
#X connect 142 0 143 0;
#X connect 144 0 63 0;
#X connect 145 0 151 0;
#X connect 146 0 63 0;
#X connect 147 0 151 0;
#X connect 149 0 119 0;
#X connect 150 0 2 0;
#X connect 151 0 150 0;
#X restore 592 140 pd resampler;
#X obj 345 402 *~;
#X obj 594 38 r~ respchnl-r;
#X obj 199 761 s~ resampler-l;
#X obj 390 754 s~ resampler-r;
#X obj 1463 159 gesturenode;
#X floatatom 1335 353 5 0 0 0 - - -;
#X obj 1458 350 s \$0-n \$1 z;
#X obj 1378 351 s \$0-pgm;
#X obj 1352 129 r frange2;
#X obj 1528 125 r frange1;
#X obj 1411 373 r parakey;
#X obj 1330 448 gesturenode-r;
#X obj 1487 446 gesturenode-r;
#X obj 1307 158 gesturenode;
#X obj 1463 129 == 25;
#X obj 1487 422 == 25;
#X obj 1329 427 == 26;
#X obj 1316 130 == 26;
#X obj 1576 423 r frange5;
#X obj 1415 426 r frange6;
#X obj 1480 300 s \$0-n25y;
#X obj 1430 278 s \$0-n25x;
#X obj 1373 278 s \$0-n26z;
#X obj 1329 298 s \$0-n26y;
#X obj 1286 279 s \$0-n26x;
#X obj 1511 278 s \$0-n25z;
#X floatatom 1166 71 5 0 0 0 - - -;
#X obj 1330 578 s \$0-n28xr;
#X obj 1416 575 s \$0-n28zr;
#X obj 1374 597 s \$0-n28yr;
#X obj 1517 601 s \$0-n27yr;
#X obj 1478 578 s \$0-n27xr;
#X obj 1568 578 s \$0-n27zr;
#X obj 256 241 clip 0 1;
#X obj 102 101 cnv 15 59 58 empty empty empty 20 12 0 14 -4034 -66577
0;
#X obj 148 414 *~ 2;
#X obj 50 119 tgl 15 0 empty empty empty 17 7 0 10 -262144 -1 -1 0
1;
#X obj 45 84 change;
#X obj 46 18 r jrb2;
#X obj 47 52 spigot;
#X obj 291 421 sel 0 1;
#X msg 291 453 1 0;
#X msg 326 453 0 1;
#X obj 289 481 unpack;
#X obj 283 503 sig~;
#X obj 270 523 lop~ 80;
#X obj 340 499 sig~;
#X obj 331 523 lop~ 80;
#X obj 254 628 *~;
#X obj 255 576 *~;
#X obj 256 598 resampler2;
#X obj 405 420 sel 0 1;
#X msg 405 452 1 0;
#X msg 440 452 0 1;
#X obj 403 480 unpack;
#X obj 397 502 sig~;
#X obj 384 522 lop~ 80;
#X obj 454 498 sig~;
#X obj 445 522 lop~ 80;
#X obj 368 627 *~;
#X obj 369 575 *~;
#X obj 370 597 resampler2;
#X obj 344 574 *~;
#X obj 230 576 *~;
#X obj 522 78 r~ drum-resamp-r;
#X obj 399 294 sig~;
#X obj 414 354 lop~ 80;
#X obj 378 402 *~;
#X obj 491 400 *~;
#X obj 416 78 r~ drum-resamp-l;
#N canvas 129 193 1366 726 resamplerdl 0;
#X obj 408 194 inlet~;
#X obj 687 584 hip~ 5;
#X floatatom 689 102 4 0 100 0 - - -;
#X obj 688 531 *~;
#X floatatom 693 168 0 0 200 0 - - -;
#X obj 688 433 +~;
#X obj 687 385 samphold~;
#X obj 688 409 *~;
#X floatatom 1036 93 0 0 0 0 - - -;
#X text 805 137 chunk size;
#X text 802 151 in seconds;
#X obj 1050 159 t b f;
#X obj 853 464 -~ 0.5;
#X obj 853 488 *~ 0.5;
#X obj 853 511 cos~;
#X obj 1038 239 phasor~;
#X obj 1125 258 +~ 0.5;
#X obj 1126 284 wrap~;
#X obj 687 560 +~;
#X text 1072 98 <-- transposition \, halftones/10;
#X obj 689 122 * 0.001;
#X obj 671 289 phasor~;
#X obj 688 457 *~ 44100;
#X floatatom 1046 216 5 0 0 0 - - -;
#X obj 1163 158 t b f;
#X obj 688 201 * 0.01;
#X obj 939 540 *~;
#X obj 939 442 +~;
#X obj 938 394 samphold~;
#X obj 939 418 *~;
#X obj 1104 473 -~ 0.5;
#X obj 1104 497 *~ 0.5;
#X obj 1104 520 cos~;
#X obj 939 466 *~ 44100;
#X text 718 178 <-- precession \, percent;
#X obj 689 58 loadbang;
#X text 689 35 TIME COMPRESSION/EXPANSION BY LOOPED SAMPLING;
#X floatatom 820 244 10 0 900 0 - - -;
#X obj 820 267 * 0.001;
#X text 729 102 <-- chunk size (msec);
#X obj 820 292 t b f;
#X text 863 243 <-- loop length;
#X text 904 258 (msec);
#X obj 671 313 *~;
#X obj 688 246 /;
#X floatatom 917 312 10 0 0 0 - - -;
#X obj 894 82 r pgmout;
#X obj 889 111 == 8;
#X msg 878 133 stop;
#X obj 924 106 r loop_in_ms;
#X obj 941 129 sel 0 1;
#X msg 973 154 0;
#X msg 941 154 1;
#X obj 917 209 bng 15 250 50 0 empty empty empty 17 7 0 10 -262144
-1 -1;
#X obj 915 177 spigot 1;
#X obj 641 686 outlet~;
#X obj 639 438 inlet;
#X floatatom 585 317 10 0 0 0 - - -;
#X obj 547 294 r loopsize;
#X msg 730 175 100;
#X floatatom 647 474 5 0 0 0 - - -;
#X msg 1008 93 14;
#X obj 612 435 tgl 15 0 empty empty empty 17 7 0 10 -262144 -1 -1 0
1;
#X obj 636 155 * 2;
#X obj 1073 18 unpack f f f;
#X obj 519 451 r breath;
#X floatatom 492 479 5 0 0 0 - - -;
#X obj 525 480 / 64;
#X obj 615 408 r loop8;
#X floatatom 590 244 5 0 0 0 - - -;
#X obj 1038 191 expr (pow(2 \, $f1/12)-$f3)/$f2;
#X obj 841 397 samplerate~;
#X obj 842 373 loadbang;
#X obj 1398 454 poke~;
#N canvas 756 298 252 128 limiter-for-two-channels 0;
#X obj 24 22 inlet~;
#X msg 121 85 limit 100;
#X obj 121 21 loadbang;
#X obj 24 60 z~ 64;
#X obj 24 169 *~;
#X obj 24 200 outlet~;
#X obj 121 113 zexy/limiter~ 10;
#X connect 0 0 3 0;
#X connect 0 0 6 0;
#X connect 1 0 6 0;
#X connect 2 0 1 0;
#X connect 3 0 4 0;
#X connect 4 0 5 0;
#X connect 6 0 4 1;
#X restore 362 250 pd limiter-for-two-channels;
#X obj 417 308 bng 50 250 50 0 empty empty empty 17 7 0 10 -228856
-260097 -1;
#X msg 417 370 const 0;
#X text 469 325 clear loop;
#X obj 405 216 hip~ 5;
#X msg 480 153 0;
#X floatatom 1072 85 5 0 0 0 - - -;
#X msg 689 80 25;
#X msg 300 285 start;
#X obj 1072 65 - 64;
#X obj 618 98 r xaxis;
#X obj 572 171 mod 127;
#X floatatom 651 236 5 0 0 0 - - -;
#X obj 593 188 average 20;
#X obj 665 185 - 96;
#X obj 643 637 *~;
#X obj 633 578 lop~ 80;
#X obj 496 552 clip;
#X obj 636 502 int;
#X obj 632 543 sig~;
#X msg 854 347 -1;
#X text 903 337 use this to shift the play point backward to sync with
system loops;
#X obj 828 320 sel 0 1;
#X msg 822 346 1;
#X obj 687 483 +~ 1;
#X obj 938 492 +~ 1;
#N canvas 0 0 450 300 (subpatch) 0;
#X array table29 1.44e+006 float 0;
#X coords 0 1.02 1.44e+006 -1.02 200 130 1 0 0;
#X restore 256 450 graph;
#X floatatom 597 524 5 0 0 0 - - -;
#X obj 553 436 sel 0 1;
#N canvas 0 0 450 300 table 0;
#X restore 251 388 pd table;
#X obj 1070 47 ftom;
#X obj 1072 -2 r noteval;
#X obj 167 403 env~;
#X floatatom 169 422 5 0 0 0 - - -;
#X obj 496 204 -~;
#X obj 871 181 tgl 15 0 empty empty empty 17 7 0 10 -262144 -1 -1 0
1;
#X obj 716 262 cnv 15 40 40 empty empty change 20 12 0 14 -258113 -66577
0;
#X obj 168 458 env~;
#X floatatom 170 477 5 0 0 0 - - -;
#X obj 78 489 snapshot~;
#X obj 76 452 snapshot~;
#X floatatom 39 473 5 0 0 0 - - -;
#X floatatom 43 512 5 0 0 0 - - -;
#X obj 63 406 bng 15 250 50 0 empty empty empty 17 7 0 10 -262144 -1
-1;
#X obj 228 118;
#X floatatom 639 261 5 0 0 0 - - -;
#X obj 711 265 -;
#X floatatom 633 284 5 0 0 0 - - -;
#X obj 624 52 r \$0-n26x;
#X obj 634 129 r \$0-n25x;
#X obj 563 90 r \$0-n1x;
#X obj 624 21 r \$0-n2x;
#X obj 1125 406;
#X obj 996 10 r alt-note;
#X floatatom 566 61 5 0 0 0 - - -;
#X obj 511 56 clip 0 127;
#X obj 503 24 - 10;
#X obj 696 224 s precessiono3;
#X obj 689 145 s chunk-sizeo3;
#X obj 687 338 s~ read-pto3;
#X obj 687 360 r chunk-sizeo3;
#X obj 723 410 r~ phaseo3;
#X obj 726 433 r~ read-pto3;
#X obj 853 440 r~ phaseo3;
#X obj 938 369 r chunk-sizeo3;
#X obj 1026 395 r~ phase2o3;
#X obj 974 419 r~ phase2o3;
#X obj 977 442 r~ read-pto3;
#X obj 1104 449 r~ phase2o3;
#X obj 1126 309 s~ phase2o3;
#X obj 1163 133 r precessiono3;
#X obj 1050 134 r chunk-sizeo3;
#X obj 688 507 tabread4~ table29;
#X obj 939 516 tabread4~ table29;
#X obj 429 395 s table29;
#X obj 277 336 tabwrite~ table29;
#X msg 537 342 \; table29 resize \$1;
#X obj 916 292 arraysize table29;
#X obj 1038 265 s~ phaseo3;
#X obj 775 386 r~ phaseo3;
#X connect 0 0 78 0;
#X connect 1 0 89 0;
#X connect 2 0 20 0;
#X connect 3 0 18 0;
#X connect 4 0 25 0;
#X connect 5 0 22 0;
#X connect 6 0 7 0;
#X connect 7 0 5 0;
#X connect 8 0 70 0;
#X connect 11 0 70 0;
#X connect 11 1 70 1;
#X connect 12 0 13 0;
#X connect 13 0 14 0;
#X connect 14 0 3 1;
#X connect 15 0 16 0;
#X connect 15 0 152 0;
#X connect 16 0 17 0;
#X connect 17 0 143 0;
#X connect 18 0 1 0;
#X connect 20 0 132 0;
#X connect 21 0 43 0;
#X connect 22 0 98 0;
#X connect 24 0 70 0;
#X connect 24 1 70 2;
#X connect 25 0 44 0;
#X connect 25 0 131 0;
#X connect 26 0 18 1;
#X connect 27 0 33 0;
#X connect 28 0 29 0;
#X connect 29 0 27 0;
#X connect 30 0 31 0;
#X connect 31 0 32 0;
#X connect 32 0 26 1;
#X connect 33 0 99 0;
#X connect 35 0 81 0;
#X connect 37 0 38 0;
#X connect 38 0 40 0;
#X connect 38 0 43 1;
#X connect 40 0 44 0;
#X connect 40 1 44 1;
#X connect 43 0 133 0;
#X connect 44 0 119 0;
#X connect 44 0 120 0;
#X connect 44 0 21 0;
#X connect 46 0 47 0;
#X connect 47 0 48 0;
#X connect 47 0 50 0;
#X connect 47 0 79 0;
#X connect 47 0 109 0;
#X connect 48 0 149 0;
#X connect 49 0 54 0;
#X connect 50 0 52 0;
#X connect 50 0 59 0;
#X connect 50 0 61 0;
#X connect 50 0 81 0;
#X connect 50 1 51 0;
#X connect 51 0 54 1;
#X connect 52 0 54 1;
#X connect 53 0 151 0;
#X connect 54 0 53 0;
#X connect 54 0 37 0;
#X connect 54 0 82 0;
#X connect 56 0 60 0;
#X connect 56 0 92 0;
#X connect 58 0 150 0;
#X connect 58 0 57 0;
#X connect 59 0 4 0;
#X connect 61 0 8 0;
#X connect 62 0 102 0;
#X connect 62 0 92 0;
#X connect 63 0 85 0;
#X connect 63 0 87 0;
#X connect 63 0 88 0;
#X connect 64 0 104 0;
#X connect 65 0 67 0;
#X connect 67 0 66 0;
#X connect 68 0 62 0;
#X connect 70 0 15 0;
#X connect 70 0 23 0;
#X connect 71 0 22 1;
#X connect 71 0 33 1;
#X connect 72 0 71 0;
#X connect 75 0 76 0;
#X connect 76 0 148 0;
#X connect 78 0 149 0;
#X connect 81 0 2 0;
#X connect 82 0 149 0;
#X connect 83 0 80 0;
#X connect 83 0 8 0;
#X connect 88 0 86 0;
#X connect 88 0 4 0;
#X connect 89 0 55 0;
#X connect 90 0 89 1;
#X connect 92 0 93 0;
#X connect 92 0 101 0;
#X connect 93 0 90 0;
#X connect 94 0 98 1;
#X connect 94 0 99 1;
#X connect 96 1 94 0;
#X connect 97 0 98 1;
#X connect 97 0 99 1;
#X connect 98 0 146 0;
#X connect 99 0 147 0;
#X connect 104 0 83 0;
#X connect 105 0 64 0;
#X connect 106 0 107 0;
#X connect 106 0 114 0;
#X connect 109 0 120 1;
#X connect 111 0 112 0;
#X connect 111 0 113 0;
#X connect 113 0 116 0;
#X connect 114 0 115 0;
#X connect 117 0 114 0;
#X connect 117 0 113 0;
#X connect 120 0 121 0;
#X connect 122 0 130 0;
#X connect 123 0 63 0;
#X connect 124 0 63 0;
#X connect 125 0 128 0;
#X connect 125 0 130 0;
#X connect 129 0 2 0;
#X connect 130 0 129 0;
#X connect 134 0 6 0;
#X connect 135 0 7 1;
#X connect 136 0 5 1;
#X connect 137 0 12 0;
#X connect 138 0 28 0;
#X connect 139 0 28 1;
#X connect 140 0 29 1;
#X connect 141 0 27 1;
#X connect 142 0 30 0;
#X connect 144 0 24 0;
#X connect 145 0 11 0;
#X connect 146 0 3 0;
#X connect 147 0 26 0;
#X connect 151 0 45 0;
#X connect 153 0 6 1;
#X restore 408 117 pd resamplerdl;
#N canvas 0 91 1366 726 resamplerdr 0;
#X obj 408 194 inlet~;
#X obj 687 584 hip~ 5;
#X floatatom 689 102 4 0 100 0 - - -;
#X obj 688 531 *~;
#X floatatom 693 168 0 0 200 0 - - -;
#X obj 688 433 +~;
#X obj 687 385 samphold~;
#X obj 688 409 *~;
#X floatatom 1036 93 0 0 0 0 - - -;
#X text 805 137 chunk size;
#X text 802 151 in seconds;
#X obj 1050 159 t b f;
#X obj 853 464 -~ 0.5;
#X obj 853 488 *~ 0.5;
#X obj 853 511 cos~;
#X obj 1038 239 phasor~;
#X obj 1125 258 +~ 0.5;
#X obj 1126 284 wrap~;
#X obj 687 560 +~;
#X text 1072 98 <-- transposition \, halftones/10;
#X obj 689 122 * 0.001;
#X obj 671 289 phasor~;
#X obj 688 457 *~ 44100;
#X floatatom 1046 216 5 0 0 0 - - -;
#X obj 1163 158 t b f;
#X obj 688 201 * 0.01;
#X obj 939 540 *~;
#X obj 939 442 +~;
#X obj 938 394 samphold~;
#X obj 939 418 *~;
#X obj 1104 473 -~ 0.5;
#X obj 1104 497 *~ 0.5;
#X obj 1104 520 cos~;
#X obj 939 466 *~ 44100;
#X text 718 178 <-- precession \, percent;
#X obj 689 58 loadbang;
#X text 689 35 TIME COMPRESSION/EXPANSION BY LOOPED SAMPLING;
#X floatatom 820 244 10 0 900 0 - - -;
#X obj 820 267 * 0.001;
#X text 729 102 <-- chunk size (msec);
#X obj 820 292 t b f;
#X text 863 243 <-- loop length;
#X text 904 258 (msec);
#X obj 671 313 *~;
#X obj 688 246 /;
#X floatatom 917 312 10 0 0 0 - - -;
#X obj 894 82 r pgmout;
#X obj 889 111 == 8;
#X msg 878 133 stop;
#X obj 924 106 r loop_in_ms;
#X obj 941 129 sel 0 1;
#X msg 973 154 0;
#X msg 941 154 1;
#X obj 917 209 bng 15 250 50 0 empty empty empty 17 7 0 10 -262144
-1 -1;
#X obj 915 177 spigot 1;
#X obj 641 686 outlet~;
#X obj 639 438 inlet;
#X floatatom 585 317 10 0 0 0 - - -;
#X obj 547 294 r loopsize;
#X msg 730 175 100;
#X floatatom 647 474 5 0 0 0 - - -;
#X msg 1008 93 14;
#X obj 612 435 tgl 15 0 empty empty empty 17 7 0 10 -262144 -1 -1 0
1;
#X obj 636 155 * 2;
#X obj 519 451 r breath;
#X floatatom 492 479 5 0 0 0 - - -;
#X obj 525 480 / 64;
#X obj 615 408 r loop8;
#X floatatom 590 244 5 0 0 0 - - -;
#X obj 1038 191 expr (pow(2 \, $f1/12)-$f3)/$f2;
#X obj 841 397 samplerate~;
#X obj 842 373 loadbang;
#X obj 1398 454 poke~;
#N canvas 756 298 252 33 limiter-for-two-channels 0;
#X obj 24 22 inlet~;
#X msg 121 85 limit 100;
#X obj 121 21 loadbang;
#X obj 24 60 z~ 64;
#X obj 24 169 *~;
#X obj 24 200 outlet~;
#X obj 121 113 zexy/limiter~ 10;
#X connect 0 0 3 0;
#X connect 0 0 6 0;
#X connect 1 0 6 0;
#X connect 2 0 1 0;
#X connect 3 0 4 0;
#X connect 4 0 5 0;
#X connect 6 0 4 1;
#X restore 354 250 pd limiter-for-two-channels;
#X obj 417 308 bng 50 250 50 0 empty empty empty 17 7 0 10 -228856
-260097 -1;
#X msg 417 370 const 0;
#X text 469 325 clear loop;
#X obj 405 216 hip~ 5;
#X msg 480 153 0;
#X floatatom 1072 85 5 0 0 0 - - -;
#X msg 689 80 25;
#X msg 300 285 start;
#X obj 1072 65 - 64;
#X obj 572 171 mod 127;
#X floatatom 651 236 5 0 0 0 - - -;
#X obj 593 188 average 20;
#X obj 665 185 - 96;
#X obj 643 637 *~;
#X obj 633 578 lop~ 80;
#X obj 496 552 clip;
#X obj 636 502 int;
#X obj 632 543 sig~;
#X msg 854 347 -1;
#X text 903 337 use this to shift the play point backward to sync with
system loops;
#X obj 828 320 sel 0 1;
#X msg 822 346 1;
#X obj 687 483 +~ 1;
#X obj 938 492 +~ 1;
#N canvas 0 0 450 300 (subpatch) 0;
#X array table220 1.44e+006 float 0;
#X coords 0 1.02 1.44e+006 -1.02 200 130 1 0 0;
#X restore 256 450 graph;
#X floatatom 597 524 5 0 0 0 - - -;
#X obj 553 436 sel 0 1;
#N canvas 0 0 450 300 table 0;
#X restore 251 388 pd table;
#X obj 1077 39 ftom;
#X obj 1072 -2 r noteval;
#X obj 167 403 env~;
#X floatatom 169 422 5 0 0 0 - - -;
#X obj 496 204 -~;
#X obj 871 181 tgl 15 0 empty empty empty 17 7 0 10 -262144 -1 -1 0
1;
#X obj 716 262 cnv 15 40 40 empty empty change 20 12 0 14 -258113 -66577
0;
#X obj 168 458 env~;
#X floatatom 170 477 5 0 0 0 - - -;
#X obj 78 489 snapshot~;
#X obj 76 452 snapshot~;
#X floatatom 39 473 5 0 0 0 - - -;
#X floatatom 43 512 5 0 0 0 - - -;
#X obj 63 406 bng 15 250 50 0 empty empty empty 17 7 0 10 -262144 -1
-1;
#X obj 228 118;
#X floatatom 639 261 5 0 0 0 - - -;
#X obj 711 265 -;
#X floatatom 633 284 5 0 0 0 - - -;
#X obj 564 24 r parakey;
#X obj 565 60 == 1;
#X obj 634 129 r \$0-n27xr;
#X obj 624 52 r \$0-n28xr;
#X obj 574 96 r \$0-n1x;
#X obj 635 27 r \$0-n2x;
#X obj 1073 18 unpack f f f;
#X obj 521 66 clip 0 127;
#X obj 513 34 - 10;
#X obj 689 145 s chunk-sizeo4;
#X obj 687 338 s~ read-pto4;
#X obj 775 386 r~ phaseo4;
#X obj 723 410 r~ phaseo4;
#X obj 726 433 r~ read-pto4;
#X obj 853 440 r~ phaseo4;
#X obj 977 442 r~ read-pto4;
#X obj 974 419 r~ phase2o4;
#X obj 1026 395 r~ phase2o4;
#X obj 938 369 r chunk-sizeo4;
#X obj 1104 449 r~ phase2o4;
#X obj 1126 309 s~ phase2o4;
#X obj 1163 133 r precessiono4;
#X obj 1050 134 r chunk-sizeo4;
#X obj 696 224 s precessiono4;
#X obj 687 360 r chunk-sizeo4;
#X obj 277 336 tabwrite~ table220;
#X msg 537 342 \; table220 resize \$1;
#X obj 429 395 s \$0-table220;
#X obj 688 507 tabread4~ table220;
#X obj 939 516 tabread4~ table220;
#X obj 916 292 arraysize table220;
#X obj 1038 265 s~ phaseo4;
#X connect 0 0 77 0;
#X connect 1 0 87 0;
#X connect 2 0 20 0;
#X connect 3 0 18 0;
#X connect 4 0 25 0;
#X connect 5 0 22 0;
#X connect 6 0 7 0;
#X connect 7 0 5 0;
#X connect 8 0 69 0;
#X connect 11 0 69 0;
#X connect 11 1 69 1;
#X connect 12 0 13 0;
#X connect 13 0 14 0;
#X connect 14 0 3 1;
#X connect 15 0 16 0;
#X connect 15 0 151 0;
#X connect 16 0 17 0;
#X connect 17 0 140 0;
#X connect 18 0 1 0;
#X connect 20 0 129 0;
#X connect 21 0 43 0;
#X connect 22 0 96 0;
#X connect 24 0 69 0;
#X connect 24 1 69 2;
#X connect 25 0 44 0;
#X connect 25 0 143 0;
#X connect 26 0 18 1;
#X connect 27 0 33 0;
#X connect 28 0 29 0;
#X connect 29 0 27 0;
#X connect 30 0 31 0;
#X connect 31 0 32 0;
#X connect 32 0 26 1;
#X connect 33 0 97 0;
#X connect 35 0 80 0;
#X connect 37 0 38 0;
#X connect 38 0 40 0;
#X connect 38 0 43 1;
#X connect 40 0 44 0;
#X connect 40 1 44 1;
#X connect 43 0 130 0;
#X connect 44 0 117 0;
#X connect 44 0 118 0;
#X connect 44 0 21 0;
#X connect 46 0 47 0;
#X connect 47 0 48 0;
#X connect 47 0 50 0;
#X connect 47 0 78 0;
#X connect 47 0 107 0;
#X connect 48 0 145 0;
#X connect 49 0 54 0;
#X connect 50 0 52 0;
#X connect 50 0 59 0;
#X connect 50 0 61 0;
#X connect 50 0 80 0;
#X connect 50 1 51 0;
#X connect 51 0 54 1;
#X connect 52 0 54 1;
#X connect 53 0 150 0;
#X connect 54 0 53 0;
#X connect 54 0 37 0;
#X connect 54 0 81 0;
#X connect 56 0 60 0;
#X connect 56 0 90 0;
#X connect 58 0 146 0;
#X connect 58 0 57 0;
#X connect 59 0 4 0;
#X connect 61 0 8 0;
#X connect 62 0 100 0;
#X connect 62 0 90 0;
#X connect 63 0 83 0;
#X connect 63 0 85 0;
#X connect 63 0 86 0;
#X connect 64 0 66 0;
#X connect 66 0 65 0;
#X connect 67 0 62 0;
#X connect 69 0 15 0;
#X connect 69 0 23 0;
#X connect 70 0 22 1;
#X connect 70 0 33 1;
#X connect 71 0 70 0;
#X connect 74 0 75 0;
#X connect 75 0 147 0;
#X connect 77 0 145 0;
#X connect 80 0 2 0;
#X connect 81 0 145 0;
#X connect 82 0 79 0;
#X connect 82 0 8 0;
#X connect 86 0 84 0;
#X connect 86 0 4 0;
#X connect 87 0 55 0;
#X connect 88 0 87 1;
#X connect 90 0 91 0;
#X connect 90 0 99 0;
#X connect 91 0 88 0;
#X connect 92 0 96 1;
#X connect 92 0 97 1;
#X connect 94 1 92 0;
#X connect 95 0 96 1;
#X connect 95 0 97 1;
#X connect 96 0 148 0;
#X connect 97 0 149 0;
#X connect 102 0 82 0;
#X connect 103 0 126 0;
#X connect 104 0 105 0;
#X connect 104 0 112 0;
#X connect 107 0 118 1;
#X connect 109 0 110 0;
#X connect 109 0 111 0;
#X connect 111 0 114 0;
#X connect 112 0 113 0;
#X connect 115 0 112 0;
#X connect 115 0 111 0;
#X connect 118 0 119 0;
#X connect 120 0 121 0;
#X connect 122 0 63 0;
#X connect 123 0 128 0;
#X connect 124 0 63 0;
#X connect 125 0 128 0;
#X connect 126 0 102 0;
#X connect 127 0 2 0;
#X connect 128 0 127 0;
#X connect 131 0 6 1;
#X connect 132 0 7 1;
#X connect 133 0 5 1;
#X connect 134 0 12 0;
#X connect 135 0 27 1;
#X connect 136 0 29 1;
#X connect 137 0 28 1;
#X connect 138 0 28 0;
#X connect 139 0 30 0;
#X connect 141 0 24 0;
#X connect 142 0 11 0;
#X connect 144 0 6 0;
#X connect 148 0 3 0;
#X connect 149 0 26 0;
#X connect 150 0 45 0;
#X restore 521 114 pd resamplerdr;
#X obj 391 683 mono-bitcrusher /key;
#X obj 459 651 r \$0-n5x;
#X obj 404 653 r \$0-n5y;
#X obj 199 687 mono-bitcrusher /key;
#X obj 267 655 r \$0-n5x;
#X obj 212 657 r \$0-n5y;
#X obj 220 636 *~ 1;
#X obj 472 627 *~ 1;
#X connect 0 0 100 0;
#X connect 0 0 16 1;
#X connect 2 0 4 0;
#X connect 3 0 4 0;
#X connect 4 0 9 0;
#X connect 5 0 10 0;
#X connect 6 0 16 0;
#X connect 8 0 7 0;
#X connect 9 0 14 0;
#X connect 10 0 9 1;
#X connect 10 0 12 0;
#X connect 11 0 9 1;
#X connect 11 0 12 0;
#X connect 11 0 15 0;
#X connect 13 0 5 0;
#X connect 14 0 13 0;
#X connect 16 0 11 0;
#X connect 18 0 27 0;
#X connect 20 0 22 0;
#X connect 20 0 25 0;
#X connect 25 0 23 0;
#X connect 25 0 18 0;
#X connect 28 0 31 0;
#X connect 28 0 57 0;
#X connect 28 0 29 1;
#X connect 28 0 30 1;
#X connect 28 0 76 1;
#X connect 28 0 77 1;
#X connect 28 0 78 1;
#X connect 28 0 79 1;
#X connect 28 0 80 1;
#X connect 28 0 81 1;
#X connect 28 0 97 1;
#X connect 28 0 98 0;
#X connect 28 0 113 1;
#X connect 28 0 127 1;
#X connect 28 0 118 1;
#X connect 28 0 125 1;
#X connect 28 0 126 1;
#X connect 28 0 184 1;
#X connect 28 0 185 1;
#X connect 29 0 32 0;
#X connect 29 1 33 0;
#X connect 29 2 34 0;
#X connect 30 0 46 0;
#X connect 30 1 45 0;
#X connect 30 2 44 0;
#X connect 58 0 59 0;
#X connect 58 0 64 0;
#X connect 58 0 65 0;
#X connect 58 0 66 0;
#X connect 58 0 109 0;
#X connect 58 0 131 0;
#X connect 58 0 128 0;
#X connect 58 0 140 0;
#X connect 59 0 29 0;
#X connect 60 0 81 2;
#X connect 61 0 79 2;
#X connect 62 0 80 2;
#X connect 63 0 29 2;
#X connect 64 0 81 0;
#X connect 65 0 79 0;
#X connect 66 0 80 0;
#X connect 67 0 68 0;
#X connect 67 0 70 0;
#X connect 67 0 72 0;
#X connect 67 0 74 0;
#X connect 68 0 30 0;
#X connect 69 0 30 2;
#X connect 70 0 76 0;
#X connect 71 0 76 2;
#X connect 72 0 77 0;
#X connect 73 0 77 2;
#X connect 74 0 78 0;
#X connect 75 0 78 2;
#X connect 76 0 48 0;
#X connect 76 1 82 0;
#X connect 76 2 47 0;
#X connect 77 0 51 0;
#X connect 77 1 50 0;
#X connect 77 2 49 0;
#X connect 78 0 54 0;
#X connect 78 1 53 0;
#X connect 78 2 52 0;
#X connect 79 0 40 0;
#X connect 79 1 39 0;
#X connect 79 2 38 0;
#X connect 80 0 37 0;
#X connect 80 1 36 0;
#X connect 80 2 35 0;
#X connect 81 0 43 0;
#X connect 81 1 42 0;
#X connect 81 2 41 0;
#X connect 84 0 19 0;
#X connect 84 0 20 0;
#X connect 85 0 87 0;
#X connect 85 0 90 0;
#X connect 86 0 88 0;
#X connect 86 0 91 0;
#X connect 92 0 85 0;
#X connect 92 0 86 0;
#X connect 92 0 89 0;
#X connect 93 0 102 2;
#X connect 94 0 102 3;
#X connect 97 0 105 0;
#X connect 100 0 2 0;
#X connect 103 0 104 0;
#X connect 104 0 105 1;
#X connect 104 0 114 1;
#X connect 105 0 189 0;
#X connect 108 0 107 0;
#X connect 108 0 111 0;
#X connect 109 0 103 0;
#X connect 109 0 110 0;
#X connect 109 0 179 0;
#X connect 111 0 147 0;
#X connect 112 0 97 0;
#X connect 113 0 114 0;
#X connect 114 0 186 0;
#X connect 115 0 113 0;
#X connect 118 0 135 0;
#X connect 118 1 134 0;
#X connect 118 2 139 0;
#X connect 122 0 127 2;
#X connect 123 0 118 2;
#X connect 124 0 129 0;
#X connect 124 0 130 0;
#X connect 125 0 141 0;
#X connect 125 1 143 0;
#X connect 125 2 142 0;
#X connect 126 0 145 0;
#X connect 126 1 144 0;
#X connect 126 2 146 0;
#X connect 127 0 138 0;
#X connect 127 1 137 0;
#X connect 127 2 136 0;
#X connect 128 0 118 0;
#X connect 129 0 126 0;
#X connect 130 0 125 0;
#X connect 131 0 127 0;
#X connect 132 0 126 2;
#X connect 133 0 125 2;
#X connect 147 0 106 0;
#X connect 147 0 103 0;
#X connect 147 0 179 0;
#X connect 151 0 150 0;
#X connect 152 0 153 0;
#X connect 153 0 151 0;
#X connect 154 0 155 0;
#X connect 154 1 156 0;
#X connect 155 0 157 0;
#X connect 156 0 157 0;
#X connect 157 0 158 0;
#X connect 157 1 160 0;
#X connect 158 0 159 0;
#X connect 159 0 163 1;
#X connect 159 0 177 1;
#X connect 160 0 161 0;
#X connect 161 0 162 1;
#X connect 163 0 164 0;
#X connect 164 0 162 0;
#X connect 165 0 166 0;
#X connect 165 1 167 0;
#X connect 166 0 168 0;
#X connect 167 0 168 0;
#X connect 168 0 169 0;
#X connect 168 1 171 0;
#X connect 169 0 170 0;
#X connect 170 0 174 1;
#X connect 170 0 176 1;
#X connect 171 0 172 0;
#X connect 172 0 173 1;
#X connect 174 0 175 0;
#X connect 175 0 173 0;
#X connect 178 0 185 0;
#X connect 179 0 180 0;
#X connect 180 0 181 1;
#X connect 180 0 182 1;
#X connect 181 0 192 0;
#X connect 182 0 193 0;
#X connect 183 0 184 0;
#X connect 184 0 181 0;
#X connect 185 0 182 0;
#X connect 186 0 117 0;
#X connect 187 0 186 2;
#X connect 188 0 186 1;
#X connect 189 0 116 0;
#X connect 190 0 189 2;
#X connect 191 0 189 1;
#X connect 192 0 189 0;
#X connect 193 0 186 0;
#X coords 0 -1 1 1 60 60 2 100 100;
#X restore 526 114 pd resampler;
#X obj 375 -61 gdrumsynth3;
#X obj -116 -92 loadbang;
#X msg -114 -66 \; pd dsp 1;
#N canvas 0 0 650 300 kata 0;
#X obj -7083 148 osc~;
#X obj -7082 105 sig~;
#X obj -7084 127 mtof~;
#X obj -7076 69 r xaxis;
#X obj -6990 89 r yaxis;
#X floatatom -7131 88 5 0 0 0 - - -;
#X obj -6902 239 dac~;
#X obj -7010 153 mtof;
#X floatatom -6966 126 5 0 0 0 - - -;
#X obj -7019 185 bp~ 100 10;
#X floatatom -7008 170 10 0 0 0 - - -;
#X floatatom -6947 190 5 0 0 0 - - -;
#X obj -6965 147 / 10;
#X obj -6779 145 osc~;
#X obj -6778 102 sig~;
#X obj -6780 124 mtof~;
#X floatatom -6827 85 5 0 0 0 - - -;
#X obj -6706 150 mtof;
#X floatatom -6662 123 5 0 0 0 - - -;
#X obj -6782 180 bp~ 100 10;
#X floatatom -6648 162 10 0 0 0 - - -;
#X floatatom -6616 196 5 0 0 0 - - -;
#X obj -6589 138 / 10;
#X obj -6778 76 r xaxisr;
#X obj -6915 210 *~;
#X obj -6861 214 *~;
#X obj -6892 88 r zaxis;
#X obj -6902 167 sig~;
#X obj -6901 187 lop~ 80;
#X obj -6839 138 / 127;
#X obj -6847 161 sig~;
#X obj -6846 181 lop~ 80;
#X obj -6836 118 r zaxisr;
#X floatatom -6931 159 5 0 0 0 - - -;
#X floatatom -6812 160 5 0 0 0 - - -;
#X floatatom -6922 125 5 0 0 0 - - -;
#X msg -7039 87 127 \$1;
#X obj -7037 105 -;
#X msg -7006 114 127 \$1;
#X obj -7004 132 -;
#X obj -6724 91 r yaxisr;
#X msg -6718 111 127 \$1;
#X obj -6716 129 -;
#X obj -6894 144 / 127;
#X connect 0 0 9 0;
#X connect 1 0 2 0;
#X connect 2 0 0 0;
#X connect 3 0 36 0;
#X connect 4 0 38 0;
#X connect 7 0 9 1;
#X connect 7 0 10 0;
#X connect 8 0 12 0;
#X connect 9 0 24 0;
#X connect 12 0 11 0;
#X connect 12 0 9 2;
#X connect 13 0 19 0;
#X connect 14 0 15 0;
#X connect 15 0 13 0;
#X connect 17 0 19 1;
#X connect 17 0 20 0;
#X connect 18 0 17 0;
#X connect 19 0 25 0;
#X connect 22 0 21 0;
#X connect 22 0 19 2;
#X connect 23 0 14 0;
#X connect 23 0 16 0;
#X connect 26 0 35 0;
#X connect 26 0 43 0;
#X connect 27 0 28 0;
#X connect 28 0 24 1;
#X connect 29 0 30 0;
#X connect 29 0 34 0;
#X connect 29 0 22 0;
#X connect 30 0 31 0;
#X connect 31 0 25 1;
#X connect 32 0 29 0;
#X connect 36 0 37 0;
#X connect 37 0 1 0;
#X connect 37 0 5 0;
#X connect 38 0 39 0;
#X connect 39 0 7 0;
#X connect 40 0 41 0;
#X connect 41 0 42 0;
#X connect 42 0 17 0;
#X connect 43 0 27 0;
#X connect 43 0 33 0;
#X connect 43 0 12 0;
#X restore -37 -103 pd kata synth;
#X text 248 367 Can function be a Myth?;
#X obj 262 145 env~;
#X text 168 129 create a ducker for the drums and voice;
#X obj 219 -4 plucked~;
#X obj 444 -145 gdrumsynth;
#X connect 0 0 1 0;
#X connect 0 1 22 0;
#X connect 0 2 23 0;
#X connect 2 0 5 0;
#X connect 2 0 6 0;
#X connect 2 0 8 0;
#X connect 2 0 9 0;
#X connect 2 0 12 0;
#X connect 2 0 14 0;
#X connect 2 0 16 0;
#X connect 2 0 18 0;
#X connect 5 0 4 0;
#X connect 5 0 30 0;
#X connect 6 0 3 0;
#X connect 6 0 19 0;
#X connect 8 0 7 0;
#X connect 8 0 38 0;
#X connect 9 0 10 0;
#X connect 9 0 28 0;
#X connect 12 0 11 0;
#X connect 12 0 27 0;
#X connect 14 0 13 0;
#X connect 14 0 20 0;
#X connect 16 0 15 0;
#X connect 16 0 26 0;
#X connect 18 0 17 0;
#X connect 18 0 29 0;
#X connect 18 0 29 1;
#X connect 31 0 32 0;
#X coords 0 690 1 689 100 100 0;
