#N canvas 650 301 450 300 10;
#X declare -lib mrpeach;
#N canvas 17 494 1329 666 netrecieve 0;
#X floatatom -178 109 5 0 0 0 - - -;
#X floatatom -127 49 5 0 0 0 - - -;
#X obj -13 447 s yaxis;
#X obj -113 447 s xaxis;
#X obj -61 448 s zaxis;
#X obj -111 470 s xaxisr;
#X obj -57 470 s yaxisr;
#X obj -1 470 s zaxisr;
#X obj -345 307 s breath;
#X obj 157 358 s jlu4;
#X obj 114 359 s jlu3;
#X obj 69 359 s jlu2;
#X obj 23 358 s jlu1;
#X obj 36 187 s jrb1;
#X obj 89 184 s jrb2;
#X obj 143 186 s jrb3;
#X obj 196 187 s jrb4;
#X obj 33 210 s rjuforward;
#X obj 110 209 s rjuback;
#X obj 170 209 s rjuup;
#X obj 218 209 s rjudown;
#X floatatom -87 48 5 0 0 0 - - -;
#X floatatom -48 49 5 0 0 0 - - -;
#X obj -404 307 s pgmout;
#X obj -285 308 s noteval;
#X obj -222 309 s mynotemsg;
#X obj -149 308 s parakey;
#X obj 239 355 s loop_in_ms;
#X obj 99 255 s frange1;
#X obj 162 254 s frange2;
#X obj 225 253 s frange3;
#X obj 288 252 s frange4;
#X obj 101 280 s frange5;
#X obj 164 279 s frange6;
#X obj 227 278 s frange7;
#X obj 290 277 s frange8;
#X obj -227 164 outlet;
#X obj 425 333 s loopsize;
#X obj 373 303 s packedindex;
#X obj 473 228 s clear;
#X obj 409 228 s filerec;
#X obj 197 421 s looperctrl;
#X obj 367 173 s alarm;
#X obj 293 419 s mute1;
#X obj 353 420 s mute2;
#X obj 393 463 s fb1;
#X obj 431 463 s fb2;
#X obj 470 463 s fb3;
#X obj 508 463 s fb4;
#X obj 548 463 s fb5;
#X obj 586 463 s fb6;
#X obj 625 463 s fb7;
#X obj 663 463 s fb8;
#X obj 406 420 s mute3;
#X obj 466 421 s mute4;
#X obj 522 421 s mute5;
#X obj 582 422 s mute6;
#X obj 635 422 s mute7;
#X obj 695 423 s mute8;
#X obj 504 157 s looprec;
#X obj 117 53 route 1 2 3 4 5 6 7 8 9 10 11 12 13 14 15 16 17 18 19
20 21 22 23 24 25 26 27 28 29 30 31 32 33 34 35 36 37 38 39 40 41 42
43 44 45 46 47 48 49 50 51 52 53 54;
#X obj 709 313 vline~;
#X obj 709 336 s~ vline;
#X msg 707 292 0 \, \$2 \$1;
#X msg 790 353 set \$1 \$2;
#X msg 792 395 1.44e+006 30000;
#X obj 703 213 r loop_in_ms;
#X obj 788 213 r loopsize;
#X obj 726 257 pack f f;
#X obj -312 109 netreceive 13001;
#X connect 60 0 1 0;
#X connect 60 0 23 0;
#X connect 60 1 21 0;
#X connect 60 1 8 0;
#X connect 60 2 22 0;
#X connect 60 2 24 0;
#X connect 60 3 25 0;
#X connect 60 4 26 0;
#X connect 60 5 3 0;
#X connect 60 6 4 0;
#X connect 60 7 2 0;
#X connect 60 8 5 0;
#X connect 60 9 6 0;
#X connect 60 10 7 0;
#X connect 60 11 12 0;
#X connect 60 12 11 0;
#X connect 60 13 10 0;
#X connect 60 14 9 0;
#X connect 60 14 41 0;
#X connect 60 15 13 0;
#X connect 60 16 14 0;
#X connect 60 17 15 0;
#X connect 60 18 16 0;
#X connect 60 19 17 0;
#X connect 60 20 18 0;
#X connect 60 21 19 0;
#X connect 60 22 20 0;
#X connect 60 23 27 0;
#X connect 60 24 28 0;
#X connect 60 25 29 0;
#X connect 60 26 30 0;
#X connect 60 27 31 0;
#X connect 60 28 32 0;
#X connect 60 29 33 0;
#X connect 60 30 34 0;
#X connect 60 31 35 0;
#X connect 60 32 38 0;
#X connect 60 33 37 0;
#X connect 60 34 40 0;
#X connect 60 35 39 0;
#X connect 60 36 42 0;
#X connect 60 37 43 0;
#X connect 60 38 44 0;
#X connect 60 39 53 0;
#X connect 60 40 54 0;
#X connect 60 41 55 0;
#X connect 60 42 56 0;
#X connect 60 43 57 0;
#X connect 60 44 58 0;
#X connect 60 45 45 0;
#X connect 60 46 46 0;
#X connect 60 47 47 0;
#X connect 60 48 48 0;
#X connect 60 49 49 0;
#X connect 60 50 50 0;
#X connect 60 51 51 0;
#X connect 60 52 52 0;
#X connect 60 53 59 0;
#X connect 61 0 62 0;
#X connect 63 0 61 0;
#X connect 63 0 64 0;
#X connect 64 0 65 0;
#X connect 66 0 68 0;
#X connect 67 0 68 1;
#X connect 68 0 63 0;
#X connect 69 0 60 0;
#X connect 69 1 0 0;
#X connect 69 1 36 0;
#X restore 110 86 pd netrecieve 1;
#X obj 113 114 tgl 40 0 empty empty BJnet 40 7 0 10 -4034 -1 -1 0 1
;
#X obj 11 43 loadbang;
#X obj 1 79 import mrpeach;
#X obj -21 59 bng 15 250 50 0 empty empty empty 17 7 0 10 -262144 -1
-1;
#X obj 42 113 gemhead;
#X obj 116 245 gemlist;
#X msg 116 202 20;
#X obj 116 223 until;
#X obj 42 159 route gem_state;
#X obj 42 181 route float;
#X obj 42 137 t a a;
#X obj 116 269 rotateXYZ 10 20 30;
#X obj 190 423 gemlist;
#X msg 190 380 20;
#X obj 190 401 until;
#X obj 116 337 route gem_state;
#X obj 116 359 route float;
#X obj 116 315 t a a;
#X obj 190 447 rotateXYZ 10 20 30;
#X obj 190 507 cube 0.1;
#X obj 116 290 separator;
#N canvas 0 0 450 300 light 0;
#X obj 225 45 gemhead 10;
#X floatatom 258 78 5 0 0 0 - - -;
#X floatatom 299 77 5 0 0 0 - - -;
#X floatatom 341 78 5 0 0 0 - - -;
#X msg 319 150 1 0 0;
#X obj 225 227 world_light;
#X msg 333 173 0.4 0.4 0.4;
#X msg 309 127 0 0 0;
#X obj 228 160 tgl 15 0 empty empty empty 0 -6 0 8 -262144 -1 -1 0
1;
#X msg 228 181 debug \$1;
#X obj 225 103 rotateXYZ 0 30 0;
#X obj 27 51 gemhead 10;
#X floatatom 60 84 5 0 0 0 - - -;
#X floatatom 101 83 5 0 0 0 - - -;
#X floatatom 143 84 5 0 0 0 - - -;
#X msg 121 156 1 0 0;
#X obj 27 233 world_light;
#X msg 130 173 0.4 0.4 0.4;
#X msg 111 133 0 0 0;
#X obj 30 166 tgl 15 0 empty empty empty 0 -6 0 8 -262144 -1 -1 0 1
;
#X msg 30 187 debug \$1;
#X obj 27 109 rotateXYZ 0 -90 0;
#X msg 362 225 0.8 0.8 0.8;
#X msg 144 199 0.7 0.7 0.7;
#X msg 346 198 0.6 0.6 0.6;
#X obj 408 87 loadbang;
#X connect 0 0 10 0;
#X connect 1 0 10 1;
#X connect 2 0 10 2;
#X connect 3 0 10 3;
#X connect 4 0 5 1;
#X connect 6 0 5 1;
#X connect 7 0 5 1;
#X connect 8 0 9 0;
#X connect 9 0 5 0;
#X connect 10 0 5 0;
#X connect 11 0 21 0;
#X connect 12 0 21 1;
#X connect 13 0 21 2;
#X connect 14 0 21 3;
#X connect 15 0 16 1;
#X connect 17 0 16 1;
#X connect 18 0 16 1;
#X connect 19 0 20 0;
#X connect 20 0 16 0;
#X connect 21 0 16 0;
#X connect 22 0 5 1;
#X connect 23 0 16 1;
#X connect 24 0 5 1;
#X connect 25 0 23 0;
#X connect 25 0 24 0;
#X restore 310 162 pd light;
#X obj 310 141 gemwin;
#X msg 310 114 lighting 1 \, create \, 1;
#X obj 190 487 translateXYZ 0.3 0 0;
#X floatatom 262 424 5 0 0 0 - - -;
#X floatatom 302 425 5 0 0 0 - - -;
#X floatatom 344 425 5 0 0 0 - - -;
#X floatatom 264 466 5 0 0 0 - - -;
#X floatatom 310 466 5 0 0 0 - - -;
#X floatatom 352 467 5 0 0 0 - - -;
#X floatatom 186 246 5 0 0 0 - - -;
#X floatatom 226 247 5 0 0 0 - - -;
#X floatatom 268 247 5 0 0 0 - - -;
#X text 319 248 <- fun 1;
#X text 396 426 <- fun 2;
#X text 399 467 <- fun 3;
#X connect 0 0 1 0;
#X connect 2 0 3 0;
#X connect 4 0 3 0;
#X connect 5 0 11 0;
#X connect 6 0 12 0;
#X connect 7 0 8 0;
#X connect 8 0 6 0;
#X connect 9 0 10 0;
#X connect 10 1 7 0;
#X connect 11 0 9 0;
#X connect 11 1 6 1;
#X connect 12 0 21 0;
#X connect 13 0 19 0;
#X connect 14 0 15 0;
#X connect 15 0 13 0;
#X connect 16 0 17 0;
#X connect 17 1 14 0;
#X connect 18 0 16 0;
#X connect 18 1 13 1;
#X connect 19 0 25 0;
#X connect 21 0 18 0;
#X connect 24 0 23 0;
#X connect 25 0 20 0;
#X connect 26 0 19 1;
#X connect 27 0 19 2;
#X connect 28 0 19 3;
#X connect 29 0 25 1;
#X connect 30 0 25 2;
#X connect 31 0 25 3;
#X connect 32 0 12 1;
#X connect 33 0 12 2;
#X connect 34 0 12 3;
