#N canvas 0 0 450 300 10;
#X text -41 19 note number;
#X text -127 37 breath;
#X floatatom -64 211 5 0 0 0 - - -;
#X floatatom -147 211 5 0 0 0 - - -;
#X obj -55 180 f \$1;
#X obj -122 63 > 0;
#X obj -86 266 int;
#X obj -147 349 pack f f;
#X obj -122 180 sel 1 0;
#X msg -64 355 \$1 0;
#X obj -147 377 flush;
#X obj -122 86 tgl 15 0 empty empty empty 17 7 0 10 -262144 -1 -1 0
1;
#X obj -89 376 bng 15 250 50 0 empty empty empty 17 7 0 10 -262144
-1 -1;
#X obj -101 236 delay;
#X obj -102 321 moses 1;
#N canvas 659 176 236 152 bk 0;
#X obj 99 39 tgl 15 0 empty empty empty 17 7 0 10 -262144 -1 -1 0 3
;
#X obj 88 113 tgl 15 0 empty empty empty 17 7 0 10 -262144 -1 -1 0
0.596351;
#X obj 62 44 * 3;
#X floatatom 27 51 5 0 0 0 - - -;
#X obj 59 9 inlet;
#X obj 91 164 outlet;
#X obj 70 155 bng 15 250 50 0 empty empty empty 17 7 0 10 -262144 -1
-1;
#X msg 90 137 1;
#X floatatom 38 119 5 0 0 0 - - -;
#X obj 44 84 threshold 2 0 2 0;
#X connect 1 0 7 0;
#X connect 2 0 0 0;
#X connect 2 0 3 0;
#X connect 2 0 9 0;
#X connect 4 0 2 0;
#X connect 7 0 5 0;
#X connect 9 0 1 0;
#X connect 9 0 8 0;
#X connect 9 1 1 0;
#X restore -110 129 pd bk;
#X obj 74 285 spigot;
#X obj 71 306 average 2;
#X floatatom 95 36 5 0 0 0 - - -;
#X text 73 58 program change;
#X floatatom 386 114 5 0 0 0 - - -;
#X obj 44 75 pgmout;
#X obj 299 163 +;
#X obj 40 154 s pgm2chnl;
#X obj -138 404 pack f f f;
#X obj -143 434 sustain;
#X obj 154 201 r cc2;
#X obj 199 246 tgl 15 0 empty empty empty 17 7 0 10 -262144 -1 -1 0
2.5;
#X obj 154 222 select 1;
#X obj 199 266 spigot;
#X obj 314 114 r transpose;
#X obj 199 291 tgl 15 0 empty empty empty 17 7 0 10 -262144 -1 -1 0
4.5;
#X obj 318 136 s transdisp;
#X obj -90 436 s controllernotes;
#X obj 70 242 s cc18 pgm2chnl;
#X obj 42 38 r pgmout;
#X obj 74 350 s cc2;
#X obj -63 374 s noteoff;
#X obj 299 207 r lje;
#X obj 294 381 tgl 15 0 empty empty empty 17 7 0 10 -262144 -1 -1 0
1;
#X obj 294 281 t b b;
#X obj 294 320 f;
#X obj 294 343 + 1;
#X msg 321 303 1;
#X obj 294 364 bng 15 250 50 0 empty empty empty 17 7 0 10 -262144
-1 -1;
#X obj 301 258 delay 50;
#X obj 299 231 sel 1;
#X obj 261 399 spigot;
#X obj 261 419 tgl 15 0 empty empty empty 17 7 0 10 -262144 -1 -1 0
1;
#X text 176 37 sustain can be toggled on/off with the left-west joystick/position
run the [flush]into [sustain] then [sustain] into [noteout] with the
channel going there also. get rid of the [pack f f f ]. backup before
doing any of this;
#X obj 308 399 s toscsustain;
#X obj 42 200 t f f f f f f f;
#X obj -43 90 tgl 15 0 empty empty empty 17 7 0 10 -262144 -1 -1 0
1;
#X obj -3 89 bng 15 250 50 0 empty empty empty 17 7 0 10 -262144 -1
-1;
#X obj -5 115 spigot;
#X msg -43 114 100;
#X obj -149 151 bng 15 250 50 0 empty empty empty 17 7 0 10 -262144
-1 -1;
#X obj 272 114 r note;
#X obj -86 38 r breath;
#X obj -140 458 pack f f f;
#X obj -140 478 s mynotemsg;
#X obj 69 329 print breath;
#X obj -66 478 print note;
#X obj -135 528 noteout;
#X obj -141 503 unpack f f f;
#X obj 66 388 ctlout 2;
#X obj 232 221 == 6;
#X obj 110 82 sel 0 1;
#X msg 155 113 0;
#X msg 122 113 1;
#X obj 118 144 spigot;
#X obj -140 105 s hit;
#X obj -43 64 == 7;
#X connect 2 0 9 0;
#X connect 2 0 53 0;
#X connect 3 0 13 0;
#X connect 3 0 7 0;
#X connect 4 0 2 0;
#X connect 4 0 3 0;
#X connect 5 0 11 0;
#X connect 6 0 14 0;
#X connect 7 0 10 0;
#X connect 8 0 3 0;
#X connect 8 1 2 0;
#X connect 9 0 12 0;
#X connect 9 0 37 0;
#X connect 10 0 24 0;
#X connect 10 0 25 0;
#X connect 10 1 24 1;
#X connect 10 1 25 1;
#X connect 11 0 47 0;
#X connect 11 0 15 0;
#X connect 11 0 16 1;
#X connect 11 0 71 0;
#X connect 12 0 10 0;
#X connect 13 0 6 0;
#X connect 14 0 7 1;
#X connect 14 1 7 1;
#X connect 15 0 56 0;
#X connect 15 0 8 0;
#X connect 16 0 17 0;
#X connect 17 0 36 0;
#X connect 17 0 61 0;
#X connect 22 0 4 0;
#X connect 24 0 33 0;
#X connect 25 0 59 0;
#X connect 25 1 59 1;
#X connect 26 0 28 0;
#X connect 27 0 29 0;
#X connect 28 1 27 0;
#X connect 29 0 31 0;
#X connect 30 0 20 0;
#X connect 30 0 22 1;
#X connect 30 0 32 0;
#X connect 35 0 18 0;
#X connect 35 0 21 0;
#X connect 35 0 23 0;
#X connect 35 0 51 0;
#X connect 38 0 46 0;
#X connect 39 0 47 1;
#X connect 39 0 50 0;
#X connect 40 0 41 0;
#X connect 40 1 43 0;
#X connect 41 0 42 0;
#X connect 42 0 44 0;
#X connect 43 0 41 1;
#X connect 44 0 39 0;
#X connect 45 0 40 0;
#X connect 46 0 45 0;
#X connect 47 0 48 0;
#X connect 48 0 25 2;
#X connect 51 2 34 0;
#X connect 51 4 59 2;
#X connect 51 5 66 0;
#X connect 51 6 72 0;
#X connect 52 0 8 0;
#X connect 52 0 55 0;
#X connect 52 0 54 1;
#X connect 52 0 67 0;
#X connect 53 0 54 0;
#X connect 54 0 55 0;
#X connect 55 0 6 0;
#X connect 57 0 22 0;
#X connect 58 0 16 0;
#X connect 58 0 6 0;
#X connect 58 0 65 0;
#X connect 58 0 70 0;
#X connect 59 0 60 0;
#X connect 59 0 62 0;
#X connect 59 0 64 0;
#X connect 64 0 63 0;
#X connect 64 1 63 1;
#X connect 64 2 63 2;
#X connect 66 0 29 1;
#X connect 67 0 69 0;
#X connect 67 1 68 0;
#X connect 68 0 70 1;
#X connect 69 0 70 1;
#X connect 70 0 5 0;
#X connect 72 0 52 0;
