#N canvas 0 0 450 300 10;
#X obj 402 110 inlet~;
#X obj 456 111 inlet~;
#X obj 418 147 +~;
#X obj 399 178 min~ 1;
#X obj 453 181 max~ 1;
#X obj 454 202 -~ 1;
#X obj 455 223 *~ 1e+009;
#X obj 455 245 min~ 1;
#X obj 399 270 -~;
#X obj 399 294 +~ 0.1;
#X obj 397 321 *~;
#X obj 398 344 *~ 12;
#X obj 399 378 cos~;
#X obj 401 405 *~;
#X obj 398 436 hip~ 300;
#X obj 403 466 outlet~;
#X connect 0 0 2 0;
#X connect 1 0 2 1;
#X connect 2 0 3 0;
#X connect 2 0 4 0;
#X connect 3 0 8 0;
#X connect 4 0 5 0;
#X connect 5 0 6 0;
#X connect 6 0 7 0;
#X connect 7 0 8 1;
#X connect 8 0 9 0;
#X connect 8 0 13 1;
#X connect 9 0 10 0;
#X connect 9 0 10 1;
#X connect 10 0 11 0;
#X connect 11 0 12 0;
#X connect 12 0 13 0;
#X connect 13 0 14 0;
#X connect 14 0 15 0;
