#N canvas 33 16 1366 695 10;
#X obj 141 375 comb 80 0.2;
#X obj 194 53 phasor~ 99.8;
#X obj 214 74 phasor~ 100.2;
#X obj 237 188 lop~ 2;
#X obj 237 208 lop~ 2;
#X obj 236 240 *~;
#X obj 195 272 clip~ -0.5 0.5;
#X obj 193 328 *~;
#X obj 652 283 chrplz;
#X obj 650 96 phasor~ -99.8;
#X obj 818 88 phasor~ 100.2;
#X obj 848 129 noise~;
#X obj 848 154 lop~ 2;
#X obj 848 174 lop~ 2;
#X obj 847 206 *~;
#X obj 689 125 noise~;
#X obj 689 150 lop~ 0.1;
#X obj 689 170 lop~ 0.1;
#X obj 688 202 max~ 0;
#X obj 686 227 *~ 700;
#X obj 686 254 +~ 3;
#X obj 590 331 randgate 3 0.0008;
#X obj 845 230 *~ 500;
#X obj 850 255 +~ 20;
#X obj 766 285 *~;
#X obj 767 316 clip~ -0.5 0.1;
#X obj 764 358 lop~ 15;
#X obj 764 383 lop~ 15;
#X obj 764 403 *~ 500;
#X obj 763 435 max~ 0.1;
#X obj 761 460 -~ 0.1;
#X obj 761 487 *~ 1e+009;
#X obj 761 512 clip~ 0 1;
#X obj 762 535 lop~ 30;
#X obj 724 568 *~;
#X obj 718 647 *~ 0.6;
#X obj 863 470 threshold~ 0.03 0 0 0;
#X obj 825 603 comb 80 0.2;
#X obj 864 503 snap 1.8;
#X floatatom 915 208 5 0 0 0 - - -;
#X floatatom 784 207 5 0 0 0 - - -;
#X obj 652 65 sig~;
#X obj 816 51 sig~;
#X floatatom 706 67 5 0 0 0 - - -;
#X floatatom 902 67 5 0 0 0 - - -;
#X floatatom 280 184 5 0 0 0 - - -;
#X floatatom 332 271 5 0 0 0 - - -;
#X floatatom 223 32 5 0 0 0 - - -;
#X obj 302 9 * 300;
#X floatatom 305 29 5 0 0 0 - - -;
#X obj 198 4 * 100;
#X obj 196 29 + 50;
#X obj 213 151 -~ 1;
#X obj 183 77 cos~;
#X obj 258 117 +~;
#X obj 125 341 +~ 20;
#X obj 254 147 noise~;
#X obj 348 379 comb 80 0.2;
#X obj 414 64 phasor~ 99.8;
#X obj 434 85 phasor~ 100.2;
#X obj 457 199 lop~ 2;
#X obj 457 219 lop~ 2;
#X obj 456 251 *~;
#X obj 415 283 clip~ -0.5 0.5;
#X obj 413 339 *~;
#X floatatom 500 195 5 0 0 0 - - -;
#X floatatom 552 282 5 0 0 0 - - -;
#X floatatom 446 34 5 0 0 0 - - -;
#X obj 522 4 * 300;
#X floatatom 537 44 5 0 0 0 - - -;
#X obj 421 6 * 100;
#X obj 426 306 *~ 500;
#X obj 433 162 -~ 1;
#X obj 403 88 cos~;
#X obj 478 128 +~;
#X obj 345 352 +~ 20;
#X obj 474 158 noise~;
#X obj 415 36 + 70;
#X obj 507 36 + 40;
#X obj 206 295 *~ 700;
#X obj 308 93 osc~;
#X obj 541 127 osc~;
#X obj 871 538 *~ 0.001;
#X obj 319 510 -~ 2;
#X floatatom 692 40 5 0 0 0 - - -;
#X obj 653 16 * 100;
#X obj 656 37 + 50;
#X obj 810 6 * 300;
#X floatatom 780 39 5 0 0 0 - - -;
#X floatatom 101 446 5 0 0 0 - - -;
#X obj 71 470 -;
#X floatatom 87 609 5 0 0 0 - - -;
#X floatatom 202 448 5 0 0 0 - - -;
#X obj 172 472 -;
#X floatatom 188 611 5 0 0 0 - - -;
#X obj 474 374 sig~;
#X obj 119 421 + 0.7;
#X floatatom 121 553 5 0 0 0 - - -;
#X obj 1085 147 unpack f f f;
#X obj 1077 185 mtof;
#X floatatom 1079 263 5 0 0 0 - - -;
#X obj 84 496 * 10;
#X obj 185 498 * 10;
#X obj 104 122 knob 32 32 0 1 0 0 empty empty empty 0 -8 0 8 -262144
-1 -1 217 1;
#X obj 463 428 *~ 0.9;
#X obj 540 423 *~ 0.9;
#X obj 450 484 *~;
#X floatatom 149 140 5 0 0 0 - - -;
#X obj 66 66 loadbang;
#X obj 83 530 * 100;
#X obj 184 532 * 100;
#X obj 478 394 lop~ 80;
#X obj 762 249 *~;
#X obj 727 309 *~;
#X obj 74 576 average 5;
#X obj 175 578 average 5;
#X obj 275 602 *~ 2;
#X obj 320 574 clip~ -0.2 0.5;
#X obj 428 631 *~ 2;
#X obj 303 602 lop~ 900;
#X obj 410 607 bp~ 3000 3;
#N canvas 2238 0 549 710 lightsaber 0;
#X floatatom 159 80 5 0 0 0 - - -;
#X obj 104 189 osc~;
#X obj 99 130 mtof~;
#X obj 102 104 sig~;
#X obj 228 243 *~;
#X obj 239 99 r zaxis;
#X obj 245 199 sig~;
#X floatatom 290 120 5 0 0 0 - - -;
#X obj 241 140 -;
#X floatatom 298 177 5 0 0 0 - - -;
#X obj 247 220 lop~ 80;
#X obj 149 35 r yaxis;
#X floatatom 310 209 5 0 0 0 - - -;
#X obj 240 166 average 5;
#X obj 412 154 r xaxis;
#X obj 412 194 mtof;
#X obj 312 347 *~ 0.07;
#X obj 304 312 lop~ 10;
#X connect 1 0 4 0;
#X connect 2 0 1 0;
#X connect 3 0 2 0;
#X connect 4 0 17 0;
#X connect 5 0 7 0;
#X connect 5 0 8 0;
#X connect 5 0 8 1;
#X connect 6 0 10 0;
#X connect 8 0 9 0;
#X connect 8 0 13 0;
#X connect 10 0 4 1;
#X connect 11 0 0 0;
#X connect 11 0 3 0;
#X connect 13 0 6 0;
#X connect 13 0 12 0;
#X connect 14 0 15 0;
#X connect 15 0 17 1;
#X connect 17 0 16 0;
#X restore 64 221 pd lightsaber;
#X obj 423 -18 r xrx;
#X obj 301 -14 r xly;
#X obj 615 598 s~ electricity;
#X msg 58 94 0.07;
#X obj 1096 102 r noteval;
#X obj 64 410 r xrz;
#X obj 200 -20 r xly;
#X obj 521 -19 r xrx;
#X obj 653 -5 r xlx;
#X obj 809 -17 r xrx;
#X obj 179 423 r xlz;
#X connect 0 0 105 0;
#X connect 1 0 53 0;
#X connect 2 0 54 0;
#X connect 3 0 4 0;
#X connect 4 0 5 0;
#X connect 4 0 5 1;
#X connect 5 0 79 0;
#X connect 6 0 7 0;
#X connect 7 0 0 1;
#X connect 9 0 8 0;
#X connect 9 0 112 0;
#X connect 9 0 21 0;
#X connect 10 0 112 1;
#X connect 11 0 12 0;
#X connect 12 0 13 0;
#X connect 13 0 14 0;
#X connect 13 0 14 1;
#X connect 14 0 22 0;
#X connect 15 0 16 0;
#X connect 16 0 17 0;
#X connect 17 0 18 0;
#X connect 18 0 19 0;
#X connect 19 0 20 0;
#X connect 20 0 8 1;
#X connect 21 0 34 0;
#X connect 22 0 23 0;
#X connect 22 0 24 1;
#X connect 24 0 113 1;
#X connect 25 0 26 0;
#X connect 25 0 37 1;
#X connect 25 0 36 0;
#X connect 26 0 27 0;
#X connect 27 0 28 0;
#X connect 28 0 29 0;
#X connect 29 0 30 0;
#X connect 30 0 31 0;
#X connect 31 0 32 0;
#X connect 32 0 33 0;
#X connect 33 0 34 1;
#X connect 33 0 37 0;
#X connect 34 0 35 0;
#X connect 34 0 105 0;
#X connect 35 0 37 1;
#X connect 36 0 38 0;
#X connect 37 0 104 0;
#X connect 38 0 82 0;
#X connect 39 0 22 1;
#X connect 40 0 19 1;
#X connect 41 0 9 0;
#X connect 42 0 10 0;
#X connect 45 0 4 1;
#X connect 48 0 49 0;
#X connect 48 0 2 1;
#X connect 48 0 80 0;
#X connect 50 0 51 0;
#X connect 51 0 47 0;
#X connect 51 0 1 0;
#X connect 52 0 6 0;
#X connect 53 0 52 0;
#X connect 53 0 83 0;
#X connect 54 0 52 0;
#X connect 55 0 0 0;
#X connect 56 0 3 0;
#X connect 57 0 104 0;
#X connect 58 0 73 0;
#X connect 59 0 74 0;
#X connect 60 0 61 0;
#X connect 61 0 62 0;
#X connect 61 0 62 1;
#X connect 62 0 71 0;
#X connect 63 0 64 0;
#X connect 64 0 57 1;
#X connect 65 0 61 1;
#X connect 68 0 69 0;
#X connect 68 0 78 0;
#X connect 70 0 77 0;
#X connect 71 0 64 1;
#X connect 71 0 75 0;
#X connect 72 0 63 0;
#X connect 73 0 72 0;
#X connect 73 0 83 0;
#X connect 74 0 72 0;
#X connect 75 0 57 0;
#X connect 76 0 60 0;
#X connect 77 0 67 0;
#X connect 77 0 58 0;
#X connect 78 0 59 0;
#X connect 78 0 81 0;
#X connect 79 0 7 1;
#X connect 79 0 55 0;
#X connect 80 0 54 1;
#X connect 81 0 74 1;
#X connect 82 0 37 1;
#X connect 83 0 113 0;
#X connect 85 0 86 0;
#X connect 86 0 84 0;
#X connect 86 0 41 0;
#X connect 87 0 42 0;
#X connect 87 0 88 0;
#X connect 90 0 101 0;
#X connect 93 0 102 0;
#X connect 95 0 111 0;
#X connect 96 0 90 1;
#X connect 98 0 99 0;
#X connect 99 0 100 0;
#X connect 99 0 42 0;
#X connect 99 0 41 0;
#X connect 99 0 58 0;
#X connect 99 0 1 0;
#X connect 99 0 2 0;
#X connect 99 0 59 0;
#X connect 101 0 109 0;
#X connect 102 0 110 0;
#X connect 103 0 106 1;
#X connect 103 0 107 0;
#X connect 103 0 95 0;
#X connect 104 0 106 0;
#X connect 105 0 106 0;
#X connect 106 0 119 0;
#X connect 106 0 120 0;
#X connect 106 0 124 0;
#X connect 108 0 125 0;
#X connect 109 0 97 0;
#X connect 109 0 114 0;
#X connect 110 0 115 0;
#X connect 111 0 104 1;
#X connect 112 0 24 0;
#X connect 113 0 25 0;
#X connect 114 0 91 0;
#X connect 114 0 104 1;
#X connect 115 0 94 0;
#X connect 115 0 105 1;
#X connect 116 0 117 0;
#X connect 117 0 124 0;
#X connect 118 0 117 0;
#X connect 119 0 116 0;
#X connect 120 0 118 0;
#X connect 122 0 70 0;
#X connect 123 0 48 0;
#X connect 125 0 103 0;
#X connect 126 0 98 0;
#X connect 127 0 89 0;
#X connect 127 0 90 0;
#X connect 127 0 90 1;
#X connect 128 0 50 0;
#X connect 129 0 68 0;
#X connect 130 0 85 0;
#X connect 131 0 87 0;
#X connect 132 0 92 0;
#X connect 132 0 93 0;
#X connect 132 0 93 1;
#X coords 0 -1 1 1 85 60 1 100 100;
