#N canvas 272 144 1216 955 10;
#X obj 57 41 change;
#X obj 31 304 bng 15 250 50 0 empty empty empty 17 7 0 10 -262144 -1
-1;
#X obj 100 304 bng 15 250 50 0 empty empty empty 17 7 0 10 -262144
-1 -1;
#X obj 58 332 timer;
#X obj 31 283 spigot 1;
#X obj 198 203 s att;
#X obj 30 263 r att;
#X floatatom 69 357 10 0 0 0 - - -;
#X floatatom 152 474 10 0 0 0 - - -;
#X obj 151 432 / 1000;
#X obj 58 407 metro;
#X obj 101 525 f \$1;
#X obj 239 184 sel 1;
#X obj 58 574 pack f f;
#X obj 58 524 f \$1;
#X obj 198 183 sel 1;
#X obj 198 163 t f f b;
#X obj 205 143 s recdub;
#X obj 260 143 s dub;
#X obj 98 258 r dub;
#X obj 99 284 spigot 1;
#X obj 57 66 s clear;
#X obj 194 431 samplerate~;
#X obj 194 410 loadbang;
#X obj 151 455 * 48000;
#X floatatom 205 455 5 0 0 0 - - -;
#X obj 208 88 s looprec;
#X obj 57 617 vline~;
#X obj 57 640 s~ vline;
#X obj 76 240 int;
#X obj 20 64 sel 1;
#X msg 101 328 0;
#X obj 256 207 bng 15 250 50 0 empty empty empty 17 7 0 10 -262144
-1 -1;
#X obj 274 207 bng 15 250 50 0 empty empty empty 17 7 0 10 -262144
-1 -1;
#X obj 237 207 bng 15 250 50 0 empty empty empty 17 7 0 10 -262144
-1 -1;
#X obj 209 123 sel 1 0;
#X obj 202 -6 tgl 40 0 empty empty empty 17 7 0 10 -4034 -1 -1 0 1
;
#X obj 198 69 tgl 15 0 empty empty empty 17 7 0 10 -262144 -1 -1 0
1;
#X obj 196 45 sel 1 0;
#X msg 168 66 0;
#X obj 42 432 bng 15 250 50 0 empty empty empty 17 7 0 10 -262144 -1
-1;
#X msg 22 89 30000;
#X msg 22 111 \$1;
#X floatatom 21 134 5 0 0 0 - - -;
#X obj 173 513 s loopsize;
#X obj 20 156 s loopsize;
#X obj 124 310 s stopr;
#X obj 266 299 / 1000;
#X obj 265 329 * 120;
#X floatatom 108 545 10 0 0 0 - - -;
#X floatatom 60 545 5 0 0 0 - - -;
#X obj -28 596 s packedindex;
#X obj 58 432 s metrobang;
#X msg 57 596 0 \, \$2 \$1;
#X obj 58 483 t b b;
#X obj 58 381 t b f f f;
#X obj -20 558 s loop_in_ms;
#X obj 851 149 r loopsize;
#N canvas 756 298 381 325 limiter-for-two-channels 0;
#X obj 24 22 inlet~;
#X obj 121 21 loadbang;
#X obj 24 60 z~ 64;
#X obj 24 169 *~;
#X obj 24 200 outlet~;
#X obj 121 113 zexy/limiter~;
#X msg 154 62 limit 100;
#X connect 0 0 2 0;
#X connect 0 0 5 0;
#X connect 2 0 3 0;
#X connect 3 0 4 0;
#X connect 5 0 3 1;
#X restore 670 500 pd limiter-for-two-channels;
#X obj 477 198 table \$0-looperleft 2.82e+006;
#X obj 671 416 *~;
#X obj 479 296 hsl 128 25 0 1 0 1 \$0-feedback \$0-feedbackctrl feedback
20 12 0 10 -228856 -260097 -1 12700 0;
#X obj 480 336 hsl 128 25 0 1 0 1 \$0-outlevel \$0-outlevelin outlevel
20 12 0 10 -228856 -260097 -1 12700 1;
#X obj 500 400 bng 50 250 50 0 empty empty empty 17 7 0 10 -228856
-260097 -1;
#N canvas 507 427 187 154 feedbacklevel 0;
#X obj 27 81 line~;
#X obj 27 109 outlet~;
#X msg 27 57 \$1 500;
#X text 25 131 feedback level;
#X obj 95 109 outlet;
#X obj 29 26 r \$0-feedback;
#X connect 0 0 1 0;
#X connect 2 0 0 0;
#X connect 5 0 2 0;
#X connect 5 0 4 0;
#X restore 685 375 pd feedbacklevel;
#X floatatom 778 414 5 0 0 0 - - -;
#N canvas 242 208 1024 716 outlevel 0;
#X obj 27 101 line~;
#X obj 27 129 outlet~;
#X msg 27 77 \$1 500;
#X obj 82 78 outlet;
#X obj 27 24 r \$0-outlevel;
#X text 25 151 output level;
#X obj 112 25 r \$0-mute;
#X obj 131 78 bng 15 250 50 0 empty empty empty 17 7 0 10 -262144 -1
-1;
#X obj 27 51 f;
#X connect 0 0 1 0;
#X connect 2 0 0 0;
#X connect 4 0 8 0;
#X connect 6 0 8 0;
#X connect 8 0 2 0;
#X connect 8 0 3 0;
#X connect 8 0 7 0;
#X restore 702 542 pd outlevel;
#X floatatom 765 564 5 0 0 0 - - -;
#X obj 512 487 s \$0-looperleft;
#X msg 500 462 const 0;
#X text 552 417 clear loop;
#X obj 680 470 hip~ 5;
#X text 476 143 Katja Vetter dec 2010;
#N canvas 577 175 391 247 more-info 0;
#X text 14 204 This patch uses [count~] and [poke~] from cyclone \,
[limiter~] from zexy.;
#X text 16 72 With feedback setting at max \, it is a looper. With
lower feedback settings \, the loop content will fade away.;
#X text 15 115 The read index is one sample ahead of the write index
\, and wrapped within the loop size.;
#X text 14 17 Elementary looping delay with sound on sound. A similar
thing can be done with [delwrite~] and [delread~] or [vd~] \, but [delwrite~]
lacks the option to clear the delay buffer.;
#X text 16 153 Loop size could be up to 2^23-1 samples theoretically.
Beyond that size \, indexing will loose the required precision.;
#X obj 325 217 mux~;
#X restore 477 171 pd more-info;
#X obj 591 68 r \$0-start;
#X obj 487 66 r clear;
#X obj 486 104 s \$0-clear;
#X msg 591 90 1;
#X obj 591 111 s \$0-mute;
#X obj 680 445 inlet~ left;
#X obj 687 579 *~;
#X obj 674 187 r~ vline;
#X obj 535 65 r pgm;
#X obj 487 86 spigot;
#X obj 554 83 tgl 15 0 empty empty empty 17 7 0 10 -262144 -1 -1 0
1;
#X obj 471 67 tgl 15 0 empty empty empty 17 7 0 10 -262144 -1 -1 0
1;
#X obj 683 604 outlet~ left;
#X obj 500 376 r clear;
#X obj 889 506 s \$0-feedbackctrl;
#X obj 889 448 inlet feedback;
#X floatatom 832 463 5 0 0 0 - - -;
#X obj 889 471 / 100;
#X obj 1029 455 inlet clear;
#X obj 904 547 outlet feedback;
#X floatatom 880 414 5 0 0 0 - - -;
#X obj 767 116 knob 32 32 0 0.7 0 0 empty empty empty 0 -8 0 8 -4034
-4034 -1 0 1;
#X obj 1219 294 inlet vol;
#N canvas 0 0 450 300 (subpatch) 0;
#X array \$0-viewer 100 float 0;
#X coords 0 -1 99 1 60 40 1;
#X restore 801 106 graph;
#X obj 927 635 tabwrite~ \$0-viewer;
#X obj 931 589 loadbang;
#X obj 929 613 metro 50;
#N canvas 34 319 385 285 readindex 0;
#X obj 96 112 /;
#X msg 96 85 1;
#X obj 16 129 *~ 1;
#X obj 16 154 wrap~;
#X obj 96 61 t b f;
#X obj 16 182 *~ 1;
#X obj 16 13 inlet~;
#X obj 16 212 outlet~;
#X text 15 236 read pointer is one sample ahead of write pointer \,
but must be wrapped around loop length;
#X obj 96 37 int;
#X obj 16 69 +~ 1;
#X obj 96 13 r loopsize;
#X floatatom 151 44 15 0 0 0 - - -;
#X connect 0 0 2 1;
#X connect 1 0 0 0;
#X connect 2 0 3 0;
#X connect 3 0 5 0;
#X connect 4 0 1 0;
#X connect 4 1 0 1;
#X connect 5 0 7 0;
#X connect 6 0 10 0;
#X connect 9 0 4 0;
#X connect 9 0 5 1;
#X connect 10 0 2 0;
#X connect 11 0 9 0;
#X connect 11 0 12 0;
#X restore 671 265 pd readindex;
#X floatatom 822 230 15 0 0 0 - - -;
#X obj 741 188 bng 15 250 50 0 empty empty empty 17 7 0 10 -262144
-1 -1;
#X obj 900 577 bng 15 250 50 0 empty empty empty 17 7 0 10 -262144
-1 -1;
#X obj 727 230 count~ 0 300000;
#X obj 741 169 r metrobang;
#X obj 807 182 int;
#X floatatom 952 354 15 0 0 0 - - -;
#X obj 951 324 snapshot~;
#X obj 959 273 loadbang;
#X obj 957 297 metro 50;
#X obj 928 261 bng 15 250 50 0 empty empty empty 17 7 0 10 -262144
-1 -1;
#X floatatom 818 346 15 0 0 0 - - -;
#X obj 817 316 snapshot~;
#X floatatom 850 187 5 0 0 0 - - -;
#X obj 984 176 r loop_in_ms;
#X floatatom 1043 201 5 0 0 0 - - -;
#X obj 670 349 tabread4~ \$0-looperleft;
#X obj 670 633 poke~ \$0-looperleft;
#X obj -4 -8 tgl 40 0 empty empty empty 17 7 0 10 -257985 -1 -1 0 1
;
#X text 257 4 toggle once for record and once more for overdub;
#X text 211 595 everythng to the right is part of a number of record
buffers i use that were written by Katjav Vetter. hence the \$0- variables.
these can be changed if you only need one looper/buffer;
#X text 4 3 toggle for first loop \, THEN--->;
#X text -20 669 Onyx Ashanti 2012;
#X connect 0 0 21 0;
#X connect 0 0 30 0;
#X connect 1 0 3 0;
#X connect 1 0 10 0;
#X connect 2 0 3 1;
#X connect 2 0 31 0;
#X connect 2 0 46 0;
#X connect 3 0 47 0;
#X connect 3 0 55 0;
#X connect 3 0 7 0;
#X connect 4 0 1 0;
#X connect 6 0 4 0;
#X connect 8 0 11 0;
#X connect 9 0 24 0;
#X connect 10 0 40 0;
#X connect 10 0 52 0;
#X connect 10 0 54 0;
#X connect 11 0 13 1;
#X connect 11 0 49 0;
#X connect 11 0 44 0;
#X connect 13 0 53 0;
#X connect 13 0 51 0;
#X connect 14 0 13 0;
#X connect 14 0 50 0;
#X connect 14 0 56 0;
#X connect 15 0 5 0;
#X connect 15 0 34 0;
#X connect 16 0 15 0;
#X connect 16 1 12 0;
#X connect 19 0 20 0;
#X connect 20 0 2 0;
#X connect 22 0 24 1;
#X connect 22 0 25 0;
#X connect 23 0 22 0;
#X connect 24 0 8 0;
#X connect 27 0 28 0;
#X connect 29 0 4 1;
#X connect 29 0 20 1;
#X connect 30 0 41 0;
#X connect 35 0 17 0;
#X connect 35 0 32 0;
#X connect 35 1 18 0;
#X connect 35 1 33 0;
#X connect 36 0 38 0;
#X connect 37 0 35 0;
#X connect 37 0 16 0;
#X connect 37 0 26 0;
#X connect 38 0 37 0;
#X connect 39 0 37 0;
#X connect 41 0 42 0;
#X connect 42 0 43 0;
#X connect 42 0 55 0;
#X connect 47 0 48 0;
#X connect 53 0 27 0;
#X connect 54 0 14 0;
#X connect 54 1 11 0;
#X connect 55 0 10 0;
#X connect 55 1 10 1;
#X connect 55 2 9 0;
#X connect 55 3 14 0;
#X connect 57 0 102 0;
#X connect 57 0 107 0;
#X connect 58 0 80 0;
#X connect 58 0 119 0;
#X connect 60 0 58 0;
#X connect 63 0 69 0;
#X connect 64 0 60 1;
#X connect 64 1 65 0;
#X connect 66 0 80 1;
#X connect 66 1 67 0;
#X connect 69 0 68 0;
#X connect 71 0 58 0;
#X connect 74 0 77 0;
#X connect 75 0 83 0;
#X connect 75 0 85 0;
#X connect 77 0 78 0;
#X connect 79 0 71 0;
#X connect 80 0 86 0;
#X connect 80 0 98 0;
#X connect 81 0 119 1;
#X connect 81 0 101 0;
#X connect 82 0 83 1;
#X connect 82 0 84 0;
#X connect 83 0 76 0;
#X connect 87 0 63 0;
#X connect 89 0 90 0;
#X connect 89 0 91 0;
#X connect 91 0 88 0;
#X connect 91 0 93 0;
#X connect 92 0 63 0;
#X connect 94 0 91 0;
#X connect 96 0 95 0;
#X connect 99 0 100 0;
#X connect 100 0 98 0;
#X connect 101 0 114 0;
#X connect 101 0 118 0;
#X connect 103 0 105 0;
#X connect 103 0 109 0;
#X connect 103 0 114 0;
#X connect 104 0 100 0;
#X connect 105 0 109 0;
#X connect 106 0 103 0;
#X connect 107 0 105 1;
#X connect 109 0 108 0;
#X connect 110 0 111 0;
#X connect 112 0 111 0;
#X connect 114 0 113 0;
#X connect 116 0 117 0;
#X connect 118 0 60 0;
#X connect 118 0 98 0;
#X connect 120 0 0 0;
