#N canvas 0 0 1024 730 10;
#X obj 533 106 tgl 30 0 empty empty empty 17 7 0 10 -159808 -1 -1 0
1;
#X obj 499 106 tgl 30 0 empty empty empty 17 7 0 10 -159808 -1 -1 0
1;
#X obj 465 106 tgl 30 0 empty empty empty 17 7 0 10 -159808 -1 -1 0
1;
#X obj 432 128 tgl 30 0 empty empty empty 17 7 0 10 -159808 -1 -1 0
1;
#X obj 622 105 tgl 30 0 empty empty empty 17 7 0 10 -99865 -1 -1 0
1;
#X obj 655 105 tgl 30 0 empty empty empty 17 7 0 10 -128992 -1 -1 0
1;
#X obj 687 105 tgl 30 0 empty empty empty 17 7 0 10 -128992 -1 -1 0
1;
#X obj 720 127 tgl 30 0 empty empty empty 17 7 0 10 -159808 -1 -1 0
1;
#X text 431 111 Left;
#X text 719 109 Right;
#X obj 574 127 tgl 15 0 empty empty empty 17 7 0 10 -262144 -1 -1 0
1;
#X obj 590 117 tgl 15 0 empty empty empty 17 7 0 10 -262144 -1 -1 0
1;
#X obj 575 104 tgl 15 0 empty empty empty 17 7 0 10 -262144 -1 -1 0
1;
#X obj 561 143 tgl 15 0 empty empty empty 17 7 0 10 -262144 -1 -1 0
1;
#X obj 534 39 > 0.03;
#X obj 446 39 > 0.03;
#X obj 401 42 > 0.03;
#X obj 491 39 > 0.05;
#X obj 619 38 > 0.1;
#X obj 655 38 > 0.1;
#X obj 691 38 > 0.1;
#X obj 727 38 > 0.07;
#X text 540 114 1;
#X text 505 113 2;
#X text 471 114 3;
#X text 438 134 4;
#X text 590 115 C3;
#X text 574 103 C4;
#X text 573 125 C2;
#X text 561 141 C1;
#X obj 393 167 s flash;
#X obj 412 143 bng 15 250 50 0 empty empty empty 17 7 0 10 -262144
-1 -1;
#X floatatom 761 135 5 0 0 0 - - -;
#X msg 621 169 1;
#X msg 652 171 2;
#X text 662 113 2;
#X text 696 111 3;
#X msg 681 171 3;
#X msg 532 167 1;
#X msg 504 168 2;
#X msg 471 168 3;
#X msg 441 168 4;
#X text 630 112 1;
#X msg 726 172 5;
#X text 728 135 8;
#N canvas 598 180 236 269 bk 0;
#X obj 69 63 tgl 15 0 empty empty empty 17 7 0 10 -262144 -1 -1 0 3
;
#X obj 88 113 tgl 15 0 empty empty empty 17 7 0 10 -262144 -1 -1 0
1;
#X obj 62 44 * 3;
#X floatatom 27 51 5 0 0 0 - - -;
#X floatatom 98 139 5 0 0 0 - - -;
#X obj 59 3 inlet;
#X obj 94 199 outlet;
#X obj 42 81 threshold 2 1 1 2;
#X obj 173 68 r flash;
#X msg 176 103 0;
#X connect 1 0 4 0;
#X connect 2 0 0 0;
#X connect 2 0 3 0;
#X connect 2 0 7 0;
#X connect 4 0 6 0;
#X connect 5 0 2 0;
#X connect 7 0 1 0;
#X connect 7 1 1 0;
#X connect 8 0 9 0;
#X connect 9 0 1 0;
#X restore 743 73 pd bk;
#N canvas 598 180 236 269 bk 0;
#X obj 69 63 tgl 15 0 empty empty empty 17 7 0 10 -262144 -1 -1 0 3
;
#X obj 88 113 tgl 15 0 empty empty empty 17 7 0 10 -262144 -1 -1 0
1;
#X obj 62 44 * 3;
#X floatatom 27 51 5 0 0 0 - - -;
#X floatatom 98 139 5 0 0 0 - - -;
#X obj 59 3 inlet;
#X obj 94 199 outlet;
#X obj 42 81 threshold 2 1 1 2;
#X obj 173 68 r flash;
#X msg 176 103 0;
#X connect 1 0 4 0;
#X connect 2 0 0 0;
#X connect 2 0 3 0;
#X connect 2 0 7 0;
#X connect 4 0 6 0;
#X connect 5 0 2 0;
#X connect 7 0 1 0;
#X connect 7 1 1 0;
#X connect 8 0 9 0;
#X connect 9 0 1 0;
#X restore 617 71 pd bk;
#N canvas 598 180 236 269 bk 0;
#X obj 69 63 tgl 15 0 empty empty empty 17 7 0 10 -262144 -1 -1 0 3
;
#X obj 88 113 tgl 15 0 empty empty empty 17 7 0 10 -262144 -1 -1 0
1;
#X obj 62 44 * 3;
#X floatatom 27 51 5 0 0 0 - - -;
#X floatatom 98 139 5 0 0 0 - - -;
#X obj 59 3 inlet;
#X obj 94 199 outlet;
#X obj 42 81 threshold 2 1 1 2;
#X obj 173 68 r flash;
#X msg 176 103 0;
#X connect 1 0 4 0;
#X connect 2 0 0 0;
#X connect 2 0 3 0;
#X connect 2 0 7 0;
#X connect 4 0 6 0;
#X connect 5 0 2 0;
#X connect 7 0 1 0;
#X connect 7 1 1 0;
#X connect 8 0 9 0;
#X connect 9 0 1 0;
#X restore 658 73 pd bk;
#N canvas 598 180 236 269 bk 0;
#X obj 69 63 tgl 15 0 empty empty empty 17 7 0 10 -262144 -1 -1 0 3
;
#X obj 88 113 tgl 15 0 empty empty empty 17 7 0 10 -262144 -1 -1 0
1;
#X obj 62 44 * 3;
#X floatatom 27 51 5 0 0 0 - - -;
#X floatatom 98 139 5 0 0 0 - - -;
#X obj 59 3 inlet;
#X obj 94 199 outlet;
#X obj 42 81 threshold 2 1 1 2;
#X obj 173 68 r flash;
#X msg 176 103 0;
#X connect 1 0 4 0;
#X connect 2 0 0 0;
#X connect 2 0 3 0;
#X connect 2 0 7 0;
#X connect 4 0 6 0;
#X connect 5 0 2 0;
#X connect 7 0 1 0;
#X connect 7 1 1 0;
#X connect 8 0 9 0;
#X connect 9 0 1 0;
#X restore 702 73 pd bk;
#N canvas 598 180 236 269 bk 0;
#X obj 69 63 tgl 15 0 empty empty empty 17 7 0 10 -262144 -1 -1 0 3
;
#X obj 88 113 tgl 15 0 empty empty empty 17 7 0 10 -262144 -1 -1 0
1;
#X obj 62 44 * 3;
#X floatatom 27 51 5 0 0 0 - - -;
#X floatatom 98 139 5 0 0 0 - - -;
#X obj 59 3 inlet;
#X obj 94 199 outlet;
#X obj 42 81 threshold 2 1 1 2;
#X obj 173 68 r flash;
#X msg 176 103 0;
#X connect 1 0 4 0;
#X connect 2 0 0 0;
#X connect 2 0 3 0;
#X connect 2 0 7 0;
#X connect 4 0 6 0;
#X connect 5 0 2 0;
#X connect 7 0 1 0;
#X connect 7 1 1 0;
#X connect 8 0 9 0;
#X connect 9 0 1 0;
#X restore 541 69 pd bk;
#N canvas 598 180 236 269 bk 0;
#X obj 69 63 tgl 15 0 empty empty empty 17 7 0 10 -262144 -1 -1 0 3
;
#X obj 88 113 tgl 15 0 empty empty empty 17 7 0 10 -262144 -1 -1 0
1;
#X obj 62 44 * 3;
#X floatatom 27 51 5 0 0 0 - - -;
#X floatatom 98 139 5 0 0 0 - - -;
#X obj 59 3 inlet;
#X obj 94 199 outlet;
#X obj 42 81 threshold 2 1 1 2;
#X obj 173 68 r flash;
#X msg 176 103 0;
#X connect 1 0 4 0;
#X connect 2 0 0 0;
#X connect 2 0 3 0;
#X connect 2 0 7 0;
#X connect 4 0 6 0;
#X connect 5 0 2 0;
#X connect 7 0 1 0;
#X connect 7 1 1 0;
#X connect 8 0 9 0;
#X connect 9 0 1 0;
#X restore 415 67 pd bk;
#N canvas 598 180 236 269 bk 0;
#X obj 69 63 tgl 15 0 empty empty empty 17 7 0 10 -262144 -1 -1 0 3
;
#X obj 88 113 tgl 15 0 empty empty empty 17 7 0 10 -262144 -1 -1 0
1;
#X obj 62 44 * 3;
#X floatatom 27 51 5 0 0 0 - - -;
#X floatatom 98 139 5 0 0 0 - - -;
#X obj 59 3 inlet;
#X obj 94 199 outlet;
#X obj 42 81 threshold 2 1 1 2;
#X obj 173 68 r flash;
#X msg 176 103 0;
#X connect 1 0 4 0;
#X connect 2 0 0 0;
#X connect 2 0 3 0;
#X connect 2 0 7 0;
#X connect 4 0 6 0;
#X connect 5 0 2 0;
#X connect 7 0 1 0;
#X connect 7 1 1 0;
#X connect 8 0 9 0;
#X connect 9 0 1 0;
#X restore 456 69 pd bk;
#N canvas 598 180 236 269 bk 0;
#X obj 69 63 tgl 15 0 empty empty empty 17 7 0 10 -262144 -1 -1 0 3
;
#X obj 88 113 tgl 15 0 empty empty empty 17 7 0 10 -262144 -1 -1 0
1;
#X obj 62 44 * 3;
#X floatatom 27 51 5 0 0 0 - - -;
#X floatatom 98 139 5 0 0 0 - - -;
#X obj 59 3 inlet;
#X obj 94 199 outlet;
#X obj 42 81 threshold 2 1 1 2;
#X obj 173 68 r flash;
#X msg 176 103 0;
#X connect 1 0 4 0;
#X connect 2 0 0 0;
#X connect 2 0 3 0;
#X connect 2 0 7 0;
#X connect 4 0 6 0;
#X connect 5 0 2 0;
#X connect 7 0 1 0;
#X connect 7 1 1 0;
#X connect 8 0 9 0;
#X connect 9 0 1 0;
#X restore 500 69 pd bk;
#X obj 390 195 s \$0-key4;
#X obj 444 195 s \$0-key3;
#X obj 499 195 s \$0-key2;
#X obj 554 195 s \$0-key1;
#X obj 612 195 s \$0-key5;
#X obj 669 197 s \$0-key6;
#X obj 723 195 s \$0-key7;
#X obj 778 197 s \$0-key8;
#X obj 393 18 r fl4-4;
#X obj 441 17 r fl3-4;
#X obj 489 16 r fl2-4;
#X obj 539 17 r fl1-4;
#X obj 734 14 r fr1-4;
#X obj 689 14 r fr3-4;
#X obj 650 14 r fr2-4;
#X obj 608 14 r fr4-4;
#X obj 713 284 s preset;
#X obj -172 350 vsl 30 128 1 0.9 0 0 empty empty empty 0 -9 0 10 -258113
-1 -1 12700 1;
#X obj -178 197 vsl 30 128 1 0.9 0 0 empty empty empty 0 -9 0 10 -258113
-1 -1 0 1;
#X obj -175 43 vsl 30 128 1 0.9 0 0 empty empty empty 0 -9 0 10 -258113
-1 -1 12700 1;
#X obj -181 16 r frange1;
#X obj -176 329 r frange3;
#X obj -173 482 r frange4;
#X obj -129 17 gesturegrid;
#X obj 398 282 == 1;
#X obj 430 282 == 2;
#X obj 461 282 == 3;
#X obj 491 282 == 4;
#X obj 467 252 int;
#X obj 715 263 int;
#X obj 504 587 vsl 30 128 1 0 0 0 empty empty empty 0 -9 0 10 -258113
-1 -1 12700 1;
#X obj 477 566 r frange8;
#X obj 522 283 == 5;
#X obj -128 165 Instrumodekey2;
#X obj -129 309 Instrumodekey3;
#X obj -170 510 vsl 30 128 1 0.9 0 0 empty empty empty 0 -9 0 10 -258113
-1 -1 12700 1;
#X obj -132 452 Instrumodekey4;
#X obj 337 595 gesturegridr;
#X connect 0 0 38 0;
#X connect 0 0 56 0;
#X connect 1 0 39 0;
#X connect 1 0 55 0;
#X connect 2 0 40 0;
#X connect 2 0 54 0;
#X connect 3 0 41 0;
#X connect 3 0 53 0;
#X connect 4 0 33 0;
#X connect 4 0 57 0;
#X connect 5 0 34 0;
#X connect 5 0 58 0;
#X connect 6 0 37 0;
#X connect 6 0 59 0;
#X connect 7 0 43 0;
#X connect 7 0 60 0;
#X connect 14 0 49 0;
#X connect 15 0 51 0;
#X connect 16 0 50 0;
#X connect 17 0 52 0;
#X connect 18 0 46 0;
#X connect 19 0 47 0;
#X connect 20 0 48 0;
#X connect 21 0 45 0;
#X connect 31 0 30 0;
#X connect 38 0 81 0;
#X connect 39 0 81 0;
#X connect 40 0 81 0;
#X connect 41 0 81 0;
#X connect 43 0 81 0;
#X connect 45 0 7 0;
#X connect 46 0 4 0;
#X connect 47 0 5 0;
#X connect 48 0 6 0;
#X connect 49 0 0 0;
#X connect 50 0 3 0;
#X connect 51 0 2 0;
#X connect 52 0 1 0;
#X connect 61 0 16 0;
#X connect 62 0 15 0;
#X connect 63 0 17 0;
#X connect 64 0 14 0;
#X connect 65 0 21 0;
#X connect 66 0 20 0;
#X connect 67 0 19 0;
#X connect 68 0 18 0;
#X connect 73 0 72 0;
#X connect 73 0 76 0;
#X connect 74 0 70 0;
#X connect 74 0 87 0;
#X connect 75 0 88 0;
#X connect 75 0 89 0;
#X connect 77 0 76 2;
#X connect 78 0 86 2;
#X connect 79 0 87 2;
#X connect 80 0 89 2;
#X connect 81 0 77 0;
#X connect 81 0 78 0;
#X connect 81 0 79 0;
#X connect 81 0 80 0;
#X connect 81 0 85 0;
#X connect 82 0 69 0;
#X connect 84 0 83 0;
#X connect 84 0 90 0;
#X connect 85 0 90 2;
#X coords 0 -1 1 1 400 60 1 400 100;
