#N canvas 0 0 1105 613 10;
#X obj 103 114 outlet~;
#X text 262 -333 Depth;
#X text 279 -82 Depth;
#X obj 103 -274 +~ 1;
#X floatatom 245 -279 5 0 0 0 - - -;
#X obj 105 -316 clip 0 127;
#X text 249 -301 Depth;
#X text 142 -340 Rate;
#X obj 106 -336 - 5;
#X obj 106 -358 average 10;
#X obj 103 -295 osc~ 0.25;
#X text 175 -380 amp lfo mod;
#X text 61 -326 Depth;
#X obj 181 -319 clip 0 127;
#X obj 115 -237 *~;
#X obj 215 -279 * 10;
#X obj 106 40 +~ 0.01;
#X obj 105 -437 inlet~;
#X obj 98 -132 *~ 0.4;
#X obj 159 -418 inlet rate;
#X obj 243 -418 inlet depth;
#X connect 3 0 14 0;
#X connect 5 0 10 0;
#X connect 8 0 5 0;
#X connect 9 0 8 0;
#X connect 10 0 3 0;
#X connect 13 0 15 0;
#X connect 14 0 18 0;
#X connect 15 0 4 0;
#X connect 15 0 14 1;
#X connect 16 0 0 0;
#X connect 17 0 18 0;
#X connect 18 0 16 0;
#X connect 19 0 9 0;
#X connect 20 0 13 0;
