#N canvas 0 0 450 300 10;
#X obj 353 591 outlet~;
#X obj 234 22 inlet~;
#X obj 235 47 *~ 1.5;
#X obj 210 341 lop~;
#X obj 295 339 hip~;
#X obj 371 337 bp~;
#X obj 526 339 moog~;
#X msg 373 39 1;
#X msg 456 36 2;
#X msg 533 35 3;
#X msg 620 35 4;
#X msg 687 33 5;
#X obj 486 102 int;
#X obj 453 129 == 1;
#X obj 481 129 == 2;
#X obj 510 128 == 3;
#X obj 539 128 == 4;
#X obj 568 127 == 5;
#X obj 687 12 r f7moog;
#X obj 620 14 r f7vcf;
#X obj 533 14 r f7bandpass;
#X obj 456 14 r f7hipass;
#X obj 373 16 r f7lowpass;
#X obj 113 135 tgl 15 0 empty empty empty 17 7 0 10 -262144 -1 -1 0
1;
#X obj 113 153 tgl 15 0 empty empty empty 17 7 0 10 -262144 -1 -1 0
1;
#X obj 113 189 tgl 15 0 empty empty empty 17 7 0 10 -262144 -1 -1 0
1;
#X obj 113 171 tgl 15 0 empty empty empty 17 7 0 10 -262144 -1 -1 0
1;
#X obj 113 117 tgl 15 0 empty empty empty 17 7 0 10 -262144 -1 -1 0
1;
#X obj 497 308 bng 15 250 50 0 empty empty empty 17 7 0 10 -262144
-1 -1;
#X obj 907 106 mtof;
#X obj 830 103 mtof~;
#X obj 755 105 mtof;
#X obj 357 555 *~ 0.9;
#X obj 755 43 r 8gx;
#X obj 907 45 r 8gy;
#X text 114 208 filt;
#X obj 228 256 sig~;
#X obj 229 280 lop~ 80;
#X obj 213 307 *~;
#X obj 296 311 *~;
#X obj 371 303 *~;
#X obj 455 305 *~;
#X obj 526 311 *~;
#X obj 307 257 sig~;
#X obj 308 281 lop~ 80;
#X obj 389 253 sig~;
#X obj 390 277 lop~ 80;
#X obj 472 253 sig~;
#X obj 473 277 lop~ 80;
#X obj 541 260 sig~;
#X obj 542 284 lop~ 80;
#X obj 418 505 r whichever xlrmtr ctrls filter amount;
#X connect 1 0 2 0;
#X connect 2 0 38 0;
#X connect 2 0 39 0;
#X connect 2 0 40 0;
#X connect 2 0 41 0;
#X connect 2 0 42 0;
#X connect 3 0 32 0;
#X connect 4 0 32 0;
#X connect 5 0 32 0;
#X connect 6 0 32 0;
#X connect 7 0 12 0;
#X connect 8 0 12 0;
#X connect 9 0 12 0;
#X connect 10 0 12 0;
#X connect 11 0 12 0;
#X connect 12 0 13 0;
#X connect 12 0 14 0;
#X connect 12 0 15 0;
#X connect 12 0 16 0;
#X connect 12 0 17 0;
#X connect 13 0 25 0;
#X connect 14 0 26 0;
#X connect 15 0 24 0;
#X connect 16 0 23 0;
#X connect 17 0 27 0;
#X connect 18 0 11 0;
#X connect 19 0 10 0;
#X connect 20 0 9 0;
#X connect 21 0 8 0;
#X connect 22 0 7 0;
#X connect 23 0 47 0;
#X connect 24 0 45 0;
#X connect 25 0 36 0;
#X connect 26 0 43 0;
#X connect 27 0 49 0;
#X connect 29 0 4 1;
#X connect 29 0 3 1;
#X connect 30 0 6 1;
#X connect 31 0 5 1;
#X connect 32 0 0 0;
#X connect 33 0 30 0;
#X connect 33 0 31 0;
#X connect 34 0 6 2;
#X connect 34 0 29 0;
#X connect 34 0 5 2;
#X connect 36 0 37 0;
#X connect 37 0 38 1;
#X connect 38 0 3 0;
#X connect 39 0 4 0;
#X connect 40 0 5 0;
#X connect 41 0 32 0;
#X connect 42 0 6 1;
#X connect 43 0 44 0;
#X connect 44 0 39 1;
#X connect 45 0 46 0;
#X connect 46 0 40 1;
#X connect 47 0 48 0;
#X connect 48 0 41 1;
#X connect 49 0 50 0;
#X connect 50 0 42 1;
#X connect 51 0 32 1;
