#N canvas 0 0 661 524 10;
#X obj 148 65 inlet~;
#X obj 366 69 inlet rate;
#X obj 477 69 inlet depth;
#X obj 267 100 clip -1 1;
#X obj 364 107 * 5;
#X obj 476 104 * 2;
#X obj 59 199 r~ \$0-fb;
#X obj 149 204 *~ 0.3;
#X obj 133 263 +~;
#X obj 167 240 s~ \$0-d;
#X obj 139 341 delwrite~ \$0-a1 100;
#X obj 157 362 delwrite~ \$0-a2 100;
#X obj 268 135 * 0.4;
#X obj 282 336 *~;
#X obj 321 141 osc~;
#X obj 320 167 *~;
#X obj 320 196 +~;
#X obj 320 224 vd~ \$0-a1;
#X obj 393 142 osc~;
#X obj 392 168 *~;
#X obj 392 197 +~;
#X obj 392 225 vd~ \$0-a1;
#X obj 393 117 + 1;
#X obj 392 277 *~ 1;
#X obj 281 384 s~ \$0-fb;
#X obj 476 233 r~ \$0-d;
#X obj 470 377 outlet~;
#X obj 386 376 outlet~;
#X floatatom 372 43 5 0 0 0 - - -;
#X floatatom 489 36 5 0 0 0 - - -;
#X obj 408 26 r \$0-n5x;
#X obj 475 9 r \$0-n5y;
#X obj 268 64 r \$0-n6y;
#X connect 0 0 7 0;
#X connect 1 0 4 0;
#X connect 2 0 5 0;
#X connect 3 0 12 0;
#X connect 4 0 14 0;
#X connect 4 0 22 0;
#X connect 5 0 15 1;
#X connect 5 0 19 1;
#X connect 5 0 20 1;
#X connect 5 0 16 1;
#X connect 6 0 8 0;
#X connect 7 0 8 1;
#X connect 7 0 9 0;
#X connect 8 0 10 0;
#X connect 8 0 11 0;
#X connect 12 0 13 0;
#X connect 13 0 24 0;
#X connect 14 0 15 0;
#X connect 15 0 16 0;
#X connect 16 0 17 0;
#X connect 17 0 23 0;
#X connect 18 0 19 0;
#X connect 19 0 20 0;
#X connect 20 0 21 0;
#X connect 21 0 23 0;
#X connect 22 0 18 0;
#X connect 23 0 13 1;
#X connect 23 0 27 0;
#X connect 25 0 26 0;
#X connect 28 0 4 0;
#X connect 29 0 5 0;
#X connect 30 0 28 0;
#X connect 31 0 29 0;
#X connect 32 0 3 0;
