#N canvas 0 0 811 558 10;
#X obj 286 53 inlet~;
#X obj 258 430 outlet~;
#X obj 137 120 average 10;
#X obj 154 216 osc~;
#X floatatom 181 101 5 0 0 0 - - -;
#X floatatom 250 170 5 0 0 0 - - -;
#X obj 137 143 / 4;
#X floatatom 102 207 5 0 0 0 - - -;
#X obj 148 163 - 2;
#X obj 152 188 clip 0 127;
#X obj 218 170 / 64;
#X obj 205 233 *~;
#X obj 263 340 *~;
#X obj 263 378 -~ 0.2;
#X text 218 106 GAIN LFO;
#X obj 369 53 inlet x;
#X obj 442 55 inlet y;
#X connect 0 0 12 1;
#X connect 2 0 6 0;
#X connect 3 0 11 0;
#X connect 6 0 8 0;
#X connect 8 0 9 0;
#X connect 9 0 3 0;
#X connect 9 0 7 0;
#X connect 10 0 5 0;
#X connect 10 0 11 1;
#X connect 11 0 12 0;
#X connect 12 0 13 0;
#X connect 13 0 1 0;
#X connect 15 0 2 0;
#X connect 15 0 4 0;
#X connect 16 0 10 0;
