#N canvas 1672 0 1366 726 10;
#X obj 87 39 r loopsize;
#X obj 265 44 inlet~;
#X msg 279 99 0.3;
#X msg 318 98 0;
#X obj 265 128 *~;
#X obj 85 77 s \$0-beat;
#X obj 279 72 r \$0-beat;
#X obj 289 148 s~ \$0-out;
#X obj 75 301 delwrite~ \$0-dline1 3000;
#X obj 72 358 delread~ \$0-dline1 400;
#X obj 97 107 / 4;
#X floatatom 126 109 5 0 0 0 - - -;
#X obj 82 153 * 2;
#X obj 114 153 * 3;
#X obj 28 190 s \$0-dl1;
#X obj 87 194 s \$0-dl2;
#X obj 147 193 s \$0-dl3;
#X obj 210 195 s \$0-dl4;
#X obj 71 332 r \$0-dl1;
#X obj 73 385 *~ 0.8;
#X obj 76 276 r~ \$0-mtap;
#X obj 264 174 s~ \$0-mtap;
#X obj 242 272 r~ \$0-mtap;
#X obj 241 297 delwrite~ \$0-dline2 3000;
#X obj 238 354 delread~ \$0-dline2 400;
#X obj 237 328 r \$0-dl2;
#X obj 239 381 *~ 0.6;
#X obj 419 269 r~ \$0-mtap;
#X obj 585 265 r~ \$0-mtap;
#X obj 418 294 delwrite~ \$0-dline3 3000;
#X obj 414 325 r \$0-dl3;
#X obj 415 351 delread~ \$0-dline3 400;
#X obj 416 374 *~ 0.4;
#X obj 584 290 delwrite~ \$0-dline4 3000;
#X obj 580 321 r \$0-dl4;
#X obj 581 347 delread~ \$0-dline4 400;
#X obj 582 374 *~ 0.2;
#X obj 418 64 r~ \$0-out;
#X obj 524 62 catch~ \$0-outL;
#X obj 534 82 catch~ \$0-outR;
#X obj 377 161 outlet~;
#X floatatom 156 67 5 0 0 0 - - -;
#X obj 73 410 throw~ \$0-outL;
#X obj 239 406 throw~ \$0-outR;
#X obj 416 403 throw~ \$0-outL;
#X obj 582 399 throw~ \$0-outR;
#X connect 0 0 5 0;
#X connect 0 0 10 0;
#X connect 0 0 14 0;
#X connect 0 0 41 0;
#X connect 1 0 4 0;
#X connect 2 0 4 1;
#X connect 3 0 4 1;
#X connect 4 0 7 0;
#X connect 4 0 21 0;
#X connect 6 0 2 0;
#X connect 6 0 3 0;
#X connect 9 0 19 0;
#X connect 10 0 11 0;
#X connect 10 0 12 0;
#X connect 10 0 13 0;
#X connect 10 0 17 0;
#X connect 12 0 15 0;
#X connect 13 0 16 0;
#X connect 18 0 9 0;
#X connect 19 0 42 0;
#X connect 20 0 8 0;
#X connect 22 0 23 0;
#X connect 24 0 26 0;
#X connect 25 0 24 0;
#X connect 26 0 43 0;
#X connect 27 0 29 0;
#X connect 28 0 33 0;
#X connect 30 0 31 0;
#X connect 31 0 32 0;
#X connect 32 0 44 0;
#X connect 34 0 35 0;
#X connect 35 0 36 0;
#X connect 36 0 45 0;
#X connect 37 0 40 0;
#X connect 38 0 40 0;
#X connect 39 0 40 0;
