#N canvas 432 137 840 631 10;
#X msg 347 -55 1;
#X msg 401 -56 2;
#X msg 450 -56 3;
#X msg 516 -59 4;
#X msg 562 -57 5;
#X obj 375 -26 int;
#X obj 342 1 == 1;
#X obj 370 1 == 2;
#X obj 399 0 == 3;
#X obj 428 0 == 4;
#X obj 457 -1 == 5;
#X obj 110 124 tgl 15 0 empty empty empty 17 7 0 10 -262144 -1 -1 0
1;
#X obj 111 143 tgl 15 0 empty empty empty 17 7 0 10 -262144 -1 -1 0
1;
#X obj 111 180 tgl 15 0 empty empty empty 17 7 0 10 -262144 -1 -1 0
1;
#X obj 111 161 tgl 15 0 empty empty empty 17 7 0 10 -262144 -1 -1 1
1;
#X obj 109 107 tgl 15 0 empty empty empty 17 7 0 10 -262144 -1 -1 0
1;
#X text 654 -84 replace with gx controls;
#X obj 204 359 osc~;
#X obj 327 365 phasor~;
#N canvas 0 0 450 300 voc 0;
#X obj 241 119 inlet;
#X obj 250 166 outlet~;
#X restore 378 365 pd voc;
#X obj 260 321 phasor~;
#X obj 257 343 expr~ $v1 > 0.5;
#X obj 429 361 xlrmtrosc;
#X obj 445 257 sig~;
#X obj 444 283 lop~ 80;
#X obj 423 389 *~;
#X obj 388 257 sig~;
#X obj 387 283 lop~ 80;
#X obj 371 388 *~;
#X obj 323 387 *~;
#X obj 261 385 *~;
#X obj 209 384 *~;
#X obj 332 255 sig~;
#X obj 331 281 lop~ 80;
#X obj 278 256 sig~;
#X obj 277 282 lop~ 80;
#X obj 219 257 sig~;
#X obj 218 283 lop~ 80;
#X obj 345 -86 inlet;
#X obj 400 -86 inlet;
#X obj 447 -85 inlet;
#X obj 514 -85 inlet;
#X obj 564 -85 inlet;
#X obj 263 -89 inlet note;
#X obj 615 -79 inlet xvolume;
#X obj 432 449 *~;
#X obj 613 -40 / 127;
#X obj 517 446 outlet~;
#X connect 0 0 5 0;
#X connect 1 0 5 0;
#X connect 2 0 5 0;
#X connect 3 0 5 0;
#X connect 4 0 5 0;
#X connect 5 0 6 0;
#X connect 5 0 7 0;
#X connect 5 0 8 0;
#X connect 5 0 9 0;
#X connect 5 0 10 0;
#X connect 6 0 13 0;
#X connect 7 0 14 0;
#X connect 8 0 12 0;
#X connect 9 0 11 0;
#X connect 10 0 15 0;
#X connect 11 0 26 0;
#X connect 12 0 32 0;
#X connect 13 0 36 0;
#X connect 14 0 34 0;
#X connect 15 0 23 0;
#X connect 17 0 31 0;
#X connect 18 0 29 0;
#X connect 19 0 28 0;
#X connect 20 0 21 0;
#X connect 21 0 30 0;
#X connect 22 0 25 0;
#X connect 23 0 24 0;
#X connect 24 0 25 1;
#X connect 25 0 45 0;
#X connect 26 0 27 0;
#X connect 27 0 28 1;
#X connect 28 0 45 0;
#X connect 29 0 45 0;
#X connect 30 0 45 0;
#X connect 31 0 45 0;
#X connect 32 0 33 0;
#X connect 33 0 29 1;
#X connect 34 0 35 0;
#X connect 35 0 30 1;
#X connect 36 0 37 0;
#X connect 37 0 31 1;
#X connect 38 0 0 0;
#X connect 39 0 1 0;
#X connect 40 0 2 0;
#X connect 41 0 3 0;
#X connect 42 0 4 0;
#X connect 43 0 17 0;
#X connect 43 0 20 0;
#X connect 43 0 18 0;
#X connect 44 0 46 0;
#X connect 45 0 47 0;
#X connect 46 0 45 1;
#X coords 0 -1 1 1 60 100 1 100 100;
