#N canvas 1672 0 1366 726 10;
#X obj 584 272 outlet~;
#X obj 1233 118 gesturenode;
#X obj 751 361 gesturenode-r;
#X floatatom 972 38 5 0 0 0 - - -;
#X obj 1200 237 s \$0-n1x;
#X obj 1250 259 s \$0-n1y;
#X obj 1281 237 s \$0-n1z;
#X obj 1143 237 s \$0-n2z;
#X obj 1099 257 s \$0-n2y;
#X obj 1056 238 s \$0-n2x;
#X obj 997 237 s \$0-n3z;
#X obj 961 261 s \$0-n3y;
#X obj 913 238 s \$0-n3x;
#X obj 854 240 s \$0-n4z;
#X obj 803 258 s \$0-n4y;
#X obj 762 238 s \$0-n4x;
#X obj 854 488 s \$0-n5z;
#X obj 808 506 s \$0-n5y;
#X obj 765 487 s \$0-n5x;
#X obj 1007 487 s \$0-n6z;
#X obj 919 487 s \$0-n6x;
#X obj 1149 484 s \$0-n7z;
#X obj 1107 506 s \$0-n7y;
#X obj 1063 487 s \$0-n7x;
#X obj 1298 485 s \$0-n8z;
#X obj 1250 510 s \$0-n8y;
#X obj 1211 487 s \$0-n8x;
#X text 885 42 n=node;
#X obj 1095 35 s \$0-n \$1 z;
#X obj 1015 36 s \$0-pgm;
#X obj 1293 45 r parakey;
#X obj 1233 88 == 1;
#X obj 819 84 r frange4;
#X obj 963 87 r frange3;
#X obj 1122 88 r frange2;
#X obj 1270 88 r frange1;
#X obj 786 85 == 4;
#X obj 930 88 == 3;
#X obj 1086 89 == 2;
#X obj 1141 289 r parakey;
#X obj 802 309 == 5;
#X obj 835 308 r frange5;
#X obj 947 310 == 6;
#X obj 980 309 r frange6;
#X obj 1077 314 == 7;
#X obj 1113 313 r frange7;
#X obj 1219 317 == 8;
#X obj 1256 317 r frange8;
#X obj 906 364 gesturenode-r;
#X obj 1060 364 gesturenode-r;
#X obj 1217 362 gesturenode-r;
#X obj 923 117 gesturenode;
#X obj 1077 117 gesturenode;
#X obj 767 115 gesturenode;
#X obj 1148 319;
#X floatatom 746 493 5 0 0 0 - - -;
#X obj 963 507 s \$0-n6y;
#X obj 285 40 inlet note;
#X obj 168 187 wrap~;
#X obj 151 160 -~ 0.5;
#X obj 167 211 -~ 0.5;
#X obj 151 237 -~;
#X obj 185 362 wrap~;
#X obj 168 339 -~ 0.5;
#X obj 184 387 -~ 0.5;
#X obj 168 411 -~;
#X obj 151 434 *~;
#X obj 167 316 phasor~;
#X obj 241 116 t b;
#X obj 109 470 *~;
#X obj 69 187 wrap~;
#X obj 52 160 -~ 0.5;
#X obj 68 211 -~ 0.5;
#X obj 52 237 -~;
#X obj 86 362 wrap~;
#X obj 69 339 -~ 0.5;
#X obj 85 387 -~ 0.5;
#X obj 69 411 -~;
#X obj 52 434 *~;
#X obj 68 316 phasor~;
#X obj 52 137 phasor~ 2139;
#X obj 151 137 phasor~ 441;
#X obj 73 113 *~ 1.33;
#X obj 167 263 *~ 1000;
#X obj 68 263 *~ 1000;
#X obj 241 141 ead~ 1 300;
#X obj 108 491 *~ 0.25;
#X obj 114 94 sig~ 881;
#X obj 67 291 +~ 1763;
#X obj 166 291 +~ 884;
#X obj 339 245 r breath;
#X obj 339 268 / 127;
#X obj 250 75 bng 15 250 50 0 empty empty empty 17 7 0 10 -262144 -1
-1;
#X connect 1 0 4 0;
#X connect 1 1 5 0;
#X connect 1 2 6 0;
#X connect 2 0 18 0;
#X connect 2 0 55 0;
#X connect 2 1 17 0;
#X connect 2 2 16 0;
#X connect 30 0 31 0;
#X connect 30 0 36 0;
#X connect 30 0 37 0;
#X connect 30 0 38 0;
#X connect 31 0 1 0;
#X connect 32 0 53 2;
#X connect 33 0 51 2;
#X connect 34 0 52 2;
#X connect 35 0 1 2;
#X connect 36 0 53 0;
#X connect 37 0 51 0;
#X connect 38 0 52 0;
#X connect 39 0 40 0;
#X connect 39 0 42 0;
#X connect 39 0 44 0;
#X connect 39 0 46 0;
#X connect 40 0 2 0;
#X connect 41 0 2 2;
#X connect 42 0 48 0;
#X connect 43 0 48 2;
#X connect 44 0 49 0;
#X connect 45 0 49 2;
#X connect 46 0 50 0;
#X connect 47 0 50 2;
#X connect 48 0 20 0;
#X connect 48 1 56 0;
#X connect 48 2 19 0;
#X connect 49 0 23 0;
#X connect 49 1 22 0;
#X connect 49 2 21 0;
#X connect 50 0 26 0;
#X connect 50 1 25 0;
#X connect 50 2 24 0;
#X connect 51 0 12 0;
#X connect 51 1 11 0;
#X connect 51 2 10 0;
#X connect 52 0 9 0;
#X connect 52 1 8 0;
#X connect 52 2 7 0;
#X connect 53 0 15 0;
#X connect 53 1 14 0;
#X connect 53 2 13 0;
#X connect 57 0 3 0;
#X connect 57 0 29 0;
#X connect 57 0 1 1;
#X connect 57 0 2 1;
#X connect 57 0 48 1;
#X connect 57 0 49 1;
#X connect 57 0 50 1;
#X connect 57 0 51 1;
#X connect 57 0 52 1;
#X connect 57 0 53 1;
#X connect 57 0 68 0;
#X connect 58 0 60 0;
#X connect 59 0 58 0;
#X connect 59 0 61 0;
#X connect 60 0 61 1;
#X connect 61 0 66 0;
#X connect 61 0 83 0;
#X connect 62 0 64 0;
#X connect 63 0 62 0;
#X connect 63 0 65 0;
#X connect 64 0 65 1;
#X connect 65 0 66 1;
#X connect 66 0 69 0;
#X connect 67 0 63 0;
#X connect 68 0 85 0;
#X connect 69 0 86 0;
#X connect 70 0 72 0;
#X connect 71 0 70 0;
#X connect 71 0 73 0;
#X connect 72 0 73 1;
#X connect 73 0 78 0;
#X connect 73 0 84 0;
#X connect 74 0 76 0;
#X connect 75 0 74 0;
#X connect 75 0 77 0;
#X connect 76 0 77 1;
#X connect 77 0 78 1;
#X connect 78 0 69 0;
#X connect 79 0 75 0;
#X connect 80 0 71 0;
#X connect 81 0 59 0;
#X connect 82 0 80 0;
#X connect 83 0 89 0;
#X connect 84 0 88 0;
#X connect 85 0 69 1;
#X connect 86 0 0 0;
#X connect 87 0 81 0;
#X connect 87 0 82 0;
#X connect 88 0 79 0;
#X connect 89 0 67 0;
#X connect 90 0 91 0;
#X connect 91 0 86 1;
#X connect 92 0 68 0;
