#N canvas 109 9 1362 722 10;
#X obj 124 256 outlet~;
#X obj 1219 115 gesturenode;
#X obj 737 358 gesturenode-r;
#X floatatom 958 35 5 0 0 0 - - -;
#X obj 1186 234 s \$0-n1x;
#X obj 1236 256 s \$0-n1y;
#X obj 1267 234 s \$0-n1z;
#X obj 1129 234 s \$0-n2z;
#X obj 1085 254 s \$0-n2y;
#X obj 1042 235 s \$0-n2x;
#X obj 983 234 s \$0-n3z;
#X obj 947 258 s \$0-n3y;
#X obj 899 235 s \$0-n3x;
#X obj 840 237 s \$0-n4z;
#X obj 789 255 s \$0-n4y;
#X obj 748 235 s \$0-n4x;
#X obj 840 485 s \$0-n5z;
#X obj 794 503 s \$0-n5y;
#X obj 751 484 s \$0-n5x;
#X obj 993 484 s \$0-n6z;
#X obj 905 484 s \$0-n6x;
#X obj 1135 481 s \$0-n7z;
#X obj 1093 503 s \$0-n7y;
#X obj 1049 484 s \$0-n7x;
#X obj 1284 482 s \$0-n8z;
#X obj 1236 507 s \$0-n8y;
#X obj 1197 484 s \$0-n8x;
#X text 871 39 n=node;
#X obj 1081 32 s \$0-n \$1 z;
#X obj 1001 33 s \$0-pgm;
#X obj 1279 42 r parakey;
#X obj 1219 85 == 1;
#X obj 805 81 r frange4;
#X obj 949 84 r frange3;
#X obj 1108 85 r frange2;
#X obj 1256 85 r frange1;
#X obj 772 82 == 4;
#X obj 916 85 == 3;
#X obj 1072 86 == 2;
#X obj 1127 286 r parakey;
#X obj 788 306 == 5;
#X obj 821 305 r frange5;
#X obj 933 307 == 6;
#X obj 966 306 r frange6;
#X obj 1063 311 == 7;
#X obj 1099 310 r frange7;
#X obj 1205 314 == 8;
#X obj 1242 314 r frange8;
#X obj 892 361 gesturenode-r;
#X obj 1046 361 gesturenode-r;
#X obj 1203 359 gesturenode-r;
#X obj 909 114 gesturenode;
#X obj 1063 114 gesturenode;
#X obj 753 112 gesturenode;
#X obj 1134 316;
#X floatatom 732 490 5 0 0 0 - - -;
#X obj 949 504 s \$0-n6y;
#X obj 80 118 noise~;
#X obj 131 145 clip~ -0.9 0.9;
#X obj 124 210 *~;
#X obj 40 167 ead~ 3 150;
#X obj 132 118 *~ 20;
#X obj 131 169 bp~ 400 25;
#X obj 124 231 *~ 0.6;
#X obj 39 122 t f;
#X obj 39 143 sel 1;
#X obj 132 91 osc~ 300;
#X obj 222 145 r breath;
#X obj 222 168 / 127;
#X floatatom 217 89 5 0 0 0 - - -;
#X obj 260 10 inlet note;
#X obj 258 77 switch~;
#X obj 260 31 spigot;
#X obj 597 23 inlet pgm;
#X obj 259 54 == 88;
#X connect 1 0 4 0;
#X connect 1 1 5 0;
#X connect 1 2 6 0;
#X connect 2 0 18 0;
#X connect 2 0 55 0;
#X connect 2 1 17 0;
#X connect 2 2 16 0;
#X connect 30 0 31 0;
#X connect 30 0 36 0;
#X connect 30 0 37 0;
#X connect 30 0 38 0;
#X connect 31 0 1 0;
#X connect 32 0 53 2;
#X connect 33 0 51 2;
#X connect 34 0 52 2;
#X connect 35 0 1 2;
#X connect 36 0 53 0;
#X connect 37 0 51 0;
#X connect 38 0 52 0;
#X connect 39 0 40 0;
#X connect 39 0 42 0;
#X connect 39 0 44 0;
#X connect 39 0 46 0;
#X connect 40 0 2 0;
#X connect 41 0 2 2;
#X connect 42 0 48 0;
#X connect 43 0 48 2;
#X connect 44 0 49 0;
#X connect 45 0 49 2;
#X connect 46 0 50 0;
#X connect 47 0 50 2;
#X connect 48 0 20 0;
#X connect 48 1 56 0;
#X connect 48 2 19 0;
#X connect 49 0 23 0;
#X connect 49 1 22 0;
#X connect 49 2 21 0;
#X connect 50 0 26 0;
#X connect 50 1 25 0;
#X connect 50 2 24 0;
#X connect 51 0 12 0;
#X connect 51 1 11 0;
#X connect 51 2 10 0;
#X connect 52 0 9 0;
#X connect 52 1 8 0;
#X connect 52 2 7 0;
#X connect 53 0 15 0;
#X connect 53 1 14 0;
#X connect 53 2 13 0;
#X connect 57 0 58 0;
#X connect 58 0 62 0;
#X connect 59 0 63 0;
#X connect 60 0 59 0;
#X connect 61 0 58 0;
#X connect 62 0 59 1;
#X connect 63 0 0 0;
#X connect 64 0 65 0;
#X connect 65 0 60 0;
#X connect 66 0 61 0;
#X connect 67 0 68 0;
#X connect 68 0 63 1;
#X connect 69 0 62 1;
#X connect 70 0 72 0;
#X connect 72 0 74 0;
#X connect 73 0 72 1;
#X connect 74 0 3 0;
#X connect 74 0 29 0;
#X connect 74 0 1 1;
#X connect 74 0 2 1;
#X connect 74 0 48 1;
#X connect 74 0 49 1;
#X connect 74 0 50 1;
#X connect 74 0 51 1;
#X connect 74 0 52 1;
#X connect 74 0 53 1;
#X connect 74 0 64 0;
#X connect 74 0 71 0;
