#N canvas -104 34 1362 722 10;
#X obj 358 543 outlet~;
#X obj 1229 125 gesturenode;
#X obj 747 368 gesturenode-r;
#X floatatom 968 45 5 0 0 0 - - -;
#X obj 1196 244 s \$0-n1x;
#X obj 1246 266 s \$0-n1y;
#X obj 1277 244 s \$0-n1z;
#X obj 1139 244 s \$0-n2z;
#X obj 1095 264 s \$0-n2y;
#X obj 1052 245 s \$0-n2x;
#X obj 993 244 s \$0-n3z;
#X obj 957 268 s \$0-n3y;
#X obj 909 245 s \$0-n3x;
#X obj 850 247 s \$0-n4z;
#X obj 799 265 s \$0-n4y;
#X obj 758 245 s \$0-n4x;
#X obj 850 495 s \$0-n5z;
#X obj 804 513 s \$0-n5y;
#X obj 761 494 s \$0-n5x;
#X obj 1003 494 s \$0-n6z;
#X obj 915 494 s \$0-n6x;
#X obj 1145 491 s \$0-n7z;
#X obj 1103 513 s \$0-n7y;
#X obj 1059 494 s \$0-n7x;
#X obj 1294 492 s \$0-n8z;
#X obj 1246 517 s \$0-n8y;
#X obj 1207 494 s \$0-n8x;
#X text 881 49 n=node;
#X obj 1091 42 s \$0-n \$1 z;
#X obj 1011 43 s \$0-pgm;
#X obj 1289 52 r parakey;
#X obj 1229 95 == 1;
#X obj 815 91 r frange4;
#X obj 959 94 r frange3;
#X obj 1118 95 r frange2;
#X obj 1266 95 r frange1;
#X obj 782 92 == 4;
#X obj 926 95 == 3;
#X obj 1082 96 == 2;
#X obj 1137 296 r parakey;
#X obj 798 316 == 5;
#X obj 831 315 r frange5;
#X obj 943 317 == 6;
#X obj 976 316 r frange6;
#X obj 1073 321 == 7;
#X obj 1109 320 r frange7;
#X obj 1215 324 == 8;
#X obj 1252 324 r frange8;
#X obj 902 371 gesturenode-r;
#X obj 1056 371 gesturenode-r;
#X obj 1213 369 gesturenode-r;
#X obj 919 124 gesturenode;
#X obj 1073 124 gesturenode;
#X obj 763 122 gesturenode;
#X obj 1144 326;
#X floatatom 742 500 5 0 0 0 - - -;
#X obj 959 514 s \$0-n6y;
#X obj 625 13 inlet note;
#X obj 201 179 noise~;
#X obj 348 438 *~;
#X obj 163 423 *~;
#X obj 179 363 *~ 0.8;
#X obj 160 456 *~ 0.2;
#X obj 181 397 ead~ 1 800;
#X obj 388 258 del 30;
#X obj 389 278 del 20;
#X obj 390 298 del 15;
#X obj 388 319 del 10;
#X obj 75 330 *~ 0.1;
#X obj 97 260 bp~ 1300 10;
#X obj 265 260 bp~ 700 10;
#X obj 348 405 ead~ 3 50;
#X obj 15 260 lop~ 8000;
#X obj 200 219 hip~ 300;
#X obj 354 503 *~ 0.7;
#X obj 335 147 t f;
#X obj 335 168 sel 1;
#X obj 187 260 bp~ 2500 4;
#X obj 351 482 bp~ 3000 2;
#X obj 426 453 r breath;
#X obj 426 476 / 127;
#X obj 680 44 switch~;
#X obj 791 25 inlet pgm;
#X obj 630 43 spigot;
#X obj 630 76 == 36;
#X connect 1 0 4 0;
#X connect 1 1 5 0;
#X connect 1 2 6 0;
#X connect 2 0 18 0;
#X connect 2 0 55 0;
#X connect 2 1 17 0;
#X connect 2 2 16 0;
#X connect 30 0 31 0;
#X connect 30 0 36 0;
#X connect 30 0 37 0;
#X connect 30 0 38 0;
#X connect 31 0 1 0;
#X connect 32 0 53 2;
#X connect 33 0 51 2;
#X connect 34 0 52 2;
#X connect 35 0 1 2;
#X connect 36 0 53 0;
#X connect 37 0 51 0;
#X connect 38 0 52 0;
#X connect 39 0 40 0;
#X connect 39 0 42 0;
#X connect 39 0 44 0;
#X connect 39 0 46 0;
#X connect 40 0 2 0;
#X connect 41 0 2 2;
#X connect 42 0 48 0;
#X connect 43 0 48 2;
#X connect 44 0 49 0;
#X connect 45 0 49 2;
#X connect 46 0 50 0;
#X connect 47 0 50 2;
#X connect 48 0 20 0;
#X connect 48 1 56 0;
#X connect 48 2 19 0;
#X connect 49 0 23 0;
#X connect 49 1 22 0;
#X connect 49 2 21 0;
#X connect 50 0 26 0;
#X connect 50 1 25 0;
#X connect 50 2 24 0;
#X connect 51 0 12 0;
#X connect 51 1 11 0;
#X connect 51 2 10 0;
#X connect 52 0 9 0;
#X connect 52 1 8 0;
#X connect 52 2 7 0;
#X connect 53 0 15 0;
#X connect 53 1 14 0;
#X connect 53 2 13 0;
#X connect 57 0 3 0;
#X connect 57 0 29 0;
#X connect 57 0 1 1;
#X connect 57 0 2 1;
#X connect 57 0 48 1;
#X connect 57 0 49 1;
#X connect 57 0 50 1;
#X connect 57 0 51 1;
#X connect 57 0 52 1;
#X connect 57 0 53 1;
#X connect 57 0 81 0;
#X connect 57 0 83 0;
#X connect 58 0 72 0;
#X connect 58 0 73 0;
#X connect 59 0 78 0;
#X connect 60 0 59 1;
#X connect 60 0 62 0;
#X connect 61 0 60 1;
#X connect 62 0 78 0;
#X connect 63 0 60 0;
#X connect 64 0 65 0;
#X connect 64 0 71 0;
#X connect 65 0 66 0;
#X connect 65 0 71 0;
#X connect 66 0 67 0;
#X connect 66 0 71 0;
#X connect 67 0 71 0;
#X connect 68 0 61 0;
#X connect 69 0 61 0;
#X connect 70 0 61 0;
#X connect 71 0 59 0;
#X connect 72 0 68 0;
#X connect 73 0 69 0;
#X connect 73 0 70 0;
#X connect 73 0 77 0;
#X connect 74 0 0 0;
#X connect 75 0 76 0;
#X connect 76 0 71 0;
#X connect 76 0 64 0;
#X connect 76 0 63 0;
#X connect 77 0 61 0;
#X connect 78 0 74 0;
#X connect 79 0 80 0;
#X connect 80 0 74 1;
#X connect 82 0 83 1;
#X connect 83 0 84 0;
#X connect 84 0 75 0;
