#N canvas 1672 0 1366 726 10;
#X obj 645 653 outlet~;
#X obj 1227 105 gesturenode;
#X obj 745 348 gesturenode-r;
#X floatatom 966 25 5 0 0 0 - - -;
#X obj 1194 224 s \$0-n1x;
#X obj 1244 246 s \$0-n1y;
#X obj 1275 224 s \$0-n1z;
#X obj 1137 224 s \$0-n2z;
#X obj 1093 244 s \$0-n2y;
#X obj 1050 225 s \$0-n2x;
#X obj 991 224 s \$0-n3z;
#X obj 955 248 s \$0-n3y;
#X obj 907 225 s \$0-n3x;
#X obj 848 227 s \$0-n4z;
#X obj 797 245 s \$0-n4y;
#X obj 756 225 s \$0-n4x;
#X obj 848 475 s \$0-n5z;
#X obj 802 493 s \$0-n5y;
#X obj 759 474 s \$0-n5x;
#X obj 1001 474 s \$0-n6z;
#X obj 913 474 s \$0-n6x;
#X obj 1143 471 s \$0-n7z;
#X obj 1101 493 s \$0-n7y;
#X obj 1057 474 s \$0-n7x;
#X obj 1292 472 s \$0-n8z;
#X obj 1244 497 s \$0-n8y;
#X obj 1205 474 s \$0-n8x;
#X text 879 29 n=node;
#X obj 1089 22 s \$0-n \$1 z;
#X obj 1009 23 s \$0-pgm;
#X obj 1287 32 r parakey;
#X obj 1227 75 == 1;
#X obj 813 71 r frange4;
#X obj 957 74 r frange3;
#X obj 1116 75 r frange2;
#X obj 1264 75 r frange1;
#X obj 780 72 == 4;
#X obj 924 75 == 3;
#X obj 1080 76 == 2;
#X obj 1135 276 r parakey;
#X obj 796 296 == 5;
#X obj 829 295 r frange5;
#X obj 941 297 == 6;
#X obj 974 296 r frange6;
#X obj 1071 301 == 7;
#X obj 1107 300 r frange7;
#X obj 1213 304 == 8;
#X obj 1250 304 r frange8;
#X obj 900 351 gesturenode-r;
#X obj 1054 351 gesturenode-r;
#X obj 1211 349 gesturenode-r;
#X obj 917 104 gesturenode;
#X obj 1071 104 gesturenode;
#X obj 761 102 gesturenode;
#X obj 1142 306;
#X floatatom 740 480 5 0 0 0 - - -;
#X obj 957 494 s \$0-n6y;
#X obj 279 27 inlet note;
#X obj 400 286 t b;
#X obj 68 395 *~;
#X obj 215 397 *~;
#X obj 135 427 *~;
#X obj 124 479 +~;
#X obj 123 502 osc~ 5435;
#X obj 63 452 sig~ 3435;
#X obj 135 450 *~ 12000;
#X obj 233 356 osc~ 2441;
#X obj 213 449 noise~;
#X obj 165 568 *~;
#X obj 220 566 *~;
#X obj 8 358 osc~ 12221;
#X obj 85 358 osc~ 8309;
#X obj 157 357 osc~ 2383;
#X obj 213 492 clip~ -0.9 0.9;
#X obj 332 443 noise~;
#X obj 332 486 clip~ -0.9 0.9;
#X obj 213 470 bp~ 8000 4;
#X obj 399 314 ead~ 2 5000;
#X obj 127 533 *~;
#X obj 292 313 ead~ 4000 3000;
#X obj 230 587 *~ 0.2;
#X obj 305 563 *~;
#X obj 514 311 ead~ 1 200;
#X obj 417 342 ead~ 300 7000;
#X obj 162 588 *~ 0.2;
#X obj 333 591 *~ 0.4;
#X obj 331 464 bp~ 4000 7;
#X obj 189 647 *~ 0.8;
#X obj 429 487 r breath;
#X obj 429 510 / 127;
#X connect 1 0 4 0;
#X connect 1 1 5 0;
#X connect 1 2 6 0;
#X connect 2 0 18 0;
#X connect 2 0 55 0;
#X connect 2 1 17 0;
#X connect 2 2 16 0;
#X connect 30 0 31 0;
#X connect 30 0 36 0;
#X connect 30 0 37 0;
#X connect 30 0 38 0;
#X connect 31 0 1 0;
#X connect 32 0 53 2;
#X connect 33 0 51 2;
#X connect 34 0 52 2;
#X connect 35 0 1 2;
#X connect 36 0 53 0;
#X connect 37 0 51 0;
#X connect 38 0 52 0;
#X connect 39 0 40 0;
#X connect 39 0 42 0;
#X connect 39 0 44 0;
#X connect 39 0 46 0;
#X connect 40 0 2 0;
#X connect 41 0 2 2;
#X connect 42 0 48 0;
#X connect 43 0 48 2;
#X connect 44 0 49 0;
#X connect 45 0 49 2;
#X connect 46 0 50 0;
#X connect 47 0 50 2;
#X connect 48 0 20 0;
#X connect 48 1 56 0;
#X connect 48 2 19 0;
#X connect 49 0 23 0;
#X connect 49 1 22 0;
#X connect 49 2 21 0;
#X connect 50 0 26 0;
#X connect 50 1 25 0;
#X connect 50 2 24 0;
#X connect 51 0 12 0;
#X connect 51 1 11 0;
#X connect 51 2 10 0;
#X connect 52 0 9 0;
#X connect 52 1 8 0;
#X connect 52 2 7 0;
#X connect 53 0 15 0;
#X connect 53 1 14 0;
#X connect 53 2 13 0;
#X connect 57 0 3 0;
#X connect 57 0 29 0;
#X connect 57 0 1 1;
#X connect 57 0 2 1;
#X connect 57 0 48 1;
#X connect 57 0 49 1;
#X connect 57 0 50 1;
#X connect 57 0 51 1;
#X connect 57 0 52 1;
#X connect 57 0 53 1;
#X connect 57 0 58 0;
#X connect 58 0 77 0;
#X connect 58 0 79 0;
#X connect 58 0 82 0;
#X connect 58 0 83 0;
#X connect 59 0 61 0;
#X connect 60 0 61 1;
#X connect 61 0 65 0;
#X connect 62 0 63 0;
#X connect 63 0 78 0;
#X connect 64 0 62 0;
#X connect 65 0 62 1;
#X connect 66 0 60 1;
#X connect 67 0 76 0;
#X connect 68 0 84 0;
#X connect 69 0 80 0;
#X connect 70 0 59 0;
#X connect 71 0 59 1;
#X connect 72 0 60 0;
#X connect 73 0 68 0;
#X connect 74 0 86 0;
#X connect 75 0 69 0;
#X connect 75 0 81 0;
#X connect 76 0 73 0;
#X connect 77 0 68 1;
#X connect 78 0 68 0;
#X connect 78 0 81 0;
#X connect 79 0 78 1;
#X connect 80 0 87 0;
#X connect 81 0 85 0;
#X connect 82 0 81 1;
#X connect 83 0 69 1;
#X connect 84 0 87 0;
#X connect 85 0 87 0;
#X connect 86 0 75 0;
#X connect 87 0 0 0;
#X connect 88 0 89 0;
#X connect 89 0 87 1;
