#N canvas 21 0 1362 722 10;
#X obj 198 442 outlet~;
#X obj 1223 108 gesturenode;
#X obj 741 351 gesturenode-r;
#X floatatom 962 28 5 0 0 0 - - -;
#X obj 1190 227 s \$0-n1x;
#X obj 1240 249 s \$0-n1y;
#X obj 1271 227 s \$0-n1z;
#X obj 1133 227 s \$0-n2z;
#X obj 1089 247 s \$0-n2y;
#X obj 1046 228 s \$0-n2x;
#X obj 987 227 s \$0-n3z;
#X obj 951 251 s \$0-n3y;
#X obj 903 228 s \$0-n3x;
#X obj 844 230 s \$0-n4z;
#X obj 793 248 s \$0-n4y;
#X obj 752 228 s \$0-n4x;
#X obj 844 478 s \$0-n5z;
#X obj 798 496 s \$0-n5y;
#X obj 755 477 s \$0-n5x;
#X obj 997 477 s \$0-n6z;
#X obj 909 477 s \$0-n6x;
#X obj 1139 474 s \$0-n7z;
#X obj 1097 496 s \$0-n7y;
#X obj 1053 477 s \$0-n7x;
#X obj 1288 475 s \$0-n8z;
#X obj 1240 500 s \$0-n8y;
#X obj 1201 477 s \$0-n8x;
#X text 875 32 n=node;
#X obj 1085 25 s \$0-n \$1 z;
#X obj 1005 26 s \$0-pgm;
#X obj 1283 35 r parakey;
#X obj 1223 78 == 1;
#X obj 809 74 r frange4;
#X obj 953 77 r frange3;
#X obj 1112 78 r frange2;
#X obj 1260 78 r frange1;
#X obj 776 75 == 4;
#X obj 920 78 == 3;
#X obj 1076 79 == 2;
#X obj 1131 279 r parakey;
#X obj 792 299 == 5;
#X obj 825 298 r frange5;
#X obj 937 300 == 6;
#X obj 970 299 r frange6;
#X obj 1067 304 == 7;
#X obj 1103 303 r frange7;
#X obj 1209 307 == 8;
#X obj 1246 307 r frange8;
#X obj 896 354 gesturenode-r;
#X obj 1050 354 gesturenode-r;
#X obj 1207 352 gesturenode-r;
#X obj 913 107 gesturenode;
#X obj 1067 107 gesturenode;
#X obj 757 105 gesturenode;
#X obj 1138 309;
#X floatatom 736 483 5 0 0 0 - - -;
#X obj 953 497 s \$0-n6y;
#X obj 275 30 inlet note;
#X obj 103 201 *~;
#X obj 250 203 *~;
#X obj 170 233 *~;
#X obj 159 285 +~;
#X obj 170 320 osc~ 5435;
#X obj 98 258 sig~ 3435;
#X obj 170 256 *~ 12000;
#X obj 43 164 osc~ 6221;
#X obj 118 164 osc~ 4409;
#X obj 192 163 osc~ 3383;
#X obj 268 162 osc~ 2441;
#X obj 248 255 noise~;
#X obj 200 348 +~;
#X obj 248 276 bp~ 9000 12;
#X obj 250 319 clip~ -0.7 0.7;
#X obj 200 374 *~;
#X obj 159 99 ead~ 2 8000;
#X obj 255 372 *~;
#X obj 177 127 ead~ 2 100;
#X obj 196 394 *~ 0.05;
#X obj 265 393 *~ 0.05;
#X obj 336 171 r breath;
#X obj 336 194 / 127;
#X obj 159 44 spigot;
#X obj 160 71 == 63;
#X obj 431 18 inlet pgm;
#X obj 283 96 switch~;
#X obj 131 94 tgl 15 0 empty empty empty 17 7 0 10 -262144 -1 -1 0
1;
#X connect 1 0 4 0;
#X connect 1 1 5 0;
#X connect 1 2 6 0;
#X connect 2 0 18 0;
#X connect 2 0 55 0;
#X connect 2 1 17 0;
#X connect 2 2 16 0;
#X connect 30 0 31 0;
#X connect 30 0 36 0;
#X connect 30 0 37 0;
#X connect 30 0 38 0;
#X connect 31 0 1 0;
#X connect 32 0 53 2;
#X connect 33 0 51 2;
#X connect 34 0 52 2;
#X connect 35 0 1 2;
#X connect 36 0 53 0;
#X connect 37 0 51 0;
#X connect 38 0 52 0;
#X connect 39 0 40 0;
#X connect 39 0 42 0;
#X connect 39 0 44 0;
#X connect 39 0 46 0;
#X connect 40 0 2 0;
#X connect 41 0 2 2;
#X connect 42 0 48 0;
#X connect 43 0 48 2;
#X connect 44 0 49 0;
#X connect 45 0 49 2;
#X connect 46 0 50 0;
#X connect 47 0 50 2;
#X connect 48 0 20 0;
#X connect 48 1 56 0;
#X connect 48 2 19 0;
#X connect 49 0 23 0;
#X connect 49 1 22 0;
#X connect 49 2 21 0;
#X connect 50 0 26 0;
#X connect 50 1 25 0;
#X connect 50 2 24 0;
#X connect 51 0 12 0;
#X connect 51 1 11 0;
#X connect 51 2 10 0;
#X connect 52 0 9 0;
#X connect 52 1 8 0;
#X connect 52 2 7 0;
#X connect 53 0 15 0;
#X connect 53 1 14 0;
#X connect 53 2 13 0;
#X connect 57 0 3 0;
#X connect 57 0 29 0;
#X connect 57 0 1 1;
#X connect 57 0 2 1;
#X connect 57 0 48 1;
#X connect 57 0 49 1;
#X connect 57 0 50 1;
#X connect 57 0 51 1;
#X connect 57 0 52 1;
#X connect 57 0 53 1;
#X connect 57 0 81 0;
#X connect 58 0 60 0;
#X connect 59 0 60 1;
#X connect 60 0 64 0;
#X connect 61 0 62 0;
#X connect 62 0 70 0;
#X connect 63 0 61 0;
#X connect 64 0 61 1;
#X connect 65 0 58 0;
#X connect 66 0 58 1;
#X connect 67 0 59 0;
#X connect 68 0 59 1;
#X connect 69 0 71 0;
#X connect 70 0 73 0;
#X connect 70 0 75 0;
#X connect 71 0 72 0;
#X connect 72 0 70 1;
#X connect 73 0 77 0;
#X connect 74 0 73 1;
#X connect 75 0 78 0;
#X connect 76 0 75 1;
#X connect 77 0 0 0;
#X connect 78 0 0 0;
#X connect 79 0 80 0;
#X connect 80 0 78 1;
#X connect 80 0 77 1;
#X connect 81 0 82 0;
#X connect 82 0 74 0;
#X connect 82 0 76 0;
#X connect 82 0 84 0;
#X connect 82 0 85 0;
#X connect 83 0 81 1;
