#N canvas 764 68 612 386 10;
#X floatatom 85 81 10 0 0 0 - - -;
#X text 115 80 <-- delay time;
#X text 314 179 write to delay line;
#X text 273 105 read from delay line;
#X text 99 152 add the original and the delayed signal;
#X obj 44 153 +~;
#X text 143 129 feedback gain;
#X obj 43 -18 inlet~;
#X obj 45 218 outlet~;
#X obj 87 -18 r loop_in_ms;
#X obj 205 23 inlet;
#X obj 209 71 / 127;
#X floatatom 248 96 5 0 0 0 - - -;
#X obj 207 50 clip 0 127;
#X obj 169 -18 r jlu1;
#X obj 169 3 tgl 15 0 empty empty empty 17 7 0 10 -262144 -1 -1 0 1
;
#X msg 122 55 300000;
#X obj 85 105 delread~ \$0-gdel 160;
#X obj 86 180 delwrite~ \$0-gdel 2000;
#X obj 87 57 / 16;
#X msg 169 51 0;
#X obj 85 129 *~ 0.7;
#X obj 458 120 vsl 15 128 0 127 0 0 empty empty empty 0 -9 0 10 -262144
-1 -1 0 1;
#X floatatom 415 317 5 0 0 0 - - -;
#X obj 417 284 / 4;
#X obj 424 63 inlet;
#X obj 377 263 int;
#X obj 361 293 t b f;
#X connect 0 0 17 0;
#X connect 5 0 8 0;
#X connect 5 0 18 0;
#X connect 7 0 5 0;
#X connect 9 0 19 0;
#X connect 10 0 13 0;
#X connect 11 0 12 0;
#X connect 11 0 21 1;
#X connect 13 0 11 0;
#X connect 14 0 15 0;
#X connect 15 0 16 0;
#X connect 15 0 20 0;
#X connect 16 0 19 0;
#X connect 17 0 21 0;
#X connect 19 0 0 0;
#X connect 20 0 21 1;
#X connect 21 0 5 1;
#X connect 22 0 24 0;
#X connect 24 0 23 0;
#X connect 24 0 26 0;
#X connect 25 0 24 0;
#X connect 26 0 27 0;
#X connect 27 0 19 0;
#X connect 27 1 19 1;
