#N canvas 820 37 667 561 10;
#X obj 204 183 inlet~;
#X obj 216 416 outlet~;
#X obj 212 369 expr~ int($v1);
#X obj 213 348 /~;
#X obj 213 389 *~;
#X obj 257 319 sig~;
#X obj 271 163 vsl 15 128 0 1 0 1 empty empty bit 0 -9 0 10 -262144
-1 -1 0 1;
#X floatatom 319 332 5 0 0 0 - - -;
#X obj 109 320 clip 0.001 0.999;
#X obj 328 152 inlet;
#X obj 414 96 clip~ -0.9 0.9;
#X obj 414 119 *~ 0.5;
#X obj 414 72 *~ 1;
#X obj 414 50 clip~ -0.2 0.7;
#X connect 0 0 3 0;
#X connect 2 0 4 0;
#X connect 3 0 2 0;
#X connect 4 0 1 0;
#X connect 5 0 4 1;
#X connect 5 0 3 1;
#X connect 6 0 7 0;
#X connect 6 0 8 0;
#X connect 8 0 5 0;
#X connect 9 0 6 0;
#X connect 10 0 11 0;
#X connect 12 0 10 0;
#X connect 13 0 12 0;
