#N canvas 0 279 1348 708 10;
#X obj 102 101 cnv 15 60 58 empty empty empty 20 12 0 14 -196688 -66577
0;
#N canvas 0 0 1362 722 synth 0;
#N canvas 0 0 331 381 accent 0;
#X obj 48 193 sig~ 0.6;
#X obj 49 218 +~;
#X obj 122 143 line~;
#X obj 121 168 *~;
#X msg 125 89 1 1;
#X obj 228 90 r timeacc;
#X obj 163 115 pack 0 150;
#X obj 163 90 del 4;
#X obj 132 51 t b;
#X obj 30 137 inlet~;
#X obj 33 281 outlet~;
#X obj 132 19 inlet;
#X obj 121 193 *~ 0.6;
#X obj 32 244 *~ 1;
#X connect 0 0 1 0;
#X connect 2 0 3 0;
#X connect 2 0 3 1;
#X connect 3 0 12 0;
#X connect 4 0 2 0;
#X connect 5 0 6 1;
#X connect 6 0 2 0;
#X connect 7 0 6 0;
#X connect 8 0 4 0;
#X connect 8 0 7 0;
#X connect 9 0 13 0;
#X connect 11 0 8 0;
#X connect 12 0 1 1;
#X connect 13 0 10 0;
#X restore 640 624 pd accent;
#N canvas 287 226 754 405 effects 0;
#X obj 104 45 inlet~;
#X obj 133 384 outlet~;
#N canvas 0 0 450 300 distort 0;
#X obj 115 40 inlet~;
#X obj 115 163 outlet~;
#X obj 115 68 clip~ -0.2 0.2;
#X obj 115 90 *~ 30;
#X obj 115 114 clip~ -0.9 0.9;
#X obj 115 137 *~ 0.5;
#X connect 0 0 2 0;
#X connect 2 0 3 0;
#X connect 3 0 4 0;
#X connect 4 0 5 0;
#X connect 5 0 1 0;
#X restore 188 115 pd distort;
#X obj 187 64 unpack 1 2 3;
#X msg 192 30 1 0 0;
#X obj 189 92 *~;
#X obj 310 17 r effects;
#X obj 191 7 loadbang;
#X obj 284 92 *~;
#X obj 283 116 gdrumdelay;
#X obj 135 330 *~ 1;
#N canvas 464 116 716 563 eq 0;
#X obj 220 40 cnv 15 150 300 empty empty empty 20 12 0 14 -24198 -66577
0;
#N canvas 0 0 454 304 using 0;
#X obj 67 239 outlet~;
#X obj 65 134 biquad~;
#X obj 66 154 biquad~;
#X obj 66 174 biquad~;
#X obj 35 110 lowpass 370 310;
#X obj 194 134 biquad~;
#X obj 193 154 biquad~;
#X obj 194 174 biquad~;
#X obj 163 111 bandpass 1175 490;
#X obj 305 111 highpass 2350 130;
#X obj 334 134 biquad~;
#X obj 334 154 biquad~;
#X obj 163 25 loadbang;
#X obj 193 239 outlet~;
#X obj 335 239 outlet~;
#X obj 66 25 inlet~ signal;
#X obj 235 54 switch~;
#X obj 235 25 inlet switch;
#X connect 1 0 2 0;
#X connect 2 0 3 0;
#X connect 3 0 0 0;
#X connect 4 0 1 0;
#X connect 4 0 2 0;
#X connect 4 0 3 0;
#X connect 5 0 6 0;
#X connect 6 0 7 0;
#X connect 7 0 13 0;
#X connect 8 0 5 0;
#X connect 8 0 6 0;
#X connect 8 0 7 0;
#X connect 9 0 10 0;
#X connect 9 0 11 0;
#X connect 10 0 11 0;
#X connect 11 0 14 0;
#X connect 12 0 4 0;
#X connect 12 0 8 0;
#X connect 12 0 9 0;
#X connect 15 0 1 0;
#X connect 15 0 5 0;
#X connect 15 0 10 0;
#X connect 17 0 16 0;
#X restore 451 175 pd using GGEE filter objects;
#X obj 395 60 tgl 15 1 empty empty empty 0 -6 0 8 -258699 -1 -1 1 1
;
#X obj 323 375 hsl 128 15 0 1 0 1 empty empty dry/wet -2 -6 0 8 -241291
-1 -1 12700 1;
#X obj 228 60 vsl 15 128 0 1 0 1 empty empty BASS 0 -8 0 8 -44926 -1
-1 12000 1;
#X obj 308 53 vsl 15 128 0 1 0 1 empty empty MIDS 0 -8 0 8 -44926 -1
-1 10500 1;
#X obj 345 54 vsl 15 128 0 1 0 1 empty empty HIGHS 0 -8 0 8 -44926
-1 -1 12601 1;
#N canvas 401 243 540 481 output_mixer 0;
#X obj 39 11 inlet dry/wet;
#X obj 22 -19 inlet~ dry;
#X obj 248 -19 inlet~ bass;
#X obj 338 -19 inlet~ mids;
#X obj 424 -19 inlet~ highs;
#X obj 87 35 inlet bass;
#X obj 127 60 inlet mids;
#X obj 157 86 inlet highs;
#X obj 22 327 outlet~;
#X obj 111 235 *~;
#X obj 141 235 *~;
#X obj 71 235 *~;
#X obj 39 35 * -1;
#X obj 39 57 + 1;
#X obj 23 287 *~;
#X obj 70 288 *~ 1;
#X connect 0 0 12 0;
#X connect 1 0 14 0;
#X connect 2 0 11 0;
#X connect 3 0 9 0;
#X connect 4 0 10 0;
#X connect 5 0 11 1;
#X connect 6 0 9 1;
#X connect 7 0 10 1;
#X connect 9 0 15 0;
#X connect 10 0 15 0;
#X connect 11 0 15 0;
#X connect 12 0 13 0;
#X connect 13 0 14 1;
#X connect 14 0 8 0;
#X connect 15 0 8 0;
#X restore 380 283 pd output_mixer;
#X obj 516 388 cnv 15 255 20 empty empty empty 20 12 0 14 -24198 -66577
0;
#X obj 379 87 *~;
#X obj 378 39 inlet~;
#X obj 380 333 outlet~;
#X obj 253 375 print;
#X obj 109 182 knob 32 32 0 1 0 0 empty empty empty 0 -8 0 8 -4160
-1 -1 2929 1;
#X obj 110 141 knob 32 32 0 1 0 0 empty empty empty 0 -8 0 8 -260097
-1 -1 2563 1;
#X obj 112 104 knob 32 32 0 1 0 0 empty empty empty 0 -8 0 8 -4034
-1 -1 3076 1;
#X text 512 31 nodal names;
#X obj 514 57 r \$0-n22x;
#X obj 450 60 r \$0-n21x;
#X obj 570 62 r \$0-n23x;
#X obj 459 106 / 127;
#X obj 509 102 / 127;
#X obj 573 99 / 127;
#X floatatom 518 132 5 0 0 0 - - -;
#X floatatom 472 136 5 0 0 0 - - -;
#X floatatom 572 133 5 0 0 0 - - -;
#X floatatom 297 214 5 0 0 0 - - -;
#X floatatom 247 236 5 0 0 0 - - -;
#X floatatom 338 212 5 0 0 0 - - -;
#X floatatom 508 291 5 0 5 0 - - -;
#X obj 390 306 compressor~ 3;
#X msg 495 329 3;
#X obj 544 305 loadbang;
#X obj 656 157 inlet;
#X obj 642 115 tgl 15 1 empty empty ON 0 -6 0 8 -258699 -1 -1 1 1;
#X connect 1 0 7 5;
#X connect 1 1 7 6;
#X connect 1 2 7 7;
#X connect 2 0 9 1;
#X connect 3 0 7 1;
#X connect 4 0 7 2;
#X connect 4 0 12 0;
#X connect 4 0 13 0;
#X connect 4 0 27 0;
#X connect 5 0 7 3;
#X connect 5 0 14 0;
#X connect 5 0 26 0;
#X connect 6 0 7 4;
#X connect 6 0 15 0;
#X connect 6 0 28 0;
#X connect 7 0 30 0;
#X connect 9 0 7 0;
#X connect 9 0 1 0;
#X connect 10 0 9 0;
#X connect 17 0 21 0;
#X connect 18 0 20 0;
#X connect 19 0 22 0;
#X connect 20 0 4 0;
#X connect 20 0 24 0;
#X connect 21 0 5 0;
#X connect 21 0 23 0;
#X connect 22 0 6 0;
#X connect 22 0 25 0;
#X connect 30 0 11 0;
#X connect 31 0 30 1;
#X connect 32 0 31 0;
#X connect 33 0 1 1;
#X coords 0 -1 1 1 50 120 1 100 100;
#X restore 547 282 pd eq;
#X floatatom 503 204 5 0 0 0 - - -;
#X obj 501 183 r \$0-n7x;
#X obj 484 225 gdel;
#X obj 484 260 gverb;
#X obj 451 199 gflange;
#X obj 490 113 centerer;
#X obj 490 91 r yaxisr;
#X obj 59 117 mono-bitcrusher /key;
#X obj 488 69 r \$0-n5x;
#X obj 412 113 centerer;
#X obj 412 91 r yaxisr;
#X obj 410 69 r \$0-n5y;
#X obj 138 286 *~ 0.3;
#X obj 296 187 r xaxisr;
#X obj 351 187 r yaxisr;
#X obj 367 242 centerer;
#X obj 289 242 centerer;
#X obj 52 198 mono-pureverb /key;
#X obj 640 191 r \$0-n8y;
#X obj 585 190 r \$0-n8x;
#N canvas 0 0 771 300 centerer 0;
#X floatatom 219 94 5 0 0 0 - - -;
#X obj 255 68 / 10;
#X obj 255 95 - 9;
#X floatatom 217 117 5 0 0 0 - - -;
#X floatatom 215 62 5 0 0 0 - - -;
#X floatatom 219 141 5 0 0 0 - - -;
#X obj 255 118 + 3;
#X floatatom 287 122 5 0 0 0 - - -;
#X floatatom 285 183 5 0 0 0 - - -;
#X obj 255 144 +;
#X obj 255 168 f;
#X text 490 10 centerer;
#X obj 256 46 inlet axis;
#X obj 356 48 inlet centerval;
#X obj 102 103 knob 32 32 0 127 0 0 empty empty empty 0 -8 0 8 -262144
-1 -1 0 1;
#X obj 108 109 knob 20 20 -5 5 0 0 empty empty empty 0 -8 0 8 -258113
-1 -1 0 1;
#X text 7 14 this value will be the xlrmtr axis scaled to only be5-6
degrees around the center value coming from the second inlet;
#X text 353 65 this value will come from a gesture node value;
#X obj 255 207 outlet;
#X connect 1 0 0 0;
#X connect 1 0 2 0;
#X connect 2 0 3 0;
#X connect 2 0 6 0;
#X connect 6 0 5 0;
#X connect 6 0 9 0;
#X connect 7 0 9 1;
#X connect 9 0 10 0;
#X connect 10 0 8 0;
#X connect 10 0 18 0;
#X connect 10 0 15 0;
#X connect 12 0 1 0;
#X connect 12 0 4 0;
#X connect 13 0 9 1;
#X connect 13 0 14 0;
#X coords 0 -1 1 1 40 60 2 100 100;
#X restore 592 213 pd centerer;
#N canvas 0 0 771 300 centerer 0;
#X floatatom 219 94 5 0 0 0 - - -;
#X obj 255 68 / 10;
#X obj 255 95 - 9;
#X floatatom 217 117 5 0 0 0 - - -;
#X floatatom 215 62 5 0 0 0 - - -;
#X floatatom 219 141 5 0 0 0 - - -;
#X obj 255 118 + 3;
#X floatatom 287 122 5 0 0 0 - - -;
#X floatatom 285 183 5 0 0 0 - - -;
#X obj 255 144 +;
#X obj 255 168 f;
#X text 490 10 centerer;
#X obj 256 46 inlet axis;
#X obj 356 48 inlet centerval;
#X obj 102 103 knob 32 32 0 127 0 0 empty empty empty 0 -8 0 8 -262144
-1 -1 0 1;
#X obj 108 109 knob 20 20 -5 5 0 0 empty empty empty 0 -8 0 8 -258113
-1 -1 0 1;
#X text 7 14 this value will be the xlrmtr axis scaled to only be5-6
degrees around the center value coming from the second inlet;
#X text 353 65 this value will come from a gesture node value;
#X obj 255 207 outlet;
#X connect 1 0 0 0;
#X connect 1 0 2 0;
#X connect 2 0 3 0;
#X connect 2 0 6 0;
#X connect 6 0 5 0;
#X connect 6 0 9 0;
#X connect 7 0 9 1;
#X connect 9 0 10 0;
#X connect 10 0 8 0;
#X connect 10 0 18 0;
#X connect 10 0 15 0;
#X connect 12 0 1 0;
#X connect 12 0 4 0;
#X connect 13 0 9 1;
#X connect 13 0 14 0;
#X coords 0 -1 1 1 40 40 2 100 100;
#X restore 636 212 pd centerer;
#X obj 586 171 r xaxisr;
#X obj 641 171 r yaxisr;
#X obj 350 207 r \$0-n8y;
#X obj 295 206 r \$0-n8x;
#X obj 38 322 *~ 0.1;
#X connect 0 0 19 0;
#X connect 0 0 24 0;
#X connect 3 1 5 1;
#X connect 3 2 8 1;
#X connect 4 0 3 0;
#X connect 5 0 2 0;
#X connect 6 0 3 0;
#X connect 7 0 4 0;
#X connect 8 0 9 0;
#X connect 10 0 1 0;
#X connect 12 0 14 1;
#X connect 13 0 12 0;
#X connect 14 0 15 0;
#X connect 14 0 29 0;
#X connect 17 0 19 2;
#X connect 18 0 17 0;
#X connect 20 0 17 1;
#X connect 21 0 19 1;
#X connect 22 0 21 0;
#X connect 23 0 21 1;
#X connect 24 0 10 0;
#X connect 25 0 28 0;
#X connect 26 0 27 0;
#X connect 27 0 29 1;
#X connect 28 0 29 2;
#X connect 29 0 10 0;
#X connect 30 0 33 1;
#X connect 31 0 32 1;
#X connect 34 0 32 0;
#X connect 35 0 33 0;
#X connect 36 0 27 1;
#X connect 37 0 28 1;
#X connect 38 0 1 0;
#X restore 640 644 pd effects;
#X obj 707 309 r breath;
#X obj 642 718 throw~ drumout2;
#X floatatom 169 8 5 0 127 0 - - -;
#X obj 586 84 moses 127;
#X obj 133 86 moses 0;
#X obj 207 84 moses 25.4;
#X obj 301 87 moses 50.8;
#X obj 391 86 moses 76.2;
#X obj 488 85 moses 101.6;
#X floatatom 204 215 5 0 0 0 - - -;
#X obj 201 167 / 100;
#X obj 201 190 * 4;
#X obj 148 192 -;
#X floatatom 149 215 5 0 0 0 - - -;
#X obj 144 165 swap 1;
#X floatatom 315 214 5 0 0 0 - - -;
#X obj 312 166 / 100;
#X obj 312 189 * 4;
#X obj 259 191 -;
#X floatatom 260 214 5 0 0 0 - - -;
#X obj 255 164 swap 1;
#X obj 314 124 - 25.4;
#X floatatom 348 164 5 0 0 0 - - -;
#X obj 315 144 clip 0 25;
#X obj 136 106 hsl 800 15 0 127 0 0 empty empty empty -2 -8 0 10 -262144
-1 -1 0 1;
#X obj 149 241 vsl 15 50 0 1 0 0 empty empty empty 0 -9 0 10 -262144
-1 -1 0 1;
#X floatatom 445 224 5 0 0 0 - - -;
#X obj 448 171 / 100;
#X obj 446 196 * 4;
#X obj 396 194 -;
#X floatatom 394 221 5 0 0 0 - - -;
#X obj 396 170 swap 1;
#X floatatom 532 143 5 0 0 0 - - -;
#X obj 448 147 clip 0 25;
#X obj 449 124 - 50.8;
#X floatatom 601 232 5 0 0 0 - - -;
#X obj 604 179 / 100;
#X obj 602 204 * 4;
#X obj 552 202 -;
#X floatatom 550 229 5 0 0 0 - - -;
#X obj 552 178 swap 1;
#X floatatom 688 151 5 0 0 0 - - -;
#X obj 604 155 clip 0 25;
#X obj 605 132 - 76.2;
#X floatatom 775 236 5 0 0 0 - - -;
#X obj 778 183 / 100;
#X obj 776 208 * 4;
#X obj 726 206 -;
#X floatatom 724 233 5 0 0 0 - - -;
#X obj 726 182 swap 1;
#X obj 779 136 - 101.6;
#X obj 775 258 vsl 15 50 0 1 0 0 empty empty empty 0 -9 0 10 -262144
-1 -1 4782 1;
#X obj 262 237 vsl 15 50 0 1 0 0 empty empty empty 0 -9 0 10 -262144
-1 -1 470 1;
#X obj 551 252 vsl 15 50 0 1 0 0 empty empty empty 0 -9 0 10 -262144
-1 -1 39 1;
#X obj 724 254 vsl 15 50 0 1 0 0 empty empty empty 0 -9 0 10 -262144
-1 -1 118 1;
#X obj 394 245 vsl 15 50 0 1 0 0 empty empty empty 0 -9 0 10 -262144
-1 -1 0 1;
#X obj 272 230 sig~;
#X obj 273 252 lop~ 80;
#X obj 257 278 *~;
#X obj 95 239 sig~;
#X obj 96 261 lop~ 80;
#X obj 80 287 *~;
#X obj 648 230 sig~;
#X obj 649 252 lop~ 80;
#X obj 633 278 *~;
#X obj 454 235 sig~;
#X obj 455 257 lop~ 80;
#X obj 439 283 *~;
#X obj 839 232 sig~;
#X obj 840 254 lop~ 80;
#X obj 824 280 *~;
#X obj 1030 243 sig~;
#X obj 1031 265 lop~ 80;
#X obj 1015 291 *~;
#X obj 642 338 *~ 1;
#X obj -167 429 DIY2/perk-bassdrum /key;
#X obj 29 496 DIY2/perk-lowtom /key;
#X obj 216 496 DIY2/perk-hightom /key;
#X obj 398 406 DIY2/perk-snare /key;
#X obj 579 429 DIY2/perk-clap /key;
#X obj 783 384 DIY2/perk-hihat /key;
#X obj 778 159 clip 0 25.4;
#X obj 221 -63 r breath;
#X obj -175 100 r mynotemsg;
#X floatatom -168 139 5 0 0 0 - - -;
#X floatatom -134 140 5 0 0 0 - - -;
#X obj -175 121 unpack f f f;
#X obj -91 122 inlet;
#X obj -18 103 r transpose;
#X obj -43 110 bng 15 250 50 0 empty empty empty 17 7 0 10 -262144
-1 -1;
#X floatatom -24 164 5 0 0 0 - - -;
#X obj -173 208 stripnote;
#X msg -87 84 53;
#X obj -144 243 s mdrumnote;
#X obj -174 164 spigot 1;
#X floatatom 180 -50 5 0 0 0 - - -;
#X floatatom 179 -22 5 0 0 0 - - -;
#X floatatom 620 382 5 0 0 0 - - -;
#X obj 128 22 clip 0 127;
#X msg 2 62 127 \$1;
#X floatatom 93 127 5 0 0 0 - - -;
#X obj -177 287 t b f;
#X floatatom 661 401 5 0 0 0 - - -;
#X obj 607 401 / 1000;
#X obj 586 361 mtof;
#X obj -76 163 int;
#X obj 190 366 mtof;
#X obj -24 145 - 4;
#N canvas 109 25 1208 722 mypitchshifter 0;
#X obj 197 318 e_pitchshift;
#X msg 266 295 pitch \$1;
#X floatatom 266 274 5 0 0 0 - - -;
#X text 309 274 Pitch Shift;
#X obj 268 148 r mynotemsg;
#X obj 269 171 unpack f f f;
#X obj 375 200 r breath;
#X obj 381 253 sig~;
#X obj 379 228 / 127;
#X obj 385 275 lop~ 80;
#X floatatom 416 228 5 0 0 0 - - -;
#X floatatom 405 310 5 0 0 0 - - -;
#X floatatom 279 193 5 0 0 0 - - -;
#X obj 272 226 mod 48;
#X floatatom 297 250 5 0 0 0 - - -;
#X obj 366 479 outlet~;
#X obj 198 295 inlet~;
#X obj 380 335 sig~;
#X obj 380 361 lop~ 80;
#X obj 365 387 *~;
#X text 192 245 was -28;
#X obj 380 309 * 1;
#X obj 265 253 - 64;
#X obj 90 358;
#X obj 63 245 / 127;
#X obj 65 162 r xaxis;
#X obj 61 216 -;
#X msg 66 191 127 \$1;
#X floatatom 35 280 5 0 0 0 - - -;
#X msg 80 310 size 0.3;
#X obj 121 275 loadbang;
#X connect 0 0 19 0;
#X connect 1 0 0 1;
#X connect 2 0 1 0;
#X connect 4 0 5 0;
#X connect 5 0 12 0;
#X connect 5 0 22 0;
#X connect 6 0 8 0;
#X connect 7 0 9 0;
#X connect 8 0 7 0;
#X connect 8 0 10 0;
#X connect 8 0 21 0;
#X connect 13 0 14 0;
#X connect 13 0 22 0;
#X connect 16 0 0 0;
#X connect 17 0 18 0;
#X connect 18 0 19 1;
#X connect 19 0 15 0;
#X connect 21 0 11 0;
#X connect 21 0 17 0;
#X connect 22 0 2 0;
#X connect 24 0 28 0;
#X connect 25 0 27 0;
#X connect 26 0 24 0;
#X connect 27 0 26 0;
#X connect 29 0 0 1;
#X connect 30 0 29 0;
#X restore 652 582 pd mypitchshifter;
#X obj 132 57 -;
#X msg 193 44 127 \$1;
#X floatatom 103 -9 5 0 0 0 - - -;
#X obj 136 -43 * 2;
#X obj 135 -20 - 20;
#X obj 168 -10 average;
#X obj 128 -70 r yaxis;
#X obj 643 672 *~ 10;
#X connect 0 0 1 0;
#X connect 1 0 118 0;
#X connect 2 0 0 1;
#X connect 4 0 26 0;
#X connect 5 0 52 0;
#X connect 6 1 7 0;
#X connect 7 0 12 0;
#X connect 7 1 8 0;
#X connect 8 0 23 0;
#X connect 8 1 9 0;
#X connect 9 0 36 0;
#X connect 9 1 10 0;
#X connect 10 0 45 0;
#X connect 10 1 5 0;
#X connect 12 0 13 0;
#X connect 13 0 11 0;
#X connect 13 0 16 0;
#X connect 13 0 20 0;
#X connect 14 0 15 0;
#X connect 14 0 21 0;
#X connect 14 0 61 0;
#X connect 15 0 27 0;
#X connect 16 0 14 0;
#X connect 16 1 14 1;
#X connect 18 0 19 0;
#X connect 19 0 17 0;
#X connect 19 0 22 0;
#X connect 19 0 31 0;
#X connect 20 0 21 0;
#X connect 20 0 32 0;
#X connect 21 0 54 0;
#X connect 21 0 58 0;
#X connect 22 0 20 0;
#X connect 22 1 20 1;
#X connect 23 0 25 0;
#X connect 25 0 18 0;
#X connect 25 0 24 0;
#X connect 29 0 30 0;
#X connect 30 0 28 0;
#X connect 30 0 33 0;
#X connect 30 0 40 0;
#X connect 31 0 32 0;
#X connect 31 0 41 0;
#X connect 32 0 57 0;
#X connect 32 0 67 0;
#X connect 33 0 31 0;
#X connect 33 1 31 1;
#X connect 35 0 29 0;
#X connect 35 0 34 0;
#X connect 36 0 35 0;
#X connect 38 0 39 0;
#X connect 39 0 37 0;
#X connect 39 0 42 0;
#X connect 39 0 49 0;
#X connect 40 0 41 0;
#X connect 40 0 50 0;
#X connect 41 0 55 0;
#X connect 41 0 64 0;
#X connect 42 0 40 0;
#X connect 42 1 40 1;
#X connect 44 0 38 0;
#X connect 44 0 43 0;
#X connect 45 0 44 0;
#X connect 46 0 53 0;
#X connect 46 0 73 0;
#X connect 47 0 48 0;
#X connect 48 0 46 0;
#X connect 48 0 51 0;
#X connect 49 0 50 0;
#X connect 50 0 56 0;
#X connect 50 0 70 0;
#X connect 51 0 49 0;
#X connect 51 1 49 1;
#X connect 52 0 83 0;
#X connect 58 0 59 0;
#X connect 59 0 60 1;
#X connect 60 0 76 0;
#X connect 61 0 62 0;
#X connect 62 0 63 1;
#X connect 63 0 76 0;
#X connect 64 0 65 0;
#X connect 65 0 66 1;
#X connect 66 0 76 0;
#X connect 67 0 68 0;
#X connect 68 0 69 1;
#X connect 69 0 76 0;
#X connect 70 0 71 0;
#X connect 71 0 72 1;
#X connect 72 0 76 0;
#X connect 73 0 74 0;
#X connect 74 0 75 1;
#X connect 75 0 76 0;
#X connect 76 0 0 0;
#X connect 77 0 63 0;
#X connect 78 0 60 0;
#X connect 79 0 69 0;
#X connect 80 0 66 0;
#X connect 81 0 72 0;
#X connect 82 0 75 0;
#X connect 83 0 47 0;
#X connect 85 0 88 0;
#X connect 88 0 86 0;
#X connect 88 0 109 0;
#X connect 88 1 87 0;
#X connect 88 1 93 1;
#X connect 89 0 96 1;
#X connect 90 0 91 0;
#X connect 90 0 109 1;
#X connect 91 0 109 0;
#X connect 93 0 103 0;
#X connect 94 0 88 0;
#X connect 96 0 93 0;
#X connect 100 0 112 0;
#X connect 103 0 77 0;
#X connect 103 0 78 0;
#X connect 103 0 79 0;
#X connect 103 0 80 0;
#X connect 103 0 81 0;
#X connect 103 0 82 0;
#X connect 103 1 95 0;
#X connect 103 1 108 0;
#X connect 105 0 82 1;
#X connect 105 0 104 0;
#X connect 105 0 80 1;
#X connect 105 0 81 1;
#X connect 106 0 99 0;
#X connect 106 0 105 0;
#X connect 107 0 96 0;
#X connect 109 0 92 0;
#X connect 109 0 107 0;
#X connect 110 0 0 0;
#X connect 111 0 6 0;
#X connect 111 0 102 0;
#X connect 112 0 111 0;
#X connect 113 0 100 0;
#X connect 114 0 115 0;
#X connect 115 0 116 0;
#X connect 116 0 4 0;
#X connect 116 0 100 0;
#X connect 117 0 114 0;
#X connect 118 0 3 0;
#X restore 618 143 pd synth;
#X obj 1073 172 inlet pgmout;
#X obj 944 244 gesturenode;
#X obj 630 529 gesturenode-r;
#X floatatom 816 438 5 0 0 0 - - -;
#X obj 911 363 s \$0-n1x;
#X obj 961 385 s \$0-n1y;
#X obj 992 363 s \$0-n1z;
#X obj 854 363 s \$0-n2z;
#X obj 810 383 s \$0-n2y;
#X obj 767 364 s \$0-n2x;
#X obj 708 363 s \$0-n3z;
#X obj 672 387 s \$0-n3y;
#X obj 624 364 s \$0-n3x;
#X obj 565 366 s \$0-n4z;
#X obj 514 384 s \$0-n4y;
#X obj 473 364 s \$0-n4x;
#X obj 730 663 s \$0-n5z;
#X obj 684 681 s \$0-n5y;
#X obj 641 662 s \$0-n5x;
#X obj 883 662 s \$0-n6z;
#X obj 795 662 s \$0-n6x;
#X obj 1025 659 s \$0-n7z;
#X obj 983 681 s \$0-n7y;
#X obj 939 662 s \$0-n7x;
#X obj 1174 660 s \$0-n8z;
#X obj 1126 685 s \$0-n8y;
#X obj 1087 662 s \$0-n8x;
#X text 729 442 n=node;
#X obj 859 436 s \$0-pgm;
#X obj 1004 171 r parakey;
#X obj 944 214 == 1;
#X obj 530 210 r frange4;
#X obj 674 213 r frange3;
#X obj 833 214 r frange2;
#X obj 981 214 r frange1;
#X obj 497 211 == 4;
#X obj 641 214 == 3;
#X obj 797 215 == 2;
#X obj 1020 457 r parakey;
#X obj 681 477 == 5;
#X obj 714 476 r frange5;
#X obj 826 478 == 6;
#X obj 859 477 r frange6;
#X obj 956 482 == 7;
#X obj 992 481 r frange7;
#X obj 1098 485 == 8;
#X obj 1135 485 r frange8;
#X obj 785 532 gesturenode-r;
#X obj 939 532 gesturenode-r;
#X obj 1096 530 gesturenode-r;
#X obj 634 243 gesturenode;
#X obj 788 243 gesturenode;
#X obj 478 241 gesturenode;
#X floatatom 622 668 5 0 0 0 - - -;
#X obj 839 682 s \$0-n6y;
#X obj 1182 284 switch~;
#X connect 2 0 5 0;
#X connect 2 0 30 0;
#X connect 2 0 3 1;
#X connect 2 0 4 1;
#X connect 2 0 49 1;
#X connect 2 0 50 1;
#X connect 2 0 51 1;
#X connect 2 0 52 1;
#X connect 2 0 53 1;
#X connect 2 0 54 1;
#X connect 2 0 1 0;
#X connect 2 0 57 0;
#X connect 3 0 6 0;
#X connect 3 1 7 0;
#X connect 3 2 8 0;
#X connect 4 0 20 0;
#X connect 4 0 55 0;
#X connect 4 1 19 0;
#X connect 4 2 18 0;
#X connect 31 0 32 0;
#X connect 31 0 37 0;
#X connect 31 0 38 0;
#X connect 31 0 39 0;
#X connect 32 0 3 0;
#X connect 33 0 54 2;
#X connect 34 0 52 2;
#X connect 35 0 53 2;
#X connect 36 0 3 2;
#X connect 37 0 54 0;
#X connect 38 0 52 0;
#X connect 39 0 53 0;
#X connect 40 0 41 0;
#X connect 40 0 43 0;
#X connect 40 0 45 0;
#X connect 40 0 47 0;
#X connect 41 0 4 0;
#X connect 42 0 4 2;
#X connect 43 0 49 0;
#X connect 44 0 49 2;
#X connect 45 0 50 0;
#X connect 46 0 50 2;
#X connect 47 0 51 0;
#X connect 48 0 51 2;
#X connect 49 0 22 0;
#X connect 49 1 56 0;
#X connect 49 2 21 0;
#X connect 50 0 25 0;
#X connect 50 1 24 0;
#X connect 50 2 23 0;
#X connect 51 0 28 0;
#X connect 51 1 27 0;
#X connect 51 2 26 0;
#X connect 52 0 14 0;
#X connect 52 1 13 0;
#X connect 52 2 12 0;
#X connect 53 0 11 0;
#X connect 53 1 10 0;
#X connect 53 2 9 0;
#X connect 54 0 17 0;
#X connect 54 1 16 0;
#X connect 54 2 15 0;
#X coords 0 -1 1 1 60 60 1 100 100;
