#N canvas 0 0 450 300 10;
#X obj 155 43 inlet~;
#X obj 156 253 outlet~;
#X obj 245 44 r timeacc;
#X obj 225 137 *~ 0.05;
#X obj 188 165 *~ 0.3;
#X obj 245 65 * 2;
#X obj 203 86 delwrite~ \$0-slapback 800;
#X obj 202 109 delread~ \$0-slapback 120;
#X connect 0 0 1 0;
#X connect 0 0 6 0;
#X connect 2 0 5 0;
#X connect 3 0 6 0;
#X connect 4 0 1 0;
#X connect 5 0 7 0;
#X connect 7 0 3 0;
#X connect 7 0 4 0;
