#N canvas 1855 79 1366 563 10;
#X obj 431 230 r t-cym;
#X obj 494 230 r t-bell;
#X obj 646 229 r t-hato;
#X obj 712 230 r t-crash;
#N canvas 0 0 331 381 accent 0;
#X obj 48 193 sig~ 0.6;
#X obj 49 218 +~;
#X obj 122 143 line~;
#X obj 121 168 *~;
#X obj 32 244 *~;
#X msg 125 89 1 1;
#X obj 228 90 r timeacc;
#X obj 163 115 pack 0 150;
#X obj 163 90 del 4;
#X obj 132 51 t b;
#X obj 30 137 inlet~;
#X obj 33 281 outlet~;
#X obj 132 19 inlet;
#X obj 121 193 *~ 0.6;
#X connect 0 0 1 0;
#X connect 1 0 4 1;
#X connect 2 0 3 0;
#X connect 2 0 3 1;
#X connect 3 0 13 0;
#X connect 4 0 11 0;
#X connect 5 0 2 0;
#X connect 6 0 7 1;
#X connect 7 0 2 0;
#X connect 8 0 7 0;
#X connect 9 0 5 0;
#X connect 9 0 8 0;
#X connect 10 0 4 0;
#X connect 12 0 9 0;
#X connect 13 0 1 1;
#X restore 443 322 pd accent;
#X text 857 248 Warranty void if opened;
#X text 856 267 No user serviceable parts inside;
#X text 856 227 Risque de choc!;
#X obj -86 18 r mynotemsg;
#X floatatom -79 57 5 0 0 0 - - -;
#X floatatom -45 58 5 0 0 0 - - -;
#X obj -86 39 unpack f f f;
#X obj -85 82 spigot;
#N canvas 659 176 236 193 bk 0;
#X obj 99 39 tgl 15 0 empty empty empty 17 7 0 10 -262144 -1 -1 0 3
;
#X obj 88 113 tgl 15 0 empty empty empty 17 7 0 10 -262144 -1 -1 0
0.596351;
#X obj 62 44 * 3;
#X floatatom 27 51 5 0 0 0 - - -;
#X obj 59 9 inlet;
#X obj 91 164 outlet;
#X obj 70 155 bng 15 250 50 0 empty empty empty 17 7 0 10 -262144 -1
-1;
#X msg 90 137 1;
#X floatatom 38 119 5 0 0 0 - - -;
#X obj 44 84 threshold 3 0 3 0;
#X connect 1 0 7 0;
#X connect 2 0 0 0;
#X connect 2 0 3 0;
#X connect 2 0 9 0;
#X connect 4 0 2 0;
#X connect 7 0 5 0;
#X connect 9 0 1 0;
#X connect 9 0 8 0;
#X connect 9 1 1 0;
#X restore -112 132 pd bk;
#X obj 336 47 r hit;
#X obj -2 40 inlet;
#N canvas 0 0 1366 726 effects 0;
#X obj 106 44 inlet~;
#X obj 107 148 outlet~;
#N canvas 0 0 450 300 distort 0;
#X obj 115 40 inlet~;
#X obj 115 163 outlet~;
#X obj 115 68 clip~ -0.2 0.2;
#X obj 115 90 *~ 30;
#X obj 115 114 clip~ -0.9 0.9;
#X obj 115 137 *~ 0.5;
#X connect 0 0 2 0;
#X connect 2 0 3 0;
#X connect 3 0 4 0;
#X connect 4 0 5 0;
#X connect 5 0 1 0;
#X restore 188 115 pd distort;
#X obj 187 64 unpack 1 2 3;
#X msg 192 30 1 0 0;
#X obj 189 92 *~;
#X obj 310 17 r effects;
#X obj 191 7 loadbang;
#X obj 284 92 *~;
#X obj 283 116 gdrumdelay;
#N canvas 763 81 716 563 eq 0;
#X obj 220 40 cnv 15 150 300 empty empty empty 20 12 0 14 -24198 -66577
0;
#N canvas 0 0 454 304 using 0;
#X obj 67 239 outlet~;
#X obj 65 134 biquad~;
#X obj 66 154 biquad~;
#X obj 66 174 biquad~;
#X obj 35 110 lowpass 370 310;
#X obj 194 134 biquad~;
#X obj 193 154 biquad~;
#X obj 194 174 biquad~;
#X obj 163 111 bandpass 1175 490;
#X obj 305 111 highpass 2350 130;
#X obj 334 134 biquad~;
#X obj 334 154 biquad~;
#X obj 163 25 loadbang;
#X obj 193 239 outlet~;
#X obj 335 239 outlet~;
#X obj 66 25 inlet~ signal;
#X obj 235 54 switch~;
#X obj 235 25 inlet switch;
#X connect 1 0 2 0;
#X connect 2 0 3 0;
#X connect 3 0 0 0;
#X connect 4 0 1 0;
#X connect 4 0 2 0;
#X connect 4 0 3 0;
#X connect 5 0 6 0;
#X connect 6 0 7 0;
#X connect 7 0 13 0;
#X connect 8 0 5 0;
#X connect 8 0 6 0;
#X connect 8 0 7 0;
#X connect 9 0 10 0;
#X connect 9 0 11 0;
#X connect 10 0 11 0;
#X connect 11 0 14 0;
#X connect 12 0 4 0;
#X connect 12 0 8 0;
#X connect 12 0 9 0;
#X connect 15 0 1 0;
#X connect 15 0 5 0;
#X connect 15 0 10 0;
#X connect 17 0 16 0;
#X restore 451 175 pd using GGEE filter objects;
#X obj 395 60 tgl 15 1 empty empty empty 0 -6 0 8 -258699 -1 -1 1 1
;
#X obj 323 375 hsl 128 15 0 1 0 1 empty empty dry/wet -2 -6 0 8 -241291
-1 -1 12700 1;
#X obj 228 60 vsl 15 128 0 1 0 1 empty empty BASS 0 -8 0 8 -44926 -1
-1 12000 1;
#X obj 308 53 vsl 15 128 0 1 0 1 empty empty MIDS 0 -8 0 8 -44926 -1
-1 10500 1;
#X obj 345 54 vsl 15 128 0 1 0 1 empty empty HIGHS 0 -8 0 8 -44926
-1 -1 12601 1;
#N canvas 401 243 540 481 output_mixer 0;
#X obj 39 11 inlet dry/wet;
#X obj 22 -19 inlet~ dry;
#X obj 248 -19 inlet~ bass;
#X obj 338 -19 inlet~ mids;
#X obj 424 -19 inlet~ highs;
#X obj 87 35 inlet bass;
#X obj 127 60 inlet mids;
#X obj 157 86 inlet highs;
#X obj 22 327 outlet~;
#X obj 111 235 *~;
#X obj 141 235 *~;
#X obj 71 235 *~;
#X obj 39 35 * -1;
#X obj 39 57 + 1;
#X obj 23 287 *~;
#X obj 70 288 *~ 1;
#X connect 0 0 12 0;
#X connect 1 0 14 0;
#X connect 2 0 11 0;
#X connect 3 0 9 0;
#X connect 4 0 10 0;
#X connect 5 0 11 1;
#X connect 6 0 9 1;
#X connect 7 0 10 1;
#X connect 9 0 15 0;
#X connect 10 0 15 0;
#X connect 11 0 15 0;
#X connect 12 0 13 0;
#X connect 13 0 14 1;
#X connect 14 0 8 0;
#X connect 15 0 8 0;
#X restore 380 283 pd output_mixer;
#X obj 516 388 cnv 15 255 20 empty empty empty 20 12 0 14 -24198 -66577
0;
#X obj 379 87 *~;
#X obj 378 39 inlet~;
#X obj 380 333 outlet~;
#X obj 253 375 print;
#X obj 109 182 knob 32 32 0 1 0 0 empty empty empty 0 -8 0 8 -4160
-1 -1 2929 1;
#X obj 110 141 knob 32 32 0 1 0 0 empty empty empty 0 -8 0 8 -260097
-1 -1 2563 1;
#X obj 112 104 knob 32 32 0 1 0 0 empty empty empty 0 -8 0 8 -4034
-1 -1 3076 1;
#X text 512 31 nodal names;
#X obj 514 57 r \$0-n22x;
#X obj 450 60 r \$0-n21x;
#X obj 570 62 r \$0-n23x;
#X obj 459 106 / 127;
#X obj 509 102 / 127;
#X obj 573 99 / 127;
#X floatatom 518 132 5 0 0 0 - - -;
#X floatatom 472 136 5 0 0 0 - - -;
#X floatatom 572 133 5 0 0 0 - - -;
#X floatatom 297 214 5 0 0 0 - - -;
#X floatatom 247 236 5 0 0 0 - - -;
#X floatatom 338 212 5 0 0 0 - - -;
#X floatatom 508 291 5 0 5 0 - - -;
#X obj 390 306 compressor~ 3;
#X msg 495 329 3;
#X obj 544 305 loadbang;
#X obj 656 157 inlet;
#X obj 642 115 tgl 15 1 empty empty ON 0 -6 0 8 -258699 -1 -1 1 1;
#X connect 1 0 7 5;
#X connect 1 1 7 6;
#X connect 1 2 7 7;
#X connect 2 0 9 1;
#X connect 3 0 7 1;
#X connect 4 0 7 2;
#X connect 4 0 12 0;
#X connect 4 0 13 0;
#X connect 4 0 27 0;
#X connect 5 0 7 3;
#X connect 5 0 14 0;
#X connect 5 0 26 0;
#X connect 6 0 7 4;
#X connect 6 0 15 0;
#X connect 6 0 28 0;
#X connect 7 0 30 0;
#X connect 9 0 7 0;
#X connect 9 0 1 0;
#X connect 10 0 9 0;
#X connect 17 0 21 0;
#X connect 18 0 20 0;
#X connect 19 0 22 0;
#X connect 20 0 4 0;
#X connect 20 0 24 0;
#X connect 21 0 5 0;
#X connect 21 0 23 0;
#X connect 22 0 6 0;
#X connect 22 0 25 0;
#X connect 30 0 11 0;
#X connect 31 0 30 1;
#X connect 32 0 31 0;
#X connect 33 0 1 1;
#X coords 0 -1 1 1 50 120 1 100 100;
#X restore 443 255 pd eq;
#X floatatom 493 194 5 0 0 0 - - -;
#X obj 491 173 r \$0-n7x;
#X obj 443 197 gdel;
#X obj 630 181 r \$0-n8y;
#X obj 575 180 r \$0-n8x;
#N canvas 0 0 771 300 centerer 0;
#X floatatom 219 94 5 0 0 0 - - -;
#X obj 255 68 / 10;
#X obj 255 95 - 9;
#X floatatom 217 117 5 0 0 0 - - -;
#X floatatom 215 62 5 0 0 0 - - -;
#X floatatom 219 141 5 0 0 0 - - -;
#X obj 255 118 + 3;
#X floatatom 287 122 5 0 0 0 - - -;
#X floatatom 285 183 5 0 0 0 - - -;
#X obj 255 144 +;
#X obj 255 168 f;
#X text 490 10 centerer;
#X obj 256 46 inlet axis;
#X obj 356 48 inlet centerval;
#X obj 102 103 knob 32 32 0 127 0 0 empty empty empty 0 -8 0 8 -262144
-1 -1 0 1;
#X obj 108 109 knob 20 20 -5 5 0 0 empty empty empty 0 -8 0 8 -258113
-1 -1 1301 1;
#X text 7 14 this value will be the xlrmtr axis scaled to only be5-6
degrees around the center value coming from the second inlet;
#X text 353 65 this value will come from a gesture node value;
#X obj 255 207 outlet;
#X connect 1 0 0 0;
#X connect 1 0 2 0;
#X connect 2 0 3 0;
#X connect 2 0 6 0;
#X connect 6 0 5 0;
#X connect 6 0 9 0;
#X connect 7 0 9 1;
#X connect 9 0 10 0;
#X connect 10 0 8 0;
#X connect 10 0 18 0;
#X connect 10 0 15 0;
#X connect 12 0 1 0;
#X connect 12 0 4 0;
#X connect 13 0 9 1;
#X connect 13 0 14 0;
#X coords 0 -1 1 1 40 60 2 100 100;
#X restore 582 203 pd centerer;
#N canvas 0 0 771 300 centerer 0;
#X floatatom 219 94 5 0 0 0 - - -;
#X obj 255 68 / 10;
#X obj 255 95 - 9;
#X floatatom 217 117 5 0 0 0 - - -;
#X floatatom 215 62 5 0 0 0 - - -;
#X floatatom 219 141 5 0 0 0 - - -;
#X obj 255 118 + 3;
#X floatatom 287 122 5 0 0 0 - - -;
#X floatatom 285 183 5 0 0 0 - - -;
#X obj 255 144 +;
#X obj 255 168 f;
#X text 490 10 centerer;
#X obj 256 46 inlet axis;
#X obj 356 48 inlet centerval;
#X obj 102 103 knob 32 32 0 127 0 0 empty empty empty 0 -8 0 8 -262144
-1 -1 0 1;
#X obj 108 109 knob 20 20 -5 5 0 0 empty empty empty 0 -8 0 8 -258113
-1 -1 1541 1;
#X text 7 14 this value will be the xlrmtr axis scaled to only be5-6
degrees around the center value coming from the second inlet;
#X text 353 65 this value will come from a gesture node value;
#X obj 255 207 outlet;
#X connect 1 0 0 0;
#X connect 1 0 2 0;
#X connect 2 0 3 0;
#X connect 2 0 6 0;
#X connect 6 0 5 0;
#X connect 6 0 9 0;
#X connect 7 0 9 1;
#X connect 9 0 10 0;
#X connect 10 0 8 0;
#X connect 10 0 18 0;
#X connect 10 0 15 0;
#X connect 12 0 1 0;
#X connect 12 0 4 0;
#X connect 13 0 9 1;
#X connect 13 0 14 0;
#X coords 0 -1 1 1 40 40 2 100 100;
#X restore 626 202 pd centerer;
#X obj 576 161 r xaxisr;
#X obj 631 161 r yaxisr;
#X obj 443 232 gverb;
#X obj 442 172 gflange;
#X obj 478 59 r \$0-n5y;
#X obj 480 103 centerer;
#X obj 480 81 r yaxisr;
#X connect 0 0 5 0;
#X connect 0 0 8 0;
#X connect 0 0 1 0;
#X connect 2 0 1 0;
#X connect 3 1 5 1;
#X connect 3 2 8 1;
#X connect 4 0 3 0;
#X connect 5 0 2 0;
#X connect 6 0 3 0;
#X connect 7 0 4 0;
#X connect 8 0 9 0;
#X connect 9 0 1 0;
#X connect 10 0 1 0;
#X connect 11 0 13 1;
#X connect 12 0 11 0;
#X connect 13 0 20 0;
#X connect 14 0 17 1;
#X connect 15 0 16 1;
#X connect 16 0 20 3;
#X connect 17 0 20 2;
#X connect 18 0 16 0;
#X connect 19 0 17 0;
#X connect 20 0 10 0;
#X connect 21 0 13 0;
#X connect 22 0 23 1;
#X connect 23 0 21 1;
#X connect 24 0 23 0;
#X restore 443 342 pd effects;
#X obj 138 406;
#X obj 33 89 switch~;
#X obj 459 360 *~ 5;
#X obj 445 392 clip~ -1 1;
#X obj 788 230 r breath;
#X obj -54 405 gkick;
#X obj -9 403 gsnare;
#X obj 165 277 gbongo3;
#X obj 247 271 gbongo2;
#X obj 319 271 gbongo1;
#X obj 53 436 gclap;
#X obj 53 409 ghat;
#X obj 454 269 gcym;
#X obj 510 269 gbell;
#X obj 624 269 gcrash;
#X obj 447 418 throw~ drumout2;
#X obj 103 101 cnv 15 345 58 empty empty empty 20 12 0 14 -217163 -66577
0;
#X obj 35 359 tgl 15 0 empty empty empty 17 7 0 10 -262144 -1 -1 1
1;
#X obj -35 362 tgl 15 0 empty empty empty 17 7 0 10 -262144 -1 -1 1
1;
#X obj 69 363 tgl 15 0 empty empty empty 17 7 0 10 -262144 -1 -1 0
1;
#X obj -11 359 tgl 15 0 empty empty empty 17 7 0 10 -262144 -1 -1 0
1;
#X obj 9 360 tgl 15 0 empty empty empty 17 7 0 10 -262144 -1 -1 0 1
;
#X obj -62 320 sel 53 56 63 55 64 58 60 62 57;
#X obj -82 117 stripnote;
#X connect 0 0 29 0;
#X connect 1 0 30 0;
#X connect 3 0 31 0;
#X connect 4 0 16 0;
#X connect 8 0 11 0;
#X connect 8 0 12 0;
#X connect 11 0 9 0;
#X connect 11 1 10 0;
#X connect 12 0 40 0;
#X connect 15 0 12 1;
#X connect 15 0 18 0;
#X connect 16 0 19 0;
#X connect 19 0 20 0;
#X connect 20 0 32 0;
#X connect 21 0 4 1;
#X connect 22 0 4 0;
#X connect 23 0 4 0;
#X connect 24 0 4 0;
#X connect 26 0 4 0;
#X connect 27 0 4 0;
#X connect 28 0 4 0;
#X connect 29 0 4 0;
#X connect 30 0 4 0;
#X connect 31 0 4 0;
#X connect 39 0 22 0;
#X connect 39 1 35 0;
#X connect 39 1 23 0;
#X connect 39 2 37 0;
#X connect 39 2 27 0;
#X connect 39 3 38 0;
#X connect 39 3 28 0;
#X connect 39 4 34 0;
#X connect 39 5 36 0;
#X connect 39 5 25 0;
#X connect 39 6 24 0;
#X connect 39 8 26 0;
#X connect 40 0 39 0;
#X coords 0 -1 1 1 350 60 1 100 100;
