#N canvas 138 164 1362 722 10;
#X obj 102 101 cnv 15 60 58 empty empty empty 20 12 0 14 -258113 -66577
0;
#N canvas 683 0 667 710 synth 0;
#X obj 301 559 r t-cym;
#X obj 753 111 r t-hato;
#X obj 819 112 r t-crash;
#N canvas 0 0 331 381 accent 0;
#X obj 48 193 sig~ 0.6;
#X obj 49 218 +~;
#X obj 122 143 line~;
#X obj 121 168 *~;
#X msg 125 89 1 1;
#X obj 228 90 r timeacc;
#X obj 163 115 pack 0 150;
#X obj 163 90 del 4;
#X obj 132 51 t b;
#X obj 30 137 inlet~;
#X obj 33 281 outlet~;
#X obj 132 19 inlet;
#X obj 121 193 *~ 0.6;
#X obj 32 244 *~ 1;
#X connect 0 0 1 0;
#X connect 2 0 3 0;
#X connect 2 0 3 1;
#X connect 3 0 12 0;
#X connect 4 0 2 0;
#X connect 5 0 6 1;
#X connect 6 0 2 0;
#X connect 7 0 6 0;
#X connect 8 0 4 0;
#X connect 8 0 7 0;
#X connect 9 0 13 0;
#X connect 11 0 8 0;
#X connect 12 0 1 1;
#X connect 13 0 10 0;
#X restore 1031 575 pd accent;
#X text 964 130 Warranty void if opened;
#X text 963 149 No user serviceable parts inside;
#X text 963 109 Risque de choc!;
#X obj -95 21 r mynotemsg;
#X floatatom -88 60 5 0 0 0 - - -;
#X floatatom -54 61 5 0 0 0 - - -;
#X obj -95 42 unpack f f f;
#X obj -94 85 spigot;
#N canvas 659 176 236 193 bk 0;
#X obj 99 39 tgl 15 0 empty empty empty 17 7 0 10 -262144 -1 -1 0 3
;
#X obj 88 113 tgl 15 0 empty empty empty 17 7 0 10 -262144 -1 -1 0
0.596351;
#X obj 62 44 * 3;
#X floatatom 27 51 5 0 0 0 - - -;
#X obj 59 9 inlet;
#X obj 91 164 outlet;
#X obj 70 155 bng 15 250 50 0 empty empty empty 17 7 0 10 -262144 -1
-1;
#X msg 90 137 1;
#X floatatom 38 119 5 0 0 0 - - -;
#X obj 44 84 threshold 3 0 3 0;
#X connect 1 0 7 0;
#X connect 2 0 0 0;
#X connect 2 0 3 0;
#X connect 2 0 9 0;
#X connect 4 0 2 0;
#X connect 7 0 5 0;
#X connect 9 0 1 0;
#X connect 9 0 8 0;
#X connect 9 1 1 0;
#X restore -112 132 pd bk;
#X obj 336 47 r hit;
#X obj 233 559 == 63;
#X obj 175 563 == 57;
#X obj -11 43 inlet;
#N canvas 287 226 754 405 effects 0;
#X obj 104 45 inlet~;
#X obj 100 352 outlet~;
#N canvas 0 0 450 300 distort 0;
#X obj 115 40 inlet~;
#X obj 115 163 outlet~;
#X obj 115 68 clip~ -0.2 0.2;
#X obj 115 90 *~ 30;
#X obj 115 114 clip~ -0.9 0.9;
#X obj 115 137 *~ 0.5;
#X connect 0 0 2 0;
#X connect 2 0 3 0;
#X connect 3 0 4 0;
#X connect 4 0 5 0;
#X connect 5 0 1 0;
#X restore 188 115 pd distort;
#X obj 187 64 unpack 1 2 3;
#X msg 192 30 1 0 0;
#X obj 189 92 *~;
#X obj 310 17 r effects;
#X obj 191 7 loadbang;
#X obj 284 92 *~;
#X obj 283 116 gdrumdelay;
#X floatatom 503 204 5 0 0 0 - - -;
#X obj 501 183 r \$0-n7x;
#X obj 453 207 gdel;
#X obj 640 191 r \$0-n8y;
#X obj 585 190 r \$0-n8x;
#N canvas 0 0 771 300 centerer 0;
#X floatatom 219 94 5 0 0 0 - - -;
#X obj 255 68 / 10;
#X obj 255 95 - 9;
#X floatatom 217 117 5 0 0 0 - - -;
#X floatatom 215 62 5 0 0 0 - - -;
#X floatatom 219 141 5 0 0 0 - - -;
#X obj 255 118 + 3;
#X floatatom 287 122 5 0 0 0 - - -;
#X floatatom 285 183 5 0 0 0 - - -;
#X obj 255 144 +;
#X obj 255 168 f;
#X text 490 10 centerer;
#X obj 256 46 inlet axis;
#X obj 356 48 inlet centerval;
#X obj 102 103 knob 32 32 0 127 0 0 empty empty empty 0 -8 0 8 -262144
-1 -1 0 1;
#X obj 108 109 knob 20 20 -5 5 0 0 empty empty empty 0 -8 0 8 -258113
-1 -1 1563 1;
#X text 7 14 this value will be the xlrmtr axis scaled to only be5-6
degrees around the center value coming from the second inlet;
#X text 353 65 this value will come from a gesture node value;
#X obj 255 207 outlet;
#X connect 1 0 0 0;
#X connect 1 0 2 0;
#X connect 2 0 3 0;
#X connect 2 0 6 0;
#X connect 6 0 5 0;
#X connect 6 0 9 0;
#X connect 7 0 9 1;
#X connect 9 0 10 0;
#X connect 10 0 8 0;
#X connect 10 0 18 0;
#X connect 10 0 15 0;
#X connect 12 0 1 0;
#X connect 12 0 4 0;
#X connect 13 0 9 1;
#X connect 13 0 14 0;
#X coords 0 -1 1 1 40 60 2 100 100;
#X restore 592 213 pd centerer;
#N canvas 0 0 771 300 centerer 0;
#X floatatom 219 94 5 0 0 0 - - -;
#X obj 255 68 / 10;
#X obj 255 95 - 9;
#X floatatom 217 117 5 0 0 0 - - -;
#X floatatom 215 62 5 0 0 0 - - -;
#X floatatom 219 141 5 0 0 0 - - -;
#X obj 255 118 + 3;
#X floatatom 287 122 5 0 0 0 - - -;
#X floatatom 285 183 5 0 0 0 - - -;
#X obj 255 144 +;
#X obj 255 168 f;
#X text 490 10 centerer;
#X obj 256 46 inlet axis;
#X obj 356 48 inlet centerval;
#X obj 102 103 knob 32 32 0 127 0 0 empty empty empty 0 -8 0 8 -262144
-1 -1 0 1;
#X obj 108 109 knob 20 20 -5 5 0 0 empty empty empty 0 -8 0 8 -258113
-1 -1 1900 1;
#X text 7 14 this value will be the xlrmtr axis scaled to only be5-6
degrees around the center value coming from the second inlet;
#X text 353 65 this value will come from a gesture node value;
#X obj 255 207 outlet;
#X connect 1 0 0 0;
#X connect 1 0 2 0;
#X connect 2 0 3 0;
#X connect 2 0 6 0;
#X connect 6 0 5 0;
#X connect 6 0 9 0;
#X connect 7 0 9 1;
#X connect 9 0 10 0;
#X connect 10 0 8 0;
#X connect 10 0 18 0;
#X connect 10 0 15 0;
#X connect 12 0 1 0;
#X connect 12 0 4 0;
#X connect 13 0 9 1;
#X connect 13 0 14 0;
#X coords 0 -1 1 1 40 40 2 100 100;
#X restore 636 212 pd centerer;
#X obj 586 171 r xaxisr;
#X obj 641 171 r yaxisr;
#X obj 101 211 mono-compressor /key;
#X obj 453 242 gverb;
#X connect 0 0 19 0;
#X connect 3 1 5 1;
#X connect 3 2 8 1;
#X connect 4 0 3 0;
#X connect 5 0 2 0;
#X connect 6 0 3 0;
#X connect 7 0 4 0;
#X connect 8 0 9 0;
#X connect 10 0 12 1;
#X connect 11 0 10 0;
#X connect 12 0 20 0;
#X connect 13 0 16 1;
#X connect 14 0 15 1;
#X connect 15 0 20 3;
#X connect 16 0 20 2;
#X connect 17 0 15 0;
#X connect 18 0 16 0;
#X connect 19 0 1 0;
#X connect 19 0 12 0;
#X connect 20 0 1 0;
#X restore 1031 595 pd effects;
#X obj 138 406;
#X obj 895 112 r breath;
#X obj 731 151 gcrash;
#X obj 186 140 tgl 15 0 empty empty empty 17 7 0 10 -262144 -1 -1 0
1;
#X obj 662 36 tgl 15 0 empty empty empty 17 7 0 10 -262144 -1 -1 0
1;
#X obj 509 16 tgl 15 0 empty empty empty 17 7 0 10 -262144 -1 -1 0
1;
#X obj 116 143 tgl 15 0 empty empty empty 17 7 0 10 -262144 -1 -1 0
1;
#X obj 220 144 tgl 15 0 empty empty empty 17 7 0 10 -262144 -1 -1 0
1;
#X obj 140 140 tgl 15 0 empty empty empty 17 7 0 10 -262144 -1 -1 0
1;
#X obj 796 4 tgl 15 0 empty empty empty 17 7 0 10 -262144 -1 -1 0 1
;
#X obj 92 143 tgl 15 0 empty empty empty 17 7 0 10 -262144 -1 -1 0
1;
#X obj 946 70 tgl 15 0 empty empty empty 17 7 0 10 -262144 -1 -1 0
1;
#X obj 160 141 tgl 15 0 empty empty empty 17 7 0 10 -262144 -1 -1 0
1;
#X obj 1061 649 clip~ -1 2;
#X floatatom -61 127 5 0 0 0 - - -;
#X obj -95 234 DIY2/perk-bassdrum /key;
#X obj 91 234 DIY2/perk-snare /key;
#N canvas 0 0 450 300 breath 0;
#X obj 167 28 r breath;
#X obj 168 64 / 127;
#X obj 173 97 sig~;
#X obj 172 138 lop~ 200;
#X obj 159 188 outlet~;
#X connect 0 0 1 0;
#X connect 1 0 2 0;
#X connect 2 0 3 0;
#X connect 3 0 4 0;
#X restore 605 609 pd breath;
#X obj 276 234 DIY2/perk-clap /key;
#N canvas 0 0 450 300 breath 0;
#X obj 167 28 r breath;
#X obj 168 64 / 127;
#X obj 173 97 sig~;
#X obj 172 138 lop~ 200;
#X obj 159 188 outlet~;
#X obj 251 173 outlet;
#X connect 0 0 1 0;
#X connect 1 0 2 0;
#X connect 1 0 5 0;
#X connect 2 0 3 0;
#X connect 3 0 4 0;
#X restore 110 -4 pd breath;
#X obj 456 231 DIY2/perk-hihat /key;
#X obj 649 238 DIY2/perk-cowbell /key;
#X obj -76 465 DIY2/perk-lowtom /key;
#X obj 131 460 DIY2/perk-hightom /key;
#X obj 108 112 sel 53 56 63 55 64 58 60 62;
#X obj 334 436 DIY2/perk-andyhat /key;
#X obj 570 424 *~ 0.2;
#X obj 62 24 r transpose;
#X floatatom 98 42 5 0 0 0 - - -;
#X obj 56 66 -;
#X obj 37 31 bng 15 250 50 0 empty empty empty 17 7 0 10 -262144 -1
-1;
#X floatatom 56 85 5 0 0 0 - - -;
#X obj 113 186 == 56;
#X obj -94 106 stripnote;
#X floatatom 93 68 5 0 0 0 - - -;
#X obj -95 147 r \$0-n1x;
#X obj -37 146 r \$0-n1y;
#X obj -43 167 r \$0-n2x;
#X obj 15 166 r \$0-n2y;
#X obj -27 189 r \$0-n3x;
#X obj 33 189 r \$0-n3y;
#X obj 44 208 r \$0-n4x;
#X floatatom -96 180 5 0 0 0 - - -;
#X floatatom 228 189 5 0 0 0 - - -;
#X obj 468 202 / 127;
#X obj 316 193 -;
#X msg 316 169 127 \$1;
#X obj 172 172 r yaxis;
#X obj 189 600 gbongo1;
#X obj 324 598 gcym;
#X obj -19 388 gkick;
#X connect 0 0 27 0;
#X connect 0 0 67 0;
#X connect 2 0 20 0;
#X connect 3 0 17 0;
#X connect 7 0 10 0;
#X connect 10 0 8 0;
#X connect 10 0 47 0;
#X connect 10 1 9 0;
#X connect 10 1 51 1;
#X connect 11 0 51 0;
#X connect 15 0 22 0;
#X connect 15 0 66 0;
#X connect 16 0 11 1;
#X connect 19 0 3 1;
#X connect 20 0 3 0;
#X connect 33 0 17 0;
#X connect 34 0 3 0;
#X connect 36 0 3 0;
#X connect 38 0 44 0;
#X connect 39 0 3 0;
#X connect 40 0 3 0;
#X connect 41 0 3 0;
#X connect 42 0 28 0;
#X connect 42 0 33 0;
#X connect 42 1 24 0;
#X connect 42 1 50 0;
#X connect 42 2 26 0;
#X connect 42 2 36 0;
#X connect 42 3 38 0;
#X connect 42 3 30 0;
#X connect 42 4 39 0;
#X connect 42 4 21 0;
#X connect 42 5 25 0;
#X connect 42 5 40 0;
#X connect 42 6 41 0;
#X connect 42 7 43 0;
#X connect 43 0 3 0;
#X connect 44 0 3 0;
#X connect 45 0 46 0;
#X connect 45 0 48 0;
#X connect 45 0 47 1;
#X connect 47 0 49 0;
#X connect 47 0 11 0;
#X connect 48 0 47 0;
#X connect 50 0 34 0;
#X connect 51 0 14 0;
#X connect 51 0 15 0;
#X connect 51 0 32 0;
#X connect 51 0 42 0;
#X connect 53 0 60 0;
#X connect 53 0 33 1;
#X connect 54 0 33 2;
#X connect 55 0 33 3;
#X connect 56 0 33 4;
#X connect 57 0 33 5;
#X connect 58 0 33 6;
#X connect 59 0 33 7;
#X connect 62 0 38 1;
#X connect 62 0 36 1;
#X connect 62 0 40 1;
#X connect 62 0 41 1;
#X connect 63 0 34 1;
#X connect 63 0 62 0;
#X connect 64 0 63 0;
#X connect 65 0 64 0;
#X connect 66 0 3 0;
#X connect 67 0 3 0;
#X restore 338 87 pd synth;
#X obj 218 26 inlet pgmout;
#X obj 75 459 gkick;
#N canvas 0 0 808 580 gesture 0;
#X obj -1427 -1829 gesturenode;
#X obj -1741 -1544 gesturenode-r;
#X floatatom -1555 -1635 5 0 0 0 - - -;
#X obj -1460 -1710 s \$0-n1x;
#X obj -1410 -1688 s \$0-n1y;
#X obj -1379 -1710 s \$0-n1z;
#X obj -1517 -1710 s \$0-n2z;
#X obj -1561 -1690 s \$0-n2y;
#X obj -1604 -1709 s \$0-n2x;
#X obj -1663 -1710 s \$0-n3z;
#X obj -1699 -1686 s \$0-n3y;
#X obj -1747 -1709 s \$0-n3x;
#X obj -1806 -1707 s \$0-n4z;
#X obj -1857 -1689 s \$0-n4y;
#X obj -1898 -1709 s \$0-n4x;
#X obj -1641 -1410 s \$0-n5z;
#X obj -1687 -1392 s \$0-n5y;
#X obj -1730 -1411 s \$0-n5x;
#X obj -1488 -1411 s \$0-n6z;
#X obj -1576 -1411 s \$0-n6x;
#X obj -1346 -1414 s \$0-n7z;
#X obj -1388 -1392 s \$0-n7y;
#X obj -1432 -1411 s \$0-n7x;
#X obj -1197 -1413 s \$0-n8z;
#X obj -1245 -1388 s \$0-n8y;
#X obj -1284 -1411 s \$0-n8x;
#X text -1642 -1631 n=node;
#X obj -1432 -1638 s \$0-n \$1 z;
#X obj -1512 -1637 s \$0-pgm;
#X obj -1367 -1902 r parakey;
#X obj -1427 -1859 == 1;
#X obj -1841 -1863 r frange4;
#X obj -1697 -1860 r frange3;
#X obj -1538 -1859 r frange2;
#X obj -1390 -1859 r frange1;
#X obj -1874 -1862 == 4;
#X obj -1730 -1859 == 3;
#X obj -1574 -1858 == 2;
#X obj -1351 -1616 r parakey;
#X obj -1690 -1596 == 5;
#X obj -1657 -1597 r frange5;
#X obj -1545 -1595 == 6;
#X obj -1512 -1596 r frange6;
#X obj -1415 -1591 == 7;
#X obj -1379 -1592 r frange7;
#X obj -1273 -1588 == 8;
#X obj -1236 -1588 r frange8;
#X obj -1586 -1541 gesturenode-r;
#X obj -1432 -1541 gesturenode-r;
#X obj -1275 -1543 gesturenode-r;
#X obj -1737 -1830 gesturenode;
#X obj -1583 -1830 gesturenode;
#X obj -1893 -1832 gesturenode;
#X obj -1344 -1586;
#X floatatom -1749 -1405 5 0 0 0 - - -;
#X obj -1532 -1391 s \$0-n6y;
#X connect 0 0 3 0;
#X connect 0 1 4 0;
#X connect 0 2 5 0;
#X connect 1 0 17 0;
#X connect 1 0 54 0;
#X connect 1 1 16 0;
#X connect 1 2 15 0;
#X connect 29 0 30 0;
#X connect 29 0 35 0;
#X connect 29 0 36 0;
#X connect 29 0 37 0;
#X connect 30 0 0 0;
#X connect 31 0 52 2;
#X connect 32 0 50 2;
#X connect 33 0 51 2;
#X connect 34 0 0 2;
#X connect 35 0 52 0;
#X connect 36 0 50 0;
#X connect 37 0 51 0;
#X connect 38 0 39 0;
#X connect 38 0 41 0;
#X connect 38 0 43 0;
#X connect 38 0 45 0;
#X connect 39 0 1 0;
#X connect 40 0 1 2;
#X connect 41 0 47 0;
#X connect 42 0 47 2;
#X connect 43 0 48 0;
#X connect 44 0 48 2;
#X connect 45 0 49 0;
#X connect 46 0 49 2;
#X connect 47 0 19 0;
#X connect 47 1 55 0;
#X connect 47 2 18 0;
#X connect 48 0 22 0;
#X connect 48 1 21 0;
#X connect 48 2 20 0;
#X connect 49 0 25 0;
#X connect 49 1 24 0;
#X connect 49 2 23 0;
#X connect 50 0 11 0;
#X connect 50 1 10 0;
#X connect 50 2 9 0;
#X connect 51 0 8 0;
#X connect 51 1 7 0;
#X connect 51 2 6 0;
#X connect 52 0 14 0;
#X connect 52 1 13 0;
#X connect 52 2 12 0;
#X restore 230 207 pd gesture matrix;
#X obj -64 178 r mynotemsg;
#X floatatom -57 217 5 0 0 0 - - -;
#X floatatom -23 218 5 0 0 0 - - -;
#X obj -64 199 unpack f f f;
#X obj 20 200 inlet;
#X obj 133 297 tgl 15 0 empty empty empty 17 7 0 10 -262144 -1 -1 1
1;
#X obj 63 300 tgl 15 0 empty empty empty 17 7 0 10 -262144 -1 -1 1
1;
#X obj 167 301 tgl 15 0 empty empty empty 17 7 0 10 -262144 -1 -1 1
1;
#X obj 87 297 tgl 15 0 empty empty empty 17 7 0 10 -262144 -1 -1 0
1;
#X obj 39 300 tgl 15 0 empty empty empty 17 7 0 10 -262144 -1 -1 1
1;
#X obj 107 298 tgl 15 0 empty empty empty 17 7 0 10 -262144 -1 -1 0
1;
#X obj 93 181 r transpose;
#X floatatom 129 199 5 0 0 0 - - -;
#X obj 87 223 -;
#X obj 68 188 bng 15 250 50 0 empty empty empty 17 7 0 10 -262144 -1
-1;
#X floatatom 87 242 5 0 0 0 - - -;
#X obj -63 263 stripnote;
#X floatatom 124 225 5 0 0 0 - - -;
#X obj 75 676 throw~ drumout;
#X obj 74 628 *~ 5;
#X obj 125 458 gsnare;
#X obj 173 460 gclap;
#X obj 214 459 ghat;
#X obj 255 461 gbongo1;
#X obj 305 460 gcym;
#X obj 346 462 glowtom;
#X obj 399 463 ghightom;
#X obj 449 155 fiddle~;
#X text 226 576 create per-element lju2 volume control \, inside each
element;
#X obj 507 415 polygate~ 8 5;
#X obj 55 269 sel 53 56 63 55 64 58 60 62 64;
#X obj 220 310 tgl 15 0 empty empty empty 17 7 0 10 -262144 -1 -1 0
1;
#X obj -46 353 tgl 15 0 empty empty empty 17 7 0 10 -262144 -1 -1 64
64;
#X obj -63 242 spigot 1;
#X connect 2 0 3 1;
#X connect 2 0 25 1;
#X connect 2 0 26 1;
#X connect 2 0 27 1;
#X connect 2 0 28 1;
#X connect 2 0 29 1;
#X connect 2 0 30 1;
#X connect 2 0 31 1;
#X connect 3 0 24 0;
#X connect 5 0 8 0;
#X connect 8 0 6 0;
#X connect 8 0 18 0;
#X connect 8 1 7 0;
#X connect 8 1 21 1;
#X connect 9 0 38 1;
#X connect 16 0 17 0;
#X connect 16 0 19 0;
#X connect 16 0 18 1;
#X connect 18 0 20 0;
#X connect 18 0 37 0;
#X connect 18 0 35 0;
#X connect 18 0 38 0;
#X connect 19 0 18 0;
#X connect 21 0 26 0;
#X connect 21 0 27 0;
#X connect 21 0 28 0;
#X connect 21 0 29 0;
#X connect 21 0 3 0;
#X connect 21 0 25 0;
#X connect 24 0 23 0;
#X connect 25 0 24 0;
#X connect 26 0 24 0;
#X connect 27 0 24 0;
#X connect 28 0 24 0;
#X connect 29 0 24 0;
#X connect 30 0 24 0;
#X connect 31 0 24 0;
#X connect 35 0 14 0;
#X connect 35 1 11 0;
#X connect 35 2 13 0;
#X connect 35 3 15 0;
#X connect 35 4 10 0;
#X connect 35 5 12 0;
#X connect 35 8 36 0;
#X connect 38 0 21 0;
#X coords 0 -1 1 1 60 60 1 100 100;
