#N canvas 0 1 1024 703 10;
#X floatatom 153 58 5 0 0 0 - - -;
#X obj 78 105 spigot;
#X obj 76 83 r preset;
#N canvas 0 0 303 384 rangex 0;
#X obj 106 72 clip 36 96;
#X floatatom 107 102 5 0 0 0 - - -;
#X obj 107 124 - 36;
#X floatatom 108 151 5 0 0 0 - - -;
#X floatatom 109 224 5 0 0 0 - - -;
#X obj 109 196 int;
#X floatatom 112 280 5 0 0 0 - - -;
#X text 146 100 range multiplier;
#X obj 107 40 inlet;
#X obj 115 317 outlet;
#X obj 108 176 * 3;
#X obj 109 247 clip 0 170;
#X connect 0 0 1 0;
#X connect 1 0 2 0;
#X connect 2 0 3 0;
#X connect 3 0 10 0;
#X connect 4 0 11 0;
#X connect 5 0 4 0;
#X connect 6 0 9 0;
#X connect 8 0 0 0;
#X connect 10 0 5 0;
#X connect 11 0 6 0;
#X restore 418 -17 pd rangex;
#X obj 421 10 / 127;
#X obj 343 29 gemhead 99;
#X obj 354 146 rectangle 0.02 0.7;
#X obj 450 37 average 5;
#X msg 336 -8 1;
#X msg 373 -8 0;
#X obj 342 -43 sel 1 0;
#X obj 532 -72 cnv 15 200 250 empty empty empty 20 12 0 14 -4032 -66577
0;
#N canvas 0 0 303 384 rangex 0;
#X obj 106 72 clip 36 96;
#X floatatom 107 102 5 0 0 0 - - -;
#X obj 107 124 - 36;
#X floatatom 108 151 5 0 0 0 - - -;
#X floatatom 109 224 5 0 0 0 - - -;
#X obj 109 196 int;
#X floatatom 112 280 5 0 0 0 - - -;
#X text 146 100 range multiplier;
#X obj 107 40 inlet;
#X obj 115 317 outlet;
#X obj 108 176 * 3;
#X obj 109 247 clip 0 170;
#X connect 0 0 1 0;
#X connect 1 0 2 0;
#X connect 2 0 3 0;
#X connect 3 0 10 0;
#X connect 4 0 11 0;
#X connect 5 0 4 0;
#X connect 6 0 9 0;
#X connect 8 0 0 0;
#X connect 10 0 5 0;
#X connect 11 0 6 0;
#X restore 622 -33 pd rangex;
#X obj 554 18 gemhead 99;
#X obj 625 -6 / 127;
#X obj 560 71 translateXYZ 0 0.8 0;
#X obj 562 127 rectangle 0.7 0.02;
#X obj 654 21 average 5;
#X msg 536 -12 1;
#X msg 573 -12 0;
#X obj 533 -38 sel 1 0;
#X obj 735 -75 cnv 15 300 250 empty empty empty 20 12 0 14 -257985
-66577 0;
#X obj 770 65 loadbang;
#X obj 746 152 text3d;
#X msg 789 152 font /home/onyx/beatjazzdir/vera.ttf;
#X msg 778 84 2.5;
#X obj 748 24 gemhead;
#X msg 748 -2 1;
#X msg 779 -5 0;
#X obj 77 155 tgl 15 0 empty empty empty 17 7 0 10 -262144 -1 -1 0
1;
#X obj 80 177 sel 0 1;
#X obj 745 129 colorRGB;
#X obj 562 99 colorRGB;
#X obj 358 118 colorRGB;
#X obj 141 119 s stop1;
#X msg 217 171 0;
#X obj 215 135 sel 0;
#X floatatom 248 167 5 0 0 0 - - -;
#X obj 84 -31 inlet frange;
#X obj 748 -27 sel 1 0;
#X obj 323 490 s \$0-1gx0;
#X obj 396 490 s \$0-1gy0;
#X obj 416 -37 r \$0-1gx0;
#X obj 622 -53 r \$0-1gy0;
#X msg 137 184 text ---;
#X floatatom 31 172 5 0 0 0 - - -;
#X obj 265 207 s \$0-textoff;
#X obj 85 14 spigot;
#X obj 282 -53 inlet;
#X obj 283 -8 tgl 15 0 empty empty empty 17 7 0 10 -262144 -1 -1 0
1;
#X obj 234 26 s gcut;
#X floatatom 295 29 5 0 0 0 - - -;
#X floatatom 220 -13 5 0 0 0 - - -;
#X obj 317 318 gxlrmtr1r;
#X floatatom 42 -1 5 0 0 0 - - -;
#X obj 85 58 moses 0.64;
#X obj 354 62 translateXYZ 2.5 1.5 0;
#X obj 356 87 translateXYZ 2.7 0 0;
#X obj 558 46 translateXYZ 2.5 1.5 0;
#X obj 746 45 translateXYZ 2.5 0.6 0;
#X obj 874 117 r \$0-xrtext;
#X obj 93 250 s \$0-xrtext;
#X obj 204 465 r \$0-function1r;
#X obj 205 486 s extfunction1r;
#X obj 96 207 s \$0-function1r;
#X obj 98 229 r function1recr;
#X text 703 254 change the rgb values;
#X obj 169 -46 inlet fkey;
#X obj 676 126 r \$0-b;
#X obj 676 108 r \$0-g;
#X obj 676 90 r \$0-r;
#X obj 831 117 r \$0-b;
#X obj 831 99 r \$0-g;
#X obj 830 79 r \$0-r;
#X obj 77 129 == 1;
#X obj 415 116 r \$0-r;
#X obj 464 114 r \$0-g;
#X obj 498 115 r \$0-b;
#X obj 679 -5 - 0.05;
#X obj 475 11 - 0.05;
#X obj 198 538 r extfunction1r;
#X msg 199 559 text;
#X obj 200 579 s function1recr;
#X obj 631 466 vline~;
#X obj 328 462 r 1xrx;
#X obj 398 462 r 1xry;
#X obj 148 77 > 0.7;
#X obj 141 101 tgl 15 0 empty empty empty 17 7 0 10 -262144 -1 -1 0
1;
#X obj 167 4 s fkeyr;
#X connect 1 0 45 0;
#X connect 1 0 74 0;
#X connect 2 0 1 0;
#X connect 3 0 4 0;
#X connect 4 0 79 0;
#X connect 5 0 56 0;
#X connect 7 0 56 1;
#X connect 8 0 5 0;
#X connect 9 0 5 0;
#X connect 10 0 8 0;
#X connect 10 1 9 0;
#X connect 12 0 14 0;
#X connect 13 0 58 0;
#X connect 14 0 78 0;
#X connect 15 0 32 0;
#X connect 17 0 58 2;
#X connect 18 0 13 0;
#X connect 19 0 13 0;
#X connect 20 0 18 0;
#X connect 20 1 19 0;
#X connect 22 0 24 0;
#X connect 22 0 25 0;
#X connect 24 0 23 0;
#X connect 25 0 23 1;
#X connect 26 0 59 0;
#X connect 27 0 26 0;
#X connect 28 0 26 0;
#X connect 29 0 30 0;
#X connect 29 0 53 0;
#X connect 30 1 64 0;
#X connect 31 0 23 0;
#X connect 32 0 16 0;
#X connect 33 0 6 0;
#X connect 35 0 29 0;
#X connect 36 0 37 0;
#X connect 36 0 35 0;
#X connect 36 0 44 0;
#X connect 36 0 46 0;
#X connect 38 0 47 0;
#X connect 38 0 54 0;
#X connect 39 0 27 0;
#X connect 39 1 28 0;
#X connect 42 0 3 0;
#X connect 43 0 12 0;
#X connect 44 0 61 0;
#X connect 47 0 55 0;
#X connect 48 0 47 1;
#X connect 48 0 49 0;
#X connect 48 0 50 0;
#X connect 48 0 51 0;
#X connect 48 0 53 1;
#X connect 55 1 0 0;
#X connect 55 1 86 0;
#X connect 56 0 57 0;
#X connect 57 0 33 0;
#X connect 58 0 15 0;
#X connect 59 0 31 0;
#X connect 60 0 23 0;
#X connect 62 0 63 0;
#X connect 65 0 61 0;
#X connect 67 0 20 0;
#X connect 67 0 10 0;
#X connect 67 0 39 0;
#X connect 67 0 52 0;
#X connect 67 0 88 0;
#X connect 68 0 32 3;
#X connect 69 0 32 2;
#X connect 70 0 32 1;
#X connect 71 0 31 3;
#X connect 72 0 31 2;
#X connect 73 0 31 1;
#X connect 74 0 29 0;
#X connect 75 0 33 1;
#X connect 76 0 33 2;
#X connect 77 0 33 3;
#X connect 78 0 17 0;
#X connect 79 0 7 0;
#X connect 80 0 81 0;
#X connect 81 0 82 0;
#X connect 84 0 40 0;
#X connect 85 0 41 0;
#X connect 86 0 87 0;
#X connect 87 0 1 1;
#X connect 87 0 36 0;
#X connect 87 0 34 0;
#X coords 0 -1 1 1 165 125 1 315 315;
