#N canvas 0 0 1024 703 10;
#X obj 132 90 tgl 15 0 empty empty empty 17 7 0 10 -262144 -1 -1 0
1;
#X floatatom 143 48 5 0 0 0 - - -;
#X obj 75 48 moses 0.97;
#X obj 68 95 spigot;
#X obj 66 73 r preset;
#N canvas 0 0 303 384 rangex 0;
#X obj 106 72 clip 36 96;
#X floatatom 107 102 5 0 0 0 - - -;
#X obj 107 124 - 36;
#X floatatom 108 151 5 0 0 0 - - -;
#X floatatom 109 224 5 0 0 0 - - -;
#X obj 109 196 int;
#X floatatom 112 280 5 0 0 0 - - -;
#X text 146 100 range multiplier;
#X obj 107 40 inlet;
#X obj 115 317 outlet;
#X obj 108 176 * 3;
#X obj 109 247 clip 0 170;
#X connect 0 0 1 0;
#X connect 1 0 2 0;
#X connect 2 0 3 0;
#X connect 3 0 10 0;
#X connect 4 0 11 0;
#X connect 5 0 4 0;
#X connect 6 0 9 0;
#X connect 8 0 0 0;
#X connect 10 0 5 0;
#X connect 11 0 6 0;
#X restore 408 -27 pd rangex;
#X obj 411 0 / 127;
#X obj 465 1 - 0.5;
#X obj 346 53 translateXYZ -2.5 1.5 0;
#X obj 333 19 gemhead 99;
#X obj 346 77 translateXYZ -2.7 0 0;
#X obj 347 120 rectangle 0.02 0.7;
#X obj 440 27 average 5;
#X msg 326 -18 1;
#X msg 363 -18 0;
#X obj 332 -53 sel 1 0;
#X obj 522 -82 cnv 15 200 250 empty empty empty 20 12 0 14 -4032 -66577
0;
#N canvas 0 0 303 384 rangex 0;
#X obj 106 72 clip 36 96;
#X floatatom 107 102 5 0 0 0 - - -;
#X obj 107 124 - 36;
#X floatatom 108 151 5 0 0 0 - - -;
#X floatatom 109 224 5 0 0 0 - - -;
#X obj 109 196 int;
#X floatatom 112 280 5 0 0 0 - - -;
#X text 146 100 range multiplier;
#X obj 107 40 inlet;
#X obj 115 317 outlet;
#X obj 108 176 * 3;
#X obj 109 247 clip 0 170;
#X connect 0 0 1 0;
#X connect 1 0 2 0;
#X connect 2 0 3 0;
#X connect 3 0 10 0;
#X connect 4 0 11 0;
#X connect 5 0 4 0;
#X connect 6 0 9 0;
#X connect 8 0 0 0;
#X connect 10 0 5 0;
#X connect 11 0 6 0;
#X restore 612 -43 pd rangex;
#X obj 544 8 gemhead 99;
#X obj 548 36 translateXYZ -2.5 1.5 0;
#X obj 669 -15 - 0.05;
#X obj 615 -16 / 127;
#X obj 550 61 translateXYZ 0 0.8 0;
#X obj 552 117 rectangle 0.7 0.02;
#X obj 644 11 average 5;
#X msg 526 -22 1;
#X msg 563 -22 0;
#X obj 523 -48 sel 1 0;
#X obj 725 -85 cnv 15 300 250 empty empty empty 20 12 0 14 -257985
-66577 0;
#X obj 760 55 loadbang;
#X obj 736 142 text3d;
#X msg 779 142 font /home/onyx/beatjazzdir/vera.ttf;
#X msg 768 74 2.5;
#X obj 738 14 gemhead;
#X msg 732 -15 1;
#X msg 769 -15 0;
#X obj 67 119 == 1;
#X obj 68 138 tgl 15 0 empty empty empty 17 7 0 10 -262144 -1 -1 0
1;
#X obj 103 139 tgl 15 0 empty empty empty 17 7 0 10 -262144 -1 -1 0
1;
#X obj 102 120 == 2;
#X obj 134 140 tgl 15 0 empty empty empty 17 7 0 10 -262144 -1 -1 0
1;
#X obj 135 120 == 3;
#X obj 68 164 sel 0 1;
#X obj 158 163 sel 0 1;
#X obj 250 163 sel 0 1;
#X obj 736 35 translateXYZ -2.5 0.6 0;
#X obj 735 119 colorRGB;
#X obj 743 97 r r;
#X obj 768 97 r g;
#X obj 794 98 r b;
#X obj 552 89 colorRGB;
#X obj 608 86 r r;
#X obj 634 89 r g;
#X obj 663 89 r b;
#X obj 347 100 colorRGB;
#X obj 404 98 r r;
#X obj 427 98 r g;
#X obj 452 98 r b;
#X obj 166 121 s stop1;
#X msg 218 106 0;
#X obj 183 89 sel 0;
#X floatatom 218 89 5 0 0 0 - - -;
#X floatatom 150 90 5 0 0 0 - - -;
#X obj 133 70 > 0.985;
#X obj 75 -70 inlet frange;
#X obj 307 308 gxlrmtr1;
#X text 448 533 may need to externalize the "" 1gx \, for use in this
abstraction;
#X obj 470 307 gxlrmtr2;
#X obj 634 307 gxlrmtr3;
#X obj 738 -50 sel 1 0;
#X obj 318 471 s \$0-1gx0;
#X obj 373 471 s \$0-2gx0;
#X obj 429 472 s \$0-3gx0;
#X obj 524 473 s \$0-1gy0;
#X obj 586 473 s \$0-2gy0;
#X obj 650 474 s \$0-3gy0;
#X obj 330 -73 r \$0-1gx0;
#X obj 392 -73 r \$0-2gx0;
#X obj 454 -73 r \$0-3gx0;
#X obj 579 -73 r \$0-1gy0;
#X obj 641 -73 r \$0-2gy0;
#X obj 704 -72 r \$0-3gy0;
#X obj 817 99 r \$0-x1text;
#X obj 277 250 s \$0-x1text;
#X msg 273 207 text ---;
#X obj 183 249 s \$0-x1text;
#X msg 184 206 text ---;
#X obj 83 248 s \$0-x1text;
#X msg 83 205 text ---;
#X floatatom 36 94 5 0 0 0 - - -;
#X obj 253 88 s \$0-textoff;
#X obj 161 -49 s fkey;
#X obj 161 -68 inlet \$0-fkey;
#X obj 75 4 spigot;
#X obj 267 -73 inlet;
#X obj 273 -18 tgl 15 0 empty empty empty 17 7 0 10 -262144 -1 -1 0
1;
#X obj 224 16 s gcut;
#X floatatom 285 19 5 0 0 0 - - -;
#X floatatom 205 -47 5 0 0 0 - - -;
#X obj 86 184 s \$0-function1;
#X obj 177 184 s \$0-function2;
#X obj 269 184 s \$0-function3;
#X obj 205 509 r \$0-function3;
#X obj 112 509 r \$0-function2;
#X obj 21 509 r \$0-function1;
#X obj 22 530 s extfunction1;
#X obj 112 530 s extfunction2;
#X obj 91 227 r function1rec;
#X obj 189 228 r function2rec;
#X obj 281 229 r function3rec;
#X obj 204 529 s extfunction3;
#X obj 318 452 r \$0-1gx;
#X obj 372 451 r \$0-2gx;
#X obj 428 454 r \$0-3gx;
#X obj 524 454 r \$0-1gy;
#X obj 587 454 r \$0-2gy;
#X obj 650 454 r \$0-3gy;
#X connect 0 0 3 1;
#X connect 0 0 58 0;
#X connect 0 0 60 0;
#X connect 2 1 1 0;
#X connect 2 1 63 0;
#X connect 3 0 36 0;
#X connect 3 0 39 0;
#X connect 3 0 41 0;
#X connect 3 0 89 0;
#X connect 4 0 3 0;
#X connect 5 0 6 0;
#X connect 6 0 7 0;
#X connect 7 0 12 0;
#X connect 8 0 10 0;
#X connect 9 0 8 0;
#X connect 10 0 54 0;
#X connect 12 0 8 1;
#X connect 13 0 9 0;
#X connect 14 0 9 0;
#X connect 15 0 13 0;
#X connect 15 1 14 0;
#X connect 17 0 21 0;
#X connect 18 0 19 0;
#X connect 19 0 22 0;
#X connect 20 0 24 0;
#X connect 21 0 20 0;
#X connect 22 0 50 0;
#X connect 24 0 19 2;
#X connect 25 0 18 0;
#X connect 26 0 18 0;
#X connect 27 0 25 0;
#X connect 27 1 26 0;
#X connect 29 0 31 0;
#X connect 29 0 32 0;
#X connect 31 0 30 0;
#X connect 32 0 30 1;
#X connect 33 0 45 0;
#X connect 34 0 33 0;
#X connect 35 0 33 0;
#X connect 36 0 37 0;
#X connect 37 0 42 0;
#X connect 37 0 65 0;
#X connect 38 0 43 0;
#X connect 38 0 67 0;
#X connect 39 0 38 0;
#X connect 40 0 44 0;
#X connect 40 0 68 0;
#X connect 41 0 40 0;
#X connect 42 1 99 0;
#X connect 43 1 100 0;
#X connect 44 1 101 0;
#X connect 45 0 46 0;
#X connect 46 0 30 0;
#X connect 47 0 46 1;
#X connect 48 0 46 2;
#X connect 49 0 46 3;
#X connect 50 0 23 0;
#X connect 51 0 50 1;
#X connect 52 0 50 2;
#X connect 53 0 50 3;
#X connect 54 0 11 0;
#X connect 55 0 54 1;
#X connect 56 0 54 2;
#X connect 57 0 54 3;
#X connect 59 0 40 0;
#X connect 59 0 38 0;
#X connect 59 0 37 0;
#X connect 60 0 61 0;
#X connect 60 0 59 0;
#X connect 60 0 84 0;
#X connect 60 0 58 0;
#X connect 60 0 86 0;
#X connect 60 0 88 0;
#X connect 60 0 90 0;
#X connect 63 0 0 0;
#X connect 63 0 62 0;
#X connect 64 0 93 0;
#X connect 69 0 34 0;
#X connect 69 1 35 0;
#X connect 76 0 5 0;
#X connect 77 0 5 0;
#X connect 78 0 5 0;
#X connect 79 0 17 0;
#X connect 80 0 17 0;
#X connect 81 0 17 0;
#X connect 82 0 30 0;
#X connect 84 0 83 0;
#X connect 86 0 85 0;
#X connect 88 0 87 0;
#X connect 92 0 27 0;
#X connect 92 0 15 0;
#X connect 92 0 69 0;
#X connect 92 0 91 0;
#X connect 92 0 98 0;
#X connect 93 0 2 0;
#X connect 94 0 93 1;
#X connect 94 0 95 0;
#X connect 94 0 96 0;
#X connect 94 0 97 0;
#X connect 94 0 65 1;
#X connect 94 0 67 1;
#X connect 94 0 68 1;
#X connect 102 0 110 0;
#X connect 103 0 106 0;
#X connect 104 0 105 0;
#X connect 107 0 87 0;
#X connect 108 0 85 0;
#X connect 109 0 83 0;
#X connect 111 0 70 0;
#X connect 112 0 71 0;
#X connect 113 0 72 0;
#X connect 114 0 73 0;
#X connect 115 0 74 0;
#X connect 116 0 75 0;
#X coords 0 -1 1 1 500 140 1 300 300;
