#N canvas 0 0 1024 562 10;
#X declare -stdpath extra/moocow -lib pdstring;
#X floatatom 32 456 5 0 0 3 a0 - -;
#X floatatom 78 456 5 0 0 3 a1 - -;
#X floatatom 124 456 5 0 0 3 a2 - -;
#X floatatom 170 456 5 0 0 3 a3 - -;
#X floatatom 216 456 5 0 0 3 a4 - -;
#X floatatom 262 456 5 0 0 3 a5 - -;
#X floatatom 308 456 5 0 0 3 a6 - -;
#X floatatom 354 456 5 0 0 3 a7 - -;
#X obj 131 399 route 0 1 2 3 4 5 6 7;
#N canvas 981 48 499 396 display 0;
#X obj 6 7 inlet;
#X obj 6 28 mapping/resample 100;
#X obj 6 50 outlet;
#X obj 54 50 inlet;
#X obj 54 71 mapping/resample 100;
#X obj 54 93 outlet;
#X obj 103 93 inlet;
#X obj 103 114 mapping/resample 100;
#X obj 103 136 outlet;
#X obj 151 136 inlet;
#X obj 151 157 mapping/resample 100;
#X obj 151 179 outlet;
#X obj 200 179 inlet;
#X obj 200 200 mapping/resample 100;
#X obj 200 222 outlet;
#X obj 247 222 inlet;
#X obj 247 243 mapping/resample 100;
#X obj 247 265 outlet;
#X obj 295 265 inlet;
#X obj 295 286 mapping/resample 100;
#X obj 295 308 outlet;
#X obj 345 308 inlet;
#X obj 345 329 mapping/resample 100;
#X obj 345 351 outlet;
#X obj 60 290 receive ARDUINO_TEST_RESET;
#X connect 0 0 1 0;
#X connect 1 0 2 0;
#X connect 3 0 4 0;
#X connect 4 0 5 0;
#X connect 6 0 7 0;
#X connect 7 0 8 0;
#X connect 9 0 10 0;
#X connect 10 0 11 0;
#X connect 12 0 13 0;
#X connect 13 0 14 0;
#X connect 15 0 16 0;
#X connect 16 0 17 0;
#X connect 18 0 19 0;
#X connect 19 0 20 0;
#X connect 21 0 22 0;
#X connect 22 0 23 0;
#X connect 24 0 22 0;
#X connect 24 0 19 0;
#X connect 24 0 16 0;
#X connect 24 0 13 0;
#X connect 24 0 10 0;
#X connect 24 0 7 0;
#X connect 24 0 4 0;
#X connect 24 0 1 0;
#X restore 55 430 pd display values without pegging the CPU;
#X text 191 301 <-- argument sets port #;
#X text 19 399 analog inputs:;
#X obj 131 334 route analog digital string sysex;
#X msg 230 244 analogIns 1 1;
#X msg 224 222 analogIns 0 1;
#X msg 365 189 pinMode 5 pwm;
#X msg 356 212 pinMode 6 pwm;
#X msg 372 167 pinMode 3 pwm;
#X msg 272 258 analogIns 2 1;
#X obj 182 112 loadbang;
#X obj 625 306 osc~ 200;
#X obj 616 366 dac~;
#X floatatom 639 238 5 0 0 0 - - -;
#X obj 484 411 -;
#X floatatom 487 450 5 0 0 0 - - -;
#X obj 574 459 hsl 128 15 0 1 0 0 empty empty empty -2 -8 0 10 -262144
-1 -1 4370 1;
#X obj 746 306 osc~ 200;
#X floatatom 760 238 5 0 0 0 - - -;
#X obj 729 211 * 127;
#X obj 848 309 osc~ 200;
#X floatatom 862 241 5 0 0 0 - - -;
#X obj 831 214 * 127;
#X obj 564 274 mtof~;
#X obj 685 274 mtof~;
#X obj 787 277 mtof~;
#X obj 608 211 * 1024;
#X obj 725 141 metro;
#X obj 697 363 tgl 15 0 empty empty empty 17 7 0 10 -262144 -1 -1 0
1;
#X obj 592 337 *~;
#X obj 728 109 bng 15 250 50 0 empty empty empty 17 7 0 10 -262144
-1 -1;
#X obj 131 302 arduino 20;
#X obj 344 36 hsl 150 17 0 1 0 0 empty empty PWM_control_(0-1) -2 -6
1 10 -260818 -1 -1 8579 1;
#X obj 514 31 hsl 150 17 0 1 0 0 empty empty PWM_control_(0-1) -2 -6
1 10 -260818 -1 -1 5127 1;
#X obj 678 29 hsl 150 17 0 1 0 0 empty empty PWM_control_(0-1) -2 -6
1 10 -260818 -1 -1 11084 1;
#X msg 341 61 pwm 3 \$1;
#X msg 511 59 pwm 5 \$1;
#X msg 669 56 pwm 6 \$1;
#X connect 0 0 28 0;
#X connect 0 0 41 0;
#X connect 1 0 35 0;
#X connect 1 0 43 0;
#X connect 2 0 23 0;
#X connect 2 0 23 1;
#X connect 2 0 25 0;
#X connect 2 0 42 0;
#X connect 8 0 9 0;
#X connect 8 1 9 1;
#X connect 8 2 9 2;
#X connect 8 3 9 3;
#X connect 8 4 9 4;
#X connect 8 5 9 5;
#X connect 8 6 9 6;
#X connect 8 7 9 7;
#X connect 9 0 0 0;
#X connect 9 1 1 0;
#X connect 9 2 2 0;
#X connect 9 3 3 0;
#X connect 9 4 4 0;
#X connect 9 5 5 0;
#X connect 9 6 6 0;
#X connect 9 7 7 0;
#X connect 12 0 8 0;
#X connect 13 0 40 0;
#X connect 14 0 40 0;
#X connect 15 0 40 0;
#X connect 16 0 40 0;
#X connect 17 0 40 0;
#X connect 18 0 40 0;
#X connect 19 0 14 0;
#X connect 19 0 13 0;
#X connect 19 0 18 0;
#X connect 19 0 17 0;
#X connect 19 0 15 0;
#X connect 19 0 16 0;
#X connect 20 0 38 0;
#X connect 22 0 32 0;
#X connect 22 0 20 0;
#X connect 23 0 24 0;
#X connect 26 0 38 0;
#X connect 27 0 33 0;
#X connect 28 0 27 0;
#X connect 30 0 34 0;
#X connect 31 0 30 0;
#X connect 33 0 26 0;
#X connect 34 0 29 0;
#X connect 35 0 22 0;
#X connect 36 0 37 0;
#X connect 37 0 38 1;
#X connect 38 0 21 0;
#X connect 38 0 21 1;
#X connect 39 0 36 0;
#X connect 40 0 12 0;
#X connect 41 0 44 0;
#X connect 42 0 45 0;
#X connect 43 0 46 0;
#X connect 44 0 40 0;
#X connect 45 0 40 0;
#X connect 46 0 40 0;
