#N canvas 0 79 1366 689 10;
#X floatatom 224 388 5 0 0 0 - - -;
#X floatatom 266 387 5 0 0 0 - - -;
#X floatatom 320 389 5 0 0 0 - - -;
#N canvas 7 5 1016 648 xaxisswitches 0;
#X msg 441 183 0;
#X msg 473 186 1;
#X msg 505 186 0;
#X obj 451 213 change;
#X floatatom 383 124 5 0 127 0 - - -;
#X msg 576 184 1;
#X msg 548 185 0;
#X msg 679 184 1;
#X obj 553 210 change;
#X msg 606 184 0;
#X obj 649 207 change;
#X msg 649 184 0;
#X msg 709 185 0;
#X obj 439 352 tgl 15 0 empty empty empty 17 7 0 10 -262144 -1 -1 0
1;
#X obj 422 352 tgl 15 0 empty empty empty 17 7 0 10 -262144 -1 -1 1
1;
#X obj 405 352 tgl 15 0 empty empty empty 17 7 0 10 -262144 -1 -1 0
1;
#X obj 382 93 average 5;
#X obj 357 64 inlet;
#X obj 39 298 cnv 15 300 250 empty empty empty 20 12 0 14 -257985 -66577
0;
#X obj 121 482 loadbang;
#X obj 48 570 text3d;
#X obj 52 397 gemhead;
#X msg 46 368 1;
#X msg 83 368 0;
#X obj 52 333 sel 1 0;
#X obj 50 545 colorRGB;
#X obj 104 524 r r;
#X obj 129 524 r g;
#X obj 155 525 r b;
#X msg 129 501 3;
#X obj 95 169 loadbang;
#X obj 36 257 text3d;
#X obj 38 129 gemhead;
#X msg 32 100 1;
#X msg 69 100 0;
#X obj 38 65 sel 1 0;
#X obj 36 234 colorRGB;
#X obj 78 211 r r;
#X obj 103 211 r g;
#X obj 129 212 r b;
#X msg 103 188 3;
#X obj 191 134 / 127;
#X obj 154 108 average 10;
#X obj 191 156 + 0.25;
#X obj 175 188 clip 0.65 1.15;
#X obj 386 456 spigot;
#X floatatom 391 521 5 0 0 0 - - -;
#X obj 390 499 int;
#X msg 390 541 text \$1;
#X obj 387 478 average 10;
#X obj 501 456 spigot;
#X floatatom 502 520 5 0 0 0 - - -;
#X obj 504 499 int;
#X msg 504 540 text \$1;
#X obj 503 478 average 10;
#X obj 608 458 spigot;
#X floatatom 609 522 5 0 0 0 - - -;
#X obj 611 501 int;
#X msg 611 542 text \$1;
#X obj 610 480 average 10;
#X floatatom 312 595 5 0 0 0 - - -;
#X obj 178 526 r \$0-xptext;
#X obj 152 213 r \$0-yaxisnumupdate;
#X msg 421 383 text .;
#X msg 516 384 text .;
#X msg 632 385 text .;
#X obj 367 383 sel 0 1;
#X obj 465 382 sel 0 1;
#X obj 579 384 sel 0 1;
#X obj 605 572 s \$0-yaxisnumupdate;
#X obj 480 571 s \$0-yaxisnumupdate;
#X obj 350 571 s \$0-yaxisnumupdate;
#X obj 49 458 spigot;
#X obj 35 201 spigot;
#X obj 63 437 r \$0-gcut;
#X obj 35 170 r \$0-gcut;
#X obj 546 243 == 1;
#X obj 446 245 == 1;
#X obj 643 239 == 1;
#X obj 458 310 s \$0-xptext;
#X obj 548 311 s \$0-xptext;
#X obj 629 313 s \$0-xptext;
#X obj 42 477 r \$0-preset0;
#X obj 47 523 spigot;
#X obj 389 619 outlet;
#X obj 502 622 outlet;
#X obj 612 624 outlet;
#X obj 371 409 r \$0-gry;
#X obj 486 409 r \$0-gry;
#X obj 593 411 r \$0-gry;
#X obj 154 78 r \$0-gry;
#X obj 36 150 translateXYZ 1.5 0.4 0;
#X obj 50 418 translateXYZ 2.5 0.4 0;
#X obj 42 39 r \$0-fkey;
#X obj 56 307 r \$0-fkey;
#X obj 44 500 == 1;
#X floatatom 267 126 5 0 0 0 - - -;
#X obj 385 148 moses 0;
#X obj 459 146 moses 25;
#X obj 553 149 moses 100;
#X obj 643 148 moses 128;
#X connect 0 0 3 0;
#X connect 1 0 3 0;
#X connect 2 0 3 0;
#X connect 3 0 15 0;
#X connect 3 0 77 0;
#X connect 4 0 97 0;
#X connect 5 0 8 0;
#X connect 6 0 8 0;
#X connect 7 0 10 0;
#X connect 8 0 14 0;
#X connect 8 0 76 0;
#X connect 9 0 8 0;
#X connect 10 0 13 0;
#X connect 10 0 78 0;
#X connect 11 0 10 0;
#X connect 12 0 10 0;
#X connect 13 0 55 1;
#X connect 13 0 68 0;
#X connect 13 0 86 0;
#X connect 14 0 50 1;
#X connect 14 0 67 0;
#X connect 14 0 85 0;
#X connect 15 0 45 1;
#X connect 15 0 66 0;
#X connect 15 0 84 0;
#X connect 16 0 4 0;
#X connect 17 0 16 0;
#X connect 19 0 29 0;
#X connect 19 0 20 0;
#X connect 21 0 92 0;
#X connect 22 0 21 0;
#X connect 23 0 21 0;
#X connect 24 0 22 0;
#X connect 24 1 23 0;
#X connect 25 0 20 0;
#X connect 26 0 25 1;
#X connect 27 0 25 2;
#X connect 28 0 25 3;
#X connect 29 0 20 1;
#X connect 30 0 40 0;
#X connect 30 0 31 0;
#X connect 32 0 91 0;
#X connect 33 0 32 0;
#X connect 34 0 32 0;
#X connect 35 0 33 0;
#X connect 35 1 34 0;
#X connect 36 0 31 0;
#X connect 37 0 36 1;
#X connect 38 0 36 2;
#X connect 39 0 36 3;
#X connect 40 0 31 1;
#X connect 41 0 43 0;
#X connect 41 0 96 0;
#X connect 42 0 41 0;
#X connect 43 0 44 0;
#X connect 44 0 91 2;
#X connect 45 0 49 0;
#X connect 46 0 48 0;
#X connect 47 0 46 0;
#X connect 48 0 71 0;
#X connect 49 0 47 0;
#X connect 50 0 54 0;
#X connect 51 0 53 0;
#X connect 52 0 51 0;
#X connect 53 0 70 0;
#X connect 54 0 52 0;
#X connect 55 0 59 0;
#X connect 56 0 58 0;
#X connect 57 0 56 0;
#X connect 58 0 69 0;
#X connect 59 0 57 0;
#X connect 61 0 20 0;
#X connect 62 0 31 0;
#X connect 63 0 71 0;
#X connect 64 0 70 0;
#X connect 65 0 69 0;
#X connect 66 0 63 0;
#X connect 67 0 64 0;
#X connect 68 0 65 0;
#X connect 72 0 83 0;
#X connect 73 0 36 0;
#X connect 74 0 72 1;
#X connect 75 0 73 1;
#X connect 82 0 95 0;
#X connect 83 0 25 0;
#X connect 87 0 45 0;
#X connect 87 0 60 0;
#X connect 88 0 50 0;
#X connect 89 0 55 0;
#X connect 90 0 42 0;
#X connect 91 0 73 0;
#X connect 92 0 72 0;
#X connect 93 0 35 0;
#X connect 94 0 24 0;
#X connect 95 0 83 1;
#X connect 97 0 0 0;
#X connect 97 1 98 0;
#X connect 98 0 1 0;
#X connect 98 0 6 0;
#X connect 98 1 2 0;
#X connect 98 1 99 0;
#X connect 99 0 5 0;
#X connect 99 0 11 0;
#X connect 99 1 9 0;
#X connect 99 1 100 0;
#X connect 100 0 7 0;
#X connect 100 1 12 0;
#X coords 0 -1 1 1 60 20 2 400 350;
#X restore 3 293 pd xaxisswitches;
#N canvas 260 52 1024 716 yaxisswitches 0;
#X msg 376 26 0;
#X msg 408 26 1;
#X msg 440 26 0;
#X obj 386 53 change;
#X floatatom 320 -32 5 0 127 0 - - -;
#X msg 511 24 1;
#X msg 483 25 0;
#X msg 614 24 1;
#X obj 488 50 change;
#X msg 541 24 0;
#X obj 584 47 change;
#X msg 584 24 0;
#X msg 644 25 0;
#X msg 727 28 1;
#X msg 698 29 0;
#X msg 754 28 0;
#X obj 701 51 change;
#X msg 825 22 1;
#X msg 796 23 0;
#X msg 852 22 0;
#X obj 799 45 change;
#X obj 773 -14 moses 127;
#X obj 321 218 tgl 15 0 empty empty empty 17 7 0 10 -262144 -1 -1 0
1;
#X obj 321 235 tgl 15 0 empty empty empty 17 7 0 10 -262144 -1 -1 0
1;
#X obj 322 252 tgl 15 0 empty empty empty 17 7 0 10 -262144 -1 -1 1
1;
#X obj 322 268 tgl 15 0 empty empty empty 17 7 0 10 -262144 -1 -1 0
1;
#X obj 321 203 tgl 15 0 empty empty empty 17 7 0 10 -262144 -1 -1 0
1;
#X obj 319 -52 average 5;
#X obj 318 -72 inlet;
#X msg 729 86 text para 5;
#X obj 4 -91 cnv 15 300 250 empty empty empty 20 12 0 14 -257985 -66577
0;
#X obj 118 125 loadbang;
#X obj 16 211 text3d;
#X obj 17 8 gemhead;
#X msg 16 -14 1;
#X msg 53 -14 0;
#X obj 14 -35 sel 1 0;
#X obj 15 188 colorRGB;
#X obj 23 166 r r;
#X obj 48 166 r g;
#X obj 74 167 r b;
#X msg 126 144 3;
#X obj 60 462 loadbang;
#X obj 36 549 text3d;
#X obj 38 371 gemhead;
#X msg 32 342 1;
#X msg 69 342 0;
#X obj 38 307 sel 1 0;
#X obj 35 526 colorRGB;
#X obj 43 504 r r;
#X obj 68 504 r g;
#X obj 94 505 r b;
#X msg 68 481 3;
#X obj 100 321 / 127;
#X obj 101 300 average 5;
#X obj 490 198 spigot;
#X obj 641 192 spigot;
#X floatatom 492 266 5 0 0 0 - - -;
#X msg 493 288 text \$1;
#X floatatom 647 264 5 0 0 0 - - -;
#X msg 645 283 text \$1;
#X obj 491 246 int;
#X obj 644 244 int;
#X obj 488 227 average 10;
#X obj 642 217 average 10;
#X obj 758 198 spigot;
#X obj 864 195 spigot;
#X floatatom 760 266 5 0 0 0 - - -;
#X msg 761 288 text \$1;
#X floatatom 870 267 5 0 0 0 - - -;
#X msg 868 286 text \$1;
#X obj 759 246 int;
#X obj 867 247 int;
#X obj 756 227 average 10;
#X obj 864 223 average 10;
#X obj 386 197 spigot;
#X floatatom 392 269 5 0 0 0 - - -;
#X msg 390 288 text \$1;
#X obj 389 249 int;
#X obj 386 225 average 10;
#X msg 398 91 text para 1;
#X msg 484 91 text para 2;
#X msg 569 91 text para 3;
#X msg 650 90 text para 4;
#X obj 117 506 r \$0-xaxisnumupdate;
#X obj 97 168 r \$0-yptext;
#X obj 864 345 s \$0-xaxisnumupdate;
#X obj 248 523 sel 0;
#X obj 731 350 s \$0-xaxisnumupdate;
#X obj 583 351 s \$0-xaxisnumupdate;
#X obj 458 352 s \$0-xaxisnumupdate;
#X obj 330 352 s \$0-xaxisnumupdate;
#X msg 403 320 text .;
#X msg 498 321 text .;
#X msg 614 322 text .;
#X msg 761 322 text .;
#X msg 874 317 text .;
#X obj 349 320 sel 0 1;
#X obj 447 319 sel 0 1;
#X obj 561 321 sel 0 1;
#X obj 708 318 sel 0 1;
#X obj 818 318 sel 0 1;
#X obj 38 439 spigot;
#X obj 17 73 spigot;
#X obj 55 48 r \$0-gcut;
#X obj 76 414 r \$0-gcut;
#X obj 488 70 == 1;
#X obj 388 72 == 1;
#X obj 585 66 == 1;
#X obj 701 70 == 1;
#X obj 801 67 == 1;
#X obj 775 135 s \$0-yptext;
#X obj 655 136 s \$0-yptext;
#X obj 571 140 s \$0-yptext;
#X obj 490 138 s \$0-yptext;
#X obj 400 137 s \$0-yptext;
#X obj 48 85 r \$0-preset0;
#X obj 16 141 spigot;
#X obj 391 422 outlet;
#X obj 504 425 outlet;
#X obj 614 427 outlet;
#X obj 719 427 outlet;
#X obj 824 431 outlet;
#X obj 386 176 r \$0-grx;
#X obj 489 177 r \$0-grx;
#X obj 641 171 r \$0-grx;
#X obj 757 177 r \$0-grx;
#X obj 864 174 r \$0-grx;
#X obj 102 281 r \$0-grx;
#X obj 15 29 translateXYZ 1.3 1.4 0;
#X obj 13 -58 r \$0-fkey;
#X obj 42 281 r \$0-fkey;
#X obj 50 108 == 1;
#X obj 36 392 translateXYZ 4.5 2 0;
#X obj 100 350 clip -1.1 1.9;
#X obj 320 -12 moses 0;
#X obj 394 -14 moses 25.4;
#X obj 488 -11 moses 50.8;
#X obj 578 -12 moses 76.2;
#X obj 675 -13 moses 101.6;
#X connect 0 0 3 0;
#X connect 1 0 3 0;
#X connect 2 0 3 0;
#X connect 3 0 25 0;
#X connect 3 0 75 1;
#X connect 3 0 107 0;
#X connect 4 0 135 0;
#X connect 5 0 8 0;
#X connect 6 0 8 0;
#X connect 7 0 10 0;
#X connect 8 0 24 0;
#X connect 8 0 55 1;
#X connect 8 0 106 0;
#X connect 9 0 8 0;
#X connect 10 0 23 0;
#X connect 10 0 56 1;
#X connect 10 0 108 0;
#X connect 11 0 10 0;
#X connect 12 0 10 0;
#X connect 13 0 16 0;
#X connect 14 0 16 0;
#X connect 15 0 16 0;
#X connect 16 0 22 0;
#X connect 16 0 65 1;
#X connect 16 0 109 0;
#X connect 17 0 20 0;
#X connect 18 0 20 0;
#X connect 19 0 20 0;
#X connect 20 0 26 0;
#X connect 20 0 66 1;
#X connect 20 0 110 0;
#X connect 21 0 17 0;
#X connect 21 1 19 0;
#X connect 22 0 100 0;
#X connect 22 0 121 0;
#X connect 23 0 99 0;
#X connect 23 0 120 0;
#X connect 24 0 98 0;
#X connect 24 0 119 0;
#X connect 25 0 97 0;
#X connect 25 0 118 0;
#X connect 26 0 101 0;
#X connect 26 0 122 0;
#X connect 27 0 4 0;
#X connect 28 0 27 0;
#X connect 29 0 111 0;
#X connect 31 0 41 0;
#X connect 33 0 129 0;
#X connect 34 0 33 0;
#X connect 35 0 33 0;
#X connect 36 0 34 0;
#X connect 36 1 35 0;
#X connect 37 0 32 0;
#X connect 38 0 37 1;
#X connect 39 0 37 2;
#X connect 40 0 37 3;
#X connect 41 0 32 1;
#X connect 42 0 52 0;
#X connect 44 0 133 0;
#X connect 45 0 44 0;
#X connect 46 0 44 0;
#X connect 47 0 45 0;
#X connect 47 1 46 0;
#X connect 48 0 43 0;
#X connect 49 0 48 1;
#X connect 50 0 48 2;
#X connect 51 0 48 3;
#X connect 52 0 43 1;
#X connect 53 0 134 0;
#X connect 54 0 53 0;
#X connect 55 0 63 0;
#X connect 56 0 64 0;
#X connect 57 0 58 0;
#X connect 58 0 90 0;
#X connect 59 0 60 0;
#X connect 60 0 89 0;
#X connect 61 0 57 0;
#X connect 62 0 59 0;
#X connect 63 0 61 0;
#X connect 64 0 62 0;
#X connect 65 0 73 0;
#X connect 66 0 74 0;
#X connect 67 0 68 0;
#X connect 68 0 88 0;
#X connect 69 0 70 0;
#X connect 70 0 86 0;
#X connect 71 0 67 0;
#X connect 72 0 69 0;
#X connect 73 0 71 0;
#X connect 74 0 72 0;
#X connect 75 0 79 0;
#X connect 76 0 77 0;
#X connect 77 0 91 0;
#X connect 78 0 76 0;
#X connect 79 0 78 0;
#X connect 80 0 115 0;
#X connect 81 0 114 0;
#X connect 82 0 113 0;
#X connect 83 0 112 0;
#X connect 84 0 43 0;
#X connect 85 0 32 0;
#X connect 92 0 91 0;
#X connect 93 0 90 0;
#X connect 94 0 89 0;
#X connect 95 0 88 0;
#X connect 96 0 86 0;
#X connect 97 0 92 0;
#X connect 98 0 93 0;
#X connect 99 0 94 0;
#X connect 100 0 95 0;
#X connect 101 0 96 0;
#X connect 102 0 48 0;
#X connect 104 0 103 1;
#X connect 105 0 102 1;
#X connect 106 0 81 0;
#X connect 107 0 80 0;
#X connect 108 0 82 0;
#X connect 109 0 83 0;
#X connect 110 0 29 0;
#X connect 116 0 132 0;
#X connect 117 0 37 0;
#X connect 123 0 75 0;
#X connect 124 0 55 0;
#X connect 125 0 56 0;
#X connect 126 0 65 0;
#X connect 127 0 66 0;
#X connect 128 0 54 0;
#X connect 129 0 103 0;
#X connect 130 0 36 0;
#X connect 131 0 47 0;
#X connect 132 0 117 1;
#X connect 133 0 102 0;
#X connect 134 0 133 1;
#X connect 135 0 0 0;
#X connect 135 1 136 0;
#X connect 136 0 6 0;
#X connect 136 0 1 0;
#X connect 136 1 2 0;
#X connect 136 1 137 0;
#X connect 137 0 5 0;
#X connect 137 0 11 0;
#X connect 137 1 9 0;
#X connect 137 1 138 0;
#X connect 138 0 7 0;
#X connect 138 0 14 0;
#X connect 138 1 12 0;
#X connect 138 1 139 0;
#X connect 139 0 13 0;
#X connect 139 0 18 0;
#X connect 139 1 15 0;
#X connect 139 1 21 0;
#X coords 0 -1 1 1 40 85 2 300 200;
#X restore 3 207 pd yaxisswitches;
#N canvas 404 167 450 412 z 0;
#X text 272 56 chnl#16;
#X obj 126 42 moses 127;
#X obj 177 93 - 127;
#X floatatom 216 135 5 0 0 0 - - -;
#X obj 178 184 t b b;
#X obj 178 227 f;
#X obj 178 249 + 1;
#X obj 177 116 sel 129;
#X obj 123 103 tgl 15 0 empty empty empty 17 7 0 10 -262144 -1 -1 0
1;
#X obj 123 123 * 127;
#X floatatom 176 135 5 0 0 0 - - -;
#X msg 204 207 1;
#X obj 103 103 bng 15 250 50 0 empty empty empty 17 7 0 10 -262144
-1 -1;
#X obj 122 150 outlet;
#X obj 178 163 delay 500;
#X obj 126 21 inlet zflip in;
#X obj 126 65 s moseszflip;
#X connect 1 0 16 0;
#X connect 1 1 2 0;
#X connect 2 0 7 0;
#X connect 4 0 5 0;
#X connect 4 1 11 0;
#X connect 5 0 6 0;
#X connect 6 0 12 0;
#X connect 7 0 10 0;
#X connect 7 0 14 0;
#X connect 7 1 3 0;
#X connect 8 0 9 0;
#X connect 9 0 13 0;
#X connect 11 0 5 1;
#X connect 12 0 8 0;
#X connect 14 0 4 0;
#X connect 15 0 1 0;
#X coords 0 -1 1 1 40 20 2 100 100;
#X restore 67 292 pd z flip switch;
#X obj 326 165 r moseszflip;
#X obj 17 31 s \$0-gcut;
#X obj 84 8 r preset;
#X obj 84 30 s \$0-preset0;
#X obj 406 417 r \$0-gx1;
#X obj 460 418 r \$0-gy1;
#X obj 515 416 r \$0-gx2;
#X obj 571 417 r \$0-gy1;
#X obj 631 417 r \$0-gx3;
#X obj 686 417 r \$0-gy1;
#X obj 405 357 r \$0-gx1;
#X obj 460 357 r \$0-gy2;
#X obj 519 356 r \$0-gx2;
#X obj 574 356 r \$0-gy2;
#X obj 628 356 r \$0-gx3;
#X obj 683 356 r \$0-gy2;
#X obj 406 297 r \$0-gx1;
#X obj 404 236 r \$0-gx1;
#X obj 407 166 r \$0-gx1;
#X obj 515 295 r \$0-gx2;
#X obj 513 234 r \$0-gx2;
#X obj 516 164 r \$0-gx2;
#X obj 627 296 r \$0-gx3;
#X obj 625 235 r \$0-gx3;
#X obj 628 165 r \$0-gx3;
#X obj 461 297 r \$0-gy3;
#X obj 570 295 r \$0-gy3;
#X obj 682 296 r \$0-gy3;
#X obj 680 235 r \$0-gy4;
#X obj 568 234 r \$0-gy4;
#X obj 459 236 r \$0-gy4;
#X obj 462 166 r \$0-gy5;
#X obj 571 164 r \$0-gy5;
#X obj 683 165 r \$0-gy5;
#X obj 206 504 s \$0-gx1;
#X obj 265 505 s \$0-gx2;
#X obj 325 506 s \$0-gx3;
#X obj 245 237 s \$0-gy1;
#X obj 246 215 s \$0-gy2;
#X obj 247 195 s \$0-gy3;
#X obj 247 174 s \$0-gy4;
#X obj 249 152 s \$0-gy5;
#X obj 409 460 s \$0-1-1;
#X obj 518 462 s \$0-2-1;
#X obj 650 461 s \$0-3-1;
#X obj 426 400 s \$0-1-2;
#X obj 426 338 s \$0-1-3;
#X obj 426 279 s \$0-1-4;
#X obj 426 218 s \$0-1-5;
#X obj 539 398 s \$0-2-2;
#X obj 536 338 s \$0-2-3;
#X obj 533 276 s \$0-2-4;
#X obj 533 214 s \$0-2-5;
#X obj 650 398 s \$0-3-2;
#X obj 646 338 s \$0-3-3;
#X obj 647 278 s \$0-3-4;
#X obj 648 216 s \$0-3-5;
#N canvas 724 299 642 469 grid 0;
#X restore 149 5 pd grid parameters;
#N canvas 0 0 450 300 2bangs 0;
#X obj 158 67 == 1;
#X obj 203 69 == 1;
#X obj 205 98 t b f;
#X obj 189 129 +;
#X floatatom 189 154 5 0 0 0 - - -;
#X obj 190 177 sel 2 1 0;
#X msg 219 214 0;
#X msg 252 216 0;
#X msg 184 214 1;
#X obj 159 36 inlet;
#X obj 208 39 inlet;
#X obj 185 250 outlet;
#X obj 302 253 tgl 15 0 empty empty empty 17 7 0 10 -262144 -1 -1 0
1;
#X connect 0 0 3 0;
#X connect 1 0 2 0;
#X connect 2 0 3 0;
#X connect 2 1 3 1;
#X connect 3 0 4 0;
#X connect 4 0 5 0;
#X connect 5 0 8 0;
#X connect 5 1 6 0;
#X connect 5 2 7 0;
#X connect 6 0 11 0;
#X connect 6 0 12 0;
#X connect 7 0 11 0;
#X connect 7 0 12 0;
#X connect 8 0 11 0;
#X connect 8 0 12 0;
#X connect 9 0 0 0;
#X connect 10 0 1 0;
#X coords 0 -1 1 1 20 20 1 300 250;
#X restore 407 437 pd 2bangs;
#N canvas 0 0 450 300 2bangs 0;
#X obj 158 67 == 1;
#X obj 203 69 == 1;
#X obj 205 98 t b f;
#X obj 189 129 +;
#X floatatom 189 154 5 0 0 0 - - -;
#X obj 190 177 sel 2 1 0;
#X msg 219 214 0;
#X msg 252 216 0;
#X msg 184 214 1;
#X obj 159 36 inlet;
#X obj 208 39 inlet;
#X obj 185 250 outlet;
#X obj 302 253 tgl 15 0 empty empty empty 17 7 0 10 -262144 -1 -1 0
1;
#X connect 0 0 3 0;
#X connect 1 0 2 0;
#X connect 2 0 3 0;
#X connect 2 1 3 1;
#X connect 3 0 4 0;
#X connect 4 0 5 0;
#X connect 5 0 8 0;
#X connect 5 1 6 0;
#X connect 5 2 7 0;
#X connect 6 0 11 0;
#X connect 6 0 12 0;
#X connect 7 0 11 0;
#X connect 7 0 12 0;
#X connect 8 0 11 0;
#X connect 8 0 12 0;
#X connect 9 0 0 0;
#X connect 10 0 1 0;
#X coords 0 -1 1 1 20 20 1 300 250;
#X restore 515 439 pd 2bangs;
#N canvas 0 0 450 300 2bangs 0;
#X obj 158 67 == 1;
#X obj 203 69 == 1;
#X obj 205 98 t b f;
#X obj 189 129 +;
#X floatatom 189 154 5 0 0 0 - - -;
#X obj 190 177 sel 2 1 0;
#X msg 219 214 0;
#X msg 252 216 0;
#X msg 184 214 1;
#X obj 159 36 inlet;
#X obj 208 39 inlet;
#X obj 185 250 outlet;
#X obj 302 253 tgl 15 0 empty empty empty 17 7 0 10 -262144 -1 -1 0
1;
#X connect 0 0 3 0;
#X connect 1 0 2 0;
#X connect 2 0 3 0;
#X connect 2 1 3 1;
#X connect 3 0 4 0;
#X connect 4 0 5 0;
#X connect 5 0 8 0;
#X connect 5 1 6 0;
#X connect 5 2 7 0;
#X connect 6 0 11 0;
#X connect 6 0 12 0;
#X connect 7 0 11 0;
#X connect 7 0 12 0;
#X connect 8 0 11 0;
#X connect 8 0 12 0;
#X connect 9 0 0 0;
#X connect 10 0 1 0;
#X coords 0 -1 1 1 20 20 1 300 250;
#X restore 631 439 pd 2bangs;
#N canvas 0 0 450 300 2bangs 0;
#X obj 158 67 == 1;
#X obj 203 69 == 1;
#X obj 205 98 t b f;
#X obj 189 129 +;
#X floatatom 189 154 5 0 0 0 - - -;
#X obj 190 177 sel 2 1 0;
#X msg 219 214 0;
#X msg 252 216 0;
#X msg 184 214 1;
#X obj 159 36 inlet;
#X obj 208 39 inlet;
#X obj 185 250 outlet;
#X obj 302 253 tgl 15 0 empty empty empty 17 7 0 10 -262144 -1 -1 0
1;
#X connect 0 0 3 0;
#X connect 1 0 2 0;
#X connect 2 0 3 0;
#X connect 2 1 3 1;
#X connect 3 0 4 0;
#X connect 4 0 5 0;
#X connect 5 0 8 0;
#X connect 5 1 6 0;
#X connect 5 2 7 0;
#X connect 6 0 11 0;
#X connect 6 0 12 0;
#X connect 7 0 11 0;
#X connect 7 0 12 0;
#X connect 8 0 11 0;
#X connect 8 0 12 0;
#X connect 9 0 0 0;
#X connect 10 0 1 0;
#X coords 0 -1 1 1 20 20 1 300 250;
#X restore 406 377 pd 2bangs;
#N canvas 0 0 450 300 2bangs 0;
#X obj 158 67 == 1;
#X obj 203 69 == 1;
#X obj 205 98 t b f;
#X obj 189 129 +;
#X floatatom 189 154 5 0 0 0 - - -;
#X obj 190 177 sel 2 1 0;
#X msg 219 214 0;
#X msg 252 216 0;
#X msg 184 214 1;
#X obj 159 36 inlet;
#X obj 208 39 inlet;
#X obj 185 250 outlet;
#X obj 302 253 tgl 15 0 empty empty empty 17 7 0 10 -262144 -1 -1 1
1;
#X connect 0 0 3 0;
#X connect 1 0 2 0;
#X connect 2 0 3 0;
#X connect 2 1 3 1;
#X connect 3 0 4 0;
#X connect 4 0 5 0;
#X connect 5 0 8 0;
#X connect 5 1 6 0;
#X connect 5 2 7 0;
#X connect 6 0 11 0;
#X connect 6 0 12 0;
#X connect 7 0 11 0;
#X connect 7 0 12 0;
#X connect 8 0 11 0;
#X connect 8 0 12 0;
#X connect 9 0 0 0;
#X connect 10 0 1 0;
#X coords 0 -1 1 1 20 20 1 300 250;
#X restore 517 377 pd 2bangs;
#N canvas 0 0 450 300 2bangs 0;
#X obj 158 67 == 1;
#X obj 203 69 == 1;
#X obj 205 98 t b f;
#X obj 189 129 +;
#X floatatom 189 154 5 0 0 0 - - -;
#X obj 190 177 sel 2 1 0;
#X msg 219 214 0;
#X msg 252 216 0;
#X msg 184 214 1;
#X obj 159 36 inlet;
#X obj 208 39 inlet;
#X obj 185 250 outlet;
#X obj 302 253 tgl 15 0 empty empty empty 17 7 0 10 -262144 -1 -1 0
1;
#X connect 0 0 3 0;
#X connect 1 0 2 0;
#X connect 2 0 3 0;
#X connect 2 1 3 1;
#X connect 3 0 4 0;
#X connect 4 0 5 0;
#X connect 5 0 8 0;
#X connect 5 1 6 0;
#X connect 5 2 7 0;
#X connect 6 0 11 0;
#X connect 6 0 12 0;
#X connect 7 0 11 0;
#X connect 7 0 12 0;
#X connect 8 0 11 0;
#X connect 8 0 12 0;
#X connect 9 0 0 0;
#X connect 10 0 1 0;
#X coords 0 -1 1 1 20 20 1 300 250;
#X restore 630 379 pd 2bangs;
#N canvas 0 0 450 300 2bangs 0;
#X obj 158 67 == 1;
#X obj 203 69 == 1;
#X obj 205 98 t b f;
#X obj 189 129 +;
#X floatatom 189 154 5 0 0 0 - - -;
#X obj 190 177 sel 2 1 0;
#X msg 219 214 0;
#X msg 252 216 0;
#X msg 184 214 1;
#X obj 159 36 inlet;
#X obj 208 39 inlet;
#X obj 185 250 outlet;
#X obj 302 253 tgl 15 0 empty empty empty 17 7 0 10 -262144 -1 -1 0
1;
#X connect 0 0 3 0;
#X connect 1 0 2 0;
#X connect 2 0 3 0;
#X connect 2 1 3 1;
#X connect 3 0 4 0;
#X connect 4 0 5 0;
#X connect 5 0 8 0;
#X connect 5 1 6 0;
#X connect 5 2 7 0;
#X connect 6 0 11 0;
#X connect 6 0 12 0;
#X connect 7 0 11 0;
#X connect 7 0 12 0;
#X connect 8 0 11 0;
#X connect 8 0 12 0;
#X connect 9 0 0 0;
#X connect 10 0 1 0;
#X coords 0 -1 1 1 20 20 1 300 250;
#X restore 411 315 pd 2bangs;
#N canvas 429 295 450 300 2bangs 0;
#X obj 158 67 == 1;
#X obj 203 69 == 1;
#X obj 205 98 t b f;
#X obj 189 129 +;
#X floatatom 189 154 5 0 0 0 - - -;
#X obj 190 177 sel 2 1 0;
#X msg 219 214 0;
#X msg 252 216 0;
#X msg 184 214 1;
#X obj 159 36 inlet;
#X obj 208 39 inlet;
#X obj 185 250 outlet;
#X obj 302 253 tgl 15 0 empty empty empty 17 7 0 10 -262144 -1 -1 0
1;
#X obj 294 105 tgl 15 0 empty empty empty 17 7 0 10 -262144 -1 -1 0
1;
#X obj 96 59 tgl 15 0 empty empty empty 17 7 0 10 -262144 -1 -1 0 1
;
#X connect 0 0 3 0;
#X connect 1 0 2 0;
#X connect 2 0 3 0;
#X connect 2 1 3 1;
#X connect 3 0 4 0;
#X connect 4 0 5 0;
#X connect 5 0 8 0;
#X connect 5 1 6 0;
#X connect 5 2 7 0;
#X connect 6 0 11 0;
#X connect 6 0 12 0;
#X connect 7 0 11 0;
#X connect 7 0 12 0;
#X connect 8 0 11 0;
#X connect 8 0 12 0;
#X connect 9 0 0 0;
#X connect 10 0 1 0;
#X connect 13 0 1 0;
#X connect 14 0 0 0;
#X coords 0 -1 1 1 20 20 1 300 250;
#X restore 517 316 pd 2bangs;
#N canvas 0 0 450 300 2bangs 0;
#X obj 158 67 == 1;
#X obj 203 69 == 1;
#X obj 205 98 t b f;
#X obj 189 129 +;
#X floatatom 189 154 5 0 0 0 - - -;
#X obj 190 177 sel 2 1 0;
#X msg 219 214 0;
#X msg 252 216 0;
#X msg 184 214 1;
#X obj 159 36 inlet;
#X obj 208 39 inlet;
#X obj 185 250 outlet;
#X obj 302 253 tgl 15 0 empty empty empty 17 7 0 10 -262144 -1 -1 0
1;
#X connect 0 0 3 0;
#X connect 1 0 2 0;
#X connect 2 0 3 0;
#X connect 2 1 3 1;
#X connect 3 0 4 0;
#X connect 4 0 5 0;
#X connect 5 0 8 0;
#X connect 5 1 6 0;
#X connect 5 2 7 0;
#X connect 6 0 11 0;
#X connect 6 0 12 0;
#X connect 7 0 11 0;
#X connect 7 0 12 0;
#X connect 8 0 11 0;
#X connect 8 0 12 0;
#X connect 9 0 0 0;
#X connect 10 0 1 0;
#X coords 0 -1 1 1 20 20 1 300 250;
#X restore 633 316 pd 2bangs;
#N canvas 0 0 450 300 2bangs 0;
#X obj 158 67 == 1;
#X obj 203 69 == 1;
#X obj 205 98 t b f;
#X obj 189 129 +;
#X floatatom 189 154 5 0 0 0 - - -;
#X obj 190 177 sel 2 1 0;
#X msg 219 214 0;
#X msg 252 216 0;
#X msg 184 214 1;
#X obj 159 36 inlet;
#X obj 208 39 inlet;
#X obj 185 250 outlet;
#X obj 302 253 tgl 15 0 empty empty empty 17 7 0 10 -262144 -1 -1 0
1;
#X connect 0 0 3 0;
#X connect 1 0 2 0;
#X connect 2 0 3 0;
#X connect 2 1 3 1;
#X connect 3 0 4 0;
#X connect 4 0 5 0;
#X connect 5 0 8 0;
#X connect 5 1 6 0;
#X connect 5 2 7 0;
#X connect 6 0 11 0;
#X connect 6 0 12 0;
#X connect 7 0 11 0;
#X connect 7 0 12 0;
#X connect 8 0 11 0;
#X connect 8 0 12 0;
#X connect 9 0 0 0;
#X connect 10 0 1 0;
#X coords 0 -1 1 1 20 20 1 300 250;
#X restore 406 255 pd 2bangs;
#N canvas 0 0 450 300 2bangs 0;
#X obj 158 67 == 1;
#X obj 203 69 == 1;
#X obj 205 98 t b f;
#X obj 189 129 +;
#X floatatom 189 154 5 0 0 0 - - -;
#X obj 190 177 sel 2 1 0;
#X msg 219 214 0;
#X msg 252 216 0;
#X msg 184 214 1;
#X obj 159 36 inlet;
#X obj 208 39 inlet;
#X obj 185 250 outlet;
#X obj 302 253 tgl 15 0 empty empty empty 17 7 0 10 -262144 -1 -1 0
1;
#X connect 0 0 3 0;
#X connect 1 0 2 0;
#X connect 2 0 3 0;
#X connect 2 1 3 1;
#X connect 3 0 4 0;
#X connect 4 0 5 0;
#X connect 5 0 8 0;
#X connect 5 1 6 0;
#X connect 5 2 7 0;
#X connect 6 0 11 0;
#X connect 6 0 12 0;
#X connect 7 0 11 0;
#X connect 7 0 12 0;
#X connect 8 0 11 0;
#X connect 8 0 12 0;
#X connect 9 0 0 0;
#X connect 10 0 1 0;
#X coords 0 -1 1 1 20 20 1 300 250;
#X restore 514 257 pd 2bangs;
#N canvas 0 0 450 300 2bangs 0;
#X obj 158 67 == 1;
#X obj 203 69 == 1;
#X obj 205 98 t b f;
#X obj 189 129 +;
#X floatatom 189 154 5 0 0 0 - - -;
#X obj 190 177 sel 2 1 0;
#X msg 219 214 0;
#X msg 252 216 0;
#X msg 184 214 1;
#X obj 159 36 inlet;
#X obj 208 39 inlet;
#X obj 185 250 outlet;
#X obj 302 253 tgl 15 0 empty empty empty 17 7 0 10 -262144 -1 -1 0
1;
#X connect 0 0 3 0;
#X connect 1 0 2 0;
#X connect 2 0 3 0;
#X connect 2 1 3 1;
#X connect 3 0 4 0;
#X connect 4 0 5 0;
#X connect 5 0 8 0;
#X connect 5 1 6 0;
#X connect 5 2 7 0;
#X connect 6 0 11 0;
#X connect 6 0 12 0;
#X connect 7 0 11 0;
#X connect 7 0 12 0;
#X connect 8 0 11 0;
#X connect 8 0 12 0;
#X connect 9 0 0 0;
#X connect 10 0 1 0;
#X coords 0 -1 1 1 20 20 1 300 250;
#X restore 630 257 pd 2bangs;
#N canvas 0 0 450 300 2bangs 0;
#X obj 158 67 == 1;
#X obj 203 69 == 1;
#X obj 205 98 t b f;
#X obj 189 129 +;
#X floatatom 189 154 5 0 0 0 - - -;
#X obj 190 177 sel 2 1 0;
#X msg 219 214 0;
#X msg 252 216 0;
#X msg 184 214 1;
#X obj 159 36 inlet;
#X obj 208 39 inlet;
#X obj 185 250 outlet;
#X obj 302 253 tgl 15 0 empty empty empty 17 7 0 10 -262144 -1 -1 0
1;
#X connect 0 0 3 0;
#X connect 1 0 2 0;
#X connect 2 0 3 0;
#X connect 2 1 3 1;
#X connect 3 0 4 0;
#X connect 4 0 5 0;
#X connect 5 0 8 0;
#X connect 5 1 6 0;
#X connect 5 2 7 0;
#X connect 6 0 11 0;
#X connect 6 0 12 0;
#X connect 7 0 11 0;
#X connect 7 0 12 0;
#X connect 8 0 11 0;
#X connect 8 0 12 0;
#X connect 9 0 0 0;
#X connect 10 0 1 0;
#X coords 0 -1 1 1 20 20 1 300 250;
#X restore 412 189 pd 2bangs;
#N canvas 0 0 450 300 2bangs 0;
#X obj 158 67 == 1;
#X obj 203 69 == 1;
#X obj 205 98 t b f;
#X obj 189 129 +;
#X floatatom 189 154 5 0 0 0 - - -;
#X obj 190 177 sel 2 1 0;
#X msg 219 214 0;
#X msg 252 216 0;
#X msg 184 214 1;
#X obj 159 36 inlet;
#X obj 208 39 inlet;
#X obj 185 250 outlet;
#X obj 302 253 tgl 15 0 empty empty empty 17 7 0 10 -262144 -1 -1 0
1;
#X connect 0 0 3 0;
#X connect 1 0 2 0;
#X connect 2 0 3 0;
#X connect 2 1 3 1;
#X connect 3 0 4 0;
#X connect 4 0 5 0;
#X connect 5 0 8 0;
#X connect 5 1 6 0;
#X connect 5 2 7 0;
#X connect 6 0 11 0;
#X connect 6 0 12 0;
#X connect 7 0 11 0;
#X connect 7 0 12 0;
#X connect 8 0 11 0;
#X connect 8 0 12 0;
#X connect 9 0 0 0;
#X connect 10 0 1 0;
#X coords 0 -1 1 1 20 20 1 300 250;
#X restore 520 191 pd 2bangs;
#N canvas 0 0 450 300 2bangs 0;
#X obj 158 67 == 1;
#X obj 203 69 == 1;
#X obj 205 98 t b f;
#X obj 189 129 +;
#X floatatom 189 154 5 0 0 0 - - -;
#X obj 190 177 sel 2 1 0;
#X msg 219 214 0;
#X msg 252 216 0;
#X msg 184 214 1;
#X obj 159 36 inlet;
#X obj 208 39 inlet;
#X obj 185 250 outlet;
#X obj 302 253 tgl 15 0 empty empty empty 17 7 0 10 -262144 -1 -1 0
1;
#X connect 0 0 3 0;
#X connect 1 0 2 0;
#X connect 2 0 3 0;
#X connect 2 1 3 1;
#X connect 3 0 4 0;
#X connect 4 0 5 0;
#X connect 5 0 8 0;
#X connect 5 1 6 0;
#X connect 5 2 7 0;
#X connect 6 0 11 0;
#X connect 6 0 12 0;
#X connect 7 0 11 0;
#X connect 7 0 12 0;
#X connect 8 0 11 0;
#X connect 8 0 12 0;
#X connect 9 0 0 0;
#X connect 10 0 1 0;
#X coords 0 -1 1 1 20 20 1 300 250;
#X restore 636 191 pd 2bangs;
#X obj 35 355 r \$0-gx;
#X obj 38 412 hsl 128 15 0 127 0 0 empty empty empty -2 -8 0 10 -262144
-1 -1 0 1;
#X obj 34 336 r \$0-gy;
#X obj 18 357 vsl 15 128 0 127 0 0 empty empty empty 0 -9 0 10 -262144
-1 -1 0 1;
#N canvas 0 0 684 417 grid 0;
#X obj 36 281 r \$0-1-1;
#X obj 36 220 r \$0-1-2;
#X obj 36 158 r \$0-1-3;
#X obj 36 99 r \$0-1-4;
#X obj 36 38 r \$0-1-5;
#X obj 143 34 r \$0-2-5;
#X obj 143 96 r \$0-2-4;
#X obj 146 158 r \$0-2-3;
#X obj 149 218 r \$0-2-2;
#X obj 147 280 r \$0-2-1;
#X obj 260 281 r \$0-3-1;
#X obj 260 218 r \$0-3-2;
#X obj 256 158 r \$0-3-3;
#X obj 257 98 r \$0-3-4;
#X obj 258 36 r \$0-3-5;
#X restore 269 6 pd grid vizandtext;
#X obj 201 346 s \$0-grx;
#X obj 262 344 s \$0-gry;
#X obj 320 345 s \$0-grz;
#X obj 394 7 r fkey;
#X obj 394 28 s \$0-fkey;
#X obj 209 367 s \$1xx;
#X obj 265 367 s \$1xy;
#X obj 322 368 s \$1xz;
#X obj 36 92 r xlrmtr1;
#X obj 35 115 spigot;
#X obj 34 139 spigot;
#X obj 127 77 tgl 15 0 empty empty empty 17 7 0 10 -262144 -1 -1 1
1;
#X obj 13 74 tgl 15 0 empty empty empty 17 7 0 10 -262144 -1 -1 0 1
;
#N canvas 676 38 686 688 accelerometer 1;
#X text 106 146 Accelerometer;
#X obj 80 51 unpack f f f;
#X obj 80 27 inlet;
#X obj 352 256 outlet;
#N canvas 0 0 303 384 rangex 0;
#X obj 106 72 clip 36 96;
#X floatatom 107 102 5 0 0 0 - - -;
#X obj 107 124 - 36;
#X floatatom 108 151 5 0 0 0 - - -;
#X floatatom 109 224 5 0 0 0 - - -;
#X obj 109 196 int;
#X obj 108 176 * 2.2;
#X obj 109 247 clip 0 127;
#X floatatom 112 280 5 0 0 0 - - -;
#X text 146 100 range multiplier;
#X obj 107 40 inlet;
#X obj 115 317 outlet;
#X connect 0 0 1 0;
#X connect 1 0 2 0;
#X connect 2 0 3 0;
#X connect 3 0 6 0;
#X connect 4 0 7 0;
#X connect 5 0 4 0;
#X connect 6 0 5 0;
#X connect 7 0 8 0;
#X connect 8 0 11 0;
#X connect 10 0 0 0;
#X restore 50 164 pd rangex;
#N canvas 0 0 303 384 rangex 0;
#X obj 106 72 clip 36 96;
#X floatatom 107 102 5 0 0 0 - - -;
#X obj 107 124 - 36;
#X floatatom 108 151 5 0 0 0 - - -;
#X floatatom 109 224 5 0 0 0 - - -;
#X obj 109 196 int;
#X obj 108 176 * 2.2;
#X obj 109 247 clip 0 127;
#X floatatom 112 280 5 0 0 0 - - -;
#X text 146 100 range multiplier;
#X obj 107 40 inlet;
#X obj 115 317 outlet;
#X connect 0 0 1 0;
#X connect 1 0 2 0;
#X connect 2 0 3 0;
#X connect 3 0 6 0;
#X connect 4 0 7 0;
#X connect 5 0 4 0;
#X connect 6 0 5 0;
#X connect 7 0 8 0;
#X connect 8 0 11 0;
#X connect 10 0 0 0;
#X restore 113 168 pd rangex;
#N canvas 0 0 303 384 rangex 0;
#X obj 106 72 clip 36 96;
#X floatatom 107 102 5 0 0 0 - - -;
#X obj 107 124 - 36;
#X floatatom 108 151 5 0 0 0 - - -;
#X floatatom 109 224 5 0 0 0 - - -;
#X obj 109 196 int;
#X obj 108 176 * 2.2;
#X obj 109 247 clip 0 127;
#X floatatom 112 280 5 0 0 0 - - -;
#X text 146 100 range multiplier;
#X obj 107 40 inlet;
#X obj 115 317 outlet;
#X connect 0 0 1 0;
#X connect 1 0 2 0;
#X connect 2 0 3 0;
#X connect 3 0 6 0;
#X connect 4 0 7 0;
#X connect 5 0 4 0;
#X connect 6 0 5 0;
#X connect 7 0 8 0;
#X connect 8 0 11 0;
#X connect 10 0 0 0;
#X restore 177 169 pd rangex;
#X obj 53 126 * 127;
#X obj 104 127 * 127;
#X obj 151 127 * 127;
#X floatatom 242 108 5 0 0 0 - - -;
#N canvas 503 226 821 444 xaxis 0;
#X floatatom 138 151 5 0 0 0 - - -;
#X obj 124 -2 inlet;
#X obj 127 304 outlet;
#N canvas 0 0 450 300 (subpatch) 0;
#X array \$0-xaxis 127 float 1;
#A 0 0.957146 0.94286 0.928574 0.900003 0.900003 0.900003 0.871431
0.871431 0.828574 0.785717 0.771431 0.757146 0.728574 0.714288 0.714288
0.685717 0.671431 0.671431 0.635717 0.614288 0.600002 0.585717 0.571431
0.557145 0.557145 0.542859 0.528574 0.485716 0.457145 0.442859 0.414288
0.400002 0.37143 0.357145 0.342859 0.328573 0.314287 0.314287 0.27143
0.257144 0.257144 0.257144 0.242859 0.228573 0.214287 0.200001 0.185716
0.17143 0.142858 0.142858 0.114287 0.100001 0.0714296 0.0714296 0.0428581
0.0428581 0.0142878 0.00714498 2.11783e-006 -0.0142836 -0.0142836 -0.0285693
-0.042855 -0.042855 -0.042855 -0.0571408 -0.0857122 -0.0857122 -0.114284
-0.128569 -0.142855 -0.171426 -0.171426 -0.185712 -0.192855 -0.199998
-0.214284 -0.214284 -0.257141 -0.285712 -0.257141 -0.285712 -0.299998
-0.314284 -0.328569 -0.342855 -0.385712 -0.399998 -0.42857 -0.442855
-0.457141 -0.485712 -0.499998 -0.514284 -0.514284 -0.542855 -0.557141
-0.571427 -0.571427 -0.578569 -0.585712 -0.599998 -0.642855 -0.657141
-0.657141 -0.685713 -0.685713 -0.699998 -0.714284 -0.721427 -0.72857
-0.735713 -0.742855 -0.752379 -0.761903 -0.799998 -0.799998 -0.842856
-0.842856 -0.871427 -0.871427 -0.885713 -0.92857 -0.942856 -0.942856
-0.971427 -0.985713;
#X coords 0 1 126 -1 200 140 1;
#X restore 407 49 graph;
#X obj 124 36 * 127;
#X floatatom 206 45 5 0 0 0 - - -;
#X obj 125 280 average 5;
#X floatatom 214 73 5 0 0 0 - - -;
#X obj 191 73 int;
#X obj 191 228 int;
#X floatatom 267 160 5 0 0 0 - - -;
#X floatatom 249 224 5 0 0 0 - - -;
#X obj 187 131 * 127;
#X obj 188 154 + 60;
#X obj 186 110 tabread \$0-xaxis;
#X connect 1 0 5 0;
#X connect 1 0 6 0;
#X connect 1 0 0 0;
#X connect 6 0 2 0;
#X connect 8 0 7 0;
#X connect 8 0 14 0;
#X connect 10 0 14 0;
#X connect 12 0 13 0;
#X connect 13 0 9 0;
#X connect 13 0 11 0;
#X connect 14 0 12 0;
#X restore 39 204 pd xaxis calibration;
#N canvas 503 226 821 444 yaxis 1;
#X floatatom 147 75 5 0 0 0 - - -;
#X obj 124 -2 inlet;
#X obj 124 75 int;
#X obj 127 304 outlet;
#N canvas 0 0 450 300 (subpatch) 0;
#X array \$0-yaxis 127 float 1;
#A 0 -1.02857 -1.02857 -1.02857 -1.02857 -1.02857 -1.02857 -1.01429
-1.01429 -1.01429 -1.01429 -1 -1 -1 -1 -1 -1 -1.00714 -1.01429 -1.01429
-1.02857 -1.02857 -1.02857 -1.04286 -1.04286 -1.05714 -1.05714 -1.05714
-1.05714 -1.05714 -1.05714 -1.04286 -1.04286 -1.02857 -1.02857 -1.01429
-1.01429 -1.01429 -0.957142 -0.914285 -0.899999 -0.871428 -0.842856
-0.821428 -0.771428 -0.742856 -0.699999 -0.642856 -0.62857 -0.499999
-0.457141 -0.471427 -0.385713 -0.342855 -0.314284 -0.271427 -0.242855
-0.22857 -0.22857 -0.214284 -0.214284 -0.185712 -0.0857123 0.0142878
0.0428592 0.0857164 0.142859 0.157145 0.185717 0.200002 0.200002 0.228574
0.228574 0.242859 0.257145 0.314288 0.34286 0.44286 0.471431 0.514289
0.528574 0.600002 0.685717 0.700003 0.785717 0.871432 0.957146 1 1.01429
1.04286 1.05715 1.07143 1.07143 1.07143 1.01429 1.05715 1.05715 1.05715
1.05715 1.07143 1.07143 1.07143 1.08572 1.08572 1.08572 1.1 1.1 1.1
1.1 1.1 1.1 1.1 1.1 1.1 1.1 1.1 1.1 1.1 1.1 1.1 1.07143 1.07143 1.08572
1.08572 1.08572 1.08572 1.08572 1.02858;
#X coords 0 1 126 -1 200 140 1;
#X restore 421 122 graph;
#X obj 123 273 average 5;
#X floatatom 217 243 5 0 0 0 - - -;
#X obj 217 223 int;
#X floatatom 293 155 5 0 0 0 - - -;
#X floatatom 275 219 5 0 0 0 - - -;
#X obj 213 126 * 127;
#X obj 214 149 + 60;
#X obj 212 105 tabread \$0-yaxis;
#X obj 118 180 -;
#X msg 100 152 127 \$1;
#X connect 1 0 2 0;
#X connect 2 0 0 0;
#X connect 2 0 14 0;
#X connect 5 0 3 0;
#X connect 7 0 6 0;
#X connect 8 0 12 0;
#X connect 10 0 11 0;
#X connect 11 0 7 0;
#X connect 11 0 9 0;
#X connect 12 0 10 0;
#X connect 13 0 5 0;
#X connect 14 0 13 0;
#X restore 180 210 pd yaxis calibration;
#X msg 451 372 goto \$1 \$2;
#X obj 451 353 pack 1 1;
#X obj 43 250 outlet;
#X obj 184 253 outlet;
#X connect 1 0 7 0;
#X connect 1 1 8 0;
#X connect 1 2 9 0;
#X connect 1 2 10 0;
#X connect 2 0 1 0;
#X connect 6 0 3 0;
#X connect 7 0 11 0;
#X connect 8 0 5 0;
#X connect 8 0 12 0;
#X connect 9 0 6 0;
#X connect 11 0 15 0;
#X connect 12 0 16 0;
#X connect 14 0 13 0;
#X restore 7 183 pd accelerometer;
#X obj 6 514 outlet x;
#X obj 66 514 outlet y;
#X obj 125 515 outlet z;
#X obj 127 57 inlet pgm;
#X obj 586 554 outlet x;
#X obj 653 552 outlet y;
#X obj 712 553 outlet z;
#X obj 768 554 outlet x;
#X obj 517 555 outlet 2-1;
#X obj 1001 488 r \$0-gx1;
#X obj 1060 489 r \$0-gx2;
#X obj 1120 490 r \$0-gx3;
#X obj 311 448 s \$0-yaxis;
#X obj 982 441 r \$0-yaxis;
#X obj 970 575 outlet gx1;
#X obj 1098 576 outlet gx2;
#X obj 1227 578 outlet gx3;
#X obj 72 213 vsl 8 60 0 127 0 0 empty empty empty 0 -9 0 10 -262144
-1 -1 1803 1;
#X obj 46 282 hsl 60 8 0 127 0 0 empty empty empty -2 -8 0 10 -262144
-1 -1 3448 1;
#X obj 226 60 inlet frange_latch;
#X obj 34 160 spigot;
#X obj 229 82 tgl 15 0 empty empty empty 17 7 0 10 -262144 -1 -1 0
0.00685039;
#X obj 13 55 inlet parakey;
#X obj 128 166 tgl 15 0 empty empty empty 17 7 0 10 -262144 -1 -1 0
1;
#X obj 87 135 > 0.65;
#X connect 3 0 40 0;
#X connect 3 1 41 0;
#X connect 3 2 42 0;
#X connect 4 0 43 0;
#X connect 4 0 106 0;
#X connect 4 1 44 0;
#X connect 4 1 102 0;
#X connect 4 2 45 0;
#X connect 4 2 103 0;
#X connect 4 3 46 0;
#X connect 4 3 104 0;
#X connect 4 4 47 0;
#X connect 4 4 105 0;
#X connect 5 0 91 0;
#X connect 5 0 100 0;
#X connect 6 0 2 0;
#X connect 6 0 86 0;
#X connect 6 0 91 0;
#X connect 8 0 9 0;
#X connect 10 0 64 0;
#X connect 11 0 64 1;
#X connect 12 0 65 0;
#X connect 13 0 65 1;
#X connect 14 0 66 0;
#X connect 15 0 66 1;
#X connect 16 0 67 0;
#X connect 17 0 67 1;
#X connect 18 0 68 0;
#X connect 19 0 68 1;
#X connect 20 0 69 0;
#X connect 21 0 69 1;
#X connect 22 0 70 0;
#X connect 23 0 73 0;
#X connect 24 0 76 0;
#X connect 25 0 71 0;
#X connect 26 0 74 0;
#X connect 27 0 77 0;
#X connect 28 0 72 0;
#X connect 29 0 75 0;
#X connect 30 0 78 0;
#X connect 31 0 70 1;
#X connect 32 0 71 1;
#X connect 33 0 72 1;
#X connect 34 0 75 1;
#X connect 35 0 74 1;
#X connect 36 0 73 1;
#X connect 37 0 76 1;
#X connect 38 0 77 1;
#X connect 39 0 78 1;
#X connect 64 0 48 0;
#X connect 65 0 49 0;
#X connect 66 0 50 0;
#X connect 67 0 51 0;
#X connect 68 0 55 0;
#X connect 69 0 59 0;
#X connect 70 0 52 0;
#X connect 71 0 56 0;
#X connect 72 0 60 0;
#X connect 73 0 53 0;
#X connect 74 0 57 0;
#X connect 75 0 61 0;
#X connect 76 0 54 0;
#X connect 77 0 58 0;
#X connect 78 0 62 0;
#X connect 79 0 80 0;
#X connect 81 0 82 0;
#X connect 87 0 88 0;
#X connect 92 0 93 0;
#X connect 93 0 94 0;
#X connect 94 0 118 0;
#X connect 97 0 116 0;
#X connect 97 1 115 0;
#X connect 97 2 5 0;
#X connect 101 0 93 1;
#X connect 101 0 95 0;
#X connect 107 0 112 0;
#X connect 108 0 113 0;
#X connect 109 0 114 0;
#X connect 115 0 4 0;
#X connect 115 0 85 0;
#X connect 115 0 90 0;
#X connect 115 0 1 0;
#X connect 115 0 110 0;
#X connect 115 0 99 0;
#X connect 116 0 89 0;
#X connect 116 0 98 0;
#X connect 116 0 40 0;
#X connect 116 0 0 0;
#X connect 116 0 3 0;
#X connect 117 0 119 0;
#X connect 117 0 122 0;
#X connect 118 0 97 0;
#X connect 120 0 94 1;
#X connect 120 0 96 0;
#X connect 122 0 118 1;
#X connect 122 0 121 0;
#X coords 0 -1 1 1 150 110 1 0 205;
