#N canvas 874 326 450 300 10;
#X obj 22 123 rpole~;
#X obj 22 98 rzero_rev~;
#X obj 22 172 rpole~;
#X obj 22 147 rzero_rev~;
#X obj 22 220 rpole~;
#X obj 22 195 rzero_rev~;
#X obj 22 269 rpole~;
#X obj 22 244 rzero_rev~;
#X obj -1 299 +~;
#X obj 177 247 expr~ 1 - 0.03 - 0.6*abs($v1-0.5)*abs($v1-0.5);
#X obj 0 69 inlet~;
#X obj 5 325 outlet~;
#X obj 193 166 sig~;
#X floatatom 244 169 5 0 0 0 - - -;
#X obj 177 215 phasor~ 0.7;
#X floatatom 300 166 5 0 0 0 - - -;
#X obj 190 139 / 50;
#X obj 180 109 r yaxisr;
#X connect 0 0 3 0;
#X connect 1 0 0 0;
#X connect 2 0 5 0;
#X connect 3 0 2 0;
#X connect 4 0 7 0;
#X connect 5 0 4 0;
#X connect 6 0 8 1;
#X connect 7 0 6 0;
#X connect 8 0 11 0;
#X connect 9 0 1 1;
#X connect 9 0 0 1;
#X connect 9 0 3 1;
#X connect 9 0 2 1;
#X connect 9 0 5 1;
#X connect 9 0 4 1;
#X connect 9 0 7 1;
#X connect 9 0 6 1;
#X connect 10 0 8 0;
#X connect 10 0 1 0;
#X connect 12 0 14 0;
#X connect 14 0 9 0;
#X connect 15 0 14 1;
#X connect 16 0 13 0;
#X connect 16 0 12 0;
#X connect 17 0 16 0;
#X coords 0 0 1 1 30 60 0;
