#N canvas 247 103 1362 722 10;
#X obj 195 568 outlet~;
#X obj 1239 135 gesturenode;
#X obj 757 378 gesturenode-r;
#X floatatom 698 108 5 0 0 0 - - -;
#X obj 1206 254 s \$0-n1x;
#X obj 1256 276 s \$0-n1y;
#X obj 1287 254 s \$0-n1z;
#X obj 1149 254 s \$0-n2z;
#X obj 1105 274 s \$0-n2y;
#X obj 1062 255 s \$0-n2x;
#X obj 1003 254 s \$0-n3z;
#X obj 967 278 s \$0-n3y;
#X obj 919 255 s \$0-n3x;
#X obj 860 257 s \$0-n4z;
#X obj 809 275 s \$0-n4y;
#X obj 768 255 s \$0-n4x;
#X obj 860 505 s \$0-n5z;
#X obj 814 523 s \$0-n5y;
#X obj 771 504 s \$0-n5x;
#X obj 1013 504 s \$0-n6z;
#X obj 925 504 s \$0-n6x;
#X obj 1155 501 s \$0-n7z;
#X obj 1113 523 s \$0-n7y;
#X obj 1069 504 s \$0-n7x;
#X obj 1304 502 s \$0-n8z;
#X obj 1256 527 s \$0-n8y;
#X obj 1217 504 s \$0-n8x;
#X text 891 59 n=node;
#X obj 645 107 s \$0-pgm;
#X obj 1022 59 r parakey;
#X obj 1239 105 == 1;
#X obj 825 101 r frange4;
#X obj 969 104 r frange3;
#X obj 1128 105 r frange2;
#X obj 1276 105 r frange1;
#X obj 792 102 == 4;
#X obj 936 105 == 3;
#X obj 1092 106 == 2;
#X obj 1042 287 r parakey;
#X obj 808 326 == 5;
#X obj 841 325 r frange5;
#X obj 953 327 == 6;
#X obj 986 326 r frange6;
#X obj 1083 331 == 7;
#X obj 1119 330 r frange7;
#X obj 1225 334 == 8;
#X obj 1262 334 r frange8;
#X obj 912 381 gesturenode-r;
#X obj 1066 381 gesturenode-r;
#X obj 1223 379 gesturenode-r;
#X obj 929 134 gesturenode;
#X obj 1083 134 gesturenode;
#X obj 773 132 gesturenode;
#X floatatom 752 510 5 0 0 0 - - -;
#X obj 969 524 s \$0-n6y;
#X obj 76 307 *~;
#X obj 223 309 *~;
#X obj 143 339 *~;
#X obj 132 391 +~;
#X obj 143 426 osc~ 5435;
#X obj 143 362 *~ 12000;
#X obj 16 270 osc~ 6221;
#X obj 241 268 osc~ 2441;
#X obj 221 361 noise~;
#X obj 173 454 +~;
#X obj 223 425 clip~ -0.7 0.7;
#X obj 173 480 *~;
#X obj 228 478 *~;
#X obj 150 233 ead~ 2 100;
#X obj 238 499 *~ 0.06;
#X obj 170 500 *~ 0.06;
#X obj 71 364 sig~ 7435;
#X obj 221 382 bp~ 12000 12;
#X obj 165 269 osc~ 3283;
#X obj 91 270 osc~ 4109;
#X obj 132 205 ead~ 2 200;
#X obj 238 227 sqrt~;
#X obj 239 203 ead~ 2 800;
#X obj 233 155 t f;
#X obj 233 180 sel 1;
#X obj 135 151 t f;
#X obj 134 171 sel 1;
#X obj 329 297 r breath;
#X obj 329 320 / 127;
#X obj 363 204 r xaxis;
#X floatatom 427 258 5 0 0 0 - - -;
#X floatatom 400 340 5 0 0 0 - - -;
#X obj 394 298 + 6221;
#X obj 443 294 + 4109;
#X obj 486 297 + 3283;
#X obj 531 296 + 2441;
#X floatatom 490 343 5 0 0 0 - - -;
#X floatatom 445 342 5 0 0 0 - - -;
#X floatatom 534 343 5 0 0 0 - - -;
#X obj 401 369 sig~;
#X obj 446 371 sig~;
#X obj 492 373 sig~;
#X obj 534 371 sig~;
#X obj 361 232 * 100;
#X obj 491 436 DIY2/perk-hihat /key;
#X obj 195 526 *~ 0.2;
#X obj 821 17 inlet pgm;
#X obj 686 34 spigot;
#X obj 598 12 inlet note;
#X obj 568 116 switch~;
#X obj 689 58 == 55;
#X connect 1 0 4 0;
#X connect 1 1 5 0;
#X connect 1 2 6 0;
#X connect 2 0 18 0;
#X connect 2 0 53 0;
#X connect 2 1 17 0;
#X connect 2 2 16 0;
#X connect 29 0 30 0;
#X connect 29 0 35 0;
#X connect 29 0 36 0;
#X connect 29 0 37 0;
#X connect 30 0 1 0;
#X connect 31 0 52 2;
#X connect 32 0 50 2;
#X connect 33 0 51 2;
#X connect 34 0 1 2;
#X connect 35 0 52 0;
#X connect 36 0 50 0;
#X connect 37 0 51 0;
#X connect 38 0 39 0;
#X connect 38 0 41 0;
#X connect 38 0 43 0;
#X connect 38 0 45 0;
#X connect 39 0 2 0;
#X connect 40 0 2 2;
#X connect 41 0 47 0;
#X connect 42 0 47 2;
#X connect 43 0 48 0;
#X connect 44 0 48 2;
#X connect 45 0 49 0;
#X connect 46 0 49 2;
#X connect 47 0 20 0;
#X connect 47 1 54 0;
#X connect 47 2 19 0;
#X connect 48 0 23 0;
#X connect 48 1 22 0;
#X connect 48 2 21 0;
#X connect 49 0 26 0;
#X connect 49 1 25 0;
#X connect 49 2 24 0;
#X connect 50 0 12 0;
#X connect 50 1 11 0;
#X connect 50 2 10 0;
#X connect 51 0 9 0;
#X connect 51 1 8 0;
#X connect 51 2 7 0;
#X connect 52 0 15 0;
#X connect 52 1 14 0;
#X connect 52 2 13 0;
#X connect 55 0 57 0;
#X connect 56 0 57 1;
#X connect 57 0 60 0;
#X connect 58 0 59 0;
#X connect 59 0 64 0;
#X connect 60 0 58 1;
#X connect 61 0 55 0;
#X connect 62 0 56 1;
#X connect 63 0 72 0;
#X connect 64 0 66 0;
#X connect 64 0 67 0;
#X connect 65 0 64 1;
#X connect 66 0 70 0;
#X connect 67 0 69 0;
#X connect 68 0 67 1;
#X connect 69 0 100 0;
#X connect 70 0 100 0;
#X connect 71 0 58 0;
#X connect 72 0 65 0;
#X connect 73 0 56 0;
#X connect 74 0 55 1;
#X connect 75 0 66 1;
#X connect 76 0 66 1;
#X connect 77 0 76 0;
#X connect 78 0 79 0;
#X connect 79 0 68 0;
#X connect 79 0 77 0;
#X connect 80 0 81 0;
#X connect 81 0 75 0;
#X connect 81 0 68 0;
#X connect 82 0 83 0;
#X connect 83 0 69 1;
#X connect 83 0 70 1;
#X connect 84 0 98 0;
#X connect 86 0 94 0;
#X connect 87 0 86 0;
#X connect 88 0 92 0;
#X connect 89 0 91 0;
#X connect 90 0 93 0;
#X connect 91 0 96 0;
#X connect 92 0 95 0;
#X connect 93 0 97 0;
#X connect 94 0 61 0;
#X connect 95 0 74 0;
#X connect 96 0 73 0;
#X connect 97 0 62 0;
#X connect 98 0 85 0;
#X connect 98 0 87 0;
#X connect 98 0 88 0;
#X connect 98 0 89 0;
#X connect 98 0 90 0;
#X connect 99 0 0 0;
#X connect 100 0 0 0;
#X connect 101 0 102 1;
#X connect 102 0 105 0;
#X connect 103 0 102 0;
#X connect 105 0 3 0;
#X connect 105 0 28 0;
#X connect 105 0 1 1;
#X connect 105 0 2 1;
#X connect 105 0 47 1;
#X connect 105 0 48 1;
#X connect 105 0 49 1;
#X connect 105 0 50 1;
#X connect 105 0 51 1;
#X connect 105 0 52 1;
#X connect 105 0 99 0;
#X connect 105 0 104 0;
#X connect 105 0 80 0;
#X connect 105 0 78 0;
