#N canvas 1753 27 1362 722 10;
#X obj -31 617 outlet~;
#X obj 971 194 gesturenode;
#X obj 507 439 gesturenode-r;
#X floatatom 710 114 5 0 0 0 - - -;
#X obj 938 313 s \$0-n1x;
#X obj 988 335 s \$0-n1y;
#X obj 1019 313 s \$0-n1z;
#X obj 881 313 s \$0-n2z;
#X obj 837 333 s \$0-n2y;
#X obj 794 314 s \$0-n2x;
#X obj 735 313 s \$0-n3z;
#X obj 699 337 s \$0-n3y;
#X obj 651 314 s \$0-n3x;
#X obj 592 316 s \$0-n4z;
#X obj 541 334 s \$0-n4y;
#X obj 500 314 s \$0-n4x;
#X obj 607 573 s \$0-n5z;
#X obj 561 591 s \$0-n5y;
#X obj 518 572 s \$0-n5x;
#X obj 760 572 s \$0-n6z;
#X obj 672 572 s \$0-n6x;
#X obj 902 569 s \$0-n7z;
#X obj 860 591 s \$0-n7y;
#X obj 816 572 s \$0-n7x;
#X obj 1051 570 s \$0-n8z;
#X obj 1003 595 s \$0-n8y;
#X obj 964 572 s \$0-n8x;
#X text 623 118 n=node;
#X obj 833 111 s \$0-n \$1 z;
#X obj 753 112 s \$0-pgm;
#X obj 1031 121 r parakey;
#X obj 971 164 == 1;
#X obj 557 160 r frange4;
#X obj 701 163 r frange3;
#X obj 860 164 r frange2;
#X obj 1008 164 r frange1;
#X obj 524 161 == 4;
#X obj 668 164 == 3;
#X obj 824 165 == 2;
#X obj 897 367 r parakey;
#X obj 558 387 == 5;
#X obj 591 386 r frange5;
#X obj 703 388 == 6;
#X obj 736 387 r frange6;
#X obj 833 392 == 7;
#X obj 869 391 r frange7;
#X obj 975 395 == 8;
#X obj 1012 395 r frange8;
#X obj 662 442 gesturenode-r;
#X obj 816 442 gesturenode-r;
#X obj 973 440 gesturenode-r;
#X obj 661 193 gesturenode;
#X obj 815 193 gesturenode;
#X obj 505 191 gesturenode;
#X obj 904 397;
#X floatatom 499 578 5 0 0 0 - - -;
#X obj 716 592 s \$0-n6y;
#X obj 246 324 sig~;
#X obj 299 141 bng 15 250 50 0 empty empty empty 17 7 0 10 -262144
-1 -1;
#X msg 289 174 1;
#X msg -90 60 0;
#X floatatom 320 74 5 0 0 0 - - -;
#X obj -140 69 r xaxis;
#X obj -103 88 r \$0-n1x;
#X obj 43 63 r xaxis;
#X obj 226 62 r xaxis;
#X obj 411 60 r xaxis;
#X obj -52 71 r yaxis;
#X obj 131 65 r yaxis;
#X obj 314 64 r yaxis;
#X obj 448 79 r \$0-n4x;
#X obj -15 90 r \$0-n1y;
#X obj 80 82 r \$0-n2x;
#X obj 168 84 r \$0-n2x;
#X obj 263 81 r \$0-n3x;
#X obj -140 108 centerer;
#X obj -92 110 centerer;
#X obj -41 112 centerer;
#X obj 7 113 centerer;
#X obj 54 113 centerer;
#X obj 101 113 centerer;
#X obj 149 113 centerer;
#X obj 351 83 r \$0-n3y;
#X obj -36 575 +~;
#X obj -75 328 DIY2/perk-bassdrum /key;
#X obj -75 241 r \$0-n1x;
#X obj -17 240 r \$0-n1y;
#X obj -23 261 r \$0-n2x;
#X obj 35 260 r \$0-n2y;
#X obj -7 283 r \$0-n3x;
#X obj 53 283 r \$0-n3y;
#X obj 64 302 r \$0-n4x;
#X floatatom -76 274 5 0 0 0 - - -;
#X obj 292 350 osc~ 200;
#X obj 292 381 *~;
#X obj 358 351 sqrt~;
#X obj 291 293 *~ 15;
#X obj 291 317 +~ 70;
#X obj 291 239 ead~ 2 800;
#X obj 292 266 *~;
#X obj 292 197 t f;
#X obj 291 217 sel 1;
#X obj 326 385 r breath;
#X obj 326 415 / 127;
#X obj 353 207 r \$0-n2x;
#X obj 412 286 r xaxis;
#X floatatom 360 266 5 0 0 0 - - -;
#X obj 415 244 * 10;
#X floatatom 366 240 5 0 0 0 - - -;
#X floatatom 440 405 5 0 0 0 - - -;
#X obj 404 371 * 2;
#X obj 406 343 r xaxis;
#X obj 431 219 r yaxis;
#X msg 447 486 2;
#X obj 435 436 sel 0 1;
#X msg 418 484 0;
#X obj 420 519 sig~;
#X obj 293 478 *~;
#X obj 420 544 lop~ 20;
#X obj 360 438 sig~;
#X obj 360 463 lop~ 20;
#X obj 293 439 *~;
#X obj 529 74 spigot;
#X obj 528 13 inlet note;
#X obj 466 144 switch~;
#X obj 564 40 tgl 15 0 empty empty empty 17 7 0 10 -262144 -1 -1 0
1;
#X obj 61 -4 tgl 15 0 empty empty empty 17 7 0 10 -262144 -1 -1 0 1
;
#X obj 672 14 tgl 15 0 empty empty empty 17 7 0 10 -262144 -1 -1 1
1;
#X obj 596 13 inlet pgmout;
#X obj 312 557 *~ 0.2;
#X obj 528 39 == 53;
#X connect 1 0 4 0;
#X connect 1 1 5 0;
#X connect 1 2 6 0;
#X connect 2 0 18 0;
#X connect 2 0 55 0;
#X connect 2 1 17 0;
#X connect 2 2 16 0;
#X connect 30 0 31 0;
#X connect 30 0 36 0;
#X connect 30 0 37 0;
#X connect 30 0 38 0;
#X connect 31 0 1 0;
#X connect 32 0 53 2;
#X connect 33 0 51 2;
#X connect 34 0 52 2;
#X connect 35 0 1 2;
#X connect 36 0 53 0;
#X connect 37 0 51 0;
#X connect 38 0 52 0;
#X connect 39 0 40 0;
#X connect 39 0 42 0;
#X connect 39 0 44 0;
#X connect 39 0 46 0;
#X connect 40 0 2 0;
#X connect 41 0 2 2;
#X connect 42 0 48 0;
#X connect 43 0 48 2;
#X connect 44 0 49 0;
#X connect 45 0 49 2;
#X connect 46 0 50 0;
#X connect 47 0 50 2;
#X connect 48 0 20 0;
#X connect 48 1 56 0;
#X connect 48 2 19 0;
#X connect 49 0 23 0;
#X connect 49 1 22 0;
#X connect 49 2 21 0;
#X connect 50 0 26 0;
#X connect 50 1 25 0;
#X connect 50 2 24 0;
#X connect 51 0 12 0;
#X connect 51 1 11 0;
#X connect 51 2 10 0;
#X connect 52 0 9 0;
#X connect 52 1 8 0;
#X connect 52 2 7 0;
#X connect 53 0 15 0;
#X connect 53 1 14 0;
#X connect 53 2 13 0;
#X connect 58 0 59 0;
#X connect 59 0 100 0;
#X connect 62 0 75 0;
#X connect 63 0 75 1;
#X connect 64 0 77 0;
#X connect 65 0 79 0;
#X connect 66 0 81 0;
#X connect 67 0 76 0;
#X connect 68 0 78 0;
#X connect 69 0 80 0;
#X connect 70 0 81 1;
#X connect 71 0 76 1;
#X connect 72 0 77 1;
#X connect 73 0 78 1;
#X connect 74 0 79 1;
#X connect 82 0 80 1;
#X connect 83 0 0 0;
#X connect 84 0 83 0;
#X connect 84 0 0 0;
#X connect 85 0 92 0;
#X connect 85 0 84 1;
#X connect 86 0 84 2;
#X connect 87 0 84 3;
#X connect 88 0 84 4;
#X connect 89 0 84 5;
#X connect 90 0 84 6;
#X connect 91 0 84 7;
#X connect 93 0 94 0;
#X connect 94 0 121 0;
#X connect 95 0 94 1;
#X connect 96 0 97 0;
#X connect 97 0 93 0;
#X connect 98 0 95 0;
#X connect 98 0 99 0;
#X connect 98 0 99 1;
#X connect 99 0 96 0;
#X connect 100 0 101 0;
#X connect 100 0 114 0;
#X connect 101 0 98 0;
#X connect 102 0 103 0;
#X connect 103 0 119 0;
#X connect 104 0 98 1;
#X connect 104 0 108 0;
#X connect 107 0 98 2;
#X connect 107 0 106 0;
#X connect 110 0 109 0;
#X connect 111 0 110 0;
#X connect 112 0 107 0;
#X connect 113 0 116 0;
#X connect 114 0 115 0;
#X connect 114 1 113 0;
#X connect 115 0 116 0;
#X connect 116 0 118 0;
#X connect 117 0 129 0;
#X connect 118 0 117 1;
#X connect 119 0 120 0;
#X connect 120 0 121 1;
#X connect 121 0 117 0;
#X connect 122 0 3 0;
#X connect 122 0 29 0;
#X connect 122 0 1 1;
#X connect 122 0 2 1;
#X connect 122 0 48 1;
#X connect 122 0 49 1;
#X connect 122 0 50 1;
#X connect 122 0 51 1;
#X connect 122 0 52 1;
#X connect 122 0 53 1;
#X connect 122 0 58 0;
#X connect 122 0 124 0;
#X connect 122 0 84 0;
#X connect 123 0 130 0;
#X connect 128 0 122 1;
#X connect 128 0 127 0;
#X connect 129 0 83 1;
#X connect 130 0 122 0;
#X connect 130 0 125 0;
