#N canvas 178 117 1366 726 10;
#X obj 102 101 cnv 15 345 58 empty empty empty 20 12 0 14 -258113 -66577
0;
#N canvas -8 -8 1680 1008 synth 1;
#N canvas 0 0 331 381 accent 0;
#X obj 48 193 sig~ 0.6;
#X obj 49 218 +~;
#X obj 122 143 line~;
#X obj 121 168 *~;
#X msg 125 89 1 1;
#X obj 228 90 r timeacc;
#X obj 163 115 pack 0 150;
#X obj 163 90 del 4;
#X obj 132 51 t b;
#X obj 30 137 inlet~;
#X obj 33 281 outlet~;
#X obj 132 19 inlet;
#X obj 121 193 *~ 0.6;
#X obj 32 244 *~ 1;
#X connect 0 0 1 0;
#X connect 2 0 3 0;
#X connect 2 0 3 1;
#X connect 3 0 12 0;
#X connect 4 0 2 0;
#X connect 5 0 6 1;
#X connect 6 0 2 0;
#X connect 7 0 6 0;
#X connect 8 0 4 0;
#X connect 8 0 7 0;
#X connect 9 0 13 0;
#X connect 11 0 8 0;
#X connect 12 0 1 1;
#X connect 13 0 10 0;
#X restore 1031 575 pd accent;
#X text 964 130 Warranty void if opened;
#X text 963 149 No user serviceable parts inside;
#X text 963 109 Risque de choc!;
#N canvas 659 176 236 174 bk 0;
#X obj 99 39 tgl 15 0 empty empty empty 17 7 0 10 -262144 -1 -1 0 3
;
#X obj 88 113 tgl 15 0 empty empty empty 17 7 0 10 -262144 -1 -1 0.596351
0.596351;
#X obj 62 44 * 3;
#X floatatom 27 51 5 0 0 0 - - -;
#X obj 59 9 inlet;
#X obj 91 164 outlet;
#X obj 70 155 bng 15 250 50 0 empty empty empty 17 7 0 10 -262144 -1
-1;
#X msg 90 137 1;
#X floatatom 38 119 5 0 0 0 - - -;
#X obj 44 84 threshold 3 0 3 0;
#X connect 1 0 7 0;
#X connect 2 0 0 0;
#X connect 2 0 3 0;
#X connect 2 0 9 0;
#X connect 4 0 2 0;
#X connect 7 0 5 0;
#X connect 9 0 1 0;
#X connect 9 0 8 0;
#X connect 9 1 1 0;
#X restore 885 164 pd bk;
#X obj 336 47 r hit;
#N canvas 287 226 754 405 effects 0;
#X obj 104 45 inlet~;
#X obj 100 352 outlet~;
#N canvas 0 0 450 300 distort 0;
#X obj 115 40 inlet~;
#X obj 115 163 outlet~;
#X obj 115 68 clip~ -0.2 0.2;
#X obj 115 90 *~ 30;
#X obj 115 114 clip~ -0.9 0.9;
#X obj 115 137 *~ 0.5;
#X connect 0 0 2 0;
#X connect 2 0 3 0;
#X connect 3 0 4 0;
#X connect 4 0 5 0;
#X connect 5 0 1 0;
#X restore 188 115 pd distort;
#X obj 187 64 unpack 1 2 3;
#X msg 192 30 1 0 0;
#X obj 189 92 *~;
#X obj 310 17 r effects;
#X obj 191 7 loadbang;
#X obj 284 92 *~;
#X obj 283 116 gdrumdelay;
#X floatatom 503 204 5 0 0 0 - - -;
#X obj 501 183 r \$0-n7x;
#X obj 453 207 gdel;
#X obj 640 191 r \$0-n8y;
#X obj 585 190 r \$0-n8x;
#N canvas 0 0 771 300 centerer 0;
#X floatatom 219 94 5 0 0 0 - - -;
#X obj 255 68 / 10;
#X obj 255 95 - 9;
#X floatatom 217 117 5 0 0 0 - - -;
#X floatatom 215 62 5 0 0 0 - - -;
#X floatatom 219 141 5 0 0 0 - - -;
#X obj 255 118 + 3;
#X floatatom 287 122 5 0 0 0 - - -;
#X floatatom 285 183 5 0 0 0 - - -;
#X obj 255 144 +;
#X obj 255 168 f;
#X text 490 10 centerer;
#X obj 256 46 inlet axis;
#X obj 356 48 inlet centerval;
#X obj 102 103 knob 32 32 0 127 0 0 empty empty empty 0 -8 0 8 -262144
-1 -1 0 1;
#X obj 108 109 knob 20 20 -5 5 0 0 empty empty empty 0 -8 0 8 -258113
-1 -1 1334 1;
#X text 7 14 this value will be the xlrmtr axis scaled to only be5-6
degrees around the center value coming from the second inlet;
#X text 353 65 this value will come from a gesture node value;
#X obj 255 207 outlet;
#X connect 1 0 0 0;
#X connect 1 0 2 0;
#X connect 2 0 3 0;
#X connect 2 0 6 0;
#X connect 6 0 5 0;
#X connect 6 0 9 0;
#X connect 7 0 9 1;
#X connect 9 0 10 0;
#X connect 10 0 8 0;
#X connect 10 0 18 0;
#X connect 10 0 15 0;
#X connect 12 0 1 0;
#X connect 12 0 4 0;
#X connect 13 0 9 1;
#X connect 13 0 14 0;
#X coords 0 -1 1 1 40 60 2 100 100;
#X restore 592 213 pd centerer;
#N canvas 0 0 771 300 centerer 0;
#X floatatom 219 94 5 0 0 0 - - -;
#X obj 255 68 / 10;
#X obj 255 95 - 9;
#X floatatom 217 117 5 0 0 0 - - -;
#X floatatom 215 62 5 0 0 0 - - -;
#X floatatom 219 141 5 0 0 0 - - -;
#X obj 255 118 + 3;
#X floatatom 287 122 5 0 0 0 - - -;
#X floatatom 285 183 5 0 0 0 - - -;
#X obj 255 144 +;
#X obj 255 168 f;
#X text 490 10 centerer;
#X obj 256 46 inlet axis;
#X obj 356 48 inlet centerval;
#X obj 102 103 knob 32 32 0 127 0 0 empty empty empty 0 -8 0 8 -262144
-1 -1 0 1;
#X obj 108 109 knob 20 20 -5 5 0 0 empty empty empty 0 -8 0 8 -258113
-1 -1 1246 1;
#X text 7 14 this value will be the xlrmtr axis scaled to only be5-6
degrees around the center value coming from the second inlet;
#X text 353 65 this value will come from a gesture node value;
#X obj 255 207 outlet;
#X connect 1 0 0 0;
#X connect 1 0 2 0;
#X connect 2 0 3 0;
#X connect 2 0 6 0;
#X connect 6 0 5 0;
#X connect 6 0 9 0;
#X connect 7 0 9 1;
#X connect 9 0 10 0;
#X connect 10 0 8 0;
#X connect 10 0 18 0;
#X connect 10 0 15 0;
#X connect 12 0 1 0;
#X connect 12 0 4 0;
#X connect 13 0 9 1;
#X connect 13 0 14 0;
#X coords 0 -1 1 1 40 40 2 100 100;
#X restore 636 212 pd centerer;
#X obj 586 171 r xaxisr;
#X obj 641 171 r yaxisr;
#X obj 453 242 gverb;
#X obj 101 211 mono-compressor /key;
#X connect 0 0 20 0;
#X connect 3 1 5 1;
#X connect 3 2 8 1;
#X connect 4 0 3 0;
#X connect 5 0 2 0;
#X connect 6 0 3 0;
#X connect 7 0 4 0;
#X connect 8 0 9 0;
#X connect 10 0 12 1;
#X connect 11 0 10 0;
#X connect 12 0 19 0;
#X connect 13 0 16 1;
#X connect 14 0 15 1;
#X connect 15 0 19 3;
#X connect 16 0 19 2;
#X connect 17 0 15 0;
#X connect 18 0 16 0;
#X connect 19 0 1 0;
#X connect 20 0 12 0;
#X connect 20 0 1 0;
#X restore 1031 595 pd effects;
#X obj 895 112 r breath;
#X obj 1035 671 throw~ drumout;
#X obj 662 36 tgl 15 0 empty empty empty 17 7 0 10 -262144 -1 -1 0
1;
#X obj 509 16 tgl 15 0 empty empty empty 17 7 0 10 -262144 -1 -1 0
1;
#X obj 796 4 tgl 15 0 empty empty empty 17 7 0 10 -262144 -1 -1 0 1
;
#X obj 946 70 tgl 15 0 empty empty empty 17 7 0 10 -262144 -1 -1 0
1;
#X obj 1061 649 clip~ -1 2;
#X obj 1034 623 *~ 7;
#N canvas 0 0 450 300 breath 0;
#X obj 167 28 r breath;
#X obj 168 64 / 127;
#X obj 173 97 sig~;
#X obj 172 138 lop~ 200;
#X obj 159 188 outlet~;
#X obj 251 173 outlet;
#X connect 0 0 1 0;
#X connect 1 0 2 0;
#X connect 1 0 5 0;
#X connect 2 0 3 0;
#X connect 3 0 4 0;
#X restore 110 -4 pd breath;
#X obj 686 81 == 56;
#X obj 478 42 r \$0-n1x;
#X obj 536 41 r \$0-n1y;
#X obj 530 62 r \$0-n2x;
#X obj 588 61 r \$0-n2y;
#X obj 546 84 r \$0-n3x;
#X obj 606 84 r \$0-n3y;
#X obj 617 103 r \$0-n4x;
#X floatatom 477 75 5 0 0 0 - - -;
#X obj 327 351 phasor~;
#N canvas 0 0 474 352 slave 0;
#X obj 125 129 *~;
#X obj 125 159 cos~;
#X obj 125 187 *~;
#X obj 206 166 dbtorms;
#X floatatom 205 105 10 0 0 0 - - -;
#X obj 208 124 hsl 70 13 0 100 0 0 empty empty empty -2 -8 0 10 -262144
-1 -1 0 1;
#X floatatom 206 143 5 0 0 0 - - -;
#X obj 124 211 throw~ sum;
#X obj 126 103 r~ sync;
#X connect 0 0 1 0;
#X connect 1 0 2 0;
#X connect 2 0 7 0;
#X connect 3 0 2 1;
#X connect 4 0 0 1;
#X connect 5 0 6 0;
#X connect 6 0 3 0;
#X connect 8 0 0 0;
#X coords 0 -1 1 1 85 60 2 200 100;
#X restore 37 488 pd slave;
#X obj 654 152 catch~ sum;
#X obj 326 376 s~ sync;
#X obj -38 504 cos~;
#X obj -39 532 throw~ sum;
#X obj -39 479 r~ sync;
#X obj 652 256 *~;
#X obj 748 151 r~ envelope;
#X obj 652 321 *~;
#X obj 705 269 hsl 128 15 0 127 0 0 empty empty empty -2 -8 0 10 -262144
-1 -1 9800 1;
#X obj 703 290 dbtorms;
#X obj 564 274 vline~;
#N canvas 0 0 474 352 slave 0;
#X obj 125 129 *~;
#X obj 125 159 cos~;
#X obj 125 187 *~;
#X obj 206 166 dbtorms;
#X floatatom 205 105 10 0 0 0 - - -;
#X obj 208 124 hsl 70 13 0 100 0 0 empty empty empty -2 -8 0 10 -262144
-1 -1 0 1;
#X floatatom 206 143 5 0 0 0 - - -;
#X obj 124 211 throw~ sum;
#X obj 126 103 r~ sync;
#X connect 0 0 1 0;
#X connect 1 0 2 0;
#X connect 2 0 7 0;
#X connect 3 0 2 1;
#X connect 4 0 0 1;
#X connect 5 0 6 0;
#X connect 6 0 3 0;
#X connect 8 0 0 0;
#X coords 0 -1 1 1 85 60 2 200 100;
#X restore 127 488 pd slave;
#N canvas 0 0 474 352 slave 0;
#X obj 125 129 *~;
#X obj 125 159 cos~;
#X obj 125 187 *~;
#X obj 206 166 dbtorms;
#X floatatom 205 105 10 0 0 0 - - -;
#X obj 208 124 hsl 70 13 0 100 0 0 empty empty empty -2 -8 0 10 -262144
-1 -1 0 1;
#X floatatom 206 143 5 0 0 0 - - -;
#X obj 124 211 throw~ sum;
#X obj 126 103 r~ sync;
#X connect 0 0 1 0;
#X connect 1 0 2 0;
#X connect 2 0 7 0;
#X connect 3 0 2 1;
#X connect 4 0 0 1;
#X connect 5 0 6 0;
#X connect 6 0 3 0;
#X connect 8 0 0 0;
#X coords 0 -1 1 1 85 60 2 200 100;
#X restore 217 488 pd slave;
#N canvas 0 0 474 352 slave 0;
#X obj 125 129 *~;
#X obj 125 159 cos~;
#X obj 125 187 *~;
#X obj 206 166 dbtorms;
#X floatatom 205 105 10 0 0 0 - - -;
#X obj 208 124 hsl 70 13 0 100 0 0 empty empty empty -2 -8 0 10 -262144
-1 -1 0 1;
#X floatatom 206 143 5 0 0 0 - - -;
#X obj 124 211 throw~ sum;
#X obj 126 103 r~ sync;
#X connect 0 0 1 0;
#X connect 1 0 2 0;
#X connect 2 0 7 0;
#X connect 3 0 2 1;
#X connect 4 0 0 1;
#X connect 5 0 6 0;
#X connect 6 0 3 0;
#X connect 8 0 0 0;
#X coords 0 -1 1 1 85 60 2 200 100;
#X restore 307 488 pd slave;
#N canvas 0 0 474 352 slave 0;
#X obj 125 129 *~;
#X obj 125 159 cos~;
#X obj 125 187 *~;
#X obj 206 166 dbtorms;
#X floatatom 205 105 10 0 0 0 - - -;
#X obj 208 124 hsl 70 13 0 100 0 0 empty empty empty -2 -8 0 10 -262144
-1 -1 0 1;
#X floatatom 206 143 5 0 0 0 - - -;
#X obj 124 211 throw~ sum;
#X obj 126 103 r~ sync;
#X connect 0 0 1 0;
#X connect 1 0 2 0;
#X connect 2 0 7 0;
#X connect 3 0 2 1;
#X connect 4 0 0 1;
#X connect 5 0 6 0;
#X connect 6 0 3 0;
#X connect 8 0 0 0;
#X coords 0 -1 1 1 85 60 2 200 100;
#X restore 397 488 pd slave;
#N canvas 0 0 474 352 slave 0;
#X obj 125 129 *~;
#X obj 125 159 cos~;
#X obj 125 187 *~;
#X obj 206 166 dbtorms;
#X floatatom 205 105 10 0 0 0 - - -;
#X obj 208 124 hsl 70 13 0 100 0 0 empty empty empty -2 -8 0 10 -262144
-1 -1 0 1;
#X floatatom 206 143 5 0 0 0 - - -;
#X obj 124 211 throw~ sum;
#X obj 126 103 r~ sync;
#X connect 0 0 1 0;
#X connect 1 0 2 0;
#X connect 2 0 7 0;
#X connect 3 0 2 1;
#X connect 4 0 0 1;
#X connect 5 0 6 0;
#X connect 6 0 3 0;
#X connect 8 0 0 0;
#X coords 0 -1 1 1 85 60 2 200 100;
#X restore 487 488 pd slave;
#N canvas 0 0 906 466 (subpatch) 0;
#X obj 136 84 r~ sync;
#X obj 135 112 *~ 5.0397;
#X obj 135 368 throw~ sum;
#X obj 225 84 phasor~ 58.3722;
#X obj 224 116 cos~;
#X obj 224 180 *~;
#X obj 366 223 dbtorms;
#X obj 82 331 s~ feed;
#X obj 336 36 r~ feed;
#X obj 336 88 *~;
#X obj 424 222 dbtorms;
#X obj 570 26 table saw;
#X msg 488 53 \; saw sinesum 1024 -1 -0.5 -0.333333 -0.25 -0.2 -0.166667
-0.142857 -0.125 \; saw normalize 1;
#X obj 488 27 loadbang;
#X obj 135 302 tabread4~ saw;
#X obj 136 265 *~ 1024;
#X obj 135 284 +~ 1;
#X obj 136 243 wrap~;
#X obj 422 106 vsl 15 100 0 100 0 0 empty empty empty 0 -9 0 10 -262144
-1 -1 0 1;
#X obj 403 106 vsl 15 100 0 100 0 0 empty empty empty 0 -9 0 10 -262144
-1 -1 0 1;
#X obj 480 223 dbtorms;
#X obj 136 338 *~;
#X text 406 113 f;
#X text 407 176 1;
#X text 406 122 e;
#X text 407 132 e;
#X text 407 142 d;
#X text 407 153 t;
#X text 407 164 o;
#X text 427 164 o;
#X text 427 176 2;
#X obj 440 106 vsl 15 100 0 100 0 0 empty empty empty 0 -9 0 10 -262144
-1 -1 0 1;
#X text 444 118 o;
#X text 444 130 u;
#X text 444 144 t;
#X text 425 113 f;
#X text 425 122 e;
#X text 426 132 e;
#X text 426 142 d;
#X text 426 153 t;
#X connect 0 0 1 0;
#X connect 1 0 17 0;
#X connect 3 0 4 0;
#X connect 4 0 5 0;
#X connect 5 0 17 0;
#X connect 6 0 5 1;
#X connect 8 0 9 0;
#X connect 9 0 4 0;
#X connect 10 0 9 1;
#X connect 13 0 12 0;
#X connect 14 0 7 0;
#X connect 14 0 21 0;
#X connect 15 0 16 0;
#X connect 16 0 14 0;
#X connect 17 0 15 0;
#X connect 18 0 10 0;
#X connect 19 0 6 0;
#X connect 20 0 21 1;
#X connect 21 0 2 0;
#X connect 31 0 20 0;
#X coords 0 -1 1 1 60 111 2 400 100;
#X restore 38 564 pd;
#X obj 93 302 s~ envelope;
#X obj 93 275 vline~;
#X obj 345 150 r~ envelope;
#X obj 18 248 s gate-on;
#X floatatom 755 293 5 0 0 0 - - -;
#X floatatom 365 298 5 0 0 0 - - -;
#X obj 449 255 r gate-on;
#X msg 39 457 1.8598;
#X msg 129 457 1.8877;
#X msg 217 457 2.7208;
#X msg 309 453 5.1057;
#X msg 395 451 3.64;
#X msg 502 456 4.5041;
#X obj 18 152 tgl 15 0 empty empty empty 17 7 0 10 -262144 -1 -1 0
1;
#X floatatom 70 158 5 0 0 0 - - -;
#X obj 18 178 metro 430;
#X obj 326 323 *~ 49;
#X obj 325 261 pow~;
#X obj 303 217 sig~ 2;
#X obj 346 240 *~;
#X floatatom 422 218 5 0 0 0 - - -;
#X obj 747 215 cos~;
#X obj 748 173 *~ 0.25;
#X obj 748 193 -~ 0.25;
#X obj 422 192 / 12;
#X floatatom 422 169 5 0 0 0 - - -;
#X obj 18 199 t b;
#X obj 564 189 r gate-on;
#X obj 652 481 -~;
#X obj 697 451 hip~ 135;
#N canvas 576 390 450 300 delwrite 0;
#X obj 146 40 inlet~;
#X obj 145 65 delwrite~ delay 1000;
#X obj 144 123 outlet~;
#X connect 0 0 1 0;
#X restore 697 388 pd delwrite;
#N canvas 0 0 450 300 delread 0;
#X obj 226 76 inlet~;
#X obj 216 241 outlet~;
#X obj 331 79 inlet;
#X obj 255 152 delread~ delay 0.025;
#X connect 2 0 3 0;
#X connect 3 0 1 0;
#X restore 696 415 pd delread;
#X floatatom 778 390 5 0 0 0 - - -;
#X floatatom 774 430 5 0 0 0 - - -;
#X floatatom 523 189 5 0 1 0 - - -;
#X obj 565 217 f 1;
#X obj 449 292 f 0;
#X floatatom 478 287 5 0 1 0 - - -;
#X msg 95 249 1 0.5 \, 0 186 0.5;
#X text 366 283 base-pitch;
#X text 422 147 sweep (semitones);
#X text 522 169 click level;
#X msg 564 240 \$1 \, 0 0 1;
#X text 149 428 --- partials 1-6 : times base pitch \, level (dB) ---
;
#X text 476 302 start phase;
#X obj 648 527 hip~ 5;
#X text 117 584 <-two op fm with feedback;
#X text 817 672 slp@2010;
#X obj 205 229 r noteval;
#X floatatom 224 288 5 0 0 0 - - -;
#X obj 890 142 > 0;
#X connect 0 0 6 0;
#X connect 6 0 14 0;
#X connect 7 0 0 1;
#X connect 7 0 94 0;
#X connect 14 0 8 0;
#X connect 17 0 24 0;
#X connect 25 0 28 0;
#X connect 27 0 32 0;
#X connect 29 0 30 0;
#X connect 31 0 29 0;
#X connect 32 0 34 0;
#X connect 33 0 66 0;
#X connect 34 0 72 0;
#X connect 34 0 74 0;
#X connect 35 0 36 0;
#X connect 35 0 48 0;
#X connect 36 0 34 1;
#X connect 37 0 34 0;
#X connect 45 0 44 0;
#X connect 46 0 63 0;
#X connect 50 0 80 0;
#X connect 57 0 59 0;
#X connect 58 0 59 1;
#X connect 59 0 70 0;
#X connect 60 0 25 0;
#X connect 61 0 60 0;
#X connect 62 0 61 0;
#X connect 63 0 61 1;
#X connect 64 0 63 1;
#X connect 65 0 32 1;
#X connect 66 0 67 0;
#X connect 67 0 65 0;
#X connect 68 0 64 0;
#X connect 69 0 68 0;
#X connect 70 0 47 0;
#X connect 70 0 82 0;
#X connect 71 0 79 0;
#X connect 72 0 89 0;
#X connect 73 0 72 1;
#X connect 74 0 75 0;
#X connect 75 0 73 0;
#X connect 76 0 75 1;
#X connect 77 0 73 1;
#X connect 78 0 79 1;
#X connect 79 0 86 0;
#X connect 80 0 25 1;
#X connect 81 0 80 1;
#X connect 82 0 45 0;
#X connect 86 0 37 0;
#X connect 89 0 14 0;
#X connect 92 0 60 1;
#X connect 92 0 93 0;
#X connect 94 0 4 0;
#X restore 618 143 pd synth;
#X obj 1063 162 inlet pgmout;
#X obj 934 234 gesturenode;
#X obj 620 519 gesturenode-r;
#X floatatom 806 428 5 0 0 0 - - -;
#X obj 901 353 s \$0-n1x;
#X obj 951 375 s \$0-n1y;
#X obj 982 353 s \$0-n1z;
#X obj 844 353 s \$0-n2z;
#X obj 800 373 s \$0-n2y;
#X obj 757 354 s \$0-n2x;
#X obj 698 353 s \$0-n3z;
#X obj 662 377 s \$0-n3y;
#X obj 614 354 s \$0-n3x;
#X obj 555 356 s \$0-n4z;
#X obj 504 374 s \$0-n4y;
#X obj 463 354 s \$0-n4x;
#X obj 720 653 s \$0-n5z;
#X obj 674 671 s \$0-n5y;
#X obj 631 652 s \$0-n5x;
#X obj 873 652 s \$0-n6z;
#X obj 785 652 s \$0-n6x;
#X obj 1015 649 s \$0-n7z;
#X obj 973 671 s \$0-n7y;
#X obj 929 652 s \$0-n7x;
#X obj 1164 650 s \$0-n8z;
#X obj 1116 675 s \$0-n8y;
#X obj 1077 652 s \$0-n8x;
#X text 719 432 n=node;
#X obj 929 425 s \$0-n \$1 z;
#X obj 849 426 s \$0-pgm;
#X text 889 143 assign to single unrelated vectors;
#X obj 994 161 r parakey;
#X obj 934 204 == 1;
#X obj 520 200 r frange4;
#X obj 664 203 r frange3;
#X obj 823 204 r frange2;
#X obj 971 204 r frange1;
#X obj 487 201 == 4;
#X obj 631 204 == 3;
#X obj 787 205 == 2;
#X obj 1010 447 r parakey;
#X obj 671 467 == 5;
#X obj 704 466 r frange5;
#X obj 816 468 == 6;
#X obj 849 467 r frange6;
#X obj 946 472 == 7;
#X obj 982 471 r frange7;
#X obj 1088 475 == 8;
#X obj 1125 475 r frange8;
#X obj 775 522 gesturenode-r;
#X obj 929 522 gesturenode-r;
#X obj 1086 520 gesturenode-r;
#X obj 624 233 gesturenode;
#X obj 778 233 gesturenode;
#X obj 468 231 gesturenode;
#X obj 1017 477;
#X floatatom 612 658 5 0 0 0 - - -;
#X obj 829 672 s \$0-n6y;
#X obj 822 83 centerer;
#X connect 2 0 5 0;
#X connect 2 0 31 0;
#X connect 2 0 3 1;
#X connect 2 0 4 1;
#X connect 2 0 51 1;
#X connect 2 0 52 1;
#X connect 2 0 53 1;
#X connect 2 0 54 1;
#X connect 2 0 55 1;
#X connect 2 0 56 1;
#X connect 3 0 6 0;
#X connect 3 1 7 0;
#X connect 3 2 8 0;
#X connect 4 0 20 0;
#X connect 4 0 58 0;
#X connect 4 1 19 0;
#X connect 4 2 18 0;
#X connect 33 0 34 0;
#X connect 33 0 39 0;
#X connect 33 0 40 0;
#X connect 33 0 41 0;
#X connect 34 0 3 0;
#X connect 35 0 56 2;
#X connect 36 0 54 2;
#X connect 37 0 55 2;
#X connect 38 0 3 2;
#X connect 39 0 56 0;
#X connect 40 0 54 0;
#X connect 41 0 55 0;
#X connect 42 0 43 0;
#X connect 42 0 45 0;
#X connect 42 0 47 0;
#X connect 42 0 49 0;
#X connect 43 0 4 0;
#X connect 44 0 4 2;
#X connect 45 0 51 0;
#X connect 46 0 51 2;
#X connect 47 0 52 0;
#X connect 48 0 52 2;
#X connect 49 0 53 0;
#X connect 50 0 53 2;
#X connect 51 0 22 0;
#X connect 51 1 59 0;
#X connect 51 2 21 0;
#X connect 52 0 25 0;
#X connect 52 1 24 0;
#X connect 52 2 23 0;
#X connect 53 0 28 0;
#X connect 53 1 27 0;
#X connect 53 2 26 0;
#X connect 54 0 14 0;
#X connect 54 1 13 0;
#X connect 54 2 12 0;
#X connect 55 0 11 0;
#X connect 55 1 10 0;
#X connect 55 2 9 0;
#X connect 56 0 17 0;
#X connect 56 1 16 0;
#X connect 56 2 15 0;
#X coords 0 -1 1 1 350 60 1 100 100;
