#N canvas 683 0 667 710 10;
#X obj 103 21 bng 15 250 50 0 empty empty empty 17 7 0 10 -262144 -1
-1;
#X obj 103 46 openpanel;
#N canvas 0 0 450 300 (subpatch) 0;
#X array source-array 76577 float 0;
#X coords 0 1 76576 -1 200 140 1;
#X restore 433 29 graph;
#N canvas 0 0 450 300 (subpatch) 0;
#X array grain-env 100 float 3;
#A 0 0 0 0 0 0 0 0 0 0 0 0 0 0 0 0 0 0 0 0 0 0 0 0 0 0 0 0 0 0 0 0
0 0 0 0 0 0 0 0 0 0 0 0 0 0 0 0 0 0 0 0 0 0 0 0 0 0 0 0 0 0 0 0 0 0
0 0 0 0 0 0 0 0 0 0 0 0 0 0 0 0 0 0 0 0 0 0 0 0 0 0 0 0 0 0 0 0 0 0
0;
#X coords 0 1 99 -1 200 140 1;
#X restore 433 184 graph;
#X msg 103 71 read -resize \$1 source-array;
#X obj 103 101 soundfiler;
#X obj 102 132 s filesize;
#X obj 99 166 loadbang;
#N canvas 0 0 450 300 make-grain-env 0;
#X restore 104 195 pd make-grain-env;
#X obj -2 329 s grainstart;
#X obj 111 322 s graindur;
#X obj 222 332 s grainpitch;
#X obj 365 329 s overlap;
#X obj 114 245 hsl 60 10 10 2000 0 0 empty empty empty -2 -8 0 10 -262144
-1 -1 2800 1;
#X floatatom 139 263 5 0 0 0 - - -;
#X obj -13 213 hsl 60 10 0 1 0 0 empty empty empty -2 -8 0 10 -262144
-1 -1 4000 1;
#X floatatom 12 231 5 0 0 0 - - -;
#X obj -12 252 t f b;
#X obj 15 278 f;
#X obj 32 253 r filesize;
#X obj -2 302 *;
#X obj 354 258 hsl 60 10 0 2 0 0 empty empty empty -2 -8 0 10 -262144
-1 -1 2100 1;
#X floatatom 379 276 5 0 0 0 - - -;
#X obj 241 245 hsl 60 10 0 2 0 0 empty empty empty -2 -8 0 10 -262144
-1 -1 4100 1;
#X floatatom 258 262 5 0 0 0 - - -;
#X obj 255 282 samplerate~;
#X obj 220 302 *;
#X obj 220 363 r graindur;
#X obj 220 385 / 2;
#X obj 251 386 r overlap;
#X obj 251 414 t b f;
#X obj 253 441 /;
#X obj 200 470 metro 100;
#X obj 197 446 tgl 15 0 empty empty empty 17 7 0 10 -262144 -1 -1 1
1;
#X obj 202 498 f;
#X obj 237 498 + 1;
#X obj 202 525 mod 4;
#X obj 203 557 t f b b;
#X obj 223 592 random 1000;
#X obj 242 617 random 200;
#X obj 244 638 / 1000;
#X obj 245 659 + 1;
#X obj 372 509 pack f f f;
#X obj 372 536 route 0 1 2 3;
#X msg 349 612 \$1 \$2 1;
#X obj 348 634 grainvoice;
#X msg 416 611 \$1 \$2 1;
#X obj 415 633 grainvoice;
#X msg 479 611 \$1 \$2 1;
#X obj 478 633 grainvoice;
#X msg 545 610 \$1 \$2 1;
#X obj 544 632 grainvoice;
#X obj 421 409 catch~ bus;
#X obj 442 448 rev3~ 95 90;
#X obj 417 478 dac~;
#X floatatom 152 555 5 0 0 0 - - -;
#X connect 0 0 1 0;
#X connect 1 0 4 0;
#X connect 4 0 5 0;
#X connect 5 0 6 0;
#X connect 7 0 25 0;
#X connect 13 0 14 0;
#X connect 13 0 10 0;
#X connect 15 0 16 0;
#X connect 15 0 17 0;
#X connect 17 0 20 0;
#X connect 17 1 18 0;
#X connect 18 0 20 1;
#X connect 19 0 18 1;
#X connect 20 0 9 0;
#X connect 21 0 22 0;
#X connect 21 0 12 0;
#X connect 23 0 24 0;
#X connect 23 0 26 0;
#X connect 25 0 26 1;
#X connect 26 0 11 0;
#X connect 27 0 28 0;
#X connect 28 0 31 0;
#X connect 29 0 30 0;
#X connect 30 0 31 0;
#X connect 30 1 31 1;
#X connect 31 0 32 1;
#X connect 32 0 34 0;
#X connect 33 0 32 0;
#X connect 34 0 35 0;
#X connect 34 0 36 0;
#X connect 35 0 34 1;
#X connect 36 0 37 0;
#X connect 36 0 55 0;
#X connect 37 0 42 0;
#X connect 37 1 38 0;
#X connect 37 2 39 0;
#X connect 38 0 42 1;
#X connect 39 0 40 0;
#X connect 40 0 41 0;
#X connect 41 0 42 2;
#X connect 42 0 43 0;
#X connect 43 0 44 0;
#X connect 43 1 46 0;
#X connect 43 2 48 0;
#X connect 43 3 50 0;
#X connect 44 0 45 0;
#X connect 46 0 47 0;
#X connect 48 0 49 0;
#X connect 50 0 51 0;
#X connect 52 0 53 0;
#X connect 52 0 54 1;
#X connect 52 0 54 0;
#X connect 53 0 54 0;
#X connect 53 1 54 1;
