#N canvas 0 0 1680 1004 10;
#N canvas 0 0 727 732 samplegrain 1;
#X obj 527 312 r chunk-size;
#X obj 531 339 sig~;
#X obj 507 365 *~;
#X obj 475 276 inlet~ phase;
#X obj 458 478 -~ 0.5;
#X obj 507 394 *~ 44100;
#X obj 506 477 +~;
#X obj 533 436 inlet~ position;
#X obj 505 501 tabread4~ source-array;
#X obj 458 504 *~ 0.5;
#X obj 459 540 cos~;
#X obj 458 583 *~;
#X obj 458 608 outlet~;
#X obj 563 363 samplerate~;
#X obj 582 336 loadbang;
#X connect 0 0 1 0;
#X connect 1 0 2 1;
#X connect 2 0 5 0;
#X connect 3 0 2 0;
#X connect 3 0 4 0;
#X connect 4 0 9 0;
#X connect 5 0 6 0;
#X connect 6 0 8 0;
#X connect 7 0 6 1;
#X connect 8 0 11 1;
#X connect 9 0 10 0;
#X connect 10 0 11 0;
#X connect 11 0 12 0;
#X connect 13 0 5 1;
#X connect 14 0 13 0;
#X restore 751 413 pd samplegrain;
#X obj 359 231 bng 15 250 50 0 empty empty empty 17 7 0 10 -262144
-1 -1;
#X obj 357 255 openpanel;
#X msg 357 284 read -resize \$1 source-array;
#X obj 356 310 soundfiler;
#X obj 356 335 s filesize;
#X obj 646 115 hsl 128 15 0 127 0 0 empty empty empty -2 -8 0 10 -262144
-1 -1 0 1;
#X floatatom 664 159 15 0 0 0 - - -;
#X obj 870 112 hsl 128 15 0 12 0 0 empty empty empty -2 -8 0 10 -262144
-1 -1 0 1;
#X floatatom 870 157 15 0 0 0 - - -;
#X obj 1055 111 hsl 128 15 0 2 0 0 empty empty empty -2 -8 0 10 -262144
-1 -1 0 1;
#X floatatom 1064 155 15 0 0 0 - - -;
#X obj 644 192 * 0.001;
#X obj 644 219 s chunk-size;
#X obj 891 177 r chunk-size;
#X obj 893 201 t b f;
#X obj 857 245 expr (pow(2 \, $f1/120)-$f3)/$f2;
#X obj 857 271 phasor~;
#X obj 889 309 +~ 0.5;
#X obj 892 342 wrap~;
#N canvas 68 112 748 699 samplegrain 0;
#X obj 527 312 r chunk-size;
#X obj 531 339 sig~;
#X obj 507 365 *~;
#X obj 475 276 inlet~ phase;
#X obj 458 478 -~ 0.5;
#X obj 507 394 *~ 44100;
#X obj 506 477 +~;
#X obj 533 436 inlet~ position;
#X obj 505 501 tabread4~ source-array;
#X obj 458 504 *~ 0.5;
#X obj 459 540 cos~;
#X obj 458 583 *~;
#X obj 458 608 outlet~;
#X obj 604 346 loadbang;
#X obj 605 373 samplerate~;
#X connect 0 0 1 0;
#X connect 1 0 2 1;
#X connect 2 0 5 0;
#X connect 3 0 2 0;
#X connect 3 0 4 0;
#X connect 4 0 9 0;
#X connect 5 0 6 0;
#X connect 6 0 8 0;
#X connect 7 0 6 1;
#X connect 8 0 11 1;
#X connect 9 0 10 0;
#X connect 10 0 11 0;
#X connect 11 0 12 0;
#X connect 13 0 14 0;
#X connect 14 0 5 1;
#X restore 915 406 pd samplegrain;
#X obj 838 382 r~ position;
#X obj 995 373 r~ position;
#X obj 837 479 +~;
#X obj 838 502 hip~;
#X obj 838 528 *~ 0.2;
#X obj 1045 177 s speed;
#X obj 1040 201 t b f;
#X msg 1249 156 bang;
#X obj 1248 268 f;
#X obj 1289 153 r filesize;
#X obj 1276 225 * 0.0226757;
#X obj 1245 301 /;
#X obj 1307 266 r speed;
#X msg 1245 326 0 \, 1 \$1 0;
#X obj 1246 348 vline~;
#X obj 1251 426 *~;
#X obj 1273 389 r filesize;
#X obj 1259 458 *~ 1;
#X obj 1251 496 s~ position;
#X floatatom 1372 228 15 0 0 0 - - -;
#X obj 1366 286 +;
#X obj 1375 197 bng 15 250 50 0 empty empty empty 17 7 0 10 -262144
-1 -1;
#X obj 1438 62 bng 15 250 50 0 empty empty empty 17 7 0 10 -262144
-1 -1;
#X obj 1234 53 metro 200;
#X floatatom 1162 317 5 0 0 0 - - -;
#X floatatom 1489 224 15 0 0 0 - - -;
#X obj 1442 261 * 100;
#X obj 847 588 dac~;
#X obj 514 345 r loopsize;
#X floatatom 520 382 5 0 0 0 - - -;
#N canvas 0 0 450 300 (subpatch) 0;
#X array source-array 100 float 3;
#A 0 0 0 0 0 0 0 0 0 0 0 0 0 0 0 0 0 0 0 0 0 0 0 0 0 0 0 0 0 0 0 0
0 0 0 0 0 0 0 0 0 0 0 0 0 0 0 0 0 0 0 0 0 0 0 0 0 0 0 0 0 0 0 0 0 0
0 0 0 0 0 0 0 0 0 0 0 0 0 0 0 0 0 0 0 0 0 0 0 0 0 0 0 0 0 0 0 0 0 0
0;
#X coords 0 1 99 -1 200 140 1 0 0;
#X restore 487 429 graph;
#X obj 554 211 inlet~;
#X obj 574 278 tabwrite~ source-array;
#X connect 0 0 23 0;
#X connect 1 0 2 0;
#X connect 2 0 3 0;
#X connect 3 0 4 0;
#X connect 6 0 7 0;
#X connect 6 0 12 0;
#X connect 8 0 9 0;
#X connect 8 0 16 0;
#X connect 10 0 11 0;
#X connect 10 0 26 0;
#X connect 10 0 27 0;
#X connect 12 0 13 0;
#X connect 14 0 15 0;
#X connect 15 0 16 0;
#X connect 15 1 16 1;
#X connect 16 0 17 0;
#X connect 17 0 18 0;
#X connect 17 0 0 0;
#X connect 18 0 19 0;
#X connect 19 0 20 0;
#X connect 20 0 23 1;
#X connect 21 0 0 1;
#X connect 22 0 20 1;
#X connect 23 0 24 0;
#X connect 24 0 25 0;
#X connect 27 0 16 0;
#X connect 27 1 16 2;
#X connect 28 0 29 0;
#X connect 29 0 32 0;
#X connect 30 0 40 0;
#X connect 31 0 29 1;
#X connect 32 0 34 0;
#X connect 33 0 32 1;
#X connect 34 0 35 0;
#X connect 35 0 36 0;
#X connect 36 0 38 0;
#X connect 37 0 36 1;
#X connect 38 0 39 0;
#X connect 40 0 41 0;
#X connect 41 0 31 0;
#X connect 42 0 40 0;
#X connect 43 0 44 0;
#X connect 45 0 44 1;
#X connect 46 0 47 0;
#X connect 47 0 41 1;
#X connect 47 0 42 0;
#X connect 49 0 5 0;
#X connect 49 0 50 0;
#X connect 52 0 53 0;
