#N canvas 0 85 1362 722 10;
#X obj 271 600 outlet~;
#X obj 1096 106 gesturenode;
#X obj 614 349 gesturenode-r;
#X floatatom 835 26 5 0 0 0 - - -;
#X obj 1063 225 s \$0-n1x;
#X obj 1113 247 s \$0-n1y;
#X obj 1144 225 s \$0-n1z;
#X obj 1006 225 s \$0-n2z;
#X obj 962 245 s \$0-n2y;
#X obj 919 226 s \$0-n2x;
#X obj 860 225 s \$0-n3z;
#X obj 824 249 s \$0-n3y;
#X obj 776 226 s \$0-n3x;
#X obj 717 228 s \$0-n4z;
#X obj 666 246 s \$0-n4y;
#X obj 625 226 s \$0-n4x;
#X obj 717 476 s \$0-n5z;
#X obj 671 494 s \$0-n5y;
#X obj 628 475 s \$0-n5x;
#X obj 870 475 s \$0-n6z;
#X obj 782 475 s \$0-n6x;
#X obj 1012 472 s \$0-n7z;
#X obj 970 494 s \$0-n7y;
#X obj 926 475 s \$0-n7x;
#X obj 1161 473 s \$0-n8z;
#X obj 1113 498 s \$0-n8y;
#X obj 1074 475 s \$0-n8x;
#X text 748 30 n=node;
#X obj 958 23 s \$0-n \$1 z;
#X obj 878 24 s \$0-pgm;
#X obj 1156 33 r parakey;
#X obj 1096 76 == 1;
#X obj 682 72 r frange4;
#X obj 826 75 r frange3;
#X obj 985 76 r frange2;
#X obj 1133 76 r frange1;
#X obj 649 73 == 4;
#X obj 793 76 == 3;
#X obj 949 77 == 2;
#X obj 1004 277 r parakey;
#X obj 665 297 == 5;
#X obj 698 296 r frange5;
#X obj 810 298 == 6;
#X obj 843 297 r frange6;
#X obj 940 302 == 7;
#X obj 976 301 r frange7;
#X obj 1082 305 == 8;
#X obj 1119 305 r frange8;
#X obj 769 352 gesturenode-r;
#X obj 923 352 gesturenode-r;
#X obj 1080 350 gesturenode-r;
#X obj 786 105 gesturenode;
#X obj 940 105 gesturenode;
#X obj 630 103 gesturenode;
#X obj 1011 307;
#X floatatom 609 481 5 0 0 0 - - -;
#X obj 826 495 s \$0-n6y;
#X obj 148 28 inlet note;
#X obj 30 103 noise~;
#X obj -85 187 osc~;
#X obj 0 309 *~;
#X obj 15 176 *~;
#X obj 0 332 *~;
#X obj 43 305 *~;
#X obj -86 109 *~;
#X obj -85 304 *~;
#X obj -86 134 *~ 12;
#X obj 0 356 clip~ 0 1;
#X obj -84 209 clip~ -0.8 0.8;
#X obj 44 328 *~ 0.1;
#X obj 1 377 *~ 0.4;
#X obj -84 330 *~ 0.9;
#X obj -86 77 ead~ 1 300;
#X obj 30 127 bp~ 3300 0.5;
#X obj 30 151 lop~ 7000;
#X obj 0 433 bp~ 8000 1;
#X obj -1 286 clip~ -0.9 0.9;
#X obj -3 264 *~ 10000;
#X obj -85 163 +~ 150;
#X obj 1 404 *~ 0.35;
#X obj -86 53 sel 1;
#X obj 135 292 r breath;
#X obj 94 309 / 127;
#X obj 40 40 tgl 15 0 empty empty empty 17 7 0 10 -262144 -1 -1 64
64;
#X obj 261 231 * 2;
#X obj 281 276 sig~;
#X obj 271 404 DIY2/perk-snare /key;
#X obj 277 310 r \$0-n1x;
#X obj 335 309 r \$0-n1y;
#X obj 329 330 r \$0-n2x;
#X obj 387 329 r \$0-n2y;
#X obj 345 352 r \$0-n3x;
#X obj 405 352 r \$0-n3y;
#X obj 416 371 r \$0-n4x;
#X floatatom 276 343 5 0 0 0 - - -;
#X obj 212 134 switch~;
#X obj -86 30 == 56;
#X obj -87 6 spigot;
#X obj 305 22 inlet pgm;
#X obj 271 130 r yaxis;
#X obj 256 195 -;
#X floatatom 303 172 5 0 0 0 - - -;
#X msg 233 165 127 \$1;
#X connect 1 0 4 0;
#X connect 1 1 5 0;
#X connect 1 2 6 0;
#X connect 2 0 18 0;
#X connect 2 0 55 0;
#X connect 2 1 17 0;
#X connect 2 2 16 0;
#X connect 30 0 31 0;
#X connect 30 0 36 0;
#X connect 30 0 37 0;
#X connect 30 0 38 0;
#X connect 31 0 1 0;
#X connect 32 0 53 2;
#X connect 33 0 51 2;
#X connect 34 0 52 2;
#X connect 35 0 1 2;
#X connect 36 0 53 0;
#X connect 37 0 51 0;
#X connect 38 0 52 0;
#X connect 39 0 40 0;
#X connect 39 0 42 0;
#X connect 39 0 44 0;
#X connect 39 0 46 0;
#X connect 40 0 2 0;
#X connect 41 0 2 2;
#X connect 42 0 48 0;
#X connect 43 0 48 2;
#X connect 44 0 49 0;
#X connect 45 0 49 2;
#X connect 46 0 50 0;
#X connect 47 0 50 2;
#X connect 48 0 20 0;
#X connect 48 1 56 0;
#X connect 48 2 19 0;
#X connect 49 0 23 0;
#X connect 49 1 22 0;
#X connect 49 2 21 0;
#X connect 50 0 26 0;
#X connect 50 1 25 0;
#X connect 50 2 24 0;
#X connect 51 0 12 0;
#X connect 51 1 11 0;
#X connect 51 2 10 0;
#X connect 52 0 9 0;
#X connect 52 1 8 0;
#X connect 52 2 7 0;
#X connect 53 0 15 0;
#X connect 53 1 14 0;
#X connect 53 2 13 0;
#X connect 57 0 3 0;
#X connect 57 0 29 0;
#X connect 57 0 1 1;
#X connect 57 0 2 1;
#X connect 57 0 48 1;
#X connect 57 0 49 1;
#X connect 57 0 50 1;
#X connect 57 0 51 1;
#X connect 57 0 52 1;
#X connect 57 0 53 1;
#X connect 57 0 83 0;
#X connect 57 0 86 0;
#X connect 57 0 95 0;
#X connect 57 0 97 0;
#X connect 58 0 73 0;
#X connect 59 0 68 0;
#X connect 60 0 62 0;
#X connect 61 0 62 1;
#X connect 62 0 67 0;
#X connect 63 0 69 0;
#X connect 64 0 65 1;
#X connect 64 0 66 0;
#X connect 65 0 71 0;
#X connect 66 0 78 0;
#X connect 67 0 70 0;
#X connect 68 0 65 0;
#X connect 68 0 77 0;
#X connect 69 0 79 0;
#X connect 70 0 79 0;
#X connect 71 0 79 0;
#X connect 72 0 60 1;
#X connect 72 0 61 0;
#X connect 72 0 64 0;
#X connect 72 0 64 1;
#X connect 72 0 63 1;
#X connect 73 0 63 0;
#X connect 73 0 74 0;
#X connect 74 0 61 1;
#X connect 75 0 0 0;
#X connect 76 0 60 0;
#X connect 77 0 76 0;
#X connect 78 0 59 0;
#X connect 79 0 75 0;
#X connect 80 0 72 0;
#X connect 81 0 82 0;
#X connect 82 0 79 1;
#X connect 84 0 85 0;
#X connect 85 0 59 0;
#X connect 86 0 0 0;
#X connect 87 0 94 0;
#X connect 87 0 86 1;
#X connect 88 0 86 2;
#X connect 89 0 86 3;
#X connect 90 0 86 4;
#X connect 91 0 86 5;
#X connect 92 0 86 6;
#X connect 93 0 86 7;
#X connect 96 0 80 0;
#X connect 97 0 96 0;
#X connect 98 0 97 1;
#X connect 99 0 101 0;
#X connect 99 0 102 0;
#X connect 100 0 84 0;
#X connect 102 0 100 0;
