#N canvas 1672 -8 1366 726 10;
#X obj 969 93 s preset;
#X msg 914 3 1;
#X msg 943 4 2;
#X msg 972 4 3;
#X obj -177 314 vsl 30 128 1 0.9 0 0 empty empty empty 0 -9 0 10 -258113
-1 -1 0 1;
#X obj -183 161 vsl 30 128 1 0.9 0 0 empty empty empty 0 -9 0 10 -258113
-1 -1 0 1;
#X obj -180 7 vsl 30 128 1 0.9 0 0 empty empty empty 0 -9 0 10 -258113
-1 -1 0 1;
#X obj -186 -20 r frange1;
#X obj -183 139 r frange2;
#X obj -181 293 r frange3;
#X obj -178 446 r frange4;
#X obj -134 -19 gesturegrid;
#X msg 764 7 1;
#X msg 736 8 2;
#X msg 704 9 3;
#X msg 673 8 4;
#X obj 640 99 == 1;
#X obj 672 99 == 2;
#X obj 703 99 == 3;
#X obj 733 99 == 4;
#X obj 709 69 int;
#X obj 971 72 int;
#N canvas 1672 -8 1366 726 synthcore1 0;
#X obj 621 -2 cnv 15 350 350 empty empty empty 20 12 0 14 -260097 -66577
0;
#X obj 633 278 r yparam1;
#X obj 636 214 r yparam2;
#X obj 637 156 r yparam3;
#X obj 634 96 r yparam4;
#X obj 635 36 r yparam5;
#X obj 633 318 s yp1;
#X obj 637 256 s yp2;
#X obj 638 195 s yp3;
#X obj 637 137 s yp4;
#X obj 636 77 s yp5;
#X obj 771 281 r yparam6;
#X obj 771 321 s yp6;
#X obj 773 261 s yp7;
#X obj 772 219 r yparam7;
#X obj 772 160 r yparam8;
#X obj 773 199 s yp8;
#X obj 771 141 s yp9;
#X obj 768 100 r yparam9;
#X obj 769 40 r yparam10;
#X obj 770 81 s yp10;
#X obj 880 276 r yparam11;
#X obj 880 316 s yp11;
#X obj 879 215 r yparam12;
#X obj 880 257 s yp12;
#X obj 880 197 s yp13;
#X obj 879 158 r yparam13;
#X obj 877 98 r yparam14;
#X obj 880 139 s yp14;
#X obj 879 79 s yp15;
#X obj 878 38 r yparam15;
#X text 662 6 Y-AXIS-KEY1;
#X obj 271 -2 cnv 15 350 100 empty empty empty 20 12 0 14 -261234 -66577
0;
#X obj 280 26 r extfunction1;
#X obj 421 26 r extfunction2;
#X obj 280 67 s function1rec;
#X obj 421 66 s function2rec;
#X obj 534 64 s function3rec;
#X obj 532 24 r extfunction3;
#X obj 564 350 cnv 15 350 100 empty empty empty 20 12 0 14 -261234
-66577 0;
#X obj 593 369 r extfunction4;
#X obj 593 410 s function4rec;
#X obj 689 409 s function5rec;
#X obj 795 411 s function6rec;
#X obj 793 371 r extfunction6;
#X obj 689 369 r extfunction5;
#X obj 270 102 cnv 15 350 80 empty empty empty 20 12 0 14 -4034 -66577
0;
#X obj 283 157 s xp1;
#X obj 403 119 r xparam4;
#X obj 283 117 r xparam1;
#X obj 403 159 s xp4;
#X obj 371 453 cnv 15 600 80 empty empty empty 20 12 0 14 -4034 -66577
0;
#X obj 390 466 r xparam10;
#X obj 390 506 s xp10;
#X obj 478 507 s xp11;
#X obj 477 465 r xparam11;
#X obj 562 466 r xparam12;
#X obj 563 505 s xp12;
#X obj 691 464 r xparam13;
#X obj 777 464 r xparam14;
#X obj 691 504 s xp13;
#X obj 778 506 s xp14;
#X obj 863 504 s xp15;
#X obj 862 465 r xparam15;
#X obj -32 -1 cnv 15 300 100 empty empty empty 20 12 0 14 -258113 -66577
0;
#X obj -19 14 r breath;
#X obj 38 14 r lip;
#X obj 160 15 value;
#X obj 203 17 r pgmout;
#X obj 217 101 cnv 15 50 80 empty empty empty 20 12 0 14 -4032 -66577
0;
#X obj 671 533 cnv 15 300 80 empty empty empty 20 12 0 14 -4034 -66577
0;
#X obj 691 537 r xparam16;
#X obj 691 577 s xp16;
#X obj 797 538 r xparam17;
#X obj 798 580 s xp17;
#X obj 883 578 s xp18;
#X obj 882 539 r xparam18;
#X msg 636 118 text VOCAL;
#X msg 770 122 text VOCAL;
#X msg 879 120 text VOCAL;
#X msg 280 46 text Osc1;
#X msg 421 46 text Osc2;
#X msg 534 43 text Osc3;
#X msg 283 138 text OSC 1 Vol;
#X msg 403 140 text OSC 2 Vol;
#X obj 527 122 r xparam7;
#X obj 527 162 s xp7;
#X msg 527 143 text Osc 3 Vol;
#X text 282 2 Function key 1-2-3 for key 1;
#X text 575 352 Function key 1-2-3 for key 2;
#X text 301 102 x-axis function keys 1-2-3;
#X msg 593 389 text Osc pitch 1;
#X msg 689 389 text Osc pitch 2;
#X msg 795 390 text Osc pitch 3;
#X msg 390 487 text 1 OCT DWN;
#X text 409 450 X-AXIS FUNCTIONS FOR KEY 1-2-3;
#X msg 477 486 text CENTER;
#X msg 562 486 text 1 OCT UP;
#X msg 691 485 text 1 OCT DWN;
#X msg 777 485 text CENTER;
#X msg 862 485 text 1 OCT UP;
#X msg 691 558 text 1 OCT DDWN;
#X msg 797 559 text CENTER;
#X msg 882 559 text 1 OCT UP;
#X msg 633 299 text SINE;
#X msg 771 302 text SINE;
#X msg 880 297 text SINE;
#X msg 879 236 text SAW;
#X msg 772 240 text SAW;
#X msg 636 235 text SAW;
#X msg 637 176 text SQUARE;
#X msg 772 180 text SQUARE;
#X msg 879 178 text SQUARE;
#X msg 878 59 text XLRMTR;
#X msg 769 61 text XLRMTR;
#X msg 635 57 text XLRMTR;
#X obj 365 192 cnv 15 250 150 empty empty empty 20 12 0 14 -257985
-66577 0;
#X obj 918 356 cnv 15 50 80 empty empty empty 20 12 0 14 -4032 -66577
0;
#X obj 419 535 cnv 15 250 150 empty empty empty 20 12 0 14 -159808
-66577 0;
#X obj 438 563 r 1pup;
#X obj 494 562 r 1pcent;
#X obj 553 560 r 1pdwn;
#X text 442 538 x-axis pitch transpose switches;
#X text 918 356 osc pitch;
#X obj 437 585 r 2pup;
#X obj 493 584 r 2pcent;
#X obj 552 582 r 2pdwn;
#X obj 437 611 r 3pup;
#X obj 493 610 r 3pcent;
#X obj 548 612 r 3pdwn;
#X obj 79 42 unpack f f f;
#X floatatom 79 62 5 0 0 0 - - -;
#X floatatom 112 62 5 0 0 0 - - -;
#X floatatom 145 63 5 0 0 0 - - -;
#X obj -22 46 r rawbreath;
#X text -4 -3 Incoming controller data;
#X obj -38 187 cnv 15 100 100 empty empty empty 20 12 0 14 -260097
-66577 0;
#X obj -31 247 s yp36;
#X obj -31 207 r yparam36;
#X obj -44 350 cnv 15 350 100 empty empty empty 20 12 0 14 -261234
-66577 0;
#X obj -41 371 r extfunction7;
#X obj 100 371 r extfunction8;
#X obj 211 369 r extfunction9;
#X obj 213 409 s function9rec;
#X obj 100 411 s function8rec;
#X obj -41 412 s function7rec;
#X obj 343 357 cnv 15 200 80 empty empty empty 20 12 0 14 -4034 -66577
0;
#X obj 445 376 r xparam25;
#X obj -38 113 cnv 15 120 70 empty empty empty 20 12 0 14 -4032 -66577
0;
#X text -33 348 Function key 1-2-3 key 3;
#X text 347 355 X-axis function keys 1-2-3;
#X msg 445 397 text Relaease;
#X obj 363 373 r xparam19;
#X obj 363 413 s xp19;
#X msg 363 394 text Attack;
#X text 7 134 decay Yaxis;
#X text 4 112 attack Xaxis;
#X msg -31 228 text Decay;
#X text -40 188 Y-AXIS-KEY3 f-key2;
#X obj 443 419 s xp25;
#X text 6 158 Release Xaixs;
#X obj -50 453 cnv 15 350 80 empty empty empty 20 12 0 14 -257985 -66577
0;
#X obj -41 511 s yp46;
#X obj -41 471 r yparam46;
#X obj 87 508 s yp51;
#X obj 87 468 r yparam51;
#X obj 220 509 s yp56;
#X obj 220 469 r yparam156;
#X text -28 454 Y-AXIS-KEY4;
#X msg -41 492 text;
#X msg 87 489 text;
#X msg 220 490 text;
#X obj -43 534 cnv 15 300 80 empty empty empty 20 12 0 14 -4034 -66577
0;
#X obj 164 549 r xparam34;
#X obj 164 589 s xp34;
#X obj -27 550 r xparam28;
#X obj 75 550 r xparam31;
#X obj -27 590 s xp28;
#X obj 75 590 s xp31;
#X text -33 533 X-axis function keys 1-2-3;
#X obj 232 535 cnv 15 200 150 empty empty empty 20 12 0 14 -4032 -66577
0;
#X obj 617 607 cnv 15 350 80 empty empty empty 20 12 0 14 -261234 -66577
0;
#X obj 628 628 r extfunction10;
#X obj 743 629 r extfunction11;
#X obj 856 631 r extfunction12;
#X obj 858 671 s function12rec;
#X obj 743 669 s function11rec;
#X obj 628 669 s function10rec;
#X msg 628 648 text Pitch LFO;
#X msg 743 649 text Gain LFO;
#X msg 858 650 text Filter LFO;
#X text 627 607 function key 1-2-3 key 4;
#X text 456 196 Y-axis oscillator switches-key1;
#N canvas 0 0 1007 532 osc 0;
#X obj 268 -94 r f1xlrmtr;
#X obj 221 -93 r f1voc;
#X obj 156 -91 r f1square;
#X obj 108 -91 r f1saw;
#X obj 54 -90 r f1sine;
#X obj 554 -95 r f2xlrmtr;
#X obj 504 -95 r f2voc;
#X obj 437 -95 r f2square;
#X obj 390 -96 r f2saw;
#X obj 335 -96 r f2sine;
#X obj 706 209 r f3sine;
#X obj 707 188 r f3saw;
#X obj 708 167 r f3square;
#X obj 708 145 r f3voc;
#X obj 710 122 r f3xlrmtr;
#X msg 54 -68 1;
#X msg 108 -69 2;
#X msg 157 -69 3;
#X msg 223 -72 4;
#X msg 269 -70 5;
#X obj 82 -39 int;
#X obj 49 -12 == 1;
#X obj 77 -12 == 2;
#X obj 106 -13 == 3;
#X obj 135 -13 == 4;
#X obj 164 -14 == 5;
#X obj 123 102 tgl 15 0 empty empty empty 17 7 0 10 -262144 -1 -1 0
1;
#X obj 106 102 tgl 15 0 empty empty empty 17 7 0 10 -262144 -1 -1 0
1;
#X obj 72 102 tgl 15 0 empty empty empty 17 7 0 10 -262144 -1 -1 0
1;
#X obj 89 102 tgl 15 0 empty empty empty 17 7 0 10 -262144 -1 -1 0
1;
#X obj 139 102 tgl 15 0 empty empty empty 17 7 0 10 -262144 -1 -1 1
1;
#X obj 50 168 s f1sine-on;
#X obj 73 186 s f1saw-on;
#X obj 99 205 s f1square-on;
#X obj 129 225 s f1voc-on;
#X obj 154 245 s f1xlrmtr-on;
#X text 155 103 1;
#X msg 337 -65 1;
#X msg 391 -66 2;
#X msg 440 -66 3;
#X msg 506 -69 4;
#X msg 552 -67 5;
#X obj 365 -36 int;
#X obj 332 -9 == 1;
#X obj 360 -9 == 2;
#X obj 389 -10 == 3;
#X obj 418 -10 == 4;
#X obj 447 -11 == 5;
#X obj 123 121 tgl 15 0 empty empty empty 17 7 0 10 -262144 -1 -1 0
1;
#X obj 106 121 tgl 15 0 empty empty empty 17 7 0 10 -262144 -1 -1 0
1;
#X obj 72 121 tgl 15 0 empty empty empty 17 7 0 10 -262144 -1 -1 0
1;
#X obj 89 121 tgl 15 0 empty empty empty 17 7 0 10 -262144 -1 -1 0
1;
#X obj 139 121 tgl 15 0 empty empty empty 17 7 0 10 -262144 -1 -1 1
1;
#X obj 172 185 s f2saw-on;
#X obj 198 204 s f2square-on;
#X obj 228 224 s f2voc-on;
#X obj 253 244 s f2xlrmtr-on;
#X msg 626 -64 1;
#X msg 680 -65 2;
#X msg 729 -65 3;
#X msg 795 -68 4;
#X msg 841 -66 5;
#X obj 654 -35 int;
#X obj 621 -8 == 1;
#X obj 649 -8 == 2;
#X obj 678 -9 == 3;
#X obj 707 -9 == 4;
#X obj 736 -10 == 5;
#X text 156 120 2;
#X obj 123 140 tgl 15 0 empty empty empty 17 7 0 10 -262144 -1 -1 0
1;
#X obj 106 140 tgl 15 0 empty empty empty 17 7 0 10 -262144 -1 -1 0
1;
#X obj 72 140 tgl 15 0 empty empty empty 17 7 0 10 -262144 -1 -1 0
1;
#X obj 89 140 tgl 15 0 empty empty empty 17 7 0 10 -262144 -1 -1 0
1;
#X obj 139 140 tgl 15 0 empty empty empty 17 7 0 10 -262144 -1 -1 1
1;
#X text 156 139 3;
#X obj 624 -95 r f3sine;
#X obj 679 -95 r f3saw;
#X obj 726 -94 r f3square;
#X obj 793 -94 r f3voc;
#X obj 843 -94 r f3xlrmtr;
#X obj 149 167 s f2sine-on;
#X obj 259 170 s f3sine-on;
#X obj 282 188 s f3saw-on;
#X obj 308 207 s f3square-on;
#X obj 338 227 s f3voc-on;
#X obj 363 247 s f3xlrmtr-on;
#X connect 0 0 19 0;
#X connect 1 0 18 0;
#X connect 2 0 17 0;
#X connect 3 0 16 0;
#X connect 4 0 15 0;
#X connect 5 0 41 0;
#X connect 6 0 40 0;
#X connect 7 0 39 0;
#X connect 8 0 38 0;
#X connect 9 0 37 0;
#X connect 15 0 20 0;
#X connect 16 0 20 0;
#X connect 17 0 20 0;
#X connect 18 0 20 0;
#X connect 19 0 20 0;
#X connect 20 0 21 0;
#X connect 20 0 22 0;
#X connect 20 0 23 0;
#X connect 20 0 24 0;
#X connect 20 0 25 0;
#X connect 21 0 28 0;
#X connect 21 0 31 0;
#X connect 22 0 29 0;
#X connect 22 0 32 0;
#X connect 23 0 27 0;
#X connect 23 0 33 0;
#X connect 24 0 26 0;
#X connect 24 0 34 0;
#X connect 25 0 30 0;
#X connect 25 0 35 0;
#X connect 37 0 42 0;
#X connect 38 0 42 0;
#X connect 39 0 42 0;
#X connect 40 0 42 0;
#X connect 41 0 42 0;
#X connect 42 0 43 0;
#X connect 42 0 44 0;
#X connect 42 0 45 0;
#X connect 42 0 46 0;
#X connect 42 0 47 0;
#X connect 43 0 50 0;
#X connect 43 0 80 0;
#X connect 44 0 51 0;
#X connect 44 0 53 0;
#X connect 45 0 49 0;
#X connect 45 0 54 0;
#X connect 46 0 48 0;
#X connect 46 0 55 0;
#X connect 47 0 52 0;
#X connect 47 0 56 0;
#X connect 57 0 62 0;
#X connect 58 0 62 0;
#X connect 59 0 62 0;
#X connect 60 0 62 0;
#X connect 61 0 62 0;
#X connect 62 0 63 0;
#X connect 62 0 64 0;
#X connect 62 0 65 0;
#X connect 62 0 66 0;
#X connect 62 0 67 0;
#X connect 63 0 71 0;
#X connect 63 0 81 0;
#X connect 64 0 72 0;
#X connect 64 0 82 0;
#X connect 65 0 70 0;
#X connect 65 0 83 0;
#X connect 66 0 69 0;
#X connect 66 0 84 0;
#X connect 67 0 73 0;
#X connect 67 0 85 0;
#X connect 75 0 57 0;
#X connect 76 0 58 0;
#X connect 77 0 59 0;
#X connect 78 0 60 0;
#X connect 79 0 61 0;
#X coords 0 -1 1 1 100 60 1 70 100;
#X restore 504 222 pd osc selection;
#X obj 461 228 r 3gx;
#X obj 424 227 r 2gx;
#X obj 385 226 r 1gx;
#X obj 409 246 vsl 10 60 0 127 0 0 empty empty empty 0 -9 0 10 -262144
-1 -1 0 1;
#X obj 447 248 vsl 10 60 0 127 0 0 empty empty empty 0 -9 0 10 -262144
-1 -1 5900 1;
#X obj 484 249 vsl 10 60 0 127 0 0 empty empty empty 0 -9 0 10 -262144
-1 -1 46 1;
#X obj 417 322 s f1oscvol;
#X obj 549 322 s f3oscvol;
#X obj 484 322 s f2oscvol;
#X text 149 125 comment;
#X text 383 211 osc vol 1 2 3;
#X text 288 644 filter LFO-Depth and rate;
#X text 291 595 gain LFO-Depth and rate;
#X text 290 556 pitch LFO-Depth and rate;
#X obj 79 15 r mynotemsg;
#X msg -41 391 text filter type;
#X msg 100 391 text cutoff;
#X msg 213 388 text Res/amt;
#X msg -27 571 text type;
#X msg 75 571 text cutoff;
#X msg 164 570 text Band;
#X obj 68 189 cnv 15 250 150 empty empty empty 20 12 0 14 -257985 -66577
0;
#X text 107 187 fkey 7 parameters;
#X obj 73 205 r yparam31;
#X obj 138 205 r yparam32;
#X obj 202 203 r yparam33;
#X obj 72 270 r yparam34;
#X obj 154 273 r yparam35;
#X obj 155 314 s yp35;
#X obj 75 311 s yp34;
#X obj 73 245 s yp31;
#X obj 139 247 s yp32;
#X obj 203 242 s yp33;
#X msg 73 226 text lowpass;
#X msg 138 226 text hipass;
#X msg 202 223 text bandpass;
#X msg 74 292 text VCF;
#X msg 154 294 text Moog;
#X obj -35 114 r 7gx;
#X obj -36 134 r 8gy;
#X obj -36 154 r 9gx;
#X obj 924 374 r 1gy;
#X obj 924 396 r 2gy;
#X obj 922 417 r 3gy;
#X obj 239 540 r 10gx;
#X obj 238 561 r 10gy;
#X obj 241 589 r 11gx;
#X obj 240 608 r 11gy;
#X obj 239 635 r 12gx;
#X obj 237 654 r 12gy;
#X connect 1 0 104 0;
#X connect 2 0 109 0;
#X connect 3 0 110 0;
#X connect 4 0 77 0;
#X connect 5 0 115 0;
#X connect 11 0 105 0;
#X connect 14 0 108 0;
#X connect 15 0 111 0;
#X connect 18 0 78 0;
#X connect 19 0 114 0;
#X connect 21 0 106 0;
#X connect 23 0 107 0;
#X connect 26 0 112 0;
#X connect 27 0 79 0;
#X connect 30 0 113 0;
#X connect 33 0 80 0;
#X connect 34 0 81 0;
#X connect 38 0 82 0;
#X connect 40 0 91 0;
#X connect 44 0 93 0;
#X connect 45 0 92 0;
#X connect 48 0 84 0;
#X connect 49 0 83 0;
#X connect 52 0 94 0;
#X connect 55 0 96 0;
#X connect 56 0 97 0;
#X connect 58 0 98 0;
#X connect 59 0 99 0;
#X connect 63 0 100 0;
#X connect 71 0 101 0;
#X connect 73 0 102 0;
#X connect 76 0 103 0;
#X connect 77 0 9 0;
#X connect 78 0 17 0;
#X connect 79 0 28 0;
#X connect 80 0 35 0;
#X connect 81 0 36 0;
#X connect 82 0 37 0;
#X connect 83 0 47 0;
#X connect 84 0 50 0;
#X connect 85 0 87 0;
#X connect 87 0 86 0;
#X connect 91 0 41 0;
#X connect 92 0 42 0;
#X connect 93 0 43 0;
#X connect 94 0 53 0;
#X connect 96 0 54 0;
#X connect 97 0 57 0;
#X connect 98 0 60 0;
#X connect 99 0 61 0;
#X connect 100 0 62 0;
#X connect 101 0 72 0;
#X connect 102 0 74 0;
#X connect 103 0 75 0;
#X connect 104 0 6 0;
#X connect 105 0 12 0;
#X connect 106 0 22 0;
#X connect 107 0 24 0;
#X connect 108 0 13 0;
#X connect 109 0 7 0;
#X connect 110 0 8 0;
#X connect 111 0 16 0;
#X connect 112 0 25 0;
#X connect 113 0 29 0;
#X connect 114 0 20 0;
#X connect 115 0 10 0;
#X connect 130 0 131 0;
#X connect 130 1 132 0;
#X connect 130 2 133 0;
#X connect 138 0 157 0;
#X connect 140 0 209 0;
#X connect 141 0 210 0;
#X connect 142 0 211 0;
#X connect 147 0 151 0;
#X connect 151 0 159 0;
#X connect 152 0 154 0;
#X connect 154 0 153 0;
#X connect 157 0 137 0;
#X connect 163 0 169 0;
#X connect 165 0 170 0;
#X connect 167 0 171 0;
#X connect 169 0 162 0;
#X connect 170 0 164 0;
#X connect 171 0 166 0;
#X connect 173 0 214 0;
#X connect 175 0 212 0;
#X connect 176 0 213 0;
#X connect 182 0 188 0;
#X connect 183 0 189 0;
#X connect 184 0 190 0;
#X connect 188 0 187 0;
#X connect 189 0 186 0;
#X connect 190 0 185 0;
#X connect 194 0 199 0;
#X connect 194 0 201 0;
#X connect 195 0 198 0;
#X connect 195 0 202 0;
#X connect 196 0 197 0;
#X connect 196 0 200 0;
#X connect 208 0 130 0;
#X connect 209 0 145 0;
#X connect 210 0 144 0;
#X connect 211 0 143 0;
#X connect 212 0 177 0;
#X connect 213 0 178 0;
#X connect 214 0 174 0;
#X connect 217 0 227 0;
#X connect 218 0 228 0;
#X connect 219 0 229 0;
#X connect 220 0 230 0;
#X connect 221 0 231 0;
#X connect 227 0 224 0;
#X connect 228 0 225 0;
#X connect 229 0 226 0;
#X connect 230 0 223 0;
#X connect 231 0 222 0;
#X restore 892 310 pd synthcore1;
#N canvas 738 238 450 300 viz 0;
#X text -343 158 the right accelrometer grid is a modifier for the
left hand and should only be actuated when neccessary for a function
from there;
#N canvas 489 212 450 300 fsr 0;
#X obj 114 79 gemhead 1;
#X obj 114 264 square 0.3;
#X obj 114 221 alpha;
#X obj 268 147 hsl 64 15 0.925 1 0 0 empty empty empty -2 -8 0 10 -262144
-1 -1 0 1;
#X obj 198 188 r r;
#X obj 221 188 r g;
#X obj 245 188 r b;
#X msg 153 196 1;
#X obj 122 155 tgl 15 0 empty empty empty 17 7 0 10 -262144 -1 -1 0
1;
#X obj 264 124 r frange1;
#X obj 265 167 - 0.9;
#X obj 269 189 * 10;
#X obj 122 173 sel 0 3;
#X obj 114 242 colorRGB;
#X msg 123 196 0;
#X floatatom 289 230 5 0 0 0 - - -;
#X obj 114 99 translateXYZ -2.6 -0.2 0;
#X obj 120 135 r \$0-key1;
#X connect 0 0 16 0;
#X connect 2 0 13 0;
#X connect 3 0 10 0;
#X connect 4 0 13 1;
#X connect 5 0 13 2;
#X connect 6 0 13 3;
#X connect 7 0 2 0;
#X connect 8 0 12 0;
#X connect 9 0 3 0;
#X connect 10 0 11 0;
#X connect 11 0 13 4;
#X connect 11 0 15 0;
#X connect 12 0 7 0;
#X connect 12 1 14 0;
#X connect 13 0 1 0;
#X connect 14 0 2 0;
#X connect 16 0 2 0;
#X connect 17 0 8 0;
#X restore 21 -10 pd fsr 1;
#N canvas 74 19 450 300 fsr 0;
#X obj 114 79 gemhead 1;
#X obj 114 264 square 0.3;
#X obj 114 221 alpha;
#X obj 267 146 hsl 64 15 0.925 1 0 0 empty empty empty -2 -8 0 10 -262144
-1 -1 0 1;
#X obj 198 188 r r;
#X obj 221 188 r g;
#X obj 245 188 r b;
#X msg 153 196 1;
#X obj 122 155 tgl 15 0 empty empty empty 17 7 0 10 -262144 -1 -1 0
1;
#X obj 265 167 - 0.9;
#X obj 266 188 * 10;
#X msg 123 196 0;
#X obj 264 124 r frange2;
#X obj 122 173 sel 0 3;
#X floatatom 306 221 5 0 0 0 - - -;
#X obj 183 258 colorRGB;
#X obj 114 99 translateXYZ -3.4 -0.2 0;
#X obj 120 135 r \$0-key2;
#X connect 0 0 16 0;
#X connect 2 0 15 0;
#X connect 3 0 9 0;
#X connect 4 0 15 1;
#X connect 5 0 15 2;
#X connect 6 0 15 3;
#X connect 7 0 2 0;
#X connect 8 0 13 0;
#X connect 9 0 10 0;
#X connect 10 0 14 0;
#X connect 10 0 15 4;
#X connect 11 0 2 0;
#X connect 12 0 3 0;
#X connect 13 0 7 0;
#X connect 13 1 11 0;
#X connect 15 0 1 0;
#X connect 16 0 2 0;
#X connect 17 0 8 0;
#X restore 21 12 pd fsr 2;
#N canvas 524 32 450 300 fsr 0;
#X obj 114 79 gemhead 1;
#X obj 114 264 square 0.3;
#X obj 114 221 alpha;
#X obj 267 146 hsl 64 15 0.925 1 0 0 empty empty empty -2 -8 0 10 -262144
-1 -1 0 1;
#X obj 198 188 r r;
#X obj 221 188 r g;
#X obj 245 188 r b;
#X msg 153 196 1;
#X obj 122 155 tgl 15 0 empty empty empty 17 7 0 10 -262144 -1 -1 0
1;
#X obj 265 167 - 0.9;
#X obj 266 188 * 10;
#X msg 123 196 0;
#X obj 122 173 sel 0 3;
#X floatatom 306 221 5 0 0 0 - - -;
#X obj 183 258 colorRGB;
#X obj 264 124 r frange3;
#X obj 114 99 translateXYZ -4.2 -0.2 0;
#X obj 120 135 r \$0-key3;
#X connect 0 0 16 0;
#X connect 2 0 14 0;
#X connect 3 0 9 0;
#X connect 4 0 14 1;
#X connect 5 0 14 2;
#X connect 6 0 14 3;
#X connect 7 0 2 0;
#X connect 8 0 12 0;
#X connect 9 0 10 0;
#X connect 10 0 13 0;
#X connect 10 0 14 4;
#X connect 11 0 2 0;
#X connect 12 0 7 0;
#X connect 12 1 11 0;
#X connect 14 0 1 0;
#X connect 15 0 3 0;
#X connect 16 0 2 0;
#X connect 17 0 8 0;
#X restore 21 33 pd fsr 3;
#N canvas 58 366 450 300 fsr 0;
#X obj 114 79 gemhead 1;
#X obj 114 264 square 0.3;
#X obj 114 221 alpha;
#X obj 267 146 hsl 64 15 0.925 1 0 0 empty empty empty -2 -8 0 10 -262144
-1 -1 0 1;
#X obj 198 188 r r;
#X obj 221 188 r g;
#X obj 245 188 r b;
#X msg 153 196 1;
#X obj 122 155 tgl 15 0 empty empty empty 17 7 0 10 -262144 -1 -1 0
1;
#X obj 265 167 - 0.9;
#X obj 266 188 * 10;
#X msg 123 196 0;
#X obj 122 173 sel 0 3;
#X floatatom 306 221 5 0 0 0 - - -;
#X obj 183 258 colorRGB;
#X obj 264 124 r frange4;
#X obj 114 99 translateXYZ -5 -0.2 0;
#X obj 120 135 r \$0-key4;
#X connect 0 0 16 0;
#X connect 2 0 14 0;
#X connect 3 0 9 0;
#X connect 4 0 14 1;
#X connect 5 0 14 2;
#X connect 6 0 14 3;
#X connect 7 0 2 0;
#X connect 8 0 12 0;
#X connect 9 0 10 0;
#X connect 10 0 13 0;
#X connect 10 0 14 4;
#X connect 11 0 2 0;
#X connect 12 0 7 0;
#X connect 12 1 11 0;
#X connect 14 0 1 0;
#X connect 15 0 3 0;
#X connect 16 0 2 0;
#X connect 17 0 8 0;
#X restore 21 54 pd fsr 4;
#N canvas 97 354 450 300 fsr 0;
#X obj 114 79 gemhead 1;
#X obj 114 264 square 0.3;
#X obj 114 221 alpha;
#X obj 276 189 hsl 64 15 0.25 1 0 0 empty empty empty -2 -8 0 10 -262144
-1 -1 0 1;
#X obj 198 188 r r;
#X obj 221 188 r g;
#X obj 245 188 r b;
#X msg 153 196 1;
#X obj 122 155 tgl 15 0 empty empty empty 17 7 0 10 -262144 -1 -1 0
1;
#X msg 123 196 0;
#X obj 122 173 sel 0 3;
#X obj 114 242 colorRGB;
#X obj 114 99 translateXYZ 5 -0.2 0;
#X obj 272 166 r frange8;
#X obj 120 135 r \$0-key8;
#X connect 0 0 12 0;
#X connect 2 0 11 0;
#X connect 3 0 11 4;
#X connect 4 0 11 1;
#X connect 5 0 11 2;
#X connect 6 0 11 3;
#X connect 7 0 2 0;
#X connect 8 0 10 0;
#X connect 9 0 2 0;
#X connect 10 0 7 0;
#X connect 10 1 9 0;
#X connect 11 0 1 0;
#X connect 12 0 2 0;
#X connect 13 0 3 0;
#X connect 14 0 8 0;
#X restore 27 141 pd fsr 8;
#N canvas 97 354 450 300 fsr 0;
#X obj 114 79 gemhead 1;
#X obj 114 264 square 0.3;
#X obj 114 221 alpha;
#X obj 276 189 hsl 64 15 0.25 1 0 0 empty empty empty -2 -8 0 10 -262144
-1 -1 0 1;
#X obj 198 188 r r;
#X obj 221 188 r g;
#X obj 245 188 r b;
#X msg 153 196 1;
#X obj 122 155 tgl 15 0 empty empty empty 17 7 0 10 -262144 -1 -1 0
1;
#X msg 123 196 0;
#X obj 122 173 sel 0 3;
#X obj 114 242 colorRGB;
#X obj 114 99 translateXYZ 4.2 -0.2 0;
#X obj 272 166 r frange7;
#X obj 120 135 r \$0-key7;
#X connect 0 0 12 0;
#X connect 2 0 11 0;
#X connect 3 0 11 4;
#X connect 4 0 11 1;
#X connect 5 0 11 2;
#X connect 6 0 11 3;
#X connect 7 0 2 0;
#X connect 8 0 10 0;
#X connect 9 0 2 0;
#X connect 10 0 7 0;
#X connect 10 1 9 0;
#X connect 11 0 1 0;
#X connect 12 0 2 0;
#X connect 13 0 3 0;
#X connect 14 0 8 0;
#X restore 26 120 pd fsr 7;
#N canvas 97 354 450 300 fsr 0;
#X obj 114 79 gemhead 1;
#X obj 114 264 square 0.3;
#X obj 114 221 alpha;
#X obj 276 189 hsl 64 15 0.25 1 0 0 empty empty empty -2 -8 0 10 -262144
-1 -1 0 1;
#X obj 198 188 r r;
#X obj 221 188 r g;
#X obj 245 188 r b;
#X msg 153 196 1;
#X obj 122 155 tgl 15 0 empty empty empty 17 7 0 10 -262144 -1 -1 0
1;
#X msg 123 196 0;
#X obj 122 173 sel 0 3;
#X obj 114 242 colorRGB;
#X obj 114 99 translateXYZ 3.4 -0.2 0;
#X obj 272 166 r frange6;
#X obj 120 135 r \$0-key6;
#X connect 0 0 12 0;
#X connect 2 0 11 0;
#X connect 3 0 11 4;
#X connect 4 0 11 1;
#X connect 5 0 11 2;
#X connect 6 0 11 3;
#X connect 7 0 2 0;
#X connect 8 0 10 0;
#X connect 9 0 2 0;
#X connect 10 0 7 0;
#X connect 10 1 9 0;
#X connect 11 0 1 0;
#X connect 12 0 2 0;
#X connect 13 0 3 0;
#X connect 14 0 8 0;
#X restore 24 98 pd fsr 6;
#N canvas 97 354 450 300 fsr 0;
#X obj 114 79 gemhead 1;
#X obj 114 264 square 0.3;
#X obj 114 221 alpha;
#X obj 276 189 hsl 64 15 0.25 1 0 0 empty empty empty -2 -8 0 10 -262144
-1 -1 0 1;
#X obj 198 188 r r;
#X obj 221 188 r g;
#X obj 245 188 r b;
#X msg 153 196 1;
#X obj 122 155 tgl 15 0 empty empty empty 17 7 0 10 -262144 -1 -1 0
1;
#X msg 123 196 0;
#X obj 122 173 sel 0 3;
#X obj 114 242 colorRGB;
#X obj 272 166 r frange5;
#X obj 115 99 translateXYZ 2.6 -0.2 0;
#X obj 120 135 r \$0-key5;
#X connect 0 0 13 0;
#X connect 2 0 11 0;
#X connect 3 0 11 4;
#X connect 4 0 11 1;
#X connect 5 0 11 2;
#X connect 6 0 11 3;
#X connect 7 0 2 0;
#X connect 8 0 10 0;
#X connect 9 0 2 0;
#X connect 10 0 7 0;
#X connect 10 1 9 0;
#X connect 11 0 1 0;
#X connect 12 0 3 0;
#X connect 13 0 2 0;
#X connect 14 0 8 0;
#X restore 22 76 pd fsr 5;
#N canvas 644 145 1024 716 breath 0;
#X obj 51 20 cnv 15 170 250 empty empty empty 20 12 0 14 -228992 -66577
0;
#X obj 114 123 cnv 15 100 60 empty empty empty 20 12 0 14 -24198 -66577
0;
#X msg 57 28 draw line;
#X msg 57 59 draw fill;
#X msg 57 91 draw point;
#X obj 125 27 gemhead;
#X floatatom 143 125 5 0 0 0 - - -;
#X text 181 126 size;
#X floatatom 179 157 5 0 0 0 - - -;
#X text 155 143 segments;
#X obj 125 162 cone 0.6;
#X floatatom 269 52 5 0 0 0 - - -;
#X obj 29 6 loadbang;
#X obj 243 9 r breath;
#X obj 269 30 / 127;
#X obj 290 110 gemhead;
#X obj 290 132 part_head;
#X obj 515 235 part_draw;
#X msg 394 120 0 0.2 0 0.3;
#X msg 481 119 0.2 0 0 0.3;
#X floatatom 625 212 5 0 0 0 - - -;
#X floatatom 409 261 5 0 0 0 - - -;
#X obj 290 185 part_source 30;
#X obj 291 237 translateXYZ 0 2 0;
#X obj 291 213 part_killold 0;
#X floatatom 479 39 5 0 0 0 - - -;
#X floatatom 515 39 5 0 0 0 - - -;
#X floatatom 551 39 5 0 0 0 - - -;
#X floatatom 442 38 5 0 0 0 - - -;
#X obj 454 72 pack f f f f;
#X obj 346 16 hsl 30 15 0 1 0 0 empty empty empty -2 -8 0 10 -262144
-1 -1 0 1;
#X obj 448 4 hsl 30 15 0 1 0 0 empty empty empty -2 -8 0 10 -262144
-1 -1 0 1;
#X obj 522 8 hsl 30 15 0 1 0 0 empty empty empty -2 -8 0 10 -262144
-1 -1 0 1;
#X obj 597 8 hsl 30 15 0 1 0 0 empty empty empty -2 -8 0 10 -262144
-1 -1 0 1;
#X floatatom 349 83 5 0 0 0 - - -;
#X obj 395 52 hsl 30 15 0 1 0 0 empty empty empty -2 -8 0 10 -262144
-1 -1 0 1;
#X obj 518 204 rotate 170 0 0 1;
#X obj 458 217 / 10;
#X obj 314 159 part_velocity sphere 0 0 0.13 0.17;
#X obj 125 50 translateXYZ 0 3 0;
#X obj 125 74 rotateXYZ -90 0 0;
#X connect 2 0 10 0;
#X connect 3 0 10 0;
#X connect 4 0 10 0;
#X connect 5 0 39 0;
#X connect 6 0 10 1;
#X connect 8 0 10 2;
#X connect 12 0 2 0;
#X connect 13 0 14 0;
#X connect 13 0 10 2;
#X connect 13 0 37 0;
#X connect 14 0 11 0;
#X connect 15 0 16 0;
#X connect 16 0 38 0;
#X connect 22 0 24 0;
#X connect 24 0 23 0;
#X connect 25 0 29 1;
#X connect 26 0 29 2;
#X connect 27 0 29 3;
#X connect 28 0 29 0;
#X connect 30 0 28 0;
#X connect 31 0 25 0;
#X connect 32 0 26 0;
#X connect 33 0 27 0;
#X connect 35 0 34 0;
#X connect 36 0 17 0;
#X connect 37 0 24 1;
#X connect 38 0 22 0;
#X connect 39 0 40 0;
#X restore 27 166 pd breath;
#N canvas 251 313 543 300 octaves 0;
#X obj 152 217 rectangle 1.06 1.6;
#X obj 235 111 loadbang;
#X obj 148 133 translateXYZ 0 -2.35 0;
#X msg 211 88 0;
#X msg 139 85 -4.2;
#X msg 271 89 4.2;
#X msg 241 89 2.1;
#X obj 122 18 r jlb1;
#X obj 164 18 r jlb2;
#X obj 206 18 r jlb3;
#X obj 248 18 r jlb4;
#X obj 270 64 sel 1 0;
#X obj 122 62 sel 1 0;
#X obj 220 64 sel 1 0;
#X obj 171 64 sel 1 0;
#X msg 174 86 -2.1;
#X obj 148 197 alpha;
#X obj 175 153 r r;
#X obj 198 154 r g;
#X obj 224 155 r b;
#X obj 148 174 colorRGB;
#X msg 252 156 0.3;
#X msg 209 194 draw fill;
#X msg 98 165 1;
#X obj 148 109 gemhead 2;
#X connect 1 0 22 0;
#X connect 1 0 21 0;
#X connect 2 0 20 0;
#X connect 3 0 2 1;
#X connect 4 0 2 1;
#X connect 5 0 2 1;
#X connect 6 0 2 1;
#X connect 7 0 14 0;
#X connect 8 0 11 0;
#X connect 9 0 12 0;
#X connect 10 0 13 0;
#X connect 11 0 5 0;
#X connect 11 1 3 0;
#X connect 12 0 4 0;
#X connect 12 1 3 0;
#X connect 13 0 6 0;
#X connect 13 1 3 0;
#X connect 14 0 15 0;
#X connect 14 1 3 0;
#X connect 15 0 2 1;
#X connect 16 0 0 0;
#X connect 17 0 20 1;
#X connect 18 0 20 2;
#X connect 19 0 20 3;
#X connect 20 0 16 0;
#X connect 21 0 20 4;
#X connect 22 0 0 0;
#X connect 23 0 16 0;
#X connect 24 0 2 0;
#X restore -46 222 pd octaves;
#N canvas 0 0 450 300 programs 0;
#X restore -53 242 pd programs;
#N canvas 0 0 450 300 textupdater 0;
#X restore -70 267 pd textupdater;
#N canvas 0 0 1001 419 jlb 0;
#X obj 114 147 r jlb1;
#X obj 266 147 r jlb2;
#X obj 101 107 gemhead 1;
#X obj 114 169 tgl 15 0 empty empty empty 17 7 0 10 -262144 -1 -1 0
1;
#X obj 101 234 color;
#X msg 171 210 1 0 0;
#X obj 114 187 sel 0 1;
#X msg 113 209 0.4 0 0;
#X obj 256 106 gemhead 1;
#X obj 269 168 tgl 15 0 empty empty empty 17 7 0 10 -262144 -1 -1 0
1;
#X obj 256 233 color;
#X msg 326 209 1 0 0;
#X obj 269 186 sel 0 1;
#X msg 268 208 0.4 0 0;
#X obj 409 104 gemhead 1;
#X obj 422 166 tgl 15 0 empty empty empty 17 7 0 10 -262144 -1 -1 0
1;
#X obj 409 231 color;
#X msg 479 207 1 0 0;
#X obj 422 184 sel 0 1;
#X msg 421 206 0.4 0 0;
#X obj 422 144 r jlb3;
#X obj 566 105 gemhead 1;
#X obj 579 167 tgl 15 0 empty empty empty 17 7 0 10 -262144 -1 -1 0
1;
#X obj 566 232 color;
#X msg 636 208 1 0 0;
#X obj 579 185 sel 0 1;
#X msg 578 207 0.4 0 0;
#X obj 579 145 r jlb4;
#X obj 101 128 translateXYZ -5.07 0.8 0;
#X obj 100 261 square 0.12;
#X obj 255 260 square 0.12;
#X obj 408 258 square 0.12;
#X obj 565 256 square 0.12;
#X obj 409 125 translateXYZ -4.8 0.48 0;
#X obj 566 126 translateXYZ -4.53 0.8 0;
#X obj 256 127 translateXYZ -4.8 1.09 0;
#X obj 767 96 gemhead;
#X obj 811 149 loadbang;
#X obj 767 265 text3d;
#X msg 776 238 font /home/onyx/beatjazzdir/vera.ttf;
#X obj 806 218 r jlbtext;
#X obj 348 330 s jlbtext;
#X obj 494 338 s jlbtext;
#X obj 644 335 s jlbtext;
#X obj 215 333 s jlbtext;
#X msg 178 268 text C3;
#X msg 333 263 text C3;
#X msg 494 260 text C3;
#X msg 639 292 text C3;
#X msg 172 290 text C2;
#X msg 469 295 text C1;
#X msg 648 314 text C4;
#X msg 334 291 text C5;
#X floatatom 164 178 5 0 0 0 - - -;
#X msg 807 196 3;
#X obj 766 121 translateXYZ -4.8 0.85 0;
#X connect 0 0 3 0;
#X connect 1 0 9 0;
#X connect 2 0 28 0;
#X connect 3 0 6 0;
#X connect 3 0 53 0;
#X connect 4 0 29 0;
#X connect 5 0 4 1;
#X connect 6 0 7 0;
#X connect 6 0 45 0;
#X connect 6 1 5 0;
#X connect 7 0 4 1;
#X connect 8 0 35 0;
#X connect 9 0 12 0;
#X connect 10 0 30 0;
#X connect 11 0 10 1;
#X connect 12 0 13 0;
#X connect 12 0 46 0;
#X connect 12 1 11 0;
#X connect 12 1 52 0;
#X connect 13 0 10 1;
#X connect 14 0 33 0;
#X connect 15 0 18 0;
#X connect 16 0 31 0;
#X connect 17 0 16 1;
#X connect 18 0 19 0;
#X connect 18 0 47 0;
#X connect 18 1 17 0;
#X connect 18 1 50 0;
#X connect 19 0 16 1;
#X connect 20 0 15 0;
#X connect 21 0 34 0;
#X connect 22 0 25 0;
#X connect 23 0 32 0;
#X connect 24 0 23 1;
#X connect 25 0 26 0;
#X connect 25 0 48 0;
#X connect 25 1 24 0;
#X connect 25 1 51 0;
#X connect 26 0 23 1;
#X connect 27 0 22 0;
#X connect 28 0 4 0;
#X connect 33 0 16 0;
#X connect 34 0 23 0;
#X connect 35 0 10 0;
#X connect 36 0 55 0;
#X connect 37 0 39 0;
#X connect 37 0 54 0;
#X connect 39 0 38 0;
#X connect 40 0 38 0;
#X connect 45 0 44 0;
#X connect 46 0 41 0;
#X connect 47 0 42 0;
#X connect 48 0 43 0;
#X connect 49 0 44 0;
#X connect 50 0 42 0;
#X connect 51 0 43 0;
#X connect 52 0 41 0;
#X connect 53 0 49 0;
#X connect 54 0 38 1;
#X connect 55 0 38 0;
#X restore 29 227 pd jlb;
#N canvas 0 0 1009 701 jlu 0;
#X obj 115 110 gemhead 1;
#X obj 115 237 color;
#X msg 185 213 1 0 0;
#X msg 127 212 0.4 0 0;
#X obj 256 106 gemhead 1;
#X obj 269 168 tgl 15 0 empty empty empty 17 7 0 10 -262144 -1 -1 0
1;
#X obj 256 233 color;
#X obj 269 186 sel 0 1;
#X obj 409 104 gemhead 1;
#X obj 409 231 color;
#X obj 566 105 gemhead 1;
#X obj 579 167 tgl 15 0 empty empty empty 17 7 0 10 -262144 -1 -1 0
1;
#X obj 566 232 color;
#X obj 579 185 sel 0 1;
#X obj 128 150 r jlu1;
#X obj 266 147 r jlu2;
#X obj 422 144 r jlu3;
#X obj 579 145 r jlu4;
#X obj 565 259 square 0.3;
#X obj 566 126 translateXYZ -4.3 2.6 0;
#X obj 114 264 square 0.12;
#X obj 255 260 square 0.12;
#X obj 115 131 translateXYZ -5.07 2.6 0;
#X obj 408 258 square 0.12;
#X obj 409 125 translateXYZ -4.8 2.4 0;
#X obj 256 127 translateXYZ -4.8 2.78 0;
#X obj 767 96 gemhead;
#X obj 811 149 loadbang;
#X msg 762 48 1;
#X obj 767 265 text3d;
#X msg 799 197 2.5;
#X obj 766 121 translateXYZ -4.5 3.05 0;
#X obj 806 218 r jlutext;
#X obj 694 332 s jlutext;
#X msg 651 289 text looper CTRL;
#X msg 657 267 text ---;
#X msg 776 238 font /home/onyx/beatjazzdir/vera.ttf;
#X obj 527 332 s jlutext;
#X msg 475 284 text ---;
#X obj 342 327 s jlutext;
#X msg 331 302 text ---;
#X obj 214 328 s jlutext;
#X msg 174 285 text ---;
#X msg 497 306 text sustain;
#X msg 299 284 text VOLUME;
#X msg 193 306 text STOP;
#X floatatom 488 177 5 0 0 0 - - -;
#X obj 439 183 sel 0 1;
#X obj 429 165 tgl 15 0 empty empty empty 17 7 0 10 -262144 -1 -1 0
1;
#X obj 143 168 tgl 15 0 empty empty empty 17 7 0 10 -262144 -1 -1 0
1;
#X obj 128 190 sel 0 1;
#X msg 636 208 0 1 0;
#X msg 421 206 0.4 0.3 0;
#X msg 578 207 0 0.3 0;
#X msg 479 207 1 1 0;
#X msg 326 209 1 1 0;
#X msg 268 208 0.4 0.3 0;
#X connect 0 0 22 0;
#X connect 1 0 20 0;
#X connect 2 0 1 1;
#X connect 3 0 1 1;
#X connect 4 0 25 0;
#X connect 5 0 7 0;
#X connect 6 0 21 0;
#X connect 7 0 56 0;
#X connect 7 0 40 0;
#X connect 7 1 55 0;
#X connect 7 1 44 0;
#X connect 8 0 24 0;
#X connect 9 0 23 0;
#X connect 10 0 19 0;
#X connect 11 0 13 0;
#X connect 12 0 18 0;
#X connect 13 0 53 0;
#X connect 13 0 35 0;
#X connect 13 1 51 0;
#X connect 13 1 34 0;
#X connect 14 0 49 0;
#X connect 15 0 5 0;
#X connect 16 0 48 0;
#X connect 17 0 11 0;
#X connect 19 0 12 0;
#X connect 22 0 1 0;
#X connect 24 0 9 0;
#X connect 25 0 6 0;
#X connect 26 0 31 0;
#X connect 27 0 36 0;
#X connect 27 0 30 0;
#X connect 28 0 26 0;
#X connect 30 0 29 1;
#X connect 31 0 29 0;
#X connect 32 0 29 0;
#X connect 34 0 33 0;
#X connect 36 0 29 0;
#X connect 38 0 37 0;
#X connect 40 0 39 0;
#X connect 42 0 41 0;
#X connect 43 0 37 0;
#X connect 44 0 39 0;
#X connect 45 0 41 0;
#X connect 47 0 52 0;
#X connect 47 0 38 0;
#X connect 47 1 54 0;
#X connect 47 1 43 0;
#X connect 48 0 47 0;
#X connect 49 0 50 0;
#X connect 50 0 3 0;
#X connect 50 0 42 0;
#X connect 50 1 2 0;
#X connect 50 1 45 0;
#X connect 51 0 12 1;
#X connect 52 0 9 1;
#X connect 53 0 12 1;
#X connect 54 0 9 1;
#X connect 55 0 6 1;
#X connect 56 0 6 1;
#X restore 29 207 pd jlu;
#X restore 879 286 pd viz elements;
#X obj -133 129 Instrumodekey2;
#X obj -134 273 Instrumodekey3;
#X obj -137 416 Instrumodekey4;
#X obj -175 474 vsl 30 128 1 0.9 0 0 empty empty empty 0 -9 0 10 -258113
-1 -1 0 1;
#X obj 865 46 s \$0-key5;
#X obj 925 46 s \$0-key6;
#X obj 996 45 s \$0-key7;
#X obj 1063 43 s \$0-key8;
#X obj 622 46 s \$0-key4;
#X obj 681 46 s \$0-key3;
#X obj 736 46 s \$0-key2;
#X obj 797 46 s \$0-key1;
#X obj 634 -21 r iekey4;
#X obj 691 -21 r iekey3;
#X obj 746 -20 r iekey2;
#X obj 802 -20 r iekey1;
#X obj 873 -26 r iekey5;
#X obj 930 -26 r iekey6;
#X obj 985 -25 r iekey7;
#X obj 1041 -25 r iekey8;
#X obj 244 -55 beatjazzviz1;
#X obj 264 312 pack f f f;
#X obj 1021 337 gemwin 30;
#X msg 1026 290 destroy;
#X msg 1004 5 4;
#X connect 1 0 21 0;
#X connect 2 0 21 0;
#X connect 3 0 21 0;
#X connect 7 0 6 0;
#X connect 7 0 11 0;
#X connect 8 0 5 0;
#X connect 8 0 24 0;
#X connect 9 0 4 0;
#X connect 9 0 25 0;
#X connect 10 0 27 0;
#X connect 10 0 26 0;
#X connect 12 0 20 0;
#X connect 13 0 20 0;
#X connect 14 0 20 0;
#X connect 15 0 20 0;
#X connect 16 0 11 2;
#X connect 17 0 24 2;
#X connect 18 0 25 2;
#X connect 19 0 26 2;
#X connect 20 0 16 0;
#X connect 20 0 17 0;
#X connect 20 0 18 0;
#X connect 20 0 19 0;
#X connect 21 0 0 0;
#X connect 36 0 32 0;
#X connect 36 0 26 1;
#X connect 36 0 15 0;
#X connect 37 0 14 0;
#X connect 37 0 25 1;
#X connect 37 0 33 0;
#X connect 38 0 13 0;
#X connect 38 0 34 0;
#X connect 38 0 24 1;
#X connect 39 0 12 0;
#X connect 39 0 35 0;
#X connect 39 0 11 1;
#X connect 40 0 1 0;
#X connect 40 0 28 0;
#X connect 41 0 2 0;
#X connect 41 0 29 0;
#X connect 42 0 3 0;
#X connect 42 0 30 0;
#X connect 43 0 48 0;
#X connect 43 0 31 0;
#X connect 47 0 46 0;
#X connect 48 0 21 0;
