#N canvas 0 0 1366 730 10;
#N canvas 0 0 1366 726 synth 0;
#X floatatom 64 54 5 0 0 0 - - -;
#X floatatom 98 55 5 0 0 0 - - -;
#X floatatom 134 56 5 0 0 0 - - -;
#X obj 56 130 spigot;
#X obj 57 36 unpack f f f;
#X obj 99 82 r \$0-pgm;
#X obj 115 104 tgl 15 0 empty empty empty 17 7 0 10 -262144 -1 -1 0
1;
#X obj 696 773 throw~ synthout2;
#X obj 114 129 == 0;
#X msg 122 173 0;
#X obj 229 425 inlet switch;
#X floatatom 247 369 5 0 0 0 - - -;
#X obj 245 348 r \$0-n7x;
#X obj 358 367 r \$0-n8y;
#X obj 57 15 r noteval;
#X obj 72 182 r xaxis;
#X obj 109 201 r \$0-n1x;
#X obj 544 279 r xaxis;
#X obj 732 324 r xaxis;
#X obj 623 173 r xaxis;
#X obj 160 184 r yaxis;
#X obj 659 292 r yaxis;
#X obj 660 192 r \$0-n4x;
#X obj 197 203 r \$0-n1y;
#X obj 769 343 r \$0-n3x;
#X obj 311 221 centerer;
#X obj 359 223 centerer;
#X obj 215 222 centerer;
#X obj 263 223 centerer;
#X obj 119 223 centerer;
#X obj 166 223 centerer;
#X obj 731 225 centerer;
#X obj 600 267 r \$0-n2x;
#X obj 696 311 r \$0-n2y;
#X obj -10 601 centerer;
#X obj -47 531 r xaxisr;
#X obj -10 550 r \$0-n5x;
#X obj 148 100 inlet;
#X obj 814 412 ftom;
#N canvas 200 10 978 722 bassemu 0;
#X text 368 160 CutOff;
#X text 422 160 Reso;
#X text 461 160 EnvMod;
#X text 511 160 Decay;
#X obj 382 65 loadbang;
#X obj 740 304 vradio 15 1 0 5 empty empty empty 0 -6 0 8 -262144 -1
-1 0;
#X msg 740 382 ext \$1;
#X obj 740 402 s bass_ctl;
#X obj 613 176 vsl 25 128 0 127 0 0 empty empty empty 0 -8 0 8 -262144
-1 -1 0 1;
#X msg 613 332 glide \$1;
#X obj 740 184 vradio 15 1 0 4 empty empty empty 0 -6 0 8 -262144 -1
-1 0;
#X obj 740 267 s bass_ctl;
#X msg 740 247 vco \$1;
#X obj 740 440 tgl 15 0 empty empty empty 0 -6 0 8 -262144 -1 -1 0
1;
#X obj 740 478 s bass_ctl;
#X msg 740 458 hpf \$1;
#X obj 74 403 vradio 15 1 0 3 empty empty empty 0 -6 0 8 -262144 -1
-1 0;
#X obj 74 471 s bass_ctl;
#X msg 74 451 limit \$1;
#X msg 739 123 tune \$1;
#X floatatom 739 105 5 0 0 0 - - -;
#X obj 739 145 s bass_ctl;
#X msg 739 82 440;
#X floatatom 61 211 5 0 0 0 - - -;
#X obj 476 410 r bass_ctl;
#X text 759 183 Saw;
#X text 759 199 Square;
#X text 759 215 Tri;
#X text 759 229 Sine;
#X text 760 441 VCO-HPF;
#X text 778 105 Tune;
#X text 757 302 Int.Only;
#X text 757 319 Ext.Only;
#X text 757 334 Int.+Ext.;
#X text 757 349 Ext.Only+HPF;
#X text 758 365 Int.+Ext.+HPF;
#X text 92 403 No limiting;
#X text 93 419 Hard Limiting;
#X text 93 434 Sine Limiting;
#X text 607 161 Glide;
#X msg 51 134 30 0.5 0.3 0.1 0.5;
#X obj 382 175 vsl 25 128 -1 1 0 0 empty empty empty 0 -8 0 8 -262144
-1 -1 9525 1;
#X obj 428 175 vsl 25 128 -1 2 0 0 empty empty empty 0 -8 0 8 -262144
-1 -1 7620 1;
#X obj 474 175 vsl 25 128 -1 2 0 0 empty empty empty 0 -8 0 8 -262144
-1 -1 7197 1;
#X obj 520 175 vsl 25 128 -1 1 0 0 empty empty empty 0 -8 0 8 -262144
-1 -1 6985 1;
#X obj 566 175 vsl 25 128 0 1 0 0 empty empty empty 0 -8 0 8 -262144
-1 -1 6350 1;
#X msg 382 132 0.5;
#X msg 428 132 0.8;
#X msg 474 132 0.7;
#X msg 520 132 0.1;
#X msg 566 132 0.5;
#X msg 61 275 -1;
#X text 46 107 <note> <reso> <envmod> <decay> <pulsewidth>;
#X text 47 94 Send Note-Events as List of Floats:;
#X text 61 257 -1 to turn Note Off;
#X text 49 118 All Parameters are optional;
#X obj 51 301 s bass_ctl;
#X text 54 385 Output-Signal Limiting:;
#X text 739 168 VCO WaveSelect:;
#X text 738 67 VCO Tuning:;
#X text 739 289 SoundSource:;
#X text 739 424 Extra HiPass:;
#X msg 234 493 envinc \$1;
#X obj 234 513 s bass_ctl;
#X msg 234 354 8;
#X msg 234 371 64;
#X msg 234 388 256;
#X msg 234 405 1024;
#X msg 234 422 8192;
#X msg 234 456 32768;
#X msg 234 473 65536;
#X msg 234 439 16384;
#X text 61 180 Note-Number to;
#X text 61 193 play immediatly;
#X text 202 339 EnvGen Stepsize:;
#X text 18 15 bassemu~: a transistor bass emulation;
#X text 17 37 You can feed an external audio source to;
#X text 17 51 the leftmost inlet.;
#X msg 382 315 cutoff \$1;
#X msg 428 335 reso \$1;
#X obj 474 371 s bass_ctl;
#X msg 474 311 envmod \$1;
#X msg 520 331 decay \$1;
#X msg 566 311 pw \$1;
#X msg 483 441 reset;
#X text 527 430 Emergency Reset;
#X text 527 443 in case the filter;
#X text 527 455 goes mad;
#X text 411 14 Extreme settings here may;
#X text 412 30 bork up the Filter. Use the;
#X text 411 44 reset message to the bassemu then;
#X text 564 150 Rect;
#X text 561 160 Width;
#X obj 613 311 / 127;
#X msg 227 286 pitch \$1;
#X obj 230 228 hsl 129 15 0 128 0 0 empty empty empty -2 -6 0 8 -262144
-1 -1 6400 1;
#X obj 227 245 - 64;
#X obj 227 305 s bass_ctl;
#X obj 227 264 / 16;
#X msg 227 209 64;
#X obj 260 246 nbx 5 14 -1e+037 1e+037 0 0 empty empty empty 0 -6 0
10 -262144 -1 -1 0 256;
#X text 268 209 Pitch Bend;
#N canvas 504 253 494 344 META 0;
#X text 12 135 RELEASE_DATE 2009-06-12;
#X text 12 155 HELP_PATCH_AUTHORS "pd meta" information added by Jonathan
Wilkes for Pd version 0.42.;
#X text 12 45 DESCRIPTION a transistor bass emulation;
#X text 12 65 INLET_0 float list reset pitch cutoff reso envmod decay
pw glide limit envinc hpf ext vco tune;
#X text 12 95 OUTLET_0 signal;
#X text 12 115 AUTHOR Christian Klippel;
#X text 12 25 LICENSE GPL;
#X text 12 5 KEYWORDS signal;
#X restore 810 537 pd META;
#X obj 476 478 bassemu~;
#X obj 465 511 outlet~;
#X obj 19 209 inlet;
#X obj 574 522 *~;
#X obj 616 475 r breath;
#X obj 647 528 / 127;
#X obj 655 559 sig~;
#X obj 656 599 lop~ 10;
#X floatatom 657 505 5 0 0 0 - - -;
#X floatatom 357 331 5 0 0 0 - - -;
#X floatatom 17 272 5 0 0 0 - - -;
#X obj 33 247 int;
#X obj 265 169 r lip;
#X floatatom 312 173 5 0 0 0 - - -;
#X obj 649 61 / 127;
#X floatatom 643 140 5 0 0 0 - - -;
#X obj 605 92 * 3;
#X floatatom 657 105 5 0 0 0 - - -;
#X obj 613 114 - 0.85;
#X msg 639 20 127 \$1;
#X obj 650 42 -;
#X obj 882 246 r xaxis;
#X floatatom 882 309 5 0 0 0 - - -;
#X floatatom 931 267 5 0 0 0 - - -;
#X obj 855 306 int;
#X floatatom 848 342 5 0 0 0 - - -;
#X obj 891 330 + 1;
#X obj 631 -17 r yaxisr;
#X obj 883 276 / 40;
#X connect 4 0 46 0;
#X connect 4 0 47 0;
#X connect 4 0 48 0;
#X connect 4 0 49 0;
#X connect 4 0 50 0;
#X connect 4 0 22 0;
#X connect 4 0 99 0;
#X connect 5 0 6 0;
#X connect 6 0 7 0;
#X connect 8 0 93 0;
#X connect 9 0 80 0;
#X connect 10 0 12 0;
#X connect 12 0 11 0;
#X connect 13 0 15 0;
#X connect 15 0 14 0;
#X connect 16 0 18 0;
#X connect 18 0 17 0;
#X connect 19 0 21 0;
#X connect 20 0 19 0;
#X connect 22 0 20 0;
#X connect 24 0 103 0;
#X connect 40 0 56 0;
#X connect 41 0 78 0;
#X connect 41 0 112 0;
#X connect 42 0 79 0;
#X connect 43 0 81 0;
#X connect 44 0 82 0;
#X connect 45 0 83 0;
#X connect 46 0 41 0;
#X connect 47 0 42 0;
#X connect 48 0 43 0;
#X connect 49 0 44 0;
#X connect 50 0 45 0;
#X connect 51 0 56 0;
#X connect 62 0 63 0;
#X connect 64 0 62 0;
#X connect 65 0 62 0;
#X connect 66 0 62 0;
#X connect 67 0 62 0;
#X connect 68 0 62 0;
#X connect 69 0 62 0;
#X connect 70 0 62 0;
#X connect 71 0 62 0;
#X connect 78 0 80 0;
#X connect 79 0 80 0;
#X connect 81 0 80 0;
#X connect 82 0 80 0;
#X connect 83 0 80 0;
#X connect 84 0 103 0;
#X connect 93 0 9 0;
#X connect 94 0 97 0;
#X connect 95 0 96 0;
#X connect 96 0 98 0;
#X connect 98 0 94 0;
#X connect 98 0 100 0;
#X connect 99 0 95 0;
#X connect 103 0 106 0;
#X connect 105 0 113 0;
#X connect 105 0 114 0;
#X connect 106 0 104 0;
#X connect 107 0 108 0;
#X connect 107 0 111 0;
#X connect 108 0 109 0;
#X connect 108 0 41 0;
#X connect 109 0 106 1;
#X connect 114 0 56 0;
#X connect 115 0 116 0;
#X connect 117 0 119 0;
#X connect 119 0 120 0;
#X connect 119 0 121 0;
#X connect 121 0 118 0;
#X connect 121 0 43 0;
#X connect 122 0 123 0;
#X connect 123 0 117 0;
#X connect 124 0 131 0;
#X connect 126 0 131 1;
#X connect 127 0 128 0;
#X connect 127 0 10 0;
#X connect 130 0 122 0;
#X connect 131 0 125 0;
#X connect 131 0 127 0;
#X restore 814 462 pd bassemu;
#X obj 851 434 - 12;
#X obj 435 649 r \$0-n8x;
#X obj 303 366 r \$0-n8y;
#X obj 1397 78 osc~;
#X obj 1397 55 * 7;
#X obj 1429 56 r frange8;
#X obj 1396 128 *~;
#X obj 166 568 karplus-strong;
#X obj 716 464 karplus;
#X obj 948 457 karplus2;
#X obj 444 176 r mynotemsg;
#X obj 488 236 unpack f f f;
#X obj 820 517 *~ 10;
#X floatatom 1069 580 5 0 0 0 - - -;
#X obj 1067 559 r \$0-n7x;
#X obj 1142 608 r \$0-n8y;
#X obj 1087 607 r \$0-n8x;
#X obj 1053 643 gverb;
#X obj 1053 470 mono-bitcrusher /key;
#X obj 1121 438 r \$0-n5x;
#X obj 1066 440 r \$0-n5y;
#X obj 1053 608 gdel;
#X obj 1125 561 r \$0-n7y;
#X connect 3 0 47 0;
#X connect 3 0 38 0;
#X connect 4 0 0 0;
#X connect 4 0 3 0;
#X connect 4 1 1 0;
#X connect 4 2 2 0;
#X connect 5 0 3 1;
#X connect 5 0 6 0;
#X connect 6 0 8 0;
#X connect 8 0 9 0;
#X connect 12 0 11 0;
#X connect 14 0 4 0;
#X connect 15 0 25 0;
#X connect 16 0 25 1;
#X connect 16 0 47 1;
#X connect 17 0 27 0;
#X connect 18 0 29 0;
#X connect 19 0 31 0;
#X connect 20 0 26 0;
#X connect 21 0 28 0;
#X connect 22 0 31 1;
#X connect 23 0 26 1;
#X connect 24 0 29 1;
#X connect 32 0 27 1;
#X connect 32 0 47 2;
#X connect 33 0 28 1;
#X connect 35 0 34 0;
#X connect 36 0 34 1;
#X connect 38 0 40 0;
#X connect 40 0 39 0;
#X connect 40 0 49 0;
#X connect 44 0 43 0;
#X connect 49 0 7 0;
#X connect 50 0 51 0;
#X connect 52 0 7 0;
#X connect 53 0 61 1;
#X connect 54 0 53 0;
#X connect 55 0 57 2;
#X connect 56 0 57 3;
#X connect 58 0 61 0;
#X connect 59 0 58 2;
#X connect 60 0 58 1;
#X connect 61 0 57 0;
#X connect 62 0 61 2;
#X coords 0 -1 1 1 350 70 1 60 220;
#X restore 374 -32 pd synth;
#X obj 603 50 inlet pgmout;
#X obj 711 108 gesturenode-r;
#X floatatom 897 17 5 0 0 0 - - -;
#X obj 441 241 s \$0-n1x;
#X obj 491 263 s \$0-n1y;
#X obj 522 241 s \$0-n1z;
#X obj 384 241 s \$0-n2z;
#X obj 340 261 s \$0-n2y;
#X obj 297 242 s \$0-n2x;
#X obj 238 241 s \$0-n3z;
#X obj 202 265 s \$0-n3y;
#X obj 154 242 s \$0-n3x;
#X obj 95 244 s \$0-n4z;
#X obj 44 262 s \$0-n4y;
#X obj 3 242 s \$0-n4x;
#X obj 811 242 s \$0-n5z;
#X obj 765 260 s \$0-n5y;
#X obj 722 241 s \$0-n5x;
#X obj 964 241 s \$0-n6z;
#X obj 876 241 s \$0-n6x;
#X obj 1106 238 s \$0-n7z;
#X obj 1064 260 s \$0-n7y;
#X obj 1020 241 s \$0-n7x;
#X obj 1255 239 s \$0-n8z;
#X obj 1207 264 s \$0-n8y;
#X obj 1168 241 s \$0-n8x;
#X text 810 21 n=node;
#X obj 1020 14 s \$0-n \$1 z;
#X obj 940 15 s \$0-pgm;
#X text 429 31 assign to single unrelated vectors;
#X obj 534 49 r parakey;
#X obj 474 92 == 1;
#X obj 60 88 r frange4;
#X obj 204 91 r frange3;
#X obj 363 92 r frange2;
#X obj 511 92 r frange1;
#X obj 27 89 == 4;
#X obj 171 92 == 3;
#X obj 327 93 == 2;
#X obj 1101 36 r parakey;
#X obj 762 56 == 5;
#X obj 795 55 r frange5;
#X obj 907 57 == 6;
#X obj 940 56 r frange6;
#X obj 1037 61 == 7;
#X obj 1073 60 r frange7;
#X obj 1179 64 == 8;
#X obj 1216 64 r frange8;
#X obj 866 111 gesturenode-r;
#X obj 1020 111 gesturenode-r;
#X obj 1177 109 gesturenode-r;
#X obj 318 121 gesturenode;
#X obj 706 321 gesturenode-r;
#X obj 861 321 gesturenode-r;
#X obj 1015 321 gesturenode-r;
#X obj 1172 319 gesturenode-r;
#X obj 708 516 gesturenode-r;
#X obj 862 519 gesturenode-r;
#X obj 1017 516 gesturenode-r;
#X obj 1174 514 gesturenode-r;
#X obj 467 283 == 9;
#X obj 320 284 == 10;
#X obj 164 283 == 11;
#X obj 20 280 == 12;
#X obj 724 286 == 13;
#X obj 868 289 == 14;
#X obj 1024 290 == 15;
#X obj 1171 289 == 16;
#X obj 469 477 == 17;
#X obj 322 478 == 18;
#X obj 166 477 == 19;
#X obj 22 474 == 20;
#X obj 727 478 == 21;
#X obj 871 481 == 22;
#X obj 1027 482 == 23;
#X obj 1174 481 == 24;
#X obj 637 197 r parakey;
#X obj 562 461 r parakey;
#X text 639 360 (x)jb1;
#X text 646 569 (x)jb4;
#X floatatom 647 302 5 0 0 0 - - -;
#X obj 625 261 t f;
#X obj 622 463 t f;
#X obj 441 435 s \$0-n9x;
#X obj 491 457 s \$0-n9y;
#X obj 522 435 s \$0-n9z;
#X obj 297 436 s \$0-n10x;
#X obj 340 455 s \$0-n10y;
#X obj 384 435 s \$0-n10z;
#X obj 154 436 s \$0-n11x;
#X obj 202 459 s \$0-n11y;
#X obj 238 435 s \$0-n11z;
#X obj 3 436 s \$0-n12x;
#X obj 44 456 s \$0-n12y;
#X obj 95 438 s \$0-n12z;
#X obj 7 626 s \$0-n20x;
#X obj 48 646 s \$0-n20y;
#X obj 99 628 s \$0-n20z;
#X obj 158 626 s \$0-n19x;
#X obj 206 649 s \$0-19y;
#X obj 242 625 s \$0-19z;
#X obj 301 626 s \$0-n18x;
#X obj 344 645 s \$0-n18y;
#X obj 388 625 s \$0-n18z;
#X obj 445 625 s \$0-n17x;
#X obj 495 647 s \$0-n17y;
#X obj 526 625 s \$0-n17z;
#X obj 719 445 s \$0-n13x;
#X obj 762 464 s \$0-n13y;
#X obj 808 446 s \$0-13z;
#X obj 873 445 s \$0-n14x;
#X obj 961 445 s \$0-n14z;
#X obj 1017 445 s \$0-n15x;
#X obj 1061 464 s \$0-n15y;
#X obj 1103 442 s \$0-n15z;
#X obj 1165 445 s \$0-n16x;
#X obj 1204 468 s \$0-n16y;
#X obj 1252 443 s \$0-n16z;
#X obj 709 640 s \$0-n21x;
#X obj 752 659 s \$0-n21y;
#X obj 798 641 s \$0-n21z;
#X obj 863 640 s \$0-n22x;
#X obj 907 660 s \$0-n22y;
#X obj 939 640 s \$0-n22z;
#X obj 1007 640 s \$0-n23x;
#X obj 1051 659 s \$0-n23y;
#X obj 1093 637 s \$0-n23z;
#X obj 1155 640 s \$0-n24x;
#X obj 1194 663 s \$0-24y;
#X obj 1242 638 s \$0-n24z;
#X obj 1108 66;
#X floatatom 703 247 5 0 0 0 - - -;
#X obj 920 261 s \$0-n6y;
#X obj 917 465 s \$0-n14y;
#X obj 639 123 switch~;
#X obj 2 1 cnv 15 58 58 empty empty empty 20 12 0 14 -4160 -66577 0
;
#X floatatom 663 167 5 0 0 0 - - -;
#X obj 474 122 gesturenode;
#X obj 164 121 gesturenode;
#X obj 8 119 gesturenode;
#X obj 478 506 gesturenode;
#X obj 168 505 gesturenode;
#X obj 322 505 gesturenode;
#X obj 12 503 gesturenode;
#X obj 474 316 gesturenode;
#X obj 164 315 gesturenode;
#X obj 318 315 gesturenode;
#X obj 8 313 gesturenode;
#X obj 655 83 tgl 15 0 empty empty empty 17 7 0 10 -262144 -1 -1 0
1;
#X connect 1 0 3 0;
#X connect 1 0 29 0;
#X connect 1 0 2 1;
#X connect 1 0 49 1;
#X connect 1 0 50 1;
#X connect 1 0 51 1;
#X connect 1 0 52 1;
#X connect 1 0 82 0;
#X connect 1 0 83 0;
#X connect 1 0 135 0;
#X connect 1 0 0 1;
#X connect 1 0 138 1;
#X connect 1 0 139 1;
#X connect 1 0 140 1;
#X connect 2 0 18 0;
#X connect 2 0 132 0;
#X connect 2 1 17 0;
#X connect 2 2 16 0;
#X connect 31 0 32 0;
#X connect 31 0 37 0;
#X connect 31 0 38 0;
#X connect 31 0 39 0;
#X connect 32 0 138 0;
#X connect 33 0 140 2;
#X connect 33 0 144 2;
#X connect 33 0 148 2;
#X connect 34 0 139 2;
#X connect 34 0 142 2;
#X connect 34 0 146 2;
#X connect 35 0 52 2;
#X connect 35 0 137 0;
#X connect 35 0 143 2;
#X connect 35 0 147 2;
#X connect 36 0 138 2;
#X connect 36 0 141 2;
#X connect 36 0 145 2;
#X connect 37 0 140 0;
#X connect 38 0 139 0;
#X connect 39 0 52 0;
#X connect 40 0 41 0;
#X connect 40 0 43 0;
#X connect 40 0 45 0;
#X connect 40 0 47 0;
#X connect 41 0 2 0;
#X connect 42 0 2 2;
#X connect 42 0 53 2;
#X connect 42 0 57 2;
#X connect 43 0 49 0;
#X connect 44 0 49 2;
#X connect 44 0 54 2;
#X connect 44 0 58 2;
#X connect 45 0 50 0;
#X connect 46 0 50 2;
#X connect 46 0 55 2;
#X connect 46 0 59 2;
#X connect 47 0 51 0;
#X connect 48 0 51 2;
#X connect 48 0 56 2;
#X connect 48 0 60 2;
#X connect 49 0 20 0;
#X connect 49 1 133 0;
#X connect 49 2 19 0;
#X connect 50 0 23 0;
#X connect 50 1 22 0;
#X connect 50 2 21 0;
#X connect 51 0 26 0;
#X connect 51 1 25 0;
#X connect 51 2 24 0;
#X connect 52 0 9 0;
#X connect 52 1 8 0;
#X connect 52 2 7 0;
#X connect 53 0 108 0;
#X connect 53 1 109 0;
#X connect 53 2 110 0;
#X connect 54 0 111 0;
#X connect 54 1 134 0;
#X connect 54 2 112 0;
#X connect 55 0 113 0;
#X connect 55 1 114 0;
#X connect 55 2 115 0;
#X connect 56 0 116 0;
#X connect 56 1 117 0;
#X connect 56 2 118 0;
#X connect 57 0 119 0;
#X connect 57 1 120 0;
#X connect 57 3 121 0;
#X connect 58 0 122 0;
#X connect 58 1 123 0;
#X connect 58 2 124 0;
#X connect 59 0 125 0;
#X connect 59 1 126 0;
#X connect 59 2 127 0;
#X connect 60 0 128 0;
#X connect 60 1 129 0;
#X connect 60 2 130 0;
#X connect 61 0 145 0;
#X connect 62 0 147 0;
#X connect 63 0 146 0;
#X connect 64 0 148 0;
#X connect 65 0 53 0;
#X connect 66 0 54 0;
#X connect 67 0 55 0;
#X connect 68 0 56 0;
#X connect 69 0 141 0;
#X connect 70 0 143 0;
#X connect 71 0 142 0;
#X connect 72 0 144 0;
#X connect 73 0 57 0;
#X connect 74 0 58 0;
#X connect 75 0 59 0;
#X connect 76 0 60 0;
#X connect 77 0 61 0;
#X connect 77 0 62 0;
#X connect 77 0 63 0;
#X connect 77 0 64 0;
#X connect 77 0 65 0;
#X connect 77 0 66 0;
#X connect 77 0 67 0;
#X connect 77 0 68 0;
#X connect 78 0 69 0;
#X connect 78 0 70 0;
#X connect 78 0 71 0;
#X connect 78 0 72 0;
#X connect 78 0 73 0;
#X connect 78 0 74 0;
#X connect 78 0 75 0;
#X connect 78 0 76 0;
#X connect 82 0 53 1;
#X connect 82 0 54 1;
#X connect 82 0 55 1;
#X connect 82 0 56 1;
#X connect 82 0 81 0;
#X connect 82 0 145 1;
#X connect 82 0 146 1;
#X connect 82 0 147 1;
#X connect 82 0 148 1;
#X connect 83 0 57 1;
#X connect 83 0 58 1;
#X connect 83 0 59 1;
#X connect 83 0 60 1;
#X connect 83 0 141 1;
#X connect 83 0 142 1;
#X connect 83 0 143 1;
#X connect 83 0 144 1;
#X connect 138 0 4 0;
#X connect 138 1 5 0;
#X connect 138 2 6 0;
#X connect 139 0 12 0;
#X connect 139 1 11 0;
#X connect 139 2 10 0;
#X connect 140 0 15 0;
#X connect 140 1 14 0;
#X connect 140 2 13 0;
#X connect 141 0 105 0;
#X connect 141 1 106 0;
#X connect 141 2 107 0;
#X connect 142 0 99 0;
#X connect 142 1 100 0;
#X connect 142 2 101 0;
#X connect 143 0 102 0;
#X connect 143 1 103 0;
#X connect 143 2 104 0;
#X connect 144 0 96 0;
#X connect 144 1 97 0;
#X connect 144 2 98 0;
#X connect 145 0 84 0;
#X connect 145 1 85 0;
#X connect 145 2 86 0;
#X connect 146 0 90 0;
#X connect 146 1 91 0;
#X connect 146 2 92 0;
#X connect 147 0 87 0;
#X connect 147 1 88 0;
#X connect 147 2 89 0;
#X connect 148 0 93 0;
#X connect 148 1 94 0;
#X connect 148 2 95 0;
#X connect 149 0 135 0;
#X coords 0 -1 1 1 60 60 1 0 0;
