#N canvas 0 213 1366 726 10;
#N canvas 0 0 1366 726 synth 1;
#X floatatom 64 54 5 0 0 0 - - -;
#X floatatom 98 55 5 0 0 0 - - -;
#X floatatom 134 56 5 0 0 0 - - -;
#X obj 66 502 / 127;
#X obj 66 524 sig~;
#X obj 51 570 *~;
#X obj 57 106 spigot;
#X obj 57 36 unpack f f f;
#X obj 65 459 spigot;
#X obj 65 434 r breath;
#X text 48 670 catch is in looplayer;
#X obj 99 82 r \$0-pgm;
#X floatatom 103 503 5 0 0 0 - - -;
#X obj 71 351 +~;
#X obj 71 374 osc~;
#X obj 86 299 osc~;
#X obj 86 326 *~;
#X obj 132 242 mtof~;
#X obj 125 299 mtof~;
#X obj 56 401 +~;
#X obj 56 253 phasor~;
#X obj 241 38 r lip;
#N canvas 0 0 450 344 lip 0;
#X obj 203 241 sig~;
#X obj 201 22 - 89;
#X floatatom 202 52 5 0 0 0 - - -;
#X floatatom 200 102 5 0 0 0 - - -;
#X floatatom 203 182 5 0 0 0 - - -;
#X obj 205 216 +;
#X obj 207 75 / 127;
#X obj 199 125 * 255;
#X obj 204 149 int;
#X obj 259 227 knob 32 32 -150 150 0 0 empty empty empty 0 -8 0 8 -262144
-1 -1 1023 1;
#X obj 208 275 outlet~;
#X obj 271 276 outlet;
#X obj 201 -6 r lip;
#X connect 0 0 10 0;
#X connect 1 0 2 0;
#X connect 2 0 6 0;
#X connect 3 0 7 0;
#X connect 4 0 5 0;
#X connect 5 0 0 0;
#X connect 5 0 9 0;
#X connect 5 0 11 0;
#X connect 6 0 3 0;
#X connect 7 0 8 0;
#X connect 8 0 4 0;
#X connect 12 0 1 0;
#X restore 239 57 pd lip out;
#X obj 72 208 +~;
#X floatatom 470 462 5 0 0 0 - - -;
#X obj 468 441 r \$0-n7x;
#X obj 428 448 gdel;
#X floatatom 245 21 5 0 0 0 - - -;
#N canvas 0 0 771 300 centerer 0;
#X floatatom 219 94 5 0 0 0 - - -;
#X obj 255 68 / 10;
#X obj 255 95 - 9;
#X floatatom 217 117 5 0 0 0 - - -;
#X floatatom 215 62 5 0 0 0 - - -;
#X floatatom 219 141 5 0 0 0 - - -;
#X obj 255 118 + 3;
#X floatatom 287 122 5 0 0 0 - - -;
#X floatatom 103 142 5 0 0 0 - - -;
#X obj 255 144 +;
#X obj 255 168 f;
#X text 490 10 centerer;
#X obj 256 46 inlet axis;
#X obj 356 48 inlet centerval;
#X obj 102 103 knob 32 32 0 127 0 0 empty empty empty 0 -8 0 8 -262144
-1 -1 491 1;
#X obj 108 109 knob 20 20 -5 5 0 0 empty empty empty 0 -8 0 8 -258113
-1 -1 1900 1;
#X text 7 14 this value will be the xlrmtr axis scaled to only be5-6
degrees around the center value coming from the second inlet;
#X text 353 65 this value will come from a gesture node value;
#X obj 255 207 outlet;
#X connect 1 0 0 0;
#X connect 1 0 2 0;
#X connect 2 0 3 0;
#X connect 2 0 6 0;
#X connect 6 0 5 0;
#X connect 6 0 9 0;
#X connect 7 0 9 1;
#X connect 9 0 10 0;
#X connect 10 0 8 0;
#X connect 10 0 18 0;
#X connect 10 0 15 0;
#X connect 12 0 1 0;
#X connect 12 0 4 0;
#X connect 13 0 9 1;
#X connect 13 0 14 0;
#X coords 0 -1 1 1 40 60 2 100 100;
#X restore 139 173 pd centerer;
#X obj 139 146 r xaxis;
#N canvas 0 0 771 300 centerer 0;
#X floatatom 219 94 5 0 0 0 - - -;
#X obj 255 68 / 10;
#X obj 255 95 - 9;
#X floatatom 217 117 5 0 0 0 - - -;
#X floatatom 215 62 5 0 0 0 - - -;
#X floatatom 219 141 5 0 0 0 - - -;
#X obj 255 118 + 3;
#X floatatom 287 122 5 0 0 0 - - -;
#X floatatom 103 142 5 0 0 0 - - -;
#X obj 255 144 +;
#X obj 255 168 f;
#X text 490 10 centerer;
#X obj 256 46 inlet axis;
#X obj 356 48 inlet centerval;
#X obj 102 103 knob 32 32 0 127 0 0 empty empty empty 0 -8 0 8 -262144
-1 -1 630 1;
#X obj 108 108 knob 20 20 0 127 0 0 empty empty empty 0 -8 0 8 -258113
-1 -1 467 1;
#X text 7 14 this value will be the xlrmtr axis scaled to only be5-6
degrees around the center value coming from the second inlet;
#X text 353 65 this value will come from a gesture node value;
#X obj 255 207 outlet;
#X floatatom 318 185 5 0 0 0 - - -;
#X connect 1 0 0 0;
#X connect 1 0 2 0;
#X connect 2 0 3 0;
#X connect 2 0 6 0;
#X connect 6 0 5 0;
#X connect 6 0 9 0;
#X connect 7 0 9 1;
#X connect 9 0 10 0;
#X connect 10 0 8 0;
#X connect 10 0 18 0;
#X connect 10 0 15 0;
#X connect 10 0 19 0;
#X connect 12 0 1 0;
#X connect 12 0 4 0;
#X connect 13 0 9 1;
#X connect 13 0 14 0;
#X coords 0 -1 1 1 40 60 2 100 100;
#X restore 197 169 pd centerer;
#X obj 195 147 r yaxis;
#X obj 67 547 lop~ 100;
#X obj 24 367 osc~;
#X obj 34 465 *~;
#X obj 625 707 throw~ synthout4;
#X obj 113 268 -~;
#X obj 57 15 r noteval;
#X obj 57 151 sig~;
#X obj 153 411 syn-sinesumOsc /key;
#X obj 186 300 r xaxis;
#X obj 274 302 r yaxis;
#X obj 186 339 centerer;
#X obj 234 341 centerer;
#X obj 53 619 +~;
#X obj 194 122 r \$0-n1y;
#X obj 135 120 r \$0-n1x;
#X obj 223 319 r \$0-n2x;
#X obj 311 321 r \$0-n2y;
#X obj 153 492 *~ 0.2;
#X obj 430 418 cheby~ 5;
#X floatatom 429 336 5 0 0 0 - - -;
#X obj 429 360 dbtorms;
#X msg 429 393 coef 4 \$1;
#X obj 429 311 / 50;
#X obj 573 642 *~ 0.3;
#X obj 557 427 r xaxisr;
#X obj 612 427 r yaxisr;
#X obj 628 482 centerer;
#X obj 550 482 centerer;
#X obj 487 554 mono-pureverb /key;
#X obj 611 447 r \$0-n8y;
#X obj 556 446 r \$0-n8x;
#X obj 570 686 *~ 2;
#X obj 737 516 mono-peakfilter /key;
#X obj 719 425 r breath;
#X obj 829 465 loadbang;
#X msg 915 434 1;
#X obj 812 402 / 80;
#X obj 723 609 mono-bitcrusher /key;
#X floatatom 502 411 5 0 0 0 - - -;
#X obj 500 390 r \$0-n7y;
#X obj 900 352 r \$0-n5y;
#X obj 910 362 r \$0-n5x;
#X obj 655 672 *~ 5;
#X connect 3 0 4 0;
#X connect 3 0 12 0;
#X connect 4 0 32 0;
#X connect 5 0 44 0;
#X connect 6 0 39 0;
#X connect 6 0 38 0;
#X connect 7 0 0 0;
#X connect 7 0 6 0;
#X connect 7 1 1 0;
#X connect 7 2 2 0;
#X connect 8 0 3 0;
#X connect 8 0 54 0;
#X connect 9 0 8 0;
#X connect 11 0 6 1;
#X connect 11 0 8 1;
#X connect 13 0 14 0;
#X connect 14 0 19 1;
#X connect 15 0 16 0;
#X connect 16 0 13 1;
#X connect 17 0 36 1;
#X connect 18 0 16 1;
#X connect 19 0 34 1;
#X connect 20 0 19 0;
#X connect 23 0 13 0;
#X connect 23 0 20 0;
#X connect 23 0 36 0;
#X connect 24 0 26 1;
#X connect 25 0 24 0;
#X connect 26 0 60 0;
#X connect 28 0 17 0;
#X connect 29 0 28 0;
#X connect 30 0 18 0;
#X connect 31 0 30 0;
#X connect 32 0 5 1;
#X connect 33 0 34 0;
#X connect 34 0 5 0;
#X connect 36 0 15 0;
#X connect 37 0 7 0;
#X connect 38 0 23 0;
#X connect 38 0 33 0;
#X connect 38 0 23 1;
#X connect 39 0 49 0;
#X connect 40 0 42 0;
#X connect 41 0 43 0;
#X connect 42 0 39 1;
#X connect 43 0 39 2;
#X connect 44 0 50 0;
#X connect 44 0 55 0;
#X connect 45 0 30 1;
#X connect 46 0 28 1;
#X connect 47 0 42 1;
#X connect 48 0 43 1;
#X connect 49 0 44 1;
#X connect 50 0 26 0;
#X connect 51 0 52 0;
#X connect 52 0 53 0;
#X connect 53 0 50 0;
#X connect 54 0 51 0;
#X connect 55 0 63 0;
#X connect 56 0 59 0;
#X connect 57 0 58 0;
#X connect 58 0 60 1;
#X connect 59 0 60 2;
#X connect 60 0 63 0;
#X connect 61 0 58 1;
#X connect 62 0 59 1;
#X connect 63 0 64 0;
#X connect 64 0 69 0;
#X connect 64 0 74 0;
#X connect 65 0 68 0;
#X connect 66 0 67 0;
#X connect 67 0 64 2;
#X connect 68 0 64 1;
#X connect 69 0 74 0;
#X connect 71 0 70 0;
#X connect 71 0 26 2;
#X connect 72 0 69 1;
#X connect 73 0 69 2;
#X connect 74 0 35 0;
#X restore 721 9 pd synth;
#X obj 603 50 inlet pgmout;
#X obj 474 122 gesturenode;
#X obj 711 108 gesturenode-r;
#X floatatom 879 11 5 0 0 0 - - -;
#X obj 441 241 s \$0-n1x;
#X obj 491 263 s \$0-n1y;
#X obj 522 241 s \$0-n1z;
#X obj 384 241 s \$0-n2z;
#X obj 340 261 s \$0-n2y;
#X obj 297 242 s \$0-n2x;
#X obj 238 241 s \$0-n3z;
#X obj 202 265 s \$0-n3y;
#X obj 154 242 s \$0-n3x;
#X obj 95 244 s \$0-n4z;
#X obj 44 262 s \$0-n4y;
#X obj 3 242 s \$0-n4x;
#X obj 811 242 s \$0-n5z;
#X obj 765 260 s \$0-n5y;
#X obj 722 241 s \$0-n5x;
#X obj 964 241 s \$0-n6z;
#X obj 876 241 s \$0-n6x;
#X obj 1106 238 s \$0-n7z;
#X obj 1064 260 s \$0-n7y;
#X obj 1020 241 s \$0-n7x;
#X obj 1255 239 s \$0-n8z;
#X obj 1207 264 s \$0-n8y;
#X obj 1168 241 s \$0-n8x;
#X text 792 15 n=node;
#X obj 1002 8 s \$0-n \$1 z;
#X obj 922 9 s \$0-pgm;
#X text 429 31 assign to single unrelated vectors;
#X obj 534 49 r parakey;
#X obj 474 92 == 1;
#X obj 60 88 r frange4;
#X obj 204 91 r frange3;
#X obj 363 92 r frange2;
#X obj 511 92 r frange1;
#X obj 27 89 == 4;
#X obj 171 92 == 3;
#X obj 327 93 == 2;
#X obj 1101 36 r parakey;
#X obj 762 56 == 5;
#X obj 795 55 r frange5;
#X obj 907 57 == 6;
#X obj 940 56 r frange6;
#X obj 1037 61 == 7;
#X obj 1073 60 r frange7;
#X obj 1179 64 == 8;
#X obj 1216 64 r frange8;
#X obj 164 121 gesturenode;
#X obj 318 121 gesturenode;
#X obj 8 119 gesturenode;
#X obj 478 506 gesturenode;
#X obj 168 505 gesturenode;
#X obj 322 505 gesturenode;
#X obj 12 503 gesturenode;
#X obj 474 316 gesturenode;
#X obj 164 315 gesturenode;
#X obj 318 315 gesturenode;
#X obj 8 313 gesturenode;
#X obj 467 283 == 9;
#X obj 320 284 == 10;
#X obj 164 283 == 11;
#X obj 20 280 == 12;
#X obj 724 286 == 13;
#X obj 868 289 == 14;
#X obj 1024 290 == 15;
#X obj 1171 289 == 16;
#X obj 469 477 == 17;
#X obj 322 478 == 18;
#X obj 166 477 == 19;
#X obj 22 474 == 20;
#X obj 727 478 == 21;
#X obj 871 481 == 22;
#X obj 1027 482 == 23;
#X obj 1174 481 == 24;
#X obj 637 197 r parakey;
#X obj 562 461 r parakey;
#X text 639 360 (x)jb1;
#X text 646 569 (x)jb4;
#X floatatom 647 302 5 0 0 0 - - -;
#X obj 625 261 t f;
#X obj 622 463 t f;
#X obj 441 435 s \$0-n9x;
#X obj 491 457 s \$0-n9y;
#X obj 522 435 s \$0-n9z;
#X obj 297 436 s \$0-n10x;
#X obj 340 455 s \$0-n10y;
#X obj 384 435 s \$0-n10z;
#X obj 154 436 s \$0-n11x;
#X obj 202 459 s \$0-n11y;
#X obj 238 435 s \$0-n11z;
#X obj 3 436 s \$0-n12x;
#X obj 44 456 s \$0-n12y;
#X obj 95 438 s \$0-n12z;
#X obj 7 626 s \$0-n20x;
#X obj 48 646 s \$0-n20y;
#X obj 99 628 s \$0-n20z;
#X obj 158 626 s \$0-n19x;
#X obj 206 649 s \$0-19y;
#X obj 242 625 s \$0-19z;
#X obj 301 626 s \$0-n18x;
#X obj 344 645 s \$0-n18y;
#X obj 388 625 s \$0-n18z;
#X obj 445 625 s \$0-n17x;
#X obj 495 647 s \$0-n17y;
#X obj 526 625 s \$0-n17z;
#X obj 719 445 s \$0-n13x;
#X obj 762 464 s \$0-n13y;
#X obj 808 446 s \$0-13z;
#X obj 873 445 s \$0-n14x;
#X obj 961 445 s \$0-n14z;
#X obj 1017 445 s \$0-n15x;
#X obj 1061 464 s \$0-n15y;
#X obj 1103 442 s \$0-n15z;
#X obj 1165 445 s \$0-n16x;
#X obj 1204 468 s \$0-n16y;
#X obj 1252 443 s \$0-n16z;
#X obj 709 640 s \$0-n21x;
#X obj 752 659 s \$0-n21y;
#X obj 798 641 s \$0-n21z;
#X obj 863 640 s \$0-n22x;
#X obj 907 660 s \$0-n22y;
#X obj 939 640 s \$0-n22z;
#X obj 1007 640 s \$0-n23x;
#X obj 1051 659 s \$0-n23y;
#X obj 1093 637 s \$0-n23z;
#X obj 1155 640 s \$0-n24x;
#X obj 1194 663 s \$0-24y;
#X obj 1242 638 s \$0-n24z;
#X obj 1108 66;
#X floatatom 703 247 5 0 0 0 - - -;
#X obj 920 261 s \$0-n6y;
#X obj 917 465 s \$0-n14y;
#X obj 646 114 switch~;
#X obj 2 1 cnv 15 60 58 empty empty empty 20 12 0 14 -159808 -66577
0;
#X floatatom 598 81 5 0 0 0 - - -;
#X obj 866 111 gesturenode-r;
#X obj 1020 111 gesturenode-r;
#X obj 1177 109 gesturenode-r;
#X obj 706 321 gesturenode-r;
#X obj 861 321 gesturenode-r;
#X obj 1015 321 gesturenode-r;
#X obj 1172 319 gesturenode-r;
#X obj 708 516 gesturenode-r;
#X obj 862 519 gesturenode-r;
#X obj 1017 516 gesturenode-r;
#X obj 1174 514 gesturenode-r;
#X connect 1 0 4 0;
#X connect 1 0 30 0;
#X connect 1 0 2 1;
#X connect 1 0 3 1;
#X connect 1 0 50 1;
#X connect 1 0 51 1;
#X connect 1 0 52 1;
#X connect 1 0 82 0;
#X connect 1 0 83 0;
#X connect 1 0 135 0;
#X connect 1 0 138 1;
#X connect 1 0 139 1;
#X connect 1 0 140 1;
#X connect 2 0 5 0;
#X connect 2 1 6 0;
#X connect 2 2 7 0;
#X connect 3 0 19 0;
#X connect 3 0 132 0;
#X connect 3 1 18 0;
#X connect 3 2 17 0;
#X connect 32 0 33 0;
#X connect 32 0 38 0;
#X connect 32 0 39 0;
#X connect 32 0 40 0;
#X connect 32 0 137 0;
#X connect 33 0 2 0;
#X connect 34 0 52 2;
#X connect 34 0 60 2;
#X connect 34 0 56 2;
#X connect 35 0 50 2;
#X connect 35 0 58 2;
#X connect 35 0 54 2;
#X connect 36 0 51 2;
#X connect 36 0 59 2;
#X connect 36 0 55 2;
#X connect 37 0 2 2;
#X connect 37 0 57 2;
#X connect 37 0 53 2;
#X connect 38 0 52 0;
#X connect 39 0 50 0;
#X connect 40 0 51 0;
#X connect 41 0 42 0;
#X connect 41 0 44 0;
#X connect 41 0 46 0;
#X connect 41 0 48 0;
#X connect 42 0 3 0;
#X connect 43 0 3 2;
#X connect 43 0 141 2;
#X connect 43 0 145 2;
#X connect 44 0 138 0;
#X connect 45 0 138 2;
#X connect 45 0 142 2;
#X connect 45 0 146 2;
#X connect 46 0 139 0;
#X connect 47 0 139 2;
#X connect 47 0 143 2;
#X connect 47 0 147 2;
#X connect 48 0 140 0;
#X connect 49 0 140 2;
#X connect 49 0 144 2;
#X connect 49 0 148 2;
#X connect 50 0 13 0;
#X connect 50 1 12 0;
#X connect 50 2 11 0;
#X connect 51 0 10 0;
#X connect 51 1 9 0;
#X connect 51 2 8 0;
#X connect 52 0 16 0;
#X connect 52 1 15 0;
#X connect 52 2 14 0;
#X connect 53 0 105 0;
#X connect 53 1 106 0;
#X connect 53 2 107 0;
#X connect 54 0 99 0;
#X connect 54 1 100 0;
#X connect 54 2 101 0;
#X connect 55 0 102 0;
#X connect 55 1 103 0;
#X connect 55 2 104 0;
#X connect 56 0 96 0;
#X connect 56 1 97 0;
#X connect 56 2 98 0;
#X connect 57 0 84 0;
#X connect 57 1 85 0;
#X connect 57 2 86 0;
#X connect 58 0 90 0;
#X connect 58 1 91 0;
#X connect 58 2 92 0;
#X connect 59 0 87 0;
#X connect 59 1 88 0;
#X connect 59 2 89 0;
#X connect 60 0 93 0;
#X connect 60 1 94 0;
#X connect 60 2 95 0;
#X connect 61 0 57 0;
#X connect 62 0 59 0;
#X connect 63 0 58 0;
#X connect 64 0 60 0;
#X connect 65 0 141 0;
#X connect 66 0 142 0;
#X connect 67 0 143 0;
#X connect 68 0 144 0;
#X connect 69 0 53 0;
#X connect 70 0 55 0;
#X connect 71 0 54 0;
#X connect 72 0 56 0;
#X connect 73 0 145 0;
#X connect 74 0 146 0;
#X connect 75 0 147 0;
#X connect 76 0 148 0;
#X connect 77 0 61 0;
#X connect 77 0 62 0;
#X connect 77 0 63 0;
#X connect 77 0 64 0;
#X connect 77 0 65 0;
#X connect 77 0 66 0;
#X connect 77 0 67 0;
#X connect 77 0 68 0;
#X connect 78 0 69 0;
#X connect 78 0 70 0;
#X connect 78 0 71 0;
#X connect 78 0 72 0;
#X connect 78 0 73 0;
#X connect 78 0 74 0;
#X connect 78 0 75 0;
#X connect 78 0 76 0;
#X connect 82 0 57 1;
#X connect 82 0 59 1;
#X connect 82 0 58 1;
#X connect 82 0 60 1;
#X connect 82 0 81 0;
#X connect 82 0 141 1;
#X connect 82 0 142 1;
#X connect 82 0 143 1;
#X connect 82 0 144 1;
#X connect 83 0 53 1;
#X connect 83 0 55 1;
#X connect 83 0 54 1;
#X connect 83 0 56 1;
#X connect 83 0 145 1;
#X connect 83 0 146 1;
#X connect 83 0 147 1;
#X connect 83 0 148 1;
#X connect 138 0 21 0;
#X connect 138 1 133 0;
#X connect 138 2 20 0;
#X connect 139 0 24 0;
#X connect 139 1 23 0;
#X connect 139 2 22 0;
#X connect 140 0 27 0;
#X connect 140 1 26 0;
#X connect 140 2 25 0;
#X connect 141 0 108 0;
#X connect 141 1 109 0;
#X connect 141 2 110 0;
#X connect 142 0 111 0;
#X connect 142 1 134 0;
#X connect 142 2 112 0;
#X connect 143 0 113 0;
#X connect 143 1 114 0;
#X connect 143 2 115 0;
#X connect 144 0 116 0;
#X connect 144 1 117 0;
#X connect 144 2 118 0;
#X connect 145 0 119 0;
#X connect 145 1 120 0;
#X connect 145 3 121 0;
#X connect 146 0 122 0;
#X connect 146 1 123 0;
#X connect 146 2 124 0;
#X connect 147 0 125 0;
#X connect 147 1 126 0;
#X connect 147 2 127 0;
#X connect 148 0 128 0;
#X connect 148 1 129 0;
#X connect 148 2 130 0;
#X coords 0 -1 1 1 60 60 1 0 0;
