#N canvas 0 192 1362 722 10;
#N canvas 0 0 1680 1008 synth 1;
#X floatatom -5286 -169 5 0 0 0 - - -;
#X obj -5421 -163 spigot;
#X obj -5348 -184 r \$0-pgm;
#X obj -5421 493 throw~ synthout5;
#X obj -5287 -189 r breath;
#X obj -5286 -151 / 127;
#X obj -5499 -190 r noteval;
#X obj -5420 -185 r mynotemsg;
#X obj -5440 -3 pack 0 0 0;
#X obj -5434 -67 unpack f f f;
#X floatatom -5384 -106 5 0 0 0 - - -;
#X floatatom -5349 -104 5 0 0 0 - - -;
#X obj -5423 -142 unpack f f f;
#X obj -5443 56 s_rhodey;
#X obj -5380 54 s_rhodey;
#X obj -5304 87 s_rhodey;
#X obj -5422 85 s_rhodey;
#X obj -5365 85 s_rhodey;
#X obj -5440 -31 poly 5 1;
#X obj -5441 25 route 1 2 3 4 5;
#X obj -5445 126 +~;
#X obj -5446 154 *~ 3;
#X floatatom -5429 357 5 0 0 0 - - -;
#X obj -5431 336 r \$0-n7x;
#X obj -5356 385 r \$0-n8y;
#X obj -5411 384 r \$0-n8x;
#X obj -5445 420 gverb;
#X obj -5445 247 mono-bitcrusher /key;
#X obj -5377 215 r \$0-n5x;
#X obj -5432 217 r \$0-n5y;
#X obj -5112 -139 hsl 128 15 0 1 0 0 empty empty tone_(0...1) 20 7
1 10 -262144 -1 -1 0 1;
#X obj -5115 -94 s \$0-in1;
#X msg -5115 -118 tone \$1;
#X obj -5115 -9 s \$0-in1;
#X floatatom -5115 -54 5 0 0 0 - - -;
#X obj -5003 -10 s \$0-in1;
#X floatatom -5003 -55 5 0 0 0 - - -;
#X obj -5114 89 s \$0-in1;
#X floatatom -5114 44 5 0 0 0 - - -;
#X msg -5114 66 mod \$1;
#X msg -5115 -33 vib-freq \$1;
#X msg -5003 -33 vib-depth \$1;
#X obj -5000 87 s \$0-in1;
#X floatatom -5000 42 5 0 127 0 - - -;
#X msg -5000 64 adsr24 \$1;
#X obj -4946 -94 s \$0-in1;
#X floatatom -4946 -139 5 0 0 0 - - -;
#X msg -4946 -117 decay \$1;
#X obj -5259 17 r \$0-in1;
#X msg -4812 -27 127 \$1;
#X obj -4798 18 -;
#X obj -4861 65 / 127;
#X floatatom -4864 130 5 0 0 0 - - -;
#X obj -4815 61 * 10;
#X obj -4791 135 - 256;
#X text -4582 -206 KARPLUS-STRONG SYNTHESIS WITH BODY FORMANTS;
#X floatatom -5243 -106 5 0 0 0 - - -;
#X obj -4897 -24 / 127;
#X obj -4750 -137 * 3;
#X obj -4862 -126 r xaxisx;
#X obj -5445 385 gdel;
#X obj -5115 -184 r \$0-n1x;
#X obj -4951 -183 r \$0-n4x;
#X obj -5000 -108 r \$0-n3y;
#X obj -5115 -76 r \$0-n3x;
#X obj -5114 24 r \$0-n2x;
#X obj -4946 -164 / 127;
#X obj -5117 -161 / 127;
#X obj -5003 -83 / 127;
#X obj -5159 45 / 127;
#X obj -4594 84 until;
#X obj -5373 338 r \$0-n7y;
#X floatatom -4662 131 5 0 0 0 - - -;
#X obj -4704 33 vsl 15 128 0 127 0 0 empty empty empty 0 -9 0 10 -262144
-1 -1 497 1;
#X obj -4580 213 /;
#X obj -4426 120 bng 15 250 50 0 empty empty empty 17 7 0 10 -262144
-1 -1;
#X floatatom -4440 253 5 0 0 0 - - -;
#X obj -4530 216 /;
#X obj -4376 123 bng 15 250 50 0 empty empty empty 17 7 0 10 -262144
-1 -1;
#X obj -4488 219 /;
#X obj -4334 126 bng 15 250 50 0 empty empty empty 17 7 0 10 -262144
-1 -1;
#X text -4632 129 note#;
#X floatatom -4604 341 10 0 0 0 - - -;
#X floatatom -4542 342 5 0 0 0 - - -;
#X floatatom -4499 342 5 0 0 0 - - -;
#X obj -4626 209 /;
#X floatatom -4631 338 5 0 0 0 - - -;
#X obj -4616 287 + 0;
#X obj -4487 123 bng 15 250 50 0 empty empty empty 17 7 0 10 -262144
-1 -1;
#X floatatom -4569 251 5 0 0 0 - - -;
#X floatatom -4526 251 5 0 0 0 - - -;
#X floatatom -4483 251 5 0 0 0 - - -;
#X floatatom -4615 247 5 0 0 0 - - -;
#X msg -4490 149 \$1;
#X text -4685 66 place;
#X obj -4438 214 /;
#X obj -4294 126 bng 15 250 50 0 empty empty empty 17 7 0 10 -262144
-1 -1;
#X floatatom -4459 342 5 0 0 0 - - -;
#X obj -4428 41 loadbang;
#X floatatom -4592 19 5 0 0 0 - - -;
#X msg -4680 -105 127 \$1;
#X obj -4665 -79 -;
#X obj -4424 3 bng 15 250 50 0 empty empty empty 17 7 0 10 -262144
-1 -1;
#X obj -4729 451 osc~;
#X obj -4544 483 osc~;
#X obj -4485 483 osc~;
#X obj -4425 487 osc~;
#X obj -4365 482 osc~;
#X obj -4666 -139 r yaxis;
#X obj -4800 377 sig~;
#X obj -4801 401 lop~ 80;
#X obj -4723 489 *~;
#X obj -4350 435 sig~;
#X obj -4351 459 lop~ 80;
#X obj -4423 431 sig~;
#X obj -4424 455 lop~ 80;
#X obj -4494 439 sig~;
#X obj -4495 463 lop~ 80;
#X obj -4567 435 sig~;
#X obj -4568 459 lop~ 80;
#X obj -4720 391 sig~;
#X obj -4721 415 lop~ 80;
#X obj -4727 301 bng 15 250 50 0 empty empty empty 17 7 0 10 -262144
-1 -1;
#X obj -4676 -54 average 10;
#X obj -4633 309 mtof;
#X obj -4629 368 f;
#X obj -4587 313 mtof;
#X obj -4576 369 f;
#X obj -4543 316 mtof;
#X obj -4500 315 mtof;
#X obj -4460 315 mtof;
#X obj -4529 368 f;
#X obj -4489 367 f;
#X obj -4449 367 f;
#X obj -4195 -95 vsl 15 128 0 127 0 0 empty empty empty 0 -9 0 10 -262144
-1 -1 0 1;
#X obj -4223 -91 vsl 15 128 0 127 0 0 empty empty empty 0 -9 0 10 -262144
-1 -1 0 1;
#X obj -4246 -94 vsl 15 128 0 127 0 0 empty empty empty 0 -9 0 10 -262144
-1 -1 0 1;
#X obj -4267 -94 vsl 15 128 0 127 0 0 empty empty empty 0 -9 0 10 -262144
-1 -1 0 1;
#X obj -4170 -93 vsl 15 128 0 127 0 0 empty empty empty 0 -9 0 10 -262144
-1 -1 0 1;
#X floatatom -4170 60 5 0 0 0 - - -;
#X floatatom -4203 58 5 0 0 0 - - -;
#X floatatom -4237 57 5 0 0 0 - - -;
#X floatatom -4275 55 5 0 0 0 - - -;
#X floatatom -4321 59 5 0 0 0 - - -;
#X text -4397 -116 parakeys to change interval of the chord;
#X obj -4720 208 t b;
#X floatatom -4645 397 10 0 0 0 - - -;
#X floatatom -4570 401 10 0 0 0 - - -;
#X floatatom -4500 400 10 0 0 0 - - -;
#X floatatom -4425 397 10 0 0 0 - - -;
#X floatatom -4347 398 10 0 0 0 - - -;
#X obj -4590 287 +;
#X obj -4545 286 +;
#X obj -4504 287 +;
#X obj -4464 287 +;
#X obj -4589 -157 vsl 15 128 0 127 0 0 empty empty empty 0 -9 0 10
-262144 -1 -1 0 1;
#X obj -4675 -23 * 2;
#X obj -4679 4 - 127;
#X floatatom -4655 34 5 0 0 0 - - -;
#X obj -5102 367 mono-peakfilter /key;
#X obj -5120 276 r breath;
#X obj -5010 316 loadbang;
#X msg -4924 285 1;
#X obj -5027 253 / 80;
#X msg -4293 155 12.5;
#X obj -5443 464 *~ 5;
#X msg -4425 149 3;
#X msg -4375 152 5;
#X msg -4333 155 7;
#X connect 2 0 1 1;
#X connect 4 0 5 0;
#X connect 4 0 0 0;
#X connect 4 0 8 2;
#X connect 5 0 56 0;
#X connect 5 0 58 0;
#X connect 5 0 109 0;
#X connect 7 0 1 0;
#X connect 7 0 9 0;
#X connect 8 0 19 0;
#X connect 9 0 72 0;
#X connect 9 0 18 0;
#X connect 9 1 18 1;
#X connect 12 0 10 0;
#X connect 12 1 11 0;
#X connect 13 0 20 0;
#X connect 14 0 20 0;
#X connect 15 0 20 0;
#X connect 16 0 20 0;
#X connect 17 0 20 0;
#X connect 18 0 8 0;
#X connect 18 1 8 1;
#X connect 19 0 13 0;
#X connect 19 1 14 0;
#X connect 19 2 15 0;
#X connect 19 3 16 0;
#X connect 19 4 17 0;
#X connect 20 0 21 0;
#X connect 21 0 27 0;
#X connect 22 0 60 1;
#X connect 23 0 22 0;
#X connect 24 0 26 2;
#X connect 25 0 26 3;
#X connect 26 0 165 0;
#X connect 27 0 60 0;
#X connect 28 0 27 2;
#X connect 29 0 27 1;
#X connect 30 0 32 0;
#X connect 32 0 31 0;
#X connect 34 0 40 0;
#X connect 36 0 41 0;
#X connect 38 0 39 0;
#X connect 39 0 37 0;
#X connect 40 0 33 0;
#X connect 41 0 35 0;
#X connect 43 0 44 0;
#X connect 44 0 42 0;
#X connect 46 0 47 0;
#X connect 47 0 45 0;
#X connect 48 0 15 1;
#X connect 48 0 17 1;
#X connect 48 0 16 1;
#X connect 48 0 14 1;
#X connect 48 0 13 1;
#X connect 49 0 50 0;
#X connect 50 0 51 0;
#X connect 50 0 53 0;
#X connect 51 0 52 0;
#X connect 53 0 54 0;
#X connect 54 0 46 0;
#X connect 57 0 30 0;
#X connect 59 0 53 0;
#X connect 60 0 26 0;
#X connect 61 0 67 0;
#X connect 62 0 66 0;
#X connect 63 0 68 0;
#X connect 64 0 34 0;
#X connect 65 0 69 0;
#X connect 66 0 46 0;
#X connect 67 0 30 0;
#X connect 68 0 36 0;
#X connect 69 0 38 0;
#X connect 71 0 60 2;
#X connect 72 0 87 0;
#X connect 72 0 93 0;
#X connect 72 0 124 0;
#X connect 72 0 151 0;
#X connect 72 0 152 0;
#X connect 72 0 153 0;
#X connect 72 0 154 0;
#X connect 73 0 74 0;
#X connect 73 0 77 0;
#X connect 73 0 79 0;
#X connect 73 0 85 0;
#X connect 73 0 95 0;
#X connect 73 0 145 0;
#X connect 74 0 89 0;
#X connect 74 0 151 1;
#X connect 75 0 166 0;
#X connect 77 0 90 0;
#X connect 77 0 152 1;
#X connect 78 0 167 0;
#X connect 79 0 91 0;
#X connect 79 0 153 1;
#X connect 80 0 168 0;
#X connect 85 0 87 1;
#X connect 85 0 92 0;
#X connect 88 0 93 0;
#X connect 93 0 85 1;
#X connect 95 0 76 0;
#X connect 95 0 154 1;
#X connect 96 0 164 0;
#X connect 98 0 93 0;
#X connect 98 0 166 0;
#X connect 98 0 167 0;
#X connect 98 0 168 0;
#X connect 98 0 164 0;
#X connect 100 0 101 0;
#X connect 101 0 123 0;
#X connect 102 0 98 0;
#X connect 103 0 111 0;
#X connect 104 0 111 0;
#X connect 105 0 111 0;
#X connect 106 0 111 0;
#X connect 107 0 111 0;
#X connect 108 0 99 0;
#X connect 108 0 100 0;
#X connect 109 0 110 0;
#X connect 110 0 111 1;
#X connect 111 0 27 0;
#X connect 112 0 113 0;
#X connect 113 0 107 0;
#X connect 114 0 115 0;
#X connect 115 0 106 0;
#X connect 116 0 117 0;
#X connect 117 0 105 0;
#X connect 118 0 119 0;
#X connect 119 0 104 0;
#X connect 120 0 121 0;
#X connect 121 0 103 0;
#X connect 123 0 73 0;
#X connect 124 0 86 0;
#X connect 124 0 125 0;
#X connect 125 0 120 0;
#X connect 126 0 82 0;
#X connect 126 0 127 0;
#X connect 127 0 118 0;
#X connect 128 0 83 0;
#X connect 128 0 131 0;
#X connect 129 0 84 0;
#X connect 129 0 132 0;
#X connect 130 0 97 0;
#X connect 130 0 133 0;
#X connect 131 0 116 0;
#X connect 132 0 114 0;
#X connect 133 0 112 0;
#X connect 134 0 140 0;
#X connect 135 0 141 0;
#X connect 136 0 142 0;
#X connect 137 0 143 0;
#X connect 138 0 139 0;
#X connect 139 0 95 1;
#X connect 140 0 79 1;
#X connect 141 0 77 1;
#X connect 142 0 74 1;
#X connect 143 0 93 0;
#X connect 145 0 122 0;
#X connect 145 0 87 0;
#X connect 145 0 151 0;
#X connect 145 0 152 0;
#X connect 145 0 153 0;
#X connect 145 0 154 0;
#X connect 151 0 126 0;
#X connect 152 0 128 0;
#X connect 153 0 129 0;
#X connect 154 0 130 0;
#X connect 155 0 100 0;
#X connect 156 0 157 0;
#X connect 157 0 158 0;
#X connect 160 0 163 0;
#X connect 161 0 162 0;
#X connect 162 0 159 2;
#X connect 163 0 159 1;
#X connect 164 0 95 1;
#X connect 165 0 3 0;
#X connect 166 0 74 1;
#X connect 167 0 77 1;
#X connect 168 0 79 1;
#X restore 721 9 pd synth;
#X obj 603 50 inlet pgmout;
#X obj 474 122 gesturenode;
#X obj 711 108 gesturenode-r;
#X floatatom 879 11 5 0 0 0 - - -;
#X obj 441 241 s \$0-n1x;
#X obj 491 263 s \$0-n1y;
#X obj 522 241 s \$0-n1z;
#X obj 384 241 s \$0-n2z;
#X obj 340 261 s \$0-n2y;
#X obj 297 242 s \$0-n2x;
#X obj 238 241 s \$0-n3z;
#X obj 202 265 s \$0-n3y;
#X obj 154 242 s \$0-n3x;
#X obj 95 244 s \$0-n4z;
#X obj 44 262 s \$0-n4y;
#X obj 3 242 s \$0-n4x;
#X obj 811 242 s \$0-n5z;
#X obj 765 260 s \$0-n5y;
#X obj 722 241 s \$0-n5x;
#X obj 964 241 s \$0-n6z;
#X obj 876 241 s \$0-n6x;
#X obj 1106 238 s \$0-n7z;
#X obj 1064 260 s \$0-n7y;
#X obj 1020 241 s \$0-n7x;
#X obj 1255 239 s \$0-n8z;
#X obj 1207 264 s \$0-n8y;
#X obj 1168 241 s \$0-n8x;
#X text 792 15 n=node;
#X obj 1002 8 s \$0-n \$1 z;
#X obj 922 9 s \$0-pgm;
#X text 429 31 assign to single unrelated vectors;
#X obj 534 49 r parakey;
#X obj 474 92 == 1;
#X obj 60 88 r frange4;
#X obj 204 91 r frange3;
#X obj 363 92 r frange2;
#X obj 511 92 r frange1;
#X obj 27 89 == 4;
#X obj 171 92 == 3;
#X obj 327 93 == 2;
#X obj 1101 36 r parakey;
#X obj 762 56 == 5;
#X obj 795 55 r frange5;
#X obj 907 57 == 6;
#X obj 940 56 r frange6;
#X obj 1037 61 == 7;
#X obj 1073 60 r frange7;
#X obj 1179 64 == 8;
#X obj 1216 64 r frange8;
#X obj 866 111 gesturenode-r;
#X obj 1020 111 gesturenode-r;
#X obj 1177 109 gesturenode-r;
#X obj 164 121 gesturenode;
#X obj 318 121 gesturenode;
#X obj 8 119 gesturenode;
#X obj 706 321 gesturenode-r;
#X obj 861 321 gesturenode-r;
#X obj 1015 321 gesturenode-r;
#X obj 1172 319 gesturenode-r;
#X obj 708 516 gesturenode-r;
#X obj 862 519 gesturenode-r;
#X obj 1017 516 gesturenode-r;
#X obj 1174 514 gesturenode-r;
#X obj 478 506 gesturenode;
#X obj 168 505 gesturenode;
#X obj 322 505 gesturenode;
#X obj 12 503 gesturenode;
#X obj 474 316 gesturenode;
#X obj 164 315 gesturenode;
#X obj 318 315 gesturenode;
#X obj 8 313 gesturenode;
#X obj 467 283 == 9;
#X obj 320 284 == 10;
#X obj 164 283 == 11;
#X obj 20 280 == 12;
#X obj 724 286 == 13;
#X obj 868 289 == 14;
#X obj 1024 290 == 15;
#X obj 1171 289 == 16;
#X obj 469 477 == 17;
#X obj 322 478 == 18;
#X obj 166 477 == 19;
#X obj 22 474 == 20;
#X obj 727 478 == 21;
#X obj 871 481 == 22;
#X obj 1027 482 == 23;
#X obj 1174 481 == 24;
#X obj 637 197 r parakey;
#X obj 562 461 r parakey;
#X text 639 360 (x)jb1;
#X text 646 569 (x)jb4;
#X floatatom 647 302 5 0 0 0 - - -;
#X obj 625 261 t f;
#X obj 622 463 t f;
#X obj 441 435 s \$0-n9x;
#X obj 491 457 s \$0-n9y;
#X obj 522 435 s \$0-n9z;
#X obj 297 436 s \$0-n10x;
#X obj 340 455 s \$0-n10y;
#X obj 384 435 s \$0-n10z;
#X obj 154 436 s \$0-n11x;
#X obj 202 459 s \$0-n11y;
#X obj 238 435 s \$0-n11z;
#X obj 3 436 s \$0-n12x;
#X obj 44 456 s \$0-n12y;
#X obj 95 438 s \$0-n12z;
#X obj 7 626 s \$0-n20x;
#X obj 48 646 s \$0-n20y;
#X obj 99 628 s \$0-n20z;
#X obj 158 626 s \$0-n19x;
#X obj 206 649 s \$0-19y;
#X obj 242 625 s \$0-19z;
#X obj 301 626 s \$0-n18x;
#X obj 344 645 s \$0-n18y;
#X obj 388 625 s \$0-n18z;
#X obj 445 625 s \$0-n17x;
#X obj 495 647 s \$0-n17y;
#X obj 526 625 s \$0-n17z;
#X obj 719 445 s \$0-n13x;
#X obj 762 464 s \$0-n13y;
#X obj 808 446 s \$0-13z;
#X obj 873 445 s \$0-n14x;
#X obj 961 445 s \$0-n14z;
#X obj 1017 445 s \$0-n15x;
#X obj 1061 464 s \$0-n15y;
#X obj 1103 442 s \$0-n15z;
#X obj 1165 445 s \$0-n16x;
#X obj 1204 468 s \$0-n16y;
#X obj 1252 443 s \$0-n16z;
#X obj 709 640 s \$0-n21x;
#X obj 752 659 s \$0-n21y;
#X obj 798 641 s \$0-n21z;
#X obj 863 640 s \$0-n22x;
#X obj 907 660 s \$0-n22y;
#X obj 939 640 s \$0-n22z;
#X obj 1007 640 s \$0-n23x;
#X obj 1051 659 s \$0-n23y;
#X obj 1093 637 s \$0-n23z;
#X obj 1155 640 s \$0-n24x;
#X obj 1194 663 s \$0-24y;
#X obj 1242 638 s \$0-n24z;
#X obj 1108 66;
#X floatatom 703 247 5 0 0 0 - - -;
#X obj 920 261 s \$0-n6y;
#X obj 917 465 s \$0-n14y;
#X obj 646 114 switch~;
#X obj 2 1 cnv 15 60 58 empty empty empty 20 12 0 14 -4032 -66577 0
;
#X floatatom 664 252 5 0 0 0 - - -;
#X floatatom 1053 86 5 0 0 0 - - -;
#X floatatom 579 98 5 0 0 0 - - -;
#X connect 1 0 4 0;
#X connect 1 0 30 0;
#X connect 1 0 2 1;
#X connect 1 0 3 1;
#X connect 1 0 50 1;
#X connect 1 0 51 1;
#X connect 1 0 52 1;
#X connect 1 0 53 1;
#X connect 1 0 54 1;
#X connect 1 0 55 1;
#X connect 1 0 93 0;
#X connect 1 0 94 0;
#X connect 1 0 146 0;
#X connect 2 0 5 0;
#X connect 2 1 6 0;
#X connect 2 2 7 0;
#X connect 3 0 19 0;
#X connect 3 0 143 0;
#X connect 3 1 18 0;
#X connect 3 2 17 0;
#X connect 32 0 33 0;
#X connect 32 0 38 0;
#X connect 32 0 39 0;
#X connect 32 0 40 0;
#X connect 33 0 2 0;
#X connect 34 0 55 2;
#X connect 34 0 71 2;
#X connect 34 0 67 2;
#X connect 35 0 53 2;
#X connect 35 0 69 2;
#X connect 35 0 65 2;
#X connect 36 0 54 2;
#X connect 36 0 70 2;
#X connect 36 0 66 2;
#X connect 37 0 2 2;
#X connect 37 0 68 2;
#X connect 37 0 64 2;
#X connect 37 0 150 0;
#X connect 38 0 55 0;
#X connect 39 0 53 0;
#X connect 40 0 54 0;
#X connect 41 0 42 0;
#X connect 41 0 44 0;
#X connect 41 0 46 0;
#X connect 41 0 48 0;
#X connect 42 0 3 0;
#X connect 43 0 3 2;
#X connect 43 0 56 2;
#X connect 43 0 60 2;
#X connect 44 0 50 0;
#X connect 45 0 50 2;
#X connect 45 0 57 2;
#X connect 45 0 61 2;
#X connect 46 0 51 0;
#X connect 46 0 149 0;
#X connect 47 0 51 2;
#X connect 47 0 58 2;
#X connect 47 0 62 2;
#X connect 48 0 52 0;
#X connect 49 0 52 2;
#X connect 49 0 59 2;
#X connect 49 0 63 2;
#X connect 50 0 21 0;
#X connect 50 1 144 0;
#X connect 50 2 20 0;
#X connect 51 0 24 0;
#X connect 51 1 23 0;
#X connect 51 2 22 0;
#X connect 52 0 27 0;
#X connect 52 1 26 0;
#X connect 52 2 25 0;
#X connect 53 0 13 0;
#X connect 53 1 12 0;
#X connect 53 2 11 0;
#X connect 54 0 10 0;
#X connect 54 1 9 0;
#X connect 54 2 8 0;
#X connect 55 0 16 0;
#X connect 55 1 15 0;
#X connect 55 2 14 0;
#X connect 56 0 119 0;
#X connect 56 1 120 0;
#X connect 56 2 121 0;
#X connect 57 0 122 0;
#X connect 57 1 145 0;
#X connect 57 2 123 0;
#X connect 58 0 124 0;
#X connect 58 1 125 0;
#X connect 58 2 126 0;
#X connect 59 0 127 0;
#X connect 59 1 128 0;
#X connect 59 2 129 0;
#X connect 60 0 130 0;
#X connect 60 1 131 0;
#X connect 60 3 132 0;
#X connect 61 0 133 0;
#X connect 61 1 134 0;
#X connect 61 2 135 0;
#X connect 62 0 136 0;
#X connect 62 1 137 0;
#X connect 62 2 138 0;
#X connect 63 0 139 0;
#X connect 63 1 140 0;
#X connect 63 2 141 0;
#X connect 64 0 116 0;
#X connect 64 1 117 0;
#X connect 64 2 118 0;
#X connect 65 0 110 0;
#X connect 65 1 111 0;
#X connect 65 2 112 0;
#X connect 66 0 113 0;
#X connect 66 1 114 0;
#X connect 66 2 115 0;
#X connect 67 0 107 0;
#X connect 67 1 108 0;
#X connect 67 2 109 0;
#X connect 68 0 95 0;
#X connect 68 1 96 0;
#X connect 68 2 97 0;
#X connect 69 0 101 0;
#X connect 69 1 102 0;
#X connect 69 2 103 0;
#X connect 70 0 98 0;
#X connect 70 1 99 0;
#X connect 70 2 100 0;
#X connect 71 0 104 0;
#X connect 71 1 105 0;
#X connect 71 2 106 0;
#X connect 72 0 68 0;
#X connect 73 0 70 0;
#X connect 74 0 69 0;
#X connect 75 0 71 0;
#X connect 76 0 56 0;
#X connect 77 0 57 0;
#X connect 78 0 58 0;
#X connect 79 0 59 0;
#X connect 80 0 64 0;
#X connect 81 0 66 0;
#X connect 82 0 65 0;
#X connect 83 0 67 0;
#X connect 84 0 60 0;
#X connect 85 0 61 0;
#X connect 86 0 62 0;
#X connect 87 0 63 0;
#X connect 88 0 72 0;
#X connect 88 0 73 0;
#X connect 88 0 74 0;
#X connect 88 0 75 0;
#X connect 88 0 76 0;
#X connect 88 0 77 0;
#X connect 88 0 78 0;
#X connect 88 0 79 0;
#X connect 88 0 148 0;
#X connect 89 0 80 0;
#X connect 89 0 81 0;
#X connect 89 0 82 0;
#X connect 89 0 83 0;
#X connect 89 0 84 0;
#X connect 89 0 85 0;
#X connect 89 0 86 0;
#X connect 89 0 87 0;
#X connect 93 0 68 1;
#X connect 93 0 70 1;
#X connect 93 0 69 1;
#X connect 93 0 71 1;
#X connect 93 0 56 1;
#X connect 93 0 57 1;
#X connect 93 0 58 1;
#X connect 93 0 59 1;
#X connect 93 0 92 0;
#X connect 94 0 60 1;
#X connect 94 0 61 1;
#X connect 94 0 62 1;
#X connect 94 0 63 1;
#X connect 94 0 64 1;
#X connect 94 0 66 1;
#X connect 94 0 65 1;
#X connect 94 0 67 1;
#X coords 0 -1 1 1 60 60 1 0 0;
