#N canvas 417 123 1362 722 10;
#X declare -path ./rj;
#N canvas 164 0 1366 730 synth 1;
#X floatatom 64 54 5 0 0 0 - - -;
#X floatatom 98 55 5 0 0 0 - - -;
#X floatatom 134 56 5 0 0 0 - - -;
#X obj 66 502 / 127;
#X obj 66 524 sig~;
#X obj 51 570 *~;
#X obj 57 106 spigot;
#X obj 57 36 unpack f f f;
#X obj 65 459 spigot;
#X obj 65 434 r breath;
#X obj 99 82 r \$0-pgm;
#X obj 66 546 lop~ 100;
#X floatatom 103 503 5 0 0 0 - - -;
#X obj 211 744 throw~ synthout3;
#X obj -129 335 cos~;
#X floatatom -82 125 4 0 100 0 - - -;
#X obj -129 305 *~;
#X obj -82 221 line~;
#X obj -82 173 max 0;
#X floatatom -229 222 4 0 0 0 - - -;
#X text -233 178 fundamental;
#X text -233 197 frequency;
#X obj -87 335 cos~;
#X obj -46 248 wrap~;
#X obj -82 275 -~;
#X obj -87 305 +~;
#X obj -82 372 -~;
#X obj -67 402 *~;
#X obj -89 427 +~;
#X obj -82 197 pack 0 50;
#X text -32 335 synthesize the two partials;
#X obj -88 453 hip~;
#X obj -2 454 bng 18 250 50 0 empty empty empty 0 -6 0 8 -262144 -1
-1;
#X obj -229 246 phasor~ 100;
#X text -203 76 center frequency (in;
#X text -204 96 tenths of fundamental);
#X text 9 247 the fractional part "q";
#X text -33 274 subtract to get the integer part "k";
#X text -37 307 multiply phase by k and k+1;
#X text -34 371 c2 - c1;
#X text -19 400 q * (c2 - c1);
#X text -50 427 q * c2 + (1-q) * c1;
#X floatatom -22 163 5 0 0 0 - - -;
#X floatatom 111 481 5 0 0 0 - - -;
#X obj -85 39 r breath;
#X obj -82 149 / 12.7;
#X floatatom 445 677 5 0 0 0 - - -;
#X obj 59 8 r noteval;
#X obj 60 128 / 2;
#X obj 115 584 s_buzz;
#X obj 114 633 *~;
#X obj 177 435 moses 1;
#X floatatom 185 459 5 0 0 0 - - -;
#X obj 177 530 line~;
#X obj 177 506 pack 0 100;
#X obj -37 92 / 100;
#X floatatom 177 385 5 0 0 0 - - -;
#X obj 53 657 *~;
#X obj 51 689 *~ 0.3;
#X floatatom 260 626 5 0 0 0 - - -;
#X obj 258 605 r \$0-n7x;
#X obj 210 629 gdel;
#X obj 397 613 r \$0-n8y;
#X obj 342 612 r \$0-n8x;
#X obj 210 664 gverb;
#X floatatom 334 137 5 0 127 0 - - -;
#X obj 333 173 moses 0;
#X floatatom 372 307 5 0 0 0 - - -;
#X obj 369 259 / 100;
#X obj 369 282 * 4;
#X obj 316 284 -;
#X floatatom 317 307 5 0 0 0 - - -;
#X obj 312 257 swap 1;
#X obj 480 281 * 4;
#X obj 427 283 -;
#X floatatom 428 306 5 0 0 0 - - -;
#X obj 423 256 swap 1;
#X obj 317 333 vsl 15 50 0 1 0 0 empty empty empty 0 -9 0 10 -262144
-1 -1 0 1;
#X obj 430 329 vsl 15 50 0 1 0 0 empty empty empty 0 -9 0 10 -262144
-1 -1 4900 1;
#X obj 332 153 clip 0 127;
#X floatatom 261 219 5 0 0 0 - - -;
#X obj 333 119 average;
#X obj 372 197 moses 64;
#X obj 576 447 *~;
#N canvas 568 125 686 817 BASS 0;
#X obj 19 271 osc~;
#X obj 51 226 *~;
#X obj 69 206 lop~ 1;
#X obj 19 252 +~;
#X obj 19 43 mtof;
#X obj 19 124 / 2;
#X obj 19 672 vcf~ 2;
#X obj 160 406 r \$0-bpm;
#X obj 223 276 int;
#X obj 223 296 change -100;
#X obj 160 478 *;
#X obj 223 256 * 5.99;
#X obj 160 448 / 60;
#X obj 160 427 f;
#X obj 19 104 t f f;
#X obj 19 83 line;
#X obj 56 57 pack f 100;
#X obj 86 43 * 1000;
#X obj 56 468 f;
#X obj 27 406 spigot 1;
#X obj 160 498 change -100;
#X obj 160 519 t f b;
#X msg 128 406 1;
#X msg 96 406 0;
#X obj 27 301 r \$0-tick;
#X obj 27 322 mod 8;
#X obj 27 343 / 2;
#X obj 27 364 int;
#X obj 27 386 * 0.25;
#X obj 69 144 r \$0-Tone;
#N canvas 0 22 568 311 fm-osc 0;
#X obj 20 114 * 0.5;
#X obj 20 144 osc~;
#X obj 70 144 osc~;
#X obj 140 144 osc~;
#X obj 180 144 osc~;
#X obj 140 114 * 1;
#X obj 180 114 * 2;
#X obj 220 144 osc~;
#X obj 290 144 osc~;
#X obj 340 144 osc~;
#X obj 410 144 osc~;
#X obj 480 144 osc~;
#X obj 290 114 * 4;
#X obj 480 114 * 8;
#X obj 70 114 * 1.4983;
#X obj 410 114 * 5.9932;
#X obj 340 114 * 5.0397;
#X obj 220 114 * 2.9966;
#X obj 155 32 inlet;
#X obj 220 267 outlet~;
#X obj 340 174 *~ 1;
#X obj 290 174 *~ 1;
#X obj 140 174 *~ 1;
#X obj 180 174 *~ 1;
#X obj 70 174 *~ 2;
#X obj 20 174 *~ 2;
#X obj 220 174 *~ 1;
#X obj 155 53 t f f f f f f f f f;
#X obj 220 224 *~ 0.1;
#X obj 480 174 *~ 0.2;
#X obj 410 174 *~ 0.2;
#X connect 0 0 1 0;
#X connect 1 0 25 0;
#X connect 2 0 24 0;
#X connect 3 0 22 0;
#X connect 4 0 23 0;
#X connect 5 0 3 0;
#X connect 6 0 4 0;
#X connect 7 0 26 0;
#X connect 8 0 21 0;
#X connect 9 0 20 0;
#X connect 10 0 30 0;
#X connect 11 0 29 0;
#X connect 12 0 8 0;
#X connect 13 0 11 0;
#X connect 14 0 2 0;
#X connect 15 0 10 0;
#X connect 16 0 9 0;
#X connect 17 0 7 0;
#X connect 18 0 27 0;
#X connect 20 0 28 0;
#X connect 21 0 28 0;
#X connect 22 0 28 0;
#X connect 23 0 28 0;
#X connect 24 0 28 0;
#X connect 25 0 28 0;
#X connect 26 0 28 0;
#X connect 27 0 0 0;
#X connect 27 1 14 0;
#X connect 27 2 5 0;
#X connect 27 3 6 0;
#X connect 27 4 17 0;
#X connect 27 5 12 0;
#X connect 27 6 16 0;
#X connect 27 7 15 0;
#X connect 27 8 13 0;
#X connect 28 0 19 0;
#X connect 29 0 28 0;
#X connect 30 0 28 0;
#X restore 51 124 pd fm-osc;
#X obj 223 406 t b b b f;
#X obj 69 165 * 10000;
#X obj 69 186 + 100;
#X obj 19 23 inlet;
#X text 325 775 Joe White 2010;
#X obj 56 489 phasor~;
#X obj 56 510 *~ 2;
#X obj 56 540 max~ 1;
#X obj 106 541 min~ 1;
#X obj 38 446 sig~ 1;
#X obj 38 567 -~;
#X obj 38 588 *~ 2;
#X obj 38 609 -~ 1;
#X obj 38 630 *~ 490;
#X obj 38 651 +~ 490;
#X obj 27 426 t b b;
#X obj 99 758 outlet~;
#X floatatom 108 88 5 0 0 0 - - -;
#X floatatom 132 120 5 0 0 0 - - -;
#X obj 194 555 r breath;
#X obj 173 580 / 127;
#X obj 186 618 * 2;
#X obj 195 660 sig~;
#X floatatom 252 609 5 0 0 0 - - -;
#X obj 276 226 / 127;
#X obj 54 700 lop~ 80;
#X obj 89 3 r xaxisr;
#X obj 87 24 / 127;
#X floatatom 198 43 5 0 0 0 - - -;
#X floatatom 317 273 5 0 0 0 - - -;
#X obj 19 733 *~;
#X obj 150 241 r yaxis;
#X obj 139 301 mtof;
#X obj 276 157 r yaxis;
#X msg 276 179 127 \$1;
#X obj 276 203 -;
#X obj 242 386 f;
#X msg 402 346 4;
#X obj 242 316 sel 0 1 2 3 4 5;
#X msg 362 346 3;
#X msg 242 346 1;
#X msg 282 346 1.5;
#X msg 322 346 2;
#X floatatom 377 319 5 0 0 0 - - -;
#X connect 0 0 6 0;
#X connect 1 0 3 1;
#X connect 2 0 1 1;
#X connect 3 0 0 0;
#X connect 4 0 16 0;
#X connect 4 0 49 0;
#X connect 4 0 15 0;
#X connect 5 0 3 0;
#X connect 6 0 61 0;
#X connect 7 0 13 0;
#X connect 8 0 9 0;
#X connect 9 0 31 0;
#X connect 10 0 20 0;
#X connect 11 0 8 0;
#X connect 11 0 60 0;
#X connect 12 0 10 0;
#X connect 13 0 12 0;
#X connect 14 0 5 0;
#X connect 14 1 30 0;
#X connect 15 0 14 0;
#X connect 17 0 16 1;
#X connect 18 0 36 0;
#X connect 19 0 46 0;
#X connect 20 0 21 0;
#X connect 21 0 18 1;
#X connect 21 1 22 0;
#X connect 22 0 19 1;
#X connect 23 0 19 1;
#X connect 24 0 25 0;
#X connect 25 0 26 0;
#X connect 26 0 27 0;
#X connect 27 0 28 0;
#X connect 28 0 19 0;
#X connect 29 0 32 0;
#X connect 30 0 1 0;
#X connect 31 2 10 0;
#X connect 31 3 10 1;
#X connect 32 0 33 0;
#X connect 33 0 2 0;
#X connect 34 0 4 0;
#X connect 34 0 48 0;
#X connect 36 0 37 0;
#X connect 37 0 38 0;
#X connect 37 0 39 0;
#X connect 38 0 41 1;
#X connect 39 0 42 0;
#X connect 40 0 41 0;
#X connect 41 0 42 0;
#X connect 42 0 43 0;
#X connect 43 0 44 0;
#X connect 44 0 45 0;
#X connect 45 0 6 1;
#X connect 46 0 23 0;
#X connect 46 1 18 0;
#X connect 50 0 51 0;
#X connect 51 0 52 0;
#X connect 51 0 54 0;
#X connect 51 0 32 0;
#X connect 52 0 53 0;
#X connect 53 0 56 0;
#X connect 55 0 11 0;
#X connect 56 0 61 1;
#X connect 57 0 58 0;
#X connect 58 0 17 0;
#X connect 58 0 59 0;
#X connect 61 0 47 0;
#X connect 62 0 63 0;
#X connect 64 0 65 0;
#X connect 65 0 66 0;
#X connect 66 0 55 0;
#X connect 68 0 67 0;
#X connect 69 0 71 0;
#X connect 69 1 72 0;
#X connect 69 2 73 0;
#X connect 69 3 70 0;
#X connect 69 4 68 0;
#X connect 70 0 67 0;
#X connect 71 0 67 0;
#X connect 72 0 67 0;
#X connect 73 0 67 0;
#X restore 770 280 pd BASS;
#N canvas 0 22 450 300 TIMEBASE 0;
#X obj 92 67 loadbang;
#X obj 92 109 f;
#X obj 121 109 + 1;
#X obj 92 130 s \$0-tick;
#X obj 92 88 metro 53.57;
#X text 182 88 140 BPM;
#X obj 245 67 loadbang;
#X msg 245 88 140;
#X obj 245 109 s \$0-bpm;
#X obj 23 15 declare -path ./rj;
#X floatatom 317 91 5 0 0 0 - - -;
#X obj 237 185 r loop_in_ms;
#X floatatom 259 207 5 0 0 0 - - -;
#X obj 141 219 expr 60000;
#X obj 220 43 r bpm;
#X obj 223 70 * 2;
#X connect 0 0 4 0;
#X connect 1 0 2 0;
#X connect 1 0 3 0;
#X connect 2 0 1 1;
#X connect 4 0 1 0;
#X connect 6 0 7 0;
#X connect 7 0 8 0;
#X connect 10 0 8 0;
#X connect 11 0 12 0;
#X connect 14 0 8 0;
#X connect 14 0 15 0;
#X connect 15 0 8 0;
#X restore 765 239 pd TIMEBASE;
#N canvas 0 22 450 300 PATTERN 0;
#X obj 47 132 spigot;
#X obj 86 108 != 0;
#X obj 47 203 outlet;
#X obj 127 44 r \$0-tick;
#X obj 127 105 mod 64;
#X obj 127 168 f;
#X obj 127 85 spigot;
#X obj 166 65 r \$0-autoplay;
#X msg 127 147 60;
#X msg 157 147 58;
#X msg 187 147 55;
#X msg 217 147 48;
#X obj 127 126 sel 0 16 32 48;
#X obj 47 84 unpack f f f;
#X obj 41 44 r mynotemsg;
#X floatatom 10 110 5 0 0 0 - - -;
#X floatatom 55 108 5 0 0 0 - - -;
#X connect 0 0 2 0;
#X connect 1 0 0 1;
#X connect 3 0 6 0;
#X connect 4 0 12 0;
#X connect 5 0 2 0;
#X connect 6 0 4 0;
#X connect 7 0 6 1;
#X connect 8 0 5 0;
#X connect 9 0 5 0;
#X connect 10 0 5 0;
#X connect 11 0 5 0;
#X connect 12 0 8 0;
#X connect 12 1 9 0;
#X connect 12 2 10 0;
#X connect 12 3 11 0;
#X connect 13 0 0 0;
#X connect 13 0 15 0;
#X connect 13 1 1 0;
#X connect 13 1 16 0;
#X connect 14 0 13 0;
#X restore 770 260 pd PATTERN;
#X obj 336 43 r yaxis;
#X obj 351 97 -;
#X msg 351 75 127 \$1;
#X obj 556 623 mono-peakfilter /key;
#X obj 538 532 r breath;
#X obj 648 572 loadbang;
#X msg 734 541 1;
#X obj 631 509 / 80;
#X floatatom 540 581 5 0 0 0 - - -;
#X obj 300 566 r \$0-n7y;
#X obj 212 705 *~ 5;
#X connect 3 0 4 0;
#X connect 3 0 12 0;
#X connect 4 0 11 0;
#X connect 5 0 57 1;
#X connect 6 0 48 0;
#X connect 7 0 0 0;
#X connect 7 0 6 0;
#X connect 7 1 1 0;
#X connect 7 2 2 0;
#X connect 8 0 3 0;
#X connect 8 0 43 0;
#X connect 9 0 8 0;
#X connect 10 0 6 1;
#X connect 10 0 8 1;
#X connect 11 0 5 1;
#X connect 14 0 26 1;
#X connect 14 0 28 0;
#X connect 15 0 45 0;
#X connect 16 0 14 0;
#X connect 16 0 25 0;
#X connect 17 0 24 0;
#X connect 17 0 23 0;
#X connect 18 0 29 0;
#X connect 19 0 33 0;
#X connect 22 0 26 0;
#X connect 23 0 24 1;
#X connect 23 0 27 1;
#X connect 24 0 16 1;
#X connect 25 0 22 0;
#X connect 26 0 27 0;
#X connect 27 0 28 1;
#X connect 28 0 31 0;
#X connect 29 0 17 0;
#X connect 31 0 5 0;
#X connect 33 0 16 0;
#X connect 33 0 25 1;
#X connect 44 0 15 0;
#X connect 44 0 55 0;
#X connect 45 0 18 0;
#X connect 45 0 42 0;
#X connect 45 0 50 1;
#X connect 47 0 7 0;
#X connect 48 0 33 0;
#X connect 48 0 49 0;
#X connect 49 0 50 0;
#X connect 50 0 57 0;
#X connect 51 0 52 0;
#X connect 51 0 54 0;
#X connect 53 0 49 1;
#X connect 54 0 53 0;
#X connect 55 0 56 0;
#X connect 56 0 51 0;
#X connect 57 0 58 0;
#X connect 58 0 61 0;
#X connect 58 0 97 0;
#X connect 59 0 61 1;
#X connect 60 0 59 0;
#X connect 61 0 64 0;
#X connect 62 0 64 2;
#X connect 63 0 64 3;
#X connect 64 0 90 0;
#X connect 66 1 82 0;
#X connect 68 0 69 0;
#X connect 69 0 67 0;
#X connect 69 0 72 0;
#X connect 69 0 74 0;
#X connect 70 0 71 0;
#X connect 70 0 75 0;
#X connect 70 0 58 1;
#X connect 71 0 77 0;
#X connect 72 0 70 0;
#X connect 72 1 70 1;
#X connect 74 0 75 0;
#X connect 74 0 83 1;
#X connect 75 0 78 0;
#X connect 76 0 74 0;
#X connect 76 1 74 1;
#X connect 79 0 66 0;
#X connect 79 0 80 0;
#X connect 81 0 65 0;
#X connect 81 0 79 0;
#X connect 82 0 68 0;
#X connect 83 0 90 0;
#X connect 84 0 83 0;
#X connect 86 0 84 0;
#X connect 87 0 89 0;
#X connect 88 0 81 0;
#X connect 89 0 88 0;
#X connect 90 0 97 0;
#X connect 91 0 94 0;
#X connect 91 0 95 0;
#X connect 92 0 93 0;
#X connect 93 0 90 2;
#X connect 94 0 90 1;
#X connect 96 0 61 2;
#X connect 97 0 13 0;
#X restore 707 12 pd synth;
#X obj 611 34 inlet pgmout;
#X obj 482 106 gesturenode;
#X obj 719 92 gesturenode-r;
#X floatatom 865 14 5 0 0 0 - - -;
#X obj 449 225 s \$0-n1x;
#X obj 499 247 s \$0-n1y;
#X obj 530 225 s \$0-n1z;
#X obj 392 225 s \$0-n2z;
#X obj 348 245 s \$0-n2y;
#X obj 305 226 s \$0-n2x;
#X obj 246 225 s \$0-n3z;
#X obj 210 249 s \$0-n3y;
#X obj 162 226 s \$0-n3x;
#X obj 103 228 s \$0-n4z;
#X obj 52 246 s \$0-n4y;
#X obj 11 226 s \$0-n4x;
#X obj 819 226 s \$0-n5z;
#X obj 773 244 s \$0-n5y;
#X obj 730 225 s \$0-n5x;
#X obj 972 225 s \$0-n6z;
#X obj 884 225 s \$0-n6x;
#X obj 1114 222 s \$0-n7z;
#X obj 1072 244 s \$0-n7y;
#X obj 1028 225 s \$0-n7x;
#X obj 1263 223 s \$0-n8z;
#X obj 1215 248 s \$0-n8y;
#X obj 1176 225 s \$0-n8x;
#X text 778 18 n=node;
#X obj 988 11 s \$0-n \$1 z;
#X obj 908 12 s \$0-pgm;
#X text 437 15 assign to single unrelated vectors;
#X obj 542 33 r parakey;
#X obj 482 76 == 1;
#X obj 68 72 r frange4;
#X obj 212 75 r frange3;
#X obj 371 76 r frange2;
#X obj 519 76 r frange1;
#X obj 35 73 == 4;
#X obj 179 76 == 3;
#X obj 335 77 == 2;
#X obj 1109 20 r parakey;
#X obj 770 40 == 5;
#X obj 803 39 r frange5;
#X obj 915 41 == 6;
#X obj 948 40 r frange6;
#X obj 1045 45 == 7;
#X obj 1081 44 r frange7;
#X obj 1187 48 == 8;
#X obj 1224 48 r frange8;
#X obj 874 95 gesturenode-r;
#X obj 1028 95 gesturenode-r;
#X obj 1185 93 gesturenode-r;
#X obj 172 105 gesturenode;
#X obj 326 105 gesturenode;
#X obj 16 103 gesturenode;
#X obj 714 305 gesturenode-r;
#X obj 869 305 gesturenode-r;
#X obj 1023 305 gesturenode-r;
#X obj 1180 303 gesturenode-r;
#X obj 716 500 gesturenode-r;
#X obj 870 503 gesturenode-r;
#X obj 1025 500 gesturenode-r;
#X obj 1182 498 gesturenode-r;
#X obj 486 490 gesturenode;
#X obj 176 489 gesturenode;
#X obj 330 489 gesturenode;
#X obj 20 487 gesturenode;
#X obj 482 300 gesturenode;
#X obj 172 299 gesturenode;
#X obj 326 299 gesturenode;
#X obj 16 297 gesturenode;
#X obj 475 267 == 9;
#X obj 328 268 == 10;
#X obj 172 267 == 11;
#X obj 28 264 == 12;
#X obj 732 270 == 13;
#X obj 876 273 == 14;
#X obj 1032 274 == 15;
#X obj 1179 273 == 16;
#X obj 477 461 == 17;
#X obj 330 462 == 18;
#X obj 174 461 == 19;
#X obj 30 458 == 20;
#X obj 735 462 == 21;
#X obj 879 465 == 22;
#X obj 1035 466 == 23;
#X obj 1182 465 == 24;
#X obj 645 181 r parakey;
#X obj 570 445 r parakey;
#X text 647 344 (x)jb1;
#X text 654 553 (x)jb4;
#X floatatom 655 286 5 0 0 0 - - -;
#X obj 633 245 t f;
#X obj 630 447 t f;
#X obj 449 419 s \$0-n9x;
#X obj 499 441 s \$0-n9y;
#X obj 530 419 s \$0-n9z;
#X obj 305 420 s \$0-n10x;
#X obj 348 439 s \$0-n10y;
#X obj 392 419 s \$0-n10z;
#X obj 162 420 s \$0-n11x;
#X obj 210 443 s \$0-n11y;
#X obj 246 419 s \$0-n11z;
#X obj 11 420 s \$0-n12x;
#X obj 52 440 s \$0-n12y;
#X obj 103 422 s \$0-n12z;
#X obj 15 610 s \$0-n20x;
#X obj 56 630 s \$0-n20y;
#X obj 107 612 s \$0-n20z;
#X obj 166 610 s \$0-n19x;
#X obj 214 633 s \$0-19y;
#X obj 250 609 s \$0-19z;
#X obj 309 610 s \$0-n18x;
#X obj 352 629 s \$0-n18y;
#X obj 396 609 s \$0-n18z;
#X obj 453 609 s \$0-n17x;
#X obj 503 631 s \$0-n17y;
#X obj 534 609 s \$0-n17z;
#X obj 727 429 s \$0-n13x;
#X obj 770 448 s \$0-n13y;
#X obj 816 430 s \$0-13z;
#X obj 881 429 s \$0-n14x;
#X obj 969 429 s \$0-n14z;
#X obj 1025 429 s \$0-n15x;
#X obj 1069 448 s \$0-n15y;
#X obj 1111 426 s \$0-n15z;
#X obj 1173 429 s \$0-n16x;
#X obj 1212 452 s \$0-n16y;
#X obj 1260 427 s \$0-n16z;
#X obj 717 624 s \$0-n21x;
#X obj 760 643 s \$0-n21y;
#X obj 806 625 s \$0-n21z;
#X obj 871 624 s \$0-n22x;
#X obj 915 644 s \$0-n22y;
#X obj 947 624 s \$0-n22z;
#X obj 1015 624 s \$0-n23x;
#X obj 1059 643 s \$0-n23y;
#X obj 1101 621 s \$0-n23z;
#X obj 1163 624 s \$0-n24x;
#X obj 1202 647 s \$0-24y;
#X obj 1250 622 s \$0-n24z;
#X floatatom 711 231 5 0 0 0 - - -;
#X obj 928 245 s \$0-n6y;
#X obj 925 449 s \$0-n14y;
#X obj 654 98 switch~;
#X obj 3 1 cnv 15 60 58 empty empty empty 20 12 0 14 -260097 -66577
0;
#X connect 1 0 4 0;
#X connect 1 0 30 0;
#X connect 1 0 2 1;
#X connect 1 0 3 1;
#X connect 1 0 50 1;
#X connect 1 0 51 1;
#X connect 1 0 52 1;
#X connect 1 0 53 1;
#X connect 1 0 54 1;
#X connect 1 0 55 1;
#X connect 1 0 93 0;
#X connect 1 0 94 0;
#X connect 1 0 145 0;
#X connect 2 0 5 0;
#X connect 2 1 6 0;
#X connect 2 2 7 0;
#X connect 3 0 19 0;
#X connect 3 0 142 0;
#X connect 3 1 18 0;
#X connect 3 2 17 0;
#X connect 32 0 33 0;
#X connect 32 0 38 0;
#X connect 32 0 39 0;
#X connect 32 0 40 0;
#X connect 33 0 2 0;
#X connect 34 0 55 2;
#X connect 34 0 71 2;
#X connect 34 0 67 2;
#X connect 35 0 53 2;
#X connect 35 0 69 2;
#X connect 35 0 65 2;
#X connect 36 0 54 2;
#X connect 36 0 70 2;
#X connect 36 0 66 2;
#X connect 37 0 2 2;
#X connect 37 0 68 2;
#X connect 37 0 64 2;
#X connect 38 0 55 0;
#X connect 39 0 53 0;
#X connect 40 0 54 0;
#X connect 41 0 42 0;
#X connect 41 0 44 0;
#X connect 41 0 46 0;
#X connect 41 0 48 0;
#X connect 42 0 3 0;
#X connect 43 0 3 2;
#X connect 43 0 56 2;
#X connect 43 0 60 2;
#X connect 44 0 50 0;
#X connect 45 0 50 2;
#X connect 45 0 57 2;
#X connect 45 0 61 2;
#X connect 46 0 51 0;
#X connect 47 0 51 2;
#X connect 47 0 58 2;
#X connect 47 0 62 2;
#X connect 48 0 52 0;
#X connect 49 0 52 2;
#X connect 49 0 59 2;
#X connect 49 0 63 2;
#X connect 50 0 21 0;
#X connect 50 1 143 0;
#X connect 50 2 20 0;
#X connect 51 0 24 0;
#X connect 51 1 23 0;
#X connect 51 2 22 0;
#X connect 52 0 27 0;
#X connect 52 1 26 0;
#X connect 52 2 25 0;
#X connect 53 0 13 0;
#X connect 53 1 12 0;
#X connect 53 2 11 0;
#X connect 54 0 10 0;
#X connect 54 1 9 0;
#X connect 54 2 8 0;
#X connect 55 0 16 0;
#X connect 55 1 15 0;
#X connect 55 2 14 0;
#X connect 56 0 119 0;
#X connect 56 1 120 0;
#X connect 56 2 121 0;
#X connect 57 0 122 0;
#X connect 57 1 144 0;
#X connect 57 2 123 0;
#X connect 58 0 124 0;
#X connect 58 1 125 0;
#X connect 58 2 126 0;
#X connect 59 0 127 0;
#X connect 59 1 128 0;
#X connect 59 2 129 0;
#X connect 60 0 130 0;
#X connect 60 1 131 0;
#X connect 60 3 132 0;
#X connect 61 0 133 0;
#X connect 61 1 134 0;
#X connect 61 2 135 0;
#X connect 62 0 136 0;
#X connect 62 1 137 0;
#X connect 62 2 138 0;
#X connect 63 0 139 0;
#X connect 63 1 140 0;
#X connect 63 2 141 0;
#X connect 64 0 116 0;
#X connect 64 1 117 0;
#X connect 64 2 118 0;
#X connect 65 0 110 0;
#X connect 65 1 111 0;
#X connect 65 2 112 0;
#X connect 66 0 113 0;
#X connect 66 1 114 0;
#X connect 66 2 115 0;
#X connect 67 0 107 0;
#X connect 67 1 108 0;
#X connect 67 2 109 0;
#X connect 68 0 95 0;
#X connect 68 1 96 0;
#X connect 68 2 97 0;
#X connect 69 0 101 0;
#X connect 69 1 102 0;
#X connect 69 2 103 0;
#X connect 70 0 98 0;
#X connect 70 1 99 0;
#X connect 70 2 100 0;
#X connect 71 0 104 0;
#X connect 71 1 105 0;
#X connect 71 2 106 0;
#X connect 72 0 68 0;
#X connect 73 0 70 0;
#X connect 74 0 69 0;
#X connect 75 0 71 0;
#X connect 76 0 56 0;
#X connect 77 0 57 0;
#X connect 78 0 58 0;
#X connect 79 0 59 0;
#X connect 80 0 64 0;
#X connect 81 0 66 0;
#X connect 82 0 65 0;
#X connect 83 0 67 0;
#X connect 84 0 60 0;
#X connect 85 0 61 0;
#X connect 86 0 62 0;
#X connect 87 0 63 0;
#X connect 88 0 72 0;
#X connect 88 0 73 0;
#X connect 88 0 74 0;
#X connect 88 0 75 0;
#X connect 88 0 76 0;
#X connect 88 0 77 0;
#X connect 88 0 78 0;
#X connect 88 0 79 0;
#X connect 89 0 80 0;
#X connect 89 0 81 0;
#X connect 89 0 82 0;
#X connect 89 0 83 0;
#X connect 89 0 84 0;
#X connect 89 0 85 0;
#X connect 89 0 86 0;
#X connect 89 0 87 0;
#X connect 93 0 68 1;
#X connect 93 0 70 1;
#X connect 93 0 69 1;
#X connect 93 0 71 1;
#X connect 93 0 56 1;
#X connect 93 0 57 1;
#X connect 93 0 58 1;
#X connect 93 0 59 1;
#X connect 93 0 92 0;
#X connect 94 0 60 1;
#X connect 94 0 61 1;
#X connect 94 0 62 1;
#X connect 94 0 63 1;
#X connect 94 0 64 1;
#X connect 94 0 66 1;
#X connect 94 0 65 1;
#X connect 94 0 67 1;
#X coords 0 -1 1 1 60 60 1 0 0;
