#N canvas 0 0 1059 600 10;
#X floatatom 177 131 5 0 0 0 - - -;
#X floatatom 242 82 5 0 0 0 - - -;
#X obj 243 129 * 100;
#X floatatom 242 151 5 0 0 0 - - -;
#X obj 243 105 clip 0 200;
#X obj 91 212 rev3~ 100 20 1000 20;
#X obj 70 269 outlet~;
#X obj 73 53 inlet~;
#X obj 174 57 inlet;
#X obj 241 58 inlet;
#X obj 173 153 clip 0 85;
#X obj 74 156 *~;
#X obj 104 154 *~;
#X obj 117 102 sig~ 1;
#X obj 118 128 -~;
#X obj 130 78 / 100;
#X obj 307 57 inlet fader;
#X floatatom 141 161 5 0 0 0 - - -;
#X connect 0 0 10 0;
#X connect 1 0 4 0;
#X connect 2 0 3 0;
#X connect 3 0 5 4;
#X connect 4 0 2 0;
#X connect 5 0 6 0;
#X connect 7 0 12 0;
#X connect 7 0 11 0;
#X connect 8 0 0 0;
#X connect 9 0 1 0;
#X connect 10 0 5 3;
#X connect 11 0 5 0;
#X connect 12 0 6 0;
#X connect 13 0 14 0;
#X connect 14 0 12 1;
#X connect 15 0 14 1;
#X connect 15 0 11 1;
#X connect 15 0 17 0;
#X connect 16 0 15 0;
