#N canvas 0 0 1362 722 10;
#N canvas 9 31 1362 722 synth 1;
#X obj 670 665 noise~;
#X obj 477 -40 adc~;
#X obj 661 634 fiddle~;
#X floatatom 578 559 5 0 0 0 - - -;
#X obj 576 538 r \$0-n7x;
#X obj 528 562 gdel;
#X obj 715 546 r \$0-n8y;
#X obj 660 545 r \$0-n8x;
#N canvas 0 0 771 300 centerer 0;
#X floatatom 219 94 5 0 0 0 - - -;
#X obj 255 68 / 10;
#X obj 255 95 - 9;
#X floatatom 217 117 5 0 0 0 - - -;
#X floatatom 215 62 5 0 0 0 - - -;
#X floatatom 219 141 5 0 0 0 - - -;
#X obj 255 118 + 3;
#X floatatom 287 122 5 0 0 0 - - -;
#X floatatom 285 183 5 0 0 0 - - -;
#X obj 255 144 +;
#X obj 255 168 f;
#X text 490 10 centerer;
#X obj 256 46 inlet axis;
#X obj 356 48 inlet centerval;
#X obj 102 103 knob 32 32 0 127 0 0 empty empty empty 0 -8 0 8 -262144
-1 -1 0 1;
#X obj 108 109 knob 20 20 -5 5 0 0 empty empty empty 0 -8 0 8 -258113
-1 -1 1682 1;
#X text 7 14 this value will be the xlrmtr axis scaled to only be5-6
degrees around the center value coming from the second inlet;
#X text 353 65 this value will come from a gesture node value;
#X obj 255 207 outlet;
#X connect 1 0 0 0;
#X connect 1 0 2 0;
#X connect 2 0 3 0;
#X connect 2 0 6 0;
#X connect 6 0 5 0;
#X connect 6 0 9 0;
#X connect 7 0 9 1;
#X connect 9 0 10 0;
#X connect 10 0 8 0;
#X connect 10 0 18 0;
#X connect 10 0 15 0;
#X connect 12 0 1 0;
#X connect 12 0 4 0;
#X connect 13 0 9 1;
#X connect 13 0 14 0;
#X coords 0 -1 1 1 40 60 2 100 100;
#X restore 667 568 pd centerer;
#N canvas 0 0 771 300 centerer 0;
#X floatatom 219 94 5 0 0 0 - - -;
#X obj 255 68 / 10;
#X obj 255 95 - 9;
#X floatatom 217 117 5 0 0 0 - - -;
#X floatatom 215 62 5 0 0 0 - - -;
#X floatatom 219 141 5 0 0 0 - - -;
#X obj 255 118 + 3;
#X floatatom 287 122 5 0 0 0 - - -;
#X floatatom 285 183 5 0 0 0 - - -;
#X obj 255 144 +;
#X obj 255 168 f;
#X text 490 10 centerer;
#X obj 256 46 inlet axis;
#X obj 356 48 inlet centerval;
#X obj 102 103 knob 32 32 0 127 0 0 empty empty empty 0 -8 0 8 -262144
-1 -1 0 1;
#X obj 108 109 knob 20 20 -5 5 0 0 empty empty empty 0 -8 0 8 -258113
-1 -1 1900 1;
#X text 7 14 this value will be the xlrmtr axis scaled to only be5-6
degrees around the center value coming from the second inlet;
#X text 353 65 this value will come from a gesture node value;
#X obj 255 207 outlet;
#X connect 1 0 0 0;
#X connect 1 0 2 0;
#X connect 2 0 3 0;
#X connect 2 0 6 0;
#X connect 6 0 5 0;
#X connect 6 0 9 0;
#X connect 7 0 9 1;
#X connect 9 0 10 0;
#X connect 10 0 8 0;
#X connect 10 0 18 0;
#X connect 10 0 15 0;
#X connect 12 0 1 0;
#X connect 12 0 4 0;
#X connect 13 0 9 1;
#X connect 13 0 14 0;
#X coords 0 -1 1 1 40 40 2 100 100;
#X restore 711 567 pd centerer;
#X obj 661 526 r xaxisr;
#X obj 716 526 r yaxisr;
#X obj 528 597 gverb;
#X floatatom 30 97 0 0 0 0 - - -;
#X obj 92 368 *~;
#X obj 215 305 line~;
#X floatatom 247 122 0 0 0 0 - - -;
#X text 78 19 PITCH SHIFTER;
#X obj 215 279 pack 0 200;
#X obj 29 71 r transpose;
#X obj 29 153 exp;
#X floatatom 29 195 6 0 0 0 - - -;
#X obj 29 269 /;
#X obj 156 199 * 0.001;
#X obj 324 375 line~;
#X obj 324 350 pack 0 200;
#X floatatom 324 299 0 0 0 0 - - -;
#X obj 324 273 r delay;
#X obj 92 394 +~;
#X obj 29 420 cos~;
#X obj 29 447 *~;
#X obj 101 516 +~;
#X obj 116 327 wrap~;
#X obj 261 370 *~;
#X obj 261 403 +~;
#X obj 198 430 cos~;
#X obj 198 457 *~;
#X obj 156 226 t b f;
#X floatatom 29 295 6 0 0 0 - - -;
#X obj 116 300 +~ 0.5;
#X obj 29 368 -~ 0.5;
#X obj 29 394 *~ 0.5;
#X obj 198 369 -~ 0.5;
#X obj 198 402 *~ 0.5;
#X obj 29 222 - 1;
#X obj 29 248 * -1;
#X text 63 96 <-- transposition;
#X text 106 109 (halftones);
#X text 92 173 speed;
#X text 91 187 change;
#X text 291 121 <--window (msec);
#X text 64 262 tape head;
#X obj 29 326 phasor~;
#X obj 324 326 max 1.5;
#X text 327 232 delay;
#X text 324 250 (msec);
#X obj 247 149 max 1;
#X text 65 275 rotation freq;
#X obj 92 420 vd~ G09-del;
#X obj 261 432 vd~ G09-del;
#X obj 125 89 vsl 15 128 0.5 2 0 0 empty empty empty 0 -9 0 10 -262144
-1 -1 1232 1;
#X floatatom 191 95 5 0 0 0 - - -;
#X obj 193 50 / 100;
#X obj 198 74 + 0.5;
#X obj 47 124 * 0.0078745;
#X obj 116 35 loadbang;
#X msg 123 57 0.7;
#X obj 341 49 r yaxis;
#X obj 392 73 delwrite~ G09-del 5000;
#X obj 324 72 * 2;
#X obj 323 93 - 70;
#X obj 496 -11 s~ modulator;
#X obj 850 173 expr~ $v1 > 0.1;
#X obj 638 345 s~ carrier;
#X floatatom 828 65 5 0 0 0 - - -;
#X obj 1094 -57 voice 100 1;
#X obj 909 11 s tick;
#X obj 909 -20 metro 20;
#X obj 970 181 s q;
#X floatatom 972 134 5 0 0 0 - - -;
#X obj 1094 -36 voice 200 2;
#X obj 1094 -15 voice 250 3;
#X obj 1094 6 voice 400 4;
#X obj 1094 26 voice 650 5;
#X obj 1094 47 voice 800 6;
#X obj 1094 68 voice 1100 7;
#X obj 1094 89 voice 1200 8;
#X obj 1174 -57 voice 1300 9;
#X obj 1174 -37 voice 1500 10;
#X obj 1174 -17 voice 1700 11;
#X obj 1174 3 voice 2000 12;
#X obj 1174 25 voice 2200 13;
#X obj 1174 45 voice 2500 14;
#X obj 1174 65 voice 2800 15;
#X obj 1174 85 voice 3000 16;
#N canvas 0 0 629 493 out 0;
#X obj 56 418 outlet~;
#X obj 7 179 r~ voice_1;
#X obj 79 179 r~ voice_2;
#X obj 147 179 r~ voice_3;
#X obj 219 179 r~ voice_4;
#X obj 50 247 r~ voice_5;
#X obj 122 247 r~ voice_6;
#X obj 190 247 r~ voice_7;
#X obj 262 247 r~ voice_8;
#X obj 221 303 r~ voice_9;
#X obj 293 303 r~ voice_10;
#X obj 367 303 r~ voice_11;
#X obj 439 303 r~ voice_12;
#X obj 167 346 r~ voice_13;
#X obj 239 346 r~ voice_14;
#X obj 315 346 r~ voice_15;
#X obj 392 345 r~ voice_16;
#X obj 304 206 r~ voice_17;
#X obj 376 206 r~ voice_18;
#X obj 529 205 r~ voice_20;
#X obj 452 206 r~ voice_19;
#X obj 523 241 r~ voice_21;
#X connect 1 0 0 0;
#X connect 2 0 0 0;
#X connect 3 0 0 0;
#X connect 4 0 0 0;
#X connect 5 0 0 0;
#X connect 6 0 0 0;
#X connect 7 0 0 0;
#X connect 8 0 0 0;
#X connect 9 0 0 0;
#X connect 10 0 0 0;
#X connect 11 0 0 0;
#X connect 12 0 0 0;
#X connect 13 0 0 0;
#X connect 14 0 0 0;
#X connect 15 0 0 0;
#X connect 16 0 0 0;
#X connect 17 0 0 0;
#X connect 18 0 0 0;
#X connect 19 0 0 0;
#X connect 20 0 0 0;
#X connect 21 0 0 0;
#X restore 484 389 pd out;
#X msg 854 28 60;
#X obj 854 -20 loadbang;
#X msg 972 110 7;
#X obj 970 158 clip 4 10;
#X obj 875 113 osc~;
#X obj 747 20 r noteval;
#X obj 743 175 expr~ $v1 > 0.1;
#X obj 747 91 phasor~;
#X obj 526 631 throw~ synthout6;
#X obj 139 606 s~ voice;
#X obj 403 3 r~ voc;
#X text 518 169 going to need a pitchshifter here;
#X obj 393 49 hip~ 100;
#X floatatom 1030 158 5 0 0 0 - - -;
#X floatatom 481 93 5 0 0 0 - - -;
#X obj 478 120 / 17.78;
#X obj 527 148 + 3;
#X obj 1177 178 voice 100000 20;
#X obj 1177 158 voice 7500 19;
#X obj 1177 138 voice 5000 18;
#X obj 1177 118 voice 4500 17;
#X obj 485 424 hip~ 10;
#X obj 982 63 r mynotemsg;
#X obj 979 84 unpack f f f;
#X obj 914 118 mtof;
#X obj 808 105 noise~;
#X obj 938 380 bp~;
#X obj 821 141 *~ 0.1;
#X obj 486 197 env~;
#X floatatom 491 261 5 0 0 0 - - -;
#X obj 503 305 s vocolor;
#X obj 449 190 vsl 15 128 0 127 0 0 empty empty empty 0 -9 0 10 -262144
-1 -1 3428 1;
#X obj 509 532 *~ 2;
#X floatatom 570 319 5 0 0 0 - - -;
#X obj 563 269 - 30;
#X obj 536 217 spigot;
#X floatatom 610 245 5 0 0 0 - - -;
#X obj 569 292 clip 0 127;
#X obj 561 249 * 1;
#X obj 1177 202 voice 130000 21;
#X obj 612 51 r~ respchnl-l;
#X obj 725 48 r~ respchnl-r;
#X obj 179 497 sel 0 1;
#X msg 211 521 0;
#X msg 174 520 1;
#X obj 186 -21 r yaxis;
#X msg 188 9 127 \$1;
#X obj 189 28 -;
#X obj 110 547 *~ 1;
#X msg 276 81 100;
#X obj 257 536 tgl 15 0 empty empty empty 17 7 0 10 -262144 -1 -1 0
1;
#X floatatom 210 552 5 0 0 0 - - -;
#X obj 298 592 spigot;
#X obj 283 548 tgl 15 0 empty empty empty 17 7 0 10 -262144 -1 -1 0
1;
#X obj 251 466 r breath;
#X obj 288 495 > 1;
#X obj 612 216 inlet pgmout;
#X obj 347 529 sel 0 1;
#X msg 379 553 0;
#X msg 342 552 1;
#X floatatom 917 87 5 0 0 0 - - -;
#X obj 1083 220 r yaxis;
#X obj 1091 391 +;
#X obj 1077 319 - 64;
#X floatatom 1090 420 5 0 0 0 - - -;
#X obj 1081 344 * 2;
#X obj 1047 249 vsl 15 128 0 127 0 0 empty empty empty 0 -9 0 10 -262144
-1 -1 0 1;
#X obj 1130 253 vsl 15 128 0 127 0 0 empty empty empty 0 -9 0 10 -262144
-1 -1 0 1;
#X floatatom 1136 395 5 0 0 0 - - -;
#X floatatom 1036 405 5 0 0 0 - - -;
#X msg 1083 250 127 \$1;
#X obj 1080 278 -;
#X obj 1080 364 / 40;
#X obj 121 586 *~ 10;
#X connect 1 1 71 0;
#X connect 1 1 108 0;
#X connect 1 1 124 0;
#X connect 3 0 5 1;
#X connect 4 0 3 0;
#X connect 5 0 12 0;
#X connect 6 0 9 1;
#X connect 7 0 8 1;
#X connect 8 0 12 3;
#X connect 9 0 12 2;
#X connect 10 0 8 0;
#X connect 11 0 9 0;
#X connect 12 0 104 0;
#X connect 13 0 64 0;
#X connect 14 0 28 0;
#X connect 15 0 14 1;
#X connect 15 0 33 1;
#X connect 16 0 56 0;
#X connect 18 0 15 0;
#X connect 19 0 13 0;
#X connect 20 0 21 0;
#X connect 21 0 44 0;
#X connect 22 0 38 0;
#X connect 23 0 37 0;
#X connect 24 0 28 1;
#X connect 24 0 34 1;
#X connect 25 0 24 0;
#X connect 26 0 53 0;
#X connect 27 0 26 0;
#X connect 28 0 58 0;
#X connect 29 0 30 0;
#X connect 30 0 31 0;
#X connect 31 0 144 0;
#X connect 32 0 33 0;
#X connect 32 0 42 0;
#X connect 33 0 34 0;
#X connect 34 0 59 0;
#X connect 35 0 36 0;
#X connect 36 0 31 1;
#X connect 37 0 22 0;
#X connect 37 1 22 1;
#X connect 38 0 52 0;
#X connect 39 0 32 0;
#X connect 40 0 41 0;
#X connect 41 0 29 0;
#X connect 42 0 43 0;
#X connect 43 0 35 0;
#X connect 44 0 45 0;
#X connect 45 0 22 0;
#X connect 52 0 14 0;
#X connect 52 0 40 0;
#X connect 52 0 39 0;
#X connect 53 0 25 0;
#X connect 56 0 23 0;
#X connect 56 0 18 0;
#X connect 58 0 30 1;
#X connect 59 0 36 1;
#X connect 60 0 21 0;
#X connect 62 0 63 0;
#X connect 63 0 61 0;
#X connect 63 0 60 0;
#X connect 64 0 20 0;
#X connect 65 0 66 0;
#X connect 66 0 60 0;
#X connect 67 0 69 0;
#X connect 67 0 111 0;
#X connect 69 0 70 0;
#X connect 72 0 73 0;
#X connect 74 0 100 0;
#X connect 74 0 103 0;
#X connect 77 0 76 0;
#X connect 79 0 99 0;
#X connect 95 0 117 0;
#X connect 96 0 74 0;
#X connect 96 0 64 0;
#X connect 97 0 96 0;
#X connect 97 0 77 0;
#X connect 97 0 98 0;
#X connect 97 0 145 0;
#X connect 98 0 79 0;
#X connect 99 0 78 0;
#X connect 100 0 72 0;
#X connect 102 0 73 0;
#X connect 103 0 102 0;
#X connect 108 0 68 0;
#X connect 110 0 111 0;
#X connect 112 0 99 0;
#X connect 112 0 109 0;
#X connect 117 0 128 0;
#X connect 118 0 119 0;
#X connect 119 0 158 1;
#X connect 119 0 120 0;
#X connect 120 0 74 0;
#X connect 120 0 122 1;
#X connect 121 0 123 0;
#X connect 122 0 102 0;
#X connect 122 0 72 0;
#X connect 123 0 122 0;
#X connect 124 0 125 0;
#X connect 124 0 127 0;
#X connect 124 0 131 0;
#X connect 128 0 5 0;
#X connect 130 0 133 0;
#X connect 131 0 134 0;
#X connect 133 0 129 0;
#X connect 133 0 126 0;
#X connect 134 0 130 0;
#X connect 138 0 140 0;
#X connect 138 1 139 0;
#X connect 138 2 147 0;
#X connect 139 0 144 1;
#X connect 140 0 144 1;
#X connect 141 0 142 0;
#X connect 142 0 143 0;
#X connect 143 0 62 0;
#X connect 144 0 169 0;
#X connect 145 0 16 0;
#X connect 148 0 149 0;
#X connect 148 0 138 0;
#X connect 150 0 151 0;
#X connect 151 0 146 0;
#X connect 151 0 148 0;
#X connect 152 0 132 0;
#X connect 152 0 131 1;
#X connect 152 0 153 0;
#X connect 153 0 155 0;
#X connect 153 1 154 0;
#X connect 154 0 148 1;
#X connect 154 0 144 1;
#X connect 155 0 148 1;
#X connect 156 0 120 0;
#X connect 157 0 166 0;
#X connect 158 0 160 0;
#X connect 159 0 161 0;
#X connect 161 0 168 0;
#X connect 162 0 159 0;
#X connect 163 0 158 1;
#X connect 163 0 164 0;
#X connect 166 0 167 0;
#X connect 167 0 159 0;
#X connect 168 0 158 0;
#X connect 168 0 165 0;
#X connect 169 0 105 0;
#X restore 644 104 pd synth;
#X obj 607 131 inlet pgmout;
#X obj 478 203 gesturenode;
#X obj 715 189 gesturenode-r;
#X floatatom 849 96 5 0 0 0 - - -;
#X obj 445 322 s \$0-n1x;
#X obj 495 344 s \$0-n1y;
#X obj 526 322 s \$0-n1z;
#X obj 388 322 s \$0-n2z;
#X obj 344 342 s \$0-n2y;
#X obj 301 323 s \$0-n2x;
#X obj 242 322 s \$0-n3z;
#X obj 206 346 s \$0-n3y;
#X obj 158 323 s \$0-n3x;
#X obj 99 325 s \$0-n4z;
#X obj 48 343 s \$0-n4y;
#X obj 7 323 s \$0-n4x;
#X obj 815 323 s \$0-n5z;
#X obj 769 341 s \$0-n5y;
#X obj 726 322 s \$0-n5x;
#X obj 968 322 s \$0-n6z;
#X obj 880 322 s \$0-n6x;
#X obj 1110 319 s \$0-n7z;
#X obj 1068 341 s \$0-n7y;
#X obj 1024 322 s \$0-n7x;
#X obj 1259 320 s \$0-n8z;
#X obj 1211 345 s \$0-n8y;
#X obj 1172 322 s \$0-n8x;
#X text 762 100 n=node;
#X obj 972 93 s \$0-n \$1 z;
#X obj 892 94 s \$0-pgm;
#X text 1065 85 assign to single unrelated vectors;
#X obj 538 130 r parakey;
#X obj 478 173 == 1;
#X obj 64 169 r frange4;
#X obj 208 172 r frange3;
#X obj 367 173 r frange2;
#X obj 515 173 r frange1;
#X obj 31 170 == 4;
#X obj 175 173 == 3;
#X obj 331 174 == 2;
#X obj 1105 117 r parakey;
#X obj 766 137 == 5;
#X obj 799 136 r frange5;
#X obj 911 138 == 6;
#X obj 944 137 r frange6;
#X obj 1041 142 == 7;
#X obj 1077 141 r frange7;
#X obj 1183 145 == 8;
#X obj 1220 145 r frange8;
#X obj 870 192 gesturenode-r;
#X obj 1024 192 gesturenode-r;
#X obj 1181 190 gesturenode-r;
#X obj 168 202 gesturenode;
#X obj 322 202 gesturenode;
#X obj 12 200 gesturenode;
#X obj 710 402 gesturenode-r;
#X obj 865 402 gesturenode-r;
#X obj 1019 402 gesturenode-r;
#X obj 1176 400 gesturenode-r;
#X obj 712 597 gesturenode-r;
#X obj 866 600 gesturenode-r;
#X obj 1021 597 gesturenode-r;
#X obj 1178 595 gesturenode-r;
#X obj 482 587 gesturenode;
#X obj 172 586 gesturenode;
#X obj 326 586 gesturenode;
#X obj 16 584 gesturenode;
#X obj 478 397 gesturenode;
#X obj 168 396 gesturenode;
#X obj 322 396 gesturenode;
#X obj 12 394 gesturenode;
#X obj 471 364 == 9;
#X obj 324 365 == 10;
#X obj 168 364 == 11;
#X obj 24 361 == 12;
#X obj 728 367 == 13;
#X obj 872 370 == 14;
#X obj 1028 371 == 15;
#X obj 1175 370 == 16;
#X obj 473 558 == 17;
#X obj 326 559 == 18;
#X obj 170 558 == 19;
#X obj 26 555 == 20;
#X obj 731 559 == 21;
#X obj 875 562 == 22;
#X obj 1031 563 == 23;
#X obj 1178 562 == 24;
#X obj 641 278 r parakey;
#X obj 566 542 r parakey;
#X text 643 441 (x)jb1;
#X text 650 650 (x)jb4;
#X floatatom 651 383 5 0 0 0 - - -;
#X obj 629 342 t f;
#X obj 626 544 t f;
#X obj 445 516 s \$0-n9x;
#X obj 495 538 s \$0-n9y;
#X obj 526 516 s \$0-n9z;
#X obj 301 517 s \$0-n10x;
#X obj 344 536 s \$0-n10y;
#X obj 388 516 s \$0-n10z;
#X obj 158 517 s \$0-n11x;
#X obj 206 540 s \$0-n11y;
#X obj 242 516 s \$0-n11z;
#X obj 7 517 s \$0-n12x;
#X obj 48 537 s \$0-n12y;
#X obj 99 519 s \$0-n12z;
#X obj 11 707 s \$0-n20x;
#X obj 52 727 s \$0-n20y;
#X obj 103 709 s \$0-n20z;
#X obj 162 707 s \$0-n19x;
#X obj 210 730 s \$0-19y;
#X obj 246 706 s \$0-19z;
#X obj 305 707 s \$0-n18x;
#X obj 348 726 s \$0-n18y;
#X obj 392 706 s \$0-n18z;
#X obj 449 706 s \$0-n17x;
#X obj 499 728 s \$0-n17y;
#X obj 530 706 s \$0-n17z;
#X obj 723 526 s \$0-n13x;
#X obj 766 545 s \$0-n13y;
#X obj 812 527 s \$0-13z;
#X obj 877 526 s \$0-n14x;
#X obj 965 526 s \$0-n14z;
#X obj 1021 526 s \$0-n15x;
#X obj 1065 545 s \$0-n15y;
#X obj 1107 523 s \$0-n15z;
#X obj 1169 526 s \$0-n16x;
#X obj 1208 549 s \$0-n16y;
#X obj 1256 524 s \$0-n16z;
#X obj 713 721 s \$0-n21x;
#X obj 756 740 s \$0-n21y;
#X obj 802 722 s \$0-n21z;
#X obj 867 721 s \$0-n22x;
#X obj 911 741 s \$0-n22y;
#X obj 943 721 s \$0-n22z;
#X obj 1011 721 s \$0-n23x;
#X obj 1055 740 s \$0-n23y;
#X obj 1097 718 s \$0-n23z;
#X obj 1159 721 s \$0-n24x;
#X obj 1198 744 s \$0-24y;
#X obj 1246 719 s \$0-n24z;
#X obj 1112 147;
#X floatatom 707 328 5 0 0 0 - - -;
#X obj 924 342 s \$0-n6y;
#X obj 921 546 s \$0-n14y;
#X obj 722 93 r switch;
#X connect 1 0 4 0;
#X connect 1 0 30 0;
#X connect 1 0 2 1;
#X connect 1 0 3 1;
#X connect 1 0 50 1;
#X connect 1 0 51 1;
#X connect 1 0 52 1;
#X connect 1 0 53 1;
#X connect 1 0 54 1;
#X connect 1 0 55 1;
#X connect 1 0 93 0;
#X connect 1 0 94 0;
#X connect 1 0 0 0;
#X connect 2 0 5 0;
#X connect 2 1 6 0;
#X connect 2 2 7 0;
#X connect 3 0 19 0;
#X connect 3 0 143 0;
#X connect 3 1 18 0;
#X connect 3 2 17 0;
#X connect 32 0 33 0;
#X connect 32 0 38 0;
#X connect 32 0 39 0;
#X connect 32 0 40 0;
#X connect 33 0 2 0;
#X connect 34 0 55 2;
#X connect 34 0 71 2;
#X connect 34 0 67 2;
#X connect 35 0 53 2;
#X connect 35 0 69 2;
#X connect 35 0 65 2;
#X connect 36 0 54 2;
#X connect 36 0 70 2;
#X connect 36 0 66 2;
#X connect 37 0 2 2;
#X connect 37 0 68 2;
#X connect 37 0 64 2;
#X connect 38 0 55 0;
#X connect 39 0 53 0;
#X connect 40 0 54 0;
#X connect 41 0 42 0;
#X connect 41 0 44 0;
#X connect 41 0 46 0;
#X connect 41 0 48 0;
#X connect 42 0 3 0;
#X connect 43 0 3 2;
#X connect 43 0 56 2;
#X connect 43 0 60 2;
#X connect 44 0 50 0;
#X connect 45 0 50 2;
#X connect 45 0 57 2;
#X connect 45 0 61 2;
#X connect 46 0 51 0;
#X connect 47 0 51 2;
#X connect 47 0 58 2;
#X connect 47 0 62 2;
#X connect 48 0 52 0;
#X connect 49 0 52 2;
#X connect 49 0 59 2;
#X connect 49 0 63 2;
#X connect 50 0 21 0;
#X connect 50 1 144 0;
#X connect 50 2 20 0;
#X connect 51 0 24 0;
#X connect 51 1 23 0;
#X connect 51 2 22 0;
#X connect 52 0 27 0;
#X connect 52 1 26 0;
#X connect 52 2 25 0;
#X connect 53 0 13 0;
#X connect 53 1 12 0;
#X connect 53 2 11 0;
#X connect 54 0 10 0;
#X connect 54 1 9 0;
#X connect 54 2 8 0;
#X connect 55 0 16 0;
#X connect 55 1 15 0;
#X connect 55 2 14 0;
#X connect 56 0 119 0;
#X connect 56 1 120 0;
#X connect 56 2 121 0;
#X connect 57 0 122 0;
#X connect 57 1 145 0;
#X connect 57 2 123 0;
#X connect 58 0 124 0;
#X connect 58 1 125 0;
#X connect 58 2 126 0;
#X connect 59 0 127 0;
#X connect 59 1 128 0;
#X connect 59 2 129 0;
#X connect 60 0 130 0;
#X connect 60 1 131 0;
#X connect 60 3 132 0;
#X connect 61 0 133 0;
#X connect 61 1 134 0;
#X connect 61 2 135 0;
#X connect 62 0 136 0;
#X connect 62 1 137 0;
#X connect 62 2 138 0;
#X connect 63 0 139 0;
#X connect 63 1 140 0;
#X connect 63 2 141 0;
#X connect 64 0 116 0;
#X connect 64 1 117 0;
#X connect 64 2 118 0;
#X connect 65 0 110 0;
#X connect 65 1 111 0;
#X connect 65 2 112 0;
#X connect 66 0 113 0;
#X connect 66 1 114 0;
#X connect 66 2 115 0;
#X connect 67 0 107 0;
#X connect 67 1 108 0;
#X connect 67 2 109 0;
#X connect 68 0 95 0;
#X connect 68 1 96 0;
#X connect 68 2 97 0;
#X connect 69 0 101 0;
#X connect 69 1 102 0;
#X connect 69 2 103 0;
#X connect 70 0 98 0;
#X connect 70 1 99 0;
#X connect 70 2 100 0;
#X connect 71 0 104 0;
#X connect 71 1 105 0;
#X connect 71 2 106 0;
#X connect 72 0 68 0;
#X connect 73 0 70 0;
#X connect 74 0 69 0;
#X connect 75 0 71 0;
#X connect 76 0 56 0;
#X connect 77 0 57 0;
#X connect 78 0 58 0;
#X connect 79 0 59 0;
#X connect 80 0 64 0;
#X connect 81 0 66 0;
#X connect 82 0 65 0;
#X connect 83 0 67 0;
#X connect 84 0 60 0;
#X connect 85 0 61 0;
#X connect 86 0 62 0;
#X connect 87 0 63 0;
#X connect 88 0 72 0;
#X connect 88 0 73 0;
#X connect 88 0 74 0;
#X connect 88 0 75 0;
#X connect 88 0 76 0;
#X connect 88 0 77 0;
#X connect 88 0 78 0;
#X connect 88 0 79 0;
#X connect 89 0 80 0;
#X connect 89 0 81 0;
#X connect 89 0 82 0;
#X connect 89 0 83 0;
#X connect 89 0 84 0;
#X connect 89 0 85 0;
#X connect 89 0 86 0;
#X connect 89 0 87 0;
#X connect 93 0 68 1;
#X connect 93 0 70 1;
#X connect 93 0 69 1;
#X connect 93 0 71 1;
#X connect 93 0 56 1;
#X connect 93 0 57 1;
#X connect 93 0 58 1;
#X connect 93 0 59 1;
#X connect 93 0 92 0;
#X connect 94 0 60 1;
#X connect 94 0 61 1;
#X connect 94 0 62 1;
#X connect 94 0 63 1;
#X connect 94 0 64 1;
#X connect 94 0 66 1;
#X connect 94 0 65 1;
#X connect 94 0 67 1;
#X coords 0 -1 1 1 60 60 1 100 100;
