#N canvas 71 48 932 602 10;
#X floatatom 14 365 5 0 0 0 - - -;
#X floatatom 56 364 5 0 0 0 - - -;
#X floatatom 160 384 5 0 0 0 - - -;
#X obj 84 93 * 127;
#X obj 130 92 * 127;
#X obj 67 210 grid grid2 85 1 127 85 1 127 1 1 1 5 5 402 585;
#X msg 66 185 goto \$1 \$2;
#X obj 66 148 pack 1 1;
#X obj 99 61 unpack f f f;
#X obj 97 37 spigot;
#X obj 219 148 vsl 15 256 1 256 0 0 empty empty empty 0 -9 0 10 -262144
-1 -1 12600 1;
#X floatatom 95 365 5 0 0 0 - - -;
#X obj 184 93 * 256;
#X obj 163 13 inlet;
#N canvas 0 0 303 384 rangex 0;
#X obj 106 72 clip 36 96;
#X floatatom 107 102 5 0 0 0 - - -;
#X obj 107 124 - 36;
#X floatatom 108 151 5 0 0 0 - - -;
#X floatatom 109 224 5 0 0 0 - - -;
#X obj 109 196 int;
#X obj 108 176 * 2.2;
#X obj 109 247 clip 0 127;
#X floatatom 112 280 5 0 0 0 - - -;
#X text 146 100 range multiplier;
#X obj 107 40 inlet;
#X obj 115 317 outlet;
#X connect 0 0 1 0;
#X connect 1 0 2 0;
#X connect 2 0 3 0;
#X connect 3 0 6 0;
#X connect 4 0 7 0;
#X connect 5 0 4 0;
#X connect 6 0 5 0;
#X connect 7 0 8 0;
#X connect 8 0 11 0;
#X connect 10 0 0 0;
#X restore 57 119 pd rangex;
#N canvas 0 0 303 384 rangex 0;
#X obj 106 72 clip 36 96;
#X floatatom 107 102 5 0 0 0 - - -;
#X obj 107 124 - 36;
#X floatatom 108 151 5 0 0 0 - - -;
#X floatatom 109 224 5 0 0 0 - - -;
#X obj 109 196 int;
#X obj 108 176 * 2.2;
#X obj 109 247 clip 0 127;
#X floatatom 112 280 5 0 0 0 - - -;
#X text 146 100 range multiplier;
#X obj 107 40 inlet;
#X obj 115 317 outlet;
#X connect 0 0 1 0;
#X connect 1 0 2 0;
#X connect 2 0 3 0;
#X connect 3 0 6 0;
#X connect 4 0 7 0;
#X connect 5 0 4 0;
#X connect 6 0 5 0;
#X connect 7 0 8 0;
#X connect 8 0 11 0;
#X connect 10 0 0 0;
#X restore 123 119 pd rangex;
#N canvas 0 0 303 384 rangex 0;
#X obj 106 72 clip 36 96;
#X floatatom 107 102 5 0 0 0 - - -;
#X obj 107 124 - 36;
#X floatatom 108 151 5 0 0 0 - - -;
#X floatatom 109 224 5 0 0 0 - - -;
#X obj 109 196 int;
#X obj 108 176 * 2.2;
#X obj 109 247 clip 0 127;
#X floatatom 112 280 5 0 0 0 - - -;
#X text 146 100 range multiplier;
#X obj 107 40 inlet;
#X obj 115 317 outlet;
#X connect 0 0 1 0;
#X connect 1 0 2 0;
#X connect 2 0 3 0;
#X connect 3 0 6 0;
#X connect 4 0 7 0;
#X connect 5 0 4 0;
#X connect 6 0 5 0;
#X connect 7 0 8 0;
#X connect 8 0 11 0;
#X connect 10 0 0 0;
#X restore 196 120 pd rangex;
#X obj 99 2 spigot;
#X obj 163 -27 r stop1;
#N canvas 1024 11 1016 648 xaxisswitches 0;
#X msg 441 183 0;
#X msg 473 186 1;
#X msg 505 186 0;
#X obj 451 213 change;
#X floatatom 383 124 5 0 127 0 - - -;
#X msg 576 184 1;
#X obj 643 148 moses 80;
#X msg 548 185 0;
#X msg 679 184 1;
#X obj 553 210 change;
#X obj 553 149 moses 50;
#X msg 606 184 0;
#X obj 649 207 change;
#X msg 649 184 0;
#X msg 709 185 0;
#X obj 740 147 moses 100;
#X msg 792 188 1;
#X msg 763 189 0;
#X msg 819 188 0;
#X obj 766 211 change;
#X msg 890 182 1;
#X msg 861 183 0;
#X msg 917 182 0;
#X obj 864 205 change;
#X obj 838 141 moses 127;
#X obj 452 352 tgl 15 0 empty empty empty 17 7 0 10 -262144 -1 -1 1
1;
#X obj 435 352 tgl 15 0 empty empty empty 17 7 0 10 -262144 -1 -1 0
1;
#X obj 418 352 tgl 15 0 empty empty empty 17 7 0 10 -262144 -1 -1 0
1;
#X obj 401 352 tgl 15 0 empty empty empty 17 7 0 10 -262144 -1 -1 0
1;
#X obj 469 352 tgl 15 0 empty empty empty 17 7 0 10 -262144 -1 -1 0
1;
#X obj 382 93 average 5;
#X obj 357 64 inlet;
#X obj 459 146 moses 30;
#X obj 385 148 moses 1;
#X obj 39 298 cnv 15 300 250 empty empty empty 20 12 0 14 -257985 -66577
0;
#X obj 121 482 loadbang;
#X obj 48 570 text3d;
#X msg 91 570 font /home/onyx/beatjazzdir/vera.ttf;
#X obj 52 397 gemhead;
#X msg 46 368 1;
#X msg 83 368 0;
#X obj 52 333 sel 1 0;
#X obj 50 545 colorRGB;
#X obj 104 524 r r;
#X obj 129 524 r g;
#X obj 155 525 r b;
#X msg 129 501 3;
#X obj 95 169 loadbang;
#X obj 36 257 text3d;
#X msg 79 257 font /home/onyx/beatjazzdir/vera.ttf;
#X obj 38 129 gemhead;
#X msg 32 100 1;
#X msg 69 100 0;
#X obj 38 65 sel 1 0;
#X obj 36 234 colorRGB;
#X obj 78 211 r r;
#X obj 103 211 r g;
#X obj 129 212 r b;
#X msg 103 188 3;
#X obj 191 134 / 127;
#X obj 154 108 average 10;
#X obj 191 156 + 0.25;
#X obj 175 188 clip 0.65 1.15;
#X obj 386 456 spigot;
#X floatatom 391 521 5 0 0 0 - - -;
#X obj 390 499 int;
#X msg 390 541 text \$1;
#X obj 387 478 average 10;
#X obj 501 456 spigot;
#X floatatom 502 520 5 0 0 0 - - -;
#X obj 504 499 int;
#X msg 504 540 text \$1;
#X obj 503 478 average 10;
#X obj 820 466 spigot;
#X floatatom 821 530 5 0 0 0 - - -;
#X obj 823 509 int;
#X msg 823 550 text \$1;
#X obj 822 488 average 10;
#X obj 608 458 spigot;
#X floatatom 609 522 5 0 0 0 - - -;
#X obj 611 501 int;
#X msg 611 542 text \$1;
#X obj 610 480 average 10;
#X obj 714 459 spigot;
#X floatatom 715 523 5 0 0 0 - - -;
#X obj 717 502 int;
#X msg 717 543 text \$1;
#X obj 716 481 average 10;
#X floatatom 312 595 5 0 0 0 - - -;
#X obj 178 526 r \$0-xptext;
#X obj 152 213 r \$0-yaxisnumupdate;
#X msg 421 383 text .;
#X msg 516 384 text .;
#X msg 632 385 text .;
#X msg 779 385 text .;
#X obj 367 383 sel 0 1;
#X obj 465 382 sel 0 1;
#X obj 579 384 sel 0 1;
#X obj 726 381 sel 0 1;
#X obj 836 381 sel 0 1;
#X obj 854 569 s \$0-yaxisnumupdate;
#X obj 727 570 s \$0-yaxisnumupdate;
#X obj 605 572 s \$0-yaxisnumupdate;
#X obj 480 571 s \$0-yaxisnumupdate;
#X obj 350 571 s \$0-yaxisnumupdate;
#X obj 49 458 spigot;
#X obj 35 201 spigot;
#X obj 63 437 r \$0-gcut;
#X obj 35 170 r \$0-gcut;
#X msg 900 384 text .;
#X obj 546 243 == 1;
#X obj 446 245 == 1;
#X obj 643 239 == 1;
#X obj 759 243 == 1;
#X obj 859 240 == 1;
#X obj 458 310 s \$0-xptext;
#X obj 548 311 s \$0-xptext;
#X obj 629 313 s \$0-xptext;
#X obj 713 309 s \$0-xptext;
#X obj 798 305 s \$0-xptext;
#X obj 42 477 r \$0-preset0;
#X obj 47 523 spigot;
#X obj 389 619 outlet;
#X obj 502 622 outlet;
#X obj 612 624 outlet;
#X obj 717 624 outlet;
#X obj 822 628 outlet;
#X obj 371 409 r \$0-gry;
#X obj 486 409 r \$0-gry;
#X obj 593 411 r \$0-gry;
#X obj 699 412 r \$0-gry;
#X obj 805 419 r \$0-gry;
#X obj 154 78 r \$0-gry;
#X obj 36 150 translateXYZ 1.5 0.4 0;
#X obj 50 418 translateXYZ 2.5 0.4 0;
#X obj 42 39 r \$0-fkey;
#X obj 56 307 r \$0-fkey;
#X obj 44 500 == 1;
#X floatatom 267 126 5 0 0 0 - - -;
#X connect 0 0 3 0;
#X connect 1 0 3 0;
#X connect 2 0 3 0;
#X connect 3 0 28 0;
#X connect 3 0 111 0;
#X connect 4 0 33 0;
#X connect 5 0 9 0;
#X connect 6 0 8 0;
#X connect 6 0 17 0;
#X connect 6 1 14 0;
#X connect 6 1 15 0;
#X connect 7 0 9 0;
#X connect 8 0 12 0;
#X connect 9 0 27 0;
#X connect 9 0 110 0;
#X connect 10 0 5 0;
#X connect 10 0 13 0;
#X connect 10 1 6 0;
#X connect 10 1 11 0;
#X connect 11 0 9 0;
#X connect 12 0 26 0;
#X connect 12 0 112 0;
#X connect 13 0 12 0;
#X connect 14 0 12 0;
#X connect 15 0 16 0;
#X connect 15 0 21 0;
#X connect 15 1 18 0;
#X connect 15 1 24 0;
#X connect 16 0 19 0;
#X connect 17 0 19 0;
#X connect 18 0 19 0;
#X connect 19 0 25 0;
#X connect 19 0 113 0;
#X connect 20 0 23 0;
#X connect 21 0 23 0;
#X connect 22 0 23 0;
#X connect 23 0 29 0;
#X connect 23 0 114 0;
#X connect 24 0 20 0;
#X connect 24 1 22 0;
#X connect 25 0 83 1;
#X connect 25 0 98 0;
#X connect 25 0 125 0;
#X connect 26 0 78 1;
#X connect 26 0 97 0;
#X connect 26 0 124 0;
#X connect 27 0 68 1;
#X connect 27 0 96 0;
#X connect 27 0 123 0;
#X connect 28 0 63 1;
#X connect 28 0 95 0;
#X connect 28 0 122 0;
#X connect 29 0 73 1;
#X connect 29 0 99 0;
#X connect 29 0 126 0;
#X connect 30 0 4 0;
#X connect 31 0 30 0;
#X connect 32 0 1 0;
#X connect 32 0 7 0;
#X connect 32 1 2 0;
#X connect 32 1 10 0;
#X connect 33 0 0 0;
#X connect 33 1 32 0;
#X connect 35 0 37 0;
#X connect 35 0 46 0;
#X connect 37 0 36 0;
#X connect 38 0 134 0;
#X connect 39 0 38 0;
#X connect 40 0 38 0;
#X connect 41 0 39 0;
#X connect 41 1 40 0;
#X connect 42 0 36 0;
#X connect 43 0 42 1;
#X connect 44 0 42 2;
#X connect 45 0 42 3;
#X connect 46 0 36 1;
#X connect 47 0 49 0;
#X connect 47 0 58 0;
#X connect 49 0 48 0;
#X connect 50 0 133 0;
#X connect 51 0 50 0;
#X connect 52 0 50 0;
#X connect 53 0 51 0;
#X connect 53 1 52 0;
#X connect 54 0 48 0;
#X connect 55 0 54 1;
#X connect 56 0 54 2;
#X connect 57 0 54 3;
#X connect 58 0 48 1;
#X connect 59 0 61 0;
#X connect 59 0 138 0;
#X connect 60 0 59 0;
#X connect 61 0 62 0;
#X connect 62 0 133 2;
#X connect 63 0 67 0;
#X connect 64 0 66 0;
#X connect 65 0 64 0;
#X connect 66 0 104 0;
#X connect 67 0 65 0;
#X connect 68 0 72 0;
#X connect 69 0 71 0;
#X connect 70 0 69 0;
#X connect 71 0 103 0;
#X connect 72 0 70 0;
#X connect 73 0 77 0;
#X connect 74 0 76 0;
#X connect 75 0 74 0;
#X connect 76 0 100 0;
#X connect 77 0 75 0;
#X connect 78 0 82 0;
#X connect 79 0 81 0;
#X connect 80 0 79 0;
#X connect 81 0 102 0;
#X connect 82 0 80 0;
#X connect 83 0 87 0;
#X connect 84 0 86 0;
#X connect 85 0 84 0;
#X connect 86 0 101 0;
#X connect 87 0 85 0;
#X connect 89 0 36 0;
#X connect 90 0 48 0;
#X connect 91 0 104 0;
#X connect 92 0 103 0;
#X connect 93 0 102 0;
#X connect 94 0 101 0;
#X connect 95 0 91 0;
#X connect 96 0 92 0;
#X connect 97 0 93 0;
#X connect 98 0 94 0;
#X connect 99 0 109 0;
#X connect 105 0 121 0;
#X connect 106 0 54 0;
#X connect 107 0 105 1;
#X connect 108 0 106 1;
#X connect 109 0 100 0;
#X connect 120 0 137 0;
#X connect 121 0 42 0;
#X connect 127 0 63 0;
#X connect 127 0 88 0;
#X connect 128 0 68 0;
#X connect 129 0 78 0;
#X connect 130 0 83 0;
#X connect 131 0 73 0;
#X connect 132 0 60 0;
#X connect 133 0 106 0;
#X connect 134 0 105 0;
#X connect 135 0 53 0;
#X connect 136 0 41 0;
#X connect 137 0 121 1;
#X coords 0 -1 1 1 85 20 1 400 350;
#X restore 7 301 pd xaxisswitches;
#N canvas 0 52 1024 716 yaxisswitches 0;
#X msg 376 26 0;
#X msg 408 26 1;
#X msg 440 26 0;
#X obj 386 53 change;
#X floatatom 320 -32 5 0 127 0 - - -;
#X msg 511 24 1;
#X obj 578 -12 moses 80;
#X msg 483 25 0;
#X msg 614 24 1;
#X obj 488 50 change;
#X msg 541 24 0;
#X obj 584 47 change;
#X msg 584 24 0;
#X msg 644 25 0;
#X obj 675 -13 moses 100;
#X msg 727 28 1;
#X msg 698 29 0;
#X msg 754 28 0;
#X obj 701 51 change;
#X msg 825 22 1;
#X msg 796 23 0;
#X msg 852 22 0;
#X obj 799 45 change;
#X obj 773 -14 moses 127;
#X obj 321 218 tgl 15 0 empty empty empty 17 7 0 10 -262144 -1 -1 0
1;
#X obj 321 235 tgl 15 0 empty empty empty 17 7 0 10 -262144 -1 -1 0
1;
#X obj 322 252 tgl 15 0 empty empty empty 17 7 0 10 -262144 -1 -1 0
1;
#X obj 322 268 tgl 15 0 empty empty empty 17 7 0 10 -262144 -1 -1 1
1;
#X obj 321 203 tgl 15 0 empty empty empty 17 7 0 10 -262144 -1 -1 0
1;
#X obj 319 -52 average 5;
#X obj 318 -72 inlet;
#X obj 394 -14 moses 30;
#X msg 729 86 text para 5;
#X obj 4 -91 cnv 15 300 250 empty empty empty 20 12 0 14 -257985 -66577
0;
#X obj 118 125 loadbang;
#X obj 16 211 text3d;
#X msg 59 211 font /home/onyx/beatjazzdir/vera.ttf;
#X obj 17 8 gemhead;
#X msg 16 -14 1;
#X msg 53 -14 0;
#X obj 14 -35 sel 1 0;
#X obj 15 188 colorRGB;
#X obj 23 166 r r;
#X obj 48 166 r g;
#X obj 74 167 r b;
#X msg 126 144 3;
#X obj 60 462 loadbang;
#X obj 36 549 text3d;
#X msg 79 549 font /home/onyx/beatjazzdir/vera.ttf;
#X obj 38 371 gemhead;
#X msg 32 342 1;
#X msg 69 342 0;
#X obj 38 307 sel 1 0;
#X obj 35 526 colorRGB;
#X obj 43 504 r r;
#X obj 68 504 r g;
#X obj 94 505 r b;
#X msg 68 481 3;
#X obj 100 321 / 127;
#X obj 101 300 average 5;
#X obj 490 198 spigot;
#X obj 641 192 spigot;
#X floatatom 492 266 5 0 0 0 - - -;
#X msg 493 288 text \$1;
#X floatatom 647 264 5 0 0 0 - - -;
#X msg 645 283 text \$1;
#X obj 491 246 int;
#X obj 644 244 int;
#X obj 488 227 average 10;
#X obj 642 217 average 10;
#X obj 758 198 spigot;
#X obj 864 195 spigot;
#X floatatom 760 266 5 0 0 0 - - -;
#X msg 761 288 text \$1;
#X floatatom 870 267 5 0 0 0 - - -;
#X msg 868 286 text \$1;
#X obj 759 246 int;
#X obj 867 247 int;
#X obj 756 227 average 10;
#X obj 864 223 average 10;
#X obj 386 197 spigot;
#X floatatom 392 269 5 0 0 0 - - -;
#X msg 390 288 text \$1;
#X obj 389 249 int;
#X obj 386 225 average 10;
#X msg 398 91 text para 1;
#X msg 484 91 text para 2;
#X msg 569 91 text para 3;
#X msg 650 90 text para 4;
#X obj 117 506 r \$0-xaxisnumupdate;
#X obj 97 168 r \$0-yptext;
#X obj 864 345 s \$0-xaxisnumupdate;
#X obj 248 523 sel 0;
#X obj 731 350 s \$0-xaxisnumupdate;
#X obj 583 351 s \$0-xaxisnumupdate;
#X obj 458 352 s \$0-xaxisnumupdate;
#X obj 330 352 s \$0-xaxisnumupdate;
#X msg 403 320 text .;
#X msg 498 321 text .;
#X msg 614 322 text .;
#X msg 761 322 text .;
#X msg 874 317 text .;
#X obj 349 320 sel 0 1;
#X obj 447 319 sel 0 1;
#X obj 561 321 sel 0 1;
#X obj 708 318 sel 0 1;
#X obj 818 318 sel 0 1;
#X obj 38 439 spigot;
#X obj 17 73 spigot;
#X obj 55 48 r \$0-gcut;
#X obj 76 414 r \$0-gcut;
#X obj 488 70 == 1;
#X obj 388 72 == 1;
#X obj 585 66 == 1;
#X obj 701 70 == 1;
#X obj 801 67 == 1;
#X obj 775 135 s \$0-yptext;
#X obj 655 136 s \$0-yptext;
#X obj 571 140 s \$0-yptext;
#X obj 490 138 s \$0-yptext;
#X obj 400 137 s \$0-yptext;
#X obj 48 85 r \$0-preset0;
#X obj 16 141 spigot;
#X obj 320 -12 moses 3;
#X obj 488 -11 moses 55;
#X obj 391 422 outlet;
#X obj 504 425 outlet;
#X obj 614 427 outlet;
#X obj 719 427 outlet;
#X obj 824 431 outlet;
#X obj 386 176 r \$0-grx;
#X obj 489 177 r \$0-grx;
#X obj 641 171 r \$0-grx;
#X obj 757 177 r \$0-grx;
#X obj 864 174 r \$0-grx;
#X obj 102 281 r \$0-grx;
#X obj 15 29 translateXYZ 1.3 1.4 0;
#X obj 13 -58 r \$0-fkey;
#X obj 42 281 r \$0-fkey;
#X obj 50 108 == 1;
#X obj 36 392 translateXYZ 4.5 2 0;
#X obj 100 350 clip -1.1 1.9;
#X connect 0 0 3 0;
#X connect 1 0 3 0;
#X connect 2 0 3 0;
#X connect 3 0 27 0;
#X connect 3 0 80 1;
#X connect 3 0 112 0;
#X connect 4 0 123 0;
#X connect 5 0 9 0;
#X connect 6 0 8 0;
#X connect 6 0 16 0;
#X connect 6 1 13 0;
#X connect 6 1 14 0;
#X connect 7 0 9 0;
#X connect 8 0 11 0;
#X connect 9 0 26 0;
#X connect 9 0 60 1;
#X connect 9 0 111 0;
#X connect 10 0 9 0;
#X connect 11 0 25 0;
#X connect 11 0 61 1;
#X connect 11 0 113 0;
#X connect 12 0 11 0;
#X connect 13 0 11 0;
#X connect 14 0 15 0;
#X connect 14 0 20 0;
#X connect 14 1 17 0;
#X connect 14 1 23 0;
#X connect 15 0 18 0;
#X connect 16 0 18 0;
#X connect 17 0 18 0;
#X connect 18 0 24 0;
#X connect 18 0 70 1;
#X connect 18 0 114 0;
#X connect 19 0 22 0;
#X connect 20 0 22 0;
#X connect 21 0 22 0;
#X connect 22 0 28 0;
#X connect 22 0 71 1;
#X connect 22 0 115 0;
#X connect 23 0 19 0;
#X connect 23 1 21 0;
#X connect 24 0 105 0;
#X connect 24 0 128 0;
#X connect 25 0 104 0;
#X connect 25 0 127 0;
#X connect 26 0 103 0;
#X connect 26 0 126 0;
#X connect 27 0 102 0;
#X connect 27 0 125 0;
#X connect 28 0 106 0;
#X connect 28 0 129 0;
#X connect 29 0 4 0;
#X connect 30 0 29 0;
#X connect 31 0 7 0;
#X connect 31 0 1 0;
#X connect 31 1 2 0;
#X connect 31 1 124 0;
#X connect 32 0 116 0;
#X connect 34 0 36 0;
#X connect 34 0 45 0;
#X connect 36 0 35 0;
#X connect 37 0 136 0;
#X connect 38 0 37 0;
#X connect 39 0 37 0;
#X connect 40 0 38 0;
#X connect 40 1 39 0;
#X connect 41 0 35 0;
#X connect 42 0 41 1;
#X connect 43 0 41 2;
#X connect 44 0 41 3;
#X connect 45 0 35 1;
#X connect 46 0 48 0;
#X connect 46 0 57 0;
#X connect 48 0 47 0;
#X connect 49 0 140 0;
#X connect 50 0 49 0;
#X connect 51 0 49 0;
#X connect 52 0 50 0;
#X connect 52 1 51 0;
#X connect 53 0 47 0;
#X connect 54 0 53 1;
#X connect 55 0 53 2;
#X connect 56 0 53 3;
#X connect 57 0 47 1;
#X connect 58 0 141 0;
#X connect 59 0 58 0;
#X connect 60 0 68 0;
#X connect 61 0 69 0;
#X connect 62 0 63 0;
#X connect 63 0 95 0;
#X connect 64 0 65 0;
#X connect 65 0 94 0;
#X connect 66 0 62 0;
#X connect 67 0 64 0;
#X connect 68 0 66 0;
#X connect 69 0 67 0;
#X connect 70 0 78 0;
#X connect 71 0 79 0;
#X connect 72 0 73 0;
#X connect 73 0 93 0;
#X connect 74 0 75 0;
#X connect 75 0 91 0;
#X connect 76 0 72 0;
#X connect 77 0 74 0;
#X connect 78 0 76 0;
#X connect 79 0 77 0;
#X connect 80 0 84 0;
#X connect 81 0 82 0;
#X connect 82 0 96 0;
#X connect 83 0 81 0;
#X connect 84 0 83 0;
#X connect 85 0 120 0;
#X connect 86 0 119 0;
#X connect 87 0 118 0;
#X connect 88 0 117 0;
#X connect 89 0 47 0;
#X connect 90 0 35 0;
#X connect 97 0 96 0;
#X connect 98 0 95 0;
#X connect 99 0 94 0;
#X connect 100 0 93 0;
#X connect 101 0 91 0;
#X connect 102 0 97 0;
#X connect 103 0 98 0;
#X connect 104 0 99 0;
#X connect 105 0 100 0;
#X connect 106 0 101 0;
#X connect 107 0 53 0;
#X connect 109 0 108 1;
#X connect 110 0 107 1;
#X connect 111 0 86 0;
#X connect 112 0 85 0;
#X connect 113 0 87 0;
#X connect 114 0 88 0;
#X connect 115 0 32 0;
#X connect 121 0 139 0;
#X connect 122 0 41 0;
#X connect 123 0 0 0;
#X connect 123 1 31 0;
#X connect 124 0 5 0;
#X connect 124 0 12 0;
#X connect 124 1 6 0;
#X connect 124 1 10 0;
#X connect 130 0 80 0;
#X connect 131 0 60 0;
#X connect 132 0 61 0;
#X connect 133 0 70 0;
#X connect 134 0 71 0;
#X connect 135 0 59 0;
#X connect 136 0 108 0;
#X connect 137 0 40 0;
#X connect 138 0 52 0;
#X connect 139 0 122 1;
#X connect 140 0 107 0;
#X connect 141 0 140 1;
#X coords 0 -1 1 1 60 85 2 300 200;
#X restore 5 210 pd yaxisswitches;
#X floatatom 240 26 5 0 0 0 - - -;
#N canvas 404 167 450 300 z 0;
#X text 116 139 chnl#16;
#X obj 128 68 moses 127;
#X obj 177 93 - 127;
#X floatatom 231 120 5 0 0 0 - - -;
#X obj 175 172 t b b;
#X obj 165 217 f;
#X obj 169 247 + 1;
#X obj 180 122 sel 129;
#X obj 123 103 tgl 15 0 empty empty empty 17 7 0 10 -262144 -1 -1 0
1;
#X obj 172 305 * 127;
#X floatatom 147 123 5 0 0 0 - - -;
#X msg 199 201 1;
#X obj 103 103 bng 15 250 50 0 empty empty empty 17 7 0 10 -262144
-1 -1;
#X obj 171 332 outlet;
#X obj 182 149 delay 500;
#X obj 190 34 inlet zflip in;
#X obj 200 63 s moseszflip;
#X connect 1 0 16 0;
#X connect 1 1 2 0;
#X connect 2 0 7 0;
#X connect 4 0 5 0;
#X connect 4 1 11 0;
#X connect 5 0 6 0;
#X connect 6 0 12 0;
#X connect 7 0 10 0;
#X connect 7 0 14 0;
#X connect 7 1 3 0;
#X connect 8 0 9 0;
#X connect 9 0 13 0;
#X connect 11 0 5 1;
#X connect 12 0 8 0;
#X connect 14 0 4 0;
#X connect 15 0 1 0;
#X coords 0 -1 1 1 40 20 2 100 100;
#X restore 110 300 pd z flip switch;
#X obj 181 416 r moseszflip;
#X obj 284 33 s \$0-gcut;
#X obj 284 10 inlet;
#X obj 351 10 r preset;
#X obj 351 32 s \$0-preset0;
#X obj 324 334 r \$0-gx1;
#X obj 378 335 r \$0-gy1;
#X obj 433 333 r \$0-gx2;
#X obj 489 334 r \$0-gy1;
#X obj 549 334 r \$0-gx3;
#X obj 604 334 r \$0-gy1;
#X obj 660 335 r \$0-gx4;
#X obj 715 335 r \$0-gy1;
#X obj 771 336 r \$0-gx5;
#X obj 826 336 r \$0-gy1;
#X obj 323 274 r \$0-gx1;
#X obj 378 274 r \$0-gy2;
#X obj 437 273 r \$0-gx2;
#X obj 492 273 r \$0-gy2;
#X obj 546 273 r \$0-gx3;
#X obj 601 273 r \$0-gy2;
#X obj 657 274 r \$0-gx4;
#X obj 712 274 r \$0-gy2;
#X obj 767 274 r \$0-gx5;
#X obj 822 274 r \$0-gy2;
#X obj 324 214 r \$0-gx1;
#X obj 322 153 r \$0-gx1;
#X obj 325 83 r \$0-gx1;
#X obj 433 212 r \$0-gx2;
#X obj 431 151 r \$0-gx2;
#X obj 434 81 r \$0-gx2;
#X obj 545 213 r \$0-gx3;
#X obj 543 152 r \$0-gx3;
#X obj 546 82 r \$0-gx3;
#X obj 654 214 r \$0-gx4;
#X obj 652 153 r \$0-gx4;
#X obj 655 83 r \$0-gx4;
#X obj 767 213 r \$0-gx5;
#X obj 765 152 r \$0-gx5;
#X obj 768 82 r \$0-gx5;
#X obj 379 214 r \$0-gy3;
#X obj 488 212 r \$0-gy3;
#X obj 600 213 r \$0-gy3;
#X obj 709 214 r \$0-gy3;
#X obj 822 213 r \$0-gy3;
#X obj 820 152 r \$0-gy4;
#X obj 707 153 r \$0-gy4;
#X obj 598 152 r \$0-gy4;
#X obj 486 151 r \$0-gy4;
#X obj 377 153 r \$0-gy4;
#X obj 380 83 r \$0-gy5;
#X obj 489 81 r \$0-gy5;
#X obj 601 82 r \$0-gy5;
#X obj 710 83 r \$0-gy5;
#X obj 823 82 r \$0-gy5;
#X obj 4 435 s \$0-gx1;
#X obj 63 434 s \$0-gx2;
#X obj 126 437 s \$0-gx3;
#X obj 186 439 s \$0-gx4;
#X obj 245 440 s \$0-gx5;
#X obj 5 457 s \$0-gy1;
#X obj 63 456 s \$0-gy2;
#X obj 126 457 s \$0-gy3;
#X obj 186 459 s \$0-gy4;
#X obj 245 461 s \$0-gy5;
#X text 530 32 create an abstraction to create the viz graphics from
the data points below.;
#X obj 327 377 s \$0-1-1;
#X obj 436 379 s \$0-2-1;
#X obj 568 378 s \$0-3-1;
#X obj 682 379 s \$0-4-1;
#X obj 792 380 s \$0-5-1;
#X obj 344 317 s \$0-1-2;
#X obj 344 255 s \$0-1-3;
#X obj 344 196 s \$0-1-4;
#X obj 344 135 s \$0-1-5;
#X obj 457 315 s \$0-2-2;
#X obj 454 255 s \$0-2-3;
#X obj 451 193 s \$0-2-4;
#X obj 451 131 s \$0-2-5;
#X obj 568 315 s \$0-3-2;
#X obj 564 255 s \$0-3-3;
#X obj 565 195 s \$0-3-4;
#X obj 566 133 s \$0-3-5;
#X obj 680 317 s \$0-4-2;
#X obj 676 255 s \$0-4-3;
#X obj 673 195 s \$0-4-4;
#X obj 673 135 s \$0-4-5;
#X obj 788 317 s \$0-5-2;
#X obj 789 255 s \$0-5-3;
#X obj 787 194 s \$0-5-4;
#X obj 784 133 s \$0-5-5;
#N canvas 1178 121 642 469 grid 0;
#X obj 26 271 r \$0-1-1;
#X obj 26 210 r \$0-1-2;
#X obj 26 148 r \$0-1-3;
#X obj 26 89 r \$0-1-4;
#X obj 26 28 r \$0-1-5;
#X obj 133 24 r \$0-2-5;
#X obj 133 86 r \$0-2-4;
#X obj 136 148 r \$0-2-3;
#X obj 139 208 r \$0-2-2;
#X obj 137 270 r \$0-2-1;
#X obj 250 271 r \$0-3-1;
#X obj 250 208 r \$0-3-2;
#X obj 246 148 r \$0-3-3;
#X obj 247 88 r \$0-3-4;
#X obj 248 26 r \$0-3-5;
#X obj 355 28 r \$0-4-5;
#X obj 355 88 r \$0-4-4;
#X obj 358 148 r \$0-4-3;
#X obj 362 210 r \$0-4-2;
#X obj 364 272 r \$0-4-1;
#X obj 474 273 r \$0-5-1;
#X obj 470 210 r \$0-5-2;
#X obj 471 148 r \$0-5-3;
#X obj 469 87 r \$0-5-4;
#X obj 466 26 r \$0-5-5;
#X restore 416 7 pd grid parameters;
#N canvas 0 0 450 300 2bangs 0;
#X obj 158 67 == 1;
#X obj 203 69 == 1;
#X obj 205 98 t b f;
#X obj 189 129 +;
#X floatatom 189 154 5 0 0 0 - - -;
#X obj 190 177 sel 2 1 0;
#X msg 219 214 0;
#X msg 252 216 0;
#X msg 184 214 1;
#X obj 159 36 inlet;
#X obj 208 39 inlet;
#X obj 185 250 outlet;
#X obj 302 253 tgl 15 0 empty empty empty 17 7 0 10 -262144 -1 -1 0
1;
#X connect 0 0 3 0;
#X connect 1 0 2 0;
#X connect 2 0 3 0;
#X connect 2 1 3 1;
#X connect 3 0 4 0;
#X connect 4 0 5 0;
#X connect 5 0 8 0;
#X connect 5 1 6 0;
#X connect 5 2 7 0;
#X connect 6 0 11 0;
#X connect 6 0 12 0;
#X connect 7 0 11 0;
#X connect 7 0 12 0;
#X connect 8 0 11 0;
#X connect 8 0 12 0;
#X connect 9 0 0 0;
#X connect 10 0 1 0;
#X coords 0 -1 1 1 20 20 1 300 250;
#X restore 325 354 pd 2bangs;
#N canvas 0 0 450 300 2bangs 0;
#X obj 158 67 == 1;
#X obj 203 69 == 1;
#X obj 205 98 t b f;
#X obj 189 129 +;
#X floatatom 189 154 5 0 0 0 - - -;
#X obj 190 177 sel 2 1 0;
#X msg 219 214 0;
#X msg 252 216 0;
#X msg 184 214 1;
#X obj 159 36 inlet;
#X obj 208 39 inlet;
#X obj 185 250 outlet;
#X obj 302 253 tgl 15 0 empty empty empty 17 7 0 10 -262144 -1 -1 0
1;
#X connect 0 0 3 0;
#X connect 1 0 2 0;
#X connect 2 0 3 0;
#X connect 2 1 3 1;
#X connect 3 0 4 0;
#X connect 4 0 5 0;
#X connect 5 0 8 0;
#X connect 5 1 6 0;
#X connect 5 2 7 0;
#X connect 6 0 11 0;
#X connect 6 0 12 0;
#X connect 7 0 11 0;
#X connect 7 0 12 0;
#X connect 8 0 11 0;
#X connect 8 0 12 0;
#X connect 9 0 0 0;
#X connect 10 0 1 0;
#X coords 0 -1 1 1 20 20 1 300 250;
#X restore 433 356 pd 2bangs;
#N canvas 0 0 450 300 2bangs 0;
#X obj 158 67 == 1;
#X obj 203 69 == 1;
#X obj 205 98 t b f;
#X obj 189 129 +;
#X floatatom 189 154 5 0 0 0 - - -;
#X obj 190 177 sel 2 1 0;
#X msg 219 214 0;
#X msg 252 216 0;
#X msg 184 214 1;
#X obj 159 36 inlet;
#X obj 208 39 inlet;
#X obj 185 250 outlet;
#X obj 302 253 tgl 15 0 empty empty empty 17 7 0 10 -262144 -1 -1 0
1;
#X connect 0 0 3 0;
#X connect 1 0 2 0;
#X connect 2 0 3 0;
#X connect 2 1 3 1;
#X connect 3 0 4 0;
#X connect 4 0 5 0;
#X connect 5 0 8 0;
#X connect 5 1 6 0;
#X connect 5 2 7 0;
#X connect 6 0 11 0;
#X connect 6 0 12 0;
#X connect 7 0 11 0;
#X connect 7 0 12 0;
#X connect 8 0 11 0;
#X connect 8 0 12 0;
#X connect 9 0 0 0;
#X connect 10 0 1 0;
#X coords 0 -1 1 1 20 20 1 300 250;
#X restore 549 356 pd 2bangs;
#N canvas 0 0 450 300 2bangs 0;
#X obj 158 67 == 1;
#X obj 203 69 == 1;
#X obj 205 98 t b f;
#X obj 189 129 +;
#X floatatom 189 154 5 0 0 0 - - -;
#X obj 190 177 sel 2 1 0;
#X msg 219 214 0;
#X msg 252 216 0;
#X msg 184 214 1;
#X obj 159 36 inlet;
#X obj 208 39 inlet;
#X obj 185 250 outlet;
#X obj 302 253 tgl 15 0 empty empty empty 17 7 0 10 -262144 -1 -1 1
1;
#X connect 0 0 3 0;
#X connect 1 0 2 0;
#X connect 2 0 3 0;
#X connect 2 1 3 1;
#X connect 3 0 4 0;
#X connect 4 0 5 0;
#X connect 5 0 8 0;
#X connect 5 1 6 0;
#X connect 5 2 7 0;
#X connect 6 0 11 0;
#X connect 6 0 12 0;
#X connect 7 0 11 0;
#X connect 7 0 12 0;
#X connect 8 0 11 0;
#X connect 8 0 12 0;
#X connect 9 0 0 0;
#X connect 10 0 1 0;
#X coords 0 -1 1 1 20 20 1 300 250;
#X restore 657 357 pd 2bangs;
#N canvas 0 0 450 300 2bangs 0;
#X obj 158 67 == 1;
#X obj 203 69 == 1;
#X obj 205 98 t b f;
#X obj 189 129 +;
#X floatatom 189 154 5 0 0 0 - - -;
#X obj 190 177 sel 2 1 0;
#X msg 219 214 0;
#X msg 252 216 0;
#X msg 184 214 1;
#X obj 159 36 inlet;
#X obj 208 39 inlet;
#X obj 185 250 outlet;
#X obj 302 253 tgl 15 0 empty empty empty 17 7 0 10 -262144 -1 -1 0
1;
#X connect 0 0 3 0;
#X connect 1 0 2 0;
#X connect 2 0 3 0;
#X connect 2 1 3 1;
#X connect 3 0 4 0;
#X connect 4 0 5 0;
#X connect 5 0 8 0;
#X connect 5 1 6 0;
#X connect 5 2 7 0;
#X connect 6 0 11 0;
#X connect 6 0 12 0;
#X connect 7 0 11 0;
#X connect 7 0 12 0;
#X connect 8 0 11 0;
#X connect 8 0 12 0;
#X connect 9 0 0 0;
#X connect 10 0 1 0;
#X coords 0 -1 1 1 20 20 1 300 250;
#X restore 770 358 pd 2bangs;
#N canvas 0 0 450 300 2bangs 0;
#X obj 158 67 == 1;
#X obj 203 69 == 1;
#X obj 205 98 t b f;
#X obj 189 129 +;
#X floatatom 189 154 5 0 0 0 - - -;
#X obj 190 177 sel 2 1 0;
#X msg 219 214 0;
#X msg 252 216 0;
#X msg 184 214 1;
#X obj 159 36 inlet;
#X obj 208 39 inlet;
#X obj 185 250 outlet;
#X obj 302 253 tgl 15 0 empty empty empty 17 7 0 10 -262144 -1 -1 0
1;
#X connect 0 0 3 0;
#X connect 1 0 2 0;
#X connect 2 0 3 0;
#X connect 2 1 3 1;
#X connect 3 0 4 0;
#X connect 4 0 5 0;
#X connect 5 0 8 0;
#X connect 5 1 6 0;
#X connect 5 2 7 0;
#X connect 6 0 11 0;
#X connect 6 0 12 0;
#X connect 7 0 11 0;
#X connect 7 0 12 0;
#X connect 8 0 11 0;
#X connect 8 0 12 0;
#X connect 9 0 0 0;
#X connect 10 0 1 0;
#X coords 0 -1 1 1 20 20 1 300 250;
#X restore 324 294 pd 2bangs;
#N canvas 0 0 450 300 2bangs 0;
#X obj 158 67 == 1;
#X obj 203 69 == 1;
#X obj 205 98 t b f;
#X obj 189 129 +;
#X floatatom 189 154 5 0 0 0 - - -;
#X obj 190 177 sel 2 1 0;
#X msg 219 214 0;
#X msg 252 216 0;
#X msg 184 214 1;
#X obj 159 36 inlet;
#X obj 208 39 inlet;
#X obj 185 250 outlet;
#X obj 302 253 tgl 15 0 empty empty empty 17 7 0 10 -262144 -1 -1 0
1;
#X connect 0 0 3 0;
#X connect 1 0 2 0;
#X connect 2 0 3 0;
#X connect 2 1 3 1;
#X connect 3 0 4 0;
#X connect 4 0 5 0;
#X connect 5 0 8 0;
#X connect 5 1 6 0;
#X connect 5 2 7 0;
#X connect 6 0 11 0;
#X connect 6 0 12 0;
#X connect 7 0 11 0;
#X connect 7 0 12 0;
#X connect 8 0 11 0;
#X connect 8 0 12 0;
#X connect 9 0 0 0;
#X connect 10 0 1 0;
#X coords 0 -1 1 1 20 20 1 300 250;
#X restore 435 294 pd 2bangs;
#N canvas 0 0 450 300 2bangs 0;
#X obj 158 67 == 1;
#X obj 203 69 == 1;
#X obj 205 98 t b f;
#X obj 189 129 +;
#X floatatom 189 154 5 0 0 0 - - -;
#X obj 190 177 sel 2 1 0;
#X msg 219 214 0;
#X msg 252 216 0;
#X msg 184 214 1;
#X obj 159 36 inlet;
#X obj 208 39 inlet;
#X obj 185 250 outlet;
#X obj 302 253 tgl 15 0 empty empty empty 17 7 0 10 -262144 -1 -1 0
1;
#X connect 0 0 3 0;
#X connect 1 0 2 0;
#X connect 2 0 3 0;
#X connect 2 1 3 1;
#X connect 3 0 4 0;
#X connect 4 0 5 0;
#X connect 5 0 8 0;
#X connect 5 1 6 0;
#X connect 5 2 7 0;
#X connect 6 0 11 0;
#X connect 6 0 12 0;
#X connect 7 0 11 0;
#X connect 7 0 12 0;
#X connect 8 0 11 0;
#X connect 8 0 12 0;
#X connect 9 0 0 0;
#X connect 10 0 1 0;
#X coords 0 -1 1 1 20 20 1 300 250;
#X restore 548 296 pd 2bangs;
#N canvas 0 0 450 300 2bangs 0;
#X obj 158 67 == 1;
#X obj 203 69 == 1;
#X obj 205 98 t b f;
#X obj 189 129 +;
#X floatatom 189 154 5 0 0 0 - - -;
#X obj 190 177 sel 2 1 0;
#X msg 219 214 0;
#X msg 252 216 0;
#X msg 184 214 1;
#X obj 159 36 inlet;
#X obj 208 39 inlet;
#X obj 185 250 outlet;
#X obj 302 253 tgl 15 0 empty empty empty 17 7 0 10 -262144 -1 -1 0
1;
#X connect 0 0 3 0;
#X connect 1 0 2 0;
#X connect 2 0 3 0;
#X connect 2 1 3 1;
#X connect 3 0 4 0;
#X connect 4 0 5 0;
#X connect 5 0 8 0;
#X connect 5 1 6 0;
#X connect 5 2 7 0;
#X connect 6 0 11 0;
#X connect 6 0 12 0;
#X connect 7 0 11 0;
#X connect 7 0 12 0;
#X connect 8 0 11 0;
#X connect 8 0 12 0;
#X connect 9 0 0 0;
#X connect 10 0 1 0;
#X coords 0 -1 1 1 20 20 1 300 250;
#X restore 658 294 pd 2bangs;
#N canvas 0 0 450 300 2bangs 0;
#X obj 158 67 == 1;
#X obj 203 69 == 1;
#X obj 205 98 t b f;
#X obj 189 129 +;
#X floatatom 189 154 5 0 0 0 - - -;
#X obj 190 177 sel 2 1 0;
#X msg 219 214 0;
#X msg 252 216 0;
#X msg 184 214 1;
#X obj 159 36 inlet;
#X obj 208 39 inlet;
#X obj 185 250 outlet;
#X obj 302 253 tgl 15 0 empty empty empty 17 7 0 10 -262144 -1 -1 0
1;
#X connect 0 0 3 0;
#X connect 1 0 2 0;
#X connect 2 0 3 0;
#X connect 2 1 3 1;
#X connect 3 0 4 0;
#X connect 4 0 5 0;
#X connect 5 0 8 0;
#X connect 5 1 6 0;
#X connect 5 2 7 0;
#X connect 6 0 11 0;
#X connect 6 0 12 0;
#X connect 7 0 11 0;
#X connect 7 0 12 0;
#X connect 8 0 11 0;
#X connect 8 0 12 0;
#X connect 9 0 0 0;
#X connect 10 0 1 0;
#X coords 0 -1 1 1 20 20 1 300 250;
#X restore 769 298 pd 2bangs;
#N canvas 0 0 450 300 2bangs 0;
#X obj 158 67 == 1;
#X obj 203 69 == 1;
#X obj 205 98 t b f;
#X obj 189 129 +;
#X floatatom 189 154 5 0 0 0 - - -;
#X obj 190 177 sel 2 1 0;
#X msg 219 214 0;
#X msg 252 216 0;
#X msg 184 214 1;
#X obj 159 36 inlet;
#X obj 208 39 inlet;
#X obj 185 250 outlet;
#X obj 302 253 tgl 15 0 empty empty empty 17 7 0 10 -262144 -1 -1 0
1;
#X connect 0 0 3 0;
#X connect 1 0 2 0;
#X connect 2 0 3 0;
#X connect 2 1 3 1;
#X connect 3 0 4 0;
#X connect 4 0 5 0;
#X connect 5 0 8 0;
#X connect 5 1 6 0;
#X connect 5 2 7 0;
#X connect 6 0 11 0;
#X connect 6 0 12 0;
#X connect 7 0 11 0;
#X connect 7 0 12 0;
#X connect 8 0 11 0;
#X connect 8 0 12 0;
#X connect 9 0 0 0;
#X connect 10 0 1 0;
#X coords 0 -1 1 1 20 20 1 300 250;
#X restore 329 232 pd 2bangs;
#N canvas 429 295 450 300 2bangs 0;
#X obj 158 67 == 1;
#X obj 203 69 == 1;
#X obj 205 98 t b f;
#X obj 189 129 +;
#X floatatom 189 154 5 0 0 0 - - -;
#X obj 190 177 sel 2 1 0;
#X msg 219 214 0;
#X msg 252 216 0;
#X msg 184 214 1;
#X obj 159 36 inlet;
#X obj 208 39 inlet;
#X obj 185 250 outlet;
#X obj 302 253 tgl 15 0 empty empty empty 17 7 0 10 -262144 -1 -1 0
1;
#X obj 294 105 tgl 15 0 empty empty empty 17 7 0 10 -262144 -1 -1 0
1;
#X obj 96 59 tgl 15 0 empty empty empty 17 7 0 10 -262144 -1 -1 0 1
;
#X connect 0 0 3 0;
#X connect 1 0 2 0;
#X connect 2 0 3 0;
#X connect 2 1 3 1;
#X connect 3 0 4 0;
#X connect 4 0 5 0;
#X connect 5 0 8 0;
#X connect 5 1 6 0;
#X connect 5 2 7 0;
#X connect 6 0 11 0;
#X connect 6 0 12 0;
#X connect 7 0 11 0;
#X connect 7 0 12 0;
#X connect 8 0 11 0;
#X connect 8 0 12 0;
#X connect 9 0 0 0;
#X connect 10 0 1 0;
#X connect 13 0 1 0;
#X connect 14 0 0 0;
#X coords 0 -1 1 1 20 20 1 300 250;
#X restore 435 233 pd 2bangs;
#N canvas 0 0 450 300 2bangs 0;
#X obj 158 67 == 1;
#X obj 203 69 == 1;
#X obj 205 98 t b f;
#X obj 189 129 +;
#X floatatom 189 154 5 0 0 0 - - -;
#X obj 190 177 sel 2 1 0;
#X msg 219 214 0;
#X msg 252 216 0;
#X msg 184 214 1;
#X obj 159 36 inlet;
#X obj 208 39 inlet;
#X obj 185 250 outlet;
#X obj 302 253 tgl 15 0 empty empty empty 17 7 0 10 -262144 -1 -1 0
1;
#X connect 0 0 3 0;
#X connect 1 0 2 0;
#X connect 2 0 3 0;
#X connect 2 1 3 1;
#X connect 3 0 4 0;
#X connect 4 0 5 0;
#X connect 5 0 8 0;
#X connect 5 1 6 0;
#X connect 5 2 7 0;
#X connect 6 0 11 0;
#X connect 6 0 12 0;
#X connect 7 0 11 0;
#X connect 7 0 12 0;
#X connect 8 0 11 0;
#X connect 8 0 12 0;
#X connect 9 0 0 0;
#X connect 10 0 1 0;
#X coords 0 -1 1 1 20 20 1 300 250;
#X restore 551 233 pd 2bangs;
#N canvas 0 0 450 300 2bangs 0;
#X obj 158 67 == 1;
#X obj 203 69 == 1;
#X obj 205 98 t b f;
#X obj 189 129 +;
#X floatatom 189 154 5 0 0 0 - - -;
#X obj 190 177 sel 2 1 0;
#X msg 219 214 0;
#X msg 252 216 0;
#X msg 184 214 1;
#X obj 159 36 inlet;
#X obj 208 39 inlet;
#X obj 185 250 outlet;
#X obj 302 253 tgl 15 0 empty empty empty 17 7 0 10 -262144 -1 -1 0
1;
#X connect 0 0 3 0;
#X connect 1 0 2 0;
#X connect 2 0 3 0;
#X connect 2 1 3 1;
#X connect 3 0 4 0;
#X connect 4 0 5 0;
#X connect 5 0 8 0;
#X connect 5 1 6 0;
#X connect 5 2 7 0;
#X connect 6 0 11 0;
#X connect 6 0 12 0;
#X connect 7 0 11 0;
#X connect 7 0 12 0;
#X connect 8 0 11 0;
#X connect 8 0 12 0;
#X connect 9 0 0 0;
#X connect 10 0 1 0;
#X coords 0 -1 1 1 20 20 1 300 250;
#X restore 659 234 pd 2bangs;
#N canvas 0 0 450 300 2bangs 0;
#X obj 158 67 == 1;
#X obj 203 69 == 1;
#X obj 205 98 t b f;
#X obj 189 129 +;
#X floatatom 189 154 5 0 0 0 - - -;
#X obj 190 177 sel 2 1 0;
#X msg 219 214 0;
#X msg 252 216 0;
#X msg 184 214 1;
#X obj 159 36 inlet;
#X obj 208 39 inlet;
#X obj 185 250 outlet;
#X obj 302 253 tgl 15 0 empty empty empty 17 7 0 10 -262144 -1 -1 0
1;
#X connect 0 0 3 0;
#X connect 1 0 2 0;
#X connect 2 0 3 0;
#X connect 2 1 3 1;
#X connect 3 0 4 0;
#X connect 4 0 5 0;
#X connect 5 0 8 0;
#X connect 5 1 6 0;
#X connect 5 2 7 0;
#X connect 6 0 11 0;
#X connect 6 0 12 0;
#X connect 7 0 11 0;
#X connect 7 0 12 0;
#X connect 8 0 11 0;
#X connect 8 0 12 0;
#X connect 9 0 0 0;
#X connect 10 0 1 0;
#X coords 0 -1 1 1 20 20 1 300 250;
#X restore 773 231 pd 2bangs;
#N canvas 0 0 450 300 2bangs 0;
#X obj 158 67 == 1;
#X obj 203 69 == 1;
#X obj 205 98 t b f;
#X obj 189 129 +;
#X floatatom 189 154 5 0 0 0 - - -;
#X obj 190 177 sel 2 1 0;
#X msg 219 214 0;
#X msg 252 216 0;
#X msg 184 214 1;
#X obj 159 36 inlet;
#X obj 208 39 inlet;
#X obj 185 250 outlet;
#X obj 302 253 tgl 15 0 empty empty empty 17 7 0 10 -262144 -1 -1 0
1;
#X connect 0 0 3 0;
#X connect 1 0 2 0;
#X connect 2 0 3 0;
#X connect 2 1 3 1;
#X connect 3 0 4 0;
#X connect 4 0 5 0;
#X connect 5 0 8 0;
#X connect 5 1 6 0;
#X connect 5 2 7 0;
#X connect 6 0 11 0;
#X connect 6 0 12 0;
#X connect 7 0 11 0;
#X connect 7 0 12 0;
#X connect 8 0 11 0;
#X connect 8 0 12 0;
#X connect 9 0 0 0;
#X connect 10 0 1 0;
#X coords 0 -1 1 1 20 20 1 300 250;
#X restore 324 172 pd 2bangs;
#N canvas 0 0 450 300 2bangs 0;
#X obj 158 67 == 1;
#X obj 203 69 == 1;
#X obj 205 98 t b f;
#X obj 189 129 +;
#X floatatom 189 154 5 0 0 0 - - -;
#X obj 190 177 sel 2 1 0;
#X msg 219 214 0;
#X msg 252 216 0;
#X msg 184 214 1;
#X obj 159 36 inlet;
#X obj 208 39 inlet;
#X obj 185 250 outlet;
#X obj 302 253 tgl 15 0 empty empty empty 17 7 0 10 -262144 -1 -1 0
1;
#X connect 0 0 3 0;
#X connect 1 0 2 0;
#X connect 2 0 3 0;
#X connect 2 1 3 1;
#X connect 3 0 4 0;
#X connect 4 0 5 0;
#X connect 5 0 8 0;
#X connect 5 1 6 0;
#X connect 5 2 7 0;
#X connect 6 0 11 0;
#X connect 6 0 12 0;
#X connect 7 0 11 0;
#X connect 7 0 12 0;
#X connect 8 0 11 0;
#X connect 8 0 12 0;
#X connect 9 0 0 0;
#X connect 10 0 1 0;
#X coords 0 -1 1 1 20 20 1 300 250;
#X restore 432 174 pd 2bangs;
#N canvas 0 0 450 300 2bangs 0;
#X obj 158 67 == 1;
#X obj 203 69 == 1;
#X obj 205 98 t b f;
#X obj 189 129 +;
#X floatatom 189 154 5 0 0 0 - - -;
#X obj 190 177 sel 2 1 0;
#X msg 219 214 0;
#X msg 252 216 0;
#X msg 184 214 1;
#X obj 159 36 inlet;
#X obj 208 39 inlet;
#X obj 185 250 outlet;
#X obj 302 253 tgl 15 0 empty empty empty 17 7 0 10 -262144 -1 -1 0
1;
#X connect 0 0 3 0;
#X connect 1 0 2 0;
#X connect 2 0 3 0;
#X connect 2 1 3 1;
#X connect 3 0 4 0;
#X connect 4 0 5 0;
#X connect 5 0 8 0;
#X connect 5 1 6 0;
#X connect 5 2 7 0;
#X connect 6 0 11 0;
#X connect 6 0 12 0;
#X connect 7 0 11 0;
#X connect 7 0 12 0;
#X connect 8 0 11 0;
#X connect 8 0 12 0;
#X connect 9 0 0 0;
#X connect 10 0 1 0;
#X coords 0 -1 1 1 20 20 1 300 250;
#X restore 548 174 pd 2bangs;
#N canvas 0 0 450 300 2bangs 0;
#X obj 158 67 == 1;
#X obj 203 69 == 1;
#X obj 205 98 t b f;
#X obj 189 129 +;
#X floatatom 189 154 5 0 0 0 - - -;
#X obj 190 177 sel 2 1 0;
#X msg 219 214 0;
#X msg 252 216 0;
#X msg 184 214 1;
#X obj 159 36 inlet;
#X obj 208 39 inlet;
#X obj 185 250 outlet;
#X obj 302 253 tgl 15 0 empty empty empty 17 7 0 10 -262144 -1 -1 0
1;
#X connect 0 0 3 0;
#X connect 1 0 2 0;
#X connect 2 0 3 0;
#X connect 2 1 3 1;
#X connect 3 0 4 0;
#X connect 4 0 5 0;
#X connect 5 0 8 0;
#X connect 5 1 6 0;
#X connect 5 2 7 0;
#X connect 6 0 11 0;
#X connect 6 0 12 0;
#X connect 7 0 11 0;
#X connect 7 0 12 0;
#X connect 8 0 11 0;
#X connect 8 0 12 0;
#X connect 9 0 0 0;
#X connect 10 0 1 0;
#X coords 0 -1 1 1 20 20 1 300 250;
#X restore 655 173 pd 2bangs;
#N canvas 0 0 450 300 2bangs 0;
#X obj 158 67 == 1;
#X obj 203 69 == 1;
#X obj 205 98 t b f;
#X obj 189 129 +;
#X floatatom 189 154 5 0 0 0 - - -;
#X obj 190 177 sel 2 1 0;
#X msg 219 214 0;
#X msg 252 216 0;
#X msg 184 214 1;
#X obj 159 36 inlet;
#X obj 208 39 inlet;
#X obj 185 250 outlet;
#X obj 302 253 tgl 15 0 empty empty empty 17 7 0 10 -262144 -1 -1 0
1;
#X connect 0 0 3 0;
#X connect 1 0 2 0;
#X connect 2 0 3 0;
#X connect 2 1 3 1;
#X connect 3 0 4 0;
#X connect 4 0 5 0;
#X connect 5 0 8 0;
#X connect 5 1 6 0;
#X connect 5 2 7 0;
#X connect 6 0 11 0;
#X connect 6 0 12 0;
#X connect 7 0 11 0;
#X connect 7 0 12 0;
#X connect 8 0 11 0;
#X connect 8 0 12 0;
#X connect 9 0 0 0;
#X connect 10 0 1 0;
#X coords 0 -1 1 1 20 20 1 300 250;
#X restore 767 172 pd 2bangs;
#N canvas 0 0 450 300 2bangs 0;
#X obj 158 67 == 1;
#X obj 203 69 == 1;
#X obj 205 98 t b f;
#X obj 189 129 +;
#X floatatom 189 154 5 0 0 0 - - -;
#X obj 190 177 sel 2 1 0;
#X msg 219 214 0;
#X msg 252 216 0;
#X msg 184 214 1;
#X obj 159 36 inlet;
#X obj 208 39 inlet;
#X obj 185 250 outlet;
#X obj 302 253 tgl 15 0 empty empty empty 17 7 0 10 -262144 -1 -1 0
1;
#X connect 0 0 3 0;
#X connect 1 0 2 0;
#X connect 2 0 3 0;
#X connect 2 1 3 1;
#X connect 3 0 4 0;
#X connect 4 0 5 0;
#X connect 5 0 8 0;
#X connect 5 1 6 0;
#X connect 5 2 7 0;
#X connect 6 0 11 0;
#X connect 6 0 12 0;
#X connect 7 0 11 0;
#X connect 7 0 12 0;
#X connect 8 0 11 0;
#X connect 8 0 12 0;
#X connect 9 0 0 0;
#X connect 10 0 1 0;
#X coords 0 -1 1 1 20 20 1 300 250;
#X restore 330 106 pd 2bangs;
#N canvas 0 0 450 300 2bangs 0;
#X obj 158 67 == 1;
#X obj 203 69 == 1;
#X obj 205 98 t b f;
#X obj 189 129 +;
#X floatatom 189 154 5 0 0 0 - - -;
#X obj 190 177 sel 2 1 0;
#X msg 219 214 0;
#X msg 252 216 0;
#X msg 184 214 1;
#X obj 159 36 inlet;
#X obj 208 39 inlet;
#X obj 185 250 outlet;
#X obj 302 253 tgl 15 0 empty empty empty 17 7 0 10 -262144 -1 -1 0
1;
#X connect 0 0 3 0;
#X connect 1 0 2 0;
#X connect 2 0 3 0;
#X connect 2 1 3 1;
#X connect 3 0 4 0;
#X connect 4 0 5 0;
#X connect 5 0 8 0;
#X connect 5 1 6 0;
#X connect 5 2 7 0;
#X connect 6 0 11 0;
#X connect 6 0 12 0;
#X connect 7 0 11 0;
#X connect 7 0 12 0;
#X connect 8 0 11 0;
#X connect 8 0 12 0;
#X connect 9 0 0 0;
#X connect 10 0 1 0;
#X coords 0 -1 1 1 20 20 1 300 250;
#X restore 438 108 pd 2bangs;
#N canvas 0 0 450 300 2bangs 0;
#X obj 158 67 == 1;
#X obj 203 69 == 1;
#X obj 205 98 t b f;
#X obj 189 129 +;
#X floatatom 189 154 5 0 0 0 - - -;
#X obj 190 177 sel 2 1 0;
#X msg 219 214 0;
#X msg 252 216 0;
#X msg 184 214 1;
#X obj 159 36 inlet;
#X obj 208 39 inlet;
#X obj 185 250 outlet;
#X obj 302 253 tgl 15 0 empty empty empty 17 7 0 10 -262144 -1 -1 0
1;
#X connect 0 0 3 0;
#X connect 1 0 2 0;
#X connect 2 0 3 0;
#X connect 2 1 3 1;
#X connect 3 0 4 0;
#X connect 4 0 5 0;
#X connect 5 0 8 0;
#X connect 5 1 6 0;
#X connect 5 2 7 0;
#X connect 6 0 11 0;
#X connect 6 0 12 0;
#X connect 7 0 11 0;
#X connect 7 0 12 0;
#X connect 8 0 11 0;
#X connect 8 0 12 0;
#X connect 9 0 0 0;
#X connect 10 0 1 0;
#X coords 0 -1 1 1 20 20 1 300 250;
#X restore 554 108 pd 2bangs;
#N canvas 0 0 450 300 2bangs 0;
#X obj 158 67 == 1;
#X obj 203 69 == 1;
#X obj 205 98 t b f;
#X obj 189 129 +;
#X floatatom 189 154 5 0 0 0 - - -;
#X obj 190 177 sel 2 1 0;
#X msg 219 214 0;
#X msg 252 216 0;
#X msg 184 214 1;
#X obj 159 36 inlet;
#X obj 208 39 inlet;
#X obj 185 250 outlet;
#X obj 302 253 tgl 15 0 empty empty empty 17 7 0 10 -262144 -1 -1 0
1;
#X connect 0 0 3 0;
#X connect 1 0 2 0;
#X connect 2 0 3 0;
#X connect 2 1 3 1;
#X connect 3 0 4 0;
#X connect 4 0 5 0;
#X connect 5 0 8 0;
#X connect 5 1 6 0;
#X connect 5 2 7 0;
#X connect 6 0 11 0;
#X connect 6 0 12 0;
#X connect 7 0 11 0;
#X connect 7 0 12 0;
#X connect 8 0 11 0;
#X connect 8 0 12 0;
#X connect 9 0 0 0;
#X connect 10 0 1 0;
#X coords 0 -1 1 1 20 20 1 300 250;
#X restore 662 109 pd 2bangs;
#N canvas 0 0 450 300 2bangs 0;
#X obj 158 67 == 1;
#X obj 203 69 == 1;
#X obj 205 98 t b f;
#X obj 189 129 +;
#X floatatom 189 154 5 0 0 0 - - -;
#X obj 190 177 sel 2 1 0;
#X msg 219 214 0;
#X msg 252 216 0;
#X msg 184 214 1;
#X obj 159 36 inlet;
#X obj 208 39 inlet;
#X obj 185 250 outlet;
#X obj 302 253 tgl 15 0 empty empty empty 17 7 0 10 -262144 -1 -1 0
1;
#X connect 0 0 3 0;
#X connect 1 0 2 0;
#X connect 2 0 3 0;
#X connect 2 1 3 1;
#X connect 3 0 4 0;
#X connect 4 0 5 0;
#X connect 5 0 8 0;
#X connect 5 1 6 0;
#X connect 5 2 7 0;
#X connect 6 0 11 0;
#X connect 6 0 12 0;
#X connect 7 0 11 0;
#X connect 7 0 12 0;
#X connect 8 0 11 0;
#X connect 8 0 12 0;
#X connect 9 0 0 0;
#X connect 10 0 1 0;
#X coords 0 -1 1 1 20 20 1 300 250;
#X restore 775 110 pd 2bangs;
#X obj 372 478 r \$0-gx;
#X obj 375 535 hsl 128 15 0 127 0 0 empty empty empty -2 -8 0 10 -262144
-1 -1 0 1;
#X obj 371 459 r \$0-gy;
#X obj 355 480 vsl 15 128 0 127 0 0 empty empty empty 0 -9 0 10 -262144
-1 -1 0 1;
#X obj 97 -29 r xlrmtr2;
#N canvas 0 0 684 417 grid 0;
#X obj 36 281 r \$0-1-1;
#X obj 36 220 r \$0-1-2;
#X obj 36 158 r \$0-1-3;
#X obj 36 99 r \$0-1-4;
#X obj 36 38 r \$0-1-5;
#X obj 143 34 r \$0-2-5;
#X obj 143 96 r \$0-2-4;
#X obj 146 158 r \$0-2-3;
#X obj 149 218 r \$0-2-2;
#X obj 147 280 r \$0-2-1;
#X obj 260 281 r \$0-3-1;
#X obj 260 218 r \$0-3-2;
#X obj 256 158 r \$0-3-3;
#X obj 257 98 r \$0-3-4;
#X obj 258 36 r \$0-3-5;
#X obj 365 38 r \$0-4-5;
#X obj 365 98 r \$0-4-4;
#X obj 368 158 r \$0-4-3;
#X obj 372 220 r \$0-4-2;
#X obj 374 282 r \$0-4-1;
#X obj 484 283 r \$0-5-1;
#X obj 480 220 r \$0-5-2;
#X obj 481 158 r \$0-5-3;
#X obj 479 97 r \$0-5-4;
#X obj 476 36 r \$0-5-5;
#X restore 536 8 pd grid vizandtext;
#X obj 4 414 s \$0-grx;
#X obj 65 412 s \$0-gry;
#X obj 127 417 s \$0-grz;
#X obj 836 31 s \$0-fkey;
#X floatatom 178 43 5 0 0 0 - - -;
#X obj 13 341 s 1xrx;
#X obj 69 341 s 1xry;
#X obj 126 342 s 1xrz;
#X obj 521 456;
#X obj 183 63 s \$0-r;
#X obj 229 64 s \$0-g;
#X obj 273 64 s \$0-b;
#X obj 836 10 r fkeyr;
#X connect 3 0 14 0;
#X connect 4 0 15 0;
#X connect 5 0 0 0;
#X connect 5 0 19 0;
#X connect 5 0 146 0;
#X connect 5 0 151 0;
#X connect 5 1 1 0;
#X connect 5 1 20 0;
#X connect 5 1 147 0;
#X connect 5 1 152 0;
#X connect 6 0 5 0;
#X connect 7 0 6 0;
#X connect 8 0 3 0;
#X connect 8 0 155 0;
#X connect 8 1 4 0;
#X connect 8 1 156 0;
#X connect 8 2 12 0;
#X connect 8 2 157 0;
#X connect 9 0 8 0;
#X connect 10 0 2 0;
#X connect 10 0 22 0;
#X connect 12 0 16 0;
#X connect 13 0 9 1;
#X connect 13 0 150 0;
#X connect 14 0 7 0;
#X connect 15 0 7 1;
#X connect 16 0 10 0;
#X connect 17 0 9 0;
#X connect 18 0 17 1;
#X connect 18 0 21 0;
#X connect 19 0 78 0;
#X connect 19 1 79 0;
#X connect 19 2 80 0;
#X connect 19 3 81 0;
#X connect 19 4 82 0;
#X connect 20 0 83 0;
#X connect 20 1 84 0;
#X connect 20 2 85 0;
#X connect 20 3 86 0;
#X connect 20 4 87 0;
#X connect 22 0 153 0;
#X connect 23 0 11 0;
#X connect 23 0 148 0;
#X connect 23 0 153 0;
#X connect 25 0 24 0;
#X connect 26 0 27 0;
#X connect 28 0 115 0;
#X connect 29 0 115 1;
#X connect 30 0 116 0;
#X connect 31 0 116 1;
#X connect 32 0 117 0;
#X connect 33 0 117 1;
#X connect 34 0 118 0;
#X connect 35 0 118 1;
#X connect 36 0 119 0;
#X connect 37 0 119 1;
#X connect 38 0 120 0;
#X connect 39 0 120 1;
#X connect 40 0 121 0;
#X connect 41 0 121 1;
#X connect 42 0 122 0;
#X connect 43 0 122 1;
#X connect 44 0 123 0;
#X connect 45 0 123 1;
#X connect 46 0 124 0;
#X connect 47 0 124 1;
#X connect 48 0 125 0;
#X connect 49 0 130 0;
#X connect 50 0 135 0;
#X connect 51 0 126 0;
#X connect 52 0 131 0;
#X connect 53 0 136 0;
#X connect 54 0 127 0;
#X connect 55 0 132 0;
#X connect 56 0 137 0;
#X connect 57 0 128 0;
#X connect 58 0 133 0;
#X connect 59 0 138 0;
#X connect 60 0 129 0;
#X connect 61 0 134 0;
#X connect 62 0 139 0;
#X connect 63 0 125 1;
#X connect 64 0 126 1;
#X connect 65 0 127 1;
#X connect 66 0 128 1;
#X connect 67 0 129 1;
#X connect 68 0 134 1;
#X connect 69 0 133 1;
#X connect 70 0 132 1;
#X connect 71 0 131 1;
#X connect 72 0 130 1;
#X connect 73 0 135 1;
#X connect 74 0 136 1;
#X connect 75 0 137 1;
#X connect 76 0 138 1;
#X connect 77 0 139 1;
#X connect 115 0 89 0;
#X connect 116 0 90 0;
#X connect 117 0 91 0;
#X connect 118 0 92 0;
#X connect 119 0 93 0;
#X connect 120 0 94 0;
#X connect 121 0 98 0;
#X connect 122 0 102 0;
#X connect 123 0 106 0;
#X connect 124 0 110 0;
#X connect 125 0 95 0;
#X connect 126 0 99 0;
#X connect 127 0 103 0;
#X connect 128 0 107 0;
#X connect 129 0 111 0;
#X connect 130 0 96 0;
#X connect 131 0 100 0;
#X connect 132 0 104 0;
#X connect 133 0 108 0;
#X connect 134 0 112 0;
#X connect 135 0 97 0;
#X connect 136 0 101 0;
#X connect 137 0 105 0;
#X connect 138 0 109 0;
#X connect 139 0 113 0;
#X connect 140 0 141 0;
#X connect 142 0 143 0;
#X connect 144 0 17 0;
#X connect 158 0 149 0;
#X coords 0 -1 1 1 160 120 1 0 205;
