#N canvas 0 0 1024 716 10;
#X floatatom 327 283 5 0 0 0 - - -;
#X floatatom 197 337 5 0 0 0 - - -;
#X floatatom 390 315 5 0 0 0 - - -;
#X obj 74 83 * 127;
#X obj 120 82 * 127;
#X obj 65 212 grid grid2 85 1 127 85 1 127 1 1 1 3 5 343 481;
#X msg 56 175 goto \$1 \$2;
#X obj 56 138 pack 1 1;
#X obj 89 51 unpack f f f;
#X obj 87 27 spigot;
#X obj 372 201 vsl 15 127 1 127 0 0 empty empty empty 0 -9 0 10 -262144
-1 -1 0 1;
#X floatatom 117 381 5 0 0 0 - - -;
#X obj 153 3 inlet;
#X obj 87 -39 r xlrmtr1;
#N canvas 0 0 303 384 rangex 0;
#X obj 106 72 clip 36 96;
#X floatatom 107 102 5 0 0 0 - - -;
#X obj 107 124 - 36;
#X floatatom 108 151 5 0 0 0 - - -;
#X floatatom 109 224 5 0 0 0 - - -;
#X obj 109 196 int;
#X obj 108 176 * 2.2;
#X obj 109 247 clip 0 127;
#X floatatom 112 280 5 0 0 0 - - -;
#X text 146 100 range multiplier;
#X obj 107 40 inlet;
#X obj 115 317 outlet;
#X connect 0 0 1 0;
#X connect 1 0 2 0;
#X connect 2 0 3 0;
#X connect 3 0 6 0;
#X connect 4 0 7 0;
#X connect 5 0 4 0;
#X connect 6 0 5 0;
#X connect 7 0 8 0;
#X connect 8 0 11 0;
#X connect 10 0 0 0;
#X restore 47 109 pd rangex;
#N canvas 0 0 303 384 rangex 0;
#X obj 106 72 clip 36 96;
#X floatatom 107 102 5 0 0 0 - - -;
#X obj 107 124 - 36;
#X floatatom 108 151 5 0 0 0 - - -;
#X floatatom 109 224 5 0 0 0 - - -;
#X obj 109 196 int;
#X obj 108 176 * 2.2;
#X obj 109 247 clip 0 127;
#X floatatom 112 280 5 0 0 0 - - -;
#X text 146 100 range multiplier;
#X obj 107 40 inlet;
#X obj 115 317 outlet;
#X connect 0 0 1 0;
#X connect 1 0 2 0;
#X connect 2 0 3 0;
#X connect 3 0 6 0;
#X connect 4 0 7 0;
#X connect 5 0 4 0;
#X connect 6 0 5 0;
#X connect 7 0 8 0;
#X connect 8 0 11 0;
#X connect 10 0 0 0;
#X restore 113 109 pd rangex;
#N canvas 1265 221 303 384 rangex 0;
#X obj 106 72 clip 36 96;
#X floatatom 107 102 5 0 0 0 - - -;
#X obj 107 124 - 36;
#X floatatom 108 151 5 0 0 0 - - -;
#X floatatom 109 224 5 0 0 0 - - -;
#X obj 109 196 int;
#X obj 108 176 * 2.2;
#X obj 109 247 clip 0 127;
#X floatatom 112 280 5 0 0 0 - - -;
#X text 146 100 range multiplier;
#X obj 107 40 inlet;
#X obj 115 317 outlet;
#X connect 0 0 1 0;
#X connect 1 0 2 0;
#X connect 2 0 3 0;
#X connect 3 0 6 0;
#X connect 4 0 7 0;
#X connect 5 0 4 0;
#X connect 6 0 5 0;
#X connect 7 0 8 0;
#X connect 8 0 11 0;
#X connect 10 0 0 0;
#X restore 186 110 pd rangex;
#X obj 89 -8 spigot;
#X obj 153 -37 r stop1;
#N canvas 0 51 1016 648 xaxisswitches 0;
#X msg 994 179 0;
#X obj 38 329 cnv 15 300 250 empty empty empty 20 12 0 14 -257985 -66577
0;
#X obj 124 480 loadbang;
#X obj 47 565 text3d;
#X msg 89 566 font /home/onyx/beatjazzdir/vera.ttf;
#X obj 49 397 gemhead;
#X msg 49 377 1;
#X msg 80 379 0;
#X obj 49 355 sel 1 0;
#X obj 47 544 colorRGB;
#X msg 124 499 3;
#X obj 95 169 loadbang;
#X obj 36 257 text3d;
#X msg 79 257 font /home/onyx/beatjazzdir/vera.ttf;
#X obj 38 129 gemhead;
#X msg 38 100 1;
#X msg 69 100 0;
#X obj 38 77 sel 1 0;
#X obj 36 234 colorRGB;
#X msg 103 188 3;
#X obj 125 83 / 127;
#X obj 122 62 average 10;
#X obj 125 105 + 0.25;
#X obj 125 127 clip 0.65 1.15;
#X obj 227 526 r \$0-xptext;
#X obj 174 232 r \$0-yaxisnumupdate;
#X obj 49 458 spigot;
#X obj 35 201 spigot;
#X obj 83 436 r \$0-gcut;
#X obj 35 170 r \$0-gcut;
#X obj 44 480 r \$0-preset0;
#X obj 47 523 spigot;
#X obj 121 41 r \$0-gy;
#X obj 180 525 r \$0-b;
#X obj 179 506 r \$0-g;
#X obj 178 487 r \$0-r;
#X obj 130 231 r \$0-b;
#X obj 130 211 r \$0-g;
#X obj 131 191 r \$0-r;
#X msg 479 186 1;
#X msg 511 186 0;
#X obj 457 213 change;
#X floatatom 389 124 5 0 127 0 - - -;
#X obj 418 352 tgl 15 0 empty empty empty 17 7 0 10 -262144 -1 -1 0
1;
#X obj 388 74 inlet;
#X obj 392 456 spigot;
#X floatatom 397 521 5 0 0 0 - - -;
#X obj 396 499 int;
#X msg 396 541 text \$1;
#X obj 393 478 average 10;
#X msg 438 409 text .;
#X obj 384 409 sel 0 1;
#X obj 356 571 s \$0-yaxisnumupdate;
#X obj 458 232 == 1;
#X obj 493 295 s \$0-xptext;
#X obj 360 592 outlet;
#X obj 388 435 r \$0-gy;
#X obj 465 146 moses 55;
#X obj 391 148 moses 10;
#X msg 443 180 0;
#X obj 388 99 average 5;
#X obj 38 55 r \$0-fkey;
#X obj 49 332 r \$0-fkey;
#X obj 44 500 == 3;
#X obj 49 417 translateXYZ -2.5 0.4 0;
#X obj 36 150 translateXYZ -0.9 0.4 0;
#X obj 493 273 r xp34;
#X obj 458 251 s \$0-xpara34;
#X obj 501 320 r \$0-xpara34;
#X obj 499 339 s xparam34;
#X connect 2 0 4 0;
#X connect 2 0 10 0;
#X connect 4 0 3 0;
#X connect 5 0 64 0;
#X connect 6 0 5 0;
#X connect 7 0 5 0;
#X connect 8 0 6 0;
#X connect 8 1 7 0;
#X connect 9 0 3 0;
#X connect 10 0 3 1;
#X connect 11 0 13 0;
#X connect 11 0 19 0;
#X connect 13 0 12 0;
#X connect 14 0 65 0;
#X connect 15 0 14 0;
#X connect 16 0 14 0;
#X connect 17 0 15 0;
#X connect 17 1 16 0;
#X connect 18 0 12 0;
#X connect 19 0 12 1;
#X connect 20 0 22 0;
#X connect 21 0 20 0;
#X connect 22 0 23 0;
#X connect 23 0 65 2;
#X connect 24 0 3 0;
#X connect 25 0 12 0;
#X connect 26 0 31 0;
#X connect 27 0 18 0;
#X connect 28 0 26 1;
#X connect 29 0 27 1;
#X connect 30 0 63 0;
#X connect 31 0 9 0;
#X connect 32 0 21 0;
#X connect 33 0 9 3;
#X connect 34 0 9 2;
#X connect 35 0 9 1;
#X connect 36 0 18 3;
#X connect 37 0 18 2;
#X connect 38 0 18 1;
#X connect 39 0 41 0;
#X connect 40 0 41 0;
#X connect 41 0 43 0;
#X connect 41 0 53 0;
#X connect 42 0 58 0;
#X connect 43 0 45 1;
#X connect 43 0 51 0;
#X connect 43 0 55 0;
#X connect 44 0 60 0;
#X connect 45 0 49 0;
#X connect 46 0 48 0;
#X connect 47 0 46 0;
#X connect 48 0 52 0;
#X connect 49 0 47 0;
#X connect 50 0 52 0;
#X connect 51 0 50 0;
#X connect 53 0 67 0;
#X connect 56 0 45 0;
#X connect 57 0 39 0;
#X connect 57 1 40 0;
#X connect 58 0 59 0;
#X connect 58 1 57 0;
#X connect 59 0 41 0;
#X connect 60 0 42 0;
#X connect 61 0 17 0;
#X connect 62 0 8 0;
#X connect 63 0 31 1;
#X connect 64 0 26 0;
#X connect 65 0 27 0;
#X connect 66 0 54 0;
#X connect 68 0 69 0;
#X coords 0 -1 1 1 60 20 2 400 350;
#X restore 5 303 pd xaxisswitches;
#N canvas 0 20 1024 716 yaxisswitches 0;
#X msg 376 26 0;
#X msg 408 26 1;
#X msg 440 26 0;
#X obj 386 53 change;
#X floatatom 320 -32 5 0 127 0 - - -;
#X obj 322 268 tgl 15 0 empty empty empty 17 7 0 10 -262144 -1 -1 1
1;
#X obj 319 -52 average 5;
#X obj 318 -72 inlet;
#X obj 4 -91 cnv 15 300 250 empty empty empty 20 12 0 14 -257985 -66577
0;
#X obj 104 127 loadbang;
#X obj 17 211 text3d;
#X msg 59 211 font /home/onyx/beatjazzdir/vera.ttf;
#X obj 17 10 gemhead;
#X msg 17 -12 1;
#X msg 53 -14 0;
#X obj 17 -33 sel 1 0;
#X obj 17 187 colorRGB;
#X msg 103 146 3;
#X obj 60 462 loadbang;
#X obj 36 549 text3d;
#X msg 79 549 font /home/onyx/beatjazzdir/vera.ttf;
#X obj 38 371 gemhead;
#X msg 38 341 1;
#X msg 69 342 0;
#X obj 38 320 sel 1 0;
#X obj 35 526 colorRGB;
#X msg 68 481 3;
#X obj 99 322 / 127;
#X floatatom 123 343 5 0 0 0 - - -;
#X obj 100 301 average 5;
#X obj 99 342 - 2;
#X obj 99 366 clip -1.51 -1;
#X obj 370 295 spigot;
#X floatatom 376 367 5 0 0 0 - - -;
#X msg 374 386 text \$1;
#X obj 373 347 int;
#X obj 370 323 average 10;
#X obj 115 522 r \$0-xaxisnumupdate;
#X obj 103 167 r \$0-yptext;
#X obj 314 450 s \$0-xaxisnumupdate;
#X msg 387 418 text .;
#X obj 333 418 sel 0 1;
#X obj 35 437 spigot;
#X obj 17 73 spigot;
#X obj 48 51 r \$0-gcut;
#X obj 68 415 r \$0-gcut;
#X obj 17 31 translateXYZ -1.3 1.4 0;
#X obj 388 72 == 1;
#X obj 387 137 s \$0-yptext;
#X obj 61 88 r \$0-preset0;
#X obj 17 139 spigot;
#X obj 320 -12 moses 3;
#X obj 382 482 outlet;
#X obj 60 128 r \$0-r;
#X obj 60 147 r \$0-g;
#X obj 58 166 r \$0-b;
#X obj 117 502 r \$0-b;
#X obj 116 482 r \$0-g;
#X obj 116 462 r \$0-r;
#X obj 370 274 r \$0-gx;
#X obj 101 282 r \$0-gx;
#X obj 17 -53 r \$0-fkey;
#X obj 38 299 r \$0-fkey;
#X obj 62 107 == 3;
#X obj 36 392 translateXYZ -4.5 1.6 0;
#X obj 387 92 s \$0-ypara56;
#X obj 388 118 r yp56;
#X obj 384 168 r \$0-ypara56;
#X obj 387 190 s yparam56;
#X obj 394 -14 moses 127;
#X connect 0 0 3 0;
#X connect 1 0 3 0;
#X connect 2 0 3 0;
#X connect 3 0 5 0;
#X connect 3 0 32 1;
#X connect 3 0 47 0;
#X connect 4 0 51 0;
#X connect 5 0 41 0;
#X connect 5 0 52 0;
#X connect 6 0 4 0;
#X connect 7 0 6 0;
#X connect 9 0 11 0;
#X connect 9 0 17 0;
#X connect 11 0 10 0;
#X connect 12 0 46 0;
#X connect 13 0 12 0;
#X connect 14 0 12 0;
#X connect 15 0 13 0;
#X connect 15 1 14 0;
#X connect 16 0 10 0;
#X connect 17 0 10 1;
#X connect 18 0 20 0;
#X connect 18 0 26 0;
#X connect 20 0 19 0;
#X connect 21 0 64 0;
#X connect 22 0 21 0;
#X connect 23 0 21 0;
#X connect 24 0 22 0;
#X connect 24 1 23 0;
#X connect 25 0 19 0;
#X connect 26 0 19 1;
#X connect 27 0 30 0;
#X connect 29 0 27 0;
#X connect 30 0 28 0;
#X connect 30 0 31 0;
#X connect 31 0 64 1;
#X connect 32 0 36 0;
#X connect 33 0 34 0;
#X connect 34 0 39 0;
#X connect 35 0 33 0;
#X connect 36 0 35 0;
#X connect 37 0 19 0;
#X connect 38 0 10 0;
#X connect 40 0 39 0;
#X connect 41 0 40 0;
#X connect 42 0 25 0;
#X connect 43 0 50 0;
#X connect 44 0 43 1;
#X connect 45 0 42 1;
#X connect 46 0 43 0;
#X connect 47 0 65 0;
#X connect 49 0 63 0;
#X connect 50 0 16 0;
#X connect 51 0 0 0;
#X connect 51 1 69 0;
#X connect 53 0 16 1;
#X connect 54 0 16 2;
#X connect 55 0 16 3;
#X connect 56 0 25 3;
#X connect 57 0 25 2;
#X connect 58 0 25 1;
#X connect 59 0 32 0;
#X connect 60 0 29 0;
#X connect 61 0 15 0;
#X connect 62 0 24 0;
#X connect 63 0 50 1;
#X connect 64 0 42 0;
#X connect 66 0 48 0;
#X connect 67 0 68 0;
#X connect 69 0 1 0;
#X connect 69 1 2 0;
#X coords 0 -1 1 1 60 85 2 300 200;
#X restore 3 212 pd yaxisswitches;
#X floatatom 230 16 5 0 0 0 - - -;
#N canvas 1591 216 463 496 z 0;
#X text 116 139 chnl#16;
#X floatatom 224 123 5 0 0 0 - - -;
#X obj 175 172 t b b;
#X obj 175 200 f;
#X obj 175 223 + 1;
#X obj 123 103 tgl 15 0 empty empty empty 17 7 0 10 -262144 -1 -1 0
1;
#X floatatom 143 124 5 0 0 0 - - -;
#X msg 202 200 1;
#X obj 103 103 bng 15 250 50 0 empty empty empty 17 7 0 10 -262144
-1 -1;
#X obj 122 187 outlet;
#X obj 175 147 delay 500;
#X obj 124 51 inlet zflip in;
#X obj 183 101 s moseszflip;
#X floatatom 107 333 5 0 0 0 - - -;
#X obj 176 123 sel 127;
#X obj 125 76 moses 120;
#X connect 2 0 3 0;
#X connect 2 1 7 0;
#X connect 3 0 4 0;
#X connect 4 0 8 0;
#X connect 5 0 9 0;
#X connect 7 0 3 1;
#X connect 8 0 5 0;
#X connect 10 0 2 0;
#X connect 11 0 15 0;
#X connect 14 0 6 0;
#X connect 14 0 10 0;
#X connect 14 1 1 0;
#X connect 15 0 12 0;
#X connect 15 1 14 0;
#X coords 0 -1 1 1 40 20 2 100 100;
#X restore 108 302 pd z flip switch;
#X obj 114 359 r moseszflip;
#X obj 274 23 s \$0-gcut;
#X obj 274 0 inlet;
#X obj 341 0 r preset;
#X obj 341 22 s \$0-preset0;
#X obj 593 452 r \$0-gx1;
#X obj 647 453 r \$0-gy1;
#X obj 702 451 r \$0-gx2;
#X obj 758 452 r \$0-gy1;
#X obj 818 452 r \$0-gx3;
#X obj 873 452 r \$0-gy1;
#X obj 592 392 r \$0-gx1;
#X obj 647 392 r \$0-gy2;
#X obj 706 391 r \$0-gx2;
#X obj 761 391 r \$0-gy2;
#X obj 815 391 r \$0-gx3;
#X obj 870 391 r \$0-gy2;
#X obj 593 332 r \$0-gx1;
#X obj 591 271 r \$0-gx1;
#X obj 594 201 r \$0-gx1;
#X obj 702 330 r \$0-gx2;
#X obj 700 269 r \$0-gx2;
#X obj 703 199 r \$0-gx2;
#X obj 814 331 r \$0-gx3;
#X obj 812 270 r \$0-gx3;
#X obj 815 200 r \$0-gx3;
#X obj 648 332 r \$0-gy3;
#X obj 757 330 r \$0-gy3;
#X obj 869 331 r \$0-gy3;
#X obj 867 270 r \$0-gy4;
#X obj 755 269 r \$0-gy4;
#X obj 646 271 r \$0-gy4;
#X obj 649 201 r \$0-gy5;
#X obj 758 199 r \$0-gy5;
#X obj 870 200 r \$0-gy5;
#X obj -6 404 s \$0-gx;
#X obj 55 402 s \$0-gy;
#X obj 109 402 s \$0-gz;
#X obj -6 425 s \$0-gx1;
#X obj 47 424 s \$0-gy1;
#X text 520 22 create an abstraction to create the viz graphics from
the data points below.;
#X obj 596 495 s \$0-1-1;
#X obj 705 497 s \$0-2-1;
#X obj 837 496 s \$0-3-1;
#X obj 613 435 s \$0-1-2;
#X obj 613 373 s \$0-1-3;
#X obj 613 314 s \$0-1-4;
#X obj 613 253 s \$0-1-5;
#X obj 726 433 s \$0-2-2;
#X obj 723 373 s \$0-2-3;
#X obj 720 311 s \$0-2-4;
#X obj 720 249 s \$0-2-5;
#X obj 837 433 s \$0-3-2;
#X obj 833 373 s \$0-3-3;
#X obj 834 313 s \$0-3-4;
#X obj 835 251 s \$0-3-5;
#N canvas 1178 121 642 469 grid 0;
#X obj 26 271 r \$0-1-1;
#X obj 26 210 r \$0-1-2;
#X obj 26 148 r \$0-1-3;
#X obj 26 89 r \$0-1-4;
#X obj 26 28 r \$0-1-5;
#X obj 133 24 r \$0-2-5;
#X obj 133 86 r \$0-2-4;
#X obj 136 148 r \$0-2-3;
#X obj 139 208 r \$0-2-2;
#X obj 137 270 r \$0-2-1;
#X obj 250 271 r \$0-3-1;
#X obj 250 208 r \$0-3-2;
#X obj 246 148 r \$0-3-3;
#X obj 247 88 r \$0-3-4;
#X obj 248 26 r \$0-3-5;
#X obj 355 28 r \$0-4-5;
#X obj 355 88 r \$0-4-4;
#X obj 358 148 r \$0-4-3;
#X obj 362 210 r \$0-4-2;
#X obj 364 272 r \$0-4-1;
#X obj 474 273 r \$0-5-1;
#X obj 470 210 r \$0-5-2;
#X obj 471 148 r \$0-5-3;
#X obj 469 87 r \$0-5-4;
#X obj 466 26 r \$0-5-5;
#X restore 406 -3 pd grid parameters;
#N canvas 0 0 684 417 grid 0;
#X obj 36 281 r \$0-1-1;
#X obj 36 220 r \$0-1-2;
#X obj 36 158 r \$0-1-3;
#X obj 36 99 r \$0-1-4;
#X obj 36 38 r \$0-1-5;
#X obj 143 34 r \$0-2-5;
#X obj 143 96 r \$0-2-4;
#X obj 146 158 r \$0-2-3;
#X obj 149 218 r \$0-2-2;
#X obj 147 280 r \$0-2-1;
#X obj 260 281 r \$0-3-1;
#X obj 260 218 r \$0-3-2;
#X obj 256 158 r \$0-3-3;
#X obj 257 98 r \$0-3-4;
#X obj 258 36 r \$0-3-5;
#X obj 365 38 r \$0-4-5;
#X obj 365 98 r \$0-4-4;
#X obj 368 158 r \$0-4-3;
#X obj 372 220 r \$0-4-2;
#X obj 374 282 r \$0-4-1;
#X obj 484 283 r \$0-5-1;
#X obj 480 220 r \$0-5-2;
#X obj 481 158 r \$0-5-3;
#X obj 479 97 r \$0-5-4;
#X obj 476 36 r \$0-5-5;
#X restore 526 -2 pd grid viz;
#N canvas 0 0 450 300 2bangs 0;
#X obj 158 67 == 1;
#X obj 203 69 == 1;
#X obj 205 98 t b f;
#X obj 189 129 +;
#X floatatom 189 154 5 0 0 0 - - -;
#X obj 190 177 sel 2 1 0;
#X msg 219 214 0;
#X msg 252 216 0;
#X msg 184 214 1;
#X obj 159 36 inlet;
#X obj 208 39 inlet;
#X obj 185 250 outlet;
#X obj 302 253 tgl 15 0 empty empty empty 17 7 0 10 -262144 -1 -1 0
1;
#X connect 0 0 3 0;
#X connect 1 0 2 0;
#X connect 2 0 3 0;
#X connect 2 1 3 1;
#X connect 3 0 4 0;
#X connect 4 0 5 0;
#X connect 5 0 8 0;
#X connect 5 1 6 0;
#X connect 5 2 7 0;
#X connect 6 0 11 0;
#X connect 6 0 12 0;
#X connect 7 0 11 0;
#X connect 7 0 12 0;
#X connect 8 0 11 0;
#X connect 8 0 12 0;
#X connect 9 0 0 0;
#X connect 10 0 1 0;
#X coords 0 -1 1 1 20 20 1 300 250;
#X restore 594 472 pd 2bangs;
#N canvas 0 0 450 300 2bangs 0;
#X obj 158 67 == 1;
#X obj 203 69 == 1;
#X obj 205 98 t b f;
#X obj 189 129 +;
#X floatatom 189 154 5 0 0 0 - - -;
#X obj 190 177 sel 2 1 0;
#X msg 219 214 0;
#X msg 252 216 0;
#X msg 184 214 1;
#X obj 159 36 inlet;
#X obj 208 39 inlet;
#X obj 185 250 outlet;
#X obj 302 253 tgl 15 0 empty empty empty 17 7 0 10 -262144 -1 -1 0
1;
#X connect 0 0 3 0;
#X connect 1 0 2 0;
#X connect 2 0 3 0;
#X connect 2 1 3 1;
#X connect 3 0 4 0;
#X connect 4 0 5 0;
#X connect 5 0 8 0;
#X connect 5 1 6 0;
#X connect 5 2 7 0;
#X connect 6 0 11 0;
#X connect 6 0 12 0;
#X connect 7 0 11 0;
#X connect 7 0 12 0;
#X connect 8 0 11 0;
#X connect 8 0 12 0;
#X connect 9 0 0 0;
#X connect 10 0 1 0;
#X coords 0 -1 1 1 20 20 1 300 250;
#X restore 702 474 pd 2bangs;
#N canvas 0 0 450 300 2bangs 0;
#X obj 158 67 == 1;
#X obj 203 69 == 1;
#X obj 205 98 t b f;
#X obj 189 129 +;
#X floatatom 189 154 5 0 0 0 - - -;
#X obj 190 177 sel 2 1 0;
#X msg 219 214 0;
#X msg 252 216 0;
#X msg 184 214 1;
#X obj 159 36 inlet;
#X obj 208 39 inlet;
#X obj 185 250 outlet;
#X obj 302 253 tgl 15 0 empty empty empty 17 7 0 10 -262144 -1 -1 0
1;
#X connect 0 0 3 0;
#X connect 1 0 2 0;
#X connect 2 0 3 0;
#X connect 2 1 3 1;
#X connect 3 0 4 0;
#X connect 4 0 5 0;
#X connect 5 0 8 0;
#X connect 5 1 6 0;
#X connect 5 2 7 0;
#X connect 6 0 11 0;
#X connect 6 0 12 0;
#X connect 7 0 11 0;
#X connect 7 0 12 0;
#X connect 8 0 11 0;
#X connect 8 0 12 0;
#X connect 9 0 0 0;
#X connect 10 0 1 0;
#X coords 0 -1 1 1 20 20 1 300 250;
#X restore 818 474 pd 2bangs;
#N canvas 0 0 450 300 2bangs 0;
#X obj 158 67 == 1;
#X obj 203 69 == 1;
#X obj 205 98 t b f;
#X obj 189 129 +;
#X floatatom 189 154 5 0 0 0 - - -;
#X obj 190 177 sel 2 1 0;
#X msg 219 214 0;
#X msg 252 216 0;
#X msg 184 214 1;
#X obj 159 36 inlet;
#X obj 208 39 inlet;
#X obj 185 250 outlet;
#X obj 302 253 tgl 15 0 empty empty empty 17 7 0 10 -262144 -1 -1 0
1;
#X connect 0 0 3 0;
#X connect 1 0 2 0;
#X connect 2 0 3 0;
#X connect 2 1 3 1;
#X connect 3 0 4 0;
#X connect 4 0 5 0;
#X connect 5 0 8 0;
#X connect 5 1 6 0;
#X connect 5 2 7 0;
#X connect 6 0 11 0;
#X connect 6 0 12 0;
#X connect 7 0 11 0;
#X connect 7 0 12 0;
#X connect 8 0 11 0;
#X connect 8 0 12 0;
#X connect 9 0 0 0;
#X connect 10 0 1 0;
#X coords 0 -1 1 1 20 20 1 300 250;
#X restore 593 412 pd 2bangs;
#N canvas 0 0 450 300 2bangs 0;
#X obj 158 67 == 1;
#X obj 203 69 == 1;
#X obj 205 98 t b f;
#X obj 189 129 +;
#X floatatom 189 154 5 0 0 0 - - -;
#X obj 190 177 sel 2 1 0;
#X msg 219 214 0;
#X msg 252 216 0;
#X msg 184 214 1;
#X obj 159 36 inlet;
#X obj 208 39 inlet;
#X obj 185 250 outlet;
#X obj 302 253 tgl 15 0 empty empty empty 17 7 0 10 -262144 -1 -1 0
1;
#X connect 0 0 3 0;
#X connect 1 0 2 0;
#X connect 2 0 3 0;
#X connect 2 1 3 1;
#X connect 3 0 4 0;
#X connect 4 0 5 0;
#X connect 5 0 8 0;
#X connect 5 1 6 0;
#X connect 5 2 7 0;
#X connect 6 0 11 0;
#X connect 6 0 12 0;
#X connect 7 0 11 0;
#X connect 7 0 12 0;
#X connect 8 0 11 0;
#X connect 8 0 12 0;
#X connect 9 0 0 0;
#X connect 10 0 1 0;
#X coords 0 -1 1 1 20 20 1 300 250;
#X restore 704 412 pd 2bangs;
#N canvas 0 0 450 300 2bangs 0;
#X obj 158 67 == 1;
#X obj 203 69 == 1;
#X obj 205 98 t b f;
#X obj 189 129 +;
#X floatatom 189 154 5 0 0 0 - - -;
#X obj 190 177 sel 2 1 0;
#X msg 219 214 0;
#X msg 252 216 0;
#X msg 184 214 1;
#X obj 159 36 inlet;
#X obj 208 39 inlet;
#X obj 185 250 outlet;
#X obj 302 253 tgl 15 0 empty empty empty 17 7 0 10 -262144 -1 -1 0
1;
#X connect 0 0 3 0;
#X connect 1 0 2 0;
#X connect 2 0 3 0;
#X connect 2 1 3 1;
#X connect 3 0 4 0;
#X connect 4 0 5 0;
#X connect 5 0 8 0;
#X connect 5 1 6 0;
#X connect 5 2 7 0;
#X connect 6 0 11 0;
#X connect 6 0 12 0;
#X connect 7 0 11 0;
#X connect 7 0 12 0;
#X connect 8 0 11 0;
#X connect 8 0 12 0;
#X connect 9 0 0 0;
#X connect 10 0 1 0;
#X coords 0 -1 1 1 20 20 1 300 250;
#X restore 817 414 pd 2bangs;
#N canvas 0 0 450 300 2bangs 0;
#X obj 158 67 == 1;
#X obj 203 69 == 1;
#X obj 205 98 t b f;
#X obj 189 129 +;
#X floatatom 189 154 5 0 0 0 - - -;
#X obj 190 177 sel 2 1 0;
#X msg 219 214 0;
#X msg 252 216 0;
#X msg 184 214 1;
#X obj 159 36 inlet;
#X obj 208 39 inlet;
#X obj 185 250 outlet;
#X obj 302 253 tgl 15 0 empty empty empty 17 7 0 10 -262144 -1 -1 0
1;
#X connect 0 0 3 0;
#X connect 1 0 2 0;
#X connect 2 0 3 0;
#X connect 2 1 3 1;
#X connect 3 0 4 0;
#X connect 4 0 5 0;
#X connect 5 0 8 0;
#X connect 5 1 6 0;
#X connect 5 2 7 0;
#X connect 6 0 11 0;
#X connect 6 0 12 0;
#X connect 7 0 11 0;
#X connect 7 0 12 0;
#X connect 8 0 11 0;
#X connect 8 0 12 0;
#X connect 9 0 0 0;
#X connect 10 0 1 0;
#X coords 0 -1 1 1 20 20 1 300 250;
#X restore 598 350 pd 2bangs;
#N canvas 429 295 450 300 2bangs 0;
#X obj 158 67 == 1;
#X obj 203 69 == 1;
#X obj 205 98 t b f;
#X obj 189 129 +;
#X floatatom 189 154 5 0 0 0 - - -;
#X obj 190 177 sel 2 1 0;
#X msg 219 214 0;
#X msg 252 216 0;
#X msg 184 214 1;
#X obj 159 36 inlet;
#X obj 208 39 inlet;
#X obj 185 250 outlet;
#X obj 302 253 tgl 15 0 empty empty empty 17 7 0 10 -262144 -1 -1 0
1;
#X obj 294 105 tgl 15 0 empty empty empty 17 7 0 10 -262144 -1 -1 0
1;
#X obj 96 59 tgl 15 0 empty empty empty 17 7 0 10 -262144 -1 -1 0 1
;
#X connect 0 0 3 0;
#X connect 1 0 2 0;
#X connect 2 0 3 0;
#X connect 2 1 3 1;
#X connect 3 0 4 0;
#X connect 4 0 5 0;
#X connect 5 0 8 0;
#X connect 5 1 6 0;
#X connect 5 2 7 0;
#X connect 6 0 11 0;
#X connect 6 0 12 0;
#X connect 7 0 11 0;
#X connect 7 0 12 0;
#X connect 8 0 11 0;
#X connect 8 0 12 0;
#X connect 9 0 0 0;
#X connect 10 0 1 0;
#X connect 13 0 1 0;
#X connect 14 0 0 0;
#X coords 0 -1 1 1 20 20 1 300 250;
#X restore 704 351 pd 2bangs;
#N canvas 0 0 450 300 2bangs 0;
#X obj 158 67 == 1;
#X obj 203 69 == 1;
#X obj 205 98 t b f;
#X obj 189 129 +;
#X floatatom 189 154 5 0 0 0 - - -;
#X obj 190 177 sel 2 1 0;
#X msg 219 214 0;
#X msg 252 216 0;
#X msg 184 214 1;
#X obj 159 36 inlet;
#X obj 208 39 inlet;
#X obj 185 250 outlet;
#X obj 302 253 tgl 15 0 empty empty empty 17 7 0 10 -262144 -1 -1 0
1;
#X connect 0 0 3 0;
#X connect 1 0 2 0;
#X connect 2 0 3 0;
#X connect 2 1 3 1;
#X connect 3 0 4 0;
#X connect 4 0 5 0;
#X connect 5 0 8 0;
#X connect 5 1 6 0;
#X connect 5 2 7 0;
#X connect 6 0 11 0;
#X connect 6 0 12 0;
#X connect 7 0 11 0;
#X connect 7 0 12 0;
#X connect 8 0 11 0;
#X connect 8 0 12 0;
#X connect 9 0 0 0;
#X connect 10 0 1 0;
#X coords 0 -1 1 1 20 20 1 300 250;
#X restore 820 351 pd 2bangs;
#N canvas 0 0 450 300 2bangs 0;
#X obj 158 67 == 1;
#X obj 203 69 == 1;
#X obj 205 98 t b f;
#X obj 189 129 +;
#X floatatom 189 154 5 0 0 0 - - -;
#X obj 190 177 sel 2 1 0;
#X msg 219 214 0;
#X msg 252 216 0;
#X msg 184 214 1;
#X obj 159 36 inlet;
#X obj 208 39 inlet;
#X obj 185 250 outlet;
#X obj 302 253 tgl 15 0 empty empty empty 17 7 0 10 -262144 -1 -1 0
1;
#X connect 0 0 3 0;
#X connect 1 0 2 0;
#X connect 2 0 3 0;
#X connect 2 1 3 1;
#X connect 3 0 4 0;
#X connect 4 0 5 0;
#X connect 5 0 8 0;
#X connect 5 1 6 0;
#X connect 5 2 7 0;
#X connect 6 0 11 0;
#X connect 6 0 12 0;
#X connect 7 0 11 0;
#X connect 7 0 12 0;
#X connect 8 0 11 0;
#X connect 8 0 12 0;
#X connect 9 0 0 0;
#X connect 10 0 1 0;
#X coords 0 -1 1 1 20 20 1 300 250;
#X restore 593 290 pd 2bangs;
#N canvas 0 0 450 300 2bangs 0;
#X obj 158 67 == 1;
#X obj 203 69 == 1;
#X obj 205 98 t b f;
#X obj 189 129 +;
#X floatatom 189 154 5 0 0 0 - - -;
#X obj 190 177 sel 2 1 0;
#X msg 219 214 0;
#X msg 252 216 0;
#X msg 184 214 1;
#X obj 159 36 inlet;
#X obj 208 39 inlet;
#X obj 185 250 outlet;
#X obj 302 253 tgl 15 0 empty empty empty 17 7 0 10 -262144 -1 -1 0
1;
#X connect 0 0 3 0;
#X connect 1 0 2 0;
#X connect 2 0 3 0;
#X connect 2 1 3 1;
#X connect 3 0 4 0;
#X connect 4 0 5 0;
#X connect 5 0 8 0;
#X connect 5 1 6 0;
#X connect 5 2 7 0;
#X connect 6 0 11 0;
#X connect 6 0 12 0;
#X connect 7 0 11 0;
#X connect 7 0 12 0;
#X connect 8 0 11 0;
#X connect 8 0 12 0;
#X connect 9 0 0 0;
#X connect 10 0 1 0;
#X coords 0 -1 1 1 20 20 1 300 250;
#X restore 701 292 pd 2bangs;
#N canvas 0 0 450 300 2bangs 0;
#X obj 158 67 == 1;
#X obj 203 69 == 1;
#X obj 205 98 t b f;
#X obj 189 129 +;
#X floatatom 189 154 5 0 0 0 - - -;
#X obj 190 177 sel 2 1 0;
#X msg 219 214 0;
#X msg 252 216 0;
#X msg 184 214 1;
#X obj 159 36 inlet;
#X obj 208 39 inlet;
#X obj 185 250 outlet;
#X obj 302 253 tgl 15 0 empty empty empty 17 7 0 10 -262144 -1 -1 0
1;
#X connect 0 0 3 0;
#X connect 1 0 2 0;
#X connect 2 0 3 0;
#X connect 2 1 3 1;
#X connect 3 0 4 0;
#X connect 4 0 5 0;
#X connect 5 0 8 0;
#X connect 5 1 6 0;
#X connect 5 2 7 0;
#X connect 6 0 11 0;
#X connect 6 0 12 0;
#X connect 7 0 11 0;
#X connect 7 0 12 0;
#X connect 8 0 11 0;
#X connect 8 0 12 0;
#X connect 9 0 0 0;
#X connect 10 0 1 0;
#X coords 0 -1 1 1 20 20 1 300 250;
#X restore 817 292 pd 2bangs;
#N canvas 0 0 450 300 2bangs 0;
#X obj 158 67 == 1;
#X obj 203 69 == 1;
#X obj 205 98 t b f;
#X obj 189 129 +;
#X floatatom 189 154 5 0 0 0 - - -;
#X obj 190 177 sel 2 1 0;
#X msg 219 214 0;
#X msg 252 216 0;
#X msg 184 214 1;
#X obj 159 36 inlet;
#X obj 208 39 inlet;
#X obj 185 250 outlet;
#X obj 302 253 tgl 15 0 empty empty empty 17 7 0 10 -262144 -1 -1 0
1;
#X connect 0 0 3 0;
#X connect 1 0 2 0;
#X connect 2 0 3 0;
#X connect 2 1 3 1;
#X connect 3 0 4 0;
#X connect 4 0 5 0;
#X connect 5 0 8 0;
#X connect 5 1 6 0;
#X connect 5 2 7 0;
#X connect 6 0 11 0;
#X connect 6 0 12 0;
#X connect 7 0 11 0;
#X connect 7 0 12 0;
#X connect 8 0 11 0;
#X connect 8 0 12 0;
#X connect 9 0 0 0;
#X connect 10 0 1 0;
#X coords 0 -1 1 1 20 20 1 300 250;
#X restore 599 224 pd 2bangs;
#N canvas 0 0 450 300 2bangs 0;
#X obj 158 67 == 1;
#X obj 203 69 == 1;
#X obj 205 98 t b f;
#X obj 189 129 +;
#X floatatom 189 154 5 0 0 0 - - -;
#X obj 190 177 sel 2 1 0;
#X msg 219 214 0;
#X msg 252 216 0;
#X msg 184 214 1;
#X obj 159 36 inlet;
#X obj 208 39 inlet;
#X obj 185 250 outlet;
#X obj 302 253 tgl 15 0 empty empty empty 17 7 0 10 -262144 -1 -1 0
1;
#X connect 0 0 3 0;
#X connect 1 0 2 0;
#X connect 2 0 3 0;
#X connect 2 1 3 1;
#X connect 3 0 4 0;
#X connect 4 0 5 0;
#X connect 5 0 8 0;
#X connect 5 1 6 0;
#X connect 5 2 7 0;
#X connect 6 0 11 0;
#X connect 6 0 12 0;
#X connect 7 0 11 0;
#X connect 7 0 12 0;
#X connect 8 0 11 0;
#X connect 8 0 12 0;
#X connect 9 0 0 0;
#X connect 10 0 1 0;
#X coords 0 -1 1 1 20 20 1 300 250;
#X restore 707 226 pd 2bangs;
#N canvas 0 0 450 300 2bangs 0;
#X obj 158 67 == 1;
#X obj 203 69 == 1;
#X obj 205 98 t b f;
#X obj 189 129 +;
#X floatatom 189 154 5 0 0 0 - - -;
#X obj 190 177 sel 2 1 0;
#X msg 219 214 0;
#X msg 252 216 0;
#X msg 184 214 1;
#X obj 159 36 inlet;
#X obj 208 39 inlet;
#X obj 185 250 outlet;
#X obj 302 253 tgl 15 0 empty empty empty 17 7 0 10 -262144 -1 -1 0
1;
#X connect 0 0 3 0;
#X connect 1 0 2 0;
#X connect 2 0 3 0;
#X connect 2 1 3 1;
#X connect 3 0 4 0;
#X connect 4 0 5 0;
#X connect 5 0 8 0;
#X connect 5 1 6 0;
#X connect 5 2 7 0;
#X connect 6 0 11 0;
#X connect 6 0 12 0;
#X connect 7 0 11 0;
#X connect 7 0 12 0;
#X connect 8 0 11 0;
#X connect 8 0 12 0;
#X connect 9 0 0 0;
#X connect 10 0 1 0;
#X coords 0 -1 1 1 20 20 1 300 250;
#X restore 823 226 pd 2bangs;
#X obj 224 200 r \$0-gx;
#X obj 230 265 hsl 128 15 0 127 0 0 empty empty empty -2 -8 0 10 -262144
-1 -1 12700 1;
#X obj 223 181 r \$0-gy;
#X obj 207 202 vsl 15 128 0 127 0 0 empty empty empty 0 -9 0 10 -262144
-1 -1 100 1;
#N canvas 0 0 325 484 range 0;
#X obj 29 296 r \$0-gx4;
#X obj 84 296 r \$0-gy1;
#X obj 140 297 r \$0-gx5;
#X obj 195 297 r \$0-gy1;
#X obj 26 235 r \$0-gx4;
#X obj 81 235 r \$0-gy2;
#X obj 136 235 r \$0-gx5;
#X obj 191 235 r \$0-gy2;
#X obj 23 175 r \$0-gx4;
#X obj 21 114 r \$0-gx4;
#X obj 24 44 r \$0-gx4;
#X obj 136 174 r \$0-gx5;
#X obj 134 113 r \$0-gx5;
#X obj 137 43 r \$0-gx5;
#X obj 78 175 r \$0-gy3;
#X obj 191 174 r \$0-gy3;
#X obj 189 113 r \$0-gy4;
#X obj 76 114 r \$0-gy4;
#X obj 79 44 r \$0-gy5;
#X obj 192 43 r \$0-gy5;
#X obj 51 340 s \$0-4-1;
#X obj 161 341 s \$0-5-1;
#X obj 49 278 s \$0-4-2;
#X obj 45 216 s \$0-4-3;
#X obj 42 156 s \$0-4-4;
#X obj 42 96 s \$0-4-5;
#X obj 157 278 s \$0-5-2;
#X obj 158 216 s \$0-5-3;
#X obj 156 155 s \$0-5-4;
#X obj 153 94 s \$0-5-5;
#N canvas 0 0 450 300 2bangs 0;
#X obj 158 67 == 1;
#X obj 203 69 == 1;
#X obj 205 98 t b f;
#X obj 189 129 +;
#X floatatom 189 154 5 0 0 0 - - -;
#X obj 190 177 sel 2 1 0;
#X msg 219 214 0;
#X msg 252 216 0;
#X msg 184 214 1;
#X obj 159 36 inlet;
#X obj 208 39 inlet;
#X obj 185 250 outlet;
#X obj 302 253 tgl 15 0 empty empty empty 17 7 0 10 -262144 -1 -1 0
1;
#X connect 0 0 3 0;
#X connect 1 0 2 0;
#X connect 2 0 3 0;
#X connect 2 1 3 1;
#X connect 3 0 4 0;
#X connect 4 0 5 0;
#X connect 5 0 8 0;
#X connect 5 1 6 0;
#X connect 5 2 7 0;
#X connect 6 0 11 0;
#X connect 6 0 12 0;
#X connect 7 0 11 0;
#X connect 7 0 12 0;
#X connect 8 0 11 0;
#X connect 8 0 12 0;
#X connect 9 0 0 0;
#X connect 10 0 1 0;
#X coords 0 -1 1 1 20 20 1 300 250;
#X restore 26 318 pd 2bangs;
#N canvas 0 0 450 300 2bangs 0;
#X obj 158 67 == 1;
#X obj 203 69 == 1;
#X obj 205 98 t b f;
#X obj 189 129 +;
#X floatatom 189 154 5 0 0 0 - - -;
#X obj 190 177 sel 2 1 0;
#X msg 219 214 0;
#X msg 252 216 0;
#X msg 184 214 1;
#X obj 159 36 inlet;
#X obj 208 39 inlet;
#X obj 185 250 outlet;
#X obj 302 253 tgl 15 0 empty empty empty 17 7 0 10 -262144 -1 -1 0
1;
#X connect 0 0 3 0;
#X connect 1 0 2 0;
#X connect 2 0 3 0;
#X connect 2 1 3 1;
#X connect 3 0 4 0;
#X connect 4 0 5 0;
#X connect 5 0 8 0;
#X connect 5 1 6 0;
#X connect 5 2 7 0;
#X connect 6 0 11 0;
#X connect 6 0 12 0;
#X connect 7 0 11 0;
#X connect 7 0 12 0;
#X connect 8 0 11 0;
#X connect 8 0 12 0;
#X connect 9 0 0 0;
#X connect 10 0 1 0;
#X coords 0 -1 1 1 20 20 1 300 250;
#X restore 139 319 pd 2bangs;
#N canvas 0 0 450 300 2bangs 0;
#X obj 158 67 == 1;
#X obj 203 69 == 1;
#X obj 205 98 t b f;
#X obj 189 129 +;
#X floatatom 189 154 5 0 0 0 - - -;
#X obj 190 177 sel 2 1 0;
#X msg 219 214 0;
#X msg 252 216 0;
#X msg 184 214 1;
#X obj 159 36 inlet;
#X obj 208 39 inlet;
#X obj 185 250 outlet;
#X obj 302 253 tgl 15 0 empty empty empty 17 7 0 10 -262144 -1 -1 0
1;
#X connect 0 0 3 0;
#X connect 1 0 2 0;
#X connect 2 0 3 0;
#X connect 2 1 3 1;
#X connect 3 0 4 0;
#X connect 4 0 5 0;
#X connect 5 0 8 0;
#X connect 5 1 6 0;
#X connect 5 2 7 0;
#X connect 6 0 11 0;
#X connect 6 0 12 0;
#X connect 7 0 11 0;
#X connect 7 0 12 0;
#X connect 8 0 11 0;
#X connect 8 0 12 0;
#X connect 9 0 0 0;
#X connect 10 0 1 0;
#X coords 0 -1 1 1 20 20 1 300 250;
#X restore 27 255 pd 2bangs;
#N canvas 0 0 450 300 2bangs 0;
#X obj 158 67 == 1;
#X obj 203 69 == 1;
#X obj 205 98 t b f;
#X obj 189 129 +;
#X floatatom 189 154 5 0 0 0 - - -;
#X obj 190 177 sel 2 1 0;
#X msg 219 214 0;
#X msg 252 216 0;
#X msg 184 214 1;
#X obj 159 36 inlet;
#X obj 208 39 inlet;
#X obj 185 250 outlet;
#X obj 302 253 tgl 15 0 empty empty empty 17 7 0 10 -262144 -1 -1 0
1;
#X connect 0 0 3 0;
#X connect 1 0 2 0;
#X connect 2 0 3 0;
#X connect 2 1 3 1;
#X connect 3 0 4 0;
#X connect 4 0 5 0;
#X connect 5 0 8 0;
#X connect 5 1 6 0;
#X connect 5 2 7 0;
#X connect 6 0 11 0;
#X connect 6 0 12 0;
#X connect 7 0 11 0;
#X connect 7 0 12 0;
#X connect 8 0 11 0;
#X connect 8 0 12 0;
#X connect 9 0 0 0;
#X connect 10 0 1 0;
#X coords 0 -1 1 1 20 20 1 300 250;
#X restore 138 259 pd 2bangs;
#N canvas 0 0 450 300 2bangs 0;
#X obj 158 67 == 1;
#X obj 203 69 == 1;
#X obj 205 98 t b f;
#X obj 189 129 +;
#X floatatom 189 154 5 0 0 0 - - -;
#X obj 190 177 sel 2 1 0;
#X msg 219 214 0;
#X msg 252 216 0;
#X msg 184 214 1;
#X obj 159 36 inlet;
#X obj 208 39 inlet;
#X obj 185 250 outlet;
#X obj 302 253 tgl 15 0 empty empty empty 17 7 0 10 -262144 -1 -1 0
1;
#X connect 0 0 3 0;
#X connect 1 0 2 0;
#X connect 2 0 3 0;
#X connect 2 1 3 1;
#X connect 3 0 4 0;
#X connect 4 0 5 0;
#X connect 5 0 8 0;
#X connect 5 1 6 0;
#X connect 5 2 7 0;
#X connect 6 0 11 0;
#X connect 6 0 12 0;
#X connect 7 0 11 0;
#X connect 7 0 12 0;
#X connect 8 0 11 0;
#X connect 8 0 12 0;
#X connect 9 0 0 0;
#X connect 10 0 1 0;
#X coords 0 -1 1 1 20 20 1 300 250;
#X restore 28 195 pd 2bangs;
#N canvas 0 0 450 300 2bangs 0;
#X obj 158 67 == 1;
#X obj 203 69 == 1;
#X obj 205 98 t b f;
#X obj 189 129 +;
#X floatatom 189 154 5 0 0 0 - - -;
#X obj 190 177 sel 2 1 0;
#X msg 219 214 0;
#X msg 252 216 0;
#X msg 184 214 1;
#X obj 159 36 inlet;
#X obj 208 39 inlet;
#X obj 185 250 outlet;
#X obj 302 253 tgl 15 0 empty empty empty 17 7 0 10 -262144 -1 -1 0
1;
#X connect 0 0 3 0;
#X connect 1 0 2 0;
#X connect 2 0 3 0;
#X connect 2 1 3 1;
#X connect 3 0 4 0;
#X connect 4 0 5 0;
#X connect 5 0 8 0;
#X connect 5 1 6 0;
#X connect 5 2 7 0;
#X connect 6 0 11 0;
#X connect 6 0 12 0;
#X connect 7 0 11 0;
#X connect 7 0 12 0;
#X connect 8 0 11 0;
#X connect 8 0 12 0;
#X connect 9 0 0 0;
#X connect 10 0 1 0;
#X coords 0 -1 1 1 20 20 1 300 250;
#X restore 142 192 pd 2bangs;
#N canvas 0 0 450 300 2bangs 0;
#X obj 158 67 == 1;
#X obj 203 69 == 1;
#X obj 205 98 t b f;
#X obj 189 129 +;
#X floatatom 189 154 5 0 0 0 - - -;
#X obj 190 177 sel 2 1 0;
#X msg 219 214 0;
#X msg 252 216 0;
#X msg 184 214 1;
#X obj 159 36 inlet;
#X obj 208 39 inlet;
#X obj 185 250 outlet;
#X obj 302 253 tgl 15 0 empty empty empty 17 7 0 10 -262144 -1 -1 0
1;
#X connect 0 0 3 0;
#X connect 1 0 2 0;
#X connect 2 0 3 0;
#X connect 2 1 3 1;
#X connect 3 0 4 0;
#X connect 4 0 5 0;
#X connect 5 0 8 0;
#X connect 5 1 6 0;
#X connect 5 2 7 0;
#X connect 6 0 11 0;
#X connect 6 0 12 0;
#X connect 7 0 11 0;
#X connect 7 0 12 0;
#X connect 8 0 11 0;
#X connect 8 0 12 0;
#X connect 9 0 0 0;
#X connect 10 0 1 0;
#X coords 0 -1 1 1 20 20 1 300 250;
#X restore 24 134 pd 2bangs;
#N canvas 0 0 450 300 2bangs 0;
#X obj 158 67 == 1;
#X obj 203 69 == 1;
#X obj 205 98 t b f;
#X obj 189 129 +;
#X floatatom 189 154 5 0 0 0 - - -;
#X obj 190 177 sel 2 1 0;
#X msg 219 214 0;
#X msg 252 216 0;
#X msg 184 214 1;
#X obj 159 36 inlet;
#X obj 208 39 inlet;
#X obj 185 250 outlet;
#X obj 302 253 tgl 15 0 empty empty empty 17 7 0 10 -262144 -1 -1 0
1;
#X connect 0 0 3 0;
#X connect 1 0 2 0;
#X connect 2 0 3 0;
#X connect 2 1 3 1;
#X connect 3 0 4 0;
#X connect 4 0 5 0;
#X connect 5 0 8 0;
#X connect 5 1 6 0;
#X connect 5 2 7 0;
#X connect 6 0 11 0;
#X connect 6 0 12 0;
#X connect 7 0 11 0;
#X connect 7 0 12 0;
#X connect 8 0 11 0;
#X connect 8 0 12 0;
#X connect 9 0 0 0;
#X connect 10 0 1 0;
#X coords 0 -1 1 1 20 20 1 300 250;
#X restore 136 133 pd 2bangs;
#N canvas 0 0 450 300 2bangs 0;
#X obj 158 67 == 1;
#X obj 203 69 == 1;
#X obj 205 98 t b f;
#X obj 189 129 +;
#X floatatom 189 154 5 0 0 0 - - -;
#X obj 190 177 sel 2 1 0;
#X msg 219 214 0;
#X msg 252 216 0;
#X msg 184 214 1;
#X obj 159 36 inlet;
#X obj 208 39 inlet;
#X obj 185 250 outlet;
#X obj 302 253 tgl 15 0 empty empty empty 17 7 0 10 -262144 -1 -1 0
1;
#X connect 0 0 3 0;
#X connect 1 0 2 0;
#X connect 2 0 3 0;
#X connect 2 1 3 1;
#X connect 3 0 4 0;
#X connect 4 0 5 0;
#X connect 5 0 8 0;
#X connect 5 1 6 0;
#X connect 5 2 7 0;
#X connect 6 0 11 0;
#X connect 6 0 12 0;
#X connect 7 0 11 0;
#X connect 7 0 12 0;
#X connect 8 0 11 0;
#X connect 8 0 12 0;
#X connect 9 0 0 0;
#X connect 10 0 1 0;
#X coords 0 -1 1 1 20 20 1 300 250;
#X restore 31 70 pd 2bangs;
#N canvas 0 0 450 300 2bangs 0;
#X obj 158 67 == 1;
#X obj 203 69 == 1;
#X obj 205 98 t b f;
#X obj 189 129 +;
#X floatatom 189 154 5 0 0 0 - - -;
#X obj 190 177 sel 2 1 0;
#X msg 219 214 0;
#X msg 252 216 0;
#X msg 184 214 1;
#X obj 159 36 inlet;
#X obj 208 39 inlet;
#X obj 185 250 outlet;
#X obj 302 253 tgl 15 0 empty empty empty 17 7 0 10 -262144 -1 -1 0
1;
#X connect 0 0 3 0;
#X connect 1 0 2 0;
#X connect 2 0 3 0;
#X connect 2 1 3 1;
#X connect 3 0 4 0;
#X connect 4 0 5 0;
#X connect 5 0 8 0;
#X connect 5 1 6 0;
#X connect 5 2 7 0;
#X connect 6 0 11 0;
#X connect 6 0 12 0;
#X connect 7 0 11 0;
#X connect 7 0 12 0;
#X connect 8 0 11 0;
#X connect 8 0 12 0;
#X connect 9 0 0 0;
#X connect 10 0 1 0;
#X coords 0 -1 1 1 20 20 1 300 250;
#X restore 144 71 pd 2bangs;
#X connect 0 0 30 0;
#X connect 1 0 30 1;
#X connect 2 0 31 0;
#X connect 3 0 31 1;
#X connect 4 0 32 0;
#X connect 5 0 32 1;
#X connect 6 0 33 0;
#X connect 7 0 33 1;
#X connect 8 0 34 0;
#X connect 9 0 36 0;
#X connect 10 0 38 0;
#X connect 11 0 35 0;
#X connect 12 0 37 0;
#X connect 13 0 39 0;
#X connect 14 0 34 1;
#X connect 15 0 35 1;
#X connect 16 0 37 1;
#X connect 17 0 36 1;
#X connect 18 0 38 1;
#X connect 19 0 39 1;
#X connect 30 0 20 0;
#X connect 31 0 21 0;
#X connect 32 0 22 0;
#X connect 33 0 26 0;
#X connect 34 0 23 0;
#X connect 35 0 27 0;
#X connect 36 0 24 0;
#X connect 37 0 28 0;
#X connect 38 0 25 0;
#X connect 39 0 29 0;
#X restore 727 526 pd range storage;
#X obj 122 137 s \$0-r;
#X obj 166 137 s \$0-g;
#X obj 206 137 s \$0-b;
#X floatatom 230 78 5 0 0 0 - - -;
#X obj 174 83 * 127;
#X obj 222 160 r \$0-gz;
#X obj 851 17 s \$0-fkey;
#X obj 850 -5 r fkey12;
#X obj 6 330 s 12x3x;
#X obj 43 330 s 12x3y;
#X obj 123 330 s 12x3z;
#X obj 319 205 s 12gx;
#X obj 318 224 s 12gy;
#X obj 318 243 s 12gz;
#X connect 3 0 14 0;
#X connect 4 0 15 0;
#X connect 5 0 0 0;
#X connect 5 0 58 0;
#X connect 5 0 19 0;
#X connect 5 0 109 0;
#X connect 5 1 1 0;
#X connect 5 1 20 0;
#X connect 5 1 59 0;
#X connect 5 1 110 0;
#X connect 6 0 5 0;
#X connect 7 0 6 0;
#X connect 8 0 3 0;
#X connect 8 0 101 0;
#X connect 8 1 4 0;
#X connect 8 1 102 0;
#X connect 8 2 104 0;
#X connect 8 2 105 0;
#X connect 8 2 103 0;
#X connect 9 0 8 0;
#X connect 10 0 2 0;
#X connect 10 0 22 0;
#X connect 12 0 9 1;
#X connect 13 0 17 0;
#X connect 14 0 7 0;
#X connect 15 0 7 1;
#X connect 16 0 10 0;
#X connect 17 0 9 0;
#X connect 18 0 17 1;
#X connect 18 0 21 0;
#X connect 19 0 61 0;
#X connect 20 0 62 0;
#X connect 22 0 111 0;
#X connect 23 0 11 0;
#X connect 23 0 60 0;
#X connect 23 0 111 0;
#X connect 25 0 24 0;
#X connect 26 0 27 0;
#X connect 28 0 81 0;
#X connect 29 0 81 1;
#X connect 30 0 82 0;
#X connect 31 0 82 1;
#X connect 32 0 83 0;
#X connect 33 0 83 1;
#X connect 34 0 84 0;
#X connect 35 0 84 1;
#X connect 36 0 85 0;
#X connect 37 0 85 1;
#X connect 38 0 86 0;
#X connect 39 0 86 1;
#X connect 40 0 87 0;
#X connect 41 0 90 0;
#X connect 42 0 93 0;
#X connect 43 0 88 0;
#X connect 44 0 91 0;
#X connect 45 0 94 0;
#X connect 46 0 89 0;
#X connect 47 0 92 0;
#X connect 48 0 95 0;
#X connect 49 0 87 1;
#X connect 50 0 88 1;
#X connect 51 0 89 1;
#X connect 52 0 92 1;
#X connect 53 0 91 1;
#X connect 54 0 90 1;
#X connect 55 0 93 1;
#X connect 56 0 94 1;
#X connect 57 0 95 1;
#X connect 81 0 64 0;
#X connect 82 0 65 0;
#X connect 83 0 66 0;
#X connect 84 0 67 0;
#X connect 85 0 71 0;
#X connect 86 0 75 0;
#X connect 87 0 68 0;
#X connect 88 0 72 0;
#X connect 89 0 76 0;
#X connect 90 0 69 0;
#X connect 91 0 73 0;
#X connect 92 0 77 0;
#X connect 93 0 70 0;
#X connect 94 0 74 0;
#X connect 95 0 78 0;
#X connect 96 0 97 0;
#X connect 96 0 112 0;
#X connect 98 0 99 0;
#X connect 98 0 113 0;
#X connect 105 0 16 0;
#X connect 106 0 114 0;
#X connect 108 0 107 0;
#X coords 0 -1 1 1 160 120 1 0 205;
