#N canvas 0 0 1024 716 10;
#X floatatom 327 283 5 0 0 0 - - -;
#X floatatom 197 337 5 0 0 0 - - -;
#X floatatom 390 315 5 0 0 0 - - -;
#X obj 74 83 * 127;
#X obj 120 82 * 127;
#X obj 65 212 grid grid2 85 1 127 85 1 127 1 1 1 1 5 191 35;
#X msg 56 175 goto \$1 \$2;
#X obj 56 138 pack 1 1;
#X obj 89 51 unpack f f f;
#X obj 87 27 spigot;
#X obj 372 201 vsl 15 127 1 127 0 0 empty empty empty 0 -9 0 10 -262144
-1 -1 0 1;
#X floatatom 117 381 5 0 0 0 - - -;
#X obj 153 3 inlet;
#X obj 87 -39 r xlrmtr1;
#N canvas 0 0 303 384 rangex 0;
#X obj 106 72 clip 36 96;
#X floatatom 107 102 5 0 0 0 - - -;
#X obj 107 124 - 36;
#X floatatom 108 151 5 0 0 0 - - -;
#X floatatom 109 224 5 0 0 0 - - -;
#X obj 109 196 int;
#X obj 108 176 * 2.2;
#X obj 109 247 clip 0 127;
#X floatatom 112 280 5 0 0 0 - - -;
#X text 146 100 range multiplier;
#X obj 107 40 inlet;
#X obj 115 317 outlet;
#X connect 0 0 1 0;
#X connect 1 0 2 0;
#X connect 2 0 3 0;
#X connect 3 0 6 0;
#X connect 4 0 7 0;
#X connect 5 0 4 0;
#X connect 6 0 5 0;
#X connect 7 0 8 0;
#X connect 8 0 11 0;
#X connect 10 0 0 0;
#X restore 47 109 pd rangex;
#N canvas 0 0 303 384 rangex 0;
#X obj 106 72 clip 36 96;
#X floatatom 107 102 5 0 0 0 - - -;
#X obj 107 124 - 36;
#X floatatom 108 151 5 0 0 0 - - -;
#X floatatom 109 224 5 0 0 0 - - -;
#X obj 109 196 int;
#X obj 108 176 * 2.2;
#X obj 109 247 clip 0 127;
#X floatatom 112 280 5 0 0 0 - - -;
#X text 146 100 range multiplier;
#X obj 107 40 inlet;
#X obj 115 317 outlet;
#X connect 0 0 1 0;
#X connect 1 0 2 0;
#X connect 2 0 3 0;
#X connect 3 0 6 0;
#X connect 4 0 7 0;
#X connect 5 0 4 0;
#X connect 6 0 5 0;
#X connect 7 0 8 0;
#X connect 8 0 11 0;
#X connect 10 0 0 0;
#X restore 113 109 pd rangex;
#N canvas 1265 221 303 384 rangex 0;
#X obj 106 72 clip 36 96;
#X floatatom 107 102 5 0 0 0 - - -;
#X obj 107 124 - 36;
#X floatatom 108 151 5 0 0 0 - - -;
#X floatatom 109 224 5 0 0 0 - - -;
#X obj 109 196 int;
#X obj 108 176 * 2.2;
#X obj 109 247 clip 0 127;
#X floatatom 112 280 5 0 0 0 - - -;
#X text 146 100 range multiplier;
#X obj 107 40 inlet;
#X obj 115 317 outlet;
#X connect 0 0 1 0;
#X connect 1 0 2 0;
#X connect 2 0 3 0;
#X connect 3 0 6 0;
#X connect 4 0 7 0;
#X connect 5 0 4 0;
#X connect 6 0 5 0;
#X connect 7 0 8 0;
#X connect 8 0 11 0;
#X connect 10 0 0 0;
#X restore 186 110 pd rangex;
#X obj 89 -8 spigot;
#X obj 153 -37 r stop1;
#N canvas 0 0 1016 648 xaxisswitches 0;
#X msg 994 179 0;
#X obj 39 298 cnv 15 300 250 empty empty empty 20 12 0 14 -257985 -66577
0;
#X obj 121 482 loadbang;
#X obj 48 570 text3d;
#X msg 91 570 font /home/onyx/beatjazzdir/vera.ttf;
#X obj 52 397 gemhead;
#X msg 46 368 1;
#X msg 83 368 0;
#X obj 52 333 sel 1 0;
#X obj 50 545 colorRGB;
#X obj 50 418 translateXYZ -2.5 0.4 0;
#X msg 129 501 3;
#X obj 95 169 loadbang;
#X obj 36 257 text3d;
#X msg 79 257 font /home/onyx/beatjazzdir/vera.ttf;
#X obj 38 129 gemhead;
#X msg 32 100 1;
#X msg 69 100 0;
#X obj 38 65 sel 1 0;
#X obj 36 234 colorRGB;
#X msg 103 188 3;
#X obj 125 83 / 127;
#X obj 122 62 average 10;
#X obj 125 105 + 0.25;
#X obj 125 127 clip 0.65 1.15;
#X obj 227 526 r \$0-xptext;
#X obj 174 232 r \$0-yaxisnumupdate;
#X obj 49 458 spigot;
#X obj 35 201 spigot;
#X obj 63 437 r \$0-gcut;
#X obj 35 170 r \$0-gcut;
#X obj 42 477 r \$0-preset0;
#X obj 47 523 spigot;
#X obj 121 41 r \$0-gy;
#X obj 180 525 r \$0-b;
#X obj 179 506 r \$0-g;
#X obj 178 487 r \$0-r;
#X obj 130 231 r \$0-b;
#X obj 130 211 r \$0-g;
#X obj 131 191 r \$0-r;
#X msg 479 186 1;
#X msg 511 186 0;
#X obj 457 213 change;
#X floatatom 389 124 5 0 127 0 - - -;
#X obj 407 352 tgl 15 0 empty empty empty 17 7 0 10 -262144 -1 -1 1
1;
#X obj 388 74 inlet;
#X obj 392 456 spigot;
#X floatatom 397 521 5 0 0 0 - - -;
#X obj 396 499 int;
#X msg 396 541 text \$1;
#X obj 393 478 average 10;
#X msg 438 409 text .;
#X obj 384 409 sel 0 1;
#X obj 356 571 s \$0-yaxisnumupdate;
#X obj 456 232 == 1;
#X obj 526 296 s \$0-xptext;
#X obj 360 592 outlet;
#X obj 388 435 r \$0-gy;
#X msg 443 180 0;
#X obj 388 99 average 5;
#X obj 454 252 s \$0-xpara4;
#X obj 524 273 r xp4;
#X obj 425 300 r \$0-xpara4;
#X obj 36 150 translateXYZ -1.2 0.4 0;
#X obj 428 320 s xparam4;
#X obj 44 500 == 2;
#X obj 38 39 r \$0-fkey;
#X obj 56 307 r \$0-fkey;
#X obj 391 148 moses 1;
#X obj 465 146 moses 125;
#X connect 2 0 4 0;
#X connect 2 0 11 0;
#X connect 4 0 3 0;
#X connect 5 0 10 0;
#X connect 6 0 5 0;
#X connect 7 0 5 0;
#X connect 8 0 6 0;
#X connect 8 1 7 0;
#X connect 9 0 3 0;
#X connect 10 0 27 0;
#X connect 11 0 3 1;
#X connect 12 0 14 0;
#X connect 12 0 20 0;
#X connect 14 0 13 0;
#X connect 15 0 63 0;
#X connect 16 0 15 0;
#X connect 17 0 15 0;
#X connect 18 0 16 0;
#X connect 18 1 17 0;
#X connect 19 0 13 0;
#X connect 20 0 13 1;
#X connect 21 0 23 0;
#X connect 22 0 21 0;
#X connect 23 0 24 0;
#X connect 24 0 63 2;
#X connect 25 0 3 0;
#X connect 26 0 13 0;
#X connect 27 0 32 0;
#X connect 28 0 19 0;
#X connect 29 0 27 1;
#X connect 30 0 28 1;
#X connect 31 0 65 0;
#X connect 32 0 9 0;
#X connect 33 0 22 0;
#X connect 34 0 9 3;
#X connect 35 0 9 2;
#X connect 36 0 9 1;
#X connect 37 0 19 3;
#X connect 38 0 19 2;
#X connect 39 0 19 1;
#X connect 40 0 42 0;
#X connect 41 0 42 0;
#X connect 42 0 44 0;
#X connect 42 0 54 0;
#X connect 43 0 68 0;
#X connect 44 0 46 1;
#X connect 44 0 52 0;
#X connect 44 0 56 0;
#X connect 45 0 59 0;
#X connect 46 0 50 0;
#X connect 47 0 49 0;
#X connect 48 0 47 0;
#X connect 49 0 53 0;
#X connect 50 0 48 0;
#X connect 51 0 53 0;
#X connect 52 0 51 0;
#X connect 54 0 60 0;
#X connect 57 0 46 0;
#X connect 58 0 42 0;
#X connect 59 0 43 0;
#X connect 61 0 55 0;
#X connect 62 0 64 0;
#X connect 63 0 28 0;
#X connect 65 0 32 1;
#X connect 66 0 18 0;
#X connect 67 0 8 0;
#X connect 68 0 58 0;
#X connect 68 1 69 0;
#X connect 69 0 40 0;
#X connect 69 1 41 0;
#X coords 0 -1 1 1 60 20 2 400 350;
#X restore 5 302 pd xaxisswitches;
#N canvas 0 0 1024 716 yaxisswitches 0;
#X msg 292 18 0;
#X obj 4 -91 cnv 15 300 250 empty empty empty 20 12 0 14 -257985 -66577
0;
#X obj 118 125 loadbang;
#X obj 16 211 text3d;
#X msg 59 211 font /home/onyx/beatjazzdir/vera.ttf;
#X obj 17 8 gemhead;
#X msg 16 -14 1;
#X msg 53 -14 0;
#X obj 14 -35 sel 1 0;
#X obj 15 188 colorRGB;
#X msg 126 144 3;
#X obj 60 462 loadbang;
#X obj 36 549 text3d;
#X msg 79 549 font /home/onyx/beatjazzdir/vera.ttf;
#X obj 38 371 gemhead;
#X msg 38 341 1;
#X msg 69 342 0;
#X obj 38 320 sel 1 0;
#X obj 35 526 colorRGB;
#X msg 68 481 3;
#X obj 99 322 / 127;
#X floatatom 123 343 5 0 0 0 - - -;
#X obj 100 301 average 5;
#X obj 99 342 - 2;
#X obj 99 366 clip -1.51 -1;
#X obj 115 522 r \$0-xaxisnumupdate;
#X obj 140 167 r \$0-yptext;
#X obj 35 437 spigot;
#X obj 17 73 spigot;
#X obj 55 48 r \$0-gcut;
#X obj 68 415 r \$0-gcut;
#X obj 15 29 translateXYZ -1.3 1.4 0;
#X obj 48 85 r \$0-preset0;
#X obj 16 141 spigot;
#X obj 7 165 r \$0-r;
#X obj 48 166 r \$0-g;
#X obj 96 166 r \$0-b;
#X obj 117 502 r \$0-b;
#X obj 116 482 r \$0-g;
#X obj 116 462 r \$0-r;
#X obj 101 282 r \$0-gx;
#X obj 36 392 translateXYZ -4.5 1.8 0;
#X obj 13 -58 r \$0-fkey;
#X obj 38 299 r \$0-fkey;
#X obj 50 108 == 2;
#X msg 402 14 0;
#X msg 434 14 1;
#X msg 466 14 0;
#X obj 406 38 change;
#X floatatom 347 -8 5 0 127 0 - - -;
#X msg 542 17 1;
#X obj 603 -28 moses 80;
#X msg 514 18 0;
#X msg 640 18 1;
#X obj 516 41 change;
#X msg 572 17 0;
#X obj 614 42 change;
#X msg 610 18 0;
#X msg 670 19 0;
#X obj 700 -29 moses 100;
#X msg 749 18 1;
#X msg 720 19 0;
#X msg 776 18 0;
#X obj 721 43 change;
#X msg 848 19 1;
#X msg 819 20 0;
#X msg 875 19 0;
#X obj 820 45 change;
#X obj 322 218 tgl 15 0 empty empty empty 17 7 0 10 -262144 -1 -1 0
1;
#X obj 322 235 tgl 15 0 empty empty empty 17 7 0 10 -262144 -1 -1 0
1;
#X obj 323 252 tgl 15 0 empty empty empty 17 7 0 10 -262144 -1 -1 0
1;
#X obj 323 268 tgl 15 0 empty empty empty 17 7 0 10 -262144 -1 -1 0
1;
#X obj 322 203 tgl 15 0 empty empty empty 17 7 0 10 -262144 -1 -1 1
1;
#X obj 346 -28 average 5;
#X obj 345 -48 inlet;
#X obj 419 -30 moses 30;
#X obj 484 239 spigot;
#X obj 582 240 spigot;
#X floatatom 486 307 5 0 0 0 - - -;
#X msg 487 329 text \$1;
#X floatatom 588 312 5 0 0 0 - - -;
#X msg 586 331 text \$1;
#X obj 485 287 int;
#X obj 585 292 int;
#X obj 482 268 average 10;
#X obj 583 265 average 10;
#X obj 687 241 spigot;
#X obj 789 246 spigot;
#X floatatom 689 309 5 0 0 0 - - -;
#X msg 690 331 text \$1;
#X floatatom 795 318 5 0 0 0 - - -;
#X msg 793 337 text \$1;
#X obj 688 289 int;
#X obj 792 298 int;
#X obj 685 270 average 10;
#X obj 789 274 average 10;
#X obj 380 238 spigot;
#X floatatom 386 310 5 0 0 0 - - -;
#X msg 384 329 text \$1;
#X obj 383 290 int;
#X obj 380 266 average 10;
#X obj 858 386 s \$0-xaxisnumupdate;
#X obj 725 391 s \$0-xaxisnumupdate;
#X obj 577 392 s \$0-xaxisnumupdate;
#X obj 452 393 s \$0-xaxisnumupdate;
#X obj 324 393 s \$0-xaxisnumupdate;
#X msg 397 361 text .;
#X msg 492 362 text .;
#X msg 608 363 text .;
#X msg 755 363 text .;
#X msg 868 358 text .;
#X obj 343 361 sel 0 1;
#X obj 441 360 sel 0 1;
#X obj 555 362 sel 0 1;
#X obj 702 359 sel 0 1;
#X obj 812 359 sel 0 1;
#X obj 516 61 == 1;
#X obj 409 58 == 1;
#X obj 615 61 == 1;
#X obj 721 62 == 1;
#X obj 820 64 == 1;
#X obj 821 122 s \$0-yptext;
#X obj 721 120 s \$0-yptext;
#X obj 614 119 s \$0-yptext;
#X obj 517 118 s \$0-yptext;
#X obj 410 115 s \$0-yptext;
#X obj 347 12 moses 3;
#X obj 513 -27 moses 55;
#X obj 392 425 outlet;
#X obj 505 428 outlet;
#X obj 615 430 outlet;
#X obj 720 430 outlet;
#X obj 825 434 outlet;
#X obj 380 217 r \$0-gx;
#X obj 483 218 r \$0-gx;
#X obj 582 219 r \$0-gx;
#X obj 686 220 r \$0-gx;
#X obj 789 225 r \$0-gx;
#X obj 798 -30 moses 125;
#X obj 409 77 s \$0-ypara6;
#X obj 411 96 r yp6;
#X obj 411 148 r \$0-ypara6;
#X obj 411 167 s yparam6;
#X obj 518 166 s yparam7;
#X obj 518 146 r \$0-ypara7;
#X obj 516 99 r yp7;
#X obj 517 80 s \$0-ypara7;
#X obj 614 80 s \$0-ypara8;
#X obj 615 100 r yp8;
#X obj 615 147 r \$0-ypara8;
#X obj 614 166 s yparam8;
#X obj 724 169 s yparam9;
#X obj 722 149 r \$0-ypara9;
#X obj 719 100 r yp9;
#X obj 721 81 s \$0-ypara9;
#X obj 821 83 s \$0-ypara10;
#X obj 819 103 r yp10;
#X obj 821 150 r \$0-ypara10;
#X obj 823 170 s yparam10;
#X connect 2 0 4 0;
#X connect 2 0 10 0;
#X connect 4 0 3 0;
#X connect 5 0 31 0;
#X connect 6 0 5 0;
#X connect 7 0 5 0;
#X connect 8 0 6 0;
#X connect 8 1 7 0;
#X connect 9 0 3 0;
#X connect 10 0 3 1;
#X connect 11 0 13 0;
#X connect 11 0 19 0;
#X connect 13 0 12 0;
#X connect 14 0 41 0;
#X connect 15 0 14 0;
#X connect 16 0 14 0;
#X connect 17 0 15 0;
#X connect 17 1 16 0;
#X connect 18 0 12 0;
#X connect 19 0 12 1;
#X connect 20 0 23 0;
#X connect 22 0 20 0;
#X connect 23 0 21 0;
#X connect 23 0 24 0;
#X connect 24 0 41 1;
#X connect 25 0 12 0;
#X connect 26 0 3 0;
#X connect 27 0 18 0;
#X connect 28 0 33 0;
#X connect 29 0 28 1;
#X connect 30 0 27 1;
#X connect 31 0 28 0;
#X connect 32 0 44 0;
#X connect 33 0 9 0;
#X connect 34 0 9 1;
#X connect 35 0 9 2;
#X connect 36 0 9 3;
#X connect 37 0 18 3;
#X connect 38 0 18 2;
#X connect 39 0 18 1;
#X connect 40 0 22 0;
#X connect 41 0 27 0;
#X connect 42 0 8 0;
#X connect 43 0 17 0;
#X connect 44 0 33 1;
#X connect 45 0 48 0;
#X connect 46 0 48 0;
#X connect 47 0 48 0;
#X connect 48 0 71 0;
#X connect 48 0 96 1;
#X connect 48 0 117 0;
#X connect 49 0 126 0;
#X connect 50 0 54 0;
#X connect 51 0 53 0;
#X connect 51 0 61 0;
#X connect 51 1 58 0;
#X connect 51 1 59 0;
#X connect 52 0 54 0;
#X connect 53 0 56 0;
#X connect 54 0 70 0;
#X connect 54 0 76 1;
#X connect 54 0 116 0;
#X connect 55 0 54 0;
#X connect 56 0 69 0;
#X connect 56 0 77 1;
#X connect 56 0 118 0;
#X connect 57 0 56 0;
#X connect 58 0 56 0;
#X connect 59 0 60 0;
#X connect 59 0 65 0;
#X connect 59 1 62 0;
#X connect 59 1 138 0;
#X connect 60 0 63 0;
#X connect 61 0 63 0;
#X connect 62 0 63 0;
#X connect 63 0 68 0;
#X connect 63 0 86 1;
#X connect 63 0 119 0;
#X connect 64 0 67 0;
#X connect 65 0 67 0;
#X connect 66 0 67 0;
#X connect 67 0 72 0;
#X connect 67 0 87 1;
#X connect 67 0 120 0;
#X connect 68 0 114 0;
#X connect 68 0 131 0;
#X connect 69 0 113 0;
#X connect 69 0 130 0;
#X connect 70 0 112 0;
#X connect 70 0 129 0;
#X connect 71 0 111 0;
#X connect 71 0 128 0;
#X connect 72 0 115 0;
#X connect 72 0 132 0;
#X connect 73 0 49 0;
#X connect 74 0 73 0;
#X connect 75 0 52 0;
#X connect 75 0 46 0;
#X connect 75 1 47 0;
#X connect 75 1 127 0;
#X connect 76 0 84 0;
#X connect 77 0 85 0;
#X connect 78 0 79 0;
#X connect 79 0 104 0;
#X connect 80 0 81 0;
#X connect 81 0 103 0;
#X connect 82 0 78 0;
#X connect 83 0 80 0;
#X connect 84 0 82 0;
#X connect 85 0 83 0;
#X connect 86 0 94 0;
#X connect 87 0 95 0;
#X connect 88 0 89 0;
#X connect 89 0 102 0;
#X connect 90 0 91 0;
#X connect 91 0 101 0;
#X connect 92 0 88 0;
#X connect 93 0 90 0;
#X connect 94 0 92 0;
#X connect 95 0 93 0;
#X connect 96 0 100 0;
#X connect 97 0 98 0;
#X connect 98 0 105 0;
#X connect 99 0 97 0;
#X connect 100 0 99 0;
#X connect 106 0 105 0;
#X connect 107 0 104 0;
#X connect 108 0 103 0;
#X connect 109 0 102 0;
#X connect 110 0 101 0;
#X connect 111 0 106 0;
#X connect 112 0 107 0;
#X connect 113 0 108 0;
#X connect 114 0 109 0;
#X connect 115 0 110 0;
#X connect 116 0 146 0;
#X connect 117 0 139 0;
#X connect 118 0 147 0;
#X connect 119 0 154 0;
#X connect 120 0 155 0;
#X connect 126 0 45 0;
#X connect 126 1 75 0;
#X connect 127 0 50 0;
#X connect 127 0 57 0;
#X connect 127 1 51 0;
#X connect 127 1 55 0;
#X connect 133 0 96 0;
#X connect 134 0 76 0;
#X connect 135 0 77 0;
#X connect 136 0 86 0;
#X connect 137 0 87 0;
#X connect 138 0 64 0;
#X connect 138 1 66 0;
#X connect 140 0 125 0;
#X connect 141 0 142 0;
#X connect 144 0 143 0;
#X connect 145 0 124 0;
#X connect 148 0 123 0;
#X connect 149 0 150 0;
#X connect 152 0 151 0;
#X connect 153 0 122 0;
#X connect 156 0 121 0;
#X connect 157 0 158 0;
#X coords 0 -1 1 1 60 85 2 300 200;
#X restore 3 212 pd yaxisswitches;
#X floatatom 230 16 5 0 0 0 - - -;
#N canvas 1591 216 463 496 z 0;
#X text 116 139 chnl#16;
#X floatatom 224 123 5 0 0 0 - - -;
#X obj 175 172 t b b;
#X obj 175 200 f;
#X obj 175 223 + 1;
#X obj 123 103 tgl 15 0 empty empty empty 17 7 0 10 -262144 -1 -1 0
1;
#X floatatom 143 124 5 0 0 0 - - -;
#X msg 202 200 1;
#X obj 103 103 bng 15 250 50 0 empty empty empty 17 7 0 10 -262144
-1 -1;
#X obj 122 187 outlet;
#X obj 175 147 delay 500;
#X obj 124 51 inlet zflip in;
#X obj 183 101 s moseszflip;
#X floatatom 107 333 5 0 0 0 - - -;
#X obj 176 123 sel 127;
#X obj 125 76 moses 120;
#X connect 2 0 3 0;
#X connect 2 1 7 0;
#X connect 3 0 4 0;
#X connect 4 0 8 0;
#X connect 5 0 9 0;
#X connect 7 0 3 1;
#X connect 8 0 5 0;
#X connect 10 0 2 0;
#X connect 11 0 15 0;
#X connect 14 0 6 0;
#X connect 14 0 10 0;
#X connect 14 1 1 0;
#X connect 15 0 12 0;
#X connect 15 1 14 0;
#X coords 0 -1 1 1 40 20 2 100 100;
#X restore 108 302 pd z flip switch;
#X obj 114 359 r moseszflip;
#X obj 274 0 inlet;
#X obj 341 0 r preset;
#X obj 341 22 s \$0-preset0;
#X obj 593 452 r \$0-gx1;
#X obj 647 453 r \$0-gy1;
#X obj 592 392 r \$0-gx1;
#X obj 647 392 r \$0-gy2;
#X obj 593 332 r \$0-gx1;
#X obj 591 271 r \$0-gx1;
#X obj 594 201 r \$0-gx1;
#X obj 648 332 r \$0-gy3;
#X obj 646 271 r \$0-gy4;
#X obj 649 201 r \$0-gy5;
#X obj -6 404 s \$0-gx;
#X obj 55 402 s \$0-gy;
#X obj 109 402 s \$0-gz;
#X obj -6 425 s \$0-gx1;
#X obj 261 462 s \$0-gy1;
#X obj 258 437 s \$0-gy2;
#X obj 260 412 s \$0-gy3;
#X obj 257 385 s \$0-gy4;
#X obj 257 359 s \$0-gy5;
#X text 520 22 create an abstraction to create the viz graphics from
the data points below.;
#N canvas 1178 121 642 469 grid 0;
#X obj 26 271 r \$0-1-1;
#X obj 26 210 r \$0-1-2;
#X obj 26 148 r \$0-1-3;
#X obj 26 89 r \$0-1-4;
#X obj 26 28 r \$0-1-5;
#X obj 133 24 r \$0-2-5;
#X obj 133 86 r \$0-2-4;
#X obj 136 148 r \$0-2-3;
#X obj 139 208 r \$0-2-2;
#X obj 137 270 r \$0-2-1;
#X obj 250 271 r \$0-3-1;
#X obj 250 208 r \$0-3-2;
#X obj 246 148 r \$0-3-3;
#X obj 247 88 r \$0-3-4;
#X obj 248 26 r \$0-3-5;
#X obj 355 28 r \$0-4-5;
#X obj 355 88 r \$0-4-4;
#X obj 358 148 r \$0-4-3;
#X obj 362 210 r \$0-4-2;
#X obj 364 272 r \$0-4-1;
#X obj 474 273 r \$0-5-1;
#X obj 470 210 r \$0-5-2;
#X obj 471 148 r \$0-5-3;
#X obj 469 87 r \$0-5-4;
#X obj 466 26 r \$0-5-5;
#X restore 406 -3 pd grid parameters;
#N canvas 0 0 684 417 grid 0;
#X obj 36 281 r \$0-1-1;
#X obj 36 220 r \$0-1-2;
#X obj 36 158 r \$0-1-3;
#X obj 36 99 r \$0-1-4;
#X obj 36 38 r \$0-1-5;
#X obj 143 34 r \$0-2-5;
#X obj 143 96 r \$0-2-4;
#X obj 146 158 r \$0-2-3;
#X obj 149 218 r \$0-2-2;
#X obj 147 280 r \$0-2-1;
#X obj 260 281 r \$0-3-1;
#X obj 260 218 r \$0-3-2;
#X obj 256 158 r \$0-3-3;
#X obj 257 98 r \$0-3-4;
#X obj 258 36 r \$0-3-5;
#X obj 365 38 r \$0-4-5;
#X obj 365 98 r \$0-4-4;
#X obj 368 158 r \$0-4-3;
#X obj 372 220 r \$0-4-2;
#X obj 374 282 r \$0-4-1;
#X obj 484 283 r \$0-5-1;
#X obj 480 220 r \$0-5-2;
#X obj 481 158 r \$0-5-3;
#X obj 479 97 r \$0-5-4;
#X obj 476 36 r \$0-5-5;
#X restore 526 -2 pd grid viz;
#N canvas 0 0 450 300 2bangs 0;
#X obj 158 67 == 1;
#X obj 203 69 == 1;
#X obj 205 98 t b f;
#X obj 189 129 +;
#X floatatom 189 154 5 0 0 0 - - -;
#X obj 190 177 sel 2 1 0;
#X msg 219 214 0;
#X msg 252 216 0;
#X msg 184 214 1;
#X obj 159 36 inlet;
#X obj 208 39 inlet;
#X obj 185 250 outlet;
#X obj 302 253 tgl 15 0 empty empty empty 17 7 0 10 -262144 -1 -1 0
1;
#X connect 0 0 3 0;
#X connect 1 0 2 0;
#X connect 2 0 3 0;
#X connect 2 1 3 1;
#X connect 3 0 4 0;
#X connect 4 0 5 0;
#X connect 5 0 8 0;
#X connect 5 1 6 0;
#X connect 5 2 7 0;
#X connect 6 0 11 0;
#X connect 6 0 12 0;
#X connect 7 0 11 0;
#X connect 7 0 12 0;
#X connect 8 0 11 0;
#X connect 8 0 12 0;
#X connect 9 0 0 0;
#X connect 10 0 1 0;
#X coords 0 -1 1 1 20 20 1 300 250;
#X restore 594 472 pd 2bangs;
#N canvas 0 0 450 300 2bangs 0;
#X obj 158 67 == 1;
#X obj 203 69 == 1;
#X obj 205 98 t b f;
#X obj 189 129 +;
#X floatatom 189 154 5 0 0 0 - - -;
#X obj 190 177 sel 2 1 0;
#X msg 219 214 0;
#X msg 252 216 0;
#X msg 184 214 1;
#X obj 159 36 inlet;
#X obj 208 39 inlet;
#X obj 185 250 outlet;
#X obj 302 253 tgl 15 0 empty empty empty 17 7 0 10 -262144 -1 -1 0
1;
#X connect 0 0 3 0;
#X connect 1 0 2 0;
#X connect 2 0 3 0;
#X connect 2 1 3 1;
#X connect 3 0 4 0;
#X connect 4 0 5 0;
#X connect 5 0 8 0;
#X connect 5 1 6 0;
#X connect 5 2 7 0;
#X connect 6 0 11 0;
#X connect 6 0 12 0;
#X connect 7 0 11 0;
#X connect 7 0 12 0;
#X connect 8 0 11 0;
#X connect 8 0 12 0;
#X connect 9 0 0 0;
#X connect 10 0 1 0;
#X coords 0 -1 1 1 20 20 1 300 250;
#X restore 593 412 pd 2bangs;
#N canvas 0 0 450 300 2bangs 0;
#X obj 158 67 == 1;
#X obj 203 69 == 1;
#X obj 205 98 t b f;
#X obj 189 129 +;
#X floatatom 189 154 5 0 0 0 - - -;
#X obj 190 177 sel 2 1 0;
#X msg 219 214 0;
#X msg 252 216 0;
#X msg 184 214 1;
#X obj 159 36 inlet;
#X obj 208 39 inlet;
#X obj 185 250 outlet;
#X obj 302 253 tgl 15 0 empty empty empty 17 7 0 10 -262144 -1 -1 0
1;
#X connect 0 0 3 0;
#X connect 1 0 2 0;
#X connect 2 0 3 0;
#X connect 2 1 3 1;
#X connect 3 0 4 0;
#X connect 4 0 5 0;
#X connect 5 0 8 0;
#X connect 5 1 6 0;
#X connect 5 2 7 0;
#X connect 6 0 11 0;
#X connect 6 0 12 0;
#X connect 7 0 11 0;
#X connect 7 0 12 0;
#X connect 8 0 11 0;
#X connect 8 0 12 0;
#X connect 9 0 0 0;
#X connect 10 0 1 0;
#X coords 0 -1 1 1 20 20 1 300 250;
#X restore 598 350 pd 2bangs;
#N canvas 0 0 450 300 2bangs 0;
#X obj 158 67 == 1;
#X obj 203 69 == 1;
#X obj 205 98 t b f;
#X obj 189 129 +;
#X floatatom 189 154 5 0 0 0 - - -;
#X obj 190 177 sel 2 1 0;
#X msg 219 214 0;
#X msg 252 216 0;
#X msg 184 214 1;
#X obj 159 36 inlet;
#X obj 208 39 inlet;
#X obj 185 250 outlet;
#X obj 302 253 tgl 15 0 empty empty empty 17 7 0 10 -262144 -1 -1 0
1;
#X connect 0 0 3 0;
#X connect 1 0 2 0;
#X connect 2 0 3 0;
#X connect 2 1 3 1;
#X connect 3 0 4 0;
#X connect 4 0 5 0;
#X connect 5 0 8 0;
#X connect 5 1 6 0;
#X connect 5 2 7 0;
#X connect 6 0 11 0;
#X connect 6 0 12 0;
#X connect 7 0 11 0;
#X connect 7 0 12 0;
#X connect 8 0 11 0;
#X connect 8 0 12 0;
#X connect 9 0 0 0;
#X connect 10 0 1 0;
#X coords 0 -1 1 1 20 20 1 300 250;
#X restore 593 290 pd 2bangs;
#N canvas 0 0 450 300 2bangs 0;
#X obj 158 67 == 1;
#X obj 203 69 == 1;
#X obj 205 98 t b f;
#X obj 189 129 +;
#X floatatom 189 154 5 0 0 0 - - -;
#X obj 190 177 sel 2 1 0;
#X msg 219 214 0;
#X msg 252 216 0;
#X msg 184 214 1;
#X obj 159 36 inlet;
#X obj 208 39 inlet;
#X obj 185 250 outlet;
#X obj 302 253 tgl 15 0 empty empty empty 17 7 0 10 -262144 -1 -1 1
1;
#X connect 0 0 3 0;
#X connect 1 0 2 0;
#X connect 2 0 3 0;
#X connect 2 1 3 1;
#X connect 3 0 4 0;
#X connect 4 0 5 0;
#X connect 5 0 8 0;
#X connect 5 1 6 0;
#X connect 5 2 7 0;
#X connect 6 0 11 0;
#X connect 6 0 12 0;
#X connect 7 0 11 0;
#X connect 7 0 12 0;
#X connect 8 0 11 0;
#X connect 8 0 12 0;
#X connect 9 0 0 0;
#X connect 10 0 1 0;
#X coords 0 -1 1 1 20 20 1 300 250;
#X restore 599 224 pd 2bangs;
#X obj 224 200 r \$0-gx;
#X obj 230 265 hsl 128 15 0 127 0 0 empty empty empty -2 -8 0 10 -262144
-1 -1 12700 1;
#X obj 223 181 r \$0-gy;
#X obj 207 202 vsl 15 128 0 127 0 0 empty empty empty 0 -9 0 10 -262144
-1 -1 12700 1;
#X floatatom 230 78 5 0 0 0 - - -;
#X obj 174 83 * 127;
#X obj 222 160 r \$0-gz;
#X obj 318 243 s 2gz;
#X obj 318 224 s 2gy;
#X obj 319 205 s 2gx;
#X obj 274 23 s \$0-gcut;
#X obj 116 135 s \$0-r;
#X obj 162 136 s \$0-g;
#X obj 206 136 s \$0-b;
#X obj 280 44 r fkey;
#X obj 282 72 s \$0-fkey;
#X obj 6 330 s 2x2x;
#X obj 43 330 s 2x2y;
#X obj 123 330 s 2x2z;
#X obj 596 495 s f2func1y;
#X obj 613 435 s f2func2y;
#X obj 613 373 s f2func3y;
#X obj 613 314 s f2func4y;
#X obj 605 247 s f2func5y;
#X connect 3 0 14 0;
#X connect 4 0 15 0;
#X connect 5 0 0 0;
#X connect 5 0 37 0;
#X connect 5 0 19 0;
#X connect 5 0 70 0;
#X connect 5 1 1 0;
#X connect 5 1 38 0;
#X connect 5 1 20 0;
#X connect 5 1 71 0;
#X connect 6 0 5 0;
#X connect 7 0 6 0;
#X connect 8 0 3 0;
#X connect 8 0 66 0;
#X connect 8 1 4 0;
#X connect 8 1 65 0;
#X connect 8 2 58 0;
#X connect 8 2 59 0;
#X connect 8 2 67 0;
#X connect 9 0 8 0;
#X connect 10 0 2 0;
#X connect 10 0 22 0;
#X connect 12 0 9 1;
#X connect 13 0 17 0;
#X connect 14 0 7 0;
#X connect 15 0 7 1;
#X connect 16 0 10 0;
#X connect 17 0 9 0;
#X connect 18 0 17 1;
#X connect 18 0 21 0;
#X connect 19 0 40 0;
#X connect 20 0 41 0;
#X connect 20 1 42 0;
#X connect 20 2 43 0;
#X connect 20 3 44 0;
#X connect 20 4 45 0;
#X connect 22 0 72 0;
#X connect 23 0 11 0;
#X connect 23 0 39 0;
#X connect 23 0 72 0;
#X connect 24 0 64 0;
#X connect 25 0 26 0;
#X connect 27 0 49 0;
#X connect 28 0 49 1;
#X connect 29 0 50 0;
#X connect 30 0 50 1;
#X connect 31 0 51 0;
#X connect 32 0 52 0;
#X connect 33 0 53 0;
#X connect 34 0 51 1;
#X connect 35 0 52 1;
#X connect 36 0 53 1;
#X connect 49 0 73 0;
#X connect 50 0 74 0;
#X connect 51 0 75 0;
#X connect 52 0 76 0;
#X connect 53 0 77 0;
#X connect 54 0 55 0;
#X connect 54 0 63 0;
#X connect 56 0 57 0;
#X connect 56 0 62 0;
#X connect 59 0 16 0;
#X connect 60 0 61 0;
#X connect 68 0 69 0;
#X coords 0 -1 1 1 160 120 1 0 205;
