#N canvas 0 52 1024 716 10;
#X floatatom 337 293 5 0 0 0 - - -;
#X floatatom 207 347 5 0 0 0 - - -;
#X floatatom 400 325 5 0 0 0 - - -;
#X obj 84 93 * 127;
#X obj 130 92 * 127;
#X obj 71 212 grid grid2 85 1 127 85 1 127 1 1 1 1 5 26 329;
#X msg 66 185 goto \$1 \$2;
#X obj 66 148 pack 1 1;
#X obj 99 61 unpack f f f;
#X obj 97 37 spigot;
#X obj 382 211 vsl 15 127 1 127 0 0 empty empty empty 0 -9 0 10 -262144
-1 -1 0 1;
#X floatatom 251 370 5 0 0 0 - - -;
#X obj 163 13 inlet;
#X obj 97 -29 r xlrmtr1;
#N canvas 0 0 303 384 rangex 0;
#X obj 106 72 clip 36 96;
#X floatatom 107 102 5 0 0 0 - - -;
#X obj 107 124 - 36;
#X floatatom 108 151 5 0 0 0 - - -;
#X floatatom 109 224 5 0 0 0 - - -;
#X obj 109 196 int;
#X obj 108 176 * 2.2;
#X obj 109 247 clip 0 127;
#X floatatom 112 280 5 0 0 0 - - -;
#X text 146 100 range multiplier;
#X obj 107 40 inlet;
#X obj 115 317 outlet;
#X connect 0 0 1 0;
#X connect 1 0 2 0;
#X connect 2 0 3 0;
#X connect 3 0 6 0;
#X connect 4 0 7 0;
#X connect 5 0 4 0;
#X connect 6 0 5 0;
#X connect 7 0 8 0;
#X connect 8 0 11 0;
#X connect 10 0 0 0;
#X restore 57 119 pd rangex;
#N canvas 0 0 303 384 rangex 0;
#X obj 106 72 clip 36 96;
#X floatatom 107 102 5 0 0 0 - - -;
#X obj 107 124 - 36;
#X floatatom 108 151 5 0 0 0 - - -;
#X floatatom 109 224 5 0 0 0 - - -;
#X obj 109 196 int;
#X obj 108 176 * 2.2;
#X obj 109 247 clip 0 127;
#X floatatom 112 280 5 0 0 0 - - -;
#X text 146 100 range multiplier;
#X obj 107 40 inlet;
#X obj 115 317 outlet;
#X connect 0 0 1 0;
#X connect 1 0 2 0;
#X connect 2 0 3 0;
#X connect 3 0 6 0;
#X connect 4 0 7 0;
#X connect 5 0 4 0;
#X connect 6 0 5 0;
#X connect 7 0 8 0;
#X connect 8 0 11 0;
#X connect 10 0 0 0;
#X restore 123 119 pd rangex;
#N canvas 1265 221 303 384 rangex 0;
#X obj 106 72 clip 36 96;
#X floatatom 107 102 5 0 0 0 - - -;
#X obj 107 124 - 36;
#X floatatom 108 151 5 0 0 0 - - -;
#X floatatom 109 224 5 0 0 0 - - -;
#X obj 109 196 int;
#X obj 108 176 * 2.2;
#X obj 109 247 clip 0 127;
#X floatatom 112 280 5 0 0 0 - - -;
#X text 146 100 range multiplier;
#X obj 107 40 inlet;
#X obj 115 317 outlet;
#X connect 0 0 1 0;
#X connect 1 0 2 0;
#X connect 2 0 3 0;
#X connect 3 0 6 0;
#X connect 4 0 7 0;
#X connect 5 0 4 0;
#X connect 6 0 5 0;
#X connect 7 0 8 0;
#X connect 8 0 11 0;
#X connect 10 0 0 0;
#X restore 196 120 pd rangex;
#X obj 99 2 spigot;
#X obj 163 -27 r stop1;
#N canvas 996 15 1016 648 xaxisswitches 0;
#X msg 479 179 1;
#X msg 511 179 0;
#X obj 457 206 change;
#X floatatom 390 151 5 0 127 0 - - -;
#X obj 401 352 tgl 15 0 empty empty empty 17 7 0 10 -262144 -1 -1 1
1;
#X obj 388 111 inlet;
#X obj 27 297 cnv 15 300 300 empty empty empty 20 12 0 14 -257985 -66577
0;
#X obj 121 482 loadbang;
#X obj 48 570 text3d;
#X msg 91 570 font /home/onyx/beatjazzdir/vera.ttf;
#X obj 52 397 gemhead;
#X msg 46 368 1;
#X msg 83 368 0;
#X obj 52 333 sel 1 0;
#X obj 50 545 colorRGB;
#X obj 50 418 translateXYZ -2.5 0.4 0;
#X msg 129 501 3;
#X obj 95 169 loadbang;
#X obj 36 257 text3d;
#X msg 80 258 font /home/onyx/beatjazzdir/vera.ttf;
#X obj 38 129 gemhead;
#X msg 38 99 1;
#X msg 69 100 0;
#X obj 38 75 sel 1 0;
#X obj 36 234 colorRGB;
#X msg 103 188 3;
#X obj 124 83 / 127;
#X obj 123 61 average 10;
#X obj 124 105 + 0.25;
#X obj 125 127 clip 0.65 1.15;
#X obj 36 150 translateXYZ -1.5 0.4 0;
#X obj 445 401 spigot;
#X floatatom 450 466 5 0 0 0 - - -;
#X obj 449 444 int;
#X msg 449 486 text \$1;
#X obj 446 423 average 10;
#X obj 206 543 r \$0-xptext;
#X obj 150 229 r \$0-yaxisnumupdate;
#X msg 490 354 text .;
#X obj 436 354 sel 0 1;
#X obj 409 512 s \$0-yaxisnumupdate;
#X obj 49 458 spigot;
#X obj 35 201 spigot;
#X obj 76 438 r \$0-gcut;
#X obj 35 170 r \$0-gcut;
#X obj 457 225 == 1;
#X obj 461 287 s \$0-xptext;
#X obj 42 477 r \$0-preset0;
#X obj 44 500 == 1;
#X obj 47 523 spigot;
#X obj 455 536 outlet;
#X obj 445 376 r \$0-gy;
#X obj 121 37 r \$0-gy;
#X msg 443 173 0;
#X obj 390 131 average 5;
#X obj 457 244 s \$0-xpara1;
#X obj 462 265 r xp1;
#X obj 459 308 r \$0-xpara1;
#X obj 463 329 s xparam1;
#X obj 160 543 r \$0-b;
#X obj 159 523 r \$0-g;
#X obj 159 502 r \$0-r;
#X obj 150 208 r \$0-b;
#X obj 151 189 r \$0-g;
#X obj 152 169 r \$0-r;
#X obj 38 52 r \$0-fkey;
#X obj 56 307 r \$0-fkey;
#X obj 392 175 moses 3;
#X obj 465 139 moses 125;
#X connect 0 0 2 0;
#X connect 1 0 2 0;
#X connect 2 0 4 0;
#X connect 2 0 45 0;
#X connect 3 0 67 0;
#X connect 4 0 31 1;
#X connect 4 0 39 0;
#X connect 4 0 50 0;
#X connect 5 0 54 0;
#X connect 7 0 9 0;
#X connect 7 0 16 0;
#X connect 9 0 8 0;
#X connect 10 0 15 0;
#X connect 11 0 10 0;
#X connect 12 0 10 0;
#X connect 13 0 11 0;
#X connect 13 1 12 0;
#X connect 14 0 8 0;
#X connect 15 0 41 0;
#X connect 16 0 8 1;
#X connect 17 0 19 0;
#X connect 17 0 25 0;
#X connect 19 0 18 0;
#X connect 20 0 30 0;
#X connect 21 0 20 0;
#X connect 22 0 20 0;
#X connect 23 0 21 0;
#X connect 23 1 22 0;
#X connect 24 0 18 0;
#X connect 25 0 18 1;
#X connect 26 0 28 0;
#X connect 27 0 26 0;
#X connect 28 0 29 0;
#X connect 29 0 30 2;
#X connect 30 0 42 0;
#X connect 31 0 35 0;
#X connect 32 0 34 0;
#X connect 33 0 32 0;
#X connect 34 0 40 0;
#X connect 35 0 33 0;
#X connect 36 0 8 0;
#X connect 37 0 18 0;
#X connect 38 0 40 0;
#X connect 39 0 38 0;
#X connect 41 0 49 0;
#X connect 42 0 24 0;
#X connect 43 0 41 1;
#X connect 44 0 42 1;
#X connect 45 0 55 0;
#X connect 47 0 48 0;
#X connect 48 0 49 1;
#X connect 49 0 14 0;
#X connect 51 0 31 0;
#X connect 52 0 27 0;
#X connect 53 0 2 0;
#X connect 54 0 3 0;
#X connect 56 0 46 0;
#X connect 57 0 58 0;
#X connect 59 0 14 3;
#X connect 60 0 14 2;
#X connect 61 0 14 1;
#X connect 62 0 24 3;
#X connect 63 0 24 2;
#X connect 64 0 24 1;
#X connect 65 0 23 0;
#X connect 66 0 13 0;
#X connect 67 0 53 0;
#X connect 67 1 68 0;
#X connect 68 0 0 0;
#X connect 68 1 1 0;
#X coords 0 -1 1 1 30 20 2 400 350;
#X restore 14 302 pd xaxisswitches;
#N canvas 1016 52 1024 716 yaxisswitches 0;
#X msg 401 14 0;
#X msg 433 14 1;
#X msg 465 14 0;
#X obj 405 38 change;
#X floatatom 346 -8 5 0 127 0 - - -;
#X msg 541 17 1;
#X obj 602 -28 moses 80;
#X msg 513 18 0;
#X msg 639 18 1;
#X obj 515 41 change;
#X msg 571 17 0;
#X obj 613 42 change;
#X msg 609 18 0;
#X msg 669 19 0;
#X obj 699 -29 moses 100;
#X msg 748 18 1;
#X msg 719 19 0;
#X msg 775 18 0;
#X obj 720 43 change;
#X msg 847 19 1;
#X msg 818 20 0;
#X msg 874 19 0;
#X obj 819 45 change;
#X obj 321 218 tgl 15 0 empty empty empty 17 7 0 10 -262144 -1 -1 0
1;
#X obj 321 235 tgl 15 0 empty empty empty 17 7 0 10 -262144 -1 -1 1
1;
#X obj 322 252 tgl 15 0 empty empty empty 17 7 0 10 -262144 -1 -1 0
1;
#X obj 322 268 tgl 15 0 empty empty empty 17 7 0 10 -262144 -1 -1 0
1;
#X obj 321 203 tgl 15 0 empty empty empty 17 7 0 10 -262144 -1 -1 0
1;
#X obj 345 -28 average 5;
#X obj 344 -48 inlet;
#X obj 418 -30 moses 30;
#X obj 4 -91 cnv 15 300 250 empty empty empty 20 12 0 14 -257985 -66577
0;
#X obj 118 125 loadbang;
#X obj 16 211 text3d;
#X msg 59 211 font /home/onyx/beatjazzdir/vera.ttf;
#X obj 17 8 gemhead;
#X msg 16 -14 1;
#X msg 53 -14 0;
#X obj 14 -35 sel 1 0;
#X obj 15 188 colorRGB;
#X msg 126 144 3;
#X obj 59 469 loadbang;
#X obj 36 549 text3d;
#X msg 79 549 font /home/onyx/beatjazzdir/vera.ttf;
#X obj 37 385 gemhead;
#X msg 37 356 1;
#X msg 68 356 0;
#X obj 37 321 sel 1 0;
#X obj 35 526 colorRGB;
#X msg 67 488 3;
#X obj 98 333 / 127;
#X floatatom 120 355 5 0 0 0 - - -;
#X obj 99 312 average 5;
#X obj 98 355 - 2;
#X obj 35 406 translateXYZ -4.5 2 0;
#X obj 97 375 clip -1.51 -1;
#X obj 483 239 spigot;
#X obj 581 240 spigot;
#X floatatom 485 307 5 0 0 0 - - -;
#X msg 486 329 text \$1;
#X floatatom 587 312 5 0 0 0 - - -;
#X msg 585 331 text \$1;
#X obj 484 287 int;
#X obj 584 292 int;
#X obj 481 268 average 10;
#X obj 582 265 average 10;
#X obj 686 241 spigot;
#X obj 788 246 spigot;
#X floatatom 688 309 5 0 0 0 - - -;
#X msg 689 331 text \$1;
#X floatatom 794 318 5 0 0 0 - - -;
#X msg 792 337 text \$1;
#X obj 687 289 int;
#X obj 791 298 int;
#X obj 684 270 average 10;
#X obj 788 274 average 10;
#X obj 379 238 spigot;
#X floatatom 385 310 5 0 0 0 - - -;
#X msg 383 329 text \$1;
#X obj 382 290 int;
#X obj 379 266 average 10;
#X obj 117 528 r \$0-xaxisnumupdate;
#X obj 140 167 r \$0-yptext;
#X obj 857 386 s \$0-xaxisnumupdate;
#X obj 724 391 s \$0-xaxisnumupdate;
#X obj 576 392 s \$0-xaxisnumupdate;
#X obj 451 393 s \$0-xaxisnumupdate;
#X obj 323 393 s \$0-xaxisnumupdate;
#X msg 396 361 text .;
#X msg 491 362 text .;
#X msg 607 363 text .;
#X msg 754 363 text .;
#X msg 867 358 text .;
#X obj 342 361 sel 0 1;
#X obj 440 360 sel 0 1;
#X obj 554 362 sel 0 1;
#X obj 701 359 sel 0 1;
#X obj 811 359 sel 0 1;
#X obj 35 448 spigot;
#X obj 17 73 spigot;
#X obj 50 50 r \$0-gcut;
#X obj 68 428 r \$0-gcut;
#X obj 15 29 translateXYZ -1.3 1.4 0;
#X obj 515 61 == 1;
#X obj 408 58 == 1;
#X obj 614 61 == 1;
#X obj 720 62 == 1;
#X obj 819 64 == 1;
#X obj 820 122 s \$0-yptext;
#X obj 720 120 s \$0-yptext;
#X obj 613 119 s \$0-yptext;
#X obj 516 118 s \$0-yptext;
#X obj 409 115 s \$0-yptext;
#X obj 46 93 r \$0-preset0;
#X obj 48 113 == 1;
#X obj 16 141 spigot;
#X obj 346 12 moses 3;
#X obj 512 -27 moses 55;
#X obj 391 425 outlet;
#X obj 504 428 outlet;
#X obj 614 430 outlet;
#X obj 719 430 outlet;
#X obj 824 434 outlet;
#X obj 7 165 r \$0-r;
#X obj 48 166 r \$0-g;
#X obj 96 166 r \$0-b;
#X obj 116 508 r \$0-b;
#X obj 116 489 r \$0-g;
#X obj 115 469 r \$0-r;
#X obj 379 217 r \$0-gx;
#X obj 482 218 r \$0-gx;
#X obj 581 219 r \$0-gx;
#X obj 685 220 r \$0-gx;
#X obj 788 225 r \$0-gx;
#X obj 100 293 r \$0-gx;
#X obj 797 -30 moses 125;
#X obj 13 -58 r \$0-fkey;
#X obj 41 295 r \$0-fkey;
#X obj 408 77 s \$0-ypara31;
#X obj 410 96 r yp31;
#X obj 410 148 r \$0-ypara31;
#X obj 410 167 s yparam31;
#X obj 517 166 s yparam32;
#X obj 517 146 r \$0-ypara32;
#X obj 515 99 r yp32;
#X obj 516 80 s \$0-ypara32;
#X obj 613 80 s \$0-ypara33;
#X obj 614 100 r yp33;
#X obj 614 147 r \$0-ypara33;
#X obj 613 166 s yparam33;
#X obj 721 149 r \$0-ypara34;
#X obj 723 169 s yparam34;
#X obj 718 100 r yp34;
#X obj 720 81 s \$0-ypara34;
#X obj 820 83 s \$0-ypara35;
#X obj 818 103 r yp35;
#X obj 820 150 r \$0-ypara35;
#X obj 822 170 s yparam35;
#X connect 0 0 3 0;
#X connect 1 0 3 0;
#X connect 2 0 3 0;
#X connect 3 0 26 0;
#X connect 3 0 76 1;
#X connect 3 0 104 0;
#X connect 4 0 116 0;
#X connect 5 0 9 0;
#X connect 6 0 8 0;
#X connect 6 0 16 0;
#X connect 6 1 13 0;
#X connect 6 1 14 0;
#X connect 7 0 9 0;
#X connect 8 0 11 0;
#X connect 9 0 25 0;
#X connect 9 0 56 1;
#X connect 9 0 103 0;
#X connect 10 0 9 0;
#X connect 11 0 24 0;
#X connect 11 0 57 1;
#X connect 11 0 105 0;
#X connect 12 0 11 0;
#X connect 13 0 11 0;
#X connect 14 0 15 0;
#X connect 14 0 20 0;
#X connect 14 1 17 0;
#X connect 14 1 135 0;
#X connect 15 0 18 0;
#X connect 16 0 18 0;
#X connect 17 0 18 0;
#X connect 18 0 23 0;
#X connect 18 0 66 1;
#X connect 18 0 106 0;
#X connect 19 0 22 0;
#X connect 20 0 22 0;
#X connect 21 0 22 0;
#X connect 22 0 27 0;
#X connect 22 0 67 1;
#X connect 22 0 107 0;
#X connect 23 0 96 0;
#X connect 23 0 121 0;
#X connect 24 0 95 0;
#X connect 24 0 120 0;
#X connect 25 0 94 0;
#X connect 25 0 119 0;
#X connect 26 0 93 0;
#X connect 26 0 118 0;
#X connect 27 0 97 0;
#X connect 27 0 122 0;
#X connect 28 0 4 0;
#X connect 29 0 28 0;
#X connect 30 0 7 0;
#X connect 30 0 1 0;
#X connect 30 1 2 0;
#X connect 30 1 117 0;
#X connect 32 0 34 0;
#X connect 32 0 40 0;
#X connect 34 0 33 0;
#X connect 35 0 102 0;
#X connect 36 0 35 0;
#X connect 37 0 35 0;
#X connect 38 0 36 0;
#X connect 38 1 37 0;
#X connect 39 0 33 0;
#X connect 40 0 33 1;
#X connect 41 0 43 0;
#X connect 41 0 49 0;
#X connect 43 0 42 0;
#X connect 44 0 54 0;
#X connect 45 0 44 0;
#X connect 46 0 44 0;
#X connect 47 0 45 0;
#X connect 47 1 46 0;
#X connect 48 0 42 0;
#X connect 49 0 42 1;
#X connect 50 0 53 0;
#X connect 52 0 50 0;
#X connect 53 0 51 0;
#X connect 53 0 55 0;
#X connect 54 0 98 0;
#X connect 55 0 54 1;
#X connect 56 0 64 0;
#X connect 57 0 65 0;
#X connect 58 0 59 0;
#X connect 59 0 86 0;
#X connect 60 0 61 0;
#X connect 61 0 85 0;
#X connect 62 0 58 0;
#X connect 63 0 60 0;
#X connect 64 0 62 0;
#X connect 65 0 63 0;
#X connect 66 0 74 0;
#X connect 67 0 75 0;
#X connect 68 0 69 0;
#X connect 69 0 84 0;
#X connect 70 0 71 0;
#X connect 71 0 83 0;
#X connect 72 0 68 0;
#X connect 73 0 70 0;
#X connect 74 0 72 0;
#X connect 75 0 73 0;
#X connect 76 0 80 0;
#X connect 77 0 78 0;
#X connect 78 0 87 0;
#X connect 79 0 77 0;
#X connect 80 0 79 0;
#X connect 81 0 42 0;
#X connect 82 0 33 0;
#X connect 88 0 87 0;
#X connect 89 0 86 0;
#X connect 90 0 85 0;
#X connect 91 0 84 0;
#X connect 92 0 83 0;
#X connect 93 0 88 0;
#X connect 94 0 89 0;
#X connect 95 0 90 0;
#X connect 96 0 91 0;
#X connect 97 0 92 0;
#X connect 98 0 48 0;
#X connect 99 0 115 0;
#X connect 100 0 99 1;
#X connect 101 0 98 1;
#X connect 102 0 99 0;
#X connect 103 0 145 0;
#X connect 104 0 138 0;
#X connect 105 0 146 0;
#X connect 106 0 153 0;
#X connect 107 0 154 0;
#X connect 113 0 114 0;
#X connect 114 0 115 1;
#X connect 115 0 39 0;
#X connect 116 0 0 0;
#X connect 116 1 30 0;
#X connect 117 0 5 0;
#X connect 117 0 12 0;
#X connect 117 1 6 0;
#X connect 117 1 10 0;
#X connect 123 0 39 1;
#X connect 124 0 39 2;
#X connect 125 0 39 3;
#X connect 126 0 48 3;
#X connect 127 0 48 2;
#X connect 128 0 48 1;
#X connect 129 0 76 0;
#X connect 130 0 56 0;
#X connect 131 0 57 0;
#X connect 132 0 66 0;
#X connect 133 0 67 0;
#X connect 134 0 52 0;
#X connect 135 0 19 0;
#X connect 135 1 21 0;
#X connect 136 0 38 0;
#X connect 137 0 47 0;
#X connect 139 0 112 0;
#X connect 140 0 141 0;
#X connect 143 0 142 0;
#X connect 144 0 111 0;
#X connect 147 0 110 0;
#X connect 148 0 149 0;
#X connect 150 0 151 0;
#X connect 152 0 109 0;
#X connect 155 0 108 0;
#X connect 156 0 157 0;
#X coords 0 -1 1 1 60 85 2 300 200;
#X restore 9 212 pd yaxisswitches;
#N canvas 1591 216 463 496 z 0;
#X text 116 139 chnl#16;
#X floatatom 224 123 5 0 0 0 - - -;
#X obj 175 172 t b b;
#X obj 175 200 f;
#X obj 175 223 + 1;
#X obj 123 103 tgl 15 0 empty empty empty 17 7 0 10 -262144 -1 -1 0
1;
#X floatatom 143 124 5 0 0 0 - - -;
#X msg 202 200 1;
#X obj 103 103 bng 15 250 50 0 empty empty empty 17 7 0 10 -262144
-1 -1;
#X obj 122 187 outlet;
#X obj 175 147 delay 500;
#X obj 124 51 inlet zflip in;
#X obj 183 101 s moseszflip;
#X floatatom 107 333 5 0 0 0 - - -;
#X obj 176 123 sel 127;
#X obj 125 76 moses 120;
#X connect 2 0 3 0;
#X connect 2 1 7 0;
#X connect 3 0 4 0;
#X connect 4 0 8 0;
#X connect 5 0 9 0;
#X connect 7 0 3 1;
#X connect 8 0 5 0;
#X connect 10 0 2 0;
#X connect 11 0 15 0;
#X connect 14 0 6 0;
#X connect 14 0 10 0;
#X connect 14 1 1 0;
#X connect 15 0 12 0;
#X connect 15 1 14 0;
#X coords 0 -1 1 1 40 20 2 100 100;
#X restore 114 302 pd z flip switch;
#X obj 248 348 r moseszflip;
#X obj 284 33 s \$0-gcut;
#X obj 284 10 inlet;
#X obj 351 10 r preset;
#X obj 351 32 s \$0-preset0;
#X obj 603 462 r \$0-gx1;
#X obj 657 463 r \$0-gy1;
#X obj 602 402 r \$0-gx1;
#X obj 657 402 r \$0-gy2;
#X obj 603 342 r \$0-gx1;
#X obj 601 281 r \$0-gx1;
#X obj 604 211 r \$0-gx1;
#X obj 658 342 r \$0-gy3;
#X obj 656 281 r \$0-gy4;
#X obj 659 211 r \$0-gy5;
#X obj 17 362 s \$0-gx;
#X obj 66 363 s \$0-gy;
#X obj 287 370 s \$0-gz;
#X obj 14 389 s \$0-gx1;
#X obj 117 469 s \$0-gy1;
#X obj 116 441 s \$0-gy2;
#X obj 118 412 s \$0-gy3;
#X obj 119 387 s \$0-gy4;
#X obj 121 362 s \$0-gy5;
#X text 530 32 create an abstraction to create the viz graphics from
the data points below.;
#N canvas 1178 121 642 469 grid 0;
#X obj 26 271 r \$0-1-1;
#X obj 26 210 r \$0-1-2;
#X obj 26 148 r \$0-1-3;
#X obj 26 89 r \$0-1-4;
#X obj 26 28 r \$0-1-5;
#X obj 133 24 r \$0-2-5;
#X obj 133 86 r \$0-2-4;
#X obj 136 148 r \$0-2-3;
#X obj 139 208 r \$0-2-2;
#X obj 137 270 r \$0-2-1;
#X obj 250 271 r \$0-3-1;
#X obj 250 208 r \$0-3-2;
#X obj 246 148 r \$0-3-3;
#X obj 247 88 r \$0-3-4;
#X obj 248 26 r \$0-3-5;
#X obj 355 28 r \$0-4-5;
#X obj 355 88 r \$0-4-4;
#X obj 358 148 r \$0-4-3;
#X obj 362 210 r \$0-4-2;
#X obj 364 272 r \$0-4-1;
#X obj 474 273 r \$0-5-1;
#X obj 470 210 r \$0-5-2;
#X obj 471 148 r \$0-5-3;
#X obj 469 87 r \$0-5-4;
#X obj 466 26 r \$0-5-5;
#X restore 416 7 pd grid parameters;
#N canvas 0 0 684 417 grid 0;
#X obj 36 281 r \$0-1-1;
#X obj 36 220 r \$0-1-2;
#X obj 36 158 r \$0-1-3;
#X obj 36 99 r \$0-1-4;
#X obj 36 38 r \$0-1-5;
#X obj 143 34 r \$0-2-5;
#X obj 143 96 r \$0-2-4;
#X obj 146 158 r \$0-2-3;
#X obj 149 218 r \$0-2-2;
#X obj 147 280 r \$0-2-1;
#X obj 260 281 r \$0-3-1;
#X obj 260 218 r \$0-3-2;
#X obj 256 158 r \$0-3-3;
#X obj 257 98 r \$0-3-4;
#X obj 258 36 r \$0-3-5;
#X obj 365 38 r \$0-4-5;
#X obj 365 98 r \$0-4-4;
#X obj 368 158 r \$0-4-3;
#X obj 372 220 r \$0-4-2;
#X obj 374 282 r \$0-4-1;
#X obj 484 283 r \$0-5-1;
#X obj 480 220 r \$0-5-2;
#X obj 481 158 r \$0-5-3;
#X obj 479 97 r \$0-5-4;
#X obj 476 36 r \$0-5-5;
#X restore 536 8 pd grid viz;
#N canvas 0 0 450 300 2bangs 0;
#X obj 158 67 == 1;
#X obj 203 69 == 1;
#X obj 205 98 t b f;
#X obj 189 129 +;
#X floatatom 189 154 5 0 0 0 - - -;
#X obj 190 177 sel 2 1 0;
#X msg 219 214 0;
#X msg 252 216 0;
#X msg 184 214 1;
#X obj 159 36 inlet;
#X obj 208 39 inlet;
#X obj 185 250 outlet;
#X obj 302 253 tgl 15 0 empty empty empty 17 7 0 10 -262144 -1 -1 0
1;
#X connect 0 0 3 0;
#X connect 1 0 2 0;
#X connect 2 0 3 0;
#X connect 2 1 3 1;
#X connect 3 0 4 0;
#X connect 4 0 5 0;
#X connect 5 0 8 0;
#X connect 5 1 6 0;
#X connect 5 2 7 0;
#X connect 6 0 11 0;
#X connect 6 0 12 0;
#X connect 7 0 11 0;
#X connect 7 0 12 0;
#X connect 8 0 11 0;
#X connect 8 0 12 0;
#X connect 9 0 0 0;
#X connect 10 0 1 0;
#X coords 0 -1 1 1 20 20 1 300 250;
#X restore 604 482 pd 2bangs;
#N canvas 0 0 450 300 2bangs 0;
#X obj 158 67 == 1;
#X obj 203 69 == 1;
#X obj 205 98 t b f;
#X obj 189 129 +;
#X floatatom 189 154 5 0 0 0 - - -;
#X obj 190 177 sel 2 1 0;
#X msg 219 214 0;
#X msg 252 216 0;
#X msg 184 214 1;
#X obj 159 36 inlet;
#X obj 208 39 inlet;
#X obj 185 250 outlet;
#X obj 302 253 tgl 15 0 empty empty empty 17 7 0 10 -262144 -1 -1 0
1;
#X connect 0 0 3 0;
#X connect 1 0 2 0;
#X connect 2 0 3 0;
#X connect 2 1 3 1;
#X connect 3 0 4 0;
#X connect 4 0 5 0;
#X connect 5 0 8 0;
#X connect 5 1 6 0;
#X connect 5 2 7 0;
#X connect 6 0 11 0;
#X connect 6 0 12 0;
#X connect 7 0 11 0;
#X connect 7 0 12 0;
#X connect 8 0 11 0;
#X connect 8 0 12 0;
#X connect 9 0 0 0;
#X connect 10 0 1 0;
#X coords 0 -1 1 1 20 20 1 300 250;
#X restore 603 422 pd 2bangs;
#N canvas 0 0 450 300 2bangs 0;
#X obj 158 67 == 1;
#X obj 203 69 == 1;
#X obj 205 98 t b f;
#X obj 189 129 +;
#X floatatom 189 154 5 0 0 0 - - -;
#X obj 190 177 sel 2 1 0;
#X msg 219 214 0;
#X msg 252 216 0;
#X msg 184 214 1;
#X obj 159 36 inlet;
#X obj 208 39 inlet;
#X obj 185 250 outlet;
#X obj 302 253 tgl 15 0 empty empty empty 17 7 0 10 -262144 -1 -1 1
1;
#X connect 0 0 3 0;
#X connect 1 0 2 0;
#X connect 2 0 3 0;
#X connect 2 1 3 1;
#X connect 3 0 4 0;
#X connect 4 0 5 0;
#X connect 5 0 8 0;
#X connect 5 1 6 0;
#X connect 5 2 7 0;
#X connect 6 0 11 0;
#X connect 6 0 12 0;
#X connect 7 0 11 0;
#X connect 7 0 12 0;
#X connect 8 0 11 0;
#X connect 8 0 12 0;
#X connect 9 0 0 0;
#X connect 10 0 1 0;
#X coords 0 -1 1 1 20 20 1 300 250;
#X restore 608 360 pd 2bangs;
#N canvas 0 0 450 300 2bangs 0;
#X obj 158 67 == 1;
#X obj 203 69 == 1;
#X obj 205 98 t b f;
#X obj 189 129 +;
#X floatatom 189 154 5 0 0 0 - - -;
#X obj 190 177 sel 2 1 0;
#X msg 219 214 0;
#X msg 252 216 0;
#X msg 184 214 1;
#X obj 159 36 inlet;
#X obj 208 39 inlet;
#X obj 185 250 outlet;
#X obj 302 253 tgl 15 0 empty empty empty 17 7 0 10 -262144 -1 -1 0
1;
#X connect 0 0 3 0;
#X connect 1 0 2 0;
#X connect 2 0 3 0;
#X connect 2 1 3 1;
#X connect 3 0 4 0;
#X connect 4 0 5 0;
#X connect 5 0 8 0;
#X connect 5 1 6 0;
#X connect 5 2 7 0;
#X connect 6 0 11 0;
#X connect 6 0 12 0;
#X connect 7 0 11 0;
#X connect 7 0 12 0;
#X connect 8 0 11 0;
#X connect 8 0 12 0;
#X connect 9 0 0 0;
#X connect 10 0 1 0;
#X coords 0 -1 1 1 20 20 1 300 250;
#X restore 603 300 pd 2bangs;
#N canvas 0 0 450 300 2bangs 0;
#X obj 158 67 == 1;
#X obj 203 69 == 1;
#X obj 205 98 t b f;
#X obj 189 129 +;
#X floatatom 189 154 5 0 0 0 - - -;
#X obj 190 177 sel 2 1 0;
#X msg 219 214 0;
#X msg 252 216 0;
#X msg 184 214 1;
#X obj 159 36 inlet;
#X obj 208 39 inlet;
#X obj 185 250 outlet;
#X obj 302 253 tgl 15 0 empty empty empty 17 7 0 10 -262144 -1 -1 0
1;
#X connect 0 0 3 0;
#X connect 1 0 2 0;
#X connect 2 0 3 0;
#X connect 2 1 3 1;
#X connect 3 0 4 0;
#X connect 4 0 5 0;
#X connect 5 0 8 0;
#X connect 5 1 6 0;
#X connect 5 2 7 0;
#X connect 6 0 11 0;
#X connect 6 0 12 0;
#X connect 7 0 11 0;
#X connect 7 0 12 0;
#X connect 8 0 11 0;
#X connect 8 0 12 0;
#X connect 9 0 0 0;
#X connect 10 0 1 0;
#X coords 0 -1 1 1 20 20 1 300 250;
#X restore 609 234 pd 2bangs;
#X obj 234 210 r \$0-gx;
#X obj 240 275 hsl 128 15 0 127 0 0 empty empty empty -2 -8 0 10 -262144
-1 -1 100 1;
#X obj 233 191 r \$0-gy;
#X obj 217 212 vsl 15 128 0 127 0 0 empty empty empty 0 -9 0 10 -262144
-1 -1 100 1;
#X obj 125 140 s \$0-r;
#X obj 171 141 s \$0-g;
#X obj 215 141 s \$0-b;
#X obj 133 340 s x1z;
#X floatatom 240 88 5 0 0 0 - - -;
#X obj 184 93 * 127;
#X obj 287 61 r fkey;
#X obj 287 84 s \$0-fkey;
#X obj 606 505 s f7lowpass;
#X obj 623 445 s f7hipass;
#X obj 623 383 s f7bandpass;
#X obj 623 324 s f7vcf;
#X obj 623 263 s f7moog;
#X obj 329 215 s 7gx;
#X obj 328 234 s 7gy;
#X obj 16 340 s 7x1x;
#X obj 53 340 s 7x1y;
#X connect 3 0 14 0;
#X connect 4 0 15 0;
#X connect 5 0 0 0;
#X connect 5 0 19 0;
#X connect 5 0 37 0;
#X connect 5 0 73 0;
#X connect 5 1 1 0;
#X connect 5 1 20 0;
#X connect 5 1 38 0;
#X connect 5 1 74 0;
#X connect 6 0 5 0;
#X connect 7 0 6 0;
#X connect 8 0 3 0;
#X connect 8 0 58 0;
#X connect 8 1 4 0;
#X connect 8 1 59 0;
#X connect 8 2 62 0;
#X connect 8 2 63 0;
#X connect 8 2 60 0;
#X connect 9 0 8 0;
#X connect 10 0 2 0;
#X connect 10 0 21 0;
#X connect 12 0 9 1;
#X connect 13 0 17 0;
#X connect 14 0 7 0;
#X connect 15 0 7 1;
#X connect 16 0 10 0;
#X connect 17 0 9 0;
#X connect 18 0 17 1;
#X connect 19 0 40 0;
#X connect 20 0 41 0;
#X connect 20 1 42 0;
#X connect 20 2 43 0;
#X connect 20 3 44 0;
#X connect 20 4 45 0;
#X connect 21 0 61 0;
#X connect 22 0 11 0;
#X connect 22 0 39 0;
#X connect 22 0 61 0;
#X connect 24 0 23 0;
#X connect 25 0 26 0;
#X connect 27 0 49 0;
#X connect 28 0 49 1;
#X connect 29 0 50 0;
#X connect 30 0 50 1;
#X connect 31 0 51 0;
#X connect 32 0 52 0;
#X connect 33 0 53 0;
#X connect 34 0 51 1;
#X connect 35 0 52 1;
#X connect 36 0 53 1;
#X connect 49 0 66 0;
#X connect 50 0 67 0;
#X connect 51 0 68 0;
#X connect 52 0 69 0;
#X connect 53 0 70 0;
#X connect 54 0 55 0;
#X connect 54 0 71 0;
#X connect 56 0 57 0;
#X connect 56 0 72 0;
#X connect 63 0 16 0;
#X connect 64 0 65 0;
#X coords 0 -1 1 1 160 120 1 0 205;
