#N canvas 0 0 1024 716 10;
#X floatatom 327 283 5 0 0 0 - - -;
#X floatatom 197 337 5 0 0 0 - - -;
#X floatatom 390 315 5 0 0 0 - - -;
#X obj 74 83 * 127;
#X obj 120 82 * 127;
#X obj 65 212 grid grid2 85 1 127 85 1 127 1 1 1 3 1 10 162;
#X msg 56 175 goto \$1 \$2;
#X obj 56 138 pack 1 1;
#X obj 89 51 unpack f f f;
#X obj 87 27 spigot;
#X obj 372 201 vsl 15 127 1 127 0 0 empty empty empty 0 -9 0 10 -262144
-1 -1 600 1;
#X floatatom 117 381 5 0 0 0 - - -;
#X obj 153 3 inlet;
#X obj 87 -39 r xlrmtr1;
#N canvas 0 0 303 384 rangex 0;
#X obj 106 72 clip 36 96;
#X floatatom 107 102 5 0 0 0 - - -;
#X obj 107 124 - 36;
#X floatatom 108 151 5 0 0 0 - - -;
#X floatatom 109 224 5 0 0 0 - - -;
#X obj 109 196 int;
#X obj 108 176 * 2.2;
#X obj 109 247 clip 0 127;
#X floatatom 112 280 5 0 0 0 - - -;
#X text 146 100 range multiplier;
#X obj 107 40 inlet;
#X obj 115 317 outlet;
#X connect 0 0 1 0;
#X connect 1 0 2 0;
#X connect 2 0 3 0;
#X connect 3 0 6 0;
#X connect 4 0 7 0;
#X connect 5 0 4 0;
#X connect 6 0 5 0;
#X connect 7 0 8 0;
#X connect 8 0 11 0;
#X connect 10 0 0 0;
#X restore 47 109 pd rangex;
#N canvas 0 0 303 384 rangex 0;
#X obj 106 72 clip 36 96;
#X floatatom 107 102 5 0 0 0 - - -;
#X obj 107 124 - 36;
#X floatatom 108 151 5 0 0 0 - - -;
#X floatatom 109 224 5 0 0 0 - - -;
#X obj 109 196 int;
#X obj 108 176 * 2.2;
#X obj 109 247 clip 0 127;
#X floatatom 112 280 5 0 0 0 - - -;
#X text 146 100 range multiplier;
#X obj 107 40 inlet;
#X obj 115 317 outlet;
#X connect 0 0 1 0;
#X connect 1 0 2 0;
#X connect 2 0 3 0;
#X connect 3 0 6 0;
#X connect 4 0 7 0;
#X connect 5 0 4 0;
#X connect 6 0 5 0;
#X connect 7 0 8 0;
#X connect 8 0 11 0;
#X connect 10 0 0 0;
#X restore 113 109 pd rangex;
#N canvas 1265 221 303 384 rangex 0;
#X obj 106 72 clip 36 96;
#X floatatom 107 102 5 0 0 0 - - -;
#X obj 107 124 - 36;
#X floatatom 108 151 5 0 0 0 - - -;
#X floatatom 109 224 5 0 0 0 - - -;
#X obj 109 196 int;
#X obj 108 176 * 2.2;
#X obj 109 247 clip 0 127;
#X floatatom 112 280 5 0 0 0 - - -;
#X text 146 100 range multiplier;
#X obj 107 40 inlet;
#X obj 115 317 outlet;
#X connect 0 0 1 0;
#X connect 1 0 2 0;
#X connect 2 0 3 0;
#X connect 3 0 6 0;
#X connect 4 0 7 0;
#X connect 5 0 4 0;
#X connect 6 0 5 0;
#X connect 7 0 8 0;
#X connect 8 0 11 0;
#X connect 10 0 0 0;
#X restore 186 110 pd rangex;
#X obj 89 -8 spigot;
#X obj 153 -37 r stop1;
#N canvas 0 36 1016 648 xaxisswitches 0;
#X msg 558 177 1;
#X msg 590 177 0;
#X obj 536 204 change;
#X floatatom 468 115 5 0 127 0 - - -;
#X msg 661 175 1;
#X msg 633 176 0;
#X msg 764 175 1;
#X obj 638 201 change;
#X msg 691 175 0;
#X obj 734 198 change;
#X msg 734 175 0;
#X msg 794 176 0;
#X obj 435 352 tgl 15 0 empty empty empty 17 7 0 10 -262144 -1 -1 0
1;
#X obj 418 352 tgl 15 0 empty empty empty 17 7 0 10 -262144 -1 -1 0
1;
#X obj 401 352 tgl 15 0 empty empty empty 17 7 0 10 -262144 -1 -1 1
1;
#X obj 466 75 inlet;
#X obj 27 297 cnv 15 300 300 empty empty empty 20 12 0 14 -257985 -66577
0;
#X obj 121 482 loadbang;
#X obj 48 570 text3d;
#X msg 91 570 font /home/onyx/beatjazzdir/vera.ttf;
#X obj 52 397 gemhead;
#X msg 46 368 1;
#X msg 83 368 0;
#X obj 52 333 sel 1 0;
#X obj 50 545 colorRGB;
#X obj 50 418 translateXYZ -2.5 0.4 0;
#X msg 129 501 3;
#X obj 95 169 loadbang;
#X obj 36 257 text3d;
#X msg 80 258 font /home/onyx/beatjazzdir/vera.ttf;
#X obj 38 129 gemhead;
#X msg 38 99 1;
#X msg 69 100 0;
#X obj 38 75 sel 1 0;
#X obj 36 234 colorRGB;
#X msg 103 188 3;
#X obj 124 83 / 127;
#X obj 123 61 average 10;
#X obj 124 105 + 0.25;
#X obj 125 127 clip 0.65 1.15;
#X obj 36 150 translateXYZ -1.5 0.4 0;
#X obj 524 399 spigot;
#X floatatom 529 464 5 0 0 0 - - -;
#X obj 528 442 int;
#X msg 528 484 text \$1;
#X obj 525 421 average 10;
#X obj 639 399 spigot;
#X floatatom 640 463 5 0 0 0 - - -;
#X obj 642 442 int;
#X msg 642 483 text \$1;
#X obj 641 421 average 10;
#X obj 746 401 spigot;
#X floatatom 747 465 5 0 0 0 - - -;
#X obj 749 444 int;
#X msg 749 485 text \$1;
#X obj 748 423 average 10;
#X obj 206 543 r \$0-xptext;
#X obj 150 229 r \$0-yaxisnumupdate;
#X msg 569 352 text .;
#X msg 664 353 text .;
#X msg 780 354 text .;
#X obj 515 352 sel 0 1;
#X obj 613 351 sel 0 1;
#X obj 727 353 sel 0 1;
#X obj 743 511 s \$0-yaxisnumupdate;
#X obj 618 510 s \$0-yaxisnumupdate;
#X obj 488 510 s \$0-yaxisnumupdate;
#X obj 49 458 spigot;
#X obj 35 201 spigot;
#X obj 76 438 r \$0-gcut;
#X obj 35 170 r \$0-gcut;
#X obj 638 221 == 1;
#X obj 536 223 == 1;
#X obj 734 218 == 1;
#X obj 739 291 s \$0-xptext;
#X obj 42 477 r \$0-preset0;
#X obj 44 500 == 1;
#X obj 47 523 spigot;
#X obj 534 534 outlet;
#X obj 647 537 outlet;
#X obj 757 539 outlet;
#X obj 728 139 moses 127;
#X obj 524 374 r \$0-gy;
#X obj 639 374 r \$0-gy;
#X obj 746 376 r \$0-gy;
#X obj 121 37 r \$0-gy;
#X obj 638 140 moses 97;
#X obj 544 137 moses 55;
#X obj 470 139 moses 10;
#X msg 522 171 0;
#X obj 468 95 average 5;
#X obj 160 543 r \$0-b;
#X obj 159 523 r \$0-g;
#X obj 159 502 r \$0-r;
#X obj 150 208 r \$0-b;
#X obj 151 189 r \$0-g;
#X obj 152 169 r \$0-r;
#X obj 536 242 s \$0-xpara10;
#X obj 638 241 s \$0-xpara11;
#X obj 734 238 s \$0-xpara12;
#X obj 514 291 r \$0-xpara10;
#X obj 518 312 s xparam10;
#X obj 568 266 r xp10;
#X obj 656 267 r xp11;
#X obj 739 269 r xp12;
#X obj 590 291 r \$0-xpara11;
#X obj 661 292 r \$0-xpara12;
#X obj 589 312 s xparam11;
#X obj 661 313 s xparam12;
#X obj 38 52 r \$0-fkey;
#X obj 56 307 r \$0-fkey;
#X connect 0 0 2 0;
#X connect 1 0 2 0;
#X connect 2 0 14 0;
#X connect 2 0 72 0;
#X connect 3 0 88 0;
#X connect 4 0 7 0;
#X connect 5 0 7 0;
#X connect 6 0 9 0;
#X connect 7 0 13 0;
#X connect 7 0 71 0;
#X connect 8 0 7 0;
#X connect 9 0 12 0;
#X connect 9 0 73 0;
#X connect 10 0 9 0;
#X connect 11 0 9 0;
#X connect 12 0 51 1;
#X connect 12 0 63 0;
#X connect 12 0 80 0;
#X connect 13 0 46 1;
#X connect 13 0 62 0;
#X connect 13 0 79 0;
#X connect 14 0 41 1;
#X connect 14 0 61 0;
#X connect 14 0 78 0;
#X connect 15 0 90 0;
#X connect 17 0 19 0;
#X connect 17 0 26 0;
#X connect 19 0 18 0;
#X connect 20 0 25 0;
#X connect 21 0 20 0;
#X connect 22 0 20 0;
#X connect 23 0 21 0;
#X connect 23 1 22 0;
#X connect 24 0 18 0;
#X connect 25 0 67 0;
#X connect 26 0 18 1;
#X connect 27 0 29 0;
#X connect 27 0 35 0;
#X connect 29 0 28 0;
#X connect 30 0 40 0;
#X connect 31 0 30 0;
#X connect 32 0 30 0;
#X connect 33 0 31 0;
#X connect 33 1 32 0;
#X connect 34 0 28 0;
#X connect 35 0 28 1;
#X connect 36 0 38 0;
#X connect 37 0 36 0;
#X connect 38 0 39 0;
#X connect 39 0 40 2;
#X connect 40 0 68 0;
#X connect 41 0 45 0;
#X connect 42 0 44 0;
#X connect 43 0 42 0;
#X connect 44 0 66 0;
#X connect 45 0 43 0;
#X connect 46 0 50 0;
#X connect 47 0 49 0;
#X connect 48 0 47 0;
#X connect 49 0 65 0;
#X connect 50 0 48 0;
#X connect 51 0 55 0;
#X connect 52 0 54 0;
#X connect 53 0 52 0;
#X connect 54 0 64 0;
#X connect 55 0 53 0;
#X connect 56 0 18 0;
#X connect 57 0 28 0;
#X connect 58 0 66 0;
#X connect 59 0 65 0;
#X connect 60 0 64 0;
#X connect 61 0 58 0;
#X connect 62 0 59 0;
#X connect 63 0 60 0;
#X connect 67 0 77 0;
#X connect 68 0 34 0;
#X connect 69 0 67 1;
#X connect 70 0 68 1;
#X connect 71 0 98 0;
#X connect 72 0 97 0;
#X connect 73 0 99 0;
#X connect 75 0 76 0;
#X connect 76 0 77 1;
#X connect 77 0 24 0;
#X connect 81 0 6 0;
#X connect 81 1 11 0;
#X connect 82 0 41 0;
#X connect 83 0 46 0;
#X connect 84 0 51 0;
#X connect 85 0 37 0;
#X connect 86 0 4 0;
#X connect 86 0 10 0;
#X connect 86 1 8 0;
#X connect 86 1 81 0;
#X connect 87 0 0 0;
#X connect 87 0 5 0;
#X connect 87 1 1 0;
#X connect 87 1 86 0;
#X connect 88 0 89 0;
#X connect 88 1 87 0;
#X connect 89 0 2 0;
#X connect 90 0 3 0;
#X connect 91 0 24 3;
#X connect 92 0 24 2;
#X connect 93 0 24 1;
#X connect 94 0 34 3;
#X connect 95 0 34 2;
#X connect 96 0 34 1;
#X connect 100 0 101 0;
#X connect 102 0 74 0;
#X connect 103 0 74 0;
#X connect 104 0 74 0;
#X connect 105 0 107 0;
#X connect 106 0 108 0;
#X connect 109 0 33 0;
#X connect 110 0 23 0;
#X coords 0 -1 1 1 60 20 2 400 350;
#X restore 5 303 pd xaxisswitches;
#N canvas 1024 0 1024 716 yaxisswitches 0;
#X msg 401 14 0;
#X msg 433 14 1;
#X msg 465 14 0;
#X obj 405 38 change;
#X floatatom 346 -8 5 0 127 0 - - -;
#X obj 303 203 tgl 15 0 empty empty empty 17 7 0 10 -262144 -1 -1 1
1;
#X obj 345 -28 average 5;
#X obj 344 -48 inlet;
#X obj 4 -91 cnv 15 300 250 empty empty empty 20 12 0 14 -257985 -66577
0;
#X obj 118 125 loadbang;
#X obj 16 211 text3d;
#X msg 59 211 font /home/onyx/beatjazzdir/vera.ttf;
#X obj 17 8 gemhead;
#X msg 16 -14 1;
#X msg 53 -14 0;
#X obj 14 -35 sel 1 0;
#X obj 15 188 colorRGB;
#X msg 126 144 3;
#X obj 59 469 loadbang;
#X obj 36 549 text3d;
#X msg 79 549 font /home/onyx/beatjazzdir/vera.ttf;
#X obj 37 385 gemhead;
#X msg 37 356 1;
#X msg 68 356 0;
#X obj 37 321 sel 1 0;
#X obj 35 526 colorRGB;
#X msg 67 488 3;
#X obj 98 333 / 127;
#X floatatom 120 355 5 0 0 0 - - -;
#X obj 99 312 average 5;
#X obj 98 355 - 2;
#X obj 35 406 translateXYZ -4.5 2 0;
#X obj 97 375 clip -1.51 -1;
#X obj 379 238 spigot;
#X floatatom 385 310 5 0 0 0 - - -;
#X msg 383 329 text \$1;
#X obj 382 290 int;
#X obj 379 266 average 10;
#X obj 117 528 r \$0-xaxisnumupdate;
#X obj 140 167 r \$0-yptext;
#X obj 323 393 s \$0-xaxisnumupdate;
#X msg 396 361 text .;
#X obj 342 361 sel 0 1;
#X obj 35 448 spigot;
#X obj 17 73 spigot;
#X obj 50 50 r \$0-gcut;
#X obj 68 428 r \$0-gcut;
#X obj 15 29 translateXYZ -1.3 1.4 0;
#X obj 408 58 == 1;
#X obj 409 115 s \$0-yptext;
#X obj 46 93 r \$0-preset0;
#X obj 48 113 == 1;
#X obj 16 141 spigot;
#X obj 346 12 moses 3;
#X obj 391 425 outlet;
#X obj 7 165 r \$0-r;
#X obj 48 166 r \$0-g;
#X obj 96 166 r \$0-b;
#X obj 116 508 r \$0-b;
#X obj 116 489 r \$0-g;
#X obj 115 469 r \$0-r;
#X obj 379 217 r \$0-gx;
#X obj 100 293 r \$0-gx;
#X obj 13 -58 r \$0-fkey;
#X obj 41 295 r \$0-fkey;
#X obj 408 77 s \$0-ypara16;
#X obj 410 96 r yp16;
#X obj 410 148 r \$0-ypara16;
#X obj 410 167 s yparam16;
#X obj 418 -30 moses 125;
#X connect 0 0 3 0;
#X connect 1 0 3 0;
#X connect 2 0 3 0;
#X connect 3 0 5 0;
#X connect 3 0 33 1;
#X connect 3 0 48 0;
#X connect 4 0 53 0;
#X connect 5 0 42 0;
#X connect 5 0 54 0;
#X connect 6 0 4 0;
#X connect 7 0 6 0;
#X connect 9 0 11 0;
#X connect 9 0 17 0;
#X connect 11 0 10 0;
#X connect 12 0 47 0;
#X connect 13 0 12 0;
#X connect 14 0 12 0;
#X connect 15 0 13 0;
#X connect 15 1 14 0;
#X connect 16 0 10 0;
#X connect 17 0 10 1;
#X connect 18 0 20 0;
#X connect 18 0 26 0;
#X connect 20 0 19 0;
#X connect 21 0 31 0;
#X connect 22 0 21 0;
#X connect 23 0 21 0;
#X connect 24 0 22 0;
#X connect 24 1 23 0;
#X connect 25 0 19 0;
#X connect 26 0 19 1;
#X connect 27 0 30 0;
#X connect 29 0 27 0;
#X connect 30 0 28 0;
#X connect 30 0 32 0;
#X connect 31 0 43 0;
#X connect 32 0 31 1;
#X connect 33 0 37 0;
#X connect 34 0 35 0;
#X connect 35 0 40 0;
#X connect 36 0 34 0;
#X connect 37 0 36 0;
#X connect 38 0 19 0;
#X connect 39 0 10 0;
#X connect 41 0 40 0;
#X connect 42 0 41 0;
#X connect 43 0 25 0;
#X connect 44 0 52 0;
#X connect 45 0 44 1;
#X connect 46 0 43 1;
#X connect 47 0 44 0;
#X connect 48 0 65 0;
#X connect 50 0 51 0;
#X connect 51 0 52 1;
#X connect 52 0 16 0;
#X connect 53 0 0 0;
#X connect 53 1 69 0;
#X connect 55 0 16 1;
#X connect 56 0 16 2;
#X connect 57 0 16 3;
#X connect 58 0 25 3;
#X connect 59 0 25 2;
#X connect 60 0 25 1;
#X connect 61 0 33 0;
#X connect 62 0 29 0;
#X connect 63 0 15 0;
#X connect 64 0 24 0;
#X connect 66 0 49 0;
#X connect 67 0 68 0;
#X connect 69 0 1 0;
#X connect 69 1 2 0;
#X coords 0 -1 1 1 20 20 2 300 200;
#X restore 3 212 pd yaxisswitches;
#X floatatom 230 16 5 0 0 0 - - -;
#N canvas 1591 216 463 496 z 0;
#X text 116 139 chnl#16;
#X floatatom 224 123 5 0 0 0 - - -;
#X obj 175 172 t b b;
#X obj 175 200 f;
#X obj 175 223 + 1;
#X obj 123 103 tgl 15 0 empty empty empty 17 7 0 10 -262144 -1 -1 0
1;
#X floatatom 143 124 5 0 0 0 - - -;
#X msg 202 200 1;
#X obj 103 103 bng 15 250 50 0 empty empty empty 17 7 0 10 -262144
-1 -1;
#X obj 122 187 outlet;
#X obj 175 147 delay 500;
#X obj 124 51 inlet zflip in;
#X obj 183 101 s moseszflip;
#X floatatom 107 333 5 0 0 0 - - -;
#X obj 176 123 sel 127;
#X obj 125 76 moses 120;
#X connect 2 0 3 0;
#X connect 2 1 7 0;
#X connect 3 0 4 0;
#X connect 4 0 8 0;
#X connect 5 0 9 0;
#X connect 7 0 3 1;
#X connect 8 0 5 0;
#X connect 10 0 2 0;
#X connect 11 0 15 0;
#X connect 14 0 6 0;
#X connect 14 0 10 0;
#X connect 14 1 1 0;
#X connect 15 0 12 0;
#X connect 15 1 14 0;
#X coords 0 -1 1 1 40 20 2 100 100;
#X restore 108 302 pd z flip switch;
#X obj 114 359 r moseszflip;
#X obj 274 23 s \$0-gcut;
#X obj 274 0 inlet;
#X obj 341 0 r preset;
#X obj 341 22 s \$0-preset0;
#X obj 593 452 r \$0-gx1;
#X obj 647 453 r \$0-gy1;
#X obj 702 451 r \$0-gx2;
#X obj 758 452 r \$0-gy1;
#X obj 818 452 r \$0-gx3;
#X obj 873 452 r \$0-gy1;
#X obj -6 404 s \$0-gx;
#X obj 55 402 s \$0-gy;
#X obj 124 404 s \$0-gz;
#X obj -6 425 s \$0-gx1;
#X obj 53 424 s \$0-gx2;
#X obj 116 427 s \$0-gx3;
#X obj -5 447 s \$0-gy1;
#X text 520 22 create an abstraction to create the viz graphics from
the data points below.;
#N canvas 1178 121 642 469 grid 0;
#X obj 26 271 r \$0-1-1;
#X obj 26 210 r \$0-1-2;
#X obj 26 148 r \$0-1-3;
#X obj 26 89 r \$0-1-4;
#X obj 26 28 r \$0-1-5;
#X obj 133 24 r \$0-2-5;
#X obj 133 86 r \$0-2-4;
#X obj 136 148 r \$0-2-3;
#X obj 139 208 r \$0-2-2;
#X obj 137 270 r \$0-2-1;
#X obj 250 271 r \$0-3-1;
#X obj 250 208 r \$0-3-2;
#X obj 246 148 r \$0-3-3;
#X obj 247 88 r \$0-3-4;
#X obj 248 26 r \$0-3-5;
#X obj 355 28 r \$0-4-5;
#X obj 355 88 r \$0-4-4;
#X obj 358 148 r \$0-4-3;
#X obj 362 210 r \$0-4-2;
#X obj 364 272 r \$0-4-1;
#X obj 474 273 r \$0-5-1;
#X obj 470 210 r \$0-5-2;
#X obj 471 148 r \$0-5-3;
#X obj 469 87 r \$0-5-4;
#X obj 466 26 r \$0-5-5;
#X restore 406 -3 pd grid parameters;
#N canvas 0 0 684 417 grid 0;
#X obj 36 281 r \$0-1-1;
#X obj 36 220 r \$0-1-2;
#X obj 36 158 r \$0-1-3;
#X obj 36 99 r \$0-1-4;
#X obj 36 38 r \$0-1-5;
#X obj 143 34 r \$0-2-5;
#X obj 143 96 r \$0-2-4;
#X obj 146 158 r \$0-2-3;
#X obj 149 218 r \$0-2-2;
#X obj 147 280 r \$0-2-1;
#X obj 260 281 r \$0-3-1;
#X obj 260 218 r \$0-3-2;
#X obj 256 158 r \$0-3-3;
#X obj 257 98 r \$0-3-4;
#X obj 258 36 r \$0-3-5;
#X obj 365 38 r \$0-4-5;
#X obj 365 98 r \$0-4-4;
#X obj 368 158 r \$0-4-3;
#X obj 372 220 r \$0-4-2;
#X obj 374 282 r \$0-4-1;
#X obj 484 283 r \$0-5-1;
#X obj 480 220 r \$0-5-2;
#X obj 481 158 r \$0-5-3;
#X obj 479 97 r \$0-5-4;
#X obj 476 36 r \$0-5-5;
#X restore 526 -2 pd grid viz;
#N canvas 0 0 450 300 2bangs 0;
#X obj 158 67 == 1;
#X obj 203 69 == 1;
#X obj 205 98 t b f;
#X obj 189 129 +;
#X floatatom 189 154 5 0 0 0 - - -;
#X obj 190 177 sel 2 1 0;
#X msg 219 214 0;
#X msg 252 216 0;
#X msg 184 214 1;
#X obj 159 36 inlet;
#X obj 208 39 inlet;
#X obj 185 250 outlet;
#X obj 302 253 tgl 15 0 empty empty empty 17 7 0 10 -262144 -1 -1 1
1;
#X connect 0 0 3 0;
#X connect 1 0 2 0;
#X connect 2 0 3 0;
#X connect 2 1 3 1;
#X connect 3 0 4 0;
#X connect 4 0 5 0;
#X connect 5 0 8 0;
#X connect 5 1 6 0;
#X connect 5 2 7 0;
#X connect 6 0 11 0;
#X connect 6 0 12 0;
#X connect 7 0 11 0;
#X connect 7 0 12 0;
#X connect 8 0 11 0;
#X connect 8 0 12 0;
#X connect 9 0 0 0;
#X connect 10 0 1 0;
#X coords 0 -1 1 1 20 20 1 300 250;
#X restore 594 472 pd 2bangs;
#N canvas 0 0 450 300 2bangs 0;
#X obj 158 67 == 1;
#X obj 203 69 == 1;
#X obj 205 98 t b f;
#X obj 189 129 +;
#X floatatom 189 154 5 0 0 0 - - -;
#X obj 190 177 sel 2 1 0;
#X msg 219 214 0;
#X msg 252 216 0;
#X msg 184 214 1;
#X obj 159 36 inlet;
#X obj 208 39 inlet;
#X obj 185 250 outlet;
#X obj 302 253 tgl 15 0 empty empty empty 17 7 0 10 -262144 -1 -1 0
1;
#X connect 0 0 3 0;
#X connect 1 0 2 0;
#X connect 2 0 3 0;
#X connect 2 1 3 1;
#X connect 3 0 4 0;
#X connect 4 0 5 0;
#X connect 5 0 8 0;
#X connect 5 1 6 0;
#X connect 5 2 7 0;
#X connect 6 0 11 0;
#X connect 6 0 12 0;
#X connect 7 0 11 0;
#X connect 7 0 12 0;
#X connect 8 0 11 0;
#X connect 8 0 12 0;
#X connect 9 0 0 0;
#X connect 10 0 1 0;
#X coords 0 -1 1 1 20 20 1 300 250;
#X restore 702 474 pd 2bangs;
#N canvas 0 0 450 300 2bangs 0;
#X obj 158 67 == 1;
#X obj 203 69 == 1;
#X obj 205 98 t b f;
#X obj 189 129 +;
#X floatatom 189 154 5 0 0 0 - - -;
#X obj 190 177 sel 2 1 0;
#X msg 219 214 0;
#X msg 252 216 0;
#X msg 184 214 1;
#X obj 159 36 inlet;
#X obj 208 39 inlet;
#X obj 185 250 outlet;
#X obj 302 253 tgl 15 0 empty empty empty 17 7 0 10 -262144 -1 -1 0
1;
#X connect 0 0 3 0;
#X connect 1 0 2 0;
#X connect 2 0 3 0;
#X connect 2 1 3 1;
#X connect 3 0 4 0;
#X connect 4 0 5 0;
#X connect 5 0 8 0;
#X connect 5 1 6 0;
#X connect 5 2 7 0;
#X connect 6 0 11 0;
#X connect 6 0 12 0;
#X connect 7 0 11 0;
#X connect 7 0 12 0;
#X connect 8 0 11 0;
#X connect 8 0 12 0;
#X connect 9 0 0 0;
#X connect 10 0 1 0;
#X coords 0 -1 1 1 20 20 1 300 250;
#X restore 818 474 pd 2bangs;
#X obj 224 200 r \$0-gx;
#X obj 230 265 hsl 128 15 0 127 0 0 empty empty empty -2 -8 0 10 -262144
-1 -1 100 1;
#X obj 223 181 r \$0-gy;
#X obj 207 202 vsl 15 128 0 127 0 0 empty empty empty 0 -9 0 10 -262144
-1 -1 12700 1;
#X obj 115 130 s \$0-r;
#X obj 161 131 s \$0-g;
#X obj 205 131 s \$0-b;
#X floatatom 230 78 5 0 0 0 - - -;
#X obj 174 83 * 127;
#X obj 278 70 s \$0-fkey;
#X obj 820 502 s 1pup;
#X obj 705 497 s 1pcent;
#X obj 596 499 s 1pdwn;
#X obj 277 49 r fkey2;
#X obj 6 330 s 4x1x;
#X obj 43 330 s 4x1y;
#X obj 123 330 s 4x1z;
#X obj 319 205 s 4gx;
#X obj 318 224 s 4gy;
#X connect 3 0 14 0;
#X connect 4 0 15 0;
#X connect 5 0 0 0;
#X connect 5 0 19 0;
#X connect 5 0 34 0;
#X connect 5 0 61 0;
#X connect 5 1 1 0;
#X connect 5 1 20 0;
#X connect 5 1 35 0;
#X connect 5 1 62 0;
#X connect 6 0 5 0;
#X connect 7 0 6 0;
#X connect 8 0 3 0;
#X connect 8 0 51 0;
#X connect 8 1 4 0;
#X connect 8 1 52 0;
#X connect 8 2 54 0;
#X connect 8 2 55 0;
#X connect 8 2 53 0;
#X connect 9 0 8 0;
#X connect 10 0 2 0;
#X connect 10 0 22 0;
#X connect 12 0 9 1;
#X connect 13 0 17 0;
#X connect 14 0 7 0;
#X connect 15 0 7 1;
#X connect 16 0 10 0;
#X connect 17 0 9 0;
#X connect 18 0 17 1;
#X connect 18 0 21 0;
#X connect 19 0 37 0;
#X connect 19 1 38 0;
#X connect 19 2 39 0;
#X connect 20 0 40 0;
#X connect 22 0 63 0;
#X connect 23 0 11 0;
#X connect 23 0 36 0;
#X connect 23 0 63 0;
#X connect 25 0 24 0;
#X connect 26 0 27 0;
#X connect 28 0 44 0;
#X connect 29 0 44 1;
#X connect 30 0 45 0;
#X connect 31 0 45 1;
#X connect 32 0 46 0;
#X connect 33 0 46 1;
#X connect 44 0 59 0;
#X connect 45 0 58 0;
#X connect 46 0 57 0;
#X connect 47 0 48 0;
#X connect 47 0 64 0;
#X connect 49 0 50 0;
#X connect 49 0 65 0;
#X connect 55 0 16 0;
#X connect 60 0 56 0;
#X coords 0 -1 1 1 160 120 1 0 205;
