#N canvas 0 0 1024 716 10;
#X floatatom 327 283 5 0 0 0 - - -;
#X floatatom 197 337 5 0 0 0 - - -;
#X floatatom 390 315 5 0 0 0 - - -;
#X obj 74 83 * 127;
#X obj 120 82 * 127;
#X obj 65 212 grid grid2 85 1 127 85 1 127 1 1 1 1 5 354 35;
#X msg 56 175 goto \$1 \$2;
#X obj 56 138 pack 1 1;
#X obj 89 51 unpack f f f;
#X obj 87 27 spigot;
#X obj 372 201 vsl 15 127 1 127 0 0 empty empty empty 0 -9 0 10 -262144
-1 -1 0 1;
#X floatatom 117 381 5 0 0 0 - - -;
#X obj 153 3 inlet;
#X obj 87 -39 r xlrmtr1;
#N canvas 0 0 303 384 rangex 0;
#X obj 106 72 clip 36 96;
#X floatatom 107 102 5 0 0 0 - - -;
#X obj 107 124 - 36;
#X floatatom 108 151 5 0 0 0 - - -;
#X floatatom 109 224 5 0 0 0 - - -;
#X obj 109 196 int;
#X obj 108 176 * 2.2;
#X obj 109 247 clip 0 127;
#X floatatom 112 280 5 0 0 0 - - -;
#X text 146 100 range multiplier;
#X obj 107 40 inlet;
#X obj 115 317 outlet;
#X connect 0 0 1 0;
#X connect 1 0 2 0;
#X connect 2 0 3 0;
#X connect 3 0 6 0;
#X connect 4 0 7 0;
#X connect 5 0 4 0;
#X connect 6 0 5 0;
#X connect 7 0 8 0;
#X connect 8 0 11 0;
#X connect 10 0 0 0;
#X restore 47 109 pd rangex;
#N canvas 0 0 303 384 rangex 0;
#X obj 106 72 clip 36 96;
#X floatatom 107 102 5 0 0 0 - - -;
#X obj 107 124 - 36;
#X floatatom 108 151 5 0 0 0 - - -;
#X floatatom 109 224 5 0 0 0 - - -;
#X obj 109 196 int;
#X obj 108 176 * 2.2;
#X obj 109 247 clip 0 127;
#X floatatom 112 280 5 0 0 0 - - -;
#X text 146 100 range multiplier;
#X obj 107 40 inlet;
#X obj 115 317 outlet;
#X connect 0 0 1 0;
#X connect 1 0 2 0;
#X connect 2 0 3 0;
#X connect 3 0 6 0;
#X connect 4 0 7 0;
#X connect 5 0 4 0;
#X connect 6 0 5 0;
#X connect 7 0 8 0;
#X connect 8 0 11 0;
#X connect 10 0 0 0;
#X restore 113 109 pd rangex;
#N canvas 1265 221 303 384 rangex 0;
#X obj 106 72 clip 36 96;
#X floatatom 107 102 5 0 0 0 - - -;
#X obj 107 124 - 36;
#X floatatom 108 151 5 0 0 0 - - -;
#X floatatom 109 224 5 0 0 0 - - -;
#X obj 109 196 int;
#X obj 108 176 * 2.2;
#X obj 109 247 clip 0 127;
#X floatatom 112 280 5 0 0 0 - - -;
#X text 146 100 range multiplier;
#X obj 107 40 inlet;
#X obj 115 317 outlet;
#X connect 0 0 1 0;
#X connect 1 0 2 0;
#X connect 2 0 3 0;
#X connect 3 0 6 0;
#X connect 4 0 7 0;
#X connect 5 0 4 0;
#X connect 6 0 5 0;
#X connect 7 0 8 0;
#X connect 8 0 11 0;
#X connect 10 0 0 0;
#X restore 186 110 pd rangex;
#X obj 89 -8 spigot;
#X obj 153 -37 r stop1;
#N canvas 0 51 1016 648 xaxisswitches 0;
#X obj 38 329 cnv 15 300 250 empty empty empty 20 12 0 14 -257985 -66577
0;
#X obj 124 480 loadbang;
#X obj 47 565 text3d;
#X msg 89 566 font /home/onyx/beatjazzdir/vera.ttf;
#X obj 49 397 gemhead;
#X msg 49 377 1;
#X msg 80 379 0;
#X obj 49 355 sel 1 0;
#X obj 47 544 colorRGB;
#X msg 124 499 3;
#X obj 95 169 loadbang;
#X obj 36 257 text3d;
#X msg 79 257 font /home/onyx/beatjazzdir/vera.ttf;
#X obj 38 129 gemhead;
#X msg 38 100 1;
#X msg 69 100 0;
#X obj 38 77 sel 1 0;
#X obj 36 234 colorRGB;
#X msg 103 188 3;
#X obj 125 83 / 127;
#X obj 122 62 average 10;
#X obj 125 105 + 0.25;
#X obj 125 127 clip 0.65 1.15;
#X obj 227 526 r \$0-xptext;
#X obj 174 232 r \$0-yaxisnumupdate;
#X obj 49 458 spigot;
#X obj 35 201 spigot;
#X obj 83 436 r \$0-gcut;
#X obj 35 170 r \$0-gcut;
#X obj 44 480 r \$0-preset0;
#X obj 47 523 spigot;
#X obj 121 41 r \$0-gy;
#X obj 180 525 r \$0-b;
#X obj 179 506 r \$0-g;
#X obj 178 487 r \$0-r;
#X obj 130 231 r \$0-b;
#X obj 130 211 r \$0-g;
#X obj 131 191 r \$0-r;
#X msg 479 186 1;
#X msg 511 186 0;
#X obj 457 213 change;
#X floatatom 389 124 5 0 127 0 - - -;
#X obj 407 352 tgl 15 0 empty empty empty 17 7 0 10 -262144 -1 -1 1
1;
#X obj 388 74 inlet;
#X obj 392 456 spigot;
#X floatatom 397 521 5 0 0 0 - - -;
#X obj 396 499 int;
#X msg 396 541 text \$1;
#X obj 393 478 average 10;
#X msg 438 409 text .;
#X obj 384 409 sel 0 1;
#X obj 356 571 s \$0-yaxisnumupdate;
#X obj 458 232 == 1;
#X obj 493 295 s \$0-xptext;
#X obj 360 592 outlet;
#X obj 388 435 r \$0-gy;
#X msg 443 180 0;
#X obj 388 99 average 5;
#X obj 458 251 s \$0-xpara7;
#X obj 493 273 r xp7;
#X obj 501 320 r \$0-xpara7;
#X obj 499 339 s xparam7;
#X obj 38 55 r \$0-fkey;
#X obj 49 332 r \$0-fkey;
#X obj 44 500 == 3;
#X obj 49 417 translateXYZ -2.5 0.4 0;
#X obj 36 150 translateXYZ -0.9 0.4 0;
#X obj 465 146 moses 125;
#X obj 391 148 moses 3;
#X connect 1 0 3 0;
#X connect 1 0 9 0;
#X connect 3 0 2 0;
#X connect 4 0 65 0;
#X connect 5 0 4 0;
#X connect 6 0 4 0;
#X connect 7 0 5 0;
#X connect 7 1 6 0;
#X connect 8 0 2 0;
#X connect 9 0 2 1;
#X connect 10 0 12 0;
#X connect 10 0 18 0;
#X connect 12 0 11 0;
#X connect 13 0 66 0;
#X connect 14 0 13 0;
#X connect 15 0 13 0;
#X connect 16 0 14 0;
#X connect 16 1 15 0;
#X connect 17 0 11 0;
#X connect 18 0 11 1;
#X connect 19 0 21 0;
#X connect 20 0 19 0;
#X connect 21 0 22 0;
#X connect 22 0 66 2;
#X connect 23 0 2 0;
#X connect 24 0 11 0;
#X connect 25 0 30 0;
#X connect 26 0 17 0;
#X connect 27 0 25 1;
#X connect 28 0 26 1;
#X connect 29 0 64 0;
#X connect 30 0 8 0;
#X connect 31 0 20 0;
#X connect 32 0 8 3;
#X connect 33 0 8 2;
#X connect 34 0 8 1;
#X connect 35 0 17 3;
#X connect 36 0 17 2;
#X connect 37 0 17 1;
#X connect 38 0 40 0;
#X connect 39 0 40 0;
#X connect 40 0 42 0;
#X connect 40 0 52 0;
#X connect 41 0 68 0;
#X connect 42 0 44 1;
#X connect 42 0 50 0;
#X connect 42 0 54 0;
#X connect 43 0 57 0;
#X connect 44 0 48 0;
#X connect 45 0 47 0;
#X connect 46 0 45 0;
#X connect 47 0 51 0;
#X connect 48 0 46 0;
#X connect 49 0 51 0;
#X connect 50 0 49 0;
#X connect 52 0 58 0;
#X connect 55 0 44 0;
#X connect 56 0 40 0;
#X connect 57 0 41 0;
#X connect 59 0 53 0;
#X connect 60 0 61 0;
#X connect 62 0 16 0;
#X connect 63 0 7 0;
#X connect 64 0 30 1;
#X connect 65 0 25 0;
#X connect 66 0 26 0;
#X connect 67 0 38 0;
#X connect 67 1 39 0;
#X connect 68 0 56 0;
#X connect 68 1 67 0;
#X coords 0 -1 1 1 60 20 2 400 350;
#X restore 5 303 pd xaxisswitches;
#N canvas 0 20 1024 716 yaxisswitches 0;
#X msg 376 26 0;
#X msg 408 26 1;
#X msg 440 26 0;
#X obj 386 53 change;
#X floatatom 320 -32 5 0 127 0 - - -;
#X msg 511 24 1;
#X obj 578 -12 moses 80;
#X msg 483 25 0;
#X msg 614 24 1;
#X obj 488 50 change;
#X msg 541 24 0;
#X obj 584 47 change;
#X msg 584 24 0;
#X msg 644 25 0;
#X obj 675 -13 moses 100;
#X msg 727 28 1;
#X msg 698 29 0;
#X msg 754 28 0;
#X obj 701 51 change;
#X msg 825 22 1;
#X msg 796 23 0;
#X msg 852 22 0;
#X obj 799 45 change;
#X obj 773 -14 moses 127;
#X obj 321 218 tgl 15 0 empty empty empty 17 7 0 10 -262144 -1 -1 0
1;
#X obj 321 235 tgl 15 0 empty empty empty 17 7 0 10 -262144 -1 -1 0
1;
#X obj 322 252 tgl 15 0 empty empty empty 17 7 0 10 -262144 -1 -1 0
1;
#X obj 322 268 tgl 15 0 empty empty empty 17 7 0 10 -262144 -1 -1 0
1;
#X obj 321 203 tgl 15 0 empty empty empty 17 7 0 10 -262144 -1 -1 1
1;
#X obj 319 -52 average 5;
#X obj 318 -72 inlet;
#X obj 394 -14 moses 30;
#X obj 4 -91 cnv 15 300 250 empty empty empty 20 12 0 14 -257985 -66577
0;
#X obj 104 127 loadbang;
#X obj 17 211 text3d;
#X msg 59 211 font /home/onyx/beatjazzdir/vera.ttf;
#X obj 17 10 gemhead;
#X msg 17 -12 1;
#X msg 53 -14 0;
#X obj 17 -33 sel 1 0;
#X obj 17 187 colorRGB;
#X msg 103 146 3;
#X obj 60 462 loadbang;
#X obj 36 549 text3d;
#X msg 79 549 font /home/onyx/beatjazzdir/vera.ttf;
#X obj 38 371 gemhead;
#X msg 38 341 1;
#X msg 69 342 0;
#X obj 38 320 sel 1 0;
#X obj 35 526 colorRGB;
#X msg 68 481 3;
#X obj 99 322 / 127;
#X floatatom 123 343 5 0 0 0 - - -;
#X obj 100 301 average 5;
#X obj 99 342 - 2;
#X obj 99 366 clip -1.51 -1;
#X obj 474 296 spigot;
#X obj 625 290 spigot;
#X floatatom 476 364 5 0 0 0 - - -;
#X msg 477 386 text \$1;
#X floatatom 631 362 5 0 0 0 - - -;
#X msg 629 381 text \$1;
#X obj 475 344 int;
#X obj 628 342 int;
#X obj 472 325 average 10;
#X obj 626 315 average 10;
#X obj 742 296 spigot;
#X obj 848 293 spigot;
#X floatatom 744 364 5 0 0 0 - - -;
#X msg 745 386 text \$1;
#X floatatom 854 365 5 0 0 0 - - -;
#X msg 852 384 text \$1;
#X obj 743 344 int;
#X obj 851 345 int;
#X obj 740 325 average 10;
#X obj 848 321 average 10;
#X obj 370 295 spigot;
#X floatatom 376 367 5 0 0 0 - - -;
#X msg 374 386 text \$1;
#X obj 373 347 int;
#X obj 370 323 average 10;
#X obj 115 522 r \$0-xaxisnumupdate;
#X obj 103 167 r \$0-yptext;
#X obj 848 443 s \$0-xaxisnumupdate;
#X obj 715 448 s \$0-xaxisnumupdate;
#X obj 567 449 s \$0-xaxisnumupdate;
#X obj 442 450 s \$0-xaxisnumupdate;
#X obj 314 450 s \$0-xaxisnumupdate;
#X msg 387 418 text .;
#X msg 482 419 text .;
#X msg 598 420 text .;
#X msg 745 420 text .;
#X msg 858 415 text .;
#X obj 333 418 sel 0 1;
#X obj 431 417 sel 0 1;
#X obj 545 419 sel 0 1;
#X obj 692 416 sel 0 1;
#X obj 802 416 sel 0 1;
#X obj 35 437 spigot;
#X obj 17 73 spigot;
#X obj 48 51 r \$0-gcut;
#X obj 68 415 r \$0-gcut;
#X obj 17 31 translateXYZ -1.3 1.4 0;
#X obj 488 70 == 1;
#X obj 388 72 == 1;
#X obj 585 66 == 1;
#X obj 701 70 == 1;
#X obj 801 67 == 1;
#X obj 803 137 s \$0-yptext;
#X obj 703 134 s \$0-yptext;
#X obj 586 133 s \$0-yptext;
#X obj 488 134 s \$0-yptext;
#X obj 387 137 s \$0-yptext;
#X obj 61 88 r \$0-preset0;
#X obj 17 139 spigot;
#X obj 320 -12 moses 3;
#X obj 488 -11 moses 55;
#X obj 382 482 outlet;
#X obj 495 485 outlet;
#X obj 605 487 outlet;
#X obj 710 487 outlet;
#X obj 815 491 outlet;
#X obj 60 128 r \$0-r;
#X obj 60 147 r \$0-g;
#X obj 58 166 r \$0-b;
#X obj 117 502 r \$0-b;
#X obj 116 482 r \$0-g;
#X obj 116 462 r \$0-r;
#X obj 370 274 r \$0-gx;
#X obj 473 275 r \$0-gx;
#X obj 625 269 r \$0-gx;
#X obj 741 275 r \$0-gx;
#X obj 848 272 r \$0-gx;
#X obj 101 282 r \$0-gx;
#X obj 387 92 s \$0-ypara11;
#X obj 388 118 r yp11;
#X obj 490 168 r \$0-ypara11;
#X obj 493 190 s yparam11;
#X obj 570 190 s yparam12;
#X obj 566 168 r \$0-ypara12;
#X obj 487 115 r yp12;
#X obj 488 90 s \$0-ypara12;
#X obj 585 86 s \$0-ypara13;
#X obj 587 114 r yp13;
#X obj 637 169 r \$0-ypara13;
#X obj 639 190 s yparam13;
#X obj 715 191 s yparam14;
#X obj 712 169 r \$0-ypara14;
#X obj 701 114 r yp14;
#X obj 701 89 s \$0-ypara14;
#X obj 801 87 s \$0-ypara115;
#X obj 801 118 r yp15;
#X obj 788 169 r \$0-ypara15;
#X obj 791 190 s yparam15;
#X obj 17 -53 r \$0-fkey;
#X obj 38 299 r \$0-fkey;
#X obj 62 107 == 3;
#X obj 36 392 translateXYZ -4.5 1.6 0;
#X connect 0 0 3 0;
#X connect 1 0 3 0;
#X connect 2 0 3 0;
#X connect 3 0 27 0;
#X connect 3 0 76 1;
#X connect 3 0 104 0;
#X connect 4 0 115 0;
#X connect 5 0 9 0;
#X connect 6 0 8 0;
#X connect 6 0 16 0;
#X connect 6 1 13 0;
#X connect 6 1 14 0;
#X connect 7 0 9 0;
#X connect 8 0 11 0;
#X connect 9 0 26 0;
#X connect 9 0 56 1;
#X connect 9 0 103 0;
#X connect 10 0 9 0;
#X connect 11 0 25 0;
#X connect 11 0 57 1;
#X connect 11 0 105 0;
#X connect 12 0 11 0;
#X connect 13 0 11 0;
#X connect 14 0 15 0;
#X connect 14 0 20 0;
#X connect 14 1 17 0;
#X connect 14 1 23 0;
#X connect 15 0 18 0;
#X connect 16 0 18 0;
#X connect 17 0 18 0;
#X connect 18 0 24 0;
#X connect 18 0 66 1;
#X connect 18 0 106 0;
#X connect 19 0 22 0;
#X connect 20 0 22 0;
#X connect 21 0 22 0;
#X connect 22 0 28 0;
#X connect 22 0 67 1;
#X connect 22 0 107 0;
#X connect 23 0 19 0;
#X connect 23 1 21 0;
#X connect 24 0 96 0;
#X connect 24 0 120 0;
#X connect 25 0 95 0;
#X connect 25 0 119 0;
#X connect 26 0 94 0;
#X connect 26 0 118 0;
#X connect 27 0 93 0;
#X connect 27 0 117 0;
#X connect 28 0 97 0;
#X connect 28 0 121 0;
#X connect 29 0 4 0;
#X connect 30 0 29 0;
#X connect 31 0 7 0;
#X connect 31 0 1 0;
#X connect 31 1 2 0;
#X connect 31 1 116 0;
#X connect 33 0 35 0;
#X connect 33 0 41 0;
#X connect 35 0 34 0;
#X connect 36 0 102 0;
#X connect 37 0 36 0;
#X connect 38 0 36 0;
#X connect 39 0 37 0;
#X connect 39 1 38 0;
#X connect 40 0 34 0;
#X connect 41 0 34 1;
#X connect 42 0 44 0;
#X connect 42 0 50 0;
#X connect 44 0 43 0;
#X connect 45 0 157 0;
#X connect 46 0 45 0;
#X connect 47 0 45 0;
#X connect 48 0 46 0;
#X connect 48 1 47 0;
#X connect 49 0 43 0;
#X connect 50 0 43 1;
#X connect 51 0 54 0;
#X connect 53 0 51 0;
#X connect 54 0 52 0;
#X connect 54 0 55 0;
#X connect 55 0 157 1;
#X connect 56 0 64 0;
#X connect 57 0 65 0;
#X connect 58 0 59 0;
#X connect 59 0 86 0;
#X connect 60 0 61 0;
#X connect 61 0 85 0;
#X connect 62 0 58 0;
#X connect 63 0 60 0;
#X connect 64 0 62 0;
#X connect 65 0 63 0;
#X connect 66 0 74 0;
#X connect 67 0 75 0;
#X connect 68 0 69 0;
#X connect 69 0 84 0;
#X connect 70 0 71 0;
#X connect 71 0 83 0;
#X connect 72 0 68 0;
#X connect 73 0 70 0;
#X connect 74 0 72 0;
#X connect 75 0 73 0;
#X connect 76 0 80 0;
#X connect 77 0 78 0;
#X connect 78 0 87 0;
#X connect 79 0 77 0;
#X connect 80 0 79 0;
#X connect 81 0 43 0;
#X connect 82 0 34 0;
#X connect 88 0 87 0;
#X connect 89 0 86 0;
#X connect 90 0 85 0;
#X connect 91 0 84 0;
#X connect 92 0 83 0;
#X connect 93 0 88 0;
#X connect 94 0 89 0;
#X connect 95 0 90 0;
#X connect 96 0 91 0;
#X connect 97 0 92 0;
#X connect 98 0 49 0;
#X connect 99 0 114 0;
#X connect 100 0 99 1;
#X connect 101 0 98 1;
#X connect 102 0 99 0;
#X connect 103 0 141 0;
#X connect 104 0 134 0;
#X connect 105 0 142 0;
#X connect 106 0 149 0;
#X connect 107 0 150 0;
#X connect 113 0 156 0;
#X connect 114 0 40 0;
#X connect 115 0 0 0;
#X connect 115 1 31 0;
#X connect 116 0 5 0;
#X connect 116 0 12 0;
#X connect 116 1 6 0;
#X connect 116 1 10 0;
#X connect 122 0 40 1;
#X connect 123 0 40 2;
#X connect 124 0 40 3;
#X connect 125 0 49 3;
#X connect 126 0 49 2;
#X connect 127 0 49 1;
#X connect 128 0 76 0;
#X connect 129 0 56 0;
#X connect 130 0 57 0;
#X connect 131 0 66 0;
#X connect 132 0 67 0;
#X connect 133 0 53 0;
#X connect 135 0 112 0;
#X connect 136 0 137 0;
#X connect 139 0 138 0;
#X connect 140 0 111 0;
#X connect 143 0 110 0;
#X connect 144 0 145 0;
#X connect 147 0 146 0;
#X connect 148 0 109 0;
#X connect 151 0 108 0;
#X connect 152 0 153 0;
#X connect 154 0 39 0;
#X connect 155 0 48 0;
#X connect 156 0 114 1;
#X connect 157 0 98 0;
#X coords 0 -1 1 1 60 85 2 300 200;
#X restore 3 212 pd yaxisswitches;
#X floatatom 230 16 5 0 0 0 - - -;
#N canvas 1591 216 463 496 z 0;
#X text 116 139 chnl#16;
#X floatatom 224 123 5 0 0 0 - - -;
#X obj 175 172 t b b;
#X obj 175 200 f;
#X obj 175 223 + 1;
#X obj 123 103 tgl 15 0 empty empty empty 17 7 0 10 -262144 -1 -1 0
1;
#X floatatom 143 124 5 0 0 0 - - -;
#X msg 202 200 1;
#X obj 103 103 bng 15 250 50 0 empty empty empty 17 7 0 10 -262144
-1 -1;
#X obj 122 187 outlet;
#X obj 175 147 delay 500;
#X obj 124 51 inlet zflip in;
#X obj 183 101 s moseszflip;
#X floatatom 107 333 5 0 0 0 - - -;
#X obj 176 123 sel 127;
#X obj 125 76 moses 120;
#X connect 2 0 3 0;
#X connect 2 1 7 0;
#X connect 3 0 4 0;
#X connect 4 0 8 0;
#X connect 5 0 9 0;
#X connect 7 0 3 1;
#X connect 8 0 5 0;
#X connect 10 0 2 0;
#X connect 11 0 15 0;
#X connect 14 0 6 0;
#X connect 14 0 10 0;
#X connect 14 1 1 0;
#X connect 15 0 12 0;
#X connect 15 1 14 0;
#X coords 0 -1 1 1 40 20 2 100 100;
#X restore 108 302 pd z flip switch;
#X obj 114 359 r moseszflip;
#X obj 274 23 s \$0-gcut;
#X obj 274 0 inlet;
#X obj 341 0 r preset;
#X obj 341 22 s \$0-preset0;
#X obj 593 452 r \$0-gx1;
#X obj 647 453 r \$0-gy1;
#X obj 592 392 r \$0-gx1;
#X obj 647 392 r \$0-gy2;
#X obj 593 332 r \$0-gx1;
#X obj 591 271 r \$0-gx1;
#X obj 594 201 r \$0-gx1;
#X obj 648 332 r \$0-gy3;
#X obj 646 271 r \$0-gy4;
#X obj 649 201 r \$0-gy5;
#X obj -6 404 s \$0-gx;
#X obj 55 402 s \$0-gy;
#X obj 109 402 s \$0-gz;
#X obj -6 425 s \$0-gx1;
#X obj 247 488 s \$0-gy1;
#X obj 245 466 s \$0-gy2;
#X obj 247 443 s \$0-gy3;
#X obj 248 419 s \$0-gy4;
#X obj 249 393 s \$0-gy5;
#X text 520 22 create an abstraction to create the viz graphics from
the data points below.;
#N canvas 1178 121 642 469 grid 0;
#X obj 26 271 r \$0-1-1;
#X obj 26 210 r \$0-1-2;
#X obj 26 148 r \$0-1-3;
#X obj 26 89 r \$0-1-4;
#X obj 26 28 r \$0-1-5;
#X obj 133 24 r \$0-2-5;
#X obj 133 86 r \$0-2-4;
#X obj 136 148 r \$0-2-3;
#X obj 139 208 r \$0-2-2;
#X obj 137 270 r \$0-2-1;
#X obj 250 271 r \$0-3-1;
#X obj 250 208 r \$0-3-2;
#X obj 246 148 r \$0-3-3;
#X obj 247 88 r \$0-3-4;
#X obj 248 26 r \$0-3-5;
#X obj 355 28 r \$0-4-5;
#X obj 355 88 r \$0-4-4;
#X obj 358 148 r \$0-4-3;
#X obj 362 210 r \$0-4-2;
#X obj 364 272 r \$0-4-1;
#X obj 474 273 r \$0-5-1;
#X obj 470 210 r \$0-5-2;
#X obj 471 148 r \$0-5-3;
#X obj 469 87 r \$0-5-4;
#X obj 466 26 r \$0-5-5;
#X restore 406 -3 pd grid parameters;
#N canvas 0 0 684 417 grid 0;
#X obj 36 281 r \$0-1-1;
#X obj 36 220 r \$0-1-2;
#X obj 36 158 r \$0-1-3;
#X obj 36 99 r \$0-1-4;
#X obj 36 38 r \$0-1-5;
#X obj 143 34 r \$0-2-5;
#X obj 143 96 r \$0-2-4;
#X obj 146 158 r \$0-2-3;
#X obj 149 218 r \$0-2-2;
#X obj 147 280 r \$0-2-1;
#X obj 260 281 r \$0-3-1;
#X obj 260 218 r \$0-3-2;
#X obj 256 158 r \$0-3-3;
#X obj 257 98 r \$0-3-4;
#X obj 258 36 r \$0-3-5;
#X obj 365 38 r \$0-4-5;
#X obj 365 98 r \$0-4-4;
#X obj 368 158 r \$0-4-3;
#X obj 372 220 r \$0-4-2;
#X obj 374 282 r \$0-4-1;
#X obj 484 283 r \$0-5-1;
#X obj 480 220 r \$0-5-2;
#X obj 481 158 r \$0-5-3;
#X obj 479 97 r \$0-5-4;
#X obj 476 36 r \$0-5-5;
#X restore 526 -2 pd grid viz;
#N canvas 0 0 450 300 2bangs 0;
#X obj 158 67 == 1;
#X obj 203 69 == 1;
#X obj 205 98 t b f;
#X obj 189 129 +;
#X floatatom 189 154 5 0 0 0 - - -;
#X obj 190 177 sel 2 1 0;
#X msg 219 214 0;
#X msg 252 216 0;
#X msg 184 214 1;
#X obj 159 36 inlet;
#X obj 208 39 inlet;
#X obj 185 250 outlet;
#X obj 302 253 tgl 15 0 empty empty empty 17 7 0 10 -262144 -1 -1 0
1;
#X connect 0 0 3 0;
#X connect 1 0 2 0;
#X connect 2 0 3 0;
#X connect 2 1 3 1;
#X connect 3 0 4 0;
#X connect 4 0 5 0;
#X connect 5 0 8 0;
#X connect 5 1 6 0;
#X connect 5 2 7 0;
#X connect 6 0 11 0;
#X connect 6 0 12 0;
#X connect 7 0 11 0;
#X connect 7 0 12 0;
#X connect 8 0 11 0;
#X connect 8 0 12 0;
#X connect 9 0 0 0;
#X connect 10 0 1 0;
#X coords 0 -1 1 1 20 20 1 300 250;
#X restore 594 472 pd 2bangs;
#N canvas 0 0 450 300 2bangs 0;
#X obj 158 67 == 1;
#X obj 203 69 == 1;
#X obj 205 98 t b f;
#X obj 189 129 +;
#X floatatom 189 154 5 0 0 0 - - -;
#X obj 190 177 sel 2 1 0;
#X msg 219 214 0;
#X msg 252 216 0;
#X msg 184 214 1;
#X obj 159 36 inlet;
#X obj 208 39 inlet;
#X obj 185 250 outlet;
#X obj 302 253 tgl 15 0 empty empty empty 17 7 0 10 -262144 -1 -1 0
1;
#X connect 0 0 3 0;
#X connect 1 0 2 0;
#X connect 2 0 3 0;
#X connect 2 1 3 1;
#X connect 3 0 4 0;
#X connect 4 0 5 0;
#X connect 5 0 8 0;
#X connect 5 1 6 0;
#X connect 5 2 7 0;
#X connect 6 0 11 0;
#X connect 6 0 12 0;
#X connect 7 0 11 0;
#X connect 7 0 12 0;
#X connect 8 0 11 0;
#X connect 8 0 12 0;
#X connect 9 0 0 0;
#X connect 10 0 1 0;
#X coords 0 -1 1 1 20 20 1 300 250;
#X restore 593 412 pd 2bangs;
#N canvas 0 0 450 300 2bangs 0;
#X obj 158 67 == 1;
#X obj 203 69 == 1;
#X obj 205 98 t b f;
#X obj 189 129 +;
#X floatatom 189 154 5 0 0 0 - - -;
#X obj 190 177 sel 2 1 0;
#X msg 219 214 0;
#X msg 252 216 0;
#X msg 184 214 1;
#X obj 159 36 inlet;
#X obj 208 39 inlet;
#X obj 185 250 outlet;
#X obj 302 253 tgl 15 0 empty empty empty 17 7 0 10 -262144 -1 -1 0
1;
#X connect 0 0 3 0;
#X connect 1 0 2 0;
#X connect 2 0 3 0;
#X connect 2 1 3 1;
#X connect 3 0 4 0;
#X connect 4 0 5 0;
#X connect 5 0 8 0;
#X connect 5 1 6 0;
#X connect 5 2 7 0;
#X connect 6 0 11 0;
#X connect 6 0 12 0;
#X connect 7 0 11 0;
#X connect 7 0 12 0;
#X connect 8 0 11 0;
#X connect 8 0 12 0;
#X connect 9 0 0 0;
#X connect 10 0 1 0;
#X coords 0 -1 1 1 20 20 1 300 250;
#X restore 598 350 pd 2bangs;
#N canvas 0 0 450 300 2bangs 0;
#X obj 158 67 == 1;
#X obj 203 69 == 1;
#X obj 205 98 t b f;
#X obj 189 129 +;
#X floatatom 189 154 5 0 0 0 - - -;
#X obj 190 177 sel 2 1 0;
#X msg 219 214 0;
#X msg 252 216 0;
#X msg 184 214 1;
#X obj 159 36 inlet;
#X obj 208 39 inlet;
#X obj 185 250 outlet;
#X obj 302 253 tgl 15 0 empty empty empty 17 7 0 10 -262144 -1 -1 0
1;
#X connect 0 0 3 0;
#X connect 1 0 2 0;
#X connect 2 0 3 0;
#X connect 2 1 3 1;
#X connect 3 0 4 0;
#X connect 4 0 5 0;
#X connect 5 0 8 0;
#X connect 5 1 6 0;
#X connect 5 2 7 0;
#X connect 6 0 11 0;
#X connect 6 0 12 0;
#X connect 7 0 11 0;
#X connect 7 0 12 0;
#X connect 8 0 11 0;
#X connect 8 0 12 0;
#X connect 9 0 0 0;
#X connect 10 0 1 0;
#X coords 0 -1 1 1 20 20 1 300 250;
#X restore 593 290 pd 2bangs;
#N canvas 0 0 450 300 2bangs 0;
#X obj 158 67 == 1;
#X obj 203 69 == 1;
#X obj 205 98 t b f;
#X obj 189 129 +;
#X floatatom 189 154 5 0 0 0 - - -;
#X obj 190 177 sel 2 1 0;
#X msg 219 214 0;
#X msg 252 216 0;
#X msg 184 214 1;
#X obj 159 36 inlet;
#X obj 208 39 inlet;
#X obj 185 250 outlet;
#X obj 302 253 tgl 15 0 empty empty empty 17 7 0 10 -262144 -1 -1 1
1;
#X connect 0 0 3 0;
#X connect 1 0 2 0;
#X connect 2 0 3 0;
#X connect 2 1 3 1;
#X connect 3 0 4 0;
#X connect 4 0 5 0;
#X connect 5 0 8 0;
#X connect 5 1 6 0;
#X connect 5 2 7 0;
#X connect 6 0 11 0;
#X connect 6 0 12 0;
#X connect 7 0 11 0;
#X connect 7 0 12 0;
#X connect 8 0 11 0;
#X connect 8 0 12 0;
#X connect 9 0 0 0;
#X connect 10 0 1 0;
#X coords 0 -1 1 1 20 20 1 300 250;
#X restore 599 224 pd 2bangs;
#X obj 224 200 r \$0-gx;
#X obj 230 265 hsl 128 15 0 127 0 0 empty empty empty -2 -8 0 10 -262144
-1 -1 12700 1;
#X obj 223 181 r \$0-gy;
#X obj 207 202 vsl 15 128 0 127 0 0 empty empty empty 0 -9 0 10 -262144
-1 -1 12700 1;
#X obj 122 137 s \$0-r;
#X obj 166 137 s \$0-g;
#X obj 206 137 s \$0-b;
#X floatatom 230 78 5 0 0 0 - - -;
#X obj 174 83 * 127;
#X obj 222 160 r \$0-gz;
#X obj 319 205 s 3gx;
#X obj 318 224 s 3gy;
#X obj 318 243 s 3gz;
#X obj 850 -5 r fkey;
#X obj 851 17 s \$0-fkey;
#X obj 6 330 s 3x3x;
#X obj 43 330 s 3x3y;
#X obj 123 330 s 3x3z;
#X obj 596 495 s f3func1y;
#X obj 613 435 s f3func2y;
#X obj 613 373 s f3func3y;
#X obj 613 314 s f3func4y;
#X obj 613 253 s f3func5y;
#X connect 3 0 14 0;
#X connect 4 0 15 0;
#X connect 5 0 0 0;
#X connect 5 0 38 0;
#X connect 5 0 19 0;
#X connect 5 0 70 0;
#X connect 5 1 1 0;
#X connect 5 1 20 0;
#X connect 5 1 39 0;
#X connect 5 1 71 0;
#X connect 6 0 5 0;
#X connect 7 0 6 0;
#X connect 8 0 3 0;
#X connect 8 0 59 0;
#X connect 8 1 4 0;
#X connect 8 1 60 0;
#X connect 8 2 62 0;
#X connect 8 2 63 0;
#X connect 8 2 61 0;
#X connect 9 0 8 0;
#X connect 10 0 2 0;
#X connect 10 0 22 0;
#X connect 12 0 9 1;
#X connect 13 0 17 0;
#X connect 14 0 7 0;
#X connect 15 0 7 1;
#X connect 16 0 10 0;
#X connect 17 0 9 0;
#X connect 18 0 17 1;
#X connect 18 0 21 0;
#X connect 19 0 41 0;
#X connect 20 0 42 0;
#X connect 20 1 43 0;
#X connect 20 2 44 0;
#X connect 20 3 45 0;
#X connect 20 4 46 0;
#X connect 22 0 72 0;
#X connect 23 0 11 0;
#X connect 23 0 40 0;
#X connect 23 0 72 0;
#X connect 25 0 24 0;
#X connect 26 0 27 0;
#X connect 28 0 50 0;
#X connect 29 0 50 1;
#X connect 30 0 51 0;
#X connect 31 0 51 1;
#X connect 32 0 52 0;
#X connect 33 0 53 0;
#X connect 34 0 54 0;
#X connect 35 0 52 1;
#X connect 36 0 53 1;
#X connect 37 0 54 1;
#X connect 50 0 73 0;
#X connect 51 0 74 0;
#X connect 52 0 75 0;
#X connect 53 0 76 0;
#X connect 54 0 77 0;
#X connect 55 0 56 0;
#X connect 55 0 65 0;
#X connect 57 0 58 0;
#X connect 57 0 66 0;
#X connect 63 0 16 0;
#X connect 64 0 67 0;
#X connect 68 0 69 0;
#X coords 0 -1 1 1 160 120 1 0 205;
