#N canvas 0 0 1024 716 10;
#X floatatom 327 283 5 0 0 0 - - -;
#X floatatom 197 337 5 0 0 0 - - -;
#X floatatom 390 315 5 0 0 0 - - -;
#X obj 74 83 * 127;
#X obj 120 82 * 127;
#X obj 65 212 grid grid2 85 1 127 85 1 127 1 1 1 2 1 352 370;
#X msg 56 175 goto \$1 \$2;
#X obj 56 138 pack 1 1;
#X obj 89 51 unpack f f f;
#X obj 87 27 spigot;
#X obj 372 201 vsl 15 127 1 127 0 0 empty empty empty 0 -9 0 10 -262144
-1 -1 0 1;
#X floatatom 117 381 5 0 0 0 - - -;
#X obj 153 3 inlet;
#X obj 87 -39 r xlrmtr1;
#N canvas 0 0 303 384 rangex 0;
#X obj 106 72 clip 36 96;
#X floatatom 107 102 5 0 0 0 - - -;
#X obj 107 124 - 36;
#X floatatom 108 151 5 0 0 0 - - -;
#X floatatom 109 224 5 0 0 0 - - -;
#X obj 109 196 int;
#X obj 108 176 * 2.2;
#X obj 109 247 clip 0 127;
#X floatatom 112 280 5 0 0 0 - - -;
#X text 146 100 range multiplier;
#X obj 107 40 inlet;
#X obj 115 317 outlet;
#X connect 0 0 1 0;
#X connect 1 0 2 0;
#X connect 2 0 3 0;
#X connect 3 0 6 0;
#X connect 4 0 7 0;
#X connect 5 0 4 0;
#X connect 6 0 5 0;
#X connect 7 0 8 0;
#X connect 8 0 11 0;
#X connect 10 0 0 0;
#X restore 47 109 pd rangex;
#N canvas 0 0 303 384 rangex 0;
#X obj 106 72 clip 36 96;
#X floatatom 107 102 5 0 0 0 - - -;
#X obj 107 124 - 36;
#X floatatom 108 151 5 0 0 0 - - -;
#X floatatom 109 224 5 0 0 0 - - -;
#X obj 109 196 int;
#X obj 108 176 * 2.2;
#X obj 109 247 clip 0 127;
#X floatatom 112 280 5 0 0 0 - - -;
#X text 146 100 range multiplier;
#X obj 107 40 inlet;
#X obj 115 317 outlet;
#X connect 0 0 1 0;
#X connect 1 0 2 0;
#X connect 2 0 3 0;
#X connect 3 0 6 0;
#X connect 4 0 7 0;
#X connect 5 0 4 0;
#X connect 6 0 5 0;
#X connect 7 0 8 0;
#X connect 8 0 11 0;
#X connect 10 0 0 0;
#X restore 113 109 pd rangex;
#N canvas 1265 221 303 384 rangex 0;
#X obj 106 72 clip 36 96;
#X floatatom 107 102 5 0 0 0 - - -;
#X obj 107 124 - 36;
#X floatatom 108 151 5 0 0 0 - - -;
#X floatatom 109 224 5 0 0 0 - - -;
#X obj 109 196 int;
#X obj 108 176 * 2.2;
#X obj 109 247 clip 0 127;
#X floatatom 112 280 5 0 0 0 - - -;
#X text 146 100 range multiplier;
#X obj 107 40 inlet;
#X obj 115 317 outlet;
#X connect 0 0 1 0;
#X connect 1 0 2 0;
#X connect 2 0 3 0;
#X connect 3 0 6 0;
#X connect 4 0 7 0;
#X connect 5 0 4 0;
#X connect 6 0 5 0;
#X connect 7 0 8 0;
#X connect 8 0 11 0;
#X connect 10 0 0 0;
#X restore 186 110 pd rangex;
#X obj 89 -8 spigot;
#X obj 153 -37 r stop1;
#N canvas 0 51 1016 648 xaxisswitches 0;
#X msg 994 179 0;
#X obj 38 329 cnv 15 300 250 empty empty empty 20 12 0 14 -257985 -66577
0;
#X obj 124 480 loadbang;
#X obj 47 565 text3d;
#X msg 89 566 font /home/onyx/beatjazzdir/vera.ttf;
#X obj 49 397 gemhead;
#X msg 49 377 1;
#X msg 80 379 0;
#X obj 49 355 sel 1 0;
#X obj 47 544 colorRGB;
#X msg 124 499 3;
#X obj 95 169 loadbang;
#X obj 36 257 text3d;
#X msg 79 257 font /home/onyx/beatjazzdir/vera.ttf;
#X obj 38 129 gemhead;
#X msg 38 100 1;
#X msg 69 100 0;
#X obj 38 77 sel 1 0;
#X obj 36 234 colorRGB;
#X msg 103 188 3;
#X obj 125 83 / 127;
#X obj 122 62 average 10;
#X obj 125 105 + 0.25;
#X obj 125 127 clip 0.65 1.15;
#X obj 227 526 r \$0-xptext;
#X obj 174 232 r \$0-yaxisnumupdate;
#X obj 49 458 spigot;
#X obj 35 201 spigot;
#X obj 83 436 r \$0-gcut;
#X obj 35 170 r \$0-gcut;
#X obj 44 480 r \$0-preset0;
#X obj 47 523 spigot;
#X obj 121 41 r \$0-gy;
#X obj 180 525 r \$0-b;
#X obj 179 506 r \$0-g;
#X obj 178 487 r \$0-r;
#X obj 130 231 r \$0-b;
#X obj 130 211 r \$0-g;
#X obj 131 191 r \$0-r;
#X msg 479 186 1;
#X msg 511 186 0;
#X obj 457 213 change;
#X floatatom 389 124 5 0 127 0 - - -;
#X obj 407 352 tgl 15 0 empty empty empty 17 7 0 10 -262144 -1 -1 1
1;
#X obj 388 74 inlet;
#X obj 392 456 spigot;
#X floatatom 397 521 5 0 0 0 - - -;
#X obj 396 499 int;
#X msg 396 541 text \$1;
#X obj 393 478 average 10;
#X msg 438 409 text .;
#X obj 384 409 sel 0 1;
#X obj 356 571 s \$0-yaxisnumupdate;
#X obj 458 232 == 1;
#X obj 493 295 s \$0-xptext;
#X obj 360 592 outlet;
#X obj 388 435 r \$0-gy;
#X msg 443 180 0;
#X obj 388 99 average 5;
#X obj 38 55 r \$0-fkey;
#X obj 49 332 r \$0-fkey;
#X obj 44 500 == 3;
#X obj 49 417 translateXYZ -2.5 0.4 0;
#X obj 36 150 translateXYZ -0.9 0.4 0;
#X obj 458 251 s \$0-xpara25;
#X obj 493 273 r xp25;
#X obj 501 320 r \$0-xpara25;
#X obj 499 339 s xparam25;
#X obj 465 146 moses 125;
#X obj 391 148 moses 3;
#X connect 2 0 4 0;
#X connect 2 0 10 0;
#X connect 4 0 3 0;
#X connect 5 0 62 0;
#X connect 6 0 5 0;
#X connect 7 0 5 0;
#X connect 8 0 6 0;
#X connect 8 1 7 0;
#X connect 9 0 3 0;
#X connect 10 0 3 1;
#X connect 11 0 13 0;
#X connect 11 0 19 0;
#X connect 13 0 12 0;
#X connect 14 0 63 0;
#X connect 15 0 14 0;
#X connect 16 0 14 0;
#X connect 17 0 15 0;
#X connect 17 1 16 0;
#X connect 18 0 12 0;
#X connect 19 0 12 1;
#X connect 20 0 22 0;
#X connect 21 0 20 0;
#X connect 22 0 23 0;
#X connect 23 0 63 2;
#X connect 24 0 3 0;
#X connect 25 0 12 0;
#X connect 26 0 31 0;
#X connect 27 0 18 0;
#X connect 28 0 26 1;
#X connect 29 0 27 1;
#X connect 30 0 61 0;
#X connect 31 0 9 0;
#X connect 32 0 21 0;
#X connect 33 0 9 3;
#X connect 34 0 9 2;
#X connect 35 0 9 1;
#X connect 36 0 18 3;
#X connect 37 0 18 2;
#X connect 38 0 18 1;
#X connect 39 0 41 0;
#X connect 40 0 41 0;
#X connect 41 0 43 0;
#X connect 41 0 53 0;
#X connect 42 0 69 0;
#X connect 43 0 45 1;
#X connect 43 0 51 0;
#X connect 43 0 55 0;
#X connect 44 0 58 0;
#X connect 45 0 49 0;
#X connect 46 0 48 0;
#X connect 47 0 46 0;
#X connect 48 0 52 0;
#X connect 49 0 47 0;
#X connect 50 0 52 0;
#X connect 51 0 50 0;
#X connect 53 0 64 0;
#X connect 56 0 45 0;
#X connect 57 0 41 0;
#X connect 58 0 42 0;
#X connect 59 0 17 0;
#X connect 60 0 8 0;
#X connect 61 0 31 1;
#X connect 62 0 26 0;
#X connect 63 0 27 0;
#X connect 65 0 54 0;
#X connect 66 0 67 0;
#X connect 68 0 39 0;
#X connect 68 1 40 0;
#X connect 69 0 57 0;
#X connect 69 1 68 0;
#X coords 0 -1 1 1 60 20 2 400 350;
#X restore 5 303 pd xaxisswitches;
#N canvas 0 20 1024 716 yaxisswitches 0;
#X obj 4 -91 cnv 15 300 250 empty empty empty 20 12 0 14 -257985 -66577
0;
#X obj 104 127 loadbang;
#X obj 17 211 text3d;
#X msg 59 211 font /home/onyx/beatjazzdir/vera.ttf;
#X obj 17 10 gemhead;
#X msg 17 -12 1;
#X msg 53 -14 0;
#X obj 17 -33 sel 1 0;
#X obj 17 187 colorRGB;
#X msg 103 146 3;
#X obj 60 462 loadbang;
#X obj 36 549 text3d;
#X msg 79 549 font /home/onyx/beatjazzdir/vera.ttf;
#X obj 38 371 gemhead;
#X msg 38 341 1;
#X msg 69 342 0;
#X obj 38 320 sel 1 0;
#X obj 35 526 colorRGB;
#X msg 68 481 3;
#X obj 99 322 / 127;
#X floatatom 123 343 5 0 0 0 - - -;
#X obj 100 301 average 5;
#X obj 99 342 - 2;
#X obj 99 366 clip -1.51 -1;
#X obj 115 522 r \$0-xaxisnumupdate;
#X obj 103 167 r \$0-yptext;
#X obj 35 437 spigot;
#X obj 17 73 spigot;
#X obj 48 51 r \$0-gcut;
#X obj 68 415 r \$0-gcut;
#X obj 17 31 translateXYZ -1.3 1.4 0;
#X obj 61 88 r \$0-preset0;
#X obj 17 139 spigot;
#X obj 60 128 r \$0-r;
#X obj 60 147 r \$0-g;
#X obj 58 166 r \$0-b;
#X obj 117 502 r \$0-b;
#X obj 116 482 r \$0-g;
#X obj 116 462 r \$0-r;
#X obj 101 282 r \$0-gx;
#X obj 17 -53 r \$0-fkey;
#X obj 38 299 r \$0-fkey;
#X obj 62 107 == 3;
#X obj 36 392 translateXYZ -4.5 1.6 0;
#X connect 1 0 3 0;
#X connect 1 0 9 0;
#X connect 3 0 2 0;
#X connect 4 0 30 0;
#X connect 5 0 4 0;
#X connect 6 0 4 0;
#X connect 7 0 5 0;
#X connect 7 1 6 0;
#X connect 8 0 2 0;
#X connect 9 0 2 1;
#X connect 10 0 12 0;
#X connect 10 0 18 0;
#X connect 12 0 11 0;
#X connect 13 0 43 0;
#X connect 14 0 13 0;
#X connect 15 0 13 0;
#X connect 16 0 14 0;
#X connect 16 1 15 0;
#X connect 17 0 11 0;
#X connect 18 0 11 1;
#X connect 19 0 22 0;
#X connect 21 0 19 0;
#X connect 22 0 20 0;
#X connect 22 0 23 0;
#X connect 23 0 43 1;
#X connect 24 0 11 0;
#X connect 25 0 2 0;
#X connect 26 0 17 0;
#X connect 27 0 32 0;
#X connect 28 0 27 1;
#X connect 29 0 26 1;
#X connect 30 0 27 0;
#X connect 31 0 42 0;
#X connect 32 0 8 0;
#X connect 33 0 8 1;
#X connect 34 0 8 2;
#X connect 35 0 8 3;
#X connect 36 0 17 3;
#X connect 37 0 17 2;
#X connect 38 0 17 1;
#X connect 39 0 21 0;
#X connect 40 0 7 0;
#X connect 41 0 16 0;
#X connect 42 0 32 1;
#X connect 43 0 26 0;
#X coords 0 -1 1 1 60 85 2 300 200;
#X restore 3 212 pd yaxisswitches;
#X floatatom 230 16 5 0 0 0 - - -;
#N canvas 1591 216 463 496 z 0;
#X text 116 139 chnl#16;
#X floatatom 224 123 5 0 0 0 - - -;
#X obj 175 172 t b b;
#X obj 175 200 f;
#X obj 175 223 + 1;
#X obj 123 103 tgl 15 0 empty empty empty 17 7 0 10 -262144 -1 -1 1
1;
#X floatatom 143 124 5 0 0 0 - - -;
#X msg 202 200 1;
#X obj 103 103 bng 15 250 50 0 empty empty empty 17 7 0 10 -262144
-1 -1;
#X obj 122 187 outlet;
#X obj 175 147 delay 500;
#X obj 124 51 inlet zflip in;
#X obj 183 101 s moseszflip;
#X floatatom 107 333 5 0 0 0 - - -;
#X obj 176 123 sel 127;
#X obj 125 76 moses 120;
#X connect 2 0 3 0;
#X connect 2 1 7 0;
#X connect 3 0 4 0;
#X connect 4 0 8 0;
#X connect 5 0 9 0;
#X connect 7 0 3 1;
#X connect 8 0 5 0;
#X connect 10 0 2 0;
#X connect 11 0 15 0;
#X connect 14 0 6 0;
#X connect 14 0 10 0;
#X connect 14 1 1 0;
#X connect 15 0 12 0;
#X connect 15 1 14 0;
#X coords 0 -1 1 1 40 20 2 100 100;
#X restore 108 302 pd z flip switch;
#X obj 114 359 r moseszflip;
#X obj 274 23 s \$0-gcut;
#X obj 274 0 inlet;
#X obj 341 0 r preset;
#X obj 341 22 s \$0-preset0;
#X obj -6 404 s \$0-gx;
#X obj 55 402 s \$0-gy;
#X obj 109 402 s \$0-gz;
#X obj -6 425 s \$0-gx1;
#X text 520 22 create an abstraction to create the viz graphics from
the data points below.;
#N canvas 1178 121 642 469 grid 0;
#X obj 26 271 r \$0-1-1;
#X obj 26 210 r \$0-1-2;
#X obj 26 148 r \$0-1-3;
#X obj 26 89 r \$0-1-4;
#X obj 26 28 r \$0-1-5;
#X obj 133 24 r \$0-2-5;
#X obj 133 86 r \$0-2-4;
#X obj 136 148 r \$0-2-3;
#X obj 139 208 r \$0-2-2;
#X obj 137 270 r \$0-2-1;
#X obj 250 271 r \$0-3-1;
#X obj 250 208 r \$0-3-2;
#X obj 246 148 r \$0-3-3;
#X obj 247 88 r \$0-3-4;
#X obj 248 26 r \$0-3-5;
#X obj 355 28 r \$0-4-5;
#X obj 355 88 r \$0-4-4;
#X obj 358 148 r \$0-4-3;
#X obj 362 210 r \$0-4-2;
#X obj 364 272 r \$0-4-1;
#X obj 474 273 r \$0-5-1;
#X obj 470 210 r \$0-5-2;
#X obj 471 148 r \$0-5-3;
#X obj 469 87 r \$0-5-4;
#X obj 466 26 r \$0-5-5;
#X restore 406 -3 pd grid parameters;
#N canvas 0 0 684 417 grid 0;
#X obj 36 281 r \$0-1-1;
#X obj 36 220 r \$0-1-2;
#X obj 36 158 r \$0-1-3;
#X obj 36 99 r \$0-1-4;
#X obj 36 38 r \$0-1-5;
#X obj 143 34 r \$0-2-5;
#X obj 143 96 r \$0-2-4;
#X obj 146 158 r \$0-2-3;
#X obj 149 218 r \$0-2-2;
#X obj 147 280 r \$0-2-1;
#X obj 260 281 r \$0-3-1;
#X obj 260 218 r \$0-3-2;
#X obj 256 158 r \$0-3-3;
#X obj 257 98 r \$0-3-4;
#X obj 258 36 r \$0-3-5;
#X obj 365 38 r \$0-4-5;
#X obj 365 98 r \$0-4-4;
#X obj 368 158 r \$0-4-3;
#X obj 372 220 r \$0-4-2;
#X obj 374 282 r \$0-4-1;
#X obj 484 283 r \$0-5-1;
#X obj 480 220 r \$0-5-2;
#X obj 481 158 r \$0-5-3;
#X obj 479 97 r \$0-5-4;
#X obj 476 36 r \$0-5-5;
#X restore 526 -2 pd grid viz;
#X obj 224 200 r \$0-gx;
#X obj 230 265 hsl 128 15 0 127 0 0 empty empty empty -2 -8 0 10 -262144
-1 -1 12700 1;
#X obj 223 181 r \$0-gy;
#X obj 207 202 vsl 15 128 0 127 0 0 empty empty empty 0 -9 0 10 -262144
-1 -1 100 1;
#X obj 122 137 s \$0-r;
#X obj 166 137 s \$0-g;
#X obj 206 137 s \$0-b;
#X floatatom 230 78 5 0 0 0 - - -;
#X obj 174 83 * 127;
#X obj 222 160 r \$0-gz;
#X obj 851 17 s \$0-fkey;
#X obj 850 -5 r fkey3;
#X obj 6 330 s 9x3x;
#X obj 43 330 s 9x3y;
#X obj 123 330 s 9x3z;
#X obj 319 205 s 9gx;
#X obj 318 224 s 9gy;
#X obj 318 243 s 9gz;
#X connect 3 0 14 0;
#X connect 4 0 15 0;
#X connect 5 0 0 0;
#X connect 5 0 28 0;
#X connect 5 0 19 0;
#X connect 5 0 47 0;
#X connect 5 1 1 0;
#X connect 5 1 29 0;
#X connect 5 1 48 0;
#X connect 6 0 5 0;
#X connect 7 0 6 0;
#X connect 8 0 3 0;
#X connect 8 0 39 0;
#X connect 8 1 4 0;
#X connect 8 1 40 0;
#X connect 8 2 42 0;
#X connect 8 2 43 0;
#X connect 8 2 41 0;
#X connect 9 0 8 0;
#X connect 10 0 2 0;
#X connect 10 0 22 0;
#X connect 12 0 9 1;
#X connect 13 0 17 0;
#X connect 14 0 7 0;
#X connect 15 0 7 1;
#X connect 16 0 10 0;
#X connect 17 0 9 0;
#X connect 18 0 17 1;
#X connect 18 0 21 0;
#X connect 19 0 31 0;
#X connect 22 0 49 0;
#X connect 23 0 11 0;
#X connect 23 0 30 0;
#X connect 23 0 49 0;
#X connect 25 0 24 0;
#X connect 26 0 27 0;
#X connect 35 0 36 0;
#X connect 35 0 50 0;
#X connect 37 0 38 0;
#X connect 37 0 51 0;
#X connect 43 0 16 0;
#X connect 44 0 52 0;
#X connect 46 0 45 0;
#X coords 0 -1 1 1 160 120 1 0 205;
