#N canvas 1024 0 1024 716 10;
#X floatatom 5 375 5 0 0 0 - - -;
#X floatatom 47 374 5 0 0 0 - - -;
#X floatatom 150 374 5 0 0 0 - - -;
#X obj 74 83 * 127;
#X obj 120 82 * 127;
#X obj 67 213 grid grid2 85 1 127 85 1 127 1 1 1 3 5 619 347;
#X msg 56 175 goto \$1 \$2;
#X obj 56 138 pack 1 1;
#X obj 89 51 unpack f f f;
#X obj 87 27 spigot;
#X obj 209 138 vsl 15 256 1 256 0 0 empty empty empty 0 -9 0 10 -262144
-1 -1 0 1;
#X floatatom 86 375 5 0 0 0 - - -;
#X obj 174 83 * 256;
#X obj 153 3 inlet;
#X obj 87 -39 r xlrmtr1;
#N canvas 0 0 303 384 rangex 0;
#X obj 106 72 clip 36 96;
#X floatatom 107 102 5 0 0 0 - - -;
#X obj 107 124 - 36;
#X floatatom 108 151 5 0 0 0 - - -;
#X floatatom 109 224 5 0 0 0 - - -;
#X obj 109 196 int;
#X obj 108 176 * 2.2;
#X obj 109 247 clip 0 127;
#X floatatom 112 280 5 0 0 0 - - -;
#X text 146 100 range multiplier;
#X obj 107 40 inlet;
#X obj 115 317 outlet;
#X connect 0 0 1 0;
#X connect 1 0 2 0;
#X connect 2 0 3 0;
#X connect 3 0 6 0;
#X connect 4 0 7 0;
#X connect 5 0 4 0;
#X connect 6 0 5 0;
#X connect 7 0 8 0;
#X connect 8 0 11 0;
#X connect 10 0 0 0;
#X restore 47 109 pd rangex;
#N canvas 0 0 303 384 rangex 0;
#X obj 106 72 clip 36 96;
#X floatatom 107 102 5 0 0 0 - - -;
#X obj 107 124 - 36;
#X floatatom 108 151 5 0 0 0 - - -;
#X floatatom 109 224 5 0 0 0 - - -;
#X obj 109 196 int;
#X obj 108 176 * 2.2;
#X obj 109 247 clip 0 127;
#X floatatom 112 280 5 0 0 0 - - -;
#X text 146 100 range multiplier;
#X obj 107 40 inlet;
#X obj 115 317 outlet;
#X connect 0 0 1 0;
#X connect 1 0 2 0;
#X connect 2 0 3 0;
#X connect 3 0 6 0;
#X connect 4 0 7 0;
#X connect 5 0 4 0;
#X connect 6 0 5 0;
#X connect 7 0 8 0;
#X connect 8 0 11 0;
#X connect 10 0 0 0;
#X restore 113 109 pd rangex;
#N canvas 0 0 303 384 rangex 0;
#X obj 106 72 clip 36 96;
#X floatatom 107 102 5 0 0 0 - - -;
#X obj 107 124 - 36;
#X floatatom 108 151 5 0 0 0 - - -;
#X floatatom 109 224 5 0 0 0 - - -;
#X obj 109 196 int;
#X obj 108 176 * 2.2;
#X obj 109 247 clip 0 127;
#X floatatom 112 280 5 0 0 0 - - -;
#X text 146 100 range multiplier;
#X obj 107 40 inlet;
#X obj 115 317 outlet;
#X connect 0 0 1 0;
#X connect 1 0 2 0;
#X connect 2 0 3 0;
#X connect 3 0 6 0;
#X connect 4 0 7 0;
#X connect 5 0 4 0;
#X connect 6 0 5 0;
#X connect 7 0 8 0;
#X connect 8 0 11 0;
#X connect 10 0 0 0;
#X restore 186 110 pd rangex;
#X obj 89 -8 spigot;
#X obj 153 -37 r stop1;
#N canvas 0 52 1024 716 xaxisswitches 0;
#X obj 43 276 cnv 15 300 250 empty empty empty 20 12 0 14 -257985 -66577
0;
#X obj 134 437 loadbang;
#X obj 56 565 text3d;
#X msg 99 565 font /home/onyx/beatjazzdir/vera.ttf;
#X obj 56 375 gemhead;
#X msg 50 346 1;
#X msg 87 346 0;
#X obj 56 311 sel 1 0;
#X obj 55 542 colorRGB;
#X obj 111 519 r r;
#X obj 148 519 r g;
#X obj 174 520 r b;
#X obj 54 396 translateXYZ -2.5 0.4 0;
#X msg 142 456 3;
#X obj 111 170 loadbang;
#X obj 36 257 text3d;
#X msg 79 257 font /home/onyx/beatjazzdir/vera.ttf;
#X obj 38 129 gemhead;
#X msg 32 100 1;
#X msg 69 100 0;
#X obj 38 65 sel 1 0;
#X obj 35 234 colorRGB;
#X obj 94 212 r r;
#X obj 119 212 r g;
#X obj 145 213 r b;
#X msg 119 189 3;
#X obj 191 134 / 127;
#X obj 154 108 average 10;
#X floatatom 244 157 5 0 0 0 - - -;
#X obj 191 156 + 0.25;
#X obj 191 189 clip 0.65 1.15;
#X obj 121 72 r \$0-x2y;
#X obj 197 521 r \$0-xptext;
#X obj 168 214 r \$0-yaxisnumupdate;
#X obj 42 39 r fkey;
#X obj 60 285 r fkey;
#X msg 416 182 0;
#X msg 448 185 1;
#X msg 480 185 0;
#X obj 426 212 change;
#X floatatom 358 123 5 0 127 0 - - -;
#X msg 551 183 1;
#X obj 618 147 moses 80;
#X msg 523 184 0;
#X msg 654 183 1;
#X obj 528 209 change;
#X obj 528 148 moses 50;
#X msg 581 183 0;
#X obj 624 206 change;
#X msg 624 183 0;
#X msg 684 184 0;
#X obj 435 352 tgl 15 0 empty empty empty 17 7 0 10 -262144 -1 -1 1
1;
#X obj 418 352 tgl 15 0 empty empty empty 17 7 0 10 -262144 -1 -1 0
1;
#X obj 401 352 tgl 15 0 empty empty empty 17 7 0 10 -262144 -1 -1 0
1;
#X obj 357 92 average 5;
#X obj 332 63 inlet;
#X obj 434 145 moses 30;
#X obj 360 147 moses 1;
#X obj 366 491 spigot;
#X floatatom 371 556 5 0 0 0 - - -;
#X obj 370 534 int;
#X msg 370 576 text \$1;
#X obj 367 513 average 10;
#X obj 481 491 spigot;
#X floatatom 482 555 5 0 0 0 - - -;
#X obj 484 534 int;
#X msg 484 575 text \$1;
#X obj 483 513 average 10;
#X obj 588 493 spigot;
#X floatatom 589 557 5 0 0 0 - - -;
#X obj 591 536 int;
#X msg 591 577 text \$1;
#X obj 590 515 average 10;
#X floatatom 312 595 5 0 0 0 - - -;
#X obj 602 606 s \$0-yaxisnumupdate;
#X obj 477 605 s \$0-yaxisnumupdate;
#X obj 347 605 s \$0-yaxisnumupdate;
#X obj 351 444 r \$0-x2y;
#X obj 466 444 r \$0-x2y;
#X obj 573 446 r \$0-x2y;
#X msg 401 418 text .;
#X msg 496 419 text .;
#X msg 612 420 text .;
#X obj 347 418 sel 0 1;
#X obj 445 417 sel 0 1;
#X obj 559 419 sel 0 1;
#X obj 36 150 translateXYZ -1.2 0.4 0;
#X obj 34 200 spigot;
#X obj 53 445 spigot;
#X obj 44 178 r \$0-gcut;
#X obj 63 423 r \$0-gcut;
#X msg 428 267 text para 1;
#X msg 514 267 text para 2;
#X msg 599 267 text para 3;
#X obj 518 246 == 1;
#X obj 418 248 == 1;
#X obj 615 242 == 1;
#X obj 465 246 == 0;
#X obj 564 246 == 0;
#X obj 657 242 == 0;
#X msg 631 294 text .;
#X msg 548 290 text .;
#X msg 460 289 text .;
#X obj 430 313 s \$0-xptext;
#X obj 520 314 s \$0-xptext;
#X obj 601 316 s \$0-xptext;
#X obj 57 466 r \$0-preset0;
#X obj 58 509 spigot;
#X obj 70 488 == 2;
#X obj 373 660 outlet;
#X obj 486 663 outlet;
#X obj 596 665 outlet;
#X connect 1 0 3 0;
#X connect 1 0 13 0;
#X connect 3 0 2 0;
#X connect 4 0 12 0;
#X connect 5 0 4 0;
#X connect 6 0 4 0;
#X connect 7 0 5 0;
#X connect 7 1 6 0;
#X connect 8 0 2 0;
#X connect 9 0 8 1;
#X connect 10 0 8 2;
#X connect 11 0 8 3;
#X connect 12 0 88 0;
#X connect 13 0 2 1;
#X connect 14 0 16 0;
#X connect 14 0 25 0;
#X connect 16 0 15 0;
#X connect 17 0 86 0;
#X connect 18 0 17 0;
#X connect 19 0 17 0;
#X connect 20 0 18 0;
#X connect 20 1 19 0;
#X connect 21 0 15 0;
#X connect 22 0 21 1;
#X connect 23 0 21 2;
#X connect 24 0 21 3;
#X connect 25 0 15 1;
#X connect 26 0 29 0;
#X connect 27 0 26 0;
#X connect 29 0 28 0;
#X connect 29 0 30 0;
#X connect 30 0 86 2;
#X connect 31 0 27 0;
#X connect 32 0 2 0;
#X connect 33 0 15 0;
#X connect 34 0 20 0;
#X connect 35 0 7 0;
#X connect 36 0 39 0;
#X connect 37 0 39 0;
#X connect 38 0 39 0;
#X connect 39 0 53 0;
#X connect 39 0 95 0;
#X connect 39 0 97 0;
#X connect 40 0 57 0;
#X connect 41 0 45 0;
#X connect 42 0 44 0;
#X connect 42 1 50 0;
#X connect 43 0 45 0;
#X connect 44 0 48 0;
#X connect 45 0 52 0;
#X connect 45 0 94 0;
#X connect 45 0 98 0;
#X connect 46 0 41 0;
#X connect 46 0 49 0;
#X connect 46 1 42 0;
#X connect 46 1 47 0;
#X connect 47 0 45 0;
#X connect 48 0 51 0;
#X connect 48 0 96 0;
#X connect 48 0 99 0;
#X connect 49 0 48 0;
#X connect 50 0 48 0;
#X connect 51 0 68 1;
#X connect 51 0 85 0;
#X connect 51 0 111 0;
#X connect 52 0 63 1;
#X connect 52 0 84 0;
#X connect 52 0 110 0;
#X connect 53 0 58 1;
#X connect 53 0 83 0;
#X connect 53 0 109 0;
#X connect 54 0 40 0;
#X connect 55 0 54 0;
#X connect 56 0 37 0;
#X connect 56 0 43 0;
#X connect 56 1 38 0;
#X connect 56 1 46 0;
#X connect 57 0 36 0;
#X connect 57 1 56 0;
#X connect 58 0 62 0;
#X connect 59 0 61 0;
#X connect 60 0 59 0;
#X connect 61 0 76 0;
#X connect 62 0 60 0;
#X connect 63 0 67 0;
#X connect 64 0 66 0;
#X connect 65 0 64 0;
#X connect 66 0 75 0;
#X connect 67 0 65 0;
#X connect 68 0 72 0;
#X connect 69 0 71 0;
#X connect 70 0 69 0;
#X connect 71 0 74 0;
#X connect 72 0 70 0;
#X connect 77 0 58 0;
#X connect 77 0 73 0;
#X connect 78 0 63 0;
#X connect 79 0 68 0;
#X connect 80 0 76 0;
#X connect 81 0 75 0;
#X connect 82 0 74 0;
#X connect 83 0 80 0;
#X connect 84 0 81 0;
#X connect 85 0 82 0;
#X connect 86 0 87 0;
#X connect 87 0 21 0;
#X connect 88 0 107 0;
#X connect 89 0 87 1;
#X connect 90 0 88 1;
#X connect 91 0 103 0;
#X connect 92 0 104 0;
#X connect 93 0 105 0;
#X connect 94 0 92 0;
#X connect 95 0 91 0;
#X connect 96 0 93 0;
#X connect 97 0 102 0;
#X connect 98 0 101 0;
#X connect 99 0 100 0;
#X connect 106 0 108 0;
#X connect 107 0 8 0;
#X connect 108 0 107 1;
#X coords 0 -1 1 1 60 20 2 400 350;
#X restore 5 303 pd xaxisswitches;
#N canvas 0 0 1024 703 yaxisswitches 0;
#X obj 41 358 cnv 15 300 250 empty empty empty 20 12 0 14 -257985 -66577
0;
#X obj 102 422 loadbang;
#X obj 52 585 text3d;
#X msg 95 585 font /home/onyx/beatjazzdir/vera.ttf;
#X obj 66 383 gemhead;
#X msg 65 361 1;
#X msg 102 361 0;
#X obj 63 340 sel 1 0;
#X obj 51 562 colorRGB;
#X obj 59 540 r r;
#X obj 84 540 r g;
#X obj 110 541 r b;
#X msg 96 443 3;
#X obj 106 176 loadbang;
#X obj 46 267 text3d;
#X msg 89 267 font /home/onyx/beatjazzdir/vera.ttf;
#X obj 48 139 gemhead;
#X msg 42 110 1;
#X msg 79 110 0;
#X obj 48 75 sel 1 0;
#X obj 45 244 colorRGB;
#X obj 89 218 r r;
#X obj 114 218 r g;
#X obj 140 219 r b;
#X msg 114 195 3;
#X obj 110 89 / 127;
#X floatatom 110 132 5 0 0 0 - - -;
#X obj 111 68 average 5;
#X obj 110 111 - 2;
#X obj 150 198 clip -1.51 -1;
#X obj 112 49 r \$0-x2x;
#X obj 133 542 r \$0-yptext;
#X obj 163 220 r \$0-xaxisnumupdate;
#X obj 52 49 r fkey;
#X obj 62 317 r fkey;
#X msg 398 183 0;
#X msg 430 183 1;
#X msg 462 183 0;
#X obj 408 210 change;
#X floatatom 342 125 5 0 127 0 - - -;
#X msg 533 181 1;
#X obj 600 145 moses 80;
#X msg 505 182 0;
#X msg 636 181 1;
#X obj 510 207 change;
#X obj 510 146 moses 50;
#X msg 563 181 0;
#X obj 606 204 change;
#X msg 606 181 0;
#X msg 666 182 0;
#X obj 697 144 moses 100;
#X msg 749 185 1;
#X msg 720 186 0;
#X msg 776 185 0;
#X obj 723 208 change;
#X msg 847 179 1;
#X msg 818 180 0;
#X msg 874 179 0;
#X obj 821 202 change;
#X obj 795 143 moses 127;
#X obj 372 417 tgl 15 0 empty empty empty 17 7 0 10 -262144 -1 -1 0
1;
#X obj 372 434 tgl 15 0 empty empty empty 17 7 0 10 -262144 -1 -1 0
1;
#X obj 373 451 tgl 15 0 empty empty empty 17 7 0 10 -262144 -1 -1 0
1;
#X obj 373 467 tgl 15 0 empty empty empty 17 7 0 10 -262144 -1 -1 1
1;
#X obj 372 402 tgl 15 0 empty empty empty 17 7 0 10 -262144 -1 -1 0
1;
#X obj 341 105 average 5;
#X obj 340 85 inlet;
#X obj 416 143 moses 30;
#X obj 342 145 moses 1;
#X obj 520 374 spigot;
#X obj 671 368 spigot;
#X floatatom 522 442 5 0 0 0 - - -;
#X msg 523 464 text \$1;
#X floatatom 677 440 5 0 0 0 - - -;
#X msg 675 459 text \$1;
#X obj 521 422 int;
#X obj 674 420 int;
#X obj 518 403 average 10;
#X obj 672 393 average 10;
#X obj 788 374 spigot;
#X obj 894 371 spigot;
#X floatatom 790 442 5 0 0 0 - - -;
#X msg 791 464 text \$1;
#X floatatom 900 443 5 0 0 0 - - -;
#X msg 898 462 text \$1;
#X obj 789 422 int;
#X obj 897 423 int;
#X obj 786 403 average 10;
#X obj 894 399 average 10;
#X obj 416 373 spigot;
#X floatatom 422 445 5 0 0 0 - - -;
#X msg 420 464 text \$1;
#X obj 419 425 int;
#X obj 416 401 average 10;
#X obj 894 521 s \$0-xaxisnumupdate;
#X obj 761 526 s \$0-xaxisnumupdate;
#X obj 613 527 s \$0-xaxisnumupdate;
#X obj 488 528 s \$0-xaxisnumupdate;
#X obj 360 528 s \$0-xaxisnumupdate;
#X obj 416 352 r \$0-x2x;
#X obj 519 353 r \$0-x2x;
#X obj 671 347 r \$0-x2x;
#X obj 787 353 r \$0-x2x;
#X obj 894 350 r \$0-x2x;
#X msg 433 496 text .;
#X msg 528 497 text .;
#X msg 644 498 text .;
#X msg 791 498 text .;
#X msg 904 493 text .;
#X obj 379 496 sel 0 1;
#X obj 477 495 sel 0 1;
#X obj 591 497 sel 0 1;
#X obj 738 494 sel 0 1;
#X obj 848 494 sel 0 1;
#X obj 46 160 translateXYZ -4.5 1.8 0;
#X obj 29 208 spigot;
#X obj 40 447 spigot;
#X obj 46 179 r \$0-gcut;
#X obj 43 423 r \$0-gcut;
#X obj 64 404 translateXYZ -1.3 1.4 0;
#X msg 750 271 text para 5;
#X msg 419 276 text para 1;
#X msg 505 276 text para 2;
#X msg 590 276 text para 3;
#X msg 671 275 text para 4;
#X obj 509 255 == 1;
#X obj 409 257 == 1;
#X obj 606 251 == 1;
#X obj 722 255 == 1;
#X obj 822 252 == 1;
#X obj 462 251 == 0;
#X obj 555 255 == 0;
#X obj 648 251 == 0;
#X obj 762 247 == 0;
#X obj 854 256 == 0;
#X msg 821 292 text .;
#X obj 760 322 s \$0-yptext;
#X obj 676 321 s \$0-yptext;
#X obj 592 325 s \$0-yptext;
#X obj 511 323 s \$0-yptext;
#X obj 421 322 s \$0-yptext;
#X msg 713 297 text .;
#X msg 622 303 text .;
#X msg 539 299 text .;
#X msg 451 298 text .;
#X obj 85 461 r \$0-preset0;
#X obj 53 517 spigot;
#X obj 87 484 == 2;
#X obj 418 557 outlet;
#X obj 531 560 outlet;
#X obj 641 562 outlet;
#X obj 746 562 outlet;
#X obj 851 566 outlet;
#X connect 1 0 3 0;
#X connect 1 0 12 0;
#X connect 3 0 2 0;
#X connect 4 0 119 0;
#X connect 5 0 4 0;
#X connect 6 0 4 0;
#X connect 7 0 5 0;
#X connect 7 1 6 0;
#X connect 8 0 2 0;
#X connect 9 0 8 1;
#X connect 10 0 8 2;
#X connect 11 0 8 3;
#X connect 12 0 2 1;
#X connect 13 0 15 0;
#X connect 13 0 24 0;
#X connect 15 0 14 0;
#X connect 16 0 114 0;
#X connect 17 0 16 0;
#X connect 18 0 16 0;
#X connect 19 0 17 0;
#X connect 19 1 18 0;
#X connect 20 0 14 0;
#X connect 21 0 20 1;
#X connect 22 0 20 2;
#X connect 23 0 20 3;
#X connect 24 0 14 1;
#X connect 25 0 28 0;
#X connect 27 0 25 0;
#X connect 28 0 26 0;
#X connect 28 0 29 0;
#X connect 29 0 114 1;
#X connect 30 0 27 0;
#X connect 31 0 2 0;
#X connect 32 0 14 0;
#X connect 33 0 19 0;
#X connect 34 0 7 0;
#X connect 35 0 38 0;
#X connect 36 0 38 0;
#X connect 37 0 38 0;
#X connect 38 0 63 0;
#X connect 38 0 89 1;
#X connect 38 0 126 0;
#X connect 38 0 130 0;
#X connect 39 0 68 0;
#X connect 40 0 44 0;
#X connect 41 0 43 0;
#X connect 41 0 52 0;
#X connect 41 1 49 0;
#X connect 41 1 50 0;
#X connect 42 0 44 0;
#X connect 43 0 47 0;
#X connect 44 0 62 0;
#X connect 44 0 69 1;
#X connect 44 0 125 0;
#X connect 44 0 131 0;
#X connect 45 0 40 0;
#X connect 45 0 48 0;
#X connect 45 1 41 0;
#X connect 45 1 46 0;
#X connect 46 0 44 0;
#X connect 47 0 61 0;
#X connect 47 0 70 1;
#X connect 47 0 127 0;
#X connect 47 0 132 0;
#X connect 48 0 47 0;
#X connect 49 0 47 0;
#X connect 50 0 51 0;
#X connect 50 0 56 0;
#X connect 50 1 53 0;
#X connect 50 1 59 0;
#X connect 51 0 54 0;
#X connect 52 0 54 0;
#X connect 53 0 54 0;
#X connect 54 0 60 0;
#X connect 54 0 79 1;
#X connect 54 0 128 0;
#X connect 54 0 133 0;
#X connect 55 0 58 0;
#X connect 56 0 58 0;
#X connect 57 0 58 0;
#X connect 58 0 64 0;
#X connect 58 0 80 1;
#X connect 58 0 129 0;
#X connect 58 0 134 0;
#X connect 59 0 55 0;
#X connect 59 1 57 0;
#X connect 60 0 112 0;
#X connect 60 0 151 0;
#X connect 61 0 111 0;
#X connect 61 0 150 0;
#X connect 62 0 110 0;
#X connect 62 0 149 0;
#X connect 63 0 109 0;
#X connect 63 0 148 0;
#X connect 64 0 113 0;
#X connect 64 0 152 0;
#X connect 65 0 39 0;
#X connect 66 0 65 0;
#X connect 67 0 42 0;
#X connect 67 0 36 0;
#X connect 67 1 37 0;
#X connect 67 1 45 0;
#X connect 68 0 35 0;
#X connect 68 1 67 0;
#X connect 69 0 77 0;
#X connect 70 0 78 0;
#X connect 71 0 72 0;
#X connect 72 0 97 0;
#X connect 73 0 74 0;
#X connect 74 0 96 0;
#X connect 75 0 71 0;
#X connect 76 0 73 0;
#X connect 77 0 75 0;
#X connect 78 0 76 0;
#X connect 79 0 87 0;
#X connect 80 0 88 0;
#X connect 81 0 82 0;
#X connect 82 0 95 0;
#X connect 83 0 84 0;
#X connect 84 0 94 0;
#X connect 85 0 81 0;
#X connect 86 0 83 0;
#X connect 87 0 85 0;
#X connect 88 0 86 0;
#X connect 89 0 93 0;
#X connect 90 0 91 0;
#X connect 91 0 98 0;
#X connect 92 0 90 0;
#X connect 93 0 92 0;
#X connect 99 0 89 0;
#X connect 100 0 69 0;
#X connect 101 0 70 0;
#X connect 102 0 79 0;
#X connect 103 0 80 0;
#X connect 104 0 98 0;
#X connect 105 0 97 0;
#X connect 106 0 96 0;
#X connect 107 0 95 0;
#X connect 108 0 94 0;
#X connect 109 0 104 0;
#X connect 110 0 105 0;
#X connect 111 0 106 0;
#X connect 112 0 107 0;
#X connect 113 0 108 0;
#X connect 114 0 115 0;
#X connect 115 0 20 0;
#X connect 116 0 146 0;
#X connect 117 0 115 1;
#X connect 118 0 116 1;
#X connect 119 0 116 0;
#X connect 120 0 136 0;
#X connect 121 0 140 0;
#X connect 122 0 139 0;
#X connect 123 0 138 0;
#X connect 124 0 137 0;
#X connect 125 0 122 0;
#X connect 126 0 121 0;
#X connect 127 0 123 0;
#X connect 128 0 124 0;
#X connect 129 0 120 0;
#X connect 130 0 144 0;
#X connect 131 0 143 0;
#X connect 132 0 142 0;
#X connect 133 0 141 0;
#X connect 134 0 135 0;
#X connect 145 0 147 0;
#X connect 146 0 8 0;
#X connect 147 0 146 1;
#X coords 0 -1 1 1 60 85 2 350 400;
#X restore 5 213 pd yaxisswitches;
#X floatatom 230 16 5 0 0 0 - - -;
#N canvas 404 167 450 300 z 0;
#X text 116 139 chnl#16;
#X obj 128 68 moses 127;
#X obj 177 93 - 127;
#X floatatom 231 120 5 0 0 0 - - -;
#X obj 175 172 t b b;
#X obj 165 217 f;
#X obj 169 247 + 1;
#X obj 180 122 sel 129;
#X obj 123 103 tgl 15 0 empty empty empty 17 7 0 10 -262144 -1 -1 0
1;
#X obj 172 305 * 127;
#X floatatom 147 123 5 0 0 0 - - -;
#X msg 199 201 1;
#X obj 103 103 bng 15 250 50 0 empty empty empty 17 7 0 10 -262144
-1 -1;
#X obj 171 332 outlet;
#X obj 182 149 delay 500;
#X obj 190 34 inlet zflip in;
#X obj 200 63 s moseszflip;
#X connect 1 0 16 0;
#X connect 1 1 2 0;
#X connect 2 0 7 0;
#X connect 4 0 5 0;
#X connect 4 1 11 0;
#X connect 5 0 6 0;
#X connect 6 0 12 0;
#X connect 7 0 10 0;
#X connect 7 0 14 0;
#X connect 7 1 3 0;
#X connect 8 0 9 0;
#X connect 9 0 13 0;
#X connect 11 0 5 1;
#X connect 12 0 8 0;
#X connect 14 0 4 0;
#X connect 15 0 1 0;
#X coords 0 -1 1 1 40 20 2 100 100;
#X restore 108 302 pd z flip switch;
#X obj 113 404 r moseszflip;
#X obj -10 346 s \$0-x2x;
#X obj 46 346 s \$0-x2y;
#X obj 103 347 s \$0-x2z;
#X obj 274 -9 s \$0-gcut;
#X obj 274 -30 inlet;
#X obj 337 -32 r preset;
#X obj 337 -9 s \$0-preset0;
#X obj -7 425 s \$0-2gx;
#X obj 54 423 s \$0-2gy;
#X obj 116 428 s \$0-2gz;
#X obj -7 446 s \$0-2gx1;
#X obj 52 445 s \$0-2gx2;
#X obj 115 448 s \$0-2gx3;
#X obj -6 468 s \$0-2gy1;
#X obj 52 467 s \$0-2gy2;
#X obj 115 468 s \$0-2gy3;
#X obj 175 470 s \$0-2gy4;
#X obj 234 472 s \$0-2gy5;
#X obj 379 214 r \$0-gy3;
#X obj 327 377 s \$0-1-1;
#X obj 436 379 s \$0-2-1;
#X obj 568 378 s \$0-3-1;
#X obj 344 317 s \$0-1-2;
#X obj 344 255 s \$0-1-3;
#X obj 344 196 s \$0-1-4;
#X obj 344 135 s \$0-1-5;
#X obj 457 315 s \$0-2-2;
#X obj 454 255 s \$0-2-3;
#X obj 451 193 s \$0-2-4;
#X obj 451 131 s \$0-2-5;
#X obj 568 315 s \$0-3-2;
#X obj 564 255 s \$0-3-3;
#X obj 565 195 s \$0-3-4;
#X obj 566 133 s \$0-3-5;
#N canvas 0 0 450 300 2bangs 0;
#X obj 158 67 == 1;
#X obj 203 69 == 1;
#X obj 205 98 t b f;
#X obj 189 129 +;
#X floatatom 189 154 5 0 0 0 - - -;
#X obj 190 177 sel 2 1 0;
#X msg 219 214 0;
#X msg 252 216 0;
#X msg 184 214 1;
#X obj 159 36 inlet;
#X obj 208 39 inlet;
#X obj 185 250 outlet;
#X obj 302 253 tgl 15 0 empty empty empty 17 7 0 10 -262144 -1 -1 0
1;
#X connect 0 0 3 0;
#X connect 1 0 2 0;
#X connect 2 0 3 0;
#X connect 2 1 3 1;
#X connect 3 0 4 0;
#X connect 4 0 5 0;
#X connect 5 0 8 0;
#X connect 5 1 6 0;
#X connect 5 2 7 0;
#X connect 6 0 11 0;
#X connect 6 0 12 0;
#X connect 7 0 11 0;
#X connect 7 0 12 0;
#X connect 8 0 11 0;
#X connect 8 0 12 0;
#X connect 9 0 0 0;
#X connect 10 0 1 0;
#X coords 0 -1 1 1 20 20 1 300 250;
#X restore 325 354 pd 2bangs;
#N canvas 0 0 450 300 2bangs 0;
#X obj 158 67 == 1;
#X obj 203 69 == 1;
#X obj 205 98 t b f;
#X obj 189 129 +;
#X floatatom 189 154 5 0 0 0 - - -;
#X obj 190 177 sel 2 1 0;
#X msg 219 214 0;
#X msg 252 216 0;
#X msg 184 214 1;
#X obj 159 36 inlet;
#X obj 208 39 inlet;
#X obj 185 250 outlet;
#X obj 302 253 tgl 15 0 empty empty empty 17 7 0 10 -262144 -1 -1 0
1;
#X connect 0 0 3 0;
#X connect 1 0 2 0;
#X connect 2 0 3 0;
#X connect 2 1 3 1;
#X connect 3 0 4 0;
#X connect 4 0 5 0;
#X connect 5 0 8 0;
#X connect 5 1 6 0;
#X connect 5 2 7 0;
#X connect 6 0 11 0;
#X connect 6 0 12 0;
#X connect 7 0 11 0;
#X connect 7 0 12 0;
#X connect 8 0 11 0;
#X connect 8 0 12 0;
#X connect 9 0 0 0;
#X connect 10 0 1 0;
#X coords 0 -1 1 1 20 20 1 300 250;
#X restore 433 356 pd 2bangs;
#N canvas 0 0 450 300 2bangs 0;
#X obj 158 67 == 1;
#X obj 203 69 == 1;
#X obj 205 98 t b f;
#X obj 189 129 +;
#X floatatom 189 154 5 0 0 0 - - -;
#X obj 190 177 sel 2 1 0;
#X msg 219 214 0;
#X msg 252 216 0;
#X msg 184 214 1;
#X obj 159 36 inlet;
#X obj 208 39 inlet;
#X obj 185 250 outlet;
#X obj 302 253 tgl 15 0 empty empty empty 17 7 0 10 -262144 -1 -1 1
1;
#X connect 0 0 3 0;
#X connect 1 0 2 0;
#X connect 2 0 3 0;
#X connect 2 1 3 1;
#X connect 3 0 4 0;
#X connect 4 0 5 0;
#X connect 5 0 8 0;
#X connect 5 1 6 0;
#X connect 5 2 7 0;
#X connect 6 0 11 0;
#X connect 6 0 12 0;
#X connect 7 0 11 0;
#X connect 7 0 12 0;
#X connect 8 0 11 0;
#X connect 8 0 12 0;
#X connect 9 0 0 0;
#X connect 10 0 1 0;
#X coords 0 -1 1 1 20 20 1 300 250;
#X restore 549 356 pd 2bangs;
#N canvas 0 0 450 300 2bangs 0;
#X obj 158 67 == 1;
#X obj 203 69 == 1;
#X obj 205 98 t b f;
#X obj 189 129 +;
#X floatatom 189 154 5 0 0 0 - - -;
#X obj 190 177 sel 2 1 0;
#X msg 219 214 0;
#X msg 252 216 0;
#X msg 184 214 1;
#X obj 159 36 inlet;
#X obj 208 39 inlet;
#X obj 185 250 outlet;
#X obj 302 253 tgl 15 0 empty empty empty 17 7 0 10 -262144 -1 -1 0
1;
#X connect 0 0 3 0;
#X connect 1 0 2 0;
#X connect 2 0 3 0;
#X connect 2 1 3 1;
#X connect 3 0 4 0;
#X connect 4 0 5 0;
#X connect 5 0 8 0;
#X connect 5 1 6 0;
#X connect 5 2 7 0;
#X connect 6 0 11 0;
#X connect 6 0 12 0;
#X connect 7 0 11 0;
#X connect 7 0 12 0;
#X connect 8 0 11 0;
#X connect 8 0 12 0;
#X connect 9 0 0 0;
#X connect 10 0 1 0;
#X coords 0 -1 1 1 20 20 1 300 250;
#X restore 324 294 pd 2bangs;
#N canvas 0 0 450 300 2bangs 0;
#X obj 158 67 == 1;
#X obj 203 69 == 1;
#X obj 205 98 t b f;
#X obj 189 129 +;
#X floatatom 189 154 5 0 0 0 - - -;
#X obj 190 177 sel 2 1 0;
#X msg 219 214 0;
#X msg 252 216 0;
#X msg 184 214 1;
#X obj 159 36 inlet;
#X obj 208 39 inlet;
#X obj 185 250 outlet;
#X obj 302 253 tgl 15 0 empty empty empty 17 7 0 10 -262144 -1 -1 0
1;
#X connect 0 0 3 0;
#X connect 1 0 2 0;
#X connect 2 0 3 0;
#X connect 2 1 3 1;
#X connect 3 0 4 0;
#X connect 4 0 5 0;
#X connect 5 0 8 0;
#X connect 5 1 6 0;
#X connect 5 2 7 0;
#X connect 6 0 11 0;
#X connect 6 0 12 0;
#X connect 7 0 11 0;
#X connect 7 0 12 0;
#X connect 8 0 11 0;
#X connect 8 0 12 0;
#X connect 9 0 0 0;
#X connect 10 0 1 0;
#X coords 0 -1 1 1 20 20 1 300 250;
#X restore 435 294 pd 2bangs;
#N canvas 0 0 450 300 2bangs 0;
#X obj 158 67 == 1;
#X obj 203 69 == 1;
#X obj 205 98 t b f;
#X obj 189 129 +;
#X floatatom 189 154 5 0 0 0 - - -;
#X obj 190 177 sel 2 1 0;
#X msg 219 214 0;
#X msg 252 216 0;
#X msg 184 214 1;
#X obj 159 36 inlet;
#X obj 208 39 inlet;
#X obj 185 250 outlet;
#X obj 302 253 tgl 15 0 empty empty empty 17 7 0 10 -262144 -1 -1 0
1;
#X connect 0 0 3 0;
#X connect 1 0 2 0;
#X connect 2 0 3 0;
#X connect 2 1 3 1;
#X connect 3 0 4 0;
#X connect 4 0 5 0;
#X connect 5 0 8 0;
#X connect 5 1 6 0;
#X connect 5 2 7 0;
#X connect 6 0 11 0;
#X connect 6 0 12 0;
#X connect 7 0 11 0;
#X connect 7 0 12 0;
#X connect 8 0 11 0;
#X connect 8 0 12 0;
#X connect 9 0 0 0;
#X connect 10 0 1 0;
#X coords 0 -1 1 1 20 20 1 300 250;
#X restore 548 296 pd 2bangs;
#N canvas 0 0 450 300 2bangs 0;
#X obj 158 67 == 1;
#X obj 203 69 == 1;
#X obj 205 98 t b f;
#X obj 189 129 +;
#X floatatom 189 154 5 0 0 0 - - -;
#X obj 190 177 sel 2 1 0;
#X msg 219 214 0;
#X msg 252 216 0;
#X msg 184 214 1;
#X obj 159 36 inlet;
#X obj 208 39 inlet;
#X obj 185 250 outlet;
#X obj 302 253 tgl 15 0 empty empty empty 17 7 0 10 -262144 -1 -1 0
1;
#X connect 0 0 3 0;
#X connect 1 0 2 0;
#X connect 2 0 3 0;
#X connect 2 1 3 1;
#X connect 3 0 4 0;
#X connect 4 0 5 0;
#X connect 5 0 8 0;
#X connect 5 1 6 0;
#X connect 5 2 7 0;
#X connect 6 0 11 0;
#X connect 6 0 12 0;
#X connect 7 0 11 0;
#X connect 7 0 12 0;
#X connect 8 0 11 0;
#X connect 8 0 12 0;
#X connect 9 0 0 0;
#X connect 10 0 1 0;
#X coords 0 -1 1 1 20 20 1 300 250;
#X restore 329 232 pd 2bangs;
#N canvas 429 295 450 300 2bangs 0;
#X obj 158 67 == 1;
#X obj 203 69 == 1;
#X obj 205 98 t b f;
#X obj 189 129 +;
#X floatatom 189 154 5 0 0 0 - - -;
#X obj 190 177 sel 2 1 0;
#X msg 219 214 0;
#X msg 252 216 0;
#X msg 184 214 1;
#X obj 159 36 inlet;
#X obj 208 39 inlet;
#X obj 185 250 outlet;
#X obj 302 253 tgl 15 0 empty empty empty 17 7 0 10 -262144 -1 -1 0
1;
#X obj 294 105 tgl 15 0 empty empty empty 17 7 0 10 -262144 -1 -1 0
1;
#X obj 96 59 tgl 15 0 empty empty empty 17 7 0 10 -262144 -1 -1 0 1
;
#X connect 0 0 3 0;
#X connect 1 0 2 0;
#X connect 2 0 3 0;
#X connect 2 1 3 1;
#X connect 3 0 4 0;
#X connect 4 0 5 0;
#X connect 5 0 8 0;
#X connect 5 1 6 0;
#X connect 5 2 7 0;
#X connect 6 0 11 0;
#X connect 6 0 12 0;
#X connect 7 0 11 0;
#X connect 7 0 12 0;
#X connect 8 0 11 0;
#X connect 8 0 12 0;
#X connect 9 0 0 0;
#X connect 10 0 1 0;
#X connect 13 0 1 0;
#X connect 14 0 0 0;
#X coords 0 -1 1 1 20 20 1 300 250;
#X restore 435 233 pd 2bangs;
#N canvas 0 0 450 300 2bangs 0;
#X obj 158 67 == 1;
#X obj 203 69 == 1;
#X obj 205 98 t b f;
#X obj 189 129 +;
#X floatatom 189 154 5 0 0 0 - - -;
#X obj 190 177 sel 2 1 0;
#X msg 219 214 0;
#X msg 252 216 0;
#X msg 184 214 1;
#X obj 159 36 inlet;
#X obj 208 39 inlet;
#X obj 185 250 outlet;
#X obj 302 253 tgl 15 0 empty empty empty 17 7 0 10 -262144 -1 -1 0
1;
#X connect 0 0 3 0;
#X connect 1 0 2 0;
#X connect 2 0 3 0;
#X connect 2 1 3 1;
#X connect 3 0 4 0;
#X connect 4 0 5 0;
#X connect 5 0 8 0;
#X connect 5 1 6 0;
#X connect 5 2 7 0;
#X connect 6 0 11 0;
#X connect 6 0 12 0;
#X connect 7 0 11 0;
#X connect 7 0 12 0;
#X connect 8 0 11 0;
#X connect 8 0 12 0;
#X connect 9 0 0 0;
#X connect 10 0 1 0;
#X coords 0 -1 1 1 20 20 1 300 250;
#X restore 551 233 pd 2bangs;
#N canvas 0 0 450 300 2bangs 0;
#X obj 158 67 == 1;
#X obj 203 69 == 1;
#X obj 205 98 t b f;
#X obj 189 129 +;
#X floatatom 189 154 5 0 0 0 - - -;
#X obj 190 177 sel 2 1 0;
#X msg 219 214 0;
#X msg 252 216 0;
#X msg 184 214 1;
#X obj 159 36 inlet;
#X obj 208 39 inlet;
#X obj 185 250 outlet;
#X obj 302 253 tgl 15 0 empty empty empty 17 7 0 10 -262144 -1 -1 0
1;
#X connect 0 0 3 0;
#X connect 1 0 2 0;
#X connect 2 0 3 0;
#X connect 2 1 3 1;
#X connect 3 0 4 0;
#X connect 4 0 5 0;
#X connect 5 0 8 0;
#X connect 5 1 6 0;
#X connect 5 2 7 0;
#X connect 6 0 11 0;
#X connect 6 0 12 0;
#X connect 7 0 11 0;
#X connect 7 0 12 0;
#X connect 8 0 11 0;
#X connect 8 0 12 0;
#X connect 9 0 0 0;
#X connect 10 0 1 0;
#X coords 0 -1 1 1 20 20 1 300 250;
#X restore 324 172 pd 2bangs;
#N canvas 0 0 450 300 2bangs 0;
#X obj 158 67 == 1;
#X obj 203 69 == 1;
#X obj 205 98 t b f;
#X obj 189 129 +;
#X floatatom 189 154 5 0 0 0 - - -;
#X obj 190 177 sel 2 1 0;
#X msg 219 214 0;
#X msg 252 216 0;
#X msg 184 214 1;
#X obj 159 36 inlet;
#X obj 208 39 inlet;
#X obj 185 250 outlet;
#X obj 302 253 tgl 15 0 empty empty empty 17 7 0 10 -262144 -1 -1 0
1;
#X connect 0 0 3 0;
#X connect 1 0 2 0;
#X connect 2 0 3 0;
#X connect 2 1 3 1;
#X connect 3 0 4 0;
#X connect 4 0 5 0;
#X connect 5 0 8 0;
#X connect 5 1 6 0;
#X connect 5 2 7 0;
#X connect 6 0 11 0;
#X connect 6 0 12 0;
#X connect 7 0 11 0;
#X connect 7 0 12 0;
#X connect 8 0 11 0;
#X connect 8 0 12 0;
#X connect 9 0 0 0;
#X connect 10 0 1 0;
#X coords 0 -1 1 1 20 20 1 300 250;
#X restore 432 174 pd 2bangs;
#N canvas 0 0 450 300 2bangs 0;
#X obj 158 67 == 1;
#X obj 203 69 == 1;
#X obj 205 98 t b f;
#X obj 189 129 +;
#X floatatom 189 154 5 0 0 0 - - -;
#X obj 190 177 sel 2 1 0;
#X msg 219 214 0;
#X msg 252 216 0;
#X msg 184 214 1;
#X obj 159 36 inlet;
#X obj 208 39 inlet;
#X obj 185 250 outlet;
#X obj 302 253 tgl 15 0 empty empty empty 17 7 0 10 -262144 -1 -1 0
1;
#X connect 0 0 3 0;
#X connect 1 0 2 0;
#X connect 2 0 3 0;
#X connect 2 1 3 1;
#X connect 3 0 4 0;
#X connect 4 0 5 0;
#X connect 5 0 8 0;
#X connect 5 1 6 0;
#X connect 5 2 7 0;
#X connect 6 0 11 0;
#X connect 6 0 12 0;
#X connect 7 0 11 0;
#X connect 7 0 12 0;
#X connect 8 0 11 0;
#X connect 8 0 12 0;
#X connect 9 0 0 0;
#X connect 10 0 1 0;
#X coords 0 -1 1 1 20 20 1 300 250;
#X restore 548 174 pd 2bangs;
#N canvas 0 0 450 300 2bangs 0;
#X obj 158 67 == 1;
#X obj 203 69 == 1;
#X obj 205 98 t b f;
#X obj 189 129 +;
#X floatatom 189 154 5 0 0 0 - - -;
#X obj 190 177 sel 2 1 0;
#X msg 219 214 0;
#X msg 252 216 0;
#X msg 184 214 1;
#X obj 159 36 inlet;
#X obj 208 39 inlet;
#X obj 185 250 outlet;
#X obj 302 253 tgl 15 0 empty empty empty 17 7 0 10 -262144 -1 -1 0
1;
#X connect 0 0 3 0;
#X connect 1 0 2 0;
#X connect 2 0 3 0;
#X connect 2 1 3 1;
#X connect 3 0 4 0;
#X connect 4 0 5 0;
#X connect 5 0 8 0;
#X connect 5 1 6 0;
#X connect 5 2 7 0;
#X connect 6 0 11 0;
#X connect 6 0 12 0;
#X connect 7 0 11 0;
#X connect 7 0 12 0;
#X connect 8 0 11 0;
#X connect 8 0 12 0;
#X connect 9 0 0 0;
#X connect 10 0 1 0;
#X coords 0 -1 1 1 20 20 1 300 250;
#X restore 330 106 pd 2bangs;
#N canvas 0 0 450 300 2bangs 0;
#X obj 158 67 == 1;
#X obj 203 69 == 1;
#X obj 205 98 t b f;
#X obj 189 129 +;
#X floatatom 189 154 5 0 0 0 - - -;
#X obj 190 177 sel 2 1 0;
#X msg 219 214 0;
#X msg 252 216 0;
#X msg 184 214 1;
#X obj 159 36 inlet;
#X obj 208 39 inlet;
#X obj 185 250 outlet;
#X obj 302 253 tgl 15 0 empty empty empty 17 7 0 10 -262144 -1 -1 0
1;
#X connect 0 0 3 0;
#X connect 1 0 2 0;
#X connect 2 0 3 0;
#X connect 2 1 3 1;
#X connect 3 0 4 0;
#X connect 4 0 5 0;
#X connect 5 0 8 0;
#X connect 5 1 6 0;
#X connect 5 2 7 0;
#X connect 6 0 11 0;
#X connect 6 0 12 0;
#X connect 7 0 11 0;
#X connect 7 0 12 0;
#X connect 8 0 11 0;
#X connect 8 0 12 0;
#X connect 9 0 0 0;
#X connect 10 0 1 0;
#X coords 0 -1 1 1 20 20 1 300 250;
#X restore 438 108 pd 2bangs;
#N canvas 0 0 450 300 2bangs 0;
#X obj 158 67 == 1;
#X obj 203 69 == 1;
#X obj 205 98 t b f;
#X obj 189 129 +;
#X floatatom 189 154 5 0 0 0 - - -;
#X obj 190 177 sel 2 1 0;
#X msg 219 214 0;
#X msg 252 216 0;
#X msg 184 214 1;
#X obj 159 36 inlet;
#X obj 208 39 inlet;
#X obj 185 250 outlet;
#X obj 302 253 tgl 15 0 empty empty empty 17 7 0 10 -262144 -1 -1 0
1;
#X connect 0 0 3 0;
#X connect 1 0 2 0;
#X connect 2 0 3 0;
#X connect 2 1 3 1;
#X connect 3 0 4 0;
#X connect 4 0 5 0;
#X connect 5 0 8 0;
#X connect 5 1 6 0;
#X connect 5 2 7 0;
#X connect 6 0 11 0;
#X connect 6 0 12 0;
#X connect 7 0 11 0;
#X connect 7 0 12 0;
#X connect 8 0 11 0;
#X connect 8 0 12 0;
#X connect 9 0 0 0;
#X connect 10 0 1 0;
#X coords 0 -1 1 1 20 20 1 300 250;
#X restore 554 108 pd 2bangs;
#X obj 375 535 hsl 128 15 0 127 0 0 empty empty empty -2 -8 0 10 -262144
-1 -1 12700 1;
#X obj 355 480 vsl 15 128 0 127 0 0 empty empty empty 0 -9 0 10 -262144
-1 -1 100 1;
#X obj 371 459 r \$0-2gy;
#X obj 372 478 r \$0-2gx;
#X obj 324 334 r \$0-2gx1;
#X obj 378 335 r \$0-2gy1;
#X obj 433 333 r \$0-2gx2;
#X obj 489 334 r \$0-2gy1;
#X obj 549 334 r \$0-2gx3;
#X obj 604 334 r \$0-2gy1;
#X obj 601 273 r \$0-2gy2;
#X obj 546 273 r \$0-2gx3;
#X obj 492 273 r \$0-2gy2;
#X obj 437 273 r \$0-2gx2;
#X obj 378 274 r \$0-2gy2;
#X obj 323 274 r \$0-2gx1;
#X obj 324 214 r \$0-2gx1;
#X obj 433 212 r \$0-2gx2;
#X obj 488 212 r \$0-2gy3;
#X obj 545 213 r \$0-2gx3;
#X obj 600 213 r \$0-2gy3;
#X obj 598 152 r \$0-2gy4;
#X obj 543 152 r \$0-2gx3;
#X obj 486 151 r \$0-2gy4;
#X obj 431 151 r \$0-2gx2;
#X obj 377 153 r \$0-2gy4;
#X obj 322 153 r \$0-2gx1;
#X obj 325 83 r \$0-2gx1;
#X obj 380 83 r \$0-2gy5;
#X obj 434 81 r \$0-2gx2;
#X obj 489 81 r \$0-2gy5;
#X obj 546 82 r \$0-2gx3;
#X obj 601 82 r \$0-2gy5;
#X connect 3 0 15 0;
#X connect 4 0 16 0;
#X connect 5 0 0 0;
#X connect 5 0 25 0;
#X connect 5 0 20 0;
#X connect 5 0 32 0;
#X connect 5 1 1 0;
#X connect 5 1 26 0;
#X connect 5 1 21 0;
#X connect 5 1 33 0;
#X connect 6 0 5 0;
#X connect 7 0 6 0;
#X connect 8 0 3 0;
#X connect 8 1 4 0;
#X connect 8 2 12 0;
#X connect 9 0 8 0;
#X connect 10 0 2 0;
#X connect 10 0 23 0;
#X connect 12 0 17 0;
#X connect 13 0 9 1;
#X connect 14 0 18 0;
#X connect 15 0 7 0;
#X connect 16 0 7 1;
#X connect 17 0 10 0;
#X connect 18 0 9 0;
#X connect 19 0 18 1;
#X connect 19 0 22 0;
#X connect 20 0 35 0;
#X connect 20 1 36 0;
#X connect 20 2 37 0;
#X connect 21 0 38 0;
#X connect 21 1 39 0;
#X connect 21 2 40 0;
#X connect 21 3 41 0;
#X connect 21 4 42 0;
#X connect 23 0 27 0;
#X connect 24 0 11 0;
#X connect 24 0 27 0;
#X connect 24 0 34 0;
#X connect 29 0 28 0;
#X connect 30 0 31 0;
#X connect 43 0 65 1;
#X connect 59 0 44 0;
#X connect 60 0 45 0;
#X connect 61 0 46 0;
#X connect 62 0 47 0;
#X connect 63 0 51 0;
#X connect 64 0 55 0;
#X connect 65 0 48 0;
#X connect 66 0 52 0;
#X connect 67 0 56 0;
#X connect 68 0 49 0;
#X connect 69 0 53 0;
#X connect 70 0 57 0;
#X connect 71 0 50 0;
#X connect 72 0 54 0;
#X connect 73 0 58 0;
#X connect 76 0 75 0;
#X connect 77 0 74 0;
#X connect 78 0 59 0;
#X connect 79 0 59 1;
#X connect 80 0 60 0;
#X connect 81 0 60 1;
#X connect 82 0 61 0;
#X connect 83 0 61 1;
#X connect 84 0 64 1;
#X connect 85 0 64 0;
#X connect 86 0 63 1;
#X connect 87 0 63 0;
#X connect 88 0 62 1;
#X connect 89 0 62 0;
#X connect 90 0 65 0;
#X connect 91 0 66 0;
#X connect 92 0 66 1;
#X connect 93 0 67 0;
#X connect 94 0 67 1;
#X connect 95 0 70 1;
#X connect 96 0 70 0;
#X connect 97 0 69 1;
#X connect 98 0 69 0;
#X connect 99 0 68 1;
#X connect 100 0 68 0;
#X connect 101 0 71 0;
#X connect 102 0 71 1;
#X connect 103 0 72 0;
#X connect 104 0 72 1;
#X connect 105 0 73 0;
#X connect 106 0 73 1;
#X coords 0 -1 1 1 160 120 1 0 205;
