#N canvas 1672 0 1366 726 10;
#X obj 523 221 t b f;
#X obj 488 226 +;
#X obj 465 249 t b f;
#X obj 452 275 +;
#X obj 424 299 t b f;
#X obj 400 324 +;
#X obj 370 348 t b f;
#X obj 358 374 +;
#X obj 331 397 t b f;
#X obj 317 429 +;
#X obj 285 454 t b f;
#X obj 264 477 +;
#X obj 236 498 t b f;
#X obj 229 531 +;
#X obj 543 82 * 128;
#X obj 494 82 * 64;
#X obj 445 82 * 32;
#X obj 396 82 * 16;
#X obj 201 77 * 8;
#X obj 239 73 * 4;
#X obj 278 75 * 2;
#X obj 326 107 tgl 30 0 empty empty empty 17 7 0 10 -258113 -1 -1 0
1;
#X obj 293 108 tgl 30 0 empty empty empty 17 7 0 10 -258113 -1 -1 0
2;
#X obj 260 109 tgl 30 0 empty empty empty 17 7 0 10 -258113 -1 -1 0
4;
#X obj 227 126 tgl 30 0 empty empty empty 17 7 0 10 -258113 -1 -1 0
8;
#X obj 413 105 tgl 30 0 empty empty empty 17 7 0 10 -258113 -1 -1 0
16;
#X obj 446 105 tgl 30 0 empty empty empty 17 7 0 10 -258113 -1 -1 0
32;
#X obj 478 105 tgl 30 0 empty empty empty 17 7 0 10 -258113 -1 -1 64
64;
#X obj 519 122 tgl 30 0 empty empty empty 17 7 0 10 -258113 -1 -1 0
128;
#X text 329 90 Left;
#X text 510 109 Right;
#X obj 302 139 tgl 20 0 empty empty empty 17 7 0 10 -4032 -1 -1 0 1
;
#X obj 332 140 tgl 20 0 empty flash1 empty 17 7 0 10 -4034 -1 -1 0
1;
#X text 333 115 1;
#X text 301 113 2;
#X text 266 117 3;
#X text 232 133 4;
#X text 421 112 5;
#X text 453 112 6;
#X text 485 112 7;
#X text 531 129 8;
#X text 336 138 C3;
#X text 306 137 C2;
#X floatatom 563 104 5 0 0 0 - - -;
#X obj 204 137 tgl 15 0 empty empty empty 17 7 0 10 -262144 -1 -1 0
1;
#X obj 196 163 s key4;
#X obj 250 163 s key3;
#X obj 305 163 s key2;
#X obj 360 163 s key1;
#X obj 409 165 s key5;
#X obj 455 163 s key6;
#X obj 500 163 s key7;
#X obj 544 164 s key8;
#X obj 188 4 r fl4-1;
#X obj 236 4 r fl3-1;
#X obj 284 5 r fl2-1;
#X obj 333 5 r fl1-1;
#X obj 407 3 r fr4-1;
#X obj 449 3 r fr2-1;
#X obj 497 2 r fr3-1;
#X obj 548 1 r fr1-1;
#N canvas 479 127 712 531 note_abstraction 0;
#X msg -479 -2052 64;
#X msg -438 -2053 63;
#X msg -402 -2052 62;
#X msg -370 -2052 61;
#X msg -718 -2029 60;
#X msg -682 -2029 59;
#X msg -646 -2028 58;
#X msg -614 -2030 57;
#X msg -579 -2028 56;
#X msg -543 -2028 55;
#X msg -507 -2027 54;
#X msg -475 -2027 53;
#X msg -523 -2051 65;
#X msg -556 -2050 66;
#X msg -589 -2051 67;
#X msg -619 -2051 68;
#X msg -649 -2051 69;
#X msg -682 -2051 70;
#X msg -713 -2050 71;
#X msg -401 -2028 51;
#X msg -417 -2367 12;
#X obj -529 -2216 +;
#X msg -577 -2369 -12;
#X msg -510 -2366 0;
#X obj -453 -2426 sel 0 1;
#X obj -377 -2423 sel 0 1;
#X obj -450 -2350 bng 15 250 50 0 empty empty empty 17 7 0 10 -262144
-1 -1;
#X obj -434 -2366 bng 15 250 50 0 empty empty empty 17 7 0 10 -262144
-1 -1;
#X obj -615 -2427 sel 0 1;
#X obj -611 -2350 bng 15 250 50 0 empty empty empty 17 7 0 10 -262144
-1 -1;
#X obj -595 -2367 bng 15 250 50 0 empty empty empty 17 7 0 10 -262144
-1 -1;
#X obj -695 -2428 sel 0 1;
#X obj -695 -2354 bng 15 250 50 0 empty empty empty 17 7 0 10 -262144
-1 -1;
#X obj -676 -2369 bng 15 250 50 0 empty empty empty 17 7 0 10 -262144
-1 -1;
#X msg -658 -2369 -24;
#X msg -439 -2027 50;
#X msg -364 -2024 65;
#X msg -331 -2024 63;
#X msg -299 -2023 64;
#X msg -266 -2023 61;
#X msg -304 -2050 60;
#X obj -677 -2100 select 12 4 36 20 52 244 116 0 2 1 17 3 15 7 39 23
55 247 119 255 127 32 33 34 35 47 49;
#X msg -339 -2051 62;
#X floatatom -655 -2220 5 0 0 0 - - -;
#X obj -348 -2194 s off;
#X obj -350 -2237 tgl 15 0 empty empty empty 17 7 0 10 -262144 -1 -1
0 1;
#X floatatom -576 -2171 5 0 0 0 - - -;
#X msg -341 -2369 24;
#X obj -358 -2368 bng 15 250 50 0 empty empty empty 17 7 0 10 -262144
-1 -1;
#X obj -377 -2351 bng 15 250 50 0 empty empty empty 17 7 0 10 -262144
-1 -1;
#X obj -696 -2497 r jlb3;
#X obj -615 -2491 r jlb1;
#X obj -450 -2473 r jlb4;
#X obj -377 -2476 r jlb2;
#X obj -524 -2153 s paranote;
#X connect 0 0 43 0;
#X connect 1 0 43 0;
#X connect 2 0 43 0;
#X connect 3 0 43 0;
#X connect 4 0 43 0;
#X connect 5 0 43 0;
#X connect 6 0 43 0;
#X connect 7 0 43 0;
#X connect 8 0 43 0;
#X connect 9 0 43 0;
#X connect 10 0 43 0;
#X connect 11 0 43 0;
#X connect 12 0 43 0;
#X connect 13 0 43 0;
#X connect 14 0 43 0;
#X connect 15 0 43 0;
#X connect 16 0 43 0;
#X connect 17 0 43 0;
#X connect 18 0 43 0;
#X connect 19 0 43 0;
#X connect 20 0 21 1;
#X connect 21 0 46 0;
#X connect 21 0 54 0;
#X connect 22 0 21 1;
#X connect 23 0 21 1;
#X connect 24 0 23 0;
#X connect 24 0 26 0;
#X connect 24 1 20 0;
#X connect 24 1 27 0;
#X connect 25 0 23 0;
#X connect 25 0 49 0;
#X connect 25 1 47 0;
#X connect 25 1 48 0;
#X connect 26 0 21 0;
#X connect 27 0 21 0;
#X connect 28 0 23 0;
#X connect 28 0 29 0;
#X connect 28 1 22 0;
#X connect 28 1 30 0;
#X connect 29 0 21 0;
#X connect 30 0 21 0;
#X connect 31 0 32 0;
#X connect 31 0 23 0;
#X connect 31 1 34 0;
#X connect 31 1 33 0;
#X connect 32 0 21 0;
#X connect 33 0 21 0;
#X connect 34 0 21 1;
#X connect 35 0 43 0;
#X connect 36 0 43 0;
#X connect 37 0 43 0;
#X connect 38 0 43 0;
#X connect 39 0 43 0;
#X connect 40 0 43 0;
#X connect 41 0 18 0;
#X connect 41 1 17 0;
#X connect 41 2 16 0;
#X connect 41 3 15 0;
#X connect 41 4 14 0;
#X connect 41 5 13 0;
#X connect 41 6 12 0;
#X connect 41 7 0 0;
#X connect 41 8 1 0;
#X connect 41 9 2 0;
#X connect 41 10 3 0;
#X connect 41 11 4 0;
#X connect 41 12 5 0;
#X connect 41 13 6 0;
#X connect 41 14 7 0;
#X connect 41 15 8 0;
#X connect 41 16 9 0;
#X connect 41 17 10 0;
#X connect 41 18 11 0;
#X connect 41 19 35 0;
#X connect 41 20 19 0;
#X connect 41 21 36 0;
#X connect 41 22 37 0;
#X connect 41 23 38 0;
#X connect 41 24 39 0;
#X connect 41 25 40 0;
#X connect 41 26 42 0;
#X connect 42 0 43 0;
#X connect 43 0 21 0;
#X connect 45 0 44 0;
#X connect 47 0 21 1;
#X connect 48 0 21 0;
#X connect 49 0 21 0;
#X connect 50 0 31 0;
#X connect 51 0 28 0;
#X connect 52 0 24 0;
#X connect 53 0 25 0;
#X restore 801 539 pd note_abstraction;
#X text 565 115 key#;
#X msg 753 262 1;
#X msg 784 261 2;
#X msg 817 261 3;
#X msg 847 261 4;
#X msg 877 261 5;
#X msg 910 262 6;
#X msg 947 261 7;
#X msg 987 260 8;
#X floatatom 734 486 5 0 0 0 - - -;
#X text 562 144 para#;
#X floatatom 643 171 5 0 0 0 - - -;
#X obj 858 105 r jrb4-1;
#X obj 804 104 r jrb1-1;
#X obj 694 104 r jlb1-1;
#X obj 748 104 r jlb4-1;
#X obj 619 207 s parakey;
#X obj 96 3 r flash-instr;
#X obj 191 190 s flash1;
#X obj 413 137 tgl 20 0 empty empty empty 17 7 0 10 -4032 -1 -1 0 1
;
#X obj 442 138 tgl 20 0 empty empty empty 17 7 0 10 -4034 -1 -1 0 1
;
#X text 442 136 C3;
#X text 412 135 C2;
#X obj 697 130 * 255;
#X obj 746 130 * 512;
#X obj 795 130 * 1024;
#X obj 844 130 * 2048;
#X obj 725 173 t b f;
#X obj 713 199 +;
#X obj 686 222 t b f;
#X obj 672 254 +;
#X obj 640 279 t b f;
#X obj 619 302 +;
#X obj 591 323 t b f;
#X obj 584 356 +;
#X floatatom 559 132 5 0 0 0 - - -;
#X msg 949 316 9;
#X msg 980 315 10;
#X msg 1013 315 11;
#X msg 1043 315 12;
#X msg 1073 315 13;
#X msg 1106 316 14;
#X msg 1143 315 15;
#X msg 1183 314 16;
#X msg 1074 392 17;
#X msg 1105 391 18;
#X msg 1138 391 19;
#X msg 1168 391 20;
#X msg 1198 391 21;
#X msg 1231 392 22;
#X msg 1268 391 23;
#X msg 1308 390 24;
#X obj 141 124 == 0;
#X obj 619 166 +;
#X msg 1240 225 0;
#X obj 205 50 bk;
#X obj 242 49 bk;
#X obj 284 51 bk;
#X obj 323 50 bk;
#X obj 416 47 bk;
#X obj 452 48 bk;
#X obj 492 46 bk;
#X obj 528 47 bk;
#X floatatom 587 390 5 0 0 0 - - -;
#X obj 874 172 select 1 2 4 8 16 32 64 128 256 257 259 263 1040 1056
1088 1152 513 514 516 520 2064 2080 2112 2176 0 17 34;
#X msg 1266 282 25;
#X msg 1302 284 26;
#X obj 201 26 > 0.1;
#X obj 244 26 > 0.1;
#X obj 286 26 > 0.1;
#X obj 336 27 > 0.1;
#X obj 408 27 > 0.1;
#X obj 449 27 > 0.1;
#X obj 533 28 > 0.1;
#X floatatom 1337 214 5 0 0 0 - - -;
#X msg 1228 458 1 0 0;
#X msg 1241 480 0.8 0.2 0;
#X msg 1259 502 0.6 0.4 0;
#X msg 1274 522 0.4 0.6 0;
#X msg 1288 544 0.2 0.8 0;
#X msg 1302 566 0 1 0;
#X msg 1318 438 0 0.8 0.2;
#X msg 1335 459 0 0.6 0.4;
#X msg 1348 482 0 0.4 0.6;
#X msg 1361 504 0 0.2 0.8;
#X msg 1376 526 0 0 1;
#X msg 1217 438 0.2 0 0.8;
#X obj 1215 415 sel 0 1 2 3 4 5 6 7 8 9 10 11 12;
#X text 1375 212 redo with moses;
#X obj 1295 254 mod 12;
#X floatatom 1387 260 5 0 0 0 - - -;
#X obj 1294 200 r mynotemsg;
#X obj 1294 229 unpack f f f;
#X obj 1215 583 s notecolor-l;
#X obj 490 27 > 0.3;
#X connect 0 0 1 0;
#X connect 0 1 1 1;
#X connect 1 0 2 0;
#X connect 2 0 3 0;
#X connect 2 1 3 1;
#X connect 3 0 4 0;
#X connect 4 0 5 0;
#X connect 4 1 5 1;
#X connect 5 0 6 0;
#X connect 6 0 7 0;
#X connect 6 1 7 1;
#X connect 7 0 8 0;
#X connect 8 0 9 0;
#X connect 8 1 9 1;
#X connect 9 0 10 0;
#X connect 10 0 11 0;
#X connect 10 1 11 1;
#X connect 11 0 12 0;
#X connect 12 0 13 0;
#X connect 12 1 13 1;
#X connect 13 0 89 0;
#X connect 14 0 28 0;
#X connect 15 0 27 0;
#X connect 16 0 26 0;
#X connect 17 0 25 0;
#X connect 18 0 24 0;
#X connect 19 0 23 0;
#X connect 20 0 22 0;
#X connect 21 0 13 0;
#X connect 21 0 48 0;
#X connect 22 0 11 0;
#X connect 22 0 47 0;
#X connect 23 0 9 0;
#X connect 23 0 46 0;
#X connect 24 0 7 0;
#X connect 24 0 45 0;
#X connect 25 0 5 0;
#X connect 25 0 49 0;
#X connect 26 0 3 0;
#X connect 26 0 50 0;
#X connect 27 0 1 0;
#X connect 27 0 51 0;
#X connect 28 0 0 0;
#X connect 28 0 52 0;
#X connect 44 0 80 0;
#X connect 53 0 129 0;
#X connect 54 0 130 0;
#X connect 55 0 131 0;
#X connect 56 0 132 0;
#X connect 57 0 133 0;
#X connect 58 0 134 0;
#X connect 59 0 156 0;
#X connect 60 0 135 0;
#X connect 63 0 71 0;
#X connect 64 0 71 0;
#X connect 65 0 71 0;
#X connect 66 0 71 0;
#X connect 67 0 71 0;
#X connect 68 0 71 0;
#X connect 69 0 71 0;
#X connect 70 0 71 0;
#X connect 71 0 115 0;
#X connect 74 0 82 0;
#X connect 74 0 88 0;
#X connect 75 0 81 0;
#X connect 75 0 87 0;
#X connect 76 0 31 0;
#X connect 76 0 85 0;
#X connect 77 0 32 0;
#X connect 77 0 86 0;
#X connect 79 0 114 0;
#X connect 85 0 90 0;
#X connect 86 0 92 0;
#X connect 87 0 94 0;
#X connect 88 0 96 0;
#X connect 89 0 90 0;
#X connect 89 1 90 1;
#X connect 90 0 91 0;
#X connect 91 0 92 0;
#X connect 91 1 92 1;
#X connect 92 0 93 0;
#X connect 93 0 94 0;
#X connect 93 1 94 1;
#X connect 94 0 95 0;
#X connect 95 0 96 0;
#X connect 95 1 96 1;
#X connect 96 0 43 0;
#X connect 96 0 125 0;
#X connect 96 0 126 0;
#X connect 97 0 115 0;
#X connect 98 0 71 0;
#X connect 99 0 71 0;
#X connect 100 0 71 0;
#X connect 101 0 71 0;
#X connect 102 0 71 0;
#X connect 103 0 71 0;
#X connect 104 0 71 0;
#X connect 105 0 71 0;
#X connect 106 0 71 0;
#X connect 107 0 71 0;
#X connect 108 0 71 0;
#X connect 109 0 71 0;
#X connect 110 0 71 0;
#X connect 111 0 71 0;
#X connect 112 0 71 0;
#X connect 113 0 71 0;
#X connect 115 0 78 0;
#X connect 115 0 73 0;
#X connect 116 0 115 0;
#X connect 117 0 18 0;
#X connect 118 0 19 0;
#X connect 119 0 20 0;
#X connect 120 0 21 0;
#X connect 121 0 17 0;
#X connect 122 0 16 0;
#X connect 123 0 15 0;
#X connect 124 0 14 0;
#X connect 126 0 63 0;
#X connect 126 1 64 0;
#X connect 126 2 65 0;
#X connect 126 3 66 0;
#X connect 126 4 67 0;
#X connect 126 5 68 0;
#X connect 126 6 69 0;
#X connect 126 7 70 0;
#X connect 126 8 98 0;
#X connect 126 9 99 0;
#X connect 126 10 100 0;
#X connect 126 11 101 0;
#X connect 126 12 102 0;
#X connect 126 13 103 0;
#X connect 126 14 104 0;
#X connect 126 15 105 0;
#X connect 126 16 106 0;
#X connect 126 17 107 0;
#X connect 126 18 108 0;
#X connect 126 19 109 0;
#X connect 126 20 110 0;
#X connect 126 21 111 0;
#X connect 126 22 112 0;
#X connect 126 23 113 0;
#X connect 126 24 116 0;
#X connect 126 25 127 0;
#X connect 126 26 128 0;
#X connect 127 0 71 0;
#X connect 128 0 71 0;
#X connect 129 0 117 0;
#X connect 130 0 118 0;
#X connect 131 0 119 0;
#X connect 132 0 120 0;
#X connect 133 0 121 0;
#X connect 134 0 122 0;
#X connect 135 0 124 0;
#X connect 137 0 155 0;
#X connect 138 0 155 0;
#X connect 139 0 155 0;
#X connect 140 0 155 0;
#X connect 141 0 155 0;
#X connect 142 0 155 0;
#X connect 143 0 155 0;
#X connect 144 0 155 0;
#X connect 145 0 155 0;
#X connect 146 0 155 0;
#X connect 147 0 155 0;
#X connect 148 0 155 0;
#X connect 149 0 148 0;
#X connect 149 1 137 0;
#X connect 149 2 138 0;
#X connect 149 3 139 0;
#X connect 149 4 140 0;
#X connect 149 5 141 0;
#X connect 149 6 142 0;
#X connect 149 7 143 0;
#X connect 149 8 144 0;
#X connect 149 9 145 0;
#X connect 149 10 146 0;
#X connect 149 11 147 0;
#X connect 149 12 137 0;
#X connect 151 0 152 0;
#X connect 151 0 149 0;
#X connect 153 0 136 0;
#X connect 153 0 154 0;
#X connect 154 0 151 0;
#X connect 156 0 123 0;
#X coords 0 -1 1 1 400 60 1 200 100;
