#N canvas 0 0 1366 726 10;
#X obj 458 407 tgl 30 0 empty empty empty 17 7 0 10 -258113 -1 -1 0
1;
#X obj 424 407 tgl 30 0 empty empty empty 17 7 0 10 -258113 -1 -1 0
1;
#X obj 390 407 tgl 30 0 empty empty empty 17 7 0 10 -258113 -1 -1 0
1;
#X obj 358 406 tgl 30 0 empty empty empty 17 7 0 10 -258113 -1 -1 0
1;
#X obj 876 406 tgl 30 0 empty empty empty 17 7 0 10 -258113 -1 -1 0
1;
#X obj 909 406 tgl 30 0 empty empty empty 17 7 0 10 -258113 -1 -1 0
1;
#X obj 941 406 tgl 30 0 empty empty empty 17 7 0 10 -258113 -1 -1 0
1;
#X obj 974 406 tgl 30 0 empty empty empty 17 7 0 10 -258113 -1 -1 1
1;
#X text 326 400 Left;
#X text 1017 401 Right;
#X obj 648 428 tgl 15 0 empty empty empty 17 7 0 10 -262144 -1 -1 0
1;
#X obj 664 418 tgl 15 0 empty empty empty 17 7 0 10 -262144 -1 -1 0
1;
#X obj 649 405 tgl 15 0 empty empty empty 17 7 0 10 -262144 -1 -1 0
1;
#X obj 635 444 tgl 15 0 empty empty empty 17 7 0 10 -262144 -1 -1 0
1;
#X obj 524 37 > 0.03;
#X obj 436 37 > 0.03;
#X obj 391 40 > 0.03;
#X obj 481 37 > 0.05;
#X obj 609 36 > 0.1;
#X obj 645 36 > 0.1;
#X obj 681 36 > 0.1;
#X obj 717 36 > 0.07;
#X text 465 415 1;
#X text 430 414 2;
#X text 396 415 3;
#X text 363 423 4;
#X text 664 416 C3;
#X text 648 404 C4;
#X text 647 426 C2;
#X text 635 442 C1;
#X obj 383 165 s flash;
#X obj 328 419 bng 15 250 50 0 empty empty empty 17 7 0 10 -262144
-1 -1;
#X floatatom 835 436 5 0 0 0 - - -;
#X text 986 416 8;
#X text 386 -15 create a subpatch with seperate graphics that replace
the primary graphics when switched to this mode;
#X obj 383 16 r fl4-1;
#X obj 431 15 r fl3-1;
#X obj 479 14 r fl2-1;
#X obj 529 15 r fl1-1;
#X obj 598 12 r fr4-1;
#X obj 640 12 r fr2-1;
#X obj 679 12 r fr3-1;
#X obj 724 12 r fr1-1;
#N canvas 598 180 236 269 bk 0;
#X obj 69 63 tgl 15 0 empty empty empty 17 7 0 10 -262144 -1 -1 0 3
;
#X obj 88 113 tgl 15 0 empty empty empty 17 7 0 10 -262144 -1 -1 0
1;
#X obj 62 44 * 3;
#X floatatom 27 51 5 0 0 0 - - -;
#X floatatom 98 139 5 0 0 0 - - -;
#X obj 59 3 inlet;
#X obj 94 199 outlet;
#X obj 42 81 threshold 2 1 1 2;
#X obj 173 68 r flash;
#X msg 176 103 0;
#X obj 97 169 spigot;
#X obj 132 139 tgl 15 0 empty empty empty 17 7 0 10 -262144 -1 -1 0
1;
#X obj 135 121 r off1;
#X connect 1 0 4 0;
#X connect 2 0 0 0;
#X connect 2 0 3 0;
#X connect 2 0 7 0;
#X connect 4 0 10 0;
#X connect 5 0 2 0;
#X connect 7 0 1 0;
#X connect 7 1 1 0;
#X connect 8 0 9 0;
#X connect 9 0 1 0;
#X connect 10 0 6 0;
#X connect 11 0 10 1;
#X connect 12 0 11 0;
#X restore 782 -10 pd bk;
#N canvas 598 180 236 269 bk 0;
#X obj 69 63 tgl 15 0 empty empty empty 17 7 0 10 -262144 -1 -1 0 3
;
#X obj 88 113 tgl 15 0 empty empty empty 17 7 0 10 -262144 -1 -1 0
1;
#X obj 62 44 * 3;
#X floatatom 27 51 5 0 0 0 - - -;
#X floatatom 98 139 5 0 0 0 - - -;
#X obj 59 3 inlet;
#X obj 94 199 outlet;
#X obj 42 81 threshold 2 1 1 2;
#X obj 173 68 r flash;
#X msg 176 103 0;
#X connect 1 0 4 0;
#X connect 2 0 0 0;
#X connect 2 0 3 0;
#X connect 2 0 7 0;
#X connect 4 0 6 0;
#X connect 5 0 2 0;
#X connect 7 0 1 0;
#X connect 7 1 1 0;
#X connect 8 0 9 0;
#X connect 9 0 1 0;
#X restore 733 71 pd bk;
#N canvas 598 180 236 269 bk 0;
#X obj 69 63 tgl 15 0 empty empty empty 17 7 0 10 -262144 -1 -1 0 3
;
#X obj 88 113 tgl 15 0 empty empty empty 17 7 0 10 -262144 -1 -1 0
1;
#X obj 62 44 * 3;
#X floatatom 27 51 5 0 0 0 - - -;
#X floatatom 98 139 5 0 0 0 - - -;
#X obj 59 3 inlet;
#X obj 94 199 outlet;
#X obj 42 81 threshold 2 1 1 2;
#X obj 173 68 r flash;
#X msg 176 103 0;
#X connect 1 0 4 0;
#X connect 2 0 0 0;
#X connect 2 0 3 0;
#X connect 2 0 7 0;
#X connect 4 0 6 0;
#X connect 5 0 2 0;
#X connect 7 0 1 0;
#X connect 7 1 1 0;
#X connect 8 0 9 0;
#X connect 9 0 1 0;
#X restore 607 69 pd bk;
#N canvas 598 180 236 269 bk 0;
#X obj 69 63 tgl 15 0 empty empty empty 17 7 0 10 -262144 -1 -1 0 3
;
#X obj 88 113 tgl 15 0 empty empty empty 17 7 0 10 -262144 -1 -1 0
1;
#X obj 62 44 * 3;
#X floatatom 27 51 5 0 0 0 - - -;
#X floatatom 98 139 5 0 0 0 - - -;
#X obj 59 3 inlet;
#X obj 94 199 outlet;
#X obj 42 81 threshold 2 1 1 2;
#X obj 173 68 r flash;
#X msg 176 103 0;
#X connect 1 0 4 0;
#X connect 2 0 0 0;
#X connect 2 0 3 0;
#X connect 2 0 7 0;
#X connect 4 0 6 0;
#X connect 5 0 2 0;
#X connect 7 0 1 0;
#X connect 7 1 1 0;
#X connect 8 0 9 0;
#X connect 9 0 1 0;
#X restore 648 71 pd bk;
#N canvas 598 180 236 269 bk 0;
#X obj 69 63 tgl 15 0 empty empty empty 17 7 0 10 -262144 -1 -1 0 3
;
#X obj 88 113 tgl 15 0 empty empty empty 17 7 0 10 -262144 -1 -1 0
1;
#X obj 62 44 * 3;
#X floatatom 27 51 5 0 0 0 - - -;
#X floatatom 98 139 5 0 0 0 - - -;
#X obj 59 3 inlet;
#X obj 94 199 outlet;
#X obj 42 81 threshold 2 1 1 2;
#X obj 173 68 r flash;
#X msg 176 103 0;
#X connect 1 0 4 0;
#X connect 2 0 0 0;
#X connect 2 0 3 0;
#X connect 2 0 7 0;
#X connect 4 0 6 0;
#X connect 5 0 2 0;
#X connect 7 0 1 0;
#X connect 7 1 1 0;
#X connect 8 0 9 0;
#X connect 9 0 1 0;
#X restore 692 71 pd bk;
#N canvas 598 180 236 269 bk 0;
#X obj 69 63 tgl 15 0 empty empty empty 17 7 0 10 -262144 -1 -1 0 3
;
#X obj 88 113 tgl 15 0 empty empty empty 17 7 0 10 -262144 -1 -1 0
1;
#X obj 62 44 * 3;
#X floatatom 27 51 5 0 0 0 - - -;
#X floatatom 98 139 5 0 0 0 - - -;
#X obj 59 3 inlet;
#X obj 94 199 outlet;
#X obj 42 81 threshold 2 1 1 2;
#X obj 173 68 r flash;
#X msg 176 103 0;
#X connect 1 0 4 0;
#X connect 2 0 0 0;
#X connect 2 0 3 0;
#X connect 2 0 7 0;
#X connect 4 0 6 0;
#X connect 5 0 2 0;
#X connect 7 0 1 0;
#X connect 7 1 1 0;
#X connect 8 0 9 0;
#X connect 9 0 1 0;
#X restore 531 67 pd bk;
#N canvas 598 180 236 269 bk 0;
#X obj 69 63 tgl 15 0 empty empty empty 17 7 0 10 -262144 -1 -1 0 3
;
#X obj 88 113 tgl 15 0 empty empty empty 17 7 0 10 -262144 -1 -1 0
1;
#X obj 62 44 * 3;
#X floatatom 27 51 5 0 0 0 - - -;
#X floatatom 98 139 5 0 0 0 - - -;
#X obj 59 3 inlet;
#X obj 94 199 outlet;
#X obj 42 81 threshold 2 1 1 2;
#X obj 173 68 r flash;
#X msg 176 103 0;
#X connect 1 0 4 0;
#X connect 2 0 0 0;
#X connect 2 0 3 0;
#X connect 2 0 7 0;
#X connect 4 0 6 0;
#X connect 5 0 2 0;
#X connect 7 0 1 0;
#X connect 7 1 1 0;
#X connect 8 0 9 0;
#X connect 9 0 1 0;
#X restore 405 65 pd bk;
#N canvas 598 180 236 269 bk 0;
#X obj 69 63 tgl 15 0 empty empty empty 17 7 0 10 -262144 -1 -1 0 3
;
#X obj 88 113 tgl 15 0 empty empty empty 17 7 0 10 -262144 -1 -1 0
1;
#X obj 62 44 * 3;
#X floatatom 27 51 5 0 0 0 - - -;
#X floatatom 98 139 5 0 0 0 - - -;
#X obj 59 3 inlet;
#X obj 94 199 outlet;
#X obj 42 81 threshold 2 1 1 2;
#X obj 173 68 r flash;
#X msg 176 103 0;
#X connect 1 0 4 0;
#X connect 2 0 0 0;
#X connect 2 0 3 0;
#X connect 2 0 7 0;
#X connect 4 0 6 0;
#X connect 5 0 2 0;
#X connect 7 0 1 0;
#X connect 7 1 1 0;
#X connect 8 0 9 0;
#X connect 9 0 1 0;
#X restore 446 67 pd bk;
#N canvas 598 180 236 269 bk 0;
#X obj 69 63 tgl 15 0 empty empty empty 17 7 0 10 -262144 -1 -1 0 3
;
#X obj 88 113 tgl 15 0 empty empty empty 17 7 0 10 -262144 -1 -1 0
1;
#X obj 62 44 * 3;
#X floatatom 27 51 5 0 0 0 - - -;
#X floatatom 98 139 5 0 0 0 - - -;
#X obj 59 3 inlet;
#X obj 94 199 outlet;
#X obj 42 81 threshold 2 1 1 2;
#X obj 173 68 r flash;
#X msg 176 103 0;
#X connect 1 0 4 0;
#X connect 2 0 0 0;
#X connect 2 0 3 0;
#X connect 2 0 7 0;
#X connect 4 0 6 0;
#X connect 5 0 2 0;
#X connect 7 0 1 0;
#X connect 7 1 1 0;
#X connect 8 0 9 0;
#X connect 9 0 1 0;
#X restore 490 67 pd bk;
#X obj 626 195 s \$0-key5;
#X obj 688 195 s \$0-key6;
#X obj 750 195 s \$0-key7;
#X obj 812 195 s \$0-key8;
#X obj 359 196 s \$0-key4;
#X obj 421 195 s \$0-key3;
#X obj 482 195 s \$0-key2;
#X obj 543 195 s \$0-key1;
#N canvas 0 38 1024 730 ccmatrix 0;
#X obj 44 23 cnv 15 400 300 empty empty empty 20 12 0 14 -260097 -66577
0;
#X obj 515 24 cnv 15 400 300 empty empty empty 20 12 0 14 -260097 -66577
0;
#X obj 47 381 cnv 15 400 300 empty empty empty 20 12 0 14 -260097 -66577
0;
#X obj 518 385 cnv 15 400 300 empty empty empty 20 12 0 14 -260097
-66577 0;
#X obj 54 222 r 1gx;
#X obj 140 220 r 3gx;
#X obj 139 179 r 3gy;
#X obj 46 32 r f1func5y;
#X obj 47 63 r f1func4y;
#X obj 48 89 r f1func3y;
#X obj 49 118 r f1func2y;
#X obj 49 143 r f1func1y;
#X obj 189 136 r f2func1y;
#X obj 190 110 r f2func2y;
#X obj 189 87 r f2func3y;
#X obj 188 64 r f2func4y;
#X obj 186 40 r f2func5y;
#X obj 195 170 r f3func5y;
#X obj 195 196 r f3func4y;
#X obj 195 222 r f3func3y;
#X obj 197 247 r f3func2y;
#X obj 199 271 r f3func1y;
#X obj 519 98 r f4func1x;
#X obj 520 71 r f5func1x;
#X obj 520 44 r f6func1x;
#X obj 649 44 r f6func2x;
#X obj 651 72 r f5func2x;
#X obj 649 97 r f4func2x;
#X obj 697 203 r f4func3x;
#X obj 697 177 r f5func3x;
#X obj 698 152 r f6func3x;
#X obj 57 451 r f7func5y;
#X obj 57 474 r f7func4y;
#X obj 59 498 r f7func3y;
#X obj 61 523 r f7func2y;
#X obj 62 548 r f7func1y;
#X obj 529 199 r 4gy;
#X obj 530 245 r 4gx;
#X obj 573 198 r 5gy;
#X obj 578 242 r 5gx;
#X obj 616 199 r 6gy;
#X obj 620 244 r 6gx;
#X obj 295 439 r 7gy;
#X obj 298 485 r 7gx;
#X obj 341 488 r 8gx;
#X obj 341 437 r 8gy;
#X obj 386 484 r 9gx;
#X obj 384 438 r 9gy;
#X obj 582 463 r 11gy;
#X obj 582 512 r 11gx;
#X obj 631 514 r 12gx;
#X obj 632 464 r 12gy;
#X obj 679 464 r 13gy;
#X obj 680 512 r 13gx;
#X obj 818 660 ctlout;
#X obj 851 637 r pgm2chnl;
#X obj 91 302 ctlout;
#X obj 124 279 r pgm2chnl;
#X obj 821 297 ctlout;
#X obj 854 274 r pgm2chnl;
#X obj 350 659 ctlout;
#X obj 383 636 r pgm2chnl;
#X msg 51 198 \$1 54;
#X msg 53 242 \$1 55;
#X msg 95 197 \$1 56;
#X obj 51 178 r 1gy;
#X msg 96 242 \$1 57;
#X msg 140 198 \$1 58;
#X msg 141 240 \$1 59;
#X msg 530 223 \$1 60;
#X msg 532 267 \$1 61;
#X msg 576 220 \$1 62;
#X msg 575 267 \$1 63;
#X msg 619 223 \$1 64;
#X msg 620 265 \$1 65;
#X msg 296 463 \$1 54;
#X msg 298 507 \$1 55;
#X msg 340 462 \$1 56;
#X msg 341 507 \$1 57;
#X msg 385 463 \$1 58;
#X msg 386 505 \$1 59;
#X msg 585 491 \$1 60;
#X msg 586 534 \$1 61;
#X msg 629 490 \$1 62;
#X msg 630 535 \$1 63;
#X msg 674 491 \$1 64;
#X msg 675 533 \$1 65;
#X obj 142 33 int;
#X msg 148 140 \$1 66;
#X obj 289 37 int;
#X msg 295 144 \$1 67;
#X obj 301 169 int;
#X msg 591 97 3;
#X msg 590 71 2;
#X msg 590 44 1;
#X obj 622 69 vradio 15 1 0 3 empty empty empty 0 -8 0 10 -262144 -1
-1 0;
#X obj 618 44 int;
#X msg 620 120 \$1 69;
#X msg 307 276 \$1 68;
#X msg 722 99 3;
#X msg 721 73 2;
#X msg 721 46 1;
#X obj 753 71 vradio 15 1 0 3 empty empty empty 0 -8 0 10 -262144 -1
-1 0;
#X obj 749 46 int;
#X msg 751 122 \$1 70;
#X msg 778 205 3;
#X msg 777 179 2;
#X msg 777 152 1;
#X obj 809 177 vradio 15 1 0 3 empty empty empty 0 -8 0 10 -262144
-1 -1 0;
#X obj 805 152 int;
#X msg 807 228 \$1 71;
#X msg 142 548 5;
#X msg 140 522 4;
#X msg 139 493 3;
#X msg 138 467 2;
#X msg 138 440 1;
#X obj 170 465 vradio 15 1 0 5 empty empty empty 0 -8 0 10 -262144
-1 -1 0;
#X obj 166 440 int;
#X msg 172 547 \$1 72;
#X msg 118 141 10;
#X msg 116 115 30;
#X msg 114 60 100;
#X msg 115 86 60;
#X floatatom 152 60 5 0 0 0 - - -;
#X floatatom 35 274 5 0 0 0 - - -;
#X msg 114 33 125;
#X msg 265 145 10;
#X msg 263 119 40;
#X msg 262 90 80;
#X msg 261 64 110;
#X msg 261 37 125;
#X msg 277 277 10;
#X msg 275 251 30;
#X msg 274 222 70;
#X msg 273 196 100;
#X msg 273 169 125;
#X obj 95 222 r 2gx;
#X obj 95 178 r 2gy;
#X connect 4 0 63 0;
#X connect 5 0 68 0;
#X connect 6 0 67 0;
#X connect 6 0 124 0;
#X connect 7 0 125 0;
#X connect 8 0 121 0;
#X connect 9 0 122 0;
#X connect 10 0 120 0;
#X connect 11 0 119 0;
#X connect 12 0 126 0;
#X connect 13 0 127 0;
#X connect 14 0 128 0;
#X connect 15 0 129 0;
#X connect 16 0 130 0;
#X connect 17 0 135 0;
#X connect 18 0 134 0;
#X connect 19 0 133 0;
#X connect 20 0 132 0;
#X connect 21 0 131 0;
#X connect 22 0 92 0;
#X connect 23 0 93 0;
#X connect 24 0 94 0;
#X connect 25 0 101 0;
#X connect 26 0 100 0;
#X connect 27 0 99 0;
#X connect 28 0 105 0;
#X connect 29 0 106 0;
#X connect 30 0 107 0;
#X connect 31 0 115 0;
#X connect 32 0 114 0;
#X connect 33 0 113 0;
#X connect 34 0 112 0;
#X connect 35 0 111 0;
#X connect 36 0 69 0;
#X connect 37 0 70 0;
#X connect 38 0 71 0;
#X connect 39 0 72 0;
#X connect 40 0 73 0;
#X connect 41 0 74 0;
#X connect 42 0 75 0;
#X connect 43 0 76 0;
#X connect 44 0 78 0;
#X connect 45 0 77 0;
#X connect 46 0 80 0;
#X connect 47 0 79 0;
#X connect 48 0 81 0;
#X connect 49 0 82 0;
#X connect 50 0 84 0;
#X connect 51 0 83 0;
#X connect 52 0 85 0;
#X connect 53 0 86 0;
#X connect 55 0 54 2;
#X connect 57 0 56 2;
#X connect 59 0 58 2;
#X connect 61 0 60 2;
#X connect 62 0 56 0;
#X connect 63 0 56 0;
#X connect 64 0 56 0;
#X connect 65 0 62 0;
#X connect 66 0 56 0;
#X connect 67 0 56 0;
#X connect 68 0 56 0;
#X connect 69 0 58 0;
#X connect 70 0 58 0;
#X connect 71 0 58 0;
#X connect 72 0 58 0;
#X connect 73 0 58 0;
#X connect 74 0 58 0;
#X connect 75 0 60 0;
#X connect 76 0 60 0;
#X connect 77 0 60 0;
#X connect 78 0 60 0;
#X connect 79 0 60 0;
#X connect 80 0 60 0;
#X connect 81 0 54 0;
#X connect 82 0 54 0;
#X connect 83 0 54 0;
#X connect 84 0 54 0;
#X connect 85 0 54 0;
#X connect 86 0 54 0;
#X connect 87 0 88 0;
#X connect 87 0 123 0;
#X connect 88 0 56 0;
#X connect 89 0 90 0;
#X connect 90 0 56 0;
#X connect 91 0 98 0;
#X connect 92 0 96 0;
#X connect 93 0 96 0;
#X connect 94 0 96 0;
#X connect 95 0 97 0;
#X connect 96 0 95 0;
#X connect 97 0 58 0;
#X connect 98 0 56 0;
#X connect 99 0 103 0;
#X connect 100 0 103 0;
#X connect 101 0 103 0;
#X connect 102 0 104 0;
#X connect 103 0 102 0;
#X connect 104 0 58 0;
#X connect 105 0 109 0;
#X connect 106 0 109 0;
#X connect 107 0 109 0;
#X connect 108 0 110 0;
#X connect 109 0 108 0;
#X connect 110 0 58 0;
#X connect 111 0 117 0;
#X connect 112 0 117 0;
#X connect 113 0 117 0;
#X connect 114 0 117 0;
#X connect 115 0 117 0;
#X connect 116 0 118 0;
#X connect 117 0 116 0;
#X connect 118 0 60 0;
#X connect 119 0 87 0;
#X connect 120 0 87 0;
#X connect 121 0 87 0;
#X connect 122 0 87 0;
#X connect 125 0 87 0;
#X connect 126 0 89 0;
#X connect 127 0 89 0;
#X connect 128 0 89 0;
#X connect 129 0 89 0;
#X connect 130 0 89 0;
#X connect 131 0 91 0;
#X connect 132 0 91 0;
#X connect 133 0 91 0;
#X connect 134 0 91 0;
#X connect 135 0 91 0;
#X connect 136 0 66 0;
#X connect 137 0 64 0;
#X restore 887 73 pd ccmatrix;
#N canvas 342 38 1024 730 gesturekeyleft 0;
#X floatatom 104 373 5 0 0 0 - - -;
#X obj 137 198 * 127;
#X obj 183 197 * 127;
#X obj 102 303 grid grid2 60 1 127 60 1 127 1 1 1 1 5 70 258;
#X msg 119 290 goto \$1 \$2;
#X obj 119 253 pack 1 1;
#X obj 152 166 unpack f f f;
#X obj 183 304 vsl 15 90 1 127 0 0 empty empty empty 0 -9 0 10 -262144
-1 -1 0 1;
#X obj 151 22 r xlrmtr1;
#N canvas 0 0 303 384 rangex 0;
#X obj 106 72 clip 36 96;
#X floatatom 107 102 5 0 0 0 - - -;
#X obj 107 124 - 36;
#X floatatom 108 151 5 0 0 0 - - -;
#X floatatom 109 224 5 0 0 0 - - -;
#X obj 109 196 int;
#X obj 108 176 * 2.2;
#X obj 109 247 clip 0 127;
#X floatatom 112 280 5 0 0 0 - - -;
#X text 146 100 range multiplier;
#X obj 107 40 inlet;
#X obj 115 317 outlet;
#X connect 0 0 1 0;
#X connect 1 0 2 0;
#X connect 2 0 3 0;
#X connect 3 0 6 0;
#X connect 4 0 7 0;
#X connect 5 0 4 0;
#X connect 6 0 5 0;
#X connect 7 0 8 0;
#X connect 8 0 11 0;
#X connect 10 0 0 0;
#X restore 110 224 pd rangex;
#N canvas 0 0 303 384 rangex 0;
#X obj 106 72 clip 36 96;
#X floatatom 107 102 5 0 0 0 - - -;
#X obj 107 124 - 36;
#X floatatom 108 151 5 0 0 0 - - -;
#X floatatom 109 224 5 0 0 0 - - -;
#X obj 109 196 int;
#X obj 108 176 * 2.2;
#X obj 109 247 clip 0 127;
#X floatatom 112 280 5 0 0 0 - - -;
#X text 146 100 range multiplier;
#X obj 107 40 inlet;
#X obj 115 317 outlet;
#X connect 0 0 1 0;
#X connect 1 0 2 0;
#X connect 2 0 3 0;
#X connect 3 0 6 0;
#X connect 4 0 7 0;
#X connect 5 0 4 0;
#X connect 6 0 5 0;
#X connect 7 0 8 0;
#X connect 8 0 11 0;
#X connect 10 0 0 0;
#X restore 176 224 pd rangex;
#N canvas 1265 221 303 384 rangex 0;
#X obj 106 72 clip 36 96;
#X floatatom 107 102 5 0 0 0 - - -;
#X obj 107 124 - 36;
#X floatatom 108 151 5 0 0 0 - - -;
#X floatatom 109 224 5 0 0 0 - - -;
#X obj 109 196 int;
#X obj 108 176 * 2.2;
#X obj 109 247 clip 0 127;
#X floatatom 112 280 5 0 0 0 - - -;
#X text 146 100 range multiplier;
#X obj 107 40 inlet;
#X obj 115 317 outlet;
#X connect 0 0 1 0;
#X connect 1 0 2 0;
#X connect 2 0 3 0;
#X connect 3 0 6 0;
#X connect 4 0 7 0;
#X connect 5 0 4 0;
#X connect 6 0 5 0;
#X connect 7 0 8 0;
#X connect 8 0 11 0;
#X connect 10 0 0 0;
#X restore 249 225 pd rangex;
#X obj 152 107 spigot;
#N canvas 561 216 463 496 z 0;
#X text 116 139 chnl#16;
#X floatatom 224 123 5 0 0 0 - - -;
#X obj 175 172 t b b;
#X obj 175 200 f;
#X obj 175 223 + 1;
#X obj 123 103 tgl 15 0 empty empty empty 17 7 0 10 -262144 -1 -1 0
1;
#X floatatom 143 124 5 0 0 0 - - -;
#X msg 202 200 1;
#X obj 103 103 bng 15 250 50 0 empty empty empty 17 7 0 10 -262144
-1 -1;
#X obj 122 187 outlet;
#X obj 175 147 delay 500;
#X obj 124 51 inlet zflip in;
#X obj 183 101 s moseszflip;
#X floatatom 107 333 5 0 0 0 - - -;
#X obj 176 123 sel 127;
#X obj 125 76 moses 120;
#X connect 2 0 3 0;
#X connect 2 1 7 0;
#X connect 3 0 4 0;
#X connect 4 0 8 0;
#X connect 5 0 9 0;
#X connect 7 0 3 1;
#X connect 8 0 5 0;
#X connect 10 0 2 0;
#X connect 11 0 15 0;
#X connect 14 0 6 0;
#X connect 14 0 10 0;
#X connect 14 1 1 0;
#X connect 15 0 12 0;
#X connect 15 1 14 0;
#X coords 0 -1 1 1 40 20 2 100 100;
#X restore 138 371 pd z flip switch;
#X obj 178 245 s \$0-r;
#X obj 224 246 s \$0-g;
#X obj 268 246 s \$0-b;
#X floatatom 293 193 5 0 0 0 - - -;
#X obj 237 198 * 127;
#X floatatom 108 140 5 0 0 0 - - -;
#X obj 88 476 outlet x;
#X obj 160 482 outlet y;
#X obj 250 277 outlet z;
#X obj 218 76 inlet;
#X obj 328 477 outlet onoff;
#X obj 328 456 * 127;
#N canvas 0 0 320 427 calibrate 0;
#X floatatom 85 130 5 0 0 0 - - -;
#X obj 103 174 spigot;
#X floatatom 124 211 5 0 0 0 - - -;
#X obj 142 130 tgl 15 0 empty empty empty 17 7 0 10 -262144 -1 -1 0
1;
#X obj 96 257 -;
#X floatatom 97 291 5 0 0 0 - - -;
#X obj 81 76 inlet;
#X obj 157 75 inlet;
#X obj 99 343 outlet;
#X connect 0 0 1 0;
#X connect 0 0 4 0;
#X connect 1 0 2 0;
#X connect 2 0 4 1;
#X connect 3 0 1 1;
#X connect 4 0 5 0;
#X connect 5 0 8 0;
#X connect 6 0 0 0;
#X connect 7 0 3 0;
#X restore 615 297 pd calibrate;
#X obj 604 353 / 127;
#X obj 540 459 translateXYZ -2.5 1.5 0;
#X obj 529 426 gemhead 99;
#N canvas 0 0 320 427 calibrate 0;
#X floatatom 85 130 5 0 0 0 - - -;
#X obj 103 174 spigot;
#X floatatom 124 211 5 0 0 0 - - -;
#X obj 142 130 tgl 15 0 empty empty empty 17 7 0 10 -262144 -1 -1 0
1;
#X obj 96 257 -;
#X floatatom 97 291 5 0 0 0 - - -;
#X obj 81 76 inlet;
#X obj 157 75 inlet;
#X obj 99 343 outlet;
#X connect 0 0 1 0;
#X connect 0 0 4 0;
#X connect 1 0 2 0;
#X connect 2 0 4 1;
#X connect 3 0 1 1;
#X connect 4 0 5 0;
#X connect 5 0 8 0;
#X connect 6 0 0 0;
#X connect 7 0 3 0;
#X restore 838 357 pd calibrate;
#X obj 749 433 gemhead 99;
#X obj 827 414 / 127;
#X text 736 333 CROSSHAIRS;
#X obj 636 434 average 5;
#X obj 856 441 average 5;
#X obj 543 510 colorRGB;
#X obj 764 539 colorRGB;
#X obj 538 537 rectangle 0.02 0.5;
#X floatatom 683 388 5 0 0 0 - - -;
#X obj 658 354 - 0.85;
#X obj 542 484 translateXYZ -4.17 -1.7 0;
#N canvas 0 0 303 384 rangex 0;
#X obj 106 72 clip 36 96;
#X floatatom 107 102 5 0 0 0 - - -;
#X obj 107 124 - 36;
#X floatatom 108 151 5 0 0 0 - - -;
#X floatatom 109 224 5 0 0 0 - - -;
#X obj 109 196 int;
#X floatatom 112 280 5 0 0 0 - - -;
#X text 146 100 range multiplier;
#X obj 107 40 inlet;
#X obj 115 317 outlet;
#X obj 108 176 * 3;
#X obj 109 247 clip 0 170;
#X connect 0 0 1 0;
#X connect 1 0 2 0;
#X connect 2 0 3 0;
#X connect 3 0 10 0;
#X connect 4 0 11 0;
#X connect 5 0 4 0;
#X connect 6 0 9 0;
#X connect 8 0 0 0;
#X connect 10 0 5 0;
#X connect 11 0 6 0;
#X restore 601 326 pd rangex;
#X obj 881 415 - 0.85;
#N canvas 0 0 303 384 rangex 0;
#X obj 106 72 clip 36 96;
#X floatatom 107 102 5 0 0 0 - - -;
#X obj 107 124 - 36;
#X floatatom 108 151 5 0 0 0 - - -;
#X floatatom 109 224 5 0 0 0 - - -;
#X obj 109 196 int;
#X floatatom 112 280 5 0 0 0 - - -;
#X text 146 100 range multiplier;
#X obj 107 40 inlet;
#X obj 115 317 outlet;
#X obj 108 176 * 3;
#X obj 109 247 clip 0 170;
#X connect 0 0 1 0;
#X connect 1 0 2 0;
#X connect 2 0 3 0;
#X connect 3 0 10 0;
#X connect 4 0 11 0;
#X connect 5 0 4 0;
#X connect 6 0 9 0;
#X connect 8 0 0 0;
#X connect 10 0 5 0;
#X connect 11 0 6 0;
#X restore 913 377 pd rangex;
#X obj 760 466 translateXYZ -4.17 0 0;
#X obj 763 570 rectangle 0.5 0.02;
#X obj 763 490 translateXYZ -0.33 0.13 0;
#X obj 441 80 loadbang;
#X obj 397 196 text3d;
#X msg 429 128 2.5;
#X msg 258 323 text \$1 \$2 \$3;
#X obj 256 303 pack f f f;
#X obj 393 51 translateXYZ -4.7 0.27 0;
#X obj 436 149 r xlrmtrtext4;
#X obj 258 341 s xlrmtrtext4;
#X obj 677 159 rectangle 0.5 0.1;
#X obj 677 117 translateXYZ -4.5 -0.9 0;
#X obj 678 138 color;
#X msg 714 139 1 1 0;
#X obj 660 37 tgl 15 0 empty empty empty 17 7 0 10 -262144 -1 -1 0
1;
#X msg 709 59 1;
#X msg 679 59 0;
#X obj 154 55 spigot;
#X obj 219 23 r rjuforward;
#X obj 661 17 r zonoff4;
#X obj 255 482 s zonoff4;
#X obj 391 28 gemhead 99;
#X obj 676 96 gemhead 99;
#X obj 678 36 sel 1 0;
#X connect 1 0 9 0;
#X connect 2 0 10 0;
#X connect 3 0 0 0;
#X connect 3 0 20 0;
#X connect 3 0 26 0;
#X connect 3 1 21 0;
#X connect 3 1 30 0;
#X connect 4 0 3 0;
#X connect 5 0 4 0;
#X connect 6 0 1 0;
#X connect 6 0 14 0;
#X connect 6 1 2 0;
#X connect 6 1 15 0;
#X connect 6 2 17 0;
#X connect 6 2 18 0;
#X connect 6 2 16 0;
#X connect 7 0 13 0;
#X connect 8 0 63 0;
#X connect 9 0 5 0;
#X connect 9 0 52 0;
#X connect 10 0 5 1;
#X connect 10 0 52 1;
#X connect 11 0 7 0;
#X connect 11 0 22 0;
#X connect 12 0 19 0;
#X connect 12 0 6 0;
#X connect 13 0 52 2;
#X connect 13 0 25 0;
#X connect 13 0 66 0;
#X connect 18 0 11 0;
#X connect 23 0 12 1;
#X connect 25 0 24 0;
#X connect 26 0 27 0;
#X connect 27 0 39 0;
#X connect 27 0 40 0;
#X connect 28 0 41 0;
#X connect 29 0 28 0;
#X connect 30 0 32 0;
#X connect 31 0 45 0;
#X connect 32 0 43 0;
#X connect 34 0 28 1;
#X connect 35 0 45 2;
#X connect 36 0 38 0;
#X connect 37 0 46 0;
#X connect 40 0 34 0;
#X connect 41 0 36 0;
#X connect 43 0 35 0;
#X connect 45 0 47 0;
#X connect 47 0 37 0;
#X connect 48 0 50 0;
#X connect 50 0 49 1;
#X connect 51 0 55 0;
#X connect 52 0 51 0;
#X connect 53 0 49 0;
#X connect 54 0 49 0;
#X connect 57 0 58 0;
#X connect 58 0 56 0;
#X connect 59 0 58 1;
#X connect 60 0 69 0;
#X connect 61 0 68 0;
#X connect 62 0 68 0;
#X connect 63 0 12 0;
#X connect 64 0 63 1;
#X connect 65 0 60 0;
#X connect 67 0 53 0;
#X connect 68 0 57 0;
#X connect 69 0 61 0;
#X connect 69 1 62 0;
#X coords 0 -1 1 1 100 100 1 100 300;
#X restore 71 456 pd gesturekeyleft;
#N canvas 635 320 1024 730 gesturekeyleft 0;
#X floatatom 136 416 5 0 0 0 - - -;
#X obj 137 198 * 127;
#X obj 183 197 * 127;
#X obj 128 327 grid grid2 85 1 127 85 1 127 1 1 1 1 5 269 310;
#X msg 119 290 goto \$1 \$2;
#X obj 119 253 pack 1 1;
#X obj 152 166 unpack f f f;
#X obj 225 310 vsl 15 127 1 127 0 0 empty empty empty 0 -9 0 10 -262144
-1 -1 0 1;
#X obj 151 22 r xlrmtr1;
#N canvas 0 0 303 384 rangex 0;
#X obj 106 72 clip 36 96;
#X floatatom 107 102 5 0 0 0 - - -;
#X obj 107 124 - 36;
#X floatatom 108 151 5 0 0 0 - - -;
#X floatatom 109 224 5 0 0 0 - - -;
#X obj 109 196 int;
#X obj 108 176 * 2.2;
#X obj 109 247 clip 0 127;
#X floatatom 112 280 5 0 0 0 - - -;
#X text 146 100 range multiplier;
#X obj 107 40 inlet;
#X obj 115 317 outlet;
#X connect 0 0 1 0;
#X connect 1 0 2 0;
#X connect 2 0 3 0;
#X connect 3 0 6 0;
#X connect 4 0 7 0;
#X connect 5 0 4 0;
#X connect 6 0 5 0;
#X connect 7 0 8 0;
#X connect 8 0 11 0;
#X connect 10 0 0 0;
#X restore 110 224 pd rangex;
#N canvas 0 0 303 384 rangex 0;
#X obj 106 72 clip 36 96;
#X floatatom 107 102 5 0 0 0 - - -;
#X obj 107 124 - 36;
#X floatatom 108 151 5 0 0 0 - - -;
#X floatatom 109 224 5 0 0 0 - - -;
#X obj 109 196 int;
#X obj 108 176 * 2.2;
#X obj 109 247 clip 0 127;
#X floatatom 112 280 5 0 0 0 - - -;
#X text 146 100 range multiplier;
#X obj 107 40 inlet;
#X obj 115 317 outlet;
#X connect 0 0 1 0;
#X connect 1 0 2 0;
#X connect 2 0 3 0;
#X connect 3 0 6 0;
#X connect 4 0 7 0;
#X connect 5 0 4 0;
#X connect 6 0 5 0;
#X connect 7 0 8 0;
#X connect 8 0 11 0;
#X connect 10 0 0 0;
#X restore 176 224 pd rangex;
#N canvas 1265 221 303 384 rangex 0;
#X obj 106 72 clip 36 96;
#X floatatom 107 102 5 0 0 0 - - -;
#X obj 107 124 - 36;
#X floatatom 108 151 5 0 0 0 - - -;
#X floatatom 109 224 5 0 0 0 - - -;
#X obj 109 196 int;
#X obj 108 176 * 2.2;
#X obj 109 247 clip 0 127;
#X floatatom 112 280 5 0 0 0 - - -;
#X text 146 100 range multiplier;
#X obj 107 40 inlet;
#X obj 115 317 outlet;
#X connect 0 0 1 0;
#X connect 1 0 2 0;
#X connect 2 0 3 0;
#X connect 3 0 6 0;
#X connect 4 0 7 0;
#X connect 5 0 4 0;
#X connect 6 0 5 0;
#X connect 7 0 8 0;
#X connect 8 0 11 0;
#X connect 10 0 0 0;
#X restore 249 225 pd rangex;
#X obj 152 107 spigot;
#N canvas 561 216 463 496 z 0;
#X text 116 139 chnl#16;
#X floatatom 224 123 5 0 0 0 - - -;
#X obj 175 172 t b b;
#X obj 175 200 f;
#X obj 175 223 + 1;
#X obj 123 103 tgl 15 0 empty empty empty 17 7 0 10 -262144 -1 -1 0
1;
#X floatatom 143 124 5 0 0 0 - - -;
#X msg 202 200 1;
#X obj 103 103 bng 15 250 50 0 empty empty empty 17 7 0 10 -262144
-1 -1;
#X obj 122 187 outlet;
#X obj 175 147 delay 500;
#X obj 124 51 inlet zflip in;
#X obj 183 101 s moseszflip;
#X floatatom 107 333 5 0 0 0 - - -;
#X obj 176 123 sel 127;
#X obj 125 76 moses 120;
#X connect 2 0 3 0;
#X connect 2 1 7 0;
#X connect 3 0 4 0;
#X connect 4 0 8 0;
#X connect 5 0 9 0;
#X connect 7 0 3 1;
#X connect 8 0 5 0;
#X connect 10 0 2 0;
#X connect 11 0 15 0;
#X connect 14 0 6 0;
#X connect 14 0 10 0;
#X connect 14 1 1 0;
#X connect 15 0 12 0;
#X connect 15 1 14 0;
#X coords 0 -1 1 1 40 20 2 100 100;
#X restore 181 416 pd z flip switch;
#X obj 178 245 s \$0-r;
#X obj 224 246 s \$0-g;
#X obj 268 246 s \$0-b;
#X floatatom 293 193 5 0 0 0 - - -;
#X obj 237 198 * 127;
#X floatatom 108 140 5 0 0 0 - - -;
#X obj 88 476 outlet x;
#X obj 160 482 outlet y;
#X obj 250 277 outlet z;
#X obj 218 76 inlet;
#X obj 328 477 outlet onoff;
#X obj 328 456 * 127;
#N canvas 0 0 320 427 calibrate 0;
#X floatatom 85 130 5 0 0 0 - - -;
#X obj 103 174 spigot;
#X floatatom 124 211 5 0 0 0 - - -;
#X obj 142 130 tgl 15 0 empty empty empty 17 7 0 10 -262144 -1 -1 0
1;
#X obj 96 257 -;
#X floatatom 97 291 5 0 0 0 - - -;
#X obj 81 76 inlet;
#X obj 157 75 inlet;
#X obj 99 343 outlet;
#X connect 0 0 1 0;
#X connect 0 0 4 0;
#X connect 1 0 2 0;
#X connect 2 0 4 1;
#X connect 3 0 1 1;
#X connect 4 0 5 0;
#X connect 5 0 8 0;
#X connect 6 0 0 0;
#X connect 7 0 3 0;
#X restore 615 297 pd calibrate;
#X obj 604 353 / 127;
#X obj 540 459 translateXYZ -2.5 1.5 0;
#X obj 529 426 gemhead 99;
#N canvas 0 0 320 427 calibrate 0;
#X floatatom 85 130 5 0 0 0 - - -;
#X obj 103 174 spigot;
#X floatatom 124 211 5 0 0 0 - - -;
#X obj 142 130 tgl 15 0 empty empty empty 17 7 0 10 -262144 -1 -1 0
1;
#X obj 96 257 -;
#X floatatom 97 291 5 0 0 0 - - -;
#X obj 81 76 inlet;
#X obj 157 75 inlet;
#X obj 99 343 outlet;
#X connect 0 0 1 0;
#X connect 0 0 4 0;
#X connect 1 0 2 0;
#X connect 2 0 4 1;
#X connect 3 0 1 1;
#X connect 4 0 5 0;
#X connect 5 0 8 0;
#X connect 6 0 0 0;
#X connect 7 0 3 0;
#X restore 838 357 pd calibrate;
#X obj 749 433 gemhead 99;
#X obj 827 414 / 127;
#X text 736 333 CROSSHAIRS;
#X obj 636 434 average 5;
#X obj 856 441 average 5;
#X obj 543 510 colorRGB;
#X obj 764 539 colorRGB;
#X obj 538 537 rectangle 0.02 0.5;
#X floatatom 683 388 5 0 0 0 - - -;
#X obj 658 354 - 0.85;
#N canvas 0 0 303 384 rangex 0;
#X obj 106 72 clip 36 96;
#X floatatom 107 102 5 0 0 0 - - -;
#X obj 107 124 - 36;
#X floatatom 108 151 5 0 0 0 - - -;
#X floatatom 109 224 5 0 0 0 - - -;
#X obj 109 196 int;
#X floatatom 112 280 5 0 0 0 - - -;
#X text 146 100 range multiplier;
#X obj 107 40 inlet;
#X obj 115 317 outlet;
#X obj 108 176 * 3;
#X obj 109 247 clip 0 170;
#X connect 0 0 1 0;
#X connect 1 0 2 0;
#X connect 2 0 3 0;
#X connect 3 0 10 0;
#X connect 4 0 11 0;
#X connect 5 0 4 0;
#X connect 6 0 9 0;
#X connect 8 0 0 0;
#X connect 10 0 5 0;
#X connect 11 0 6 0;
#X restore 601 326 pd rangex;
#X obj 881 415 - 0.85;
#N canvas 0 0 303 384 rangex 0;
#X obj 106 72 clip 36 96;
#X floatatom 107 102 5 0 0 0 - - -;
#X obj 107 124 - 36;
#X floatatom 108 151 5 0 0 0 - - -;
#X floatatom 109 224 5 0 0 0 - - -;
#X obj 109 196 int;
#X floatatom 112 280 5 0 0 0 - - -;
#X text 146 100 range multiplier;
#X obj 107 40 inlet;
#X obj 115 317 outlet;
#X obj 108 176 * 3;
#X obj 109 247 clip 0 170;
#X connect 0 0 1 0;
#X connect 1 0 2 0;
#X connect 2 0 3 0;
#X connect 3 0 10 0;
#X connect 4 0 11 0;
#X connect 5 0 4 0;
#X connect 6 0 9 0;
#X connect 8 0 0 0;
#X connect 10 0 5 0;
#X connect 11 0 6 0;
#X restore 913 377 pd rangex;
#X obj 763 570 rectangle 0.5 0.02;
#X obj 763 490 translateXYZ -0.33 0.13 0;
#X obj 441 80 loadbang;
#X obj 397 196 text3d;
#X msg 429 128 2.5;
#X msg 258 323 text \$1 \$2 \$3;
#X obj 256 303 pack f f f;
#X obj 677 159 rectangle 0.5 0.1;
#X obj 678 138 color;
#X msg 714 139 1 1 0;
#X obj 660 37 tgl 15 0 empty empty empty 17 7 0 10 -262144 -1 -1 0
1;
#X msg 709 59 1;
#X msg 679 59 0;
#X obj 154 55 spigot;
#X obj 219 23 r rjuforward;
#X obj 543 484 translateXYZ -3.06 -1.7 0;
#X obj 760 466 translateXYZ -3.06 0 0;
#X obj 258 341 s xlrmtrtext3;
#X obj 436 149 r xlrmtrtext3;
#X obj 393 51 translateXYZ -3.6 0.27 0;
#X obj 677 117 translateXYZ -3.4 -0.9 0;
#X obj 255 482 s zonoff3;
#X obj 661 17 r zonoff3;
#X obj 756 84 loadbang;
#X obj 391 28 gemhead 99;
#X obj 676 96 gemhead 99;
#X obj 678 36 sel 1 0;
#X connect 1 0 9 0;
#X connect 2 0 10 0;
#X connect 3 0 0 0;
#X connect 3 0 20 0;
#X connect 3 0 26 0;
#X connect 3 1 21 0;
#X connect 3 1 30 0;
#X connect 4 0 3 0;
#X connect 5 0 4 0;
#X connect 6 0 1 0;
#X connect 6 0 14 0;
#X connect 6 1 2 0;
#X connect 6 1 15 0;
#X connect 6 2 17 0;
#X connect 6 2 18 0;
#X connect 6 2 16 0;
#X connect 7 0 13 0;
#X connect 8 0 57 0;
#X connect 9 0 5 0;
#X connect 9 0 50 0;
#X connect 10 0 5 1;
#X connect 10 0 50 1;
#X connect 11 0 7 0;
#X connect 11 0 22 0;
#X connect 12 0 19 0;
#X connect 12 0 6 0;
#X connect 13 0 50 2;
#X connect 13 0 25 0;
#X connect 13 0 65 0;
#X connect 18 0 11 0;
#X connect 23 0 12 1;
#X connect 25 0 24 0;
#X connect 26 0 27 0;
#X connect 27 0 39 0;
#X connect 27 0 40 0;
#X connect 28 0 59 0;
#X connect 29 0 28 0;
#X connect 30 0 32 0;
#X connect 31 0 60 0;
#X connect 32 0 42 0;
#X connect 34 0 28 1;
#X connect 35 0 60 2;
#X connect 36 0 38 0;
#X connect 37 0 44 0;
#X connect 40 0 34 0;
#X connect 42 0 35 0;
#X connect 45 0 37 0;
#X connect 46 0 48 0;
#X connect 48 0 47 1;
#X connect 49 0 61 0;
#X connect 50 0 49 0;
#X connect 52 0 51 0;
#X connect 53 0 52 1;
#X connect 54 0 70 0;
#X connect 55 0 69 0;
#X connect 56 0 69 0;
#X connect 57 0 12 0;
#X connect 58 0 57 1;
#X connect 59 0 36 0;
#X connect 60 0 45 0;
#X connect 62 0 47 0;
#X connect 63 0 47 0;
#X connect 64 0 52 0;
#X connect 66 0 54 0;
#X connect 67 0 53 0;
#X connect 68 0 63 0;
#X connect 69 0 64 0;
#X connect 70 0 55 0;
#X connect 70 1 56 0;
#X coords 0 -1 1 1 150 150 1 100 300;
#X restore 179 456 pd gesturekeyleft;
#N canvas 635 320 1024 730 gesturekeyleft 0;
#X floatatom 136 416 5 0 0 0 - - -;
#X obj 137 198 * 127;
#X obj 183 197 * 127;
#X obj 128 327 grid grid2 85 1 127 85 1 127 1 1 1 1 5 406 324;
#X msg 119 290 goto \$1 \$2;
#X obj 119 253 pack 1 1;
#X obj 152 166 unpack f f f;
#X obj 225 310 vsl 15 127 1 127 0 0 empty empty empty 0 -9 0 10 -262144
-1 -1 0 1;
#X obj 151 22 r xlrmtr1;
#N canvas 0 0 303 384 rangex 0;
#X obj 106 72 clip 36 96;
#X floatatom 107 102 5 0 0 0 - - -;
#X obj 107 124 - 36;
#X floatatom 108 151 5 0 0 0 - - -;
#X floatatom 109 224 5 0 0 0 - - -;
#X obj 109 196 int;
#X obj 108 176 * 2.2;
#X obj 109 247 clip 0 127;
#X floatatom 112 280 5 0 0 0 - - -;
#X text 146 100 range multiplier;
#X obj 107 40 inlet;
#X obj 115 317 outlet;
#X connect 0 0 1 0;
#X connect 1 0 2 0;
#X connect 2 0 3 0;
#X connect 3 0 6 0;
#X connect 4 0 7 0;
#X connect 5 0 4 0;
#X connect 6 0 5 0;
#X connect 7 0 8 0;
#X connect 8 0 11 0;
#X connect 10 0 0 0;
#X restore 110 224 pd rangex;
#N canvas 0 0 303 384 rangex 0;
#X obj 106 72 clip 36 96;
#X floatatom 107 102 5 0 0 0 - - -;
#X obj 107 124 - 36;
#X floatatom 108 151 5 0 0 0 - - -;
#X floatatom 109 224 5 0 0 0 - - -;
#X obj 109 196 int;
#X obj 108 176 * 2.2;
#X obj 109 247 clip 0 127;
#X floatatom 112 280 5 0 0 0 - - -;
#X text 146 100 range multiplier;
#X obj 107 40 inlet;
#X obj 115 317 outlet;
#X connect 0 0 1 0;
#X connect 1 0 2 0;
#X connect 2 0 3 0;
#X connect 3 0 6 0;
#X connect 4 0 7 0;
#X connect 5 0 4 0;
#X connect 6 0 5 0;
#X connect 7 0 8 0;
#X connect 8 0 11 0;
#X connect 10 0 0 0;
#X restore 176 224 pd rangex;
#N canvas 1265 221 303 384 rangex 0;
#X obj 106 72 clip 36 96;
#X floatatom 107 102 5 0 0 0 - - -;
#X obj 107 124 - 36;
#X floatatom 108 151 5 0 0 0 - - -;
#X floatatom 109 224 5 0 0 0 - - -;
#X obj 109 196 int;
#X obj 108 176 * 2.2;
#X obj 109 247 clip 0 127;
#X floatatom 112 280 5 0 0 0 - - -;
#X text 146 100 range multiplier;
#X obj 107 40 inlet;
#X obj 115 317 outlet;
#X connect 0 0 1 0;
#X connect 1 0 2 0;
#X connect 2 0 3 0;
#X connect 3 0 6 0;
#X connect 4 0 7 0;
#X connect 5 0 4 0;
#X connect 6 0 5 0;
#X connect 7 0 8 0;
#X connect 8 0 11 0;
#X connect 10 0 0 0;
#X restore 249 225 pd rangex;
#X obj 152 107 spigot;
#N canvas 561 216 463 496 z 0;
#X text 116 139 chnl#16;
#X floatatom 224 123 5 0 0 0 - - -;
#X obj 175 172 t b b;
#X obj 175 200 f;
#X obj 175 223 + 1;
#X obj 123 103 tgl 15 0 empty empty empty 17 7 0 10 -262144 -1 -1 0
1;
#X floatatom 143 124 5 0 0 0 - - -;
#X msg 202 200 1;
#X obj 103 103 bng 15 250 50 0 empty empty empty 17 7 0 10 -262144
-1 -1;
#X obj 122 187 outlet;
#X obj 175 147 delay 500;
#X obj 124 51 inlet zflip in;
#X obj 183 101 s moseszflip;
#X floatatom 107 333 5 0 0 0 - - -;
#X obj 176 123 sel 127;
#X obj 125 76 moses 120;
#X connect 2 0 3 0;
#X connect 2 1 7 0;
#X connect 3 0 4 0;
#X connect 4 0 8 0;
#X connect 5 0 9 0;
#X connect 7 0 3 1;
#X connect 8 0 5 0;
#X connect 10 0 2 0;
#X connect 11 0 15 0;
#X connect 14 0 6 0;
#X connect 14 0 10 0;
#X connect 14 1 1 0;
#X connect 15 0 12 0;
#X connect 15 1 14 0;
#X coords 0 -1 1 1 40 20 2 100 100;
#X restore 181 416 pd z flip switch;
#X obj 178 245 s \$0-r;
#X obj 224 246 s \$0-g;
#X obj 268 246 s \$0-b;
#X floatatom 293 193 5 0 0 0 - - -;
#X obj 237 198 * 127;
#X floatatom 108 140 5 0 0 0 - - -;
#X obj 88 476 outlet x;
#X obj 160 482 outlet y;
#X obj 250 277 outlet z;
#X obj 218 76 inlet;
#X obj 328 477 outlet onoff;
#X obj 328 456 * 127;
#N canvas 0 0 320 427 calibrate 0;
#X floatatom 85 130 5 0 0 0 - - -;
#X obj 103 174 spigot;
#X floatatom 124 211 5 0 0 0 - - -;
#X obj 142 130 tgl 15 0 empty empty empty 17 7 0 10 -262144 -1 -1 0
1;
#X obj 96 257 -;
#X floatatom 97 291 5 0 0 0 - - -;
#X obj 81 76 inlet;
#X obj 157 75 inlet;
#X obj 99 343 outlet;
#X connect 0 0 1 0;
#X connect 0 0 4 0;
#X connect 1 0 2 0;
#X connect 2 0 4 1;
#X connect 3 0 1 1;
#X connect 4 0 5 0;
#X connect 5 0 8 0;
#X connect 6 0 0 0;
#X connect 7 0 3 0;
#X restore 615 297 pd calibrate;
#X obj 604 353 / 127;
#X obj 540 459 translateXYZ -2.5 1.5 0;
#X obj 529 426 gemhead 99;
#N canvas 0 0 320 427 calibrate 0;
#X floatatom 85 130 5 0 0 0 - - -;
#X obj 103 174 spigot;
#X floatatom 124 211 5 0 0 0 - - -;
#X obj 142 130 tgl 15 0 empty empty empty 17 7 0 10 -262144 -1 -1 0
1;
#X obj 96 257 -;
#X floatatom 97 291 5 0 0 0 - - -;
#X obj 81 76 inlet;
#X obj 157 75 inlet;
#X obj 99 343 outlet;
#X connect 0 0 1 0;
#X connect 0 0 4 0;
#X connect 1 0 2 0;
#X connect 2 0 4 1;
#X connect 3 0 1 1;
#X connect 4 0 5 0;
#X connect 5 0 8 0;
#X connect 6 0 0 0;
#X connect 7 0 3 0;
#X restore 838 357 pd calibrate;
#X obj 749 433 gemhead 99;
#X obj 827 414 / 127;
#X text 736 333 CROSSHAIRS;
#X obj 636 434 average 5;
#X obj 856 441 average 5;
#X obj 543 510 colorRGB;
#X obj 764 539 colorRGB;
#X obj 538 537 rectangle 0.02 0.5;
#X floatatom 683 388 5 0 0 0 - - -;
#X obj 658 354 - 0.85;
#N canvas 0 0 303 384 rangex 0;
#X obj 106 72 clip 36 96;
#X floatatom 107 102 5 0 0 0 - - -;
#X obj 107 124 - 36;
#X floatatom 108 151 5 0 0 0 - - -;
#X floatatom 109 224 5 0 0 0 - - -;
#X obj 109 196 int;
#X floatatom 112 280 5 0 0 0 - - -;
#X text 146 100 range multiplier;
#X obj 107 40 inlet;
#X obj 115 317 outlet;
#X obj 108 176 * 3;
#X obj 109 247 clip 0 170;
#X connect 0 0 1 0;
#X connect 1 0 2 0;
#X connect 2 0 3 0;
#X connect 3 0 10 0;
#X connect 4 0 11 0;
#X connect 5 0 4 0;
#X connect 6 0 9 0;
#X connect 8 0 0 0;
#X connect 10 0 5 0;
#X connect 11 0 6 0;
#X restore 601 326 pd rangex;
#X obj 881 415 - 0.85;
#N canvas 0 0 303 384 rangex 0;
#X obj 106 72 clip 36 96;
#X floatatom 107 102 5 0 0 0 - - -;
#X obj 107 124 - 36;
#X floatatom 108 151 5 0 0 0 - - -;
#X floatatom 109 224 5 0 0 0 - - -;
#X obj 109 196 int;
#X floatatom 112 280 5 0 0 0 - - -;
#X text 146 100 range multiplier;
#X obj 107 40 inlet;
#X obj 115 317 outlet;
#X obj 108 176 * 3;
#X obj 109 247 clip 0 170;
#X connect 0 0 1 0;
#X connect 1 0 2 0;
#X connect 2 0 3 0;
#X connect 3 0 10 0;
#X connect 4 0 11 0;
#X connect 5 0 4 0;
#X connect 6 0 9 0;
#X connect 8 0 0 0;
#X connect 10 0 5 0;
#X connect 11 0 6 0;
#X restore 913 377 pd rangex;
#X obj 763 570 rectangle 0.5 0.02;
#X obj 763 490 translateXYZ -0.33 0.13 0;
#X obj 441 80 loadbang;
#X obj 397 196 text3d;
#X msg 429 128 2.5;
#X msg 258 323 text \$1 \$2 \$3;
#X obj 256 303 pack f f f;
#X obj 677 159 rectangle 0.5 0.1;
#X obj 678 138 color;
#X msg 714 139 1 1 0;
#X obj 660 37 tgl 15 0 empty empty empty 17 7 0 10 -262144 -1 -1 0
1;
#X msg 709 59 1;
#X msg 679 59 0;
#X obj 154 55 spigot;
#X obj 219 23 r rjuforward;
#X obj 756 84 loadbang;
#X obj 255 482 s zonoff2;
#X obj 436 149 r xlrmtrtext2;
#X obj 677 117 translateXYZ -2.3 -0.9 0;
#X obj 543 484 translateXYZ -1.95 -1.7 0;
#X obj 760 466 translateXYZ -1.97 0 0;
#X obj 258 341 s xlrmtrtext2;
#X obj 393 51 translateXYZ -2.5 0.27 0;
#X obj 661 17 r zonoff2;
#X obj 391 28 gemhead 99;
#X obj 677 96 gemhead 99;
#X obj 678 36 sel 1 0;
#X connect 1 0 9 0;
#X connect 2 0 10 0;
#X connect 3 0 0 0;
#X connect 3 0 20 0;
#X connect 3 0 26 0;
#X connect 3 1 21 0;
#X connect 3 1 30 0;
#X connect 4 0 3 0;
#X connect 5 0 4 0;
#X connect 6 0 1 0;
#X connect 6 0 14 0;
#X connect 6 1 2 0;
#X connect 6 1 15 0;
#X connect 6 2 17 0;
#X connect 6 2 18 0;
#X connect 6 2 16 0;
#X connect 7 0 13 0;
#X connect 8 0 57 0;
#X connect 9 0 5 0;
#X connect 9 0 50 0;
#X connect 10 0 5 1;
#X connect 10 0 50 1;
#X connect 11 0 7 0;
#X connect 11 0 22 0;
#X connect 12 0 19 0;
#X connect 12 0 6 0;
#X connect 13 0 50 2;
#X connect 13 0 25 0;
#X connect 13 0 60 0;
#X connect 18 0 11 0;
#X connect 23 0 12 1;
#X connect 25 0 24 0;
#X connect 26 0 27 0;
#X connect 27 0 39 0;
#X connect 27 0 40 0;
#X connect 28 0 63 0;
#X connect 29 0 28 0;
#X connect 30 0 32 0;
#X connect 31 0 64 0;
#X connect 32 0 42 0;
#X connect 34 0 28 1;
#X connect 35 0 64 2;
#X connect 36 0 38 0;
#X connect 37 0 44 0;
#X connect 40 0 34 0;
#X connect 42 0 35 0;
#X connect 45 0 37 0;
#X connect 46 0 48 0;
#X connect 48 0 47 1;
#X connect 49 0 65 0;
#X connect 50 0 49 0;
#X connect 52 0 51 0;
#X connect 53 0 52 1;
#X connect 54 0 70 0;
#X connect 55 0 69 0;
#X connect 56 0 69 0;
#X connect 57 0 12 0;
#X connect 58 0 57 1;
#X connect 59 0 53 0;
#X connect 61 0 47 0;
#X connect 62 0 52 0;
#X connect 63 0 36 0;
#X connect 64 0 45 0;
#X connect 66 0 47 0;
#X connect 67 0 54 0;
#X connect 68 0 66 0;
#X connect 69 0 62 0;
#X connect 70 0 55 0;
#X connect 70 1 56 0;
#X coords 0 -1 1 1 150 150 1 100 300;
#X restore 338 454 pd gesturekeyleft;
#N canvas 517 277 1024 730 gesturekeyleft 0;
#X floatatom 136 416 5 0 0 0 - - -;
#X obj 137 198 * 127;
#X obj 183 197 * 127;
#X obj 128 327 grid grid2 85 1 127 85 1 127 1 1 1 1 5 602 304;
#X msg 119 290 goto \$1 \$2;
#X obj 119 253 pack 1 1;
#X obj 152 166 unpack f f f;
#X obj 225 310 vsl 15 127 1 127 0 0 empty empty empty 0 -9 0 10 -262144
-1 -1 0 1;
#X obj 151 22 r xlrmtr1;
#N canvas 0 0 303 384 rangex 0;
#X obj 106 72 clip 36 96;
#X floatatom 107 102 5 0 0 0 - - -;
#X obj 107 124 - 36;
#X floatatom 108 151 5 0 0 0 - - -;
#X floatatom 109 224 5 0 0 0 - - -;
#X obj 109 196 int;
#X obj 108 176 * 2.2;
#X obj 109 247 clip 0 127;
#X floatatom 112 280 5 0 0 0 - - -;
#X text 146 100 range multiplier;
#X obj 107 40 inlet;
#X obj 115 317 outlet;
#X connect 0 0 1 0;
#X connect 1 0 2 0;
#X connect 2 0 3 0;
#X connect 3 0 6 0;
#X connect 4 0 7 0;
#X connect 5 0 4 0;
#X connect 6 0 5 0;
#X connect 7 0 8 0;
#X connect 8 0 11 0;
#X connect 10 0 0 0;
#X restore 110 224 pd rangex;
#N canvas 0 0 303 384 rangex 0;
#X obj 106 72 clip 36 96;
#X floatatom 107 102 5 0 0 0 - - -;
#X obj 107 124 - 36;
#X floatatom 108 151 5 0 0 0 - - -;
#X floatatom 109 224 5 0 0 0 - - -;
#X obj 109 196 int;
#X obj 108 176 * 2.2;
#X obj 109 247 clip 0 127;
#X floatatom 112 280 5 0 0 0 - - -;
#X text 146 100 range multiplier;
#X obj 107 40 inlet;
#X obj 115 317 outlet;
#X connect 0 0 1 0;
#X connect 1 0 2 0;
#X connect 2 0 3 0;
#X connect 3 0 6 0;
#X connect 4 0 7 0;
#X connect 5 0 4 0;
#X connect 6 0 5 0;
#X connect 7 0 8 0;
#X connect 8 0 11 0;
#X connect 10 0 0 0;
#X restore 176 224 pd rangex;
#N canvas 1265 221 303 384 rangex 0;
#X obj 106 72 clip 36 96;
#X floatatom 107 102 5 0 0 0 - - -;
#X obj 107 124 - 36;
#X floatatom 108 151 5 0 0 0 - - -;
#X floatatom 109 224 5 0 0 0 - - -;
#X obj 109 196 int;
#X obj 108 176 * 2.2;
#X obj 109 247 clip 0 127;
#X floatatom 112 280 5 0 0 0 - - -;
#X text 146 100 range multiplier;
#X obj 107 40 inlet;
#X obj 115 317 outlet;
#X connect 0 0 1 0;
#X connect 1 0 2 0;
#X connect 2 0 3 0;
#X connect 3 0 6 0;
#X connect 4 0 7 0;
#X connect 5 0 4 0;
#X connect 6 0 5 0;
#X connect 7 0 8 0;
#X connect 8 0 11 0;
#X connect 10 0 0 0;
#X restore 249 225 pd rangex;
#X obj 152 107 spigot;
#N canvas 561 216 463 496 z 0;
#X text 116 139 chnl#16;
#X floatatom 224 123 5 0 0 0 - - -;
#X obj 175 172 t b b;
#X obj 175 200 f;
#X obj 175 223 + 1;
#X obj 123 103 tgl 15 0 empty empty empty 17 7 0 10 -262144 -1 -1 0
1;
#X floatatom 143 124 5 0 0 0 - - -;
#X msg 202 200 1;
#X obj 103 103 bng 15 250 50 0 empty empty empty 17 7 0 10 -262144
-1 -1;
#X obj 122 187 outlet;
#X obj 175 147 delay 500;
#X obj 124 51 inlet zflip in;
#X obj 183 101 s moseszflip;
#X floatatom 107 333 5 0 0 0 - - -;
#X obj 176 123 sel 127;
#X obj 125 76 moses 120;
#X connect 2 0 3 0;
#X connect 2 1 7 0;
#X connect 3 0 4 0;
#X connect 4 0 8 0;
#X connect 5 0 9 0;
#X connect 7 0 3 1;
#X connect 8 0 5 0;
#X connect 10 0 2 0;
#X connect 11 0 15 0;
#X connect 14 0 6 0;
#X connect 14 0 10 0;
#X connect 14 1 1 0;
#X connect 15 0 12 0;
#X connect 15 1 14 0;
#X coords 0 -1 1 1 40 20 2 100 100;
#X restore 181 416 pd z flip switch;
#X obj 178 245 s \$0-r;
#X obj 224 246 s \$0-g;
#X obj 268 246 s \$0-b;
#X floatatom 293 193 5 0 0 0 - - -;
#X obj 237 198 * 127;
#X floatatom 108 140 5 0 0 0 - - -;
#X obj 88 476 outlet x;
#X obj 160 482 outlet y;
#X obj 250 277 outlet z;
#X obj 218 76 inlet;
#X obj 328 477 outlet onoff;
#X obj 328 456 * 127;
#N canvas 0 0 320 427 calibrate 0;
#X floatatom 85 130 5 0 0 0 - - -;
#X obj 103 174 spigot;
#X floatatom 124 211 5 0 0 0 - - -;
#X obj 142 130 tgl 15 0 empty empty empty 17 7 0 10 -262144 -1 -1 0
1;
#X obj 96 257 -;
#X floatatom 97 291 5 0 0 0 - - -;
#X obj 81 76 inlet;
#X obj 157 75 inlet;
#X obj 99 343 outlet;
#X connect 0 0 1 0;
#X connect 0 0 4 0;
#X connect 1 0 2 0;
#X connect 2 0 4 1;
#X connect 3 0 1 1;
#X connect 4 0 5 0;
#X connect 5 0 8 0;
#X connect 6 0 0 0;
#X connect 7 0 3 0;
#X restore 615 297 pd calibrate;
#X obj 604 353 / 127;
#X obj 540 459 translateXYZ -2.5 1.5 0;
#X obj 529 426 gemhead 99;
#N canvas 0 0 320 427 calibrate 0;
#X floatatom 85 130 5 0 0 0 - - -;
#X obj 103 174 spigot;
#X floatatom 124 211 5 0 0 0 - - -;
#X obj 142 130 tgl 15 0 empty empty empty 17 7 0 10 -262144 -1 -1 0
1;
#X obj 96 257 -;
#X floatatom 97 291 5 0 0 0 - - -;
#X obj 81 76 inlet;
#X obj 157 75 inlet;
#X obj 99 343 outlet;
#X connect 0 0 1 0;
#X connect 0 0 4 0;
#X connect 1 0 2 0;
#X connect 2 0 4 1;
#X connect 3 0 1 1;
#X connect 4 0 5 0;
#X connect 5 0 8 0;
#X connect 6 0 0 0;
#X connect 7 0 3 0;
#X restore 838 357 pd calibrate;
#X obj 749 433 gemhead 99;
#X obj 827 414 / 127;
#X text 736 333 CROSSHAIRS;
#X obj 636 434 average 5;
#X obj 856 441 average 5;
#X obj 543 510 colorRGB;
#X obj 764 539 colorRGB;
#X obj 538 537 rectangle 0.02 0.5;
#X floatatom 683 388 5 0 0 0 - - -;
#X obj 658 354 - 0.85;
#N canvas 0 0 303 384 rangex 0;
#X obj 106 72 clip 36 96;
#X floatatom 107 102 5 0 0 0 - - -;
#X obj 107 124 - 36;
#X floatatom 108 151 5 0 0 0 - - -;
#X floatatom 109 224 5 0 0 0 - - -;
#X obj 109 196 int;
#X floatatom 112 280 5 0 0 0 - - -;
#X text 146 100 range multiplier;
#X obj 107 40 inlet;
#X obj 115 317 outlet;
#X obj 108 176 * 3;
#X obj 109 247 clip 0 170;
#X connect 0 0 1 0;
#X connect 1 0 2 0;
#X connect 2 0 3 0;
#X connect 3 0 10 0;
#X connect 4 0 11 0;
#X connect 5 0 4 0;
#X connect 6 0 9 0;
#X connect 8 0 0 0;
#X connect 10 0 5 0;
#X connect 11 0 6 0;
#X restore 601 326 pd rangex;
#X obj 881 415 - 0.85;
#N canvas 0 0 303 384 rangex 0;
#X obj 106 72 clip 36 96;
#X floatatom 107 102 5 0 0 0 - - -;
#X obj 107 124 - 36;
#X floatatom 108 151 5 0 0 0 - - -;
#X floatatom 109 224 5 0 0 0 - - -;
#X obj 109 196 int;
#X floatatom 112 280 5 0 0 0 - - -;
#X text 146 100 range multiplier;
#X obj 107 40 inlet;
#X obj 115 317 outlet;
#X obj 108 176 * 3;
#X obj 109 247 clip 0 170;
#X connect 0 0 1 0;
#X connect 1 0 2 0;
#X connect 2 0 3 0;
#X connect 3 0 10 0;
#X connect 4 0 11 0;
#X connect 5 0 4 0;
#X connect 6 0 9 0;
#X connect 8 0 0 0;
#X connect 10 0 5 0;
#X connect 11 0 6 0;
#X restore 913 377 pd rangex;
#X obj 763 570 rectangle 0.5 0.02;
#X obj 763 490 translateXYZ -0.33 0.13 0;
#X obj 441 80 loadbang;
#X obj 397 196 text3d;
#X msg 429 128 2.5;
#X msg 258 323 text \$1 \$2 \$3;
#X obj 256 303 pack f f f;
#X obj 677 159 rectangle 0.5 0.1;
#X obj 678 138 color;
#X msg 714 139 1 1 0;
#X obj 660 37 tgl 15 0 empty empty empty 17 7 0 10 -262144 -1 -1 0
1;
#X msg 709 59 1;
#X msg 679 59 0;
#X obj 154 55 spigot;
#X obj 219 23 r rjuforward;
#X obj 756 84 loadbang;
#X obj 677 117 translateXYZ -1.2 -0.9 0;
#X obj 436 149 r xlrmtrtext1;
#X obj 258 341 s xlrmtrtext1;
#X obj 255 482 s zonoff1;
#X obj 661 17 r zonoff1;
#X obj 760 466 translateXYZ -0.86 0 0;
#X obj 543 484 translateXYZ -0.86 -1.7 0;
#X obj 393 51 translateXYZ -1.35 0.27 0;
#X obj 391 28 gemhead 99;
#X obj 676 96 gemhead 99;
#X obj 678 36 sel 1 0;
#X connect 1 0 9 0;
#X connect 2 0 10 0;
#X connect 3 0 0 0;
#X connect 3 0 20 0;
#X connect 3 0 26 0;
#X connect 3 1 21 0;
#X connect 3 1 30 0;
#X connect 4 0 3 0;
#X connect 5 0 4 0;
#X connect 6 0 1 0;
#X connect 6 0 14 0;
#X connect 6 1 2 0;
#X connect 6 1 15 0;
#X connect 6 2 17 0;
#X connect 6 2 18 0;
#X connect 6 2 16 0;
#X connect 7 0 13 0;
#X connect 8 0 57 0;
#X connect 9 0 5 0;
#X connect 9 0 50 0;
#X connect 10 0 5 1;
#X connect 10 0 50 1;
#X connect 11 0 7 0;
#X connect 11 0 22 0;
#X connect 12 0 19 0;
#X connect 12 0 6 0;
#X connect 13 0 50 2;
#X connect 13 0 25 0;
#X connect 13 0 63 0;
#X connect 18 0 11 0;
#X connect 23 0 12 1;
#X connect 25 0 24 0;
#X connect 26 0 27 0;
#X connect 27 0 39 0;
#X connect 27 0 40 0;
#X connect 28 0 66 0;
#X connect 29 0 28 0;
#X connect 30 0 32 0;
#X connect 31 0 65 0;
#X connect 32 0 42 0;
#X connect 34 0 28 1;
#X connect 35 0 65 2;
#X connect 36 0 38 0;
#X connect 37 0 44 0;
#X connect 40 0 34 0;
#X connect 42 0 35 0;
#X connect 45 0 37 0;
#X connect 46 0 48 0;
#X connect 48 0 47 1;
#X connect 49 0 62 0;
#X connect 50 0 49 0;
#X connect 52 0 51 0;
#X connect 53 0 52 1;
#X connect 54 0 70 0;
#X connect 55 0 69 0;
#X connect 56 0 69 0;
#X connect 57 0 12 0;
#X connect 58 0 57 1;
#X connect 59 0 53 0;
#X connect 60 0 52 0;
#X connect 61 0 47 0;
#X connect 64 0 54 0;
#X connect 65 0 45 0;
#X connect 66 0 36 0;
#X connect 67 0 47 0;
#X connect 68 0 67 0;
#X connect 69 0 60 0;
#X connect 70 0 55 0;
#X connect 70 1 56 0;
#X coords 0 -1 1 1 150 150 1 100 300;
#X restore 497 455 pd gesturekeyleft;
#N canvas 97 133 1024 730 gesturekeyright 0;
#X floatatom 136 416 5 0 0 0 - - -;
#X obj 137 198 * 127;
#X obj 183 197 * 127;
#X obj 128 327 grid grid2 85 1 127 85 1 127 1 1 1 1 5 776 337;
#X msg 119 290 goto \$1 \$2;
#X obj 119 253 pack 1 1;
#X obj 152 166 unpack f f f;
#X obj 225 310 vsl 15 127 1 127 0 0 empty empty empty 0 -9 0 10 -262144
-1 -1 0 1;
#N canvas 0 0 303 384 rangex 0;
#X obj 106 72 clip 36 96;
#X floatatom 107 102 5 0 0 0 - - -;
#X obj 107 124 - 36;
#X floatatom 108 151 5 0 0 0 - - -;
#X floatatom 109 224 5 0 0 0 - - -;
#X obj 109 196 int;
#X obj 108 176 * 2.2;
#X obj 109 247 clip 0 127;
#X floatatom 112 280 5 0 0 0 - - -;
#X text 146 100 range multiplier;
#X obj 107 40 inlet;
#X obj 115 317 outlet;
#X connect 0 0 1 0;
#X connect 1 0 2 0;
#X connect 2 0 3 0;
#X connect 3 0 6 0;
#X connect 4 0 7 0;
#X connect 5 0 4 0;
#X connect 6 0 5 0;
#X connect 7 0 8 0;
#X connect 8 0 11 0;
#X connect 10 0 0 0;
#X restore 110 224 pd rangex;
#N canvas 0 0 303 384 rangex 0;
#X obj 106 72 clip 36 96;
#X floatatom 107 102 5 0 0 0 - - -;
#X obj 107 124 - 36;
#X floatatom 108 151 5 0 0 0 - - -;
#X floatatom 109 224 5 0 0 0 - - -;
#X obj 109 196 int;
#X obj 108 176 * 2.2;
#X obj 109 247 clip 0 127;
#X floatatom 112 280 5 0 0 0 - - -;
#X text 146 100 range multiplier;
#X obj 107 40 inlet;
#X obj 115 317 outlet;
#X connect 0 0 1 0;
#X connect 1 0 2 0;
#X connect 2 0 3 0;
#X connect 3 0 6 0;
#X connect 4 0 7 0;
#X connect 5 0 4 0;
#X connect 6 0 5 0;
#X connect 7 0 8 0;
#X connect 8 0 11 0;
#X connect 10 0 0 0;
#X restore 176 224 pd rangex;
#N canvas 1265 221 303 384 rangex 0;
#X obj 106 72 clip 36 96;
#X floatatom 107 102 5 0 0 0 - - -;
#X obj 107 124 - 36;
#X floatatom 108 151 5 0 0 0 - - -;
#X floatatom 109 224 5 0 0 0 - - -;
#X obj 109 196 int;
#X obj 108 176 * 2.2;
#X obj 109 247 clip 0 127;
#X floatatom 112 280 5 0 0 0 - - -;
#X text 146 100 range multiplier;
#X obj 107 40 inlet;
#X obj 115 317 outlet;
#X connect 0 0 1 0;
#X connect 1 0 2 0;
#X connect 2 0 3 0;
#X connect 3 0 6 0;
#X connect 4 0 7 0;
#X connect 5 0 4 0;
#X connect 6 0 5 0;
#X connect 7 0 8 0;
#X connect 8 0 11 0;
#X connect 10 0 0 0;
#X restore 249 225 pd rangex;
#X obj 152 107 spigot;
#N canvas 561 216 463 496 z 0;
#X text 116 139 chnl#16;
#X floatatom 224 123 5 0 0 0 - - -;
#X obj 175 172 t b b;
#X obj 175 200 f;
#X obj 175 223 + 1;
#X obj 123 103 tgl 15 0 empty empty empty 17 7 0 10 -262144 -1 -1 0
1;
#X floatatom 143 124 5 0 0 0 - - -;
#X msg 202 200 1;
#X obj 103 103 bng 15 250 50 0 empty empty empty 17 7 0 10 -262144
-1 -1;
#X obj 122 187 outlet;
#X obj 175 147 delay 500;
#X obj 124 51 inlet zflip in;
#X obj 183 101 s moseszflip;
#X floatatom 107 333 5 0 0 0 - - -;
#X obj 176 123 sel 127;
#X obj 125 76 moses 120;
#X connect 2 0 3 0;
#X connect 2 1 7 0;
#X connect 3 0 4 0;
#X connect 4 0 8 0;
#X connect 5 0 9 0;
#X connect 7 0 3 1;
#X connect 8 0 5 0;
#X connect 10 0 2 0;
#X connect 11 0 15 0;
#X connect 14 0 6 0;
#X connect 14 0 10 0;
#X connect 14 1 1 0;
#X connect 15 0 12 0;
#X connect 15 1 14 0;
#X coords 0 -1 1 1 40 20 2 100 100;
#X restore 181 416 pd z flip switch;
#X obj 178 245 s \$0-r;
#X obj 224 246 s \$0-g;
#X obj 268 246 s \$0-b;
#X floatatom 293 193 5 0 0 0 - - -;
#X obj 237 198 * 127;
#X floatatom 108 140 5 0 0 0 - - -;
#X obj 88 476 outlet x;
#X obj 160 482 outlet y;
#X obj 249 483 outlet z;
#X obj 218 76 inlet;
#X obj 328 477 outlet onoff;
#X obj 328 456 * 127;
#N canvas 0 0 320 427 calibrate 0;
#X floatatom 85 130 5 0 0 0 - - -;
#X obj 103 174 spigot;
#X floatatom 124 211 5 0 0 0 - - -;
#X obj 142 130 tgl 15 0 empty empty empty 17 7 0 10 -262144 -1 -1 0
1;
#X obj 96 257 -;
#X floatatom 97 291 5 0 0 0 - - -;
#X obj 81 76 inlet;
#X obj 157 75 inlet;
#X obj 99 343 outlet;
#X connect 0 0 1 0;
#X connect 0 0 4 0;
#X connect 1 0 2 0;
#X connect 2 0 4 1;
#X connect 3 0 1 1;
#X connect 4 0 5 0;
#X connect 5 0 8 0;
#X connect 6 0 0 0;
#X connect 7 0 3 0;
#X restore 615 297 pd calibrate;
#X obj 604 353 / 127;
#X obj 540 459 translateXYZ -2.5 1.5 0;
#X obj 529 426 gemhead 99;
#N canvas 0 0 320 427 calibrate 0;
#X floatatom 85 130 5 0 0 0 - - -;
#X obj 103 174 spigot;
#X floatatom 124 211 5 0 0 0 - - -;
#X obj 142 130 tgl 15 0 empty empty empty 17 7 0 10 -262144 -1 -1 0
1;
#X obj 96 257 -;
#X floatatom 97 291 5 0 0 0 - - -;
#X obj 81 76 inlet;
#X obj 157 75 inlet;
#X obj 99 343 outlet;
#X connect 0 0 1 0;
#X connect 0 0 4 0;
#X connect 1 0 2 0;
#X connect 2 0 4 1;
#X connect 3 0 1 1;
#X connect 4 0 5 0;
#X connect 5 0 8 0;
#X connect 6 0 0 0;
#X connect 7 0 3 0;
#X restore 838 357 pd calibrate;
#X obj 749 433 gemhead 99;
#X obj 827 414 / 127;
#X text 736 333 CROSSHAIRS;
#X obj 636 434 average 5;
#X obj 856 441 average 5;
#X obj 543 510 colorRGB;
#X obj 764 539 colorRGB;
#X obj 538 537 rectangle 0.02 0.5;
#X floatatom 683 388 5 0 0 0 - - -;
#X obj 658 354 - 0.85;
#N canvas 0 0 303 384 rangex 0;
#X obj 106 72 clip 36 96;
#X floatatom 107 102 5 0 0 0 - - -;
#X obj 107 124 - 36;
#X floatatom 108 151 5 0 0 0 - - -;
#X floatatom 109 224 5 0 0 0 - - -;
#X obj 109 196 int;
#X floatatom 112 280 5 0 0 0 - - -;
#X text 146 100 range multiplier;
#X obj 107 40 inlet;
#X obj 115 317 outlet;
#X obj 108 176 * 3;
#X obj 109 247 clip 0 170;
#X connect 0 0 1 0;
#X connect 1 0 2 0;
#X connect 2 0 3 0;
#X connect 3 0 10 0;
#X connect 4 0 11 0;
#X connect 5 0 4 0;
#X connect 6 0 9 0;
#X connect 8 0 0 0;
#X connect 10 0 5 0;
#X connect 11 0 6 0;
#X restore 601 326 pd rangex;
#X obj 881 415 - 0.85;
#N canvas 0 0 303 384 rangex 0;
#X obj 106 72 clip 36 96;
#X floatatom 107 102 5 0 0 0 - - -;
#X obj 107 124 - 36;
#X floatatom 108 151 5 0 0 0 - - -;
#X floatatom 109 224 5 0 0 0 - - -;
#X obj 109 196 int;
#X floatatom 112 280 5 0 0 0 - - -;
#X text 146 100 range multiplier;
#X obj 107 40 inlet;
#X obj 115 317 outlet;
#X obj 108 176 * 3;
#X obj 109 247 clip 0 170;
#X connect 0 0 1 0;
#X connect 1 0 2 0;
#X connect 2 0 3 0;
#X connect 3 0 10 0;
#X connect 4 0 11 0;
#X connect 5 0 4 0;
#X connect 6 0 9 0;
#X connect 8 0 0 0;
#X connect 10 0 5 0;
#X connect 11 0 6 0;
#X restore 913 377 pd rangex;
#X obj 763 570 rectangle 0.5 0.02;
#X obj 763 490 translateXYZ -0.33 0.13 0;
#X obj 441 80 loadbang;
#X obj 397 196 text3d;
#X msg 429 128 2.5;
#X msg 258 323 text \$1 \$2 \$3;
#X obj 256 303 pack f f f;
#X obj 677 159 rectangle 0.5 0.1;
#X obj 678 138 color;
#X msg 714 139 1 1 0;
#X obj 660 37 tgl 15 0 empty empty empty 17 7 0 10 -262144 -1 -1 0
1;
#X msg 709 59 1;
#X msg 679 59 0;
#X obj 154 55 spigot;
#X obj 219 23 r rjuforward;
#X obj 756 84 loadbang;
#X obj 151 22 r xlrmtr2;
#X obj 661 17 r zonoff5;
#X obj 289 419 s zonoff5;
#X obj 258 341 s xlrmtrtext5;
#X obj 436 149 r xlrmtrtext5;
#X obj 760 466 translateXYZ 1.53 0 0;
#X obj 543 484 translateXYZ 1.53 -1.7 0;
#X obj 677 117 translateXYZ 1.2 -0.9 0;
#X obj 676 96 gemhead 99;
#X obj 391 28 gemhead 99;
#X obj 393 51 translateXYZ 1.1 0.27 0;
#X obj 678 36 sel 1 0;
#X connect 1 0 8 0;
#X connect 2 0 9 0;
#X connect 3 0 0 0;
#X connect 3 0 19 0;
#X connect 3 0 25 0;
#X connect 3 1 20 0;
#X connect 3 1 29 0;
#X connect 4 0 3 0;
#X connect 5 0 4 0;
#X connect 6 0 1 0;
#X connect 6 0 13 0;
#X connect 6 1 2 0;
#X connect 6 1 14 0;
#X connect 6 2 16 0;
#X connect 6 2 17 0;
#X connect 6 2 15 0;
#X connect 7 0 12 0;
#X connect 8 0 5 0;
#X connect 8 0 49 0;
#X connect 9 0 5 1;
#X connect 9 0 49 1;
#X connect 10 0 7 0;
#X connect 10 0 21 0;
#X connect 11 0 18 0;
#X connect 11 0 6 0;
#X connect 12 0 49 2;
#X connect 12 0 24 0;
#X connect 12 0 61 0;
#X connect 17 0 10 0;
#X connect 22 0 11 1;
#X connect 24 0 23 0;
#X connect 25 0 26 0;
#X connect 26 0 38 0;
#X connect 26 0 39 0;
#X connect 27 0 65 0;
#X connect 28 0 27 0;
#X connect 29 0 31 0;
#X connect 30 0 64 0;
#X connect 31 0 41 0;
#X connect 33 0 27 1;
#X connect 34 0 64 2;
#X connect 35 0 37 0;
#X connect 36 0 43 0;
#X connect 39 0 33 0;
#X connect 41 0 34 0;
#X connect 44 0 36 0;
#X connect 45 0 47 0;
#X connect 47 0 46 1;
#X connect 48 0 62 0;
#X connect 49 0 48 0;
#X connect 51 0 50 0;
#X connect 52 0 51 1;
#X connect 53 0 70 0;
#X connect 54 0 67 0;
#X connect 55 0 67 0;
#X connect 56 0 11 0;
#X connect 57 0 56 1;
#X connect 58 0 52 0;
#X connect 59 0 56 0;
#X connect 60 0 53 0;
#X connect 63 0 46 0;
#X connect 64 0 44 0;
#X connect 65 0 35 0;
#X connect 66 0 51 0;
#X connect 67 0 66 0;
#X connect 68 0 69 0;
#X connect 69 0 46 0;
#X connect 70 0 54 0;
#X connect 70 1 55 0;
#X coords 0 -1 1 1 150 150 1 100 300;
#X restore 696 455 pd gesturekeyright;
#X text 884 413 5;
#X text 916 414 6;
#X text 950 412 7;
#N canvas 103 181 1024 730 gesturekeyright 0;
#X floatatom 136 416 5 0 0 0 - - -;
#X obj 137 198 * 127;
#X obj 183 197 * 127;
#X obj 128 327 grid grid2 85 1 127 85 1 127 1 1 1 1 5 953 328;
#X msg 119 290 goto \$1 \$2;
#X obj 119 253 pack 1 1;
#X obj 152 166 unpack f f f;
#X obj 225 310 vsl 15 127 1 127 0 0 empty empty empty 0 -9 0 10 -262144
-1 -1 0 1;
#N canvas 0 0 303 384 rangex 0;
#X obj 106 72 clip 36 96;
#X floatatom 107 102 5 0 0 0 - - -;
#X obj 107 124 - 36;
#X floatatom 108 151 5 0 0 0 - - -;
#X floatatom 109 224 5 0 0 0 - - -;
#X obj 109 196 int;
#X obj 108 176 * 2.2;
#X obj 109 247 clip 0 127;
#X floatatom 112 280 5 0 0 0 - - -;
#X text 146 100 range multiplier;
#X obj 107 40 inlet;
#X obj 115 317 outlet;
#X connect 0 0 1 0;
#X connect 1 0 2 0;
#X connect 2 0 3 0;
#X connect 3 0 6 0;
#X connect 4 0 7 0;
#X connect 5 0 4 0;
#X connect 6 0 5 0;
#X connect 7 0 8 0;
#X connect 8 0 11 0;
#X connect 10 0 0 0;
#X restore 110 224 pd rangex;
#N canvas 0 0 303 384 rangex 0;
#X obj 106 72 clip 36 96;
#X floatatom 107 102 5 0 0 0 - - -;
#X obj 107 124 - 36;
#X floatatom 108 151 5 0 0 0 - - -;
#X floatatom 109 224 5 0 0 0 - - -;
#X obj 109 196 int;
#X obj 108 176 * 2.2;
#X obj 109 247 clip 0 127;
#X floatatom 112 280 5 0 0 0 - - -;
#X text 146 100 range multiplier;
#X obj 107 40 inlet;
#X obj 115 317 outlet;
#X connect 0 0 1 0;
#X connect 1 0 2 0;
#X connect 2 0 3 0;
#X connect 3 0 6 0;
#X connect 4 0 7 0;
#X connect 5 0 4 0;
#X connect 6 0 5 0;
#X connect 7 0 8 0;
#X connect 8 0 11 0;
#X connect 10 0 0 0;
#X restore 176 224 pd rangex;
#N canvas 1265 221 303 384 rangex 0;
#X obj 106 72 clip 36 96;
#X floatatom 107 102 5 0 0 0 - - -;
#X obj 107 124 - 36;
#X floatatom 108 151 5 0 0 0 - - -;
#X floatatom 109 224 5 0 0 0 - - -;
#X obj 109 196 int;
#X obj 108 176 * 2.2;
#X obj 109 247 clip 0 127;
#X floatatom 112 280 5 0 0 0 - - -;
#X text 146 100 range multiplier;
#X obj 107 40 inlet;
#X obj 115 317 outlet;
#X connect 0 0 1 0;
#X connect 1 0 2 0;
#X connect 2 0 3 0;
#X connect 3 0 6 0;
#X connect 4 0 7 0;
#X connect 5 0 4 0;
#X connect 6 0 5 0;
#X connect 7 0 8 0;
#X connect 8 0 11 0;
#X connect 10 0 0 0;
#X restore 249 225 pd rangex;
#X obj 152 107 spigot;
#N canvas 561 216 463 496 z 0;
#X text 116 139 chnl#16;
#X floatatom 224 123 5 0 0 0 - - -;
#X obj 175 172 t b b;
#X obj 175 200 f;
#X obj 175 223 + 1;
#X obj 123 103 tgl 15 0 empty empty empty 17 7 0 10 -262144 -1 -1 0
1;
#X floatatom 143 124 5 0 0 0 - - -;
#X msg 202 200 1;
#X obj 103 103 bng 15 250 50 0 empty empty empty 17 7 0 10 -262144
-1 -1;
#X obj 122 187 outlet;
#X obj 175 147 delay 500;
#X obj 124 51 inlet zflip in;
#X obj 183 101 s moseszflip;
#X floatatom 107 333 5 0 0 0 - - -;
#X obj 176 123 sel 127;
#X obj 125 76 moses 120;
#X connect 2 0 3 0;
#X connect 2 1 7 0;
#X connect 3 0 4 0;
#X connect 4 0 8 0;
#X connect 5 0 9 0;
#X connect 7 0 3 1;
#X connect 8 0 5 0;
#X connect 10 0 2 0;
#X connect 11 0 15 0;
#X connect 14 0 6 0;
#X connect 14 0 10 0;
#X connect 14 1 1 0;
#X connect 15 0 12 0;
#X connect 15 1 14 0;
#X coords 0 -1 1 1 40 20 2 100 100;
#X restore 181 416 pd z flip switch;
#X obj 178 245 s \$0-r;
#X obj 224 246 s \$0-g;
#X obj 268 246 s \$0-b;
#X floatatom 293 193 5 0 0 0 - - -;
#X obj 237 198 * 127;
#X floatatom 108 140 5 0 0 0 - - -;
#X obj 88 476 outlet x;
#X obj 160 482 outlet y;
#X obj 250 277 outlet z;
#X obj 218 76 inlet;
#X obj 328 477 outlet onoff;
#X obj 328 456 * 127;
#N canvas 0 0 320 427 calibrate 0;
#X floatatom 85 130 5 0 0 0 - - -;
#X obj 103 174 spigot;
#X floatatom 124 211 5 0 0 0 - - -;
#X obj 142 130 tgl 15 0 empty empty empty 17 7 0 10 -262144 -1 -1 0
1;
#X obj 96 257 -;
#X floatatom 97 291 5 0 0 0 - - -;
#X obj 81 76 inlet;
#X obj 157 75 inlet;
#X obj 99 343 outlet;
#X connect 0 0 1 0;
#X connect 0 0 4 0;
#X connect 1 0 2 0;
#X connect 2 0 4 1;
#X connect 3 0 1 1;
#X connect 4 0 5 0;
#X connect 5 0 8 0;
#X connect 6 0 0 0;
#X connect 7 0 3 0;
#X restore 615 297 pd calibrate;
#X obj 604 353 / 127;
#X obj 540 459 translateXYZ -2.5 1.5 0;
#X obj 529 426 gemhead 99;
#N canvas 0 0 320 427 calibrate 0;
#X floatatom 85 130 5 0 0 0 - - -;
#X obj 103 174 spigot;
#X floatatom 124 211 5 0 0 0 - - -;
#X obj 142 130 tgl 15 0 empty empty empty 17 7 0 10 -262144 -1 -1 0
1;
#X obj 96 257 -;
#X floatatom 97 291 5 0 0 0 - - -;
#X obj 81 76 inlet;
#X obj 157 75 inlet;
#X obj 99 343 outlet;
#X connect 0 0 1 0;
#X connect 0 0 4 0;
#X connect 1 0 2 0;
#X connect 2 0 4 1;
#X connect 3 0 1 1;
#X connect 4 0 5 0;
#X connect 5 0 8 0;
#X connect 6 0 0 0;
#X connect 7 0 3 0;
#X restore 838 357 pd calibrate;
#X obj 749 433 gemhead 99;
#X obj 827 414 / 127;
#X text 736 333 CROSSHAIRS;
#X obj 636 434 average 5;
#X obj 856 441 average 5;
#X obj 543 510 colorRGB;
#X obj 764 539 colorRGB;
#X obj 538 537 rectangle 0.02 0.5;
#X floatatom 683 388 5 0 0 0 - - -;
#X obj 658 354 - 0.85;
#N canvas 0 0 303 384 rangex 0;
#X obj 106 72 clip 36 96;
#X floatatom 107 102 5 0 0 0 - - -;
#X obj 107 124 - 36;
#X floatatom 108 151 5 0 0 0 - - -;
#X floatatom 109 224 5 0 0 0 - - -;
#X obj 109 196 int;
#X floatatom 112 280 5 0 0 0 - - -;
#X text 146 100 range multiplier;
#X obj 107 40 inlet;
#X obj 115 317 outlet;
#X obj 108 176 * 3;
#X obj 109 247 clip 0 170;
#X connect 0 0 1 0;
#X connect 1 0 2 0;
#X connect 2 0 3 0;
#X connect 3 0 10 0;
#X connect 4 0 11 0;
#X connect 5 0 4 0;
#X connect 6 0 9 0;
#X connect 8 0 0 0;
#X connect 10 0 5 0;
#X connect 11 0 6 0;
#X restore 601 326 pd rangex;
#X obj 881 415 - 0.85;
#N canvas 0 0 303 384 rangex 0;
#X obj 106 72 clip 36 96;
#X floatatom 107 102 5 0 0 0 - - -;
#X obj 107 124 - 36;
#X floatatom 108 151 5 0 0 0 - - -;
#X floatatom 109 224 5 0 0 0 - - -;
#X obj 109 196 int;
#X floatatom 112 280 5 0 0 0 - - -;
#X text 146 100 range multiplier;
#X obj 107 40 inlet;
#X obj 115 317 outlet;
#X obj 108 176 * 3;
#X obj 109 247 clip 0 170;
#X connect 0 0 1 0;
#X connect 1 0 2 0;
#X connect 2 0 3 0;
#X connect 3 0 10 0;
#X connect 4 0 11 0;
#X connect 5 0 4 0;
#X connect 6 0 9 0;
#X connect 8 0 0 0;
#X connect 10 0 5 0;
#X connect 11 0 6 0;
#X restore 913 377 pd rangex;
#X obj 763 570 rectangle 0.5 0.02;
#X obj 763 490 translateXYZ -0.33 0.13 0;
#X obj 441 80 loadbang;
#X obj 397 196 text3d;
#X msg 429 128 2.5;
#X msg 258 323 text \$1 \$2 \$3;
#X obj 256 303 pack f f f;
#X obj 677 159 rectangle 0.5 0.1;
#X obj 678 138 color;
#X msg 714 139 1 1 0;
#X obj 660 37 tgl 15 0 empty empty empty 17 7 0 10 -262144 -1 -1 0
1;
#X msg 709 59 1;
#X msg 679 59 0;
#X obj 154 55 spigot;
#X obj 219 23 r rjuforward;
#X obj 756 84 loadbang;
#X obj 151 22 r xlrmtr2;
#X obj 676 96 gemhead 99;
#X obj 391 28 gemhead 99;
#X obj 258 341 s xlrmtrtext6;
#X obj 255 482 s zonoff6;
#X obj 436 149 r xlrmtrtext6;
#X obj 661 17 r zonoff6;
#X obj 760 466 translateXYZ 2.63 0 0;
#X obj 543 484 translateXYZ 2.63 -1.7 0;
#X obj 678 116 translateXYZ 2.3 -0.9 0;
#X obj 393 51 translateXYZ 2.15 0.27 0;
#X obj 678 36 sel 1 0;
#X connect 1 0 8 0;
#X connect 2 0 9 0;
#X connect 3 0 0 0;
#X connect 3 0 19 0;
#X connect 3 0 25 0;
#X connect 3 1 20 0;
#X connect 3 1 29 0;
#X connect 4 0 3 0;
#X connect 5 0 4 0;
#X connect 6 0 1 0;
#X connect 6 0 13 0;
#X connect 6 1 2 0;
#X connect 6 1 14 0;
#X connect 6 2 16 0;
#X connect 6 2 17 0;
#X connect 6 2 15 0;
#X connect 7 0 12 0;
#X connect 8 0 5 0;
#X connect 8 0 49 0;
#X connect 9 0 5 1;
#X connect 9 0 49 1;
#X connect 10 0 7 0;
#X connect 10 0 21 0;
#X connect 11 0 18 0;
#X connect 11 0 6 0;
#X connect 12 0 49 2;
#X connect 12 0 24 0;
#X connect 12 0 63 0;
#X connect 17 0 10 0;
#X connect 22 0 11 1;
#X connect 24 0 23 0;
#X connect 25 0 26 0;
#X connect 26 0 38 0;
#X connect 26 0 39 0;
#X connect 27 0 67 0;
#X connect 28 0 27 0;
#X connect 29 0 31 0;
#X connect 30 0 66 0;
#X connect 31 0 41 0;
#X connect 33 0 27 1;
#X connect 34 0 66 2;
#X connect 35 0 37 0;
#X connect 36 0 43 0;
#X connect 39 0 33 0;
#X connect 41 0 34 0;
#X connect 44 0 36 0;
#X connect 45 0 47 0;
#X connect 47 0 46 1;
#X connect 48 0 62 0;
#X connect 49 0 48 0;
#X connect 51 0 50 0;
#X connect 52 0 51 1;
#X connect 53 0 70 0;
#X connect 54 0 60 0;
#X connect 55 0 60 0;
#X connect 56 0 11 0;
#X connect 57 0 56 1;
#X connect 58 0 52 0;
#X connect 59 0 56 0;
#X connect 60 0 68 0;
#X connect 61 0 69 0;
#X connect 64 0 46 0;
#X connect 65 0 53 0;
#X connect 66 0 44 0;
#X connect 67 0 35 0;
#X connect 68 0 51 0;
#X connect 69 0 46 0;
#X connect 70 0 54 0;
#X connect 70 1 55 0;
#X coords 0 -1 1 1 150 150 1 100 300;
#X restore 867 454 pd gesturekeyright;
#N canvas 103 181 1024 730 gesturekeyright 0;
#X floatatom 136 416 5 0 0 0 - - -;
#X obj 137 198 * 127;
#X obj 183 197 * 127;
#X obj 128 327 grid grid2 85 1 127 85 1 127 1 1 1 1 5 1109 329;
#X msg 119 290 goto \$1 \$2;
#X obj 119 253 pack 1 1;
#X obj 152 166 unpack f f f;
#X obj 225 310 vsl 15 127 1 127 0 0 empty empty empty 0 -9 0 10 -262144
-1 -1 0 1;
#N canvas 0 0 303 384 rangex 0;
#X obj 106 72 clip 36 96;
#X floatatom 107 102 5 0 0 0 - - -;
#X obj 107 124 - 36;
#X floatatom 108 151 5 0 0 0 - - -;
#X floatatom 109 224 5 0 0 0 - - -;
#X obj 109 196 int;
#X obj 108 176 * 2.2;
#X obj 109 247 clip 0 127;
#X floatatom 112 280 5 0 0 0 - - -;
#X text 146 100 range multiplier;
#X obj 107 40 inlet;
#X obj 115 317 outlet;
#X connect 0 0 1 0;
#X connect 1 0 2 0;
#X connect 2 0 3 0;
#X connect 3 0 6 0;
#X connect 4 0 7 0;
#X connect 5 0 4 0;
#X connect 6 0 5 0;
#X connect 7 0 8 0;
#X connect 8 0 11 0;
#X connect 10 0 0 0;
#X restore 110 224 pd rangex;
#N canvas 0 0 303 384 rangex 0;
#X obj 106 72 clip 36 96;
#X floatatom 107 102 5 0 0 0 - - -;
#X obj 107 124 - 36;
#X floatatom 108 151 5 0 0 0 - - -;
#X floatatom 109 224 5 0 0 0 - - -;
#X obj 109 196 int;
#X obj 108 176 * 2.2;
#X obj 109 247 clip 0 127;
#X floatatom 112 280 5 0 0 0 - - -;
#X text 146 100 range multiplier;
#X obj 107 40 inlet;
#X obj 115 317 outlet;
#X connect 0 0 1 0;
#X connect 1 0 2 0;
#X connect 2 0 3 0;
#X connect 3 0 6 0;
#X connect 4 0 7 0;
#X connect 5 0 4 0;
#X connect 6 0 5 0;
#X connect 7 0 8 0;
#X connect 8 0 11 0;
#X connect 10 0 0 0;
#X restore 176 224 pd rangex;
#N canvas 1265 221 303 384 rangex 0;
#X obj 106 72 clip 36 96;
#X floatatom 107 102 5 0 0 0 - - -;
#X obj 107 124 - 36;
#X floatatom 108 151 5 0 0 0 - - -;
#X floatatom 109 224 5 0 0 0 - - -;
#X obj 109 196 int;
#X obj 108 176 * 2.2;
#X obj 109 247 clip 0 127;
#X floatatom 112 280 5 0 0 0 - - -;
#X text 146 100 range multiplier;
#X obj 107 40 inlet;
#X obj 115 317 outlet;
#X connect 0 0 1 0;
#X connect 1 0 2 0;
#X connect 2 0 3 0;
#X connect 3 0 6 0;
#X connect 4 0 7 0;
#X connect 5 0 4 0;
#X connect 6 0 5 0;
#X connect 7 0 8 0;
#X connect 8 0 11 0;
#X connect 10 0 0 0;
#X restore 249 225 pd rangex;
#X obj 152 107 spigot;
#N canvas 561 216 463 496 z 0;
#X text 116 139 chnl#16;
#X floatatom 224 123 5 0 0 0 - - -;
#X obj 175 172 t b b;
#X obj 175 200 f;
#X obj 175 223 + 1;
#X obj 123 103 tgl 15 0 empty empty empty 17 7 0 10 -262144 -1 -1 0
1;
#X floatatom 143 124 5 0 0 0 - - -;
#X msg 202 200 1;
#X obj 103 103 bng 15 250 50 0 empty empty empty 17 7 0 10 -262144
-1 -1;
#X obj 122 187 outlet;
#X obj 175 147 delay 500;
#X obj 124 51 inlet zflip in;
#X obj 183 101 s moseszflip;
#X floatatom 107 333 5 0 0 0 - - -;
#X obj 176 123 sel 127;
#X obj 125 76 moses 120;
#X connect 2 0 3 0;
#X connect 2 1 7 0;
#X connect 3 0 4 0;
#X connect 4 0 8 0;
#X connect 5 0 9 0;
#X connect 7 0 3 1;
#X connect 8 0 5 0;
#X connect 10 0 2 0;
#X connect 11 0 15 0;
#X connect 14 0 6 0;
#X connect 14 0 10 0;
#X connect 14 1 1 0;
#X connect 15 0 12 0;
#X connect 15 1 14 0;
#X coords 0 -1 1 1 40 20 2 100 100;
#X restore 181 416 pd z flip switch;
#X obj 178 245 s \$0-r;
#X obj 224 246 s \$0-g;
#X obj 268 246 s \$0-b;
#X floatatom 293 193 5 0 0 0 - - -;
#X obj 237 198 * 127;
#X floatatom 108 140 5 0 0 0 - - -;
#X obj 88 476 outlet x;
#X obj 160 482 outlet y;
#X obj 250 277 outlet z;
#X obj 218 76 inlet;
#X obj 328 477 outlet onoff;
#X obj 328 456 * 127;
#N canvas 0 0 320 427 calibrate 0;
#X floatatom 85 130 5 0 0 0 - - -;
#X obj 103 174 spigot;
#X floatatom 124 211 5 0 0 0 - - -;
#X obj 142 130 tgl 15 0 empty empty empty 17 7 0 10 -262144 -1 -1 0
1;
#X obj 96 257 -;
#X floatatom 97 291 5 0 0 0 - - -;
#X obj 81 76 inlet;
#X obj 157 75 inlet;
#X obj 99 343 outlet;
#X connect 0 0 1 0;
#X connect 0 0 4 0;
#X connect 1 0 2 0;
#X connect 2 0 4 1;
#X connect 3 0 1 1;
#X connect 4 0 5 0;
#X connect 5 0 8 0;
#X connect 6 0 0 0;
#X connect 7 0 3 0;
#X restore 615 297 pd calibrate;
#X obj 604 353 / 127;
#X obj 540 459 translateXYZ -2.5 1.5 0;
#X obj 529 426 gemhead 99;
#N canvas 0 0 320 427 calibrate 0;
#X floatatom 85 130 5 0 0 0 - - -;
#X obj 103 174 spigot;
#X floatatom 124 211 5 0 0 0 - - -;
#X obj 142 130 tgl 15 0 empty empty empty 17 7 0 10 -262144 -1 -1 0
1;
#X obj 96 257 -;
#X floatatom 97 291 5 0 0 0 - - -;
#X obj 81 76 inlet;
#X obj 157 75 inlet;
#X obj 99 343 outlet;
#X connect 0 0 1 0;
#X connect 0 0 4 0;
#X connect 1 0 2 0;
#X connect 2 0 4 1;
#X connect 3 0 1 1;
#X connect 4 0 5 0;
#X connect 5 0 8 0;
#X connect 6 0 0 0;
#X connect 7 0 3 0;
#X restore 838 357 pd calibrate;
#X obj 749 433 gemhead 99;
#X obj 827 414 / 127;
#X text 736 333 CROSSHAIRS;
#X obj 636 434 average 5;
#X obj 856 441 average 5;
#X obj 543 510 colorRGB;
#X obj 764 539 colorRGB;
#X obj 538 537 rectangle 0.02 0.5;
#X floatatom 683 388 5 0 0 0 - - -;
#X obj 658 354 - 0.85;
#N canvas 0 0 303 384 rangex 0;
#X obj 106 72 clip 36 96;
#X floatatom 107 102 5 0 0 0 - - -;
#X obj 107 124 - 36;
#X floatatom 108 151 5 0 0 0 - - -;
#X floatatom 109 224 5 0 0 0 - - -;
#X obj 109 196 int;
#X floatatom 112 280 5 0 0 0 - - -;
#X text 146 100 range multiplier;
#X obj 107 40 inlet;
#X obj 115 317 outlet;
#X obj 108 176 * 3;
#X obj 109 247 clip 0 170;
#X connect 0 0 1 0;
#X connect 1 0 2 0;
#X connect 2 0 3 0;
#X connect 3 0 10 0;
#X connect 4 0 11 0;
#X connect 5 0 4 0;
#X connect 6 0 9 0;
#X connect 8 0 0 0;
#X connect 10 0 5 0;
#X connect 11 0 6 0;
#X restore 601 326 pd rangex;
#X obj 881 415 - 0.85;
#N canvas 0 0 303 384 rangex 0;
#X obj 106 72 clip 36 96;
#X floatatom 107 102 5 0 0 0 - - -;
#X obj 107 124 - 36;
#X floatatom 108 151 5 0 0 0 - - -;
#X floatatom 109 224 5 0 0 0 - - -;
#X obj 109 196 int;
#X floatatom 112 280 5 0 0 0 - - -;
#X text 146 100 range multiplier;
#X obj 107 40 inlet;
#X obj 115 317 outlet;
#X obj 108 176 * 3;
#X obj 109 247 clip 0 170;
#X connect 0 0 1 0;
#X connect 1 0 2 0;
#X connect 2 0 3 0;
#X connect 3 0 10 0;
#X connect 4 0 11 0;
#X connect 5 0 4 0;
#X connect 6 0 9 0;
#X connect 8 0 0 0;
#X connect 10 0 5 0;
#X connect 11 0 6 0;
#X restore 913 377 pd rangex;
#X obj 763 570 rectangle 0.5 0.02;
#X obj 763 490 translateXYZ -0.33 0.13 0;
#X obj 441 80 loadbang;
#X obj 397 196 text3d;
#X msg 429 128 2.5;
#X msg 258 323 text \$1 \$2 \$3;
#X obj 256 303 pack f f f;
#X obj 677 159 rectangle 0.5 0.1;
#X obj 678 138 color;
#X msg 714 139 1 1 0;
#X obj 660 37 tgl 15 0 empty empty empty 17 7 0 10 -262144 -1 -1 0
1;
#X msg 709 59 1;
#X msg 679 59 0;
#X obj 154 55 spigot;
#X obj 219 23 r rjuforward;
#X obj 756 84 loadbang;
#X obj 151 22 r xlrmtr2;
#X obj 676 96 gemhead 99;
#X obj 391 28 gemhead 99;
#X obj 760 466 translateXYZ 3.73 0 0;
#X obj 543 484 translateXYZ 3.73 -1.7 0;
#X obj 255 482 s zonoff7;
#X obj 436 149 r xlrmtrtext7;
#X obj 661 17 r zonoff7;
#X obj 258 341 s xlrmtrtext7;
#X obj 678 116 translateXYZ 3.41 -0.9 0;
#X obj 393 51 translateXYZ 3.27 0.27 0;
#X obj 678 36 sel 1 0;
#X connect 1 0 8 0;
#X connect 2 0 9 0;
#X connect 3 0 0 0;
#X connect 3 0 19 0;
#X connect 3 0 25 0;
#X connect 3 1 20 0;
#X connect 3 1 29 0;
#X connect 4 0 3 0;
#X connect 5 0 4 0;
#X connect 6 0 1 0;
#X connect 6 0 13 0;
#X connect 6 1 2 0;
#X connect 6 1 14 0;
#X connect 6 2 16 0;
#X connect 6 2 17 0;
#X connect 6 2 15 0;
#X connect 7 0 12 0;
#X connect 8 0 5 0;
#X connect 8 0 49 0;
#X connect 9 0 5 1;
#X connect 9 0 49 1;
#X connect 10 0 7 0;
#X connect 10 0 21 0;
#X connect 11 0 18 0;
#X connect 11 0 6 0;
#X connect 12 0 49 2;
#X connect 12 0 24 0;
#X connect 12 0 64 0;
#X connect 17 0 10 0;
#X connect 22 0 11 1;
#X connect 24 0 23 0;
#X connect 25 0 26 0;
#X connect 26 0 38 0;
#X connect 26 0 39 0;
#X connect 27 0 63 0;
#X connect 28 0 27 0;
#X connect 29 0 31 0;
#X connect 30 0 62 0;
#X connect 31 0 41 0;
#X connect 33 0 27 1;
#X connect 34 0 62 2;
#X connect 35 0 37 0;
#X connect 36 0 43 0;
#X connect 39 0 33 0;
#X connect 41 0 34 0;
#X connect 44 0 36 0;
#X connect 45 0 47 0;
#X connect 47 0 46 1;
#X connect 48 0 67 0;
#X connect 49 0 48 0;
#X connect 51 0 50 0;
#X connect 52 0 51 1;
#X connect 53 0 70 0;
#X connect 54 0 60 0;
#X connect 55 0 60 0;
#X connect 56 0 11 0;
#X connect 57 0 56 1;
#X connect 58 0 52 0;
#X connect 59 0 56 0;
#X connect 60 0 68 0;
#X connect 61 0 69 0;
#X connect 62 0 44 0;
#X connect 63 0 35 0;
#X connect 65 0 46 0;
#X connect 66 0 53 0;
#X connect 68 0 51 0;
#X connect 69 0 46 0;
#X connect 70 0 54 0;
#X connect 70 1 55 0;
#X coords 0 -1 1 1 150 150 1 100 300;
#X restore 1026 454 pd gesturekeyright;
#N canvas 103 181 1024 730 gesturekeyright 0;
#X floatatom 136 416 5 0 0 0 - - -;
#X obj 137 198 * 127;
#X obj 183 197 * 127;
#X obj 128 327 grid grid2 85 1 127 85 1 127 1 1 1 1 5 1268 329;
#X msg 119 290 goto \$1 \$2;
#X obj 119 253 pack 1 1;
#X obj 152 166 unpack f f f;
#X obj 225 310 vsl 15 127 1 127 0 0 empty empty empty 0 -9 0 10 -262144
-1 -1 0 1;
#N canvas 0 0 303 384 rangex 0;
#X obj 106 72 clip 36 96;
#X floatatom 107 102 5 0 0 0 - - -;
#X obj 107 124 - 36;
#X floatatom 108 151 5 0 0 0 - - -;
#X floatatom 109 224 5 0 0 0 - - -;
#X obj 109 196 int;
#X obj 108 176 * 2.2;
#X obj 109 247 clip 0 127;
#X floatatom 112 280 5 0 0 0 - - -;
#X text 146 100 range multiplier;
#X obj 107 40 inlet;
#X obj 115 317 outlet;
#X connect 0 0 1 0;
#X connect 1 0 2 0;
#X connect 2 0 3 0;
#X connect 3 0 6 0;
#X connect 4 0 7 0;
#X connect 5 0 4 0;
#X connect 6 0 5 0;
#X connect 7 0 8 0;
#X connect 8 0 11 0;
#X connect 10 0 0 0;
#X restore 110 224 pd rangex;
#N canvas 0 0 303 384 rangex 0;
#X obj 106 72 clip 36 96;
#X floatatom 107 102 5 0 0 0 - - -;
#X obj 107 124 - 36;
#X floatatom 108 151 5 0 0 0 - - -;
#X floatatom 109 224 5 0 0 0 - - -;
#X obj 109 196 int;
#X obj 108 176 * 2.2;
#X obj 109 247 clip 0 127;
#X floatatom 112 280 5 0 0 0 - - -;
#X text 146 100 range multiplier;
#X obj 107 40 inlet;
#X obj 115 317 outlet;
#X connect 0 0 1 0;
#X connect 1 0 2 0;
#X connect 2 0 3 0;
#X connect 3 0 6 0;
#X connect 4 0 7 0;
#X connect 5 0 4 0;
#X connect 6 0 5 0;
#X connect 7 0 8 0;
#X connect 8 0 11 0;
#X connect 10 0 0 0;
#X restore 176 224 pd rangex;
#N canvas 1265 221 303 384 rangex 0;
#X obj 106 72 clip 36 96;
#X floatatom 107 102 5 0 0 0 - - -;
#X obj 107 124 - 36;
#X floatatom 108 151 5 0 0 0 - - -;
#X floatatom 109 224 5 0 0 0 - - -;
#X obj 109 196 int;
#X obj 108 176 * 2.2;
#X obj 109 247 clip 0 127;
#X floatatom 112 280 5 0 0 0 - - -;
#X text 146 100 range multiplier;
#X obj 107 40 inlet;
#X obj 115 317 outlet;
#X connect 0 0 1 0;
#X connect 1 0 2 0;
#X connect 2 0 3 0;
#X connect 3 0 6 0;
#X connect 4 0 7 0;
#X connect 5 0 4 0;
#X connect 6 0 5 0;
#X connect 7 0 8 0;
#X connect 8 0 11 0;
#X connect 10 0 0 0;
#X restore 249 225 pd rangex;
#X obj 152 107 spigot;
#N canvas 561 216 463 496 z 0;
#X text 116 139 chnl#16;
#X floatatom 224 123 5 0 0 0 - - -;
#X obj 175 172 t b b;
#X obj 175 200 f;
#X obj 175 223 + 1;
#X obj 123 103 tgl 15 0 empty empty empty 17 7 0 10 -262144 -1 -1 0
1;
#X floatatom 143 124 5 0 0 0 - - -;
#X msg 202 200 1;
#X obj 103 103 bng 15 250 50 0 empty empty empty 17 7 0 10 -262144
-1 -1;
#X obj 122 187 outlet;
#X obj 175 147 delay 500;
#X obj 124 51 inlet zflip in;
#X obj 183 101 s moseszflip;
#X floatatom 107 333 5 0 0 0 - - -;
#X obj 176 123 sel 127;
#X obj 125 76 moses 120;
#X connect 2 0 3 0;
#X connect 2 1 7 0;
#X connect 3 0 4 0;
#X connect 4 0 8 0;
#X connect 5 0 9 0;
#X connect 7 0 3 1;
#X connect 8 0 5 0;
#X connect 10 0 2 0;
#X connect 11 0 15 0;
#X connect 14 0 6 0;
#X connect 14 0 10 0;
#X connect 14 1 1 0;
#X connect 15 0 12 0;
#X connect 15 1 14 0;
#X coords 0 -1 1 1 40 20 2 100 100;
#X restore 181 416 pd z flip switch;
#X obj 178 245 s \$0-r;
#X obj 224 246 s \$0-g;
#X obj 268 246 s \$0-b;
#X floatatom 293 193 5 0 0 0 - - -;
#X obj 237 198 * 127;
#X floatatom 108 140 5 0 0 0 - - -;
#X obj 88 476 outlet x;
#X obj 160 482 outlet y;
#X obj 250 277 outlet z;
#X obj 218 76 inlet;
#X obj 328 477 outlet onoff;
#X obj 328 456 * 127;
#N canvas 0 0 320 427 calibrate 0;
#X floatatom 85 130 5 0 0 0 - - -;
#X obj 103 174 spigot;
#X floatatom 124 211 5 0 0 0 - - -;
#X obj 142 130 tgl 15 0 empty empty empty 17 7 0 10 -262144 -1 -1 0
1;
#X obj 96 257 -;
#X floatatom 97 291 5 0 0 0 - - -;
#X obj 81 76 inlet;
#X obj 157 75 inlet;
#X obj 99 343 outlet;
#X connect 0 0 1 0;
#X connect 0 0 4 0;
#X connect 1 0 2 0;
#X connect 2 0 4 1;
#X connect 3 0 1 1;
#X connect 4 0 5 0;
#X connect 5 0 8 0;
#X connect 6 0 0 0;
#X connect 7 0 3 0;
#X restore 615 297 pd calibrate;
#X obj 604 353 / 127;
#X obj 540 459 translateXYZ -2.5 1.5 0;
#X obj 529 426 gemhead 99;
#N canvas 0 0 320 427 calibrate 0;
#X floatatom 85 130 5 0 0 0 - - -;
#X obj 103 174 spigot;
#X floatatom 124 211 5 0 0 0 - - -;
#X obj 142 130 tgl 15 0 empty empty empty 17 7 0 10 -262144 -1 -1 0
1;
#X obj 96 257 -;
#X floatatom 97 291 5 0 0 0 - - -;
#X obj 81 76 inlet;
#X obj 157 75 inlet;
#X obj 99 343 outlet;
#X connect 0 0 1 0;
#X connect 0 0 4 0;
#X connect 1 0 2 0;
#X connect 2 0 4 1;
#X connect 3 0 1 1;
#X connect 4 0 5 0;
#X connect 5 0 8 0;
#X connect 6 0 0 0;
#X connect 7 0 3 0;
#X restore 838 357 pd calibrate;
#X obj 749 433 gemhead 99;
#X obj 827 414 / 127;
#X text 736 333 CROSSHAIRS;
#X obj 636 434 average 5;
#X obj 856 441 average 5;
#X obj 543 510 colorRGB;
#X obj 764 539 colorRGB;
#X obj 538 537 rectangle 0.02 0.5;
#X floatatom 683 388 5 0 0 0 - - -;
#X obj 658 354 - 0.85;
#N canvas 0 0 303 384 rangex 0;
#X obj 106 72 clip 36 96;
#X floatatom 107 102 5 0 0 0 - - -;
#X obj 107 124 - 36;
#X floatatom 108 151 5 0 0 0 - - -;
#X floatatom 109 224 5 0 0 0 - - -;
#X obj 109 196 int;
#X floatatom 112 280 5 0 0 0 - - -;
#X text 146 100 range multiplier;
#X obj 107 40 inlet;
#X obj 115 317 outlet;
#X obj 108 176 * 3;
#X obj 109 247 clip 0 170;
#X connect 0 0 1 0;
#X connect 1 0 2 0;
#X connect 2 0 3 0;
#X connect 3 0 10 0;
#X connect 4 0 11 0;
#X connect 5 0 4 0;
#X connect 6 0 9 0;
#X connect 8 0 0 0;
#X connect 10 0 5 0;
#X connect 11 0 6 0;
#X restore 601 326 pd rangex;
#X obj 881 415 - 0.85;
#N canvas 0 0 303 384 rangex 0;
#X obj 106 72 clip 36 96;
#X floatatom 107 102 5 0 0 0 - - -;
#X obj 107 124 - 36;
#X floatatom 108 151 5 0 0 0 - - -;
#X floatatom 109 224 5 0 0 0 - - -;
#X obj 109 196 int;
#X floatatom 112 280 5 0 0 0 - - -;
#X text 146 100 range multiplier;
#X obj 107 40 inlet;
#X obj 115 317 outlet;
#X obj 108 176 * 3;
#X obj 109 247 clip 0 170;
#X connect 0 0 1 0;
#X connect 1 0 2 0;
#X connect 2 0 3 0;
#X connect 3 0 10 0;
#X connect 4 0 11 0;
#X connect 5 0 4 0;
#X connect 6 0 9 0;
#X connect 8 0 0 0;
#X connect 10 0 5 0;
#X connect 11 0 6 0;
#X restore 913 377 pd rangex;
#X obj 763 570 rectangle 0.5 0.02;
#X obj 763 490 translateXYZ -0.33 0.13 0;
#X obj 441 80 loadbang;
#X obj 397 196 text3d;
#X msg 429 128 2.5;
#X msg 258 323 text \$1 \$2 \$3;
#X obj 256 303 pack f f f;
#X obj 677 159 rectangle 0.5 0.1;
#X obj 678 138 color;
#X msg 714 139 1 1 0;
#X obj 660 37 tgl 15 0 empty empty empty 17 7 0 10 -262144 -1 -1 0
1;
#X msg 709 59 1;
#X msg 679 59 0;
#X obj 154 55 spigot;
#X obj 219 23 r rjuforward;
#X obj 756 84 loadbang;
#X obj 151 22 r xlrmtr2;
#X obj 676 96 gemhead 99;
#X obj 391 28 gemhead 99;
#X obj 258 341 s xlrmtrtext8;
#X obj 255 482 s zonoff8;
#X obj 436 149 r xlrmtrtext8;
#X obj 661 17 r zonoff8;
#X obj 760 466 translateXYZ 4.83 0 0;
#X obj 543 484 translateXYZ 4.83 -1.7 0;
#X obj 393 51 translateXYZ 4.36 0.27 0;
#X obj 678 116 translateXYZ 4.51 -0.9 0;
#X obj 678 36 sel 1 0;
#X connect 1 0 8 0;
#X connect 2 0 9 0;
#X connect 3 0 0 0;
#X connect 3 0 19 0;
#X connect 3 0 25 0;
#X connect 3 1 20 0;
#X connect 3 1 29 0;
#X connect 4 0 3 0;
#X connect 5 0 4 0;
#X connect 6 0 1 0;
#X connect 6 0 13 0;
#X connect 6 1 2 0;
#X connect 6 1 14 0;
#X connect 6 2 16 0;
#X connect 6 2 17 0;
#X connect 6 2 15 0;
#X connect 7 0 12 0;
#X connect 8 0 5 0;
#X connect 8 0 49 0;
#X connect 9 0 5 1;
#X connect 9 0 49 1;
#X connect 10 0 7 0;
#X connect 10 0 21 0;
#X connect 11 0 18 0;
#X connect 11 0 6 0;
#X connect 12 0 49 2;
#X connect 12 0 24 0;
#X connect 12 0 63 0;
#X connect 17 0 10 0;
#X connect 22 0 11 1;
#X connect 24 0 23 0;
#X connect 25 0 26 0;
#X connect 26 0 38 0;
#X connect 26 0 39 0;
#X connect 27 0 67 0;
#X connect 28 0 27 0;
#X connect 29 0 31 0;
#X connect 30 0 66 0;
#X connect 31 0 41 0;
#X connect 33 0 27 1;
#X connect 34 0 66 2;
#X connect 35 0 37 0;
#X connect 36 0 43 0;
#X connect 39 0 33 0;
#X connect 41 0 34 0;
#X connect 44 0 36 0;
#X connect 45 0 47 0;
#X connect 47 0 46 1;
#X connect 48 0 62 0;
#X connect 49 0 48 0;
#X connect 51 0 50 0;
#X connect 52 0 51 1;
#X connect 53 0 70 0;
#X connect 54 0 60 0;
#X connect 55 0 60 0;
#X connect 56 0 11 0;
#X connect 57 0 56 1;
#X connect 58 0 52 0;
#X connect 59 0 56 0;
#X connect 60 0 69 0;
#X connect 61 0 68 0;
#X connect 64 0 46 0;
#X connect 65 0 53 0;
#X connect 66 0 44 0;
#X connect 67 0 35 0;
#X connect 68 0 46 0;
#X connect 69 0 51 0;
#X connect 70 0 54 0;
#X connect 70 1 55 0;
#X coords 0 -1 1 1 150 150 1 100 300;
#X restore 1185 452 pd gesturekeyright;
#N canvas 1230 227 450 300 cc 0;
#X obj 181 58 r pgm out;
#X obj 79 86 pack f f;
#X obj 144 181 ctlout;
#X obj 145 87 pack f f;
#X msg 207 110 \$1 44 \$2;
#X obj 208 88 pack f f;
#X obj 269 89 pack f f;
#X obj 72 19 inlet;
#X obj 133 18 inlet;
#X obj 201 19 inlet;
#X obj 271 21 inlet;
#X msg 78 108 \$1 60 \$2;
#X msg 144 109 \$1 61 \$2;
#X msg 268 111 \$1 32 \$2;
#X connect 0 0 1 1;
#X connect 0 0 3 1;
#X connect 0 0 5 1;
#X connect 0 0 6 1;
#X connect 1 0 11 0;
#X connect 3 0 12 0;
#X connect 5 0 4 0;
#X connect 6 0 13 0;
#X connect 7 0 1 0;
#X connect 8 0 3 0;
#X connect 9 0 5 0;
#X connect 10 0 6 0;
#X connect 11 0 2 0;
#X connect 12 0 2 0;
#X connect 13 0 2 0;
#X restore 56 642 pd cc out;
#N canvas 1230 227 450 300 cc 0;
#X obj 181 58 r pgm out;
#X obj 79 86 pack f f;
#X obj 144 181 ctlout;
#X obj 145 87 pack f f;
#X msg 207 110 \$1 44 \$2;
#X obj 208 88 pack f f;
#X obj 269 89 pack f f;
#X obj 72 19 inlet;
#X obj 133 18 inlet;
#X obj 201 19 inlet;
#X obj 271 21 inlet;
#X msg 78 108 \$1 58 \$2;
#X msg 144 109 \$1 59 \$2;
#X msg 268 111 \$1 37 \$2;
#X connect 0 0 1 1;
#X connect 0 0 3 1;
#X connect 0 0 5 1;
#X connect 0 0 6 1;
#X connect 1 0 11 0;
#X connect 3 0 12 0;
#X connect 5 0 4 0;
#X connect 6 0 13 0;
#X connect 7 0 1 0;
#X connect 8 0 3 0;
#X connect 9 0 5 0;
#X connect 10 0 6 0;
#X connect 11 0 2 0;
#X connect 12 0 2 0;
#X connect 13 0 2 0;
#X restore 223 648 pd cc out;
#N canvas 916 227 450 300 cc 0;
#X obj 181 58 r pgm out;
#X obj 79 86 pack f f;
#X obj 144 181 ctlout;
#X obj 145 87 pack f f;
#X msg 207 110 \$1 44 \$2;
#X obj 208 88 pack f f;
#X obj 269 89 pack f f;
#X obj 72 19 inlet;
#X obj 133 18 inlet;
#X obj 201 19 inlet;
#X obj 271 21 inlet;
#X msg 78 108 \$1 56 \$2;
#X msg 144 109 \$1 57 \$2;
#X msg 268 111 \$1 30 \$2;
#X connect 0 0 1 1;
#X connect 0 0 3 1;
#X connect 0 0 5 1;
#X connect 0 0 6 1;
#X connect 1 0 11 0;
#X connect 3 0 12 0;
#X connect 5 0 4 0;
#X connect 6 0 13 0;
#X connect 7 0 1 0;
#X connect 8 0 3 0;
#X connect 9 0 5 0;
#X connect 10 0 6 0;
#X connect 11 0 2 0;
#X connect 12 0 2 0;
#X connect 13 0 2 0;
#X restore 381 651 pd cc out;
#N canvas 1192 553 450 300 cc 0;
#X obj 181 58 r pgm out;
#X obj 79 86 pack f f;
#X obj 144 181 ctlout;
#X obj 145 87 pack f f;
#X msg 207 110 \$1 44 \$2;
#X obj 208 88 pack f f;
#X obj 269 89 pack f f;
#X obj 72 19 inlet;
#X obj 133 18 inlet;
#X obj 201 19 inlet;
#X obj 271 21 inlet;
#X msg 78 108 \$1 54 \$2;
#X msg 144 109 \$1 55 \$2;
#X msg 268 111 \$1 29 \$2;
#X connect 0 0 1 1;
#X connect 0 0 3 1;
#X connect 0 0 5 1;
#X connect 0 0 6 1;
#X connect 1 0 11 0;
#X connect 3 0 12 0;
#X connect 5 0 4 0;
#X connect 6 0 13 0;
#X connect 7 0 1 0;
#X connect 8 0 3 0;
#X connect 9 0 5 0;
#X connect 10 0 6 0;
#X connect 11 0 2 0;
#X connect 12 0 2 0;
#X connect 13 0 2 0;
#X restore 554 649 pd cc out;
#N canvas 836 254 450 300 cc 0;
#X obj 181 58 r pgm out;
#X obj 79 86 pack f f;
#X obj 144 181 ctlout;
#X obj 145 87 pack f f;
#X msg 207 110 \$1 44 \$2;
#X obj 208 88 pack f f;
#X obj 269 89 pack f f;
#X obj 72 19 inlet;
#X obj 133 18 inlet;
#X obj 201 19 inlet;
#X obj 271 21 inlet;
#X msg 78 108 \$1 62 \$2;
#X msg 144 109 \$1 63 \$2;
#X msg 268 111 \$1 33 \$2;
#X connect 0 0 1 1;
#X connect 0 0 3 1;
#X connect 0 0 5 1;
#X connect 0 0 6 1;
#X connect 1 0 11 0;
#X connect 3 0 12 0;
#X connect 5 0 4 0;
#X connect 6 0 13 0;
#X connect 7 0 1 0;
#X connect 8 0 3 0;
#X connect 9 0 5 0;
#X connect 10 0 6 0;
#X connect 11 0 2 0;
#X connect 12 0 2 0;
#X connect 13 0 2 0;
#X restore 751 650 pd cc out;
#N canvas 1230 227 450 300 cc 0;
#X obj 181 58 r pgm out;
#X obj 79 86 pack f f;
#X obj 144 181 ctlout;
#X obj 145 87 pack f f;
#X msg 207 110 \$1 44 \$2;
#X obj 208 88 pack f f;
#X obj 269 89 pack f f;
#X obj 72 19 inlet;
#X obj 133 18 inlet;
#X obj 201 19 inlet;
#X obj 271 21 inlet;
#X msg 78 108 \$1 64 \$2;
#X msg 144 109 \$1 65 \$2;
#X msg 268 111 \$1 34 \$2;
#X connect 0 0 1 1;
#X connect 0 0 3 1;
#X connect 0 0 5 1;
#X connect 0 0 6 1;
#X connect 1 0 11 0;
#X connect 3 0 12 0;
#X connect 5 0 4 0;
#X connect 6 0 13 0;
#X connect 7 0 1 0;
#X connect 8 0 3 0;
#X connect 9 0 5 0;
#X connect 10 0 6 0;
#X connect 11 0 2 0;
#X connect 12 0 2 0;
#X connect 13 0 2 0;
#X restore 914 647 pd cc out;
#N canvas 1230 227 450 300 cc 0;
#X obj 181 58 r pgm out;
#X obj 79 86 pack f f;
#X obj 144 181 ctlout;
#X obj 145 87 pack f f;
#X msg 207 110 \$1 44 \$2;
#X obj 208 88 pack f f;
#X obj 269 89 pack f f;
#X obj 72 19 inlet;
#X obj 133 18 inlet;
#X obj 201 19 inlet;
#X obj 271 21 inlet;
#X msg 78 108 \$1 66 \$2;
#X msg 144 109 \$1 67 \$2;
#X msg 268 111 \$1 35 \$2;
#X connect 0 0 1 1;
#X connect 0 0 3 1;
#X connect 0 0 5 1;
#X connect 0 0 6 1;
#X connect 1 0 11 0;
#X connect 3 0 12 0;
#X connect 5 0 4 0;
#X connect 6 0 13 0;
#X connect 7 0 1 0;
#X connect 8 0 3 0;
#X connect 9 0 5 0;
#X connect 10 0 6 0;
#X connect 11 0 2 0;
#X connect 12 0 2 0;
#X connect 13 0 2 0;
#X restore 1073 643 pd cc out;
#N canvas 1230 227 450 300 cc 0;
#X obj 181 58 r pgm out;
#X obj 79 86 pack f f;
#X obj 144 181 ctlout;
#X obj 145 87 pack f f;
#X msg 207 110 \$1 44 \$2;
#X obj 208 88 pack f f;
#X obj 269 89 pack f f;
#X obj 72 19 inlet;
#X obj 133 18 inlet;
#X obj 201 19 inlet;
#X obj 271 21 inlet;
#X msg 78 108 \$1 68 \$2;
#X msg 144 109 \$1 69 \$2;
#X msg 268 111 \$1 36 \$2;
#X connect 0 0 1 1;
#X connect 0 0 3 1;
#X connect 0 0 5 1;
#X connect 0 0 6 1;
#X connect 1 0 11 0;
#X connect 3 0 12 0;
#X connect 5 0 4 0;
#X connect 6 0 13 0;
#X connect 7 0 1 0;
#X connect 8 0 3 0;
#X connect 9 0 5 0;
#X connect 10 0 6 0;
#X connect 11 0 2 0;
#X connect 12 0 2 0;
#X connect 13 0 2 0;
#X restore 1246 642 pd cc out;
#X connect 0 0 59 0;
#X connect 0 0 64 0;
#X connect 1 0 58 0;
#X connect 1 0 63 0;
#X connect 2 0 57 0;
#X connect 2 0 62 0;
#X connect 3 0 56 0;
#X connect 3 0 61 0;
#X connect 4 0 52 0;
#X connect 4 0 65 0;
#X connect 5 0 53 0;
#X connect 5 0 69 0;
#X connect 6 0 54 0;
#X connect 6 0 70 0;
#X connect 7 0 55 0;
#X connect 7 0 71 0;
#X connect 14 0 48 0;
#X connect 15 0 50 0;
#X connect 16 0 49 0;
#X connect 17 0 51 0;
#X connect 18 0 45 0;
#X connect 19 0 46 0;
#X connect 20 0 47 0;
#X connect 21 0 44 0;
#X connect 31 0 30 0;
#X connect 35 0 16 0;
#X connect 36 0 15 0;
#X connect 37 0 17 0;
#X connect 38 0 14 0;
#X connect 39 0 18 0;
#X connect 40 0 19 0;
#X connect 41 0 20 0;
#X connect 42 0 21 0;
#X connect 44 0 7 0;
#X connect 45 0 4 0;
#X connect 46 0 5 0;
#X connect 47 0 6 0;
#X connect 48 0 0 0;
#X connect 49 0 3 0;
#X connect 50 0 2 0;
#X connect 51 0 1 0;
#X connect 61 0 72 0;
#X connect 61 1 72 1;
#X connect 61 2 72 2;
#X connect 61 3 72 3;
#X connect 62 0 73 0;
#X connect 62 1 73 1;
#X connect 62 2 73 2;
#X connect 62 3 73 3;
#X connect 63 0 74 0;
#X connect 63 1 74 1;
#X connect 63 2 74 2;
#X connect 63 3 74 3;
#X connect 64 0 75 0;
#X connect 64 1 75 1;
#X connect 64 2 75 2;
#X connect 64 3 75 3;
#X connect 65 0 76 0;
#X connect 65 1 76 1;
#X connect 65 2 76 2;
#X connect 65 3 76 3;
#X connect 69 0 77 0;
#X connect 69 1 77 1;
#X connect 69 2 77 2;
#X connect 69 3 77 3;
#X connect 70 0 78 0;
#X connect 70 1 78 1;
#X connect 70 2 78 2;
#X connect 70 3 78 3;
#X connect 71 0 79 0;
#X connect 71 1 79 1;
#X connect 71 2 79 2;
#X connect 71 3 79 3;
#X coords 0 -1 1 1 1300 220 1 50 400;
