#N canvas 427 228 589 456 10;
#X obj 388 14 gemhead 1;
#N canvas 524 383 450 300 fsr 0;
#X obj 114 79 gemhead 1;
#X obj 114 264 square 0.3;
#X obj 114 221 alpha;
#X obj 268 147 hsl 64 15 0.925 1 0 0 empty empty empty -2 -8 0 10 -262144
-1 -1 0 1;
#X obj 198 188 r r;
#X obj 221 188 r g;
#X obj 245 188 r b;
#X msg 153 196 1;
#X obj 122 155 tgl 15 0 empty empty empty 17 7 0 10 -262144 -1 -1 0
1;
#X obj 264 124 r frange1;
#X obj 265 167 - 0.9;
#X obj 269 189 * 10;
#X obj 122 173 sel 0 3;
#X obj 114 242 colorRGB;
#X msg 123 196 0;
#X floatatom 289 230 5 0 0 0 - - -;
#X obj 114 99 translateXYZ -2.6 -0.2 0;
#X obj 120 135 r \$0-key1;
#X connect 0 0 16 0;
#X connect 2 0 13 0;
#X connect 3 0 10 0;
#X connect 4 0 13 1;
#X connect 5 0 13 2;
#X connect 6 0 13 3;
#X connect 7 0 2 0;
#X connect 8 0 12 0;
#X connect 9 0 3 0;
#X connect 10 0 11 0;
#X connect 11 0 13 4;
#X connect 11 0 15 0;
#X connect 12 0 7 0;
#X connect 12 1 14 0;
#X connect 13 0 1 0;
#X connect 14 0 2 0;
#X connect 16 0 2 0;
#X connect 17 0 8 0;
#X restore 5 6 pd fsr 1;
#N canvas 74 19 450 300 fsr 0;
#X obj 114 79 gemhead 1;
#X obj 114 264 square 0.3;
#X obj 114 221 alpha;
#X obj 267 146 hsl 64 15 0.925 1 0 0 empty empty empty -2 -8 0 10 -262144
-1 -1 0 1;
#X obj 198 188 r r;
#X obj 221 188 r g;
#X obj 245 188 r b;
#X msg 153 196 1;
#X obj 122 155 tgl 15 0 empty empty empty 17 7 0 10 -262144 -1 -1 0
2;
#X obj 265 167 - 0.9;
#X obj 266 188 * 10;
#X msg 123 196 0;
#X obj 264 124 r frange2;
#X obj 122 173 sel 0 3;
#X floatatom 306 221 5 0 0 0 - - -;
#X obj 183 258 colorRGB;
#X obj 114 99 translateXYZ -3.4 -0.2 0;
#X obj 120 135 r \$0-key2;
#X connect 0 0 16 0;
#X connect 2 0 15 0;
#X connect 3 0 9 0;
#X connect 4 0 15 1;
#X connect 5 0 15 2;
#X connect 6 0 15 3;
#X connect 7 0 2 0;
#X connect 8 0 13 0;
#X connect 9 0 10 0;
#X connect 10 0 14 0;
#X connect 10 0 15 4;
#X connect 11 0 2 0;
#X connect 12 0 3 0;
#X connect 13 0 7 0;
#X connect 13 1 11 0;
#X connect 15 0 1 0;
#X connect 16 0 2 0;
#X connect 17 0 8 0;
#X restore 5 28 pd fsr 2;
#N canvas 524 32 450 300 fsr 0;
#X obj 114 79 gemhead 1;
#X obj 114 264 square 0.3;
#X obj 114 221 alpha;
#X obj 267 146 hsl 64 15 0.925 1 0 0 empty empty empty -2 -8 0 10 -262144
-1 -1 0 1;
#X obj 198 188 r r;
#X obj 221 188 r g;
#X obj 245 188 r b;
#X msg 153 196 1;
#X obj 122 155 tgl 15 0 empty empty empty 17 7 0 10 -262144 -1 -1 0
4;
#X obj 265 167 - 0.9;
#X obj 266 188 * 10;
#X msg 123 196 0;
#X obj 122 173 sel 0 3;
#X floatatom 306 221 5 0 0 0 - - -;
#X obj 183 258 colorRGB;
#X obj 264 124 r frange3;
#X obj 114 99 translateXYZ -4.2 -0.2 0;
#X obj 120 135 r \$0-key3;
#X connect 0 0 16 0;
#X connect 2 0 14 0;
#X connect 3 0 9 0;
#X connect 4 0 14 1;
#X connect 5 0 14 2;
#X connect 6 0 14 3;
#X connect 7 0 2 0;
#X connect 8 0 12 0;
#X connect 9 0 10 0;
#X connect 10 0 13 0;
#X connect 10 0 14 4;
#X connect 11 0 2 0;
#X connect 12 0 7 0;
#X connect 12 1 11 0;
#X connect 14 0 1 0;
#X connect 15 0 3 0;
#X connect 16 0 2 0;
#X connect 17 0 8 0;
#X restore 5 49 pd fsr 3;
#N canvas 58 366 450 300 fsr 0;
#X obj 114 79 gemhead 1;
#X obj 114 264 square 0.3;
#X obj 114 221 alpha;
#X obj 267 146 hsl 64 15 0.925 1 0 0 empty empty empty -2 -8 0 10 -262144
-1 -1 0 1;
#X obj 198 188 r r;
#X obj 221 188 r g;
#X obj 245 188 r b;
#X msg 153 196 1;
#X obj 122 155 tgl 15 0 empty empty empty 17 7 0 10 -262144 -1 -1 0
8;
#X obj 265 167 - 0.9;
#X obj 266 188 * 10;
#X msg 123 196 0;
#X obj 122 173 sel 0 3;
#X floatatom 306 221 5 0 0 0 - - -;
#X obj 183 258 colorRGB;
#X obj 264 124 r frange4;
#X obj 114 99 translateXYZ -5 -0.2 0;
#X obj 120 135 r \$0-key4;
#X connect 0 0 16 0;
#X connect 2 0 14 0;
#X connect 3 0 9 0;
#X connect 4 0 14 1;
#X connect 5 0 14 2;
#X connect 6 0 14 3;
#X connect 7 0 2 0;
#X connect 8 0 12 0;
#X connect 9 0 10 0;
#X connect 10 0 13 0;
#X connect 10 0 14 4;
#X connect 11 0 2 0;
#X connect 12 0 7 0;
#X connect 12 1 11 0;
#X connect 14 0 1 0;
#X connect 15 0 3 0;
#X connect 16 0 2 0;
#X connect 17 0 8 0;
#X restore 5 70 pd fsr 4;
#N canvas 97 354 450 300 fsr 0;
#X obj 114 79 gemhead 1;
#X obj 114 264 square 0.3;
#X obj 114 221 alpha;
#X obj 276 189 hsl 64 15 0.25 1 0 0 empty empty empty -2 -8 0 10 -262144
-1 -1 0 1;
#X obj 198 188 r r;
#X obj 221 188 r g;
#X obj 245 188 r b;
#X msg 153 196 1;
#X obj 122 155 tgl 15 0 empty empty empty 17 7 0 10 -262144 -1 -1 0
128;
#X msg 123 196 0;
#X obj 122 173 sel 0 3;
#X obj 114 242 colorRGB;
#X obj 114 99 translateXYZ 5 -0.2 0;
#X obj 272 166 r frange8;
#X obj 120 135 r \$0-key8;
#X connect 0 0 12 0;
#X connect 2 0 11 0;
#X connect 3 0 11 4;
#X connect 4 0 11 1;
#X connect 5 0 11 2;
#X connect 6 0 11 3;
#X connect 7 0 2 0;
#X connect 8 0 10 0;
#X connect 9 0 2 0;
#X connect 10 0 7 0;
#X connect 10 1 9 0;
#X connect 11 0 1 0;
#X connect 12 0 2 0;
#X connect 13 0 3 0;
#X connect 14 0 8 0;
#X restore 11 157 pd fsr 8;
#N canvas 97 354 450 300 fsr 0;
#X obj 114 79 gemhead 1;
#X obj 114 264 square 0.3;
#X obj 114 221 alpha;
#X obj 276 189 hsl 64 15 0.25 1 0 0 empty empty empty -2 -8 0 10 -262144
-1 -1 0 1;
#X obj 198 188 r r;
#X obj 221 188 r g;
#X obj 245 188 r b;
#X msg 153 196 1;
#X obj 122 155 tgl 15 0 empty empty empty 17 7 0 10 -262144 -1 -1 0
64;
#X msg 123 196 0;
#X obj 122 173 sel 0 3;
#X obj 114 242 colorRGB;
#X obj 114 99 translateXYZ 4.2 -0.2 0;
#X obj 272 166 r frange7;
#X obj 120 135 r \$0-key7;
#X connect 0 0 12 0;
#X connect 2 0 11 0;
#X connect 3 0 11 4;
#X connect 4 0 11 1;
#X connect 5 0 11 2;
#X connect 6 0 11 3;
#X connect 7 0 2 0;
#X connect 8 0 10 0;
#X connect 9 0 2 0;
#X connect 10 0 7 0;
#X connect 10 1 9 0;
#X connect 11 0 1 0;
#X connect 12 0 2 0;
#X connect 13 0 3 0;
#X connect 14 0 8 0;
#X restore 10 136 pd fsr 7;
#N canvas 97 354 450 300 fsr 0;
#X obj 114 79 gemhead 1;
#X obj 114 264 square 0.3;
#X obj 114 221 alpha;
#X obj 276 189 hsl 64 15 0.25 1 0 0 empty empty empty -2 -8 0 10 -262144
-1 -1 0 1;
#X obj 198 188 r r;
#X obj 221 188 r g;
#X obj 245 188 r b;
#X msg 153 196 1;
#X obj 122 155 tgl 15 0 empty empty empty 17 7 0 10 -262144 -1 -1 0
32;
#X msg 123 196 0;
#X obj 122 173 sel 0 3;
#X obj 114 242 colorRGB;
#X obj 114 99 translateXYZ 3.4 -0.2 0;
#X obj 272 166 r frange6;
#X obj 120 135 r \$0-key6;
#X connect 0 0 12 0;
#X connect 2 0 11 0;
#X connect 3 0 11 4;
#X connect 4 0 11 1;
#X connect 5 0 11 2;
#X connect 6 0 11 3;
#X connect 7 0 2 0;
#X connect 8 0 10 0;
#X connect 9 0 2 0;
#X connect 10 0 7 0;
#X connect 10 1 9 0;
#X connect 11 0 1 0;
#X connect 12 0 2 0;
#X connect 13 0 3 0;
#X connect 14 0 8 0;
#X restore 8 114 pd fsr 6;
#N canvas 97 354 450 300 fsr 0;
#X obj 114 79 gemhead 1;
#X obj 114 264 square 0.3;
#X obj 114 221 alpha;
#X obj 276 189 hsl 64 15 0.25 1 0 0 empty empty empty -2 -8 0 10 -262144
-1 -1 0 1;
#X obj 198 188 r r;
#X obj 221 188 r g;
#X obj 245 188 r b;
#X msg 153 196 1;
#X obj 122 155 tgl 15 0 empty empty empty 17 7 0 10 -262144 -1 -1 0
16;
#X msg 123 196 0;
#X obj 122 173 sel 0 3;
#X obj 114 242 colorRGB;
#X obj 272 166 r frange5;
#X obj 115 99 translateXYZ 2.6 -0.2 0;
#X obj 120 135 r \$0-key5;
#X connect 0 0 13 0;
#X connect 2 0 11 0;
#X connect 3 0 11 4;
#X connect 4 0 11 1;
#X connect 5 0 11 2;
#X connect 6 0 11 3;
#X connect 7 0 2 0;
#X connect 8 0 10 0;
#X connect 9 0 2 0;
#X connect 10 0 7 0;
#X connect 10 1 9 0;
#X connect 11 0 1 0;
#X connect 12 0 3 0;
#X connect 13 0 2 0;
#X connect 14 0 8 0;
#X restore 6 92 pd fsr 5;
#N canvas 227 158 675 512 breath 0;
#X obj 51 20 cnv 15 170 250 empty empty empty 20 12 0 14 -228992 -66577
0;
#X obj 114 123 cnv 15 100 60 empty empty empty 20 12 0 14 -24198 -66577
0;
#X msg 57 28 draw line;
#X msg 57 59 draw fill;
#X msg 57 91 draw point;
#X obj 125 27 gemhead;
#X floatatom 143 125 5 0 0 0 - - -;
#X text 181 126 size;
#X floatatom 179 157 5 0 0 0 - - -;
#X text 155 143 segments;
#X obj 125 162 cone 0.6;
#X floatatom 269 52 5 0 0 0 - - -;
#X obj 29 6 loadbang;
#X obj 243 9 r breath;
#X obj 269 30 / 127;
#X obj 290 110 gemhead;
#X obj 290 132 part_head;
#X obj 287 313 part_draw;
#X msg 394 120 0 0.2 0 0.3;
#X msg 481 119 0.2 0 0 0.3;
#X floatatom 397 290 5 0 0 0 - - -;
#X floatatom 409 261 5 0 0 0 - - -;
#X obj 290 185 part_source 30;
#X obj 291 237 translateXYZ 0 2 0;
#X obj 291 213 part_killold 0;
#X floatatom 479 39 5 0 0 0 - - -;
#X floatatom 515 39 5 0 0 0 - - -;
#X floatatom 551 39 5 0 0 0 - - -;
#X floatatom 442 38 5 0 0 0 - - -;
#X obj 454 72 pack f f f f;
#X obj 346 16 hsl 30 15 0 1 0 0 empty empty empty -2 -8 0 10 -262144
-1 -1 0 1;
#X obj 448 4 hsl 30 15 0 1 0 0 empty empty empty -2 -8 0 10 -262144
-1 -1 0 1;
#X obj 522 8 hsl 30 15 0 1 0 0 empty empty empty -2 -8 0 10 -262144
-1 -1 0 1;
#X obj 597 8 hsl 30 15 0 1 0 0 empty empty empty -2 -8 0 10 -262144
-1 -1 0 1;
#X floatatom 349 83 5 0 0 0 - - -;
#X obj 395 52 hsl 30 15 0 1 0 0 empty empty empty -2 -8 0 10 -262144
-1 -1 0 1;
#X obj 290 282 rotate 170 0 0 1;
#X obj 458 217 / 10;
#X obj 314 159 part_velocity sphere 0 0 0.13 0.17;
#X obj 125 50 translateXYZ 0 3 0;
#X obj 125 74 rotateXYZ -90 0 0;
#X connect 2 0 10 0;
#X connect 3 0 10 0;
#X connect 4 0 10 0;
#X connect 5 0 39 0;
#X connect 6 0 10 1;
#X connect 8 0 10 2;
#X connect 12 0 2 0;
#X connect 13 0 14 0;
#X connect 13 0 10 2;
#X connect 13 0 37 0;
#X connect 14 0 11 0;
#X connect 15 0 16 0;
#X connect 16 0 38 0;
#X connect 22 0 24 0;
#X connect 23 0 36 0;
#X connect 24 0 23 0;
#X connect 25 0 29 1;
#X connect 26 0 29 2;
#X connect 27 0 29 3;
#X connect 28 0 29 0;
#X connect 30 0 28 0;
#X connect 31 0 25 0;
#X connect 32 0 26 0;
#X connect 33 0 27 0;
#X connect 35 0 34 0;
#X connect 36 0 17 0;
#X connect 37 0 24 1;
#X connect 38 0 22 0;
#X connect 39 0 40 0;
#X connect 40 0 10 0;
#X restore 11 182 pd breath;
#N canvas 251 313 543 300 octaves 0;
#X obj 152 217 rectangle 1.06 1.6;
#X obj 235 111 loadbang;
#X obj 148 133 translateXYZ 0 -2.35 0;
#X msg 211 88 0;
#X msg 139 85 -4.2;
#X msg 271 89 4.2;
#X msg 241 89 2.1;
#X obj 122 18 r jlb1;
#X obj 164 18 r jlb2;
#X obj 206 18 r jlb3;
#X obj 248 18 r jlb4;
#X obj 270 64 sel 1 0;
#X obj 122 62 sel 1 0;
#X obj 220 64 sel 1 0;
#X obj 171 64 sel 1 0;
#X msg 174 86 -2.1;
#X obj 148 197 alpha;
#X obj 175 153 r r;
#X obj 198 154 r g;
#X obj 224 155 r b;
#X obj 148 174 colorRGB;
#X msg 252 156 0.3;
#X msg 209 194 draw fill;
#X msg 98 165 1;
#X obj 148 109 gemhead 2;
#X connect 1 0 22 0;
#X connect 1 0 21 0;
#X connect 2 0 20 0;
#X connect 3 0 2 1;
#X connect 4 0 2 1;
#X connect 5 0 2 1;
#X connect 6 0 2 1;
#X connect 7 0 14 0;
#X connect 8 0 11 0;
#X connect 9 0 12 0;
#X connect 10 0 13 0;
#X connect 11 0 5 0;
#X connect 11 1 3 0;
#X connect 12 0 4 0;
#X connect 12 1 3 0;
#X connect 13 0 6 0;
#X connect 13 1 3 0;
#X connect 14 0 15 0;
#X connect 14 1 3 0;
#X connect 15 0 2 1;
#X connect 16 0 0 0;
#X connect 17 0 20 1;
#X connect 18 0 20 2;
#X connect 19 0 20 3;
#X connect 20 0 16 0;
#X connect 21 0 20 4;
#X connect 22 0 0 0;
#X connect 23 0 16 0;
#X connect 24 0 2 0;
#X restore 330 56 pd octaves;
#N canvas 0 0 450 300 programs 0;
#X restore 323 76 pd programs;
#N canvas 0 0 450 300 textupdater 0;
#X restore 306 101 pd textupdater;
#N canvas 0 0 1001 419 jlb 0;
#X obj 114 147 r jlb1;
#X obj 266 147 r jlb2;
#X obj 101 107 gemhead 1;
#X obj 114 169 tgl 15 0 empty empty empty 17 7 0 10 -262144 -1 -1 0
1;
#X obj 101 234 color;
#X msg 171 210 1 0 0;
#X obj 114 187 sel 0 1;
#X msg 113 209 0.4 0 0;
#X obj 256 106 gemhead 1;
#X obj 269 168 tgl 15 0 empty empty empty 17 7 0 10 -262144 -1 -1 0
1;
#X obj 256 233 color;
#X msg 326 209 1 0 0;
#X obj 269 186 sel 0 1;
#X msg 268 208 0.4 0 0;
#X obj 409 104 gemhead 1;
#X obj 422 166 tgl 15 0 empty empty empty 17 7 0 10 -262144 -1 -1 0
1;
#X obj 409 231 color;
#X msg 479 207 1 0 0;
#X obj 422 184 sel 0 1;
#X msg 421 206 0.4 0 0;
#X obj 422 144 r jlb3;
#X obj 566 105 gemhead 1;
#X obj 579 167 tgl 15 0 empty empty empty 17 7 0 10 -262144 -1 -1 0
1;
#X obj 566 232 color;
#X msg 636 208 1 0 0;
#X obj 579 185 sel 0 1;
#X msg 578 207 0.4 0 0;
#X obj 579 145 r jlb4;
#X obj 101 128 translateXYZ -5.07 0.8 0;
#X obj 100 261 square 0.12;
#X obj 255 260 square 0.12;
#X obj 408 258 square 0.12;
#X obj 565 256 square 0.12;
#X obj 409 125 translateXYZ -4.8 0.48 0;
#X obj 566 126 translateXYZ -4.53 0.8 0;
#X obj 256 127 translateXYZ -4.8 1.09 0;
#X obj 767 96 gemhead;
#X obj 811 149 loadbang;
#X obj 767 265 text3d;
#X msg 776 238 font /home/onyx/beatjazzdir/vera.ttf;
#X obj 806 218 r jlbtext;
#X obj 348 330 s jlbtext;
#X obj 494 338 s jlbtext;
#X obj 644 335 s jlbtext;
#X obj 215 333 s jlbtext;
#X msg 178 268 text C3;
#X msg 333 263 text C3;
#X msg 494 260 text C3;
#X msg 639 292 text C3;
#X msg 172 290 text C2;
#X msg 469 295 text C1;
#X msg 648 314 text C4;
#X msg 334 291 text C5;
#X floatatom 164 178 5 0 0 0 - - -;
#X msg 807 196 3;
#X obj 766 121 translateXYZ -4.8 0.85 0;
#X connect 0 0 3 0;
#X connect 1 0 9 0;
#X connect 2 0 28 0;
#X connect 3 0 6 0;
#X connect 3 0 53 0;
#X connect 4 0 29 0;
#X connect 5 0 4 1;
#X connect 6 0 7 0;
#X connect 6 0 45 0;
#X connect 6 1 5 0;
#X connect 7 0 4 1;
#X connect 8 0 35 0;
#X connect 9 0 12 0;
#X connect 10 0 30 0;
#X connect 11 0 10 1;
#X connect 12 0 13 0;
#X connect 12 0 46 0;
#X connect 12 1 11 0;
#X connect 12 1 52 0;
#X connect 13 0 10 1;
#X connect 14 0 33 0;
#X connect 15 0 18 0;
#X connect 16 0 31 0;
#X connect 17 0 16 1;
#X connect 18 0 19 0;
#X connect 18 0 47 0;
#X connect 18 1 17 0;
#X connect 18 1 50 0;
#X connect 19 0 16 1;
#X connect 20 0 15 0;
#X connect 21 0 34 0;
#X connect 22 0 25 0;
#X connect 23 0 32 0;
#X connect 24 0 23 1;
#X connect 25 0 26 0;
#X connect 25 0 48 0;
#X connect 25 1 24 0;
#X connect 25 1 51 0;
#X connect 26 0 23 1;
#X connect 27 0 22 0;
#X connect 28 0 4 0;
#X connect 33 0 16 0;
#X connect 34 0 23 0;
#X connect 35 0 10 0;
#X connect 36 0 55 0;
#X connect 37 0 39 0;
#X connect 37 0 54 0;
#X connect 39 0 38 0;
#X connect 40 0 38 0;
#X connect 45 0 44 0;
#X connect 46 0 41 0;
#X connect 47 0 42 0;
#X connect 48 0 43 0;
#X connect 49 0 44 0;
#X connect 50 0 42 0;
#X connect 51 0 43 0;
#X connect 52 0 41 0;
#X connect 53 0 49 0;
#X connect 54 0 38 1;
#X connect 55 0 38 0;
#X restore 13 243 pd jlb;
#N canvas 0 0 1009 701 jlu 0;
#X obj 115 110 gemhead 1;
#X obj 115 237 color;
#X msg 185 213 1 0 0;
#X msg 127 212 0.4 0 0;
#X obj 256 106 gemhead 1;
#X obj 269 168 tgl 15 0 empty empty empty 17 7 0 10 -262144 -1 -1 0
1;
#X obj 256 233 color;
#X obj 269 186 sel 0 1;
#X obj 409 104 gemhead 1;
#X obj 409 231 color;
#X obj 566 105 gemhead 1;
#X obj 579 167 tgl 15 0 empty empty empty 17 7 0 10 -262144 -1 -1 0
1;
#X obj 566 232 color;
#X obj 579 185 sel 0 1;
#X obj 128 150 r jlu1;
#X obj 266 147 r jlu2;
#X obj 422 144 r jlu3;
#X obj 579 145 r jlu4;
#X obj 565 259 square 0.3;
#X obj 566 126 translateXYZ -4.3 2.6 0;
#X obj 114 264 square 0.12;
#X obj 255 260 square 0.12;
#X obj 115 131 translateXYZ -5.07 2.6 0;
#X obj 408 258 square 0.12;
#X obj 409 125 translateXYZ -4.8 2.4 0;
#X obj 256 127 translateXYZ -4.8 2.78 0;
#X obj 767 96 gemhead;
#X obj 811 149 loadbang;
#X msg 762 48 1;
#X obj 767 265 text3d;
#X msg 799 197 2.5;
#X obj 766 121 translateXYZ -4.5 3.05 0;
#X obj 806 218 r jlutext;
#X obj 694 332 s jlutext;
#X msg 651 289 text looper CTRL;
#X msg 657 267 text ---;
#X msg 776 238 font /home/onyx/beatjazzdir/vera.ttf;
#X obj 527 332 s jlutext;
#X msg 475 284 text ---;
#X obj 342 327 s jlutext;
#X msg 331 302 text ---;
#X obj 214 328 s jlutext;
#X msg 174 285 text ---;
#X msg 497 306 text sustain;
#X msg 299 284 text VOLUME;
#X msg 193 306 text STOP;
#X floatatom 488 177 5 0 0 0 - - -;
#X obj 439 183 sel 0 1;
#X obj 429 165 tgl 15 0 empty empty empty 17 7 0 10 -262144 -1 -1 0
1;
#X obj 143 168 tgl 15 0 empty empty empty 17 7 0 10 -262144 -1 -1 0
1;
#X obj 128 190 sel 0 1;
#X msg 636 208 0 1 0;
#X msg 421 206 0.4 0.3 0;
#X msg 578 207 0 0.3 0;
#X msg 479 207 1 1 0;
#X msg 326 209 1 1 0;
#X msg 268 208 0.4 0.3 0;
#X connect 0 0 22 0;
#X connect 1 0 20 0;
#X connect 2 0 1 1;
#X connect 3 0 1 1;
#X connect 4 0 25 0;
#X connect 5 0 7 0;
#X connect 6 0 21 0;
#X connect 7 0 56 0;
#X connect 7 0 40 0;
#X connect 7 1 55 0;
#X connect 7 1 44 0;
#X connect 8 0 24 0;
#X connect 9 0 23 0;
#X connect 10 0 19 0;
#X connect 11 0 13 0;
#X connect 12 0 18 0;
#X connect 13 0 53 0;
#X connect 13 0 35 0;
#X connect 13 1 51 0;
#X connect 13 1 34 0;
#X connect 14 0 49 0;
#X connect 15 0 5 0;
#X connect 16 0 48 0;
#X connect 17 0 11 0;
#X connect 19 0 12 0;
#X connect 22 0 1 0;
#X connect 24 0 9 0;
#X connect 25 0 6 0;
#X connect 26 0 31 0;
#X connect 27 0 36 0;
#X connect 27 0 30 0;
#X connect 28 0 26 0;
#X connect 30 0 29 1;
#X connect 31 0 29 0;
#X connect 32 0 29 0;
#X connect 34 0 33 0;
#X connect 36 0 29 0;
#X connect 38 0 37 0;
#X connect 40 0 39 0;
#X connect 42 0 41 0;
#X connect 43 0 37 0;
#X connect 44 0 39 0;
#X connect 45 0 41 0;
#X connect 47 0 52 0;
#X connect 47 0 38 0;
#X connect 47 1 54 0;
#X connect 47 1 43 0;
#X connect 48 0 47 0;
#X connect 49 0 50 0;
#X connect 50 0 3 0;
#X connect 50 0 42 0;
#X connect 50 1 2 0;
#X connect 50 1 45 0;
#X connect 51 0 12 1;
#X connect 52 0 9 1;
#X connect 53 0 12 1;
#X connect 54 0 9 1;
#X connect 55 0 6 1;
#X connect 56 0 6 1;
#X restore 13 223 pd jlu;
#X coords 0 0 1 1 120 30 0;
