#N canvas 1024 0 1024 716 10;
#X obj 532 105 tgl 30 0 empty empty empty 17 7 0 10 -258113 -1 -1 0
1;
#X obj 498 105 tgl 30 0 empty empty empty 17 7 0 10 -258113 -1 -1 0
1;
#X obj 464 105 tgl 30 0 empty empty empty 17 7 0 10 -258113 -1 -1 0
1;
#X obj 431 127 tgl 30 0 empty empty empty 17 7 0 10 -258113 -1 -1 0
1;
#X obj 621 104 tgl 30 0 empty empty empty 17 7 0 10 -99865 -1 -1 0
1;
#X obj 654 104 tgl 30 0 empty empty empty 17 7 0 10 -128992 -1 -1 0
1;
#X obj 686 104 tgl 30 0 empty empty empty 17 7 0 10 -128992 -1 -1 0
1;
#X obj 719 126 tgl 30 0 empty empty empty 17 7 0 10 -258113 -1 -1 0
1;
#X text 430 110 Left;
#X text 718 108 Right;
#X obj 573 126 tgl 15 0 empty empty empty 17 7 0 10 -262144 -1 -1 0
1;
#X obj 589 116 tgl 15 0 empty empty empty 17 7 0 10 -262144 -1 -1 0
1;
#X obj 574 103 tgl 15 0 empty empty empty 17 7 0 10 -262144 -1 -1 0
1;
#X obj 560 142 tgl 15 0 empty empty empty 17 7 0 10 -262144 -1 -1 0
1;
#X obj 524 37 > 0.03;
#X obj 436 37 > 0.03;
#X obj 391 40 > 0.03;
#X obj 481 37 > 0.05;
#X obj 609 36 > 0.1;
#X obj 645 36 > 0.1;
#X obj 681 36 > 0.1;
#X obj 717 36 > 0.07;
#X text 539 113 1;
#X text 504 112 2;
#X text 470 113 3;
#X text 437 133 4;
#X text 589 114 C3;
#X text 573 102 C4;
#X text 572 124 C2;
#X text 560 140 C1;
#X obj 383 165 s flash;
#X obj 411 142 bng 15 250 50 0 empty empty empty 17 7 0 10 -262144
-1 -1;
#X obj 708 248 s preset;
#X floatatom 760 134 5 0 0 0 - - -;
#X msg 611 167 1;
#X msg 642 169 2;
#X text 661 112 2;
#X text 695 110 3;
#X msg 671 169 3;
#X obj -177 314 vsl 30 128 1 0.9 0 0 empty empty empty 0 -9 0 10 -258113
-1 -1 0 1;
#X obj -183 161 vsl 30 128 1 0.9 0 0 empty empty empty 0 -9 0 10 -258113
-1 -1 0 1;
#X obj -180 7 vsl 30 128 1 0.9 0 0 empty empty empty 0 -9 0 10 -258113
-1 -1 0 1;
#X obj -186 -20 r frange1;
#X obj -183 139 r frange2;
#X obj -181 293 r frange3;
#X obj -178 446 r frange4;
#X obj -134 -19 gesturegrid;
#X msg 522 165 1;
#X msg 494 166 2;
#X msg 461 166 3;
#X msg 431 166 4;
#X obj 393 246 == 1;
#X obj 425 246 == 2;
#X obj 456 246 == 3;
#X obj 486 246 == 4;
#X obj 462 216 int;
#X obj 710 227 int;
#X text 629 111 1;
#X obj 499 551 vsl 30 128 1 0 0 0 empty empty empty 0 -9 0 10 -258113
-1 -1 0 1;
#X obj 472 530 r frange8;
#X msg 716 170 5;
#X obj 517 247 == 5;
#X text 727 134 8;
#X text 386 -15 create a subpatch with seperate graphics that replace
the primary graphics when switched to this mode;
#N canvas 0 0 1024 716 synthcore1 0;
#X obj 621 -2 cnv 15 350 350 empty empty empty 20 12 0 14 -260097 -66577
0;
#X obj 633 278 r yparam1;
#X obj 636 214 r yparam2;
#X obj 637 156 r yparam3;
#X obj 634 96 r yparam4;
#X obj 635 36 r yparam5;
#X obj 633 318 s yp1;
#X obj 637 256 s yp2;
#X obj 638 195 s yp3;
#X obj 637 137 s yp4;
#X obj 636 77 s yp5;
#X obj 771 281 r yparam6;
#X obj 771 321 s yp6;
#X obj 773 261 s yp7;
#X obj 772 219 r yparam7;
#X obj 772 160 r yparam8;
#X obj 773 199 s yp8;
#X obj 771 141 s yp9;
#X obj 768 100 r yparam9;
#X obj 769 40 r yparam10;
#X obj 770 81 s yp10;
#X obj 880 276 r yparam11;
#X obj 880 316 s yp11;
#X obj 879 215 r yparam12;
#X obj 880 257 s yp12;
#X obj 880 197 s yp13;
#X obj 879 158 r yparam13;
#X obj 877 98 r yparam14;
#X obj 880 139 s yp14;
#X obj 879 79 s yp15;
#X obj 878 38 r yparam15;
#X text 662 6 Y-AXIS-KEY1;
#X obj 271 -2 cnv 15 350 100 empty empty empty 20 12 0 14 -261234 -66577
0;
#X obj 280 26 r extfunction1;
#X obj 421 26 r extfunction2;
#X obj 280 67 s function1rec;
#X obj 421 66 s function2rec;
#X obj 534 64 s function3rec;
#X obj 532 24 r extfunction3;
#X obj 564 350 cnv 15 350 100 empty empty empty 20 12 0 14 -261234
-66577 0;
#X obj 593 369 r extfunction4;
#X obj 593 410 s function4rec;
#X obj 689 409 s function5rec;
#X obj 795 411 s function6rec;
#X obj 793 371 r extfunction6;
#X obj 689 369 r extfunction5;
#X obj 270 102 cnv 15 350 80 empty empty empty 20 12 0 14 -4034 -66577
0;
#X obj 283 157 s xp1;
#X obj 403 119 r xparam4;
#X obj 283 117 r xparam1;
#X obj 403 159 s xp4;
#X obj 371 453 cnv 15 600 80 empty empty empty 20 12 0 14 -4034 -66577
0;
#X obj 390 466 r xparam10;
#X obj 390 506 s xp10;
#X obj 478 507 s xp11;
#X obj 477 465 r xparam11;
#X obj 562 466 r xparam12;
#X obj 563 505 s xp12;
#X obj 691 464 r xparam13;
#X obj 777 464 r xparam14;
#X obj 691 504 s xp13;
#X obj 778 506 s xp14;
#X obj 863 504 s xp15;
#X obj 862 465 r xparam15;
#X obj -32 -1 cnv 15 300 100 empty empty empty 20 12 0 14 -258113 -66577
0;
#X obj -19 14 r breath;
#X obj 38 14 r lip;
#X obj 160 15 value;
#X obj 203 17 r pgmout;
#X obj 217 101 cnv 15 50 80 empty empty empty 20 12 0 14 -4032 -66577
0;
#X obj 671 533 cnv 15 300 80 empty empty empty 20 12 0 14 -4034 -66577
0;
#X obj 691 537 r xparam16;
#X obj 691 577 s xp16;
#X obj 797 538 r xparam17;
#X obj 798 580 s xp17;
#X obj 883 578 s xp18;
#X obj 882 539 r xparam18;
#X msg 636 118 text VOCAL;
#X msg 770 122 text VOCAL;
#X msg 879 120 text VOCAL;
#X msg 280 46 text Osc1;
#X msg 421 46 text Osc2;
#X msg 534 43 text Osc3;
#X msg 283 138 text OSC 1 Vol;
#X msg 403 140 text OSC 2 Vol;
#X obj 527 122 r xparam7;
#X obj 527 162 s xp7;
#X msg 527 143 text Osc 3 Vol;
#X text 282 2 Function key 1-2-3 for key 1;
#X text 575 352 Function key 1-2-3 for key 2;
#X text 301 102 x-axis function keys 1-2-3;
#X msg 593 389 text Osc pitch 1;
#X msg 689 389 text Osc pitch 2;
#X msg 795 390 text Osc pitch 3;
#X msg 390 487 text 1 OCT DWN;
#X text 409 450 X-AXIS FUNCTIONS FOR KEY 1-2-3;
#X msg 477 486 text CENTER;
#X msg 562 486 text 1 OCT UP;
#X msg 691 485 text 1 OCT DWN;
#X msg 777 485 text CENTER;
#X msg 862 485 text 1 OCT UP;
#X msg 691 558 text 1 OCT DDWN;
#X msg 797 559 text CENTER;
#X msg 882 559 text 1 OCT UP;
#X msg 633 299 text SINE;
#X msg 771 302 text SINE;
#X msg 880 297 text SINE;
#X msg 879 236 text SAW;
#X msg 772 240 text SAW;
#X msg 636 235 text SAW;
#X msg 637 176 text SQUARE;
#X msg 772 180 text SQUARE;
#X msg 879 178 text SQUARE;
#X msg 878 59 text XLRMTR;
#X msg 769 61 text XLRMTR;
#X msg 635 57 text XLRMTR;
#X obj 365 192 cnv 15 250 150 empty empty empty 20 12 0 14 -257985
-66577 0;
#X obj 918 356 cnv 15 50 80 empty empty empty 20 12 0 14 -4032 -66577
0;
#X obj 419 535 cnv 15 250 150 empty empty empty 20 12 0 14 -159808
-66577 0;
#X obj 438 563 r 1pup;
#X obj 494 562 r 1pcent;
#X obj 553 560 r 1pdwn;
#X text 442 538 x-axis pitch transpose switches;
#X text 918 356 osc pitch;
#X obj 437 585 r 2pup;
#X obj 493 584 r 2pcent;
#X obj 552 582 r 2pdwn;
#X obj 437 611 r 3pup;
#X obj 493 610 r 3pcent;
#X obj 548 612 r 3pdwn;
#X obj 79 42 unpack f f f;
#X floatatom 79 62 5 0 0 0 - - -;
#X floatatom 112 62 5 0 0 0 - - -;
#X floatatom 145 63 5 0 0 0 - - -;
#X obj -22 46 r rawbreath;
#X text -4 -3 Incoming controller data;
#X obj -38 187 cnv 15 100 100 empty empty empty 20 12 0 14 -260097
-66577 0;
#X obj -31 247 s yp36;
#X obj -31 207 r yparam36;
#X obj -44 350 cnv 15 350 100 empty empty empty 20 12 0 14 -261234
-66577 0;
#X obj -41 371 r extfunction7;
#X obj 100 371 r extfunction8;
#X obj 211 369 r extfunction9;
#X obj 213 409 s function9rec;
#X obj 100 411 s function8rec;
#X obj -41 412 s function7rec;
#X obj 343 357 cnv 15 200 80 empty empty empty 20 12 0 14 -4034 -66577
0;
#X obj 445 376 r xparam25;
#X obj -38 113 cnv 15 120 70 empty empty empty 20 12 0 14 -4032 -66577
0;
#X text -33 348 Function key 1-2-3 key 3;
#X text 347 355 X-axis function keys 1-2-3;
#X msg 445 397 text Relaease;
#X obj 363 373 r xparam19;
#X obj 363 413 s xp19;
#X msg 363 394 text Attack;
#X text 7 134 decay Yaxis;
#X text 4 112 attack Xaxis;
#X msg -31 228 text Decay;
#X text -40 188 Y-AXIS-KEY3 f-key2;
#X obj 443 419 s xp25;
#X text 6 158 Release Xaixs;
#X obj -50 453 cnv 15 350 80 empty empty empty 20 12 0 14 -257985 -66577
0;
#X obj -41 511 s yp46;
#X obj -41 471 r yparam46;
#X obj 87 508 s yp51;
#X obj 87 468 r yparam51;
#X obj 220 509 s yp56;
#X obj 220 469 r yparam156;
#X text -28 454 Y-AXIS-KEY4;
#X msg -41 492 text;
#X msg 87 489 text;
#X msg 220 490 text;
#X obj -43 534 cnv 15 300 80 empty empty empty 20 12 0 14 -4034 -66577
0;
#X obj 164 549 r xparam34;
#X obj 164 589 s xp34;
#X obj -27 550 r xparam28;
#X obj 75 550 r xparam31;
#X obj -27 590 s xp28;
#X obj 75 590 s xp31;
#X text -33 533 X-axis function keys 1-2-3;
#X obj 232 535 cnv 15 200 150 empty empty empty 20 12 0 14 -4032 -66577
0;
#X obj 617 607 cnv 15 350 80 empty empty empty 20 12 0 14 -261234 -66577
0;
#X obj 628 628 r extfunction10;
#X obj 743 629 r extfunction11;
#X obj 856 631 r extfunction12;
#X obj 858 671 s function12rec;
#X obj 743 669 s function11rec;
#X obj 628 669 s function10rec;
#X msg 628 648 text Pitch LFO;
#X msg 743 649 text Gain LFO;
#X msg 858 650 text Filter LFO;
#X text 627 607 function key 1-2-3 key 4;
#X text 456 196 Y-axis oscillator switches-key1;
#N canvas 0 0 1007 532 osc 0;
#X obj 268 -94 r f1xlrmtr;
#X obj 221 -93 r f1voc;
#X obj 156 -91 r f1square;
#X obj 108 -91 r f1saw;
#X obj 54 -90 r f1sine;
#X obj 554 -95 r f2xlrmtr;
#X obj 504 -95 r f2voc;
#X obj 437 -95 r f2square;
#X obj 390 -96 r f2saw;
#X obj 335 -96 r f2sine;
#X obj 706 209 r f3sine;
#X obj 707 188 r f3saw;
#X obj 708 167 r f3square;
#X obj 708 145 r f3voc;
#X obj 710 122 r f3xlrmtr;
#X msg 54 -68 1;
#X msg 108 -69 2;
#X msg 157 -69 3;
#X msg 223 -72 4;
#X msg 269 -70 5;
#X obj 82 -39 int;
#X obj 49 -12 == 1;
#X obj 77 -12 == 2;
#X obj 106 -13 == 3;
#X obj 135 -13 == 4;
#X obj 164 -14 == 5;
#X obj 123 102 tgl 15 0 empty empty empty 17 7 0 10 -262144 -1 -1 0
1;
#X obj 106 102 tgl 15 0 empty empty empty 17 7 0 10 -262144 -1 -1 0
1;
#X obj 72 102 tgl 15 0 empty empty empty 17 7 0 10 -262144 -1 -1 0
1;
#X obj 89 102 tgl 15 0 empty empty empty 17 7 0 10 -262144 -1 -1 1
1;
#X obj 139 102 tgl 15 0 empty empty empty 17 7 0 10 -262144 -1 -1 0
1;
#X obj 50 168 s f1sine-on;
#X obj 73 186 s f1saw-on;
#X obj 99 205 s f1square-on;
#X obj 129 225 s f1voc-on;
#X obj 154 245 s f1xlrmtr-on;
#X text 155 103 1;
#X msg 337 -65 1;
#X msg 391 -66 2;
#X msg 440 -66 3;
#X msg 506 -69 4;
#X msg 552 -67 5;
#X obj 365 -36 int;
#X obj 332 -9 == 1;
#X obj 360 -9 == 2;
#X obj 389 -10 == 3;
#X obj 418 -10 == 4;
#X obj 447 -11 == 5;
#X obj 123 121 tgl 15 0 empty empty empty 17 7 0 10 -262144 -1 -1 0
1;
#X obj 106 121 tgl 15 0 empty empty empty 17 7 0 10 -262144 -1 -1 0
1;
#X obj 72 121 tgl 15 0 empty empty empty 17 7 0 10 -262144 -1 -1 1
1;
#X obj 89 121 tgl 15 0 empty empty empty 17 7 0 10 -262144 -1 -1 0
1;
#X obj 139 121 tgl 15 0 empty empty empty 17 7 0 10 -262144 -1 -1 0
1;
#X obj 172 185 s f2saw-on;
#X obj 198 204 s f2square-on;
#X obj 228 224 s f2voc-on;
#X obj 253 244 s f2xlrmtr-on;
#X msg 626 -64 1;
#X msg 680 -65 2;
#X msg 729 -65 3;
#X msg 795 -68 4;
#X msg 841 -66 5;
#X obj 654 -35 int;
#X obj 621 -8 == 1;
#X obj 649 -8 == 2;
#X obj 678 -9 == 3;
#X obj 707 -9 == 4;
#X obj 736 -10 == 5;
#X text 156 120 2;
#X obj 123 140 tgl 15 0 empty empty empty 17 7 0 10 -262144 -1 -1 0
1;
#X obj 106 140 tgl 15 0 empty empty empty 17 7 0 10 -262144 -1 -1 0
1;
#X obj 72 140 tgl 15 0 empty empty empty 17 7 0 10 -262144 -1 -1 1
1;
#X obj 89 140 tgl 15 0 empty empty empty 17 7 0 10 -262144 -1 -1 0
1;
#X obj 139 140 tgl 15 0 empty empty empty 17 7 0 10 -262144 -1 -1 0
1;
#X text 156 139 3;
#X obj 624 -95 r f3sine;
#X obj 679 -95 r f3saw;
#X obj 726 -94 r f3square;
#X obj 793 -94 r f3voc;
#X obj 843 -94 r f3xlrmtr;
#X obj 149 167 s f2sine-on;
#X obj 259 170 s f3sine-on;
#X obj 282 188 s f3saw-on;
#X obj 308 207 s f3square-on;
#X obj 338 227 s f3voc-on;
#X obj 363 247 s f3xlrmtr-on;
#X connect 0 0 19 0;
#X connect 1 0 18 0;
#X connect 2 0 17 0;
#X connect 3 0 16 0;
#X connect 4 0 15 0;
#X connect 5 0 41 0;
#X connect 6 0 40 0;
#X connect 7 0 39 0;
#X connect 8 0 38 0;
#X connect 9 0 37 0;
#X connect 15 0 20 0;
#X connect 16 0 20 0;
#X connect 17 0 20 0;
#X connect 18 0 20 0;
#X connect 19 0 20 0;
#X connect 20 0 21 0;
#X connect 20 0 22 0;
#X connect 20 0 23 0;
#X connect 20 0 24 0;
#X connect 20 0 25 0;
#X connect 21 0 28 0;
#X connect 21 0 31 0;
#X connect 22 0 29 0;
#X connect 22 0 32 0;
#X connect 23 0 27 0;
#X connect 23 0 33 0;
#X connect 24 0 26 0;
#X connect 24 0 34 0;
#X connect 25 0 30 0;
#X connect 25 0 35 0;
#X connect 37 0 42 0;
#X connect 38 0 42 0;
#X connect 39 0 42 0;
#X connect 40 0 42 0;
#X connect 41 0 42 0;
#X connect 42 0 43 0;
#X connect 42 0 44 0;
#X connect 42 0 45 0;
#X connect 42 0 46 0;
#X connect 42 0 47 0;
#X connect 43 0 50 0;
#X connect 43 0 80 0;
#X connect 44 0 51 0;
#X connect 44 0 53 0;
#X connect 45 0 49 0;
#X connect 45 0 54 0;
#X connect 46 0 48 0;
#X connect 46 0 55 0;
#X connect 47 0 52 0;
#X connect 47 0 56 0;
#X connect 57 0 62 0;
#X connect 58 0 62 0;
#X connect 59 0 62 0;
#X connect 60 0 62 0;
#X connect 61 0 62 0;
#X connect 62 0 63 0;
#X connect 62 0 64 0;
#X connect 62 0 65 0;
#X connect 62 0 66 0;
#X connect 62 0 67 0;
#X connect 63 0 71 0;
#X connect 63 0 81 0;
#X connect 64 0 72 0;
#X connect 64 0 82 0;
#X connect 65 0 70 0;
#X connect 65 0 83 0;
#X connect 66 0 69 0;
#X connect 66 0 84 0;
#X connect 67 0 73 0;
#X connect 67 0 85 0;
#X connect 75 0 57 0;
#X connect 76 0 58 0;
#X connect 77 0 59 0;
#X connect 78 0 60 0;
#X connect 79 0 61 0;
#X coords 0 -1 1 1 100 60 1 70 100;
#X restore 504 222 pd osc selection;
#X obj 461 228 r 3gx;
#X obj 424 227 r 2gx;
#X obj 385 226 r 1gx;
#X obj 409 246 vsl 10 60 0 127 0 0 empty empty empty 0 -9 0 10 -262144
-1 -1 0 1;
#X obj 447 248 vsl 10 60 0 127 0 0 empty empty empty 0 -9 0 10 -262144
-1 -1 5807 1;
#X obj 484 249 vsl 10 60 0 127 0 0 empty empty empty 0 -9 0 10 -262144
-1 -1 5807 1;
#X obj 417 322 s f1oscvol;
#X obj 549 322 s f3oscvol;
#X obj 484 322 s f2oscvol;
#X text 149 125 comment;
#X text 383 211 osc vol 1 2 3;
#X text 288 644 filter LFO-Depth and rate;
#X text 291 595 gain LFO-Depth and rate;
#X text 290 556 pitch LFO-Depth and rate;
#X obj 79 15 r mynotemsg;
#X msg -41 391 text filter type;
#X msg 100 391 text cutoff;
#X msg 213 388 text Res/amt;
#X msg -27 571 text type;
#X msg 75 571 text cutoff;
#X msg 164 570 text Band;
#X obj 68 189 cnv 15 250 150 empty empty empty 20 12 0 14 -257985 -66577
0;
#X text 107 187 fkey 7 parameters;
#X obj 73 205 r yparam31;
#X obj 138 205 r yparam32;
#X obj 202 203 r yparam33;
#X obj 72 270 r yparam34;
#X obj 154 273 r yparam35;
#X obj 155 314 s yp35;
#X obj 75 311 s yp34;
#X obj 73 245 s yp31;
#X obj 139 247 s yp32;
#X obj 203 242 s yp33;
#X msg 73 226 text lowpass;
#X msg 138 226 text hipass;
#X msg 202 223 text bandpass;
#X msg 74 292 text VCF;
#X msg 154 294 text Moog;
#X obj -35 114 r 7gx;
#X obj -36 134 r 8gy;
#X obj -36 154 r 9gx;
#X obj 924 374 r 1gy;
#X obj 924 396 r 2gy;
#X obj 922 417 r 3gy;
#X obj 239 540 r 10gx;
#X obj 238 561 r 10gy;
#X obj 241 589 r 11gx;
#X obj 240 608 r 11gy;
#X obj 239 635 r 12gx;
#X obj 237 654 r 12gy;
#X connect 1 0 104 0;
#X connect 2 0 109 0;
#X connect 3 0 110 0;
#X connect 4 0 77 0;
#X connect 5 0 115 0;
#X connect 11 0 105 0;
#X connect 14 0 108 0;
#X connect 15 0 111 0;
#X connect 18 0 78 0;
#X connect 19 0 114 0;
#X connect 21 0 106 0;
#X connect 23 0 107 0;
#X connect 26 0 112 0;
#X connect 27 0 79 0;
#X connect 30 0 113 0;
#X connect 33 0 80 0;
#X connect 34 0 81 0;
#X connect 38 0 82 0;
#X connect 40 0 91 0;
#X connect 44 0 93 0;
#X connect 45 0 92 0;
#X connect 48 0 84 0;
#X connect 49 0 83 0;
#X connect 52 0 94 0;
#X connect 55 0 96 0;
#X connect 56 0 97 0;
#X connect 58 0 98 0;
#X connect 59 0 99 0;
#X connect 63 0 100 0;
#X connect 71 0 101 0;
#X connect 73 0 102 0;
#X connect 76 0 103 0;
#X connect 77 0 9 0;
#X connect 78 0 17 0;
#X connect 79 0 28 0;
#X connect 80 0 35 0;
#X connect 81 0 36 0;
#X connect 82 0 37 0;
#X connect 83 0 47 0;
#X connect 84 0 50 0;
#X connect 85 0 87 0;
#X connect 87 0 86 0;
#X connect 91 0 41 0;
#X connect 92 0 42 0;
#X connect 93 0 43 0;
#X connect 94 0 53 0;
#X connect 96 0 54 0;
#X connect 97 0 57 0;
#X connect 98 0 60 0;
#X connect 99 0 61 0;
#X connect 100 0 62 0;
#X connect 101 0 72 0;
#X connect 102 0 74 0;
#X connect 103 0 75 0;
#X connect 104 0 6 0;
#X connect 105 0 12 0;
#X connect 106 0 22 0;
#X connect 107 0 24 0;
#X connect 108 0 13 0;
#X connect 109 0 7 0;
#X connect 110 0 8 0;
#X connect 111 0 16 0;
#X connect 112 0 25 0;
#X connect 113 0 29 0;
#X connect 114 0 20 0;
#X connect 115 0 10 0;
#X connect 130 0 131 0;
#X connect 130 1 132 0;
#X connect 130 2 133 0;
#X connect 138 0 157 0;
#X connect 140 0 209 0;
#X connect 141 0 210 0;
#X connect 142 0 211 0;
#X connect 147 0 151 0;
#X connect 151 0 159 0;
#X connect 152 0 154 0;
#X connect 154 0 153 0;
#X connect 157 0 137 0;
#X connect 163 0 169 0;
#X connect 165 0 170 0;
#X connect 167 0 171 0;
#X connect 169 0 162 0;
#X connect 170 0 164 0;
#X connect 171 0 166 0;
#X connect 173 0 214 0;
#X connect 175 0 212 0;
#X connect 176 0 213 0;
#X connect 182 0 188 0;
#X connect 183 0 189 0;
#X connect 184 0 190 0;
#X connect 188 0 187 0;
#X connect 189 0 186 0;
#X connect 190 0 185 0;
#X connect 194 0 199 0;
#X connect 194 0 201 0;
#X connect 195 0 198 0;
#X connect 195 0 202 0;
#X connect 196 0 197 0;
#X connect 196 0 200 0;
#X connect 208 0 130 0;
#X connect 209 0 145 0;
#X connect 210 0 144 0;
#X connect 211 0 143 0;
#X connect 212 0 177 0;
#X connect 213 0 178 0;
#X connect 214 0 174 0;
#X connect 217 0 227 0;
#X connect 218 0 228 0;
#X connect 219 0 229 0;
#X connect 220 0 230 0;
#X connect 221 0 231 0;
#X connect 227 0 224 0;
#X connect 228 0 225 0;
#X connect 229 0 226 0;
#X connect 230 0 223 0;
#X connect 231 0 222 0;
#X restore 678 296 pd synthcore1;
#X obj 383 16 r fl4-1;
#X obj 431 15 r fl3-1;
#X obj 479 14 r fl2-1;
#X obj 529 15 r fl1-1;
#X obj 598 12 r fr4-1;
#X obj 640 12 r fr2-1;
#X obj 679 12 r fr3-1;
#X obj 724 12 r fr1-1;
#N canvas 598 180 236 269 bk 0;
#X obj 69 63 tgl 15 0 empty empty empty 17 7 0 10 -262144 -1 -1 0 3
;
#X obj 88 113 tgl 15 0 empty empty empty 17 7 0 10 -262144 -1 -1 0
1;
#X obj 62 44 * 3;
#X floatatom 27 51 5 0 0 0 - - -;
#X floatatom 98 139 5 0 0 0 - - -;
#X obj 59 3 inlet;
#X obj 94 199 outlet;
#X obj 42 81 threshold 2 1 1 2;
#X obj 173 68 r flash;
#X msg 176 103 0;
#X obj 97 169 spigot;
#X obj 132 139 tgl 15 0 empty empty empty 17 7 0 10 -262144 -1 -1 0
1;
#X obj 135 121 r off1;
#X connect 1 0 4 0;
#X connect 2 0 0 0;
#X connect 2 0 3 0;
#X connect 2 0 7 0;
#X connect 4 0 10 0;
#X connect 5 0 2 0;
#X connect 7 0 1 0;
#X connect 7 1 1 0;
#X connect 8 0 9 0;
#X connect 9 0 1 0;
#X connect 10 0 6 0;
#X connect 11 0 10 1;
#X connect 12 0 11 0;
#X restore 782 -10 pd bk;
#N canvas 598 180 236 269 bk 0;
#X obj 69 63 tgl 15 0 empty empty empty 17 7 0 10 -262144 -1 -1 0 3
;
#X obj 88 113 tgl 15 0 empty empty empty 17 7 0 10 -262144 -1 -1 0
1;
#X obj 62 44 * 3;
#X floatatom 27 51 5 0 0 0 - - -;
#X floatatom 98 139 5 0 0 0 - - -;
#X obj 59 3 inlet;
#X obj 94 199 outlet;
#X obj 42 81 threshold 2 1 1 2;
#X obj 173 68 r flash;
#X msg 176 103 0;
#X connect 1 0 4 0;
#X connect 2 0 0 0;
#X connect 2 0 3 0;
#X connect 2 0 7 0;
#X connect 4 0 6 0;
#X connect 5 0 2 0;
#X connect 7 0 1 0;
#X connect 7 1 1 0;
#X connect 8 0 9 0;
#X connect 9 0 1 0;
#X restore 733 71 pd bk;
#N canvas 598 180 236 269 bk 0;
#X obj 69 63 tgl 15 0 empty empty empty 17 7 0 10 -262144 -1 -1 0 3
;
#X obj 88 113 tgl 15 0 empty empty empty 17 7 0 10 -262144 -1 -1 0
1;
#X obj 62 44 * 3;
#X floatatom 27 51 5 0 0 0 - - -;
#X floatatom 98 139 5 0 0 0 - - -;
#X obj 59 3 inlet;
#X obj 94 199 outlet;
#X obj 42 81 threshold 2 1 1 2;
#X obj 173 68 r flash;
#X msg 176 103 0;
#X connect 1 0 4 0;
#X connect 2 0 0 0;
#X connect 2 0 3 0;
#X connect 2 0 7 0;
#X connect 4 0 6 0;
#X connect 5 0 2 0;
#X connect 7 0 1 0;
#X connect 7 1 1 0;
#X connect 8 0 9 0;
#X connect 9 0 1 0;
#X restore 607 69 pd bk;
#N canvas 598 180 236 269 bk 0;
#X obj 69 63 tgl 15 0 empty empty empty 17 7 0 10 -262144 -1 -1 0 3
;
#X obj 88 113 tgl 15 0 empty empty empty 17 7 0 10 -262144 -1 -1 0
1;
#X obj 62 44 * 3;
#X floatatom 27 51 5 0 0 0 - - -;
#X floatatom 98 139 5 0 0 0 - - -;
#X obj 59 3 inlet;
#X obj 94 199 outlet;
#X obj 42 81 threshold 2 1 1 2;
#X obj 173 68 r flash;
#X msg 176 103 0;
#X connect 1 0 4 0;
#X connect 2 0 0 0;
#X connect 2 0 3 0;
#X connect 2 0 7 0;
#X connect 4 0 6 0;
#X connect 5 0 2 0;
#X connect 7 0 1 0;
#X connect 7 1 1 0;
#X connect 8 0 9 0;
#X connect 9 0 1 0;
#X restore 648 71 pd bk;
#N canvas 598 180 236 269 bk 0;
#X obj 69 63 tgl 15 0 empty empty empty 17 7 0 10 -262144 -1 -1 0 3
;
#X obj 88 113 tgl 15 0 empty empty empty 17 7 0 10 -262144 -1 -1 0
1;
#X obj 62 44 * 3;
#X floatatom 27 51 5 0 0 0 - - -;
#X floatatom 98 139 5 0 0 0 - - -;
#X obj 59 3 inlet;
#X obj 94 199 outlet;
#X obj 42 81 threshold 2 1 1 2;
#X obj 173 68 r flash;
#X msg 176 103 0;
#X connect 1 0 4 0;
#X connect 2 0 0 0;
#X connect 2 0 3 0;
#X connect 2 0 7 0;
#X connect 4 0 6 0;
#X connect 5 0 2 0;
#X connect 7 0 1 0;
#X connect 7 1 1 0;
#X connect 8 0 9 0;
#X connect 9 0 1 0;
#X restore 692 71 pd bk;
#N canvas 598 180 236 269 bk 0;
#X obj 69 63 tgl 15 0 empty empty empty 17 7 0 10 -262144 -1 -1 0 3
;
#X obj 88 113 tgl 15 0 empty empty empty 17 7 0 10 -262144 -1 -1 0
1;
#X obj 62 44 * 3;
#X floatatom 27 51 5 0 0 0 - - -;
#X floatatom 98 139 5 0 0 0 - - -;
#X obj 59 3 inlet;
#X obj 94 199 outlet;
#X obj 42 81 threshold 2 1 1 2;
#X obj 173 68 r flash;
#X msg 176 103 0;
#X connect 1 0 4 0;
#X connect 2 0 0 0;
#X connect 2 0 3 0;
#X connect 2 0 7 0;
#X connect 4 0 6 0;
#X connect 5 0 2 0;
#X connect 7 0 1 0;
#X connect 7 1 1 0;
#X connect 8 0 9 0;
#X connect 9 0 1 0;
#X restore 531 67 pd bk;
#N canvas 598 180 236 269 bk 0;
#X obj 69 63 tgl 15 0 empty empty empty 17 7 0 10 -262144 -1 -1 0 3
;
#X obj 88 113 tgl 15 0 empty empty empty 17 7 0 10 -262144 -1 -1 0
1;
#X obj 62 44 * 3;
#X floatatom 27 51 5 0 0 0 - - -;
#X floatatom 98 139 5 0 0 0 - - -;
#X obj 59 3 inlet;
#X obj 94 199 outlet;
#X obj 42 81 threshold 2 1 1 2;
#X obj 173 68 r flash;
#X msg 176 103 0;
#X connect 1 0 4 0;
#X connect 2 0 0 0;
#X connect 2 0 3 0;
#X connect 2 0 7 0;
#X connect 4 0 6 0;
#X connect 5 0 2 0;
#X connect 7 0 1 0;
#X connect 7 1 1 0;
#X connect 8 0 9 0;
#X connect 9 0 1 0;
#X restore 405 65 pd bk;
#N canvas 598 180 236 269 bk 0;
#X obj 69 63 tgl 15 0 empty empty empty 17 7 0 10 -262144 -1 -1 0 3
;
#X obj 88 113 tgl 15 0 empty empty empty 17 7 0 10 -262144 -1 -1 0
1;
#X obj 62 44 * 3;
#X floatatom 27 51 5 0 0 0 - - -;
#X floatatom 98 139 5 0 0 0 - - -;
#X obj 59 3 inlet;
#X obj 94 199 outlet;
#X obj 42 81 threshold 2 1 1 2;
#X obj 173 68 r flash;
#X msg 176 103 0;
#X connect 1 0 4 0;
#X connect 2 0 0 0;
#X connect 2 0 3 0;
#X connect 2 0 7 0;
#X connect 4 0 6 0;
#X connect 5 0 2 0;
#X connect 7 0 1 0;
#X connect 7 1 1 0;
#X connect 8 0 9 0;
#X connect 9 0 1 0;
#X restore 446 67 pd bk;
#N canvas 598 180 236 269 bk 0;
#X obj 69 63 tgl 15 0 empty empty empty 17 7 0 10 -262144 -1 -1 0 3
;
#X obj 88 113 tgl 15 0 empty empty empty 17 7 0 10 -262144 -1 -1 0
1;
#X obj 62 44 * 3;
#X floatatom 27 51 5 0 0 0 - - -;
#X floatatom 98 139 5 0 0 0 - - -;
#X obj 59 3 inlet;
#X obj 94 199 outlet;
#X obj 42 81 threshold 2 1 1 2;
#X obj 173 68 r flash;
#X msg 176 103 0;
#X connect 1 0 4 0;
#X connect 2 0 0 0;
#X connect 2 0 3 0;
#X connect 2 0 7 0;
#X connect 4 0 6 0;
#X connect 5 0 2 0;
#X connect 7 0 1 0;
#X connect 7 1 1 0;
#X connect 8 0 9 0;
#X connect 9 0 1 0;
#X restore 490 67 pd bk;
#X obj 380 193 s \$0-key4;
#X obj 434 193 s \$0-key3;
#X obj 489 193 s \$0-key2;
#X obj 544 193 s \$0-key1;
#X obj 602 193 s \$0-key5;
#X obj 659 195 s \$0-key6;
#X obj 713 193 s \$0-key7;
#X obj 768 195 s \$0-key8;
#N canvas 0 0 450 300 viz 0;
#X text -343 158 the right accelrometer grid is a modifier for the
left hand and should only be actuated when neccessary for a function
from there;
#N canvas 489 212 450 300 fsr 0;
#X obj 114 79 gemhead 1;
#X obj 114 264 square 0.3;
#X obj 114 221 alpha;
#X obj 268 147 hsl 64 15 0.925 1 0 0 empty empty empty -2 -8 0 10 -262144
-1 -1 0 1;
#X obj 198 188 r r;
#X obj 221 188 r g;
#X obj 245 188 r b;
#X msg 153 196 1;
#X obj 122 155 tgl 15 0 empty empty empty 17 7 0 10 -262144 -1 -1 0
1;
#X obj 264 124 r frange1;
#X obj 265 167 - 0.9;
#X obj 269 189 * 10;
#X obj 122 173 sel 0 3;
#X obj 114 242 colorRGB;
#X msg 123 196 0;
#X floatatom 289 230 5 0 0 0 - - -;
#X obj 114 99 translateXYZ -2.6 -0.2 0;
#X obj 120 135 r \$0-key1;
#X connect 0 0 16 0;
#X connect 2 0 13 0;
#X connect 3 0 10 0;
#X connect 4 0 13 1;
#X connect 5 0 13 2;
#X connect 6 0 13 3;
#X connect 7 0 2 0;
#X connect 8 0 12 0;
#X connect 9 0 3 0;
#X connect 10 0 11 0;
#X connect 11 0 13 4;
#X connect 11 0 15 0;
#X connect 12 0 7 0;
#X connect 12 1 14 0;
#X connect 13 0 1 0;
#X connect 14 0 2 0;
#X connect 16 0 2 0;
#X connect 17 0 8 0;
#X restore 21 -10 pd fsr 1;
#N canvas 74 19 450 300 fsr 0;
#X obj 114 79 gemhead 1;
#X obj 114 264 square 0.3;
#X obj 114 221 alpha;
#X obj 267 146 hsl 64 15 0.925 1 0 0 empty empty empty -2 -8 0 10 -262144
-1 -1 0 1;
#X obj 198 188 r r;
#X obj 221 188 r g;
#X obj 245 188 r b;
#X msg 153 196 1;
#X obj 122 155 tgl 15 0 empty empty empty 17 7 0 10 -262144 -1 -1 0
1;
#X obj 265 167 - 0.9;
#X obj 266 188 * 10;
#X msg 123 196 0;
#X obj 264 124 r frange2;
#X obj 122 173 sel 0 3;
#X floatatom 306 221 5 0 0 0 - - -;
#X obj 183 258 colorRGB;
#X obj 114 99 translateXYZ -3.4 -0.2 0;
#X obj 120 135 r \$0-key2;
#X connect 0 0 16 0;
#X connect 2 0 15 0;
#X connect 3 0 9 0;
#X connect 4 0 15 1;
#X connect 5 0 15 2;
#X connect 6 0 15 3;
#X connect 7 0 2 0;
#X connect 8 0 13 0;
#X connect 9 0 10 0;
#X connect 10 0 14 0;
#X connect 10 0 15 4;
#X connect 11 0 2 0;
#X connect 12 0 3 0;
#X connect 13 0 7 0;
#X connect 13 1 11 0;
#X connect 15 0 1 0;
#X connect 16 0 2 0;
#X connect 17 0 8 0;
#X restore 21 12 pd fsr 2;
#N canvas 524 32 450 300 fsr 0;
#X obj 114 79 gemhead 1;
#X obj 114 264 square 0.3;
#X obj 114 221 alpha;
#X obj 267 146 hsl 64 15 0.925 1 0 0 empty empty empty -2 -8 0 10 -262144
-1 -1 0 1;
#X obj 198 188 r r;
#X obj 221 188 r g;
#X obj 245 188 r b;
#X msg 153 196 1;
#X obj 122 155 tgl 15 0 empty empty empty 17 7 0 10 -262144 -1 -1 0
1;
#X obj 265 167 - 0.9;
#X obj 266 188 * 10;
#X msg 123 196 0;
#X obj 122 173 sel 0 3;
#X floatatom 306 221 5 0 0 0 - - -;
#X obj 183 258 colorRGB;
#X obj 264 124 r frange3;
#X obj 114 99 translateXYZ -4.2 -0.2 0;
#X obj 120 135 r \$0-key3;
#X connect 0 0 16 0;
#X connect 2 0 14 0;
#X connect 3 0 9 0;
#X connect 4 0 14 1;
#X connect 5 0 14 2;
#X connect 6 0 14 3;
#X connect 7 0 2 0;
#X connect 8 0 12 0;
#X connect 9 0 10 0;
#X connect 10 0 13 0;
#X connect 10 0 14 4;
#X connect 11 0 2 0;
#X connect 12 0 7 0;
#X connect 12 1 11 0;
#X connect 14 0 1 0;
#X connect 15 0 3 0;
#X connect 16 0 2 0;
#X connect 17 0 8 0;
#X restore 21 33 pd fsr 3;
#N canvas 58 366 450 300 fsr 0;
#X obj 114 79 gemhead 1;
#X obj 114 264 square 0.3;
#X obj 114 221 alpha;
#X obj 267 146 hsl 64 15 0.925 1 0 0 empty empty empty -2 -8 0 10 -262144
-1 -1 0 1;
#X obj 198 188 r r;
#X obj 221 188 r g;
#X obj 245 188 r b;
#X msg 153 196 1;
#X obj 122 155 tgl 15 0 empty empty empty 17 7 0 10 -262144 -1 -1 0
1;
#X obj 265 167 - 0.9;
#X obj 266 188 * 10;
#X msg 123 196 0;
#X obj 122 173 sel 0 3;
#X floatatom 306 221 5 0 0 0 - - -;
#X obj 183 258 colorRGB;
#X obj 264 124 r frange4;
#X obj 114 99 translateXYZ -5 -0.2 0;
#X obj 120 135 r \$0-key4;
#X connect 0 0 16 0;
#X connect 2 0 14 0;
#X connect 3 0 9 0;
#X connect 4 0 14 1;
#X connect 5 0 14 2;
#X connect 6 0 14 3;
#X connect 7 0 2 0;
#X connect 8 0 12 0;
#X connect 9 0 10 0;
#X connect 10 0 13 0;
#X connect 10 0 14 4;
#X connect 11 0 2 0;
#X connect 12 0 7 0;
#X connect 12 1 11 0;
#X connect 14 0 1 0;
#X connect 15 0 3 0;
#X connect 16 0 2 0;
#X connect 17 0 8 0;
#X restore 21 54 pd fsr 4;
#N canvas 97 354 450 300 fsr 0;
#X obj 114 79 gemhead 1;
#X obj 114 264 square 0.3;
#X obj 114 221 alpha;
#X obj 276 189 hsl 64 15 0.25 1 0 0 empty empty empty -2 -8 0 10 -262144
-1 -1 0 1;
#X obj 198 188 r r;
#X obj 221 188 r g;
#X obj 245 188 r b;
#X msg 153 196 1;
#X obj 122 155 tgl 15 0 empty empty empty 17 7 0 10 -262144 -1 -1 0
1;
#X msg 123 196 0;
#X obj 122 173 sel 0 3;
#X obj 114 242 colorRGB;
#X obj 114 99 translateXYZ 5 -0.2 0;
#X obj 272 166 r frange8;
#X obj 120 135 r \$0-key8;
#X connect 0 0 12 0;
#X connect 2 0 11 0;
#X connect 3 0 11 4;
#X connect 4 0 11 1;
#X connect 5 0 11 2;
#X connect 6 0 11 3;
#X connect 7 0 2 0;
#X connect 8 0 10 0;
#X connect 9 0 2 0;
#X connect 10 0 7 0;
#X connect 10 1 9 0;
#X connect 11 0 1 0;
#X connect 12 0 2 0;
#X connect 13 0 3 0;
#X connect 14 0 8 0;
#X restore 27 141 pd fsr 8;
#N canvas 97 354 450 300 fsr 0;
#X obj 114 79 gemhead 1;
#X obj 114 264 square 0.3;
#X obj 114 221 alpha;
#X obj 276 189 hsl 64 15 0.25 1 0 0 empty empty empty -2 -8 0 10 -262144
-1 -1 0 1;
#X obj 198 188 r r;
#X obj 221 188 r g;
#X obj 245 188 r b;
#X msg 153 196 1;
#X obj 122 155 tgl 15 0 empty empty empty 17 7 0 10 -262144 -1 -1 0
1;
#X msg 123 196 0;
#X obj 122 173 sel 0 3;
#X obj 114 242 colorRGB;
#X obj 114 99 translateXYZ 4.2 -0.2 0;
#X obj 272 166 r frange7;
#X obj 120 135 r \$0-key7;
#X connect 0 0 12 0;
#X connect 2 0 11 0;
#X connect 3 0 11 4;
#X connect 4 0 11 1;
#X connect 5 0 11 2;
#X connect 6 0 11 3;
#X connect 7 0 2 0;
#X connect 8 0 10 0;
#X connect 9 0 2 0;
#X connect 10 0 7 0;
#X connect 10 1 9 0;
#X connect 11 0 1 0;
#X connect 12 0 2 0;
#X connect 13 0 3 0;
#X connect 14 0 8 0;
#X restore 26 120 pd fsr 7;
#N canvas 97 354 450 300 fsr 0;
#X obj 114 79 gemhead 1;
#X obj 114 264 square 0.3;
#X obj 114 221 alpha;
#X obj 276 189 hsl 64 15 0.25 1 0 0 empty empty empty -2 -8 0 10 -262144
-1 -1 0 1;
#X obj 198 188 r r;
#X obj 221 188 r g;
#X obj 245 188 r b;
#X msg 153 196 1;
#X obj 122 155 tgl 15 0 empty empty empty 17 7 0 10 -262144 -1 -1 0
1;
#X msg 123 196 0;
#X obj 122 173 sel 0 3;
#X obj 114 242 colorRGB;
#X obj 114 99 translateXYZ 3.4 -0.2 0;
#X obj 272 166 r frange6;
#X obj 120 135 r \$0-key6;
#X connect 0 0 12 0;
#X connect 2 0 11 0;
#X connect 3 0 11 4;
#X connect 4 0 11 1;
#X connect 5 0 11 2;
#X connect 6 0 11 3;
#X connect 7 0 2 0;
#X connect 8 0 10 0;
#X connect 9 0 2 0;
#X connect 10 0 7 0;
#X connect 10 1 9 0;
#X connect 11 0 1 0;
#X connect 12 0 2 0;
#X connect 13 0 3 0;
#X connect 14 0 8 0;
#X restore 24 98 pd fsr 6;
#N canvas 97 354 450 300 fsr 0;
#X obj 114 79 gemhead 1;
#X obj 114 264 square 0.3;
#X obj 114 221 alpha;
#X obj 276 189 hsl 64 15 0.25 1 0 0 empty empty empty -2 -8 0 10 -262144
-1 -1 0 1;
#X obj 198 188 r r;
#X obj 221 188 r g;
#X obj 245 188 r b;
#X msg 153 196 1;
#X obj 122 155 tgl 15 0 empty empty empty 17 7 0 10 -262144 -1 -1 0
1;
#X msg 123 196 0;
#X obj 122 173 sel 0 3;
#X obj 114 242 colorRGB;
#X obj 272 166 r frange5;
#X obj 115 99 translateXYZ 2.6 -0.2 0;
#X obj 120 135 r \$0-key5;
#X connect 0 0 13 0;
#X connect 2 0 11 0;
#X connect 3 0 11 4;
#X connect 4 0 11 1;
#X connect 5 0 11 2;
#X connect 6 0 11 3;
#X connect 7 0 2 0;
#X connect 8 0 10 0;
#X connect 9 0 2 0;
#X connect 10 0 7 0;
#X connect 10 1 9 0;
#X connect 11 0 1 0;
#X connect 12 0 3 0;
#X connect 13 0 2 0;
#X connect 14 0 8 0;
#X restore 22 76 pd fsr 5;
#N canvas 1024 0 1024 716 breath 0;
#X obj 51 20 cnv 15 170 250 empty empty empty 20 12 0 14 -228992 -66577
0;
#X obj 114 123 cnv 15 100 60 empty empty empty 20 12 0 14 -24198 -66577
0;
#X msg 57 28 draw line;
#X msg 57 59 draw fill;
#X msg 57 91 draw point;
#X obj 125 27 gemhead;
#X floatatom 143 125 5 0 0 0 - - -;
#X text 181 126 size;
#X floatatom 179 157 5 0 0 0 - - -;
#X text 155 143 segments;
#X obj 125 162 cone 0.6;
#X floatatom 269 52 5 0 0 0 - - -;
#X obj 29 6 loadbang;
#X obj 243 9 r breath;
#X obj 269 30 / 127;
#X obj 290 110 gemhead;
#X obj 290 132 part_head;
#X obj 515 235 part_draw;
#X msg 394 120 0 0.2 0 0.3;
#X msg 481 119 0.2 0 0 0.3;
#X floatatom 625 212 5 0 0 0 - - -;
#X floatatom 409 261 5 0 0 0 - - -;
#X obj 290 185 part_source 30;
#X obj 291 237 translateXYZ 0 2 0;
#X obj 291 213 part_killold 0;
#X floatatom 479 39 5 0 0 0 - - -;
#X floatatom 515 39 5 0 0 0 - - -;
#X floatatom 551 39 5 0 0 0 - - -;
#X floatatom 442 38 5 0 0 0 - - -;
#X obj 454 72 pack f f f f;
#X obj 346 16 hsl 30 15 0 1 0 0 empty empty empty -2 -8 0 10 -262144
-1 -1 0 1;
#X obj 448 4 hsl 30 15 0 1 0 0 empty empty empty -2 -8 0 10 -262144
-1 -1 0 1;
#X obj 522 8 hsl 30 15 0 1 0 0 empty empty empty -2 -8 0 10 -262144
-1 -1 0 1;
#X obj 597 8 hsl 30 15 0 1 0 0 empty empty empty -2 -8 0 10 -262144
-1 -1 0 1;
#X floatatom 349 83 5 0 0 0 - - -;
#X obj 395 52 hsl 30 15 0 1 0 0 empty empty empty -2 -8 0 10 -262144
-1 -1 0 1;
#X obj 518 204 rotate 170 0 0 1;
#X obj 458 217 / 10;
#X obj 314 159 part_velocity sphere 0 0 0.13 0.17;
#X obj 125 50 translateXYZ 0 3 0;
#X obj 125 74 rotateXYZ -90 0 0;
#X connect 2 0 10 0;
#X connect 3 0 10 0;
#X connect 4 0 10 0;
#X connect 5 0 39 0;
#X connect 6 0 10 1;
#X connect 8 0 10 2;
#X connect 12 0 2 0;
#X connect 13 0 14 0;
#X connect 13 0 10 2;
#X connect 13 0 37 0;
#X connect 14 0 11 0;
#X connect 15 0 16 0;
#X connect 16 0 38 0;
#X connect 22 0 24 0;
#X connect 24 0 23 0;
#X connect 25 0 29 1;
#X connect 26 0 29 2;
#X connect 27 0 29 3;
#X connect 28 0 29 0;
#X connect 30 0 28 0;
#X connect 31 0 25 0;
#X connect 32 0 26 0;
#X connect 33 0 27 0;
#X connect 35 0 34 0;
#X connect 36 0 17 0;
#X connect 37 0 24 1;
#X connect 38 0 22 0;
#X connect 39 0 40 0;
#X restore 27 166 pd breath;
#N canvas 251 313 543 300 octaves 0;
#X obj 152 217 rectangle 1.06 1.6;
#X obj 235 111 loadbang;
#X obj 148 133 translateXYZ 0 -2.35 0;
#X msg 211 88 0;
#X msg 139 85 -4.2;
#X msg 271 89 4.2;
#X msg 241 89 2.1;
#X obj 122 18 r jlb1;
#X obj 164 18 r jlb2;
#X obj 206 18 r jlb3;
#X obj 248 18 r jlb4;
#X obj 270 64 sel 1 0;
#X obj 122 62 sel 1 0;
#X obj 220 64 sel 1 0;
#X obj 171 64 sel 1 0;
#X msg 174 86 -2.1;
#X obj 148 197 alpha;
#X obj 175 153 r r;
#X obj 198 154 r g;
#X obj 224 155 r b;
#X obj 148 174 colorRGB;
#X msg 252 156 0.3;
#X msg 209 194 draw fill;
#X msg 98 165 1;
#X obj 148 109 gemhead 2;
#X connect 1 0 22 0;
#X connect 1 0 21 0;
#X connect 2 0 20 0;
#X connect 3 0 2 1;
#X connect 4 0 2 1;
#X connect 5 0 2 1;
#X connect 6 0 2 1;
#X connect 7 0 14 0;
#X connect 8 0 11 0;
#X connect 9 0 12 0;
#X connect 10 0 13 0;
#X connect 11 0 5 0;
#X connect 11 1 3 0;
#X connect 12 0 4 0;
#X connect 12 1 3 0;
#X connect 13 0 6 0;
#X connect 13 1 3 0;
#X connect 14 0 15 0;
#X connect 14 1 3 0;
#X connect 15 0 2 1;
#X connect 16 0 0 0;
#X connect 17 0 20 1;
#X connect 18 0 20 2;
#X connect 19 0 20 3;
#X connect 20 0 16 0;
#X connect 21 0 20 4;
#X connect 22 0 0 0;
#X connect 23 0 16 0;
#X connect 24 0 2 0;
#X restore -46 222 pd octaves;
#N canvas 0 0 450 300 programs 0;
#X restore -53 242 pd programs;
#N canvas 0 0 450 300 textupdater 0;
#X restore -70 267 pd textupdater;
#N canvas 0 0 1001 419 jlb 0;
#X obj 114 147 r jlb1;
#X obj 266 147 r jlb2;
#X obj 101 107 gemhead 1;
#X obj 114 169 tgl 15 0 empty empty empty 17 7 0 10 -262144 -1 -1 0
1;
#X obj 101 234 color;
#X msg 171 210 1 0 0;
#X obj 114 187 sel 0 1;
#X msg 113 209 0.4 0 0;
#X obj 256 106 gemhead 1;
#X obj 269 168 tgl 15 0 empty empty empty 17 7 0 10 -262144 -1 -1 0
1;
#X obj 256 233 color;
#X msg 326 209 1 0 0;
#X obj 269 186 sel 0 1;
#X msg 268 208 0.4 0 0;
#X obj 409 104 gemhead 1;
#X obj 422 166 tgl 15 0 empty empty empty 17 7 0 10 -262144 -1 -1 0
1;
#X obj 409 231 color;
#X msg 479 207 1 0 0;
#X obj 422 184 sel 0 1;
#X msg 421 206 0.4 0 0;
#X obj 422 144 r jlb3;
#X obj 566 105 gemhead 1;
#X obj 579 167 tgl 15 0 empty empty empty 17 7 0 10 -262144 -1 -1 0
1;
#X obj 566 232 color;
#X msg 636 208 1 0 0;
#X obj 579 185 sel 0 1;
#X msg 578 207 0.4 0 0;
#X obj 579 145 r jlb4;
#X obj 101 128 translateXYZ -5.07 0.8 0;
#X obj 100 261 square 0.12;
#X obj 255 260 square 0.12;
#X obj 408 258 square 0.12;
#X obj 565 256 square 0.12;
#X obj 409 125 translateXYZ -4.8 0.48 0;
#X obj 566 126 translateXYZ -4.53 0.8 0;
#X obj 256 127 translateXYZ -4.8 1.09 0;
#X obj 767 96 gemhead;
#X obj 811 149 loadbang;
#X obj 767 265 text3d;
#X msg 776 238 font /home/onyx/beatjazzdir/vera.ttf;
#X obj 806 218 r jlbtext;
#X obj 348 330 s jlbtext;
#X obj 494 338 s jlbtext;
#X obj 644 335 s jlbtext;
#X obj 215 333 s jlbtext;
#X msg 178 268 text C3;
#X msg 333 263 text C3;
#X msg 494 260 text C3;
#X msg 639 292 text C3;
#X msg 172 290 text C2;
#X msg 469 295 text C1;
#X msg 648 314 text C4;
#X msg 334 291 text C5;
#X floatatom 164 178 5 0 0 0 - - -;
#X msg 807 196 3;
#X obj 766 121 translateXYZ -4.8 0.85 0;
#X connect 0 0 3 0;
#X connect 1 0 9 0;
#X connect 2 0 28 0;
#X connect 3 0 6 0;
#X connect 3 0 53 0;
#X connect 4 0 29 0;
#X connect 5 0 4 1;
#X connect 6 0 7 0;
#X connect 6 0 45 0;
#X connect 6 1 5 0;
#X connect 7 0 4 1;
#X connect 8 0 35 0;
#X connect 9 0 12 0;
#X connect 10 0 30 0;
#X connect 11 0 10 1;
#X connect 12 0 13 0;
#X connect 12 0 46 0;
#X connect 12 1 11 0;
#X connect 12 1 52 0;
#X connect 13 0 10 1;
#X connect 14 0 33 0;
#X connect 15 0 18 0;
#X connect 16 0 31 0;
#X connect 17 0 16 1;
#X connect 18 0 19 0;
#X connect 18 0 47 0;
#X connect 18 1 17 0;
#X connect 18 1 50 0;
#X connect 19 0 16 1;
#X connect 20 0 15 0;
#X connect 21 0 34 0;
#X connect 22 0 25 0;
#X connect 23 0 32 0;
#X connect 24 0 23 1;
#X connect 25 0 26 0;
#X connect 25 0 48 0;
#X connect 25 1 24 0;
#X connect 25 1 51 0;
#X connect 26 0 23 1;
#X connect 27 0 22 0;
#X connect 28 0 4 0;
#X connect 33 0 16 0;
#X connect 34 0 23 0;
#X connect 35 0 10 0;
#X connect 36 0 55 0;
#X connect 37 0 39 0;
#X connect 37 0 54 0;
#X connect 39 0 38 0;
#X connect 40 0 38 0;
#X connect 45 0 44 0;
#X connect 46 0 41 0;
#X connect 47 0 42 0;
#X connect 48 0 43 0;
#X connect 49 0 44 0;
#X connect 50 0 42 0;
#X connect 51 0 43 0;
#X connect 52 0 41 0;
#X connect 53 0 49 0;
#X connect 54 0 38 1;
#X connect 55 0 38 0;
#X restore 29 227 pd jlb;
#N canvas 0 0 1009 701 jlu 0;
#X obj 115 110 gemhead 1;
#X obj 115 237 color;
#X msg 185 213 1 0 0;
#X msg 127 212 0.4 0 0;
#X obj 256 106 gemhead 1;
#X obj 269 168 tgl 15 0 empty empty empty 17 7 0 10 -262144 -1 -1 0
1;
#X obj 256 233 color;
#X obj 269 186 sel 0 1;
#X obj 409 104 gemhead 1;
#X obj 409 231 color;
#X obj 566 105 gemhead 1;
#X obj 579 167 tgl 15 0 empty empty empty 17 7 0 10 -262144 -1 -1 0
1;
#X obj 566 232 color;
#X obj 579 185 sel 0 1;
#X obj 128 150 r jlu1;
#X obj 266 147 r jlu2;
#X obj 422 144 r jlu3;
#X obj 579 145 r jlu4;
#X obj 565 259 square 0.3;
#X obj 566 126 translateXYZ -4.3 2.6 0;
#X obj 114 264 square 0.12;
#X obj 255 260 square 0.12;
#X obj 115 131 translateXYZ -5.07 2.6 0;
#X obj 408 258 square 0.12;
#X obj 409 125 translateXYZ -4.8 2.4 0;
#X obj 256 127 translateXYZ -4.8 2.78 0;
#X obj 767 96 gemhead;
#X obj 811 149 loadbang;
#X msg 762 48 1;
#X obj 767 265 text3d;
#X msg 799 197 2.5;
#X obj 766 121 translateXYZ -4.5 3.05 0;
#X obj 806 218 r jlutext;
#X obj 694 332 s jlutext;
#X msg 651 289 text looper CTRL;
#X msg 657 267 text ---;
#X msg 776 238 font /home/onyx/beatjazzdir/vera.ttf;
#X obj 527 332 s jlutext;
#X msg 475 284 text ---;
#X obj 342 327 s jlutext;
#X msg 331 302 text ---;
#X obj 214 328 s jlutext;
#X msg 174 285 text ---;
#X msg 497 306 text sustain;
#X msg 299 284 text VOLUME;
#X msg 193 306 text STOP;
#X floatatom 488 177 5 0 0 0 - - -;
#X obj 439 183 sel 0 1;
#X obj 429 165 tgl 15 0 empty empty empty 17 7 0 10 -262144 -1 -1 0
1;
#X obj 143 168 tgl 15 0 empty empty empty 17 7 0 10 -262144 -1 -1 0
1;
#X obj 128 190 sel 0 1;
#X msg 636 208 0 1 0;
#X msg 421 206 0.4 0.3 0;
#X msg 578 207 0 0.3 0;
#X msg 479 207 1 1 0;
#X msg 326 209 1 1 0;
#X msg 268 208 0.4 0.3 0;
#X connect 0 0 22 0;
#X connect 1 0 20 0;
#X connect 2 0 1 1;
#X connect 3 0 1 1;
#X connect 4 0 25 0;
#X connect 5 0 7 0;
#X connect 6 0 21 0;
#X connect 7 0 56 0;
#X connect 7 0 40 0;
#X connect 7 1 55 0;
#X connect 7 1 44 0;
#X connect 8 0 24 0;
#X connect 9 0 23 0;
#X connect 10 0 19 0;
#X connect 11 0 13 0;
#X connect 12 0 18 0;
#X connect 13 0 53 0;
#X connect 13 0 35 0;
#X connect 13 1 51 0;
#X connect 13 1 34 0;
#X connect 14 0 49 0;
#X connect 15 0 5 0;
#X connect 16 0 48 0;
#X connect 17 0 11 0;
#X connect 19 0 12 0;
#X connect 22 0 1 0;
#X connect 24 0 9 0;
#X connect 25 0 6 0;
#X connect 26 0 31 0;
#X connect 27 0 36 0;
#X connect 27 0 30 0;
#X connect 28 0 26 0;
#X connect 30 0 29 1;
#X connect 31 0 29 0;
#X connect 32 0 29 0;
#X connect 34 0 33 0;
#X connect 36 0 29 0;
#X connect 38 0 37 0;
#X connect 40 0 39 0;
#X connect 42 0 41 0;
#X connect 43 0 37 0;
#X connect 44 0 39 0;
#X connect 45 0 41 0;
#X connect 47 0 52 0;
#X connect 47 0 38 0;
#X connect 47 1 54 0;
#X connect 47 1 43 0;
#X connect 48 0 47 0;
#X connect 49 0 50 0;
#X connect 50 0 3 0;
#X connect 50 0 42 0;
#X connect 50 1 2 0;
#X connect 50 1 45 0;
#X connect 51 0 12 1;
#X connect 52 0 9 1;
#X connect 53 0 12 1;
#X connect 54 0 9 1;
#X connect 55 0 6 1;
#X connect 56 0 6 1;
#X restore 29 207 pd jlu;
#X restore 665 272 pd viz elements;
#X obj 332 552 gesturegridr;
#X obj -133 129 Instrumodekey2;
#X obj -134 273 Instrumodekey3;
#X obj -137 411 Instrumodekey4;
#N canvas 1024 0 1024 716 noisemaker 1;
#X obj -20 6 cnv 15 300 100 empty empty empty 20 12 0 14 -258113 -66577
0;
#X obj 50 21 r lip;
#X obj -14 28 value;
#X obj 215 24 r pgmout;
#X text 8 4 Incoming controller data;
#X msg 294 8 \; pd dsp 1;
#X msg 370 8 \; pd dsp 0;
#N canvas 0 0 450 300 (subpatch) 0;
#X array noisemaker 100 float 5;
#A 0 -0.120871 -0.12088 -0.120888 -0.120897 -0.120906 -0.120915 -0.120924
-0.120933 -0.120942 -0.120951 -0.12096 -0.120969 -0.120978 -0.120987
-0.120997 -0.121006 -0.121015 -0.121024 -0.121034 -0.121043 -0.121052
-0.121061 -0.121071 -0.12108 -0.121089 -0.121098 -0.121108 -0.121117
-0.121127 -0.121136 -0.121146 -0.121155 -0.121165 -0.121174 -0.121184
-0.121193 -0.121203 -0.121213 -0.121222 -0.121232 -0.121242 -0.121252
-0.121261 -0.121271 -0.121281 -0.121291 -0.1213 -0.12131 -0.12132 -0.12133
-0.12134 -0.12135 -0.12136 -0.12137 -0.12138 -0.12139 -0.1214 -0.12141
-0.12142 -0.12143 -0.12144 -0.121451 -0.121461 -0.121471 -0.121481
-0.121492 -0.121502 -0.121512 -0.121522 -0.121533 -0.121543 -0.121553
-0.121564 -0.121574 -0.121585 -0.121595 -0.121606 -0.121616 -0.121627
-0.121637 -0.121648 -0.121658 -0.121669 -0.12168 -0.12169 -0.121701
-0.121712 -0.121723 -0.121733 -0.121744 -0.121755 -0.121766 -0.121776
-0.121787 -0.121798 -0.121809 -0.12182 -0.121831 -0.121842 -0.121853
;
#X coords 0 1 99 -1 200 140 1;
#X restore 21 313 graph;
#X floatatom 571 388 5 0 0 0 - - -;
#X obj 571 368 r breath;
#X obj 474 5 cnv 15 200 200 empty empty empty 20 12 0 14 -260097 -66577
0;
#N canvas 1032 64 1016 664 osc 0;
#X obj 268 -94 r f1xlrmtr;
#X obj 221 -93 r f1voc;
#X obj 156 -91 r f1square;
#X obj 108 -91 r f1saw;
#X obj 54 -90 r f1sine;
#X obj 554 -95 r f2xlrmtr;
#X obj 504 -95 r f2voc;
#X obj 437 -95 r f2square;
#X obj 390 -96 r f2saw;
#X obj 335 -96 r f2sine;
#X msg 54 -68 1;
#X msg 108 -69 2;
#X msg 157 -69 3;
#X msg 223 -72 4;
#X msg 269 -70 5;
#X obj 82 -39 int;
#X obj 49 -12 == 1;
#X obj 77 -12 == 2;
#X obj 106 -13 == 3;
#X obj 135 -13 == 4;
#X obj 164 -14 == 5;
#X obj 75 124 tgl 15 0 empty empty empty 17 7 0 10 -262144 -1 -1 0
1;
#X obj 76 142 tgl 15 0 empty empty empty 17 7 0 10 -262144 -1 -1 0
1;
#X obj 76 178 tgl 15 0 empty empty empty 17 7 0 10 -262144 -1 -1 0
1;
#X obj 76 160 tgl 15 0 empty empty empty 17 7 0 10 -262144 -1 -1 0
1;
#X obj 74 106 tgl 15 0 empty empty empty 17 7 0 10 -262144 -1 -1 0
1;
#X text 80 193 1;
#X msg 337 -65 1;
#X msg 391 -66 2;
#X msg 440 -66 3;
#X msg 506 -69 4;
#X msg 552 -67 5;
#X obj 365 -36 int;
#X obj 332 -9 == 1;
#X obj 360 -9 == 2;
#X obj 389 -10 == 3;
#X obj 418 -10 == 4;
#X obj 447 -11 == 5;
#X obj 94 123 tgl 15 0 empty empty empty 17 7 0 10 -262144 -1 -1 0
1;
#X obj 95 142 tgl 15 0 empty empty empty 17 7 0 10 -262144 -1 -1 0
1;
#X obj 95 179 tgl 15 0 empty empty empty 17 7 0 10 -262144 -1 -1 0
1;
#X obj 95 160 tgl 15 0 empty empty empty 17 7 0 10 -262144 -1 -1 0
1;
#X obj 93 106 tgl 15 0 empty empty empty 17 7 0 10 -262144 -1 -1 0
1;
#X msg 626 -64 1;
#X msg 680 -65 2;
#X msg 729 -65 3;
#X msg 795 -68 4;
#X msg 841 -66 5;
#X obj 654 -35 int;
#X obj 621 -8 == 1;
#X obj 649 -8 == 2;
#X obj 678 -9 == 3;
#X obj 707 -9 == 4;
#X obj 736 -10 == 5;
#X text 99 191 2;
#X obj 113 123 tgl 15 0 empty empty empty 17 7 0 10 -262144 -1 -1 0
1;
#X obj 114 141 tgl 15 0 empty empty empty 17 7 0 10 -262144 -1 -1 0
1;
#X obj 114 179 tgl 15 0 empty empty empty 17 7 0 10 -262144 -1 -1 0
1;
#X obj 114 160 tgl 15 0 empty empty empty 17 7 0 10 -262144 -1 -1 0
1;
#X obj 113 106 tgl 15 0 empty empty empty 17 7 0 10 -262144 -1 -1 0
1;
#X text 117 191 3;
#X obj 624 -95 r f3sine;
#X obj 679 -95 r f3saw;
#X obj 726 -94 r f3square;
#X obj 793 -94 r f3voc;
#X obj 843 -94 r f3xlrmtr;
#X obj 503 59 r mynotemsg;
#X obj 503 83 unpack f f f;
#N canvas 196 201 717 456 xlrmtr 0;
#X obj 596 38 table xaxis;
#X obj 156 135 sig~;
#X obj 40 126 sig~;
#X obj 93 129 sig~;
#X obj 598 63 table yaxis;
#X obj 612 87 table zaxis;
#X obj 43 338 tabwrite~ xaxis;
#X obj 44 319 metro 100;
#X obj 43 300 bng 15 250 50 0 empty empty empty 17 7 0 10 -262144 -1
-1;
#X obj 171 351 tabwrite~ yaxis;
#X obj 298 322 tabwrite~ zaxis;
#X obj 171 330 metro 100;
#X obj 171 312 bng 15 250 50 0 empty empty empty 17 7 0 10 -262144
-1 -1;
#X obj 298 301 metro 100;
#X obj 297 283 bng 15 250 50 0 empty empty empty 17 7 0 10 -262144
-1 -1;
#X obj 92 87 r oscxr;
#X obj 326 96 r osczr;
#X obj 208 112 r oscyr;
#X obj 153 112 r oscyl;
#X obj 275 103 r osczl;
#X obj 44 89 r oscxl;
#X obj 183 165 +~;
#X obj 288 167 +~;
#X obj 208 131 sig~;
#X obj 276 136 sig~;
#X obj 321 137 sig~;
#X obj 228 327 tabplay~;
#X obj 96 -46 inlet;
#X obj 523 376 outlet~;
#X obj 75 247 *~;
#X obj 242 223 *~;
#X obj 335 239 *~;
#X floatatom 89 159 5 0 0 0 - - -;
#X obj 45 189 -~ 1;
#X obj 94 204 phasor~ 220;
#X obj 40 149 +~;
#X obj 169 193 -~ 1;
#X obj 227 177 phasor~;
#X obj 335 203 noise~;
#X obj 294 204 -~ 1;
#X connect 1 0 21 0;
#X connect 2 0 35 0;
#X connect 3 0 35 1;
#X connect 7 0 6 0;
#X connect 8 0 7 0;
#X connect 11 0 9 0;
#X connect 12 0 11 0;
#X connect 13 0 10 0;
#X connect 14 0 13 0;
#X connect 15 0 3 0;
#X connect 16 0 25 0;
#X connect 17 0 23 0;
#X connect 18 0 1 0;
#X connect 19 0 24 0;
#X connect 20 0 2 0;
#X connect 21 0 36 0;
#X connect 22 0 39 0;
#X connect 23 0 21 1;
#X connect 24 0 22 0;
#X connect 25 0 22 1;
#X connect 27 0 34 0;
#X connect 27 0 37 0;
#X connect 27 0 38 0;
#X connect 29 0 28 0;
#X connect 29 0 6 0;
#X connect 30 0 28 0;
#X connect 30 0 9 0;
#X connect 31 0 10 0;
#X connect 31 0 28 0;
#X connect 32 0 33 1;
#X connect 33 0 6 0;
#X connect 33 0 29 0;
#X connect 33 0 28 0;
#X connect 34 0 29 1;
#X connect 35 0 33 0;
#X connect 36 0 9 0;
#X connect 36 0 28 0;
#X connect 36 0 30 0;
#X connect 37 0 30 1;
#X connect 38 0 31 0;
#X connect 39 0 31 1;
#X connect 39 0 28 0;
#X restore 349 272 pd xlrmtr;
#X obj 173 342 send~ osc1;
#N canvas 1494 45 463 637 pitch 0;
#X obj 313 48 r 2pup;
#X obj 150 46 r 2pdwn;
#X floatatom 277 2 5 0 0 0 - - -;
#X obj 245 -25 int;
#X obj 244 -50 + 0.5;
#X msg 349 131 12;
#X obj 241 245 +;
#X msg 189 129 -12;
#X msg 256 132 0;
#X obj 313 72 sel 0 1;
#X obj 151 71 sel 0 1;
#X floatatom 263 283 5 0 0 0 - - -;
#X obj 233 34 +;
#X obj 158 -201 inlet note number;
#X obj 237 332 outlet;
#X obj 29 -5 spigot;
#X obj 95 -62 r \$0-key6;
#X obj 62 -40 spigot;
#X obj 60 -83 r fkey2;
#X obj 236 306 mtof;
#X floatatom 122 -143 5 0 0 0 - - -;
#X obj 227 -98 t b f;
#X obj 231 -133 average 10;
#X obj 243 -71 / 11;
#X obj 234 -160 r 5gy;
#X connect 0 0 9 0;
#X connect 1 0 10 0;
#X connect 3 0 12 1;
#X connect 4 0 3 0;
#X connect 5 0 6 1;
#X connect 6 0 11 0;
#X connect 6 0 19 0;
#X connect 7 0 6 1;
#X connect 8 0 6 1;
#X connect 9 0 8 0;
#X connect 9 1 5 0;
#X connect 10 0 8 0;
#X connect 10 1 7 0;
#X connect 12 0 6 0;
#X connect 13 0 20 0;
#X connect 13 0 12 0;
#X connect 16 0 17 1;
#X connect 17 0 15 1;
#X connect 18 0 17 0;
#X connect 19 0 14 0;
#X connect 21 0 12 0;
#X connect 21 1 23 0;
#X connect 22 0 21 0;
#X connect 23 0 4 0;
#X connect 24 0 22 0;
#X restore 550 155 pd pitch ctrl osc2;
#N canvas 1104 51 516 619 pitch 0;
#X obj 221 134 r 1pup;
#X obj 66 121 r 1pdwn;
#X floatatom 185 100 5 0 0 0 - - -;
#X obj 153 73 int;
#X obj 152 48 + 0.5;
#X msg 257 229 12;
#X obj 150 339 +;
#X msg 97 227 -12;
#X msg 164 230 0;
#X obj 221 170 sel 0 1;
#X obj 59 169 sel 0 1;
#X floatatom 171 381 5 0 0 0 - - -;
#X text 97 155 octave changer;
#X obj 141 132 +;
#X obj 65 -84 inlet note number;
#X obj 146 488 outlet;
#X obj -62 57 spigot;
#X obj -15 4 r \$0-key5;
#X obj -23 26 spigot;
#X obj -23 -19 r fkey2;
#X floatatom -18 73 5 0 0 0 - - -;
#X floatatom 212 445 5 0 0 0 - - -;
#X obj 146 406 mtof;
#X obj 139 2 t b f;
#X floatatom 181 -40 5 0 0 0 - - -;
#X obj 138 -19 average 10;
#X floatatom 206 -19 5 0 0 0 - - -;
#X obj 151 27 / 11;
#X obj 312 49 bendin;
#X obj 313 72 - 8192;
#X obj 313 95 / 8192;
#X obj 316 118 * 1200;
#X obj 365 48 * 100;
#X obj 415 33 inlet;
#X floatatom 352 4 5 0 0 0 - - -;
#X obj 137 -40 r 4gy;
#X connect 0 0 9 0;
#X connect 1 0 10 0;
#X connect 3 0 2 0;
#X connect 3 0 13 1;
#X connect 4 0 3 0;
#X connect 5 0 6 1;
#X connect 6 0 11 0;
#X connect 6 0 22 0;
#X connect 7 0 6 1;
#X connect 8 0 6 1;
#X connect 9 0 8 0;
#X connect 9 1 5 0;
#X connect 10 0 8 0;
#X connect 10 1 7 0;
#X connect 13 0 6 0;
#X connect 14 0 13 0;
#X connect 17 0 18 1;
#X connect 18 0 16 1;
#X connect 18 0 20 0;
#X connect 19 0 18 0;
#X connect 22 0 15 0;
#X connect 22 0 21 0;
#X connect 23 0 13 0;
#X connect 23 1 27 0;
#X connect 25 0 26 0;
#X connect 25 0 23 0;
#X connect 27 0 4 0;
#X connect 28 0 29 0;
#X connect 29 0 30 0;
#X connect 30 0 31 0;
#X connect 32 0 31 1;
#X connect 33 0 31 0;
#X connect 34 0 32 0;
#X connect 35 0 24 0;
#X connect 35 0 25 0;
#X restore 430 155 pd pitch ctrl osc1;
#N canvas 449 84 450 661 pitch 0;
#X obj 224 115 int;
#X obj 223 90 + 0.5;
#X msg 328 271 12;
#X obj 221 379 +;
#X msg 168 269 -12;
#X msg 235 272 0;
#X obj 292 212 sel 0 1;
#X obj 130 211 sel 0 1;
#X floatatom 242 423 5 0 0 0 - - -;
#X text 168 197 octave changer;
#X obj 212 174 +;
#X obj 134 -16 inlet note number;
#X obj 219 468 outlet;
#X obj 130 190 r 3pdwn;
#X obj 292 191 r 3pup;
#X obj 44 447 spigot;
#X obj 111 383 r \$0-key7;
#X obj 77 408 spigot;
#X obj 76 361 r fkey2;
#X obj 218 446 mtof;
#X floatatom 77 42 5 0 0 0 - - -;
#X obj 204 46 t b f;
#X obj 203 28 average 10;
#X obj 222 69 / 11;
#X obj 205 8 r 6gy;
#X floatatom 283 0 5 0 0 0 - - -;
#X connect 0 0 10 1;
#X connect 1 0 0 0;
#X connect 2 0 3 1;
#X connect 3 0 8 0;
#X connect 3 0 19 0;
#X connect 4 0 3 1;
#X connect 5 0 3 1;
#X connect 6 0 5 0;
#X connect 6 1 2 0;
#X connect 7 0 5 0;
#X connect 7 1 4 0;
#X connect 10 0 3 0;
#X connect 11 0 20 0;
#X connect 11 0 10 0;
#X connect 13 0 7 0;
#X connect 14 0 6 0;
#X connect 16 0 17 1;
#X connect 17 0 15 1;
#X connect 18 0 17 0;
#X connect 19 0 12 0;
#X connect 21 0 10 0;
#X connect 21 1 23 0;
#X connect 22 0 21 0;
#X connect 23 0 1 0;
#X connect 24 0 22 0;
#X connect 24 0 25 0;
#X restore 675 155 pd pitch ctrl osc3;
#X floatatom 599 84 5 0 0 0 - - -;
#X obj 154 269 osc~;
#X obj 135 291 spigot~;
#X obj 251 249 phasor~;
#N canvas 0 0 450 300 voc 0;
#X obj 306 58 inlet;
#X obj 290 190 outlet~;
#X obj 171 69 adc~;
#X restore 304 272 pd voc;
#X obj 187 292 spigot~;
#X obj 249 294 spigot~;
#X obj 297 295 spigot~;
#X obj 349 296 spigot~;
#X obj 424 277 osc~;
#X obj 405 299 spigot~;
#X obj 523 280 phasor~;
#N canvas 0 0 450 300 voc 0;
#X obj 241 119 inlet;
#X obj 250 166 outlet~;
#X restore 574 280 pd voc;
#X obj 457 300 spigot~;
#X obj 519 302 spigot~;
#X obj 567 303 spigot~;
#X obj 619 304 spigot~;
#X obj 691 286 osc~;
#X obj 672 311 spigot~;
#X obj 790 289 phasor~;
#N canvas 0 0 450 300 voc 0;
#X obj 241 119 inlet;
#X obj 250 166 outlet~;
#X restore 841 289 pd voc;
#X obj 724 309 spigot~;
#X obj 786 311 spigot~;
#X obj 834 312 spigot~;
#X obj 886 313 spigot~;
#X obj 443 350 send~ osc2;
#X obj 710 359 send~ osc3;
#X obj 193 249 phasor~;
#X obj 191 272 expr~ $v1 > 0.5;
#X obj 456 236 phasor~;
#X obj 453 258 expr~ $v1 > 0.5;
#X obj 721 249 phasor~;
#X obj 719 267 expr~ $v1 > 0.5;
#N canvas 196 201 717 456 xlrmtr 0;
#X obj 596 38 table xaxis;
#X obj 156 135 sig~;
#X obj 40 126 sig~;
#X obj 93 129 sig~;
#X obj 598 63 table yaxis;
#X obj 612 87 table zaxis;
#X obj 43 338 tabwrite~ xaxis;
#X obj 44 319 metro 100;
#X obj 43 300 bng 15 250 50 0 empty empty empty 17 7 0 10 -262144 -1
-1;
#X obj 171 351 tabwrite~ yaxis;
#X obj 298 322 tabwrite~ zaxis;
#X obj 171 330 metro 100;
#X obj 171 312 bng 15 250 50 0 empty empty empty 17 7 0 10 -262144
-1 -1;
#X obj 298 301 metro 100;
#X obj 297 283 bng 15 250 50 0 empty empty empty 17 7 0 10 -262144
-1 -1;
#X obj 92 87 r oscxr;
#X obj 326 96 r osczr;
#X obj 208 112 r oscyr;
#X obj 153 112 r oscyl;
#X obj 275 103 r osczl;
#X obj 44 89 r oscxl;
#X obj 183 165 +~;
#X obj 288 167 +~;
#X obj 208 131 sig~;
#X obj 276 136 sig~;
#X obj 321 137 sig~;
#X obj 228 327 tabplay~;
#X obj 96 -46 inlet;
#X obj 523 376 outlet~;
#X obj 75 247 *~;
#X obj 242 223 *~;
#X obj 335 239 *~;
#X floatatom 89 159 5 0 0 0 - - -;
#X obj 45 189 -~ 1;
#X obj 94 204 phasor~ 220;
#X obj 40 149 +~;
#X obj 169 193 -~ 1;
#X obj 227 177 phasor~;
#X obj 335 203 noise~;
#X obj 294 204 -~ 1;
#X connect 1 0 21 0;
#X connect 2 0 35 0;
#X connect 3 0 35 1;
#X connect 7 0 6 0;
#X connect 8 0 7 0;
#X connect 11 0 9 0;
#X connect 12 0 11 0;
#X connect 13 0 10 0;
#X connect 14 0 13 0;
#X connect 15 0 3 0;
#X connect 16 0 25 0;
#X connect 17 0 23 0;
#X connect 18 0 1 0;
#X connect 19 0 24 0;
#X connect 20 0 2 0;
#X connect 21 0 36 0;
#X connect 22 0 39 0;
#X connect 23 0 21 1;
#X connect 24 0 22 0;
#X connect 25 0 22 1;
#X connect 27 0 34 0;
#X connect 27 0 37 0;
#X connect 27 0 38 0;
#X connect 29 0 28 0;
#X connect 29 0 6 0;
#X connect 30 0 28 0;
#X connect 30 0 9 0;
#X connect 31 0 10 0;
#X connect 31 0 28 0;
#X connect 32 0 33 1;
#X connect 33 0 6 0;
#X connect 33 0 29 0;
#X connect 33 0 28 0;
#X connect 34 0 29 1;
#X connect 35 0 33 0;
#X connect 36 0 9 0;
#X connect 36 0 28 0;
#X connect 36 0 30 0;
#X connect 37 0 30 1;
#X connect 38 0 31 0;
#X connect 39 0 31 1;
#X connect 39 0 28 0;
#X restore 619 279 pd xlrmtr;
#N canvas 196 201 717 456 xlrmtr 0;
#X obj 596 38 table xaxis;
#X obj 156 135 sig~;
#X obj 40 126 sig~;
#X obj 93 129 sig~;
#X obj 598 63 table yaxis;
#X obj 612 87 table zaxis;
#X obj 43 338 tabwrite~ xaxis;
#X obj 44 319 metro 100;
#X obj 43 300 bng 15 250 50 0 empty empty empty 17 7 0 10 -262144 -1
-1;
#X obj 171 351 tabwrite~ yaxis;
#X obj 298 322 tabwrite~ zaxis;
#X obj 171 330 metro 100;
#X obj 171 312 bng 15 250 50 0 empty empty empty 17 7 0 10 -262144
-1 -1;
#X obj 298 301 metro 100;
#X obj 297 283 bng 15 250 50 0 empty empty empty 17 7 0 10 -262144
-1 -1;
#X obj 92 87 r oscxr;
#X obj 326 96 r osczr;
#X obj 208 112 r oscyr;
#X obj 153 112 r oscyl;
#X obj 275 103 r osczl;
#X obj 44 89 r oscxl;
#X obj 183 165 +~;
#X obj 288 167 +~;
#X obj 208 131 sig~;
#X obj 276 136 sig~;
#X obj 321 137 sig~;
#X obj 228 327 tabplay~;
#X obj 96 -46 inlet;
#X obj 523 376 outlet~;
#X obj 75 247 *~;
#X obj 242 223 *~;
#X obj 335 239 *~;
#X floatatom 89 159 5 0 0 0 - - -;
#X obj 45 189 -~ 1;
#X obj 94 204 phasor~ 220;
#X obj 40 149 +~;
#X obj 169 193 -~ 1;
#X obj 227 177 phasor~;
#X obj 335 203 noise~;
#X obj 294 204 -~ 1;
#X connect 1 0 21 0;
#X connect 2 0 35 0;
#X connect 3 0 35 1;
#X connect 7 0 6 0;
#X connect 8 0 7 0;
#X connect 11 0 9 0;
#X connect 12 0 11 0;
#X connect 13 0 10 0;
#X connect 14 0 13 0;
#X connect 15 0 3 0;
#X connect 16 0 25 0;
#X connect 17 0 23 0;
#X connect 18 0 1 0;
#X connect 19 0 24 0;
#X connect 20 0 2 0;
#X connect 21 0 36 0;
#X connect 22 0 39 0;
#X connect 23 0 21 1;
#X connect 24 0 22 0;
#X connect 25 0 22 1;
#X connect 27 0 34 0;
#X connect 27 0 37 0;
#X connect 27 0 38 0;
#X connect 29 0 28 0;
#X connect 29 0 6 0;
#X connect 30 0 28 0;
#X connect 30 0 9 0;
#X connect 31 0 10 0;
#X connect 31 0 28 0;
#X connect 32 0 33 1;
#X connect 33 0 6 0;
#X connect 33 0 29 0;
#X connect 33 0 28 0;
#X connect 34 0 29 1;
#X connect 35 0 33 0;
#X connect 36 0 9 0;
#X connect 36 0 28 0;
#X connect 36 0 30 0;
#X connect 37 0 30 1;
#X connect 38 0 31 0;
#X connect 39 0 31 1;
#X connect 39 0 28 0;
#X restore 898 287 pd xlrmtr;
#X connect 0 0 14 0;
#X connect 1 0 13 0;
#X connect 2 0 12 0;
#X connect 3 0 11 0;
#X connect 4 0 10 0;
#X connect 5 0 31 0;
#X connect 6 0 30 0;
#X connect 7 0 29 0;
#X connect 8 0 28 0;
#X connect 9 0 27 0;
#X connect 10 0 15 0;
#X connect 11 0 15 0;
#X connect 12 0 15 0;
#X connect 13 0 15 0;
#X connect 14 0 15 0;
#X connect 15 0 16 0;
#X connect 15 0 17 0;
#X connect 15 0 18 0;
#X connect 15 0 19 0;
#X connect 15 0 20 0;
#X connect 16 0 23 0;
#X connect 17 0 24 0;
#X connect 18 0 22 0;
#X connect 19 0 21 0;
#X connect 20 0 25 0;
#X connect 21 0 80 1;
#X connect 22 0 79 1;
#X connect 23 0 75 1;
#X connect 24 0 78 1;
#X connect 25 0 81 1;
#X connect 27 0 32 0;
#X connect 28 0 32 0;
#X connect 29 0 32 0;
#X connect 30 0 32 0;
#X connect 31 0 32 0;
#X connect 32 0 33 0;
#X connect 32 0 34 0;
#X connect 32 0 35 0;
#X connect 32 0 36 0;
#X connect 32 0 37 0;
#X connect 33 0 40 0;
#X connect 34 0 41 0;
#X connect 35 0 39 0;
#X connect 36 0 38 0;
#X connect 37 0 42 0;
#X connect 38 0 88 1;
#X connect 39 0 87 1;
#X connect 40 0 83 1;
#X connect 41 0 86 1;
#X connect 42 0 89 1;
#X connect 43 0 48 0;
#X connect 44 0 48 0;
#X connect 45 0 48 0;
#X connect 46 0 48 0;
#X connect 47 0 48 0;
#X connect 48 0 49 0;
#X connect 48 0 50 0;
#X connect 48 0 51 0;
#X connect 48 0 52 0;
#X connect 48 0 53 0;
#X connect 49 0 57 0;
#X connect 50 0 58 0;
#X connect 51 0 56 0;
#X connect 52 0 55 0;
#X connect 53 0 59 0;
#X connect 55 0 96 1;
#X connect 56 0 95 1;
#X connect 57 0 91 1;
#X connect 58 0 94 1;
#X connect 59 0 97 1;
#X connect 61 0 43 0;
#X connect 62 0 44 0;
#X connect 63 0 45 0;
#X connect 64 0 46 0;
#X connect 65 0 47 0;
#X connect 66 0 67 0;
#X connect 67 0 73 0;
#X connect 67 0 71 0;
#X connect 67 0 70 0;
#X connect 67 0 72 0;
#X connect 68 0 81 0;
#X connect 70 0 82 0;
#X connect 70 0 84 0;
#X connect 70 0 85 0;
#X connect 70 0 102 0;
#X connect 70 0 106 0;
#X connect 71 0 74 0;
#X connect 71 0 76 0;
#X connect 71 0 77 0;
#X connect 71 0 100 0;
#X connect 71 0 68 0;
#X connect 72 0 90 0;
#X connect 72 0 92 0;
#X connect 72 0 93 0;
#X connect 72 0 104 0;
#X connect 72 0 107 0;
#X connect 74 0 75 0;
#X connect 75 1 69 0;
#X connect 76 0 79 0;
#X connect 77 0 80 0;
#X connect 78 1 69 0;
#X connect 79 1 69 0;
#X connect 80 1 69 0;
#X connect 81 1 69 0;
#X connect 82 0 83 0;
#X connect 83 1 98 0;
#X connect 84 0 87 0;
#X connect 85 0 88 0;
#X connect 86 1 98 0;
#X connect 87 1 98 0;
#X connect 88 1 98 0;
#X connect 89 1 98 0;
#X connect 90 0 91 0;
#X connect 91 1 99 0;
#X connect 92 0 95 0;
#X connect 93 0 96 0;
#X connect 94 1 99 0;
#X connect 95 1 99 0;
#X connect 96 1 99 0;
#X connect 97 1 99 0;
#X connect 100 0 101 0;
#X connect 101 0 78 0;
#X connect 102 0 103 0;
#X connect 103 0 86 0;
#X connect 104 0 105 0;
#X connect 105 0 94 0;
#X connect 106 0 89 0;
#X connect 107 0 97 0;
#X coords 0 -1 1 1 70 110 2 70 100;
#X restore 536 40 pd osc selection;
#N canvas 920 52 1024 716 osc 0;
#X obj 110 17 r~ osc1;
#X obj 380 34 r~ osc2;
#X obj 684 47 r~ osc3;
#X obj 144 256 r 1gx;
#X obj 142 277 / 127;
#X obj 121 596 outlet~;
#X obj 390 596 outlet~;
#X obj 682 598 outlet~;
#X floatatom 176 279 5 0 0 0 - - -;
#X obj 126 306 *~ 0.1;
#X obj -55 97 clip 0 127;
#X text -18 73 Rate;
#X obj -54 77 - 5;
#X obj -54 55 average 10;
#X obj -57 118 osc~ 0.25;
#X text 858 402 Depth;
#X obj -52 36 r 10gx;
#X obj 24 67 r 10gy;
#X obj -36 168 +~ 1;
#X obj -36 188 *~;
#X obj -61 221 +~;
#X obj 421 317 / 127;
#X floatatom 455 319 5 0 0 0 - - -;
#X obj 405 346 *~ 0.1;
#X obj 693 323 / 127;
#X floatatom 727 325 5 0 0 0 - - -;
#X obj 677 352 *~ 0.1;
#X obj 423 296 r 2gx;
#X obj 695 302 r 3gx;
#X obj 685 524 +~ 0.01;
#X obj 396 531 +~ 0.01;
#X obj 135 544 +~ 0.01;
#X obj 208 396 limiter~;
#X obj 21 94 clip 0 127;
#X obj 181 159 +~ 1;
#X obj 183 117 clip 0 127;
#X text 220 93 Rate;
#X obj 184 97 - 5;
#X obj 184 75 average 10;
#X obj 181 138 osc~ 0.25;
#X obj 259 114 clip 0 127;
#X obj 186 56 r 11gx;
#X obj 262 87 r 11gy;
#X text 230 103 Rate;
#X obj 202 193 *~;
#X connect 0 0 9 0;
#X connect 1 0 23 0;
#X connect 2 0 26 0;
#X connect 3 0 4 0;
#X connect 4 0 8 0;
#X connect 4 0 9 1;
#X connect 9 0 31 0;
#X connect 10 0 14 0;
#X connect 12 0 10 0;
#X connect 13 0 12 0;
#X connect 14 0 18 0;
#X connect 16 0 13 0;
#X connect 17 0 33 0;
#X connect 18 0 19 0;
#X connect 19 0 20 1;
#X connect 21 0 22 0;
#X connect 21 0 23 1;
#X connect 23 0 30 0;
#X connect 24 0 25 0;
#X connect 24 0 26 1;
#X connect 26 0 29 0;
#X connect 27 0 21 0;
#X connect 28 0 24 0;
#X connect 29 0 7 0;
#X connect 30 0 6 0;
#X connect 31 0 5 0;
#X connect 33 0 19 1;
#X connect 34 0 44 0;
#X connect 35 0 39 0;
#X connect 37 0 35 0;
#X connect 38 0 37 0;
#X connect 39 0 34 0;
#X connect 40 0 44 1;
#X connect 41 0 38 0;
#X connect 42 0 40 0;
#X restore 528 155 pd osc volume;
#X text 511 4 KEY 1-FUNCTIONS 1 2 3;
#X text 509 15 OSCILLATOR TYPE/VOLUME;
#N canvas 1129 162 842 522 Envelope 0;
#X obj 206 87 inlet~;
#X obj 313 85 inlet~;
#X obj 93 89 inlet~;
#X obj 248 420 outlet~;
#X obj 205 171 +~;
#X obj 312 174 +~;
#X obj 413 120 average 10;
#X obj 415 101 r 11gx;
#X obj 491 132 r 11gy;
#X obj 430 216 osc~;
#X floatatom 457 101 5 0 0 0 - - -;
#X floatatom 526 170 5 0 0 0 - - -;
#X obj 413 143 / 4;
#X floatatom 378 207 5 0 0 0 - - -;
#X obj 424 163 - 2;
#X obj 428 188 clip 0 127;
#X obj 494 170 / 64;
#X obj 481 233 *~;
#X obj 253 330 *~;
#X obj 253 368 -~ 0.2;
#X text 494 106 GAIN LFO;
#X connect 0 0 4 0;
#X connect 1 0 5 0;
#X connect 2 0 4 1;
#X connect 2 0 5 1;
#X connect 2 0 18 0;
#X connect 4 0 18 0;
#X connect 5 0 18 0;
#X connect 6 0 12 0;
#X connect 7 0 6 0;
#X connect 7 0 10 0;
#X connect 8 0 16 0;
#X connect 9 0 17 0;
#X connect 12 0 14 0;
#X connect 14 0 15 0;
#X connect 15 0 9 0;
#X connect 15 0 13 0;
#X connect 16 0 11 0;
#X connect 16 0 17 1;
#X connect 17 0 18 1;
#X connect 18 0 19 0;
#X connect 19 0 3 0;
#X restore 535 179 pd Envelope;
#N canvas 387 163 450 300 lfo 0;
#X obj 256 21 inlet~;
#X obj 297 253 outlet~;
#X obj 197 83 r 10gx;
#X obj 196 104 r 10gy;
#X obj 199 132 r 11gx;
#X obj 198 151 r 11gy;
#X connect 0 0 1 0;
#X restore 535 217 pd lfo array;
#N canvas 0 0 1024 716 filter 0;
#X obj 283 607 outlet~;
#X floatatom 560 442 5 0 0 0 - - -;
#X obj 506 441 clip 0 4;
#X text 521 469 Resonance;
#X obj 142 14 inlet~;
#X obj 224 12 inlet~;
#X obj 477 418 r breath;
#X obj 364 192 *~ 1.5;
#X obj 399 241 spigot~;
#X obj 482 245 spigot~;
#X obj 557 237 spigot~;
#X obj 641 239 spigot~;
#X obj 712 241 spigot~;
#X obj 436 291 lop~;
#X obj 521 289 hip~;
#X obj 597 287 bp~;
#X obj 678 290 vcf~;
#X obj 752 289 moog~;
#X msg 448 63 1;
#X msg 502 62 2;
#X msg 551 62 3;
#X msg 617 59 4;
#X msg 663 61 5;
#X obj 476 92 int;
#X obj 443 119 == 1;
#X obj 471 119 == 2;
#X obj 500 118 == 3;
#X obj 529 118 == 4;
#X obj 558 117 == 5;
#X obj 677 2 r f7moog;
#X obj 610 4 r f7vcf;
#X obj 523 4 r f7bandpass;
#X obj 446 4 r f7hipass;
#X obj 363 6 r f7lowpass;
#X obj 103 125 tgl 15 0 empty empty empty 17 7 0 10 -262144 -1 -1 0
1;
#X obj 103 143 tgl 15 0 empty empty empty 17 7 0 10 -262144 -1 -1 0
1;
#X obj 103 179 tgl 15 0 empty empty empty 17 7 0 10 -262144 -1 -1 0
1;
#X obj 103 161 tgl 15 0 empty empty empty 17 7 0 10 -262144 -1 -1 1
1;
#X obj 103 107 tgl 15 0 empty empty empty 17 7 0 10 -262144 -1 -1 0
1;
#X text 107 194 1;
#X obj 487 298 bng 15 250 50 0 empty empty empty 17 7 0 10 -262144
-1 -1;
#X obj 307 423 *~ 0.4;
#X floatatom 516 524 5 0 0 0 - - -;
#X obj 401 454 mtof~;
#X obj 334 480 moog~ 220 3;
#X obj 812 150 mtof;
#X obj 735 147 mtof~;
#X obj 660 149 mtof;
#X obj 355 422 *~ 0.9;
#X obj 752 82 r 8gx;
#X obj 809 79 r 8gy;
#X obj 267 542 +~;
#X obj 284 572 +~;
#X obj 320 511 hip~ 40;
#X obj 713 489 pd~;
#X connect 2 0 1 0;
#X connect 2 0 44 2;
#X connect 4 0 41 0;
#X connect 4 0 51 0;
#X connect 5 0 7 0;
#X connect 6 0 42 0;
#X connect 6 0 43 0;
#X connect 7 0 8 0;
#X connect 7 0 9 0;
#X connect 7 0 10 0;
#X connect 7 0 11 0;
#X connect 7 0 12 0;
#X connect 8 1 13 0;
#X connect 9 1 14 0;
#X connect 10 1 15 0;
#X connect 11 1 16 0;
#X connect 12 1 17 0;
#X connect 13 0 48 0;
#X connect 14 0 48 0;
#X connect 15 0 48 0;
#X connect 16 0 48 0;
#X connect 17 0 48 0;
#X connect 18 0 23 0;
#X connect 19 0 23 0;
#X connect 20 0 23 0;
#X connect 21 0 23 0;
#X connect 22 0 23 0;
#X connect 23 0 24 0;
#X connect 23 0 25 0;
#X connect 23 0 26 0;
#X connect 23 0 27 0;
#X connect 23 0 28 0;
#X connect 24 0 36 0;
#X connect 25 0 37 0;
#X connect 26 0 35 0;
#X connect 27 0 34 0;
#X connect 28 0 38 0;
#X connect 29 0 22 0;
#X connect 30 0 21 0;
#X connect 31 0 20 0;
#X connect 32 0 19 0;
#X connect 33 0 18 0;
#X connect 34 0 11 1;
#X connect 35 0 10 1;
#X connect 36 0 8 1;
#X connect 37 0 9 1;
#X connect 38 0 12 1;
#X connect 43 0 44 1;
#X connect 44 0 53 0;
#X connect 45 0 14 1;
#X connect 45 0 13 1;
#X connect 46 0 16 1;
#X connect 46 0 17 1;
#X connect 47 0 15 1;
#X connect 48 0 44 0;
#X connect 49 0 46 0;
#X connect 49 0 47 0;
#X connect 50 0 17 2;
#X connect 50 0 16 2;
#X connect 50 0 45 0;
#X connect 50 0 15 2;
#X connect 51 0 52 0;
#X connect 52 0 0 0;
#X connect 53 0 51 1;
#X coords 0 -1 1 1 20 120 2 100 100;
#X restore 536 245 pd filter array;
#X obj 568 515 tabwrite~ noisemaker;
#X obj 570 494 metro 10;
#X obj 580 472 loadbang;
#X obj 572 406 / 127;
#X obj 539 544 dac~;
#X obj 539 427 *~ 0.7;
#X obj 600 276 *~;
#X obj 693 130 cnv 15 200 100 empty empty empty 20 12 0 14 -260097
-66577 0;
#X obj 706 157 pack f f f;
#X msg 705 180 1 \$1 \, 0.7 \$2 \, 0 \$3;
#X floatatom 773 128 5 0 0 0 - - -;
#X floatatom 735 128 5 0 0 0 - - -;
#X floatatom 701 128 5 0 0 0 - - -;
#X text 804 150 ADR;
#X obj 693 29 cnv 15 120 70 empty empty empty 20 12 0 14 -4032 -66577
0;
#X text 738 50 decay Yaxis;
#X text 735 28 attack Xaxis;
#X text 737 74 Release Xaixs;
#X obj 706 209 vline~;
#X obj 696 30 r 7gx;
#X obj 695 50 r 8gy;
#X obj 695 70 r 9gx;
#X obj 563 472 bng 15 250 50 0 empty empty empty 17 7 0 10 -262144
-1 -1;
#X obj 445 511 s~ dac;
#N canvas 0 0 450 300 (subpatch) 0;

