#N canvas -8 -8 1366 726 10;
#X obj 336 105 tgl 30 0 empty empty empty 17 7 0 10 -258113 -1 -1 0
1;
#X obj 302 105 tgl 30 0 empty empty empty 17 7 0 10 -258113 -1 -1 0
1;
#X obj 268 105 tgl 30 0 empty empty empty 17 7 0 10 -258113 -1 -1 0
1;
#X obj 235 127 tgl 30 0 empty empty empty 17 7 0 10 -258113 -1 -1 0
1;
#X obj 425 104 tgl 30 0 empty empty empty 17 7 0 10 -99865 -1 -1 0
1;
#X obj 458 104 tgl 30 0 empty empty empty 17 7 0 10 -128992 -1 -1 0
1;
#X obj 490 104 tgl 30 0 empty empty empty 17 7 0 10 -128992 -1 -1 0
1;
#X obj 523 126 tgl 30 0 empty empty empty 17 7 0 10 -128992 -1 -1 0
1;
#X text 234 110 Left;
#X text 522 108 Right;
#X obj 329 44 > 0.03;
#X obj 241 44 > 0.03;
#X obj 196 47 > 0.03;
#X obj 286 44 > 0.05;
#X obj 416 47 > 0.1;
#X obj 452 47 > 0.1;
#X obj 488 47 > 0.1;
#X obj 524 47 > 0.07;
#X text 343 113 1;
#X text 308 112 2;
#X text 274 113 3;
#X text 241 133 4;
#X obj 160 116 s flash;
#X obj 215 142 bng 15 250 50 0 empty empty empty 17 7 0 10 -262144
-1 -1;
#X obj 620 162 s preset;
#X floatatom 564 134 5 0 0 0 - - -;
#X obj 654 62 int;
#X text 531 134 8;
#X text 190 -15 create a subpatch with seperate graphics that replace
the primary graphics when switched to this mode;
#X obj 188 23 r fl4-1;
#X obj 236 22 r fl3-1;
#X obj 284 21 r fl2-1;
#X obj 334 22 r fl1-1;
#X obj 405 23 r fr4-1;
#X obj 447 23 r fr2-1;
#X obj 486 23 r fr3-1;
#X obj 531 23 r fr1-1;
#N canvas 598 180 236 269 bk 0;
#X obj 69 63 tgl 15 0 empty empty empty 17 7 0 10 -262144 -1 -1 0 3
;
#X obj 88 113 tgl 15 0 empty empty empty 17 7 0 10 -262144 -1 -1 0
1;
#X obj 62 44 * 3;
#X floatatom 27 51 5 0 0 0 - - -;
#X floatatom 98 139 5 0 0 0 - - -;
#X obj 59 3 inlet;
#X obj 94 199 outlet;
#X obj 42 81 threshold 2 1 1 2;
#X obj 173 68 r flash;
#X msg 176 103 0;
#X connect 1 0 4 0;
#X connect 2 0 0 0;
#X connect 2 0 3 0;
#X connect 2 0 7 0;
#X connect 4 0 6 0;
#X connect 5 0 2 0;
#X connect 7 0 1 0;
#X connect 7 1 1 0;
#X connect 8 0 9 0;
#X connect 9 0 1 0;
#X restore 537 71 pd bk;
#N canvas 598 180 236 269 bk 0;
#X obj 69 63 tgl 15 0 empty empty empty 17 7 0 10 -262144 -1 -1 0 3
;
#X obj 88 113 tgl 15 0 empty empty empty 17 7 0 10 -262144 -1 -1 0
1;
#X obj 62 44 * 3;
#X floatatom 27 51 5 0 0 0 - - -;
#X floatatom 98 139 5 0 0 0 - - -;
#X obj 59 3 inlet;
#X obj 94 199 outlet;
#X obj 42 81 threshold 2 1 1 2;
#X obj 173 68 r flash;
#X msg 176 103 0;
#X connect 1 0 4 0;
#X connect 2 0 0 0;
#X connect 2 0 3 0;
#X connect 2 0 7 0;
#X connect 4 0 6 0;
#X connect 5 0 2 0;
#X connect 7 0 1 0;
#X connect 7 1 1 0;
#X connect 8 0 9 0;
#X connect 9 0 1 0;
#X restore 411 69 pd bk;
#N canvas 598 180 236 269 bk 0;
#X obj 69 63 tgl 15 0 empty empty empty 17 7 0 10 -262144 -1 -1 0 3
;
#X obj 88 113 tgl 15 0 empty empty empty 17 7 0 10 -262144 -1 -1 0
1;
#X obj 62 44 * 3;
#X floatatom 27 51 5 0 0 0 - - -;
#X floatatom 98 139 5 0 0 0 - - -;
#X obj 59 3 inlet;
#X obj 94 199 outlet;
#X obj 42 81 threshold 2 1 1 2;
#X obj 173 68 r flash;
#X msg 176 103 0;
#X connect 1 0 4 0;
#X connect 2 0 0 0;
#X connect 2 0 3 0;
#X connect 2 0 7 0;
#X connect 4 0 6 0;
#X connect 5 0 2 0;
#X connect 7 0 1 0;
#X connect 7 1 1 0;
#X connect 8 0 9 0;
#X connect 9 0 1 0;
#X restore 452 71 pd bk;
#N canvas 598 180 236 269 bk 0;
#X obj 69 63 tgl 15 0 empty empty empty 17 7 0 10 -262144 -1 -1 0 3
;
#X obj 88 113 tgl 15 0 empty empty empty 17 7 0 10 -262144 -1 -1 0
1;
#X obj 62 44 * 3;
#X floatatom 27 51 5 0 0 0 - - -;
#X floatatom 98 139 5 0 0 0 - - -;
#X obj 59 3 inlet;
#X obj 94 199 outlet;
#X obj 42 81 threshold 2 1 1 2;
#X obj 173 68 r flash;
#X msg 176 103 0;
#X connect 1 0 4 0;
#X connect 2 0 0 0;
#X connect 2 0 3 0;
#X connect 2 0 7 0;
#X connect 4 0 6 0;
#X connect 5 0 2 0;
#X connect 7 0 1 0;
#X connect 7 1 1 0;
#X connect 8 0 9 0;
#X connect 9 0 1 0;
#X restore 496 71 pd bk;
#N canvas 598 180 236 269 bk 0;
#X obj 69 63 tgl 15 0 empty empty empty 17 7 0 10 -262144 -1 -1 0 3
;
#X obj 88 113 tgl 15 0 empty empty empty 17 7 0 10 -262144 -1 -1 0
1;
#X obj 62 44 * 3;
#X floatatom 27 51 5 0 0 0 - - -;
#X floatatom 98 139 5 0 0 0 - - -;
#X obj 59 3 inlet;
#X obj 94 199 outlet;
#X obj 42 81 threshold 2 1 1 2;
#X obj 173 68 r flash;
#X msg 176 103 0;
#X connect 1 0 4 0;
#X connect 2 0 0 0;
#X connect 2 0 3 0;
#X connect 2 0 7 0;
#X connect 4 0 6 0;
#X connect 5 0 2 0;
#X connect 7 0 1 0;
#X connect 7 1 1 0;
#X connect 8 0 9 0;
#X connect 9 0 1 0;
#X restore 335 67 pd bk;
#N canvas 598 180 236 269 bk 0;
#X obj 69 63 tgl 15 0 empty empty empty 17 7 0 10 -262144 -1 -1 0 3
;
#X obj 88 113 tgl 15 0 empty empty empty 17 7 0 10 -262144 -1 -1 0
1;
#X obj 62 44 * 3;
#X floatatom 27 51 5 0 0 0 - - -;
#X floatatom 98 139 5 0 0 0 - - -;
#X obj 59 3 inlet;
#X obj 94 199 outlet;
#X obj 42 81 threshold 2 1 1 2;
#X obj 173 68 r flash;
#X msg 176 103 0;
#X connect 1 0 4 0;
#X connect 2 0 0 0;
#X connect 2 0 3 0;
#X connect 2 0 7 0;
#X connect 4 0 6 0;
#X connect 5 0 2 0;
#X connect 7 0 1 0;
#X connect 7 1 1 0;
#X connect 8 0 9 0;
#X connect 9 0 1 0;
#X restore 209 67 pd bk;
#N canvas 598 180 236 269 bk 0;
#X obj 69 63 tgl 15 0 empty empty empty 17 7 0 10 -262144 -1 -1 0 3
;
#X obj 88 113 tgl 15 0 empty empty empty 17 7 0 10 -262144 -1 -1 0
1;
#X obj 62 44 * 3;
#X floatatom 27 51 5 0 0 0 - - -;
#X floatatom 98 139 5 0 0 0 - - -;
#X obj 59 3 inlet;
#X obj 94 199 outlet;
#X obj 42 81 threshold 2 1 1 2;
#X obj 173 68 r flash;
#X msg 176 103 0;
#X connect 1 0 4 0;
#X connect 2 0 0 0;
#X connect 2 0 3 0;
#X connect 2 0 7 0;
#X connect 4 0 6 0;
#X connect 5 0 2 0;
#X connect 7 0 1 0;
#X connect 7 1 1 0;
#X connect 8 0 9 0;
#X connect 9 0 1 0;
#X restore 250 67 pd bk;
#N canvas 598 180 236 269 bk 0;
#X obj 69 63 tgl 15 0 empty empty empty 17 7 0 10 -262144 -1 -1 0 3
;
#X obj 88 113 tgl 15 0 empty empty empty 17 7 0 10 -262144 -1 -1 0
1;
#X obj 62 44 * 3;
#X floatatom 27 51 5 0 0 0 - - -;
#X floatatom 98 139 5 0 0 0 - - -;
#X obj 59 3 inlet;
#X obj 94 199 outlet;
#X obj 42 81 threshold 2 1 1 2;
#X obj 173 68 r flash;
#X msg 176 103 0;
#X connect 1 0 4 0;
#X connect 2 0 0 0;
#X connect 2 0 3 0;
#X connect 2 0 7 0;
#X connect 4 0 6 0;
#X connect 5 0 2 0;
#X connect 7 0 1 0;
#X connect 7 1 1 0;
#X connect 8 0 9 0;
#X connect 9 0 1 0;
#X restore 294 67 pd bk;
#X msg 684 57 5;
#X msg 715 59 6;
#X msg 744 59 7;
#X msg 789 60 8;
#X obj 792 82 == 8;
#X obj 737 83 == 7;
#X text 433 111 5;
#X text 465 112 6;
#X text 499 110 7;
#X obj 681 83 == 6;
#X obj 626 82 == 5;
#X obj 298 350 s nodenumber5;
#X obj 211 350 s nodenumber6;
#X obj 127 350 s nodenumber7;
#X obj 42 350 s nodenumber8;
#X obj 310 439 s nodenumber9;
#X obj 214 439 s nodenumber10;
#X obj 127 440 s nodenumber11;
#X obj 36 439 s nodenumber12;
#X obj 301 531 s nodenumber13;
#X obj 206 530 s nodenumber14;
#X obj 117 532 s nodenumber15;
#X obj 23 533 s nodenumber16;
#X obj 473 259 s nodenumber17;
#X obj 565 259 s nodenumber18;
#X obj 659 257 s nodenumber19;
#X obj 752 257 s nodenumber20;
#X obj 467 348 s nodenumber21;
#X obj 559 348 s nodenumber22;
#X obj 653 346 s nodenumber23;
#X obj 746 346 s nodenumber24;
#X obj 467 438 s nodenumber25;
#X obj 559 438 s nodenumber26;
#X obj 653 436 s nodenumber27;
#X obj 746 436 s nodenumber28;
#X obj 456 530 s nodenumber29;
#X obj 548 530 s nodenumber30;
#X obj 642 528 s nodenumber31;
#X obj 735 528 s nodenumber32;
#X obj 302 260 s nodenumber1;
#X obj 217 260 s nodenumber2;
#X obj 133 261 s nodenumber3;
#X obj 48 261 s nodenumber4;
#X obj 225 199 nodelatch;
#X obj 336 233 s textlatch1;
#X obj 286 201 nodelatch;
#X obj 278 291 nodelatch;
#X obj 217 291 nodelatch;
#X obj 156 291 nodelatch;
#X obj 95 291 nodelatch;
#X obj 286 380 nodelatch;
#X obj 225 380 nodelatch;
#X obj 164 380 nodelatch;
#X obj 103 380 nodelatch;
#X obj 277 467 nodelatch;
#X obj 216 467 nodelatch;
#X obj 155 467 nodelatch;
#X obj 94 467 nodelatch;
#X obj 714 203 nodelatch;
#X obj 653 203 nodelatch;
#X obj 592 203 nodelatch;
#X obj 531 203 nodelatch;
#X obj 710 288 nodelatch;
#X obj 649 288 nodelatch;
#X obj 588 288 nodelatch;
#X obj 527 288 nodelatch;
#X obj 716 378 nodelatch;
#X obj 655 378 nodelatch;
#X obj 594 378 nodelatch;
#X obj 533 378 nodelatch;
#X obj 707 466 nodelatch;
#X obj 646 466 nodelatch;
#X obj 585 466 nodelatch;
#X obj 524 466 nodelatch;
#X obj 164 201 nodelatch;
#X obj 103 201 nodelatch;
#X obj 258 233 s textlatch2;
#X obj 172 232 s textlatch3;
#X obj 94 232 s textlatch4;
#X obj 488 234 s textlatch17;
#X obj 566 234 s textlatch18;
#X obj 652 235 s textlatch19;
#X obj 730 235 s textlatch20;
#X obj 332 324 s textlatch5;
#X obj 254 324 s textlatch6;
#X obj 168 323 s textlatch7;
#X obj 90 323 s textlatch8;
#X obj 486 323 s textlatch21;
#X obj 564 323 s textlatch22;
#X obj 650 324 s textlatch23;
#X obj 728 324 s textlatch24;
#X obj 336 415 s textlatch9;
#X obj 250 415 s textlatch10;
#X obj 164 414 s textlatch11;
#X obj 80 414 s textlatch12;
#X obj 491 414 s textlatch25;
#X obj 577 414 s textlatch26;
#X obj 660 414 s textlatch27;
#X obj 743 415 s textlatch28;
#X obj 311 499 s textlatch13;
#X obj 225 499 s textlatch14;
#X obj 139 498 s textlatch15;
#X obj 55 498 s textlatch16;
#X obj 466 498 s textlatch29;
#X obj 552 498 s textlatch30;
#X obj 635 498 s textlatch31;
#X obj 718 499 s textlatch32;
#X connect 0 0 90 0;
#X connect 0 0 91 0;
#X connect 0 0 95 0;
#X connect 0 0 99 0;
#X connect 0 0 103 1;
#X connect 0 0 104 1;
#X connect 0 0 105 1;
#X connect 0 0 106 1;
#X connect 1 0 88 0;
#X connect 1 0 92 0;
#X connect 1 0 96 0;
#X connect 1 0 100 0;
#X connect 1 0 107 1;
#X connect 1 0 108 1;
#X connect 1 0 109 1;
#X connect 1 0 110 1;
#X connect 2 0 93 0;
#X connect 2 0 97 0;
#X connect 2 0 101 0;
#X connect 2 0 111 1;
#X connect 2 0 112 1;
#X connect 2 0 113 1;
#X connect 2 0 114 1;
#X connect 2 0 119 0;
#X connect 3 0 94 0;
#X connect 3 0 98 0;
#X connect 3 0 102 0;
#X connect 3 0 115 1;
#X connect 3 0 116 1;
#X connect 3 0 117 1;
#X connect 3 0 118 1;
#X connect 3 0 120 0;
#X connect 4 0 45 0;
#X connect 4 0 88 1;
#X connect 4 0 90 1;
#X connect 4 0 106 0;
#X connect 4 0 110 0;
#X connect 4 0 114 0;
#X connect 4 0 118 0;
#X connect 4 0 119 1;
#X connect 4 0 120 1;
#X connect 5 0 46 0;
#X connect 5 0 91 1;
#X connect 5 0 92 1;
#X connect 5 0 93 1;
#X connect 5 0 94 1;
#X connect 5 0 105 0;
#X connect 5 0 109 0;
#X connect 5 0 113 0;
#X connect 5 0 117 0;
#X connect 6 0 47 0;
#X connect 6 0 95 1;
#X connect 6 0 96 1;
#X connect 6 0 97 1;
#X connect 6 0 98 1;
#X connect 6 0 104 0;
#X connect 6 0 108 0;
#X connect 6 0 112 0;
#X connect 6 0 116 0;
#X connect 7 0 48 0;
#X connect 7 0 99 1;
#X connect 7 0 100 1;
#X connect 7 0 101 1;
#X connect 7 0 102 1;
#X connect 7 0 103 0;
#X connect 7 0 107 0;
#X connect 7 0 111 0;
#X connect 7 0 115 0;
#X connect 10 0 41 0;
#X connect 11 0 43 0;
#X connect 12 0 42 0;
#X connect 13 0 44 0;
#X connect 14 0 38 0;
#X connect 15 0 39 0;
#X connect 16 0 40 0;
#X connect 17 0 37 0;
#X connect 23 0 22 0;
#X connect 26 0 24 0;
#X connect 26 0 25 0;
#X connect 26 0 50 0;
#X connect 26 0 49 0;
#X connect 29 0 12 0;
#X connect 30 0 11 0;
#X connect 31 0 13 0;
#X connect 32 0 10 0;
#X connect 33 0 14 0;
#X connect 34 0 15 0;
#X connect 35 0 16 0;
#X connect 36 0 17 0;
#X connect 37 0 7 0;
#X connect 38 0 4 0;
#X connect 39 0 5 0;
#X connect 40 0 6 0;
#X connect 41 0 0 0;
#X connect 42 0 3 0;
#X connect 43 0 2 0;
#X connect 44 0 1 0;
#X connect 45 0 26 0;
#X connect 46 0 26 0;
#X connect 47 0 26 0;
#X connect 48 0 26 0;
#X connect 88 0 85 0;
#X connect 88 1 121 0;
#X connect 90 0 84 0;
#X connect 90 1 89 0;
#X connect 91 0 56 0;
#X connect 92 0 57 0;
#X connect 93 0 58 0;
#X connect 94 0 59 0;
#X connect 95 0 60 0;
#X connect 95 1 136 0;
#X connect 96 0 61 0;
#X connect 96 1 137 0;
#X connect 97 0 62 0;
#X connect 97 1 138 0;
#X connect 98 0 63 0;
#X connect 98 1 139 0;
#X connect 99 0 64 0;
#X connect 99 1 144 0;
#X connect 100 0 65 0;
#X connect 100 1 145 0;
#X connect 101 0 66 0;
#X connect 101 1 146 0;
#X connect 102 0 67 0;
#X connect 102 1 147 0;
#X connect 103 0 71 0;
#X connect 103 1 127 0;
#X connect 104 0 70 0;
#X connect 104 1 126 0;
#X connect 105 0 69 0;
#X connect 105 1 125 0;
#X connect 106 0 68 0;
#X connect 106 1 124 0;
#X connect 107 0 75 0;
#X connect 108 0 74 0;
#X connect 109 0 73 0;
#X connect 110 0 72 0;
#X connect 111 0 79 0;
#X connect 111 1 143 0;
#X connect 112 0 78 0;
#X connect 112 1 142 0;
#X connect 113 0 77 0;
#X connect 113 1 141 0;
#X connect 114 0 76 0;
#X connect 114 1 140 0;
#X connect 115 0 83 0;
#X connect 115 1 151 0;
#X connect 116 0 82 0;
#X connect 116 1 150 0;
#X connect 117 0 81 0;
#X connect 117 1 149 0;
#X connect 118 0 80 0;
#X connect 118 1 148 0;
#X connect 119 0 86 0;
#X connect 119 1 122 0;
#X connect 120 0 87 0;
#X connect 120 0 123 0;
#X coords 0 -1 1 1 400 60 1 200 100;
