#N canvas 0 0 1024 703 10;
#X obj 132 90 tgl 15 0 empty empty empty 17 7 0 10 -262144 -1 -1 0
1;
#X floatatom 143 48 5 0 0 0 - - -;
#X obj 75 48 moses 0.97;
#X obj 68 95 spigot;
#X obj 66 73 r preset;
#N canvas 0 0 303 384 rangex 0;
#X obj 106 72 clip 36 96;
#X floatatom 107 102 5 0 0 0 - - -;
#X obj 107 124 - 36;
#X floatatom 108 151 5 0 0 0 - - -;
#X floatatom 109 224 5 0 0 0 - - -;
#X obj 109 196 int;
#X floatatom 112 280 5 0 0 0 - - -;
#X text 146 100 range multiplier;
#X obj 107 40 inlet;
#X obj 115 317 outlet;
#X obj 108 176 * 3;
#X obj 109 247 clip 0 170;
#X connect 0 0 1 0;
#X connect 1 0 2 0;
#X connect 2 0 3 0;
#X connect 3 0 10 0;
#X connect 4 0 11 0;
#X connect 5 0 4 0;
#X connect 6 0 9 0;
#X connect 8 0 0 0;
#X connect 10 0 5 0;
#X connect 11 0 6 0;
#X restore 408 -27 pd rangex;
#X obj 411 0 / 127;
#X obj 465 1 - 0.5;
#X obj 346 53 translateXYZ -2.5 1.5 0;
#X obj 333 19 gemhead 99;
#X obj 346 77 translateXYZ -2.7 0 0;
#X obj 342 129 rectangle 0.02 0.7;
#X msg 326 -18 1;
#X msg 363 -18 0;
#X obj 332 -53 sel 1 0;
#X obj 522 -82 cnv 15 200 250 empty empty empty 20 12 0 14 -4032 -66577
0;
#N canvas 0 0 303 384 rangex 0;
#X obj 106 72 clip 36 96;
#X floatatom 107 102 5 0 0 0 - - -;
#X obj 107 124 - 36;
#X floatatom 108 151 5 0 0 0 - - -;
#X floatatom 109 224 5 0 0 0 - - -;
#X obj 109 196 int;
#X floatatom 112 280 5 0 0 0 - - -;
#X text 146 100 range multiplier;
#X obj 107 40 inlet;
#X obj 115 317 outlet;
#X obj 108 176 * 3;
#X obj 109 247 clip 0 170;
#X connect 0 0 1 0;
#X connect 1 0 2 0;
#X connect 2 0 3 0;
#X connect 3 0 10 0;
#X connect 4 0 11 0;
#X connect 5 0 4 0;
#X connect 6 0 9 0;
#X connect 8 0 0 0;
#X connect 10 0 5 0;
#X connect 11 0 6 0;
#X restore 612 -43 pd rangex;
#X obj 544 8 gemhead 99;
#X obj 548 36 translateXYZ -2.5 1.5 0;
#X obj 669 -15 - 0.05;
#X obj 615 -16 / 127;
#X obj 550 61 translateXYZ 0 0.8 0;
#X obj 552 117 rectangle 0.7 0.02;
#X msg 526 -22 1;
#X msg 563 -22 0;
#X obj 523 -48 sel 1 0;
#X obj 725 -85 cnv 15 300 250 empty empty empty 20 12 0 14 -257985
-66577 0;
#X obj 760 55 loadbang;
#X obj 736 142 text3d;
#X msg 779 142 font /home/onyx/beatjazzdir/vera.ttf;
#X msg 768 74 2.5;
#X obj 738 14 gemhead;
#X msg 732 -15 1;
#X msg 769 -15 0;
#X obj 67 119 == 1;
#X obj 68 138 tgl 15 0 empty empty empty 17 7 0 10 -262144 -1 -1 0
1;
#X obj 103 139 tgl 15 0 empty empty empty 17 7 0 10 -262144 -1 -1 0
1;
#X obj 102 120 == 2;
#X obj 134 140 tgl 15 0 empty empty empty 17 7 0 10 -262144 -1 -1 0
1;
#X obj 135 120 == 3;
#X obj 68 164 sel 0 1;
#X obj 164 162 sel 0 1;
#X obj 250 163 sel 0 1;
#X obj 736 35 translateXYZ -2.5 0.6 0;
#X obj 735 119 colorRGB;
#X obj 552 89 colorRGB;
#X obj 347 100 colorRGB;
#X obj 168 110 s stop1;
#X msg 218 106 0;
#X obj 183 89 sel 0;
#X floatatom 218 89 5 0 0 0 - - -;
#X floatatom 150 90 5 0 0 0 - - -;
#X obj 133 70 > 0.985;
#X obj 75 -70 inlet frange;
#X text 448 533 may need to externalize the "" 1gx \, for use in this
abstraction;
#X obj 731 -42 sel 1 0;
#X obj 318 471 s \$0-1gx0;
#X obj 373 471 s \$0-2gx0;
#X obj 429 472 s \$0-3gx0;
#X obj 524 473 s \$0-1gy0;
#X obj 586 473 s \$0-2gy0;
#X obj 650 474 s \$0-3gy0;
#X obj 330 -73 r \$0-1gx0;
#X obj 392 -73 r \$0-2gx0;
#X obj 454 -73 r \$0-3gx0;
#X obj 579 -73 r \$0-1gy0;
#X obj 641 -73 r \$0-2gy0;
#X obj 704 -72 r \$0-3gy0;
#X obj 852 94 r \$0-x1text;
#X obj 277 250 s \$0-x1text;
#X msg 273 207 text ---;
#X obj 183 249 s \$0-x1text;
#X msg 184 206 text ---;
#X obj 83 248 s \$0-x1text;
#X msg 83 205 text ---;
#X floatatom 36 94 5 0 0 0 - - -;
#X obj 253 88 s \$0-textoff;
#X obj 75 4 spigot;
#X obj 267 -71 inlet;
#X obj 273 -18 tgl 15 0 empty empty empty 17 7 0 10 -262144 -1 -1 0
1;
#X obj 224 16 s gcut;
#X floatatom 285 19 5 0 0 0 - - -;
#X floatatom 171 -28 5 0 0 0 - - -;
#X obj 86 184 s \$0-function1;
#X obj 177 184 s \$0-function2;
#X obj 269 184 s \$0-function3;
#X obj 205 509 r \$0-function3;
#X obj 112 509 r \$0-function2;
#X obj 21 509 r \$0-function1;
#X obj 808 94 r \$0-b;
#X obj 767 94 r \$0-g;
#X obj 727 94 r \$0-r;
#X obj 683 113 r \$0-b;
#X obj 683 94 r \$0-g;
#X obj 679 75 r \$0-r;
#X obj 440 27 average 10;
#X obj 644 11 average 10;
#X obj 483 96 r \$0-b;
#X obj 441 96 r \$0-g;
#X obj 400 96 r \$0-r;
#X obj 341 502 s \$0-r;
#X obj 345 521 s \$0-g;
#X obj 345 540 s \$0-b;
#X obj 161 -68 inlet fkey;
#X obj 22 530 s extfunction10;
#X obj 112 530 s extfunction11;
#X obj 204 529 s extfunction12;
#X obj 91 227 r function10rec;
#X obj 189 228 r function11rec;
#X obj 281 229 r function12rec;
#X obj 305 305 gxlrmt10;
#X obj 471 306 gxlrmtr11;
#X obj 635 307 gxlrmtr12;
#X obj 161 -49 s fkey12;
#X obj 318 452 r 10x1x;
#X obj 372 451 r 11x2x;
#X obj 428 454 r 12x3x;
#X obj 524 454 r 10x1y;
#X obj 587 454 r 11x2y;
#X obj 650 454 r 12x3y;
#X connect 0 0 3 1;
#X connect 0 0 47 0;
#X connect 0 0 49 0;
#X connect 2 1 1 0;
#X connect 2 1 52 0;
#X connect 3 0 34 0;
#X connect 3 0 37 0;
#X connect 3 0 39 0;
#X connect 3 0 75 0;
#X connect 4 0 3 0;
#X connect 5 0 6 0;
#X connect 6 0 7 0;
#X connect 7 0 95 0;
#X connect 8 0 10 0;
#X connect 9 0 8 0;
#X connect 10 0 46 0;
#X connect 12 0 9 0;
#X connect 13 0 9 0;
#X connect 14 0 12 0;
#X connect 14 1 13 0;
#X connect 16 0 20 0;
#X connect 17 0 18 0;
#X connect 18 0 21 0;
#X connect 19 0 96 0;
#X connect 20 0 19 0;
#X connect 21 0 45 0;
#X connect 23 0 17 0;
#X connect 24 0 17 0;
#X connect 25 0 23 0;
#X connect 25 1 24 0;
#X connect 27 0 29 0;
#X connect 27 0 30 0;
#X connect 29 0 28 0;
#X connect 30 0 28 1;
#X connect 31 0 43 0;
#X connect 32 0 31 0;
#X connect 33 0 31 0;
#X connect 34 0 35 0;
#X connect 35 0 40 0;
#X connect 35 0 110 0;
#X connect 36 0 41 0;
#X connect 36 0 111 0;
#X connect 37 0 36 0;
#X connect 38 0 42 0;
#X connect 38 0 112 0;
#X connect 39 0 38 0;
#X connect 40 1 83 0;
#X connect 41 1 84 0;
#X connect 42 1 85 0;
#X connect 43 0 44 0;
#X connect 44 0 28 0;
#X connect 45 0 22 0;
#X connect 46 0 11 0;
#X connect 48 0 38 0;
#X connect 48 0 36 0;
#X connect 48 0 35 0;
#X connect 49 0 50 0;
#X connect 49 0 48 0;
#X connect 49 0 70 0;
#X connect 49 0 72 0;
#X connect 49 0 74 0;
#X connect 49 0 76 0;
#X connect 52 0 0 0;
#X connect 52 0 51 0;
#X connect 53 0 77 0;
#X connect 55 0 32 0;
#X connect 55 1 33 0;
#X connect 62 0 5 0;
#X connect 63 0 5 0;
#X connect 64 0 5 0;
#X connect 65 0 16 0;
#X connect 66 0 16 0;
#X connect 67 0 16 0;
#X connect 68 0 28 0;
#X connect 70 0 69 0;
#X connect 72 0 71 0;
#X connect 74 0 73 0;
#X connect 77 0 2 0;
#X connect 78 0 77 1;
#X connect 78 0 79 0;
#X connect 78 0 80 0;
#X connect 78 0 81 0;
#X connect 78 0 110 1;
#X connect 78 0 111 1;
#X connect 78 0 112 1;
#X connect 86 0 106 0;
#X connect 87 0 105 0;
#X connect 88 0 104 0;
#X connect 89 0 44 3;
#X connect 90 0 44 2;
#X connect 91 0 44 1;
#X connect 92 0 45 3;
#X connect 93 0 45 2;
#X connect 94 0 45 1;
#X connect 95 0 8 1;
#X connect 96 0 18 2;
#X connect 97 0 46 3;
#X connect 98 0 46 2;
#X connect 99 0 46 1;
#X connect 103 0 25 0;
#X connect 103 0 14 0;
#X connect 103 0 55 0;
#X connect 103 0 82 0;
#X connect 103 0 113 0;
#X connect 107 0 73 0;
#X connect 108 0 71 0;
#X connect 109 0 69 0;
#X connect 114 0 56 0;
#X connect 114 0 100 0;
#X connect 115 0 57 0;
#X connect 116 0 58 0;
#X connect 117 0 59 0;
#X connect 117 0 101 0;
#X connect 117 0 102 0;
#X connect 118 0 60 0;
#X connect 119 0 61 0;
#X coords 0 -1 1 1 500 140 1 300 300;
