#N canvas 602 24 771 665 10;
#X msg 284 233 0;
#X floatatom 438 282 5 0 0 0 - - -;
#X obj 72 205 noise~;
#X obj 72 270 *~;
#X obj 469 456 *~ 0.99;
#X obj 437 259 expr 44100 / ($f1 * 1.09545) * 0.025;
#X msg 155 206 1;
#X obj 436 233 mtof;
#X msg 236 31 69;
#X msg 283 31 71;
#X msg 325 30 73;
#X msg 366 29 74;
#X obj 537 527 hsl 128 15 0 1 0 1 empty empty empty -2 -8 0 10 -262144
-1 -1 2900 1;
#X obj 541 570 pack 0 20;
#X obj 541 594 line~;
#X obj 468 536 *~;
#X msg 404 28 76;
#X msg 473 27 78;
#X msg 513 29 80;
#X obj 284 205 del;
#X obj 309 106 t b b f;
#X obj 73 561 delwrite~ buff 1000;
#X obj 466 359 vd~ buff;
#X obj 439 309 t f f;
#X obj 466 336 sig~;
#X text 562 31 midi notes;
#X msg 438 27 77;
#X text 536 53 can't get past 76;
#X msg 173 30 57;
#X msg 120 31 45;
#X msg 70 31 33;
#X text 522 281 delay length sets pitch;
#X text 478 232 converts midi notes to hz;
#X text 528 294 comment;
#X obj 126 88 inlet;
#X obj 465 587 outlet~;
#X connect 0 0 3 1;
#X connect 1 0 23 0;
#X connect 2 0 3 0;
#X connect 3 0 21 0;
#X connect 4 0 15 0;
#X connect 4 0 21 0;
#X connect 5 0 1 0;
#X connect 6 0 3 1;
#X connect 7 0 5 0;
#X connect 8 0 20 0;
#X connect 9 0 20 0;
#X connect 10 0 20 0;
#X connect 11 0 20 0;
#X connect 12 0 13 0;
#X connect 13 0 14 0;
#X connect 14 0 15 1;
#X connect 15 0 35 0;
#X connect 16 0 20 0;
#X connect 17 0 20 0;
#X connect 18 0 20 0;
#X connect 19 0 0 0;
#X connect 20 0 6 0;
#X connect 20 1 19 0;
#X connect 20 2 7 0;
#X connect 22 0 4 0;
#X connect 23 0 19 1;
#X connect 23 1 24 0;
#X connect 24 0 22 0;
#X connect 26 0 20 0;
#X connect 28 0 20 0;
#X connect 29 0 20 0;
#X connect 30 0 20 0;
#X connect 34 0 20 0;
