#N canvas 360 182 771 665 10;
#X msg 284 233 0;
#X floatatom 438 282 5 0 0 0 - - -;
#X obj 70 161 noise~;
#X obj 72 270 *~;
#X msg 155 206 1;
#X obj 436 226 mtof;
#X obj 185 485 hsl 128 15 0 1 0 1 empty empty empty -2 -8 0 10 -262144
-1 -1 12700 1;
#X obj 150 552 line~;
#X obj 73 492 *~;
#X obj 309 106 t b b f;
#X text 522 281 delay length sets pitch;
#X text 472 223 converts midi notes to hz;
#X obj 438 253 expr 1000 / $f1;
#X obj 71 200 lop~ 1200;
#X text 553 249 converts period to milliseconds;
#X obj 290 21 tgl 15 0 empty empty empty 17 7 0 10 -262144 -1 -1 0
1;
#X floatatom 414 25 5 0 0 0 - - -;
#X text 465 25 change tempo;
#X text 195 18 start/stop;
#X text 461 58 right click and select open to see inside;
#N canvas 548 22 476 430 delay 0;
#X obj -20 118 z~;
#X obj 17 116 z~ 2;
#X obj 2 151 +~;
#X obj 2 177 *~ 0.5;
#X obj 3 211 *~ 0.99;
#X obj 1 86 vd~ buff2;
#X obj -394 347 delwrite~ buff2 1000;
#X obj -393 269 inlet~;
#X obj 1 35 inlet~;
#X obj 1 353 outlet~;
#X obj -325 129 block~ 1;
#X obj -394 306 +~;
#X text -338 157 reducing block size to 1 allows for shorter delays
;
#X connect 0 0 2 0;
#X connect 1 0 2 1;
#X connect 2 0 3 0;
#X connect 3 0 4 0;
#X connect 4 0 9 0;
#X connect 4 0 11 1;
#X connect 5 0 0 0;
#X connect 5 0 1 0;
#X connect 7 0 11 0;
#X connect 8 0 5 0;
#X connect 11 0 6 0;
#X restore 72 409 pd delay;
#X obj 284 205 del 8;
#X floatatom 321 178 5 0 0 0 - - -;
#X text 148 405 delay loop is in a subpatch to get shorter than 64
samples;
#X text 527 294 ****;
#X text 375 178 change pulse length;
#X obj 298 58 inlet note;
#X obj 74 545 outlet~;
#X obj 169 61 r breath;
#X obj 147 148 sel 1;
#X obj 147 127 bk;
#X obj 144 91 > 0;
#X obj 148 172 ead~ 0 5;
#X floatatom 196 99 5 0 0 0 - - -;
#X obj 150 528 pack 0 20;
#X connect 1 0 20 1;
#X connect 2 0 13 0;
#X connect 3 0 20 0;
#X connect 5 0 12 0;
#X connect 6 0 34 0;
#X connect 7 0 8 1;
#X connect 8 0 27 0;
#X connect 9 0 4 0;
#X connect 9 1 21 0;
#X connect 9 2 5 0;
#X connect 12 0 1 0;
#X connect 13 0 3 0;
#X connect 20 0 8 0;
#X connect 21 0 0 0;
#X connect 22 0 21 1;
#X connect 26 0 9 0;
#X connect 28 0 31 0;
#X connect 28 0 33 0;
#X connect 28 0 34 0;
#X connect 29 0 32 0;
#X connect 30 0 29 0;
#X connect 31 0 30 0;
#X connect 32 0 3 1;
#X connect 34 0 7 0;
