#N canvas 1005 249 522 677 10;
#X obj -140 -123 noise~;
#X msg -5 -42 1 1;
#X msg 39 -42 0 1;
#X obj 14 -13 line~;
#X obj 0 111 *~;
#X msg -3 -93 bang;
#X obj -59 351 +~;
#X obj 13 -69 del 10;
#X obj 78 -96 hsl 128 15 5 100 0 0 empty empty impulse_length_5-100_ms
-2 -8 0 10 -262144 -1 -1 1142 1;
#X obj -15 169 hsl 128 15 5 100 0 0 empty empty del_loop_time_5-100_ms
-2 -8 0 10 -262144 -1 -1 1542 1;
#X floatatom -17 242 5 0 0 0 - - -;
#X floatatom 28 250 5 0 1 0 - - -;
#X obj -15 219 init 1000;
#X obj 13 19 *~;
#X obj -104 55 polygate~ 2 10;
#X obj -37 192 delread~ del_line_xxx 50;
#X msg -194 -2 choice \$1;
#X floatatom -77 -126 3 0 127 0 - - -;
#X floatatom -77 -82 9 0 22000 0 - - -;
#X obj -42 331 clip~ -1 1;
#X obj -40 276 lp2~ 1000 2;
#X obj -130 -39 bp~ 300;
#X msg -252 -24 0;
#X msg -222 -24 1;
#X msg -194 -24 2;
#X text -214 -63 Choose signal;
#X obj -77 -189 tgl 15 0 empty empty Seq_On/Off -65 8 0 10 -262144
-1 -1 0 1;
#X msg -44 -190 0;
#X text -13 -192 Reset;
#X obj -65 -40 moses 10;
#X obj -27 305 *~ 0.8;
#X obj 54 221 init 0.4;
#N canvas 67 201 450 375 save_sound 0;
#X msg 150 138 start;
#X msg 182 164 stop;
#X text 195 136 start streaming audio;
#X text 217 163 stop streaming audio;
#X obj 196 218 inlet~;
#X obj 146 303 writesf~ 2;
#X obj 214 51 bng 15 250 50 0 empty empty Start 17 7 0 10 -262144 -1
-1;
#X obj 214 71 bng 15 250 50 0 empty empty Stop 17 7 0 10 -262144 -1
-1;
#X floatatom 13 8 5 0 10 0 - - -;
#X obj 12 -17 f;
#X obj 41 -17 + 1;
#X obj 13 33 makefilename wave/pd_ks_seq%d.wav;
#X msg 31 118 open -bytes 2 \$1;
#X obj 150 104 del 20;
#X symbolatom 311 50 20 0 0 0 - - fileName;
#X obj 311 -33 loadbang;
#X msg 311 11 set FileName;
#X obj 311 -10 delay 10;
#X msg 27 -39 0;
#X obj 195 280 *~;
#X obj 242 218 line~;
#X obj 307 218 line~;
#X msg 345 190 0 1;
#X obj 197 104 del 20;
#X msg 242 193 1 20;
#X msg 307 190 0 20;
#X obj 242 246 *~;
#X obj 306 244 *~;
#X connect 0 0 5 0;
#X connect 0 0 20 0;
#X connect 0 0 24 0;
#X connect 1 0 5 0;
#X connect 4 0 19 0;
#X connect 6 0 9 0;
#X connect 6 0 13 0;
#X connect 7 0 23 0;
#X connect 7 0 25 0;
#X connect 8 0 11 0;
#X connect 9 0 10 0;
#X connect 9 0 8 0;
#X connect 10 0 9 1;
#X connect 11 0 12 0;
#X connect 11 0 14 0;
#X connect 12 0 5 0;
#X connect 13 0 0 0;
#X connect 15 0 17 0;
#X connect 15 0 22 0;
#X connect 16 0 14 0;
#X connect 17 0 16 0;
#X connect 18 0 9 1;
#X connect 19 0 5 0;
#X connect 19 0 5 1;
#X connect 20 0 26 0;
#X connect 20 0 26 1;
#X connect 21 0 27 0;
#X connect 21 0 27 1;
#X connect 22 0 21 0;
#X connect 23 0 1 0;
#X connect 24 0 20 0;
#X connect 25 0 21 0;
#X connect 26 0 19 1;
#X connect 27 0 19 1;
#X coords 0 -1 1 1 85 60 1 200 30;
#X restore -193 197 pd save_sound;
#X floatatom 136 186 5 0 0 0 - - -;
#X floatatom 89 -64 5 0 0 0 - - -;
#X symbolatom -210 262 20 0 0 0 - fileName -;
#X obj -194 -46 loadbang;
#X obj -20 136 init 30;
#X obj 32 -119 init 30;
#X obj 30 133 delwrite~ del_line_xxx 30;
#X obj -77 -163 inlet;
#X obj -64 424 outlet~;
#X obj 68 69 inlet;
#X obj 131 -153 inlet;
#X obj -77 6 osc~ 200 0.8;
#X obj -66 392 *~;
#X obj 64 252 r breath;
#X obj 60 282 / 80;
#X obj 59 329 lop~ 80;
#X obj 59 304 sig~;
#X obj -42 -125 mtof;
#X obj -17 -12 bng 15 250 50 0 empty empty empty 17 7 0 10 -262144
-1 -1;
#X obj 188 -50 r breath;
#X obj 166 37 sel 1;
#X obj 166 16 bk;
#X obj 163 -20 > 0;
#X obj 167 61 ead~ 1 5;
#X connect 0 0 21 0;
#X connect 1 0 3 0;
#X connect 2 0 3 0;
#X connect 3 0 13 0;
#X connect 3 0 13 1;
#X connect 4 0 39 0;
#X connect 5 0 1 0;
#X connect 5 0 7 0;
#X connect 6 0 32 0;
#X connect 6 0 39 0;
#X connect 6 0 45 0;
#X connect 7 0 2 0;
#X connect 8 0 7 1;
#X connect 8 0 34 0;
#X connect 9 0 15 0;
#X connect 9 0 33 0;
#X connect 10 0 20 1;
#X connect 11 0 20 2;
#X connect 12 0 10 0;
#X connect 14 0 4 0;
#X connect 15 0 20 0;
#X connect 16 0 14 0;
#X connect 17 0 18 0;
#X connect 18 0 21 1;
#X connect 18 0 29 0;
#X connect 19 0 6 1;
#X connect 20 0 30 0;
#X connect 21 0 14 0;
#X connect 22 0 16 0;
#X connect 23 0 16 0;
#X connect 24 0 16 0;
#X connect 29 1 5 0;
#X connect 29 1 44 0;
#X connect 29 1 51 0;
#X connect 30 0 19 0;
#X connect 31 0 11 0;
#X connect 36 0 24 0;
#X connect 37 0 9 0;
#X connect 38 0 8 0;
#X connect 40 0 17 0;
#X connect 42 0 9 0;
#X connect 43 0 8 0;
#X connect 44 0 14 1;
#X connect 45 0 41 0;
#X connect 46 0 47 0;
#X connect 47 0 49 0;
#X connect 48 0 45 1;
#X connect 49 0 48 0;
#X connect 52 0 55 0;
#X connect 53 0 56 0;
#X connect 54 0 53 0;
#X connect 55 0 54 0;
#X connect 56 0 4 1;
