#N canvas 149 25 728 602 10;
#X obj 68 -10 vline~;
#X obj 68 11 *~;
#X obj 213 -48 noise~;
#X obj 218 85 *~;
#X obj 208 -118 t b b;
#X obj 471 -8 vline~;
#X obj 495 22 *~;
#X obj 496 42 *~;
#X obj 612 -1 switch~;
#X obj 612 -21 tgl 15 0 empty empty empty 0 -6 0 10 -262144 -1 -1 0
1;
#X msg 596 -42 1;
#X msg 627 -42 0;
#X floatatom 627 -81 5 0 0 0 - - -;
#X obj 627 -63 sel 0;
#X obj 189 -151 t b b b;
#X obj 208 288 vline~;
#X obj 168 321 *~;
#X obj 4 51 +~ 20;
#X obj 47 53 +~ 33;
#X obj 89 52 +~ 46;
#X obj 131 52 +~ 59;
#X obj 173 52 +~ 72;
#X obj 86 194 *~ 70;
#X obj 130 195 *~ 80;
#X obj 176 194 *~ 90;
#X obj 224 194 *~ 100;
#X obj 495 64 *~;
#X obj 232 49 lop~ 100;
#X obj 325 109 *~;
#X msg 67 -32 11 1 0 \, 0 50 1;
#X obj 69 171 vcf~ 70;
#X obj 1 169 vcf~ 70;
#X obj 41 194 *~ 35;
#X obj 130 171 vcf~ 70;
#X obj 178 171 vcf~ 70;
#X obj 226 171 vcf~ 70;
#X msg 470 -29 1 2 0 \, 0 25 2;
#X msg 208 268 1 2 0 \, 0 100 2;
#X obj 189 -174 bng 15 250 50 0 empty empty empty 0 -6 0 10 -262144
-1 -1;
#X text 209 -176 hit it;
#X text 183 -64 noise impulse;
#X text 21 -49 frequency descends a bit;
#X text 471 -46 impulse envelope;
#X text 554 15 audio computation on/off;
#X text 218 152 formants;
#X obj 159 392 dac~;
#X obj 363 151 vsl 15 128 0 1 0 0 empty empty empty 0 -8 0 10 -262144
-1 -1 12700 1;
#X text 381 209 volume;
#X obj 363 109 loadbang;
#X msg 363 128 1;
#X obj 167 361 *~;
#X obj 254 78 lop~ 300;
#X text 209 302 a final envelope;
#X msg 627 -119 1 0 \, 0 120;
#X obj 627 -100 line 1 120;
#X obj 192 -13 expr~ if ($v1 == 0 \, 0 \, (if ($v1 < 0 \, -1 \, 1)))
;
#X obj 192 7 *~ 0.5;
#X text 264 -28 TOTAL DISTORTION;
#X text 673 394 sg 2008;
#X connect 0 0 1 0;
#X connect 0 0 1 1;
#X connect 1 0 17 0;
#X connect 1 0 18 0;
#X connect 1 0 19 0;
#X connect 1 0 20 0;
#X connect 1 0 21 0;
#X connect 2 0 55 0;
#X connect 3 0 30 0;
#X connect 3 0 31 0;
#X connect 3 0 33 0;
#X connect 3 0 34 0;
#X connect 3 0 35 0;
#X connect 4 0 36 0;
#X connect 4 0 37 0;
#X connect 4 1 29 0;
#X connect 5 0 6 0;
#X connect 5 0 6 1;
#X connect 6 0 7 0;
#X connect 6 0 7 1;
#X connect 7 0 3 0;
#X connect 7 0 26 0;
#X connect 7 0 26 1;
#X connect 9 0 8 0;
#X connect 10 0 9 0;
#X connect 11 0 9 0;
#X connect 12 0 13 0;
#X connect 13 0 11 0;
#X connect 14 0 53 0;
#X connect 14 1 4 0;
#X connect 14 2 10 0;
#X connect 15 0 16 1;
#X connect 16 0 50 0;
#X connect 17 0 31 1;
#X connect 18 0 30 1;
#X connect 19 0 33 1;
#X connect 20 0 34 1;
#X connect 21 0 35 1;
#X connect 22 0 16 0;
#X connect 23 0 16 0;
#X connect 24 0 16 0;
#X connect 25 0 16 0;
#X connect 26 0 28 1;
#X connect 27 0 3 1;
#X connect 27 0 51 0;
#X connect 28 0 50 0;
#X connect 29 0 0 0;
#X connect 30 0 22 0;
#X connect 31 0 32 0;
#X connect 32 0 16 0;
#X connect 33 0 23 0;
#X connect 34 0 24 0;
#X connect 35 0 25 0;
#X connect 36 0 5 0;
#X connect 37 0 15 0;
#X connect 38 0 14 0;
#X connect 46 0 50 1;
#X connect 48 0 49 0;
#X connect 49 0 46 0;
#X connect 50 0 45 0;
#X connect 50 0 45 1;
#X connect 51 0 28 0;
#X connect 53 0 54 0;
#X connect 54 0 12 0;
#X connect 55 0 56 0;
#X connect 56 0 27 0;
