#N canvas 0 0 450 300 10;
#X obj 43 64 t a a;
#X obj 43 121 spigot;
#X obj 82 83 bang;
#X obj 82 102 1;
#X obj 170 64 route bang;
#X obj 161 83 bang;
#X obj 161 102 0;
#X obj 81 188 list split;
#X obj 110 140 list length;
#X obj 110 159 >> 1;
#X obj 43 140 t a a a a;
#X obj 43 276 list split;
#X obj 62 212 list length;
#X obj 62 231 >> 1;
#X obj 43 29 inlet;
#X obj 300 487 outlet;
#X text 85 29 Copyright 2009 by Mathieu Bouchard;
#X obj 82 64 list split 33;
#X obj 340 105 list length;
#X obj 340 135 sel 32;
#X obj 301 355 spigot 1;
#X obj 340 260 1;
#X obj 486 337 list split;
#X obj 451 358 list append;
#X obj 301 416 route omgroflNeverhappens;
#X msg 486 185 omgroflNeverhappens omgroflNeverhappens omgroflNeverhappens
omgroflNeverhappens omgroflNeverhappens omgroflNeverhappens omgroflNeverhappens
omgroflNeverhappens omgroflNeverhappens omgroflNeverhappens omgroflNeverhappens
omgroflNeverhappens omgroflNeverhappens omgroflNeverhappens omgroflNeverhappens
omgroflNeverhappens omgroflNeverhappens omgroflNeverhappens omgroflNeverhappens
omgroflNeverhappens omgroflNeverhappens omgroflNeverhappens omgroflNeverhappens
omgroflNeverhappens omgroflNeverhappens omgroflNeverhappens omgroflNeverhappens
omgroflNeverhappens omgroflNeverhappens omgroflNeverhappens omgroflNeverhappens
omgroflNeverhappens;
#X obj 451 163 t a b;
#X obj 451 138 spigot;
#X obj 301 75 t a a a;
#X obj 390 261 0;
#X obj 370 186 1;
#X obj 317 162 0;
#X obj 351 162 t f b b;
#N canvas 0 0 1135 710 split32 0;
#X obj 136 507 outlet;
#X obj 56 215 inlet;
#X obj 56 245 t a a a a a a a a a a a a a a a a a a a a a a a a a a
a a a a a a;
#X msg 657 374 \$1;
#X msg 597 374 \$3;
#X msg 567 374 \$4;
#X msg 537 374 \$5;
#X msg 507 374 \$6;
#X msg 477 374 \$7;
#X msg 447 374 \$8;
#X msg 417 374 \$9;
#X msg 387 374 \$10;
#X msg 357 374 \$11;
#X msg 327 374 \$12;
#X msg 297 374 \$13;
#X msg 267 374 \$14;
#X msg 237 374 \$15;
#X msg 207 374 \$16;
#X msg 177 374 \$17;
#X msg 147 374 \$18;
#X msg 117 374 \$19;
#X msg 87 374 \$20;
#X msg 56 374 \$21;
#X msg 27 374 \$22;
#X msg -4 373 \$23;
#X msg -33 374 \$24;
#X msg -63 374 \$25;
#X msg -93 370 \$26;
#X msg -123 368 \$27;
#X msg -153 366 \$28;
#X msg -183 364 \$29;
#X msg -213 366 \$30;
#X msg -243 370 \$31;
#X msg -273 374 \$32;
#X msg 627 374 \$2;
#X text 93 212 (- \;;
#X connect 1 0 2 0;
#X connect 2 0 33 0;
#X connect 2 1 32 0;
#X connect 2 2 31 0;
#X connect 2 3 30 0;
#X connect 2 4 29 0;
#X connect 2 5 28 0;
#X connect 2 6 27 0;
#X connect 2 7 26 0;
#X connect 2 8 25 0;
#X connect 2 9 24 0;
#X connect 2 10 23 0;
#X connect 2 11 22 0;
#X connect 2 12 21 0;
#X connect 2 13 20 0;
#X connect 2 14 19 0;
#X connect 2 15 18 0;
#X connect 2 16 17 0;
#X connect 2 17 16 0;
#X connect 2 18 15 0;
#X connect 2 19 14 0;
#X connect 2 20 13 0;
#X connect 2 21 12 0;
#X connect 2 22 11 0;
#X connect 2 23 10 0;
#X connect 2 24 9 0;
#X connect 2 25 8 0;
#X connect 2 26 7 0;
#X connect 2 27 6 0;
#X connect 2 28 5 0;
#X connect 2 29 4 0;
#X connect 2 30 34 0;
#X connect 2 31 3 0;
#X connect 3 0 0 0;
#X connect 4 0 0 0;
#X connect 5 0 0 0;
#X connect 6 0 0 0;
#X connect 7 0 0 0;
#X connect 8 0 0 0;
#X connect 9 0 0 0;
#X connect 10 0 0 0;
#X connect 11 0 0 0;
#X connect 12 0 0 0;
#X connect 13 0 0 0;
#X connect 14 0 0 0;
#X connect 15 0 0 0;
#X connect 16 0 0 0;
#X connect 17 0 0 0;
#X connect 18 0 0 0;
#X connect 19 0 0 0;
#X connect 20 0 0 0;
#X connect 21 0 0 0;
#X connect 22 0 0 0;
#X connect 23 0 0 0;
#X connect 24 0 0 0;
#X connect 25 0 0 0;
#X connect 26 0 0 0;
#X connect 27 0 0 0;
#X connect 28 0 0 0;
#X connect 29 0 0 0;
#X connect 30 0 0 0;
#X connect 31 0 0 0;
#X connect 32 0 0 0;
#X connect 33 0 0 0;
#X connect 34 0 0 0;
#X restore 301 391 pd split32;
#X text 168 390 this is all the magic;
#X text 360 73 if list is 32 items long it passes without anythin \,
else it gets filled with "omgroflNeverhappens";
#X text 372 393 has only to be 32 items because of error messages.
;
#X connect 0 0 1 0;
#X connect 0 1 17 0;
#X connect 1 0 10 0;
#X connect 2 0 3 0;
#X connect 3 0 1 1;
#X connect 4 1 28 0;
#X connect 5 0 6 0;
#X connect 6 0 1 1;
#X connect 7 0 0 0;
#X connect 8 0 9 0;
#X connect 9 0 7 1;
#X connect 10 0 11 0;
#X connect 10 1 12 0;
#X connect 10 2 7 0;
#X connect 10 3 8 0;
#X connect 11 1 0 0;
#X connect 12 0 13 0;
#X connect 13 0 11 1;
#X connect 14 0 0 0;
#X connect 17 0 2 0;
#X connect 17 2 4 0;
#X connect 17 2 5 0;
#X connect 18 0 19 0;
#X connect 19 0 21 0;
#X connect 19 0 31 0;
#X connect 19 1 32 0;
#X connect 20 0 33 0;
#X connect 21 0 20 1;
#X connect 22 1 23 1;
#X connect 23 0 33 0;
#X connect 24 1 15 0;
#X connect 25 0 22 0;
#X connect 26 0 23 0;
#X connect 26 1 25 0;
#X connect 27 0 26 0;
#X connect 28 0 20 0;
#X connect 28 1 27 0;
#X connect 28 2 18 0;
#X connect 29 0 20 1;
#X connect 30 0 27 1;
#X connect 31 0 27 1;
#X connect 32 0 22 1;
#X connect 32 1 30 0;
#X connect 32 2 29 0;
#X connect 33 0 24 0;
