#N canvas 0 0 711 597 10;
#X floatatom 443 206 5 0 0 0 - - -;
#X obj 422 172 * 2;
#X obj 421 229 - 127;
#X floatatom 439 265 5 0 0 0 - - -;
#X obj 415 290 moses 0;
#X obj 414 349 +;
#X msg 415 317 127 \$1;
#X msg 467 320 127 \$1;
#X obj 466 352 -;
#X obj 414 381 / 127;
#X obj 462 378 / 127;
#X floatatom 423 400 5 0 0 0 - - -;
#X floatatom 477 402 5 0 0 0 - - -;
#X obj 417 129 inlet;
#X obj 416 434 outlet;
#X obj 483 435 outlet;
#X connect 1 0 0 0;
#X connect 1 0 2 0;
#X connect 2 0 3 0;
#X connect 2 0 4 0;
#X connect 4 0 6 0;
#X connect 4 1 7 0;
#X connect 5 0 9 0;
#X connect 6 0 5 0;
#X connect 7 0 8 0;
#X connect 8 0 10 0;
#X connect 9 0 11 0;
#X connect 9 0 14 0;
#X connect 10 0 12 0;
#X connect 10 0 15 0;
#X connect 13 0 1 0;
