#N canvas 418 168 1024 716 10;
#X obj 533 106 tgl 30 0 empty empty empty 17 7 0 10 -4160 -1 -1 0 1
;
#X obj 499 106 tgl 30 0 empty empty empty 17 7 0 10 -4160 -1 -1 0 1
;
#X obj 465 106 tgl 30 0 empty empty empty 17 7 0 10 -4160 -1 -1 0 1
;
#X obj 432 128 tgl 30 0 empty empty empty 17 7 0 10 -4160 -1 -1 0 1
;
#X obj 622 105 tgl 30 0 empty empty empty 17 7 0 10 -99865 -1 -1 0
1;
#X obj 655 105 tgl 30 0 empty empty empty 17 7 0 10 -128992 -1 -1 0
1;
#X obj 687 105 tgl 30 0 empty empty empty 17 7 0 10 -128992 -1 -1 0
1;
#X obj 720 127 tgl 30 0 empty empty empty 17 7 0 10 -128992 -1 -1 0
1;
#X text 431 111 Left;
#X text 719 109 Right;
#X obj 574 127 tgl 15 0 empty empty empty 17 7 0 10 -262144 -1 -1 0
1;
#X obj 590 117 tgl 15 0 empty empty empty 17 7 0 10 -262144 -1 -1 0
1;
#X obj 575 104 tgl 15 0 empty empty empty 17 7 0 10 -262144 -1 -1 0
1;
#X obj 561 143 tgl 15 0 empty empty empty 17 7 0 10 -262144 -1 -1 0
1;
#X obj 534 39 > 0.03;
#X obj 446 39 > 0.03;
#X obj 401 42 > 0.03;
#X obj 491 39 > 0.05;
#X obj 619 38 > 0.1;
#X obj 655 38 > 0.1;
#X obj 691 38 > 0.1;
#X obj 727 38 > 0.07;
#X text 540 114 1;
#X text 505 113 2;
#X text 471 114 3;
#X text 438 134 4;
#X text 590 115 C3;
#X text 574 103 C4;
#X text 573 125 C2;
#X text 561 141 C1;
#X obj 393 167 s flash;
#X obj 412 143 bng 15 250 50 0 empty empty empty 17 7 0 10 -262144
-1 -1;
#X floatatom 761 135 5 0 0 0 - - -;
#X msg 621 169 1;
#X msg 652 171 2;
#X text 662 113 2;
#X text 696 111 3;
#X msg 681 171 3;
#X msg 532 167 1;
#X msg 504 168 2;
#X msg 471 168 3;
#X msg 441 168 4;
#X text 630 112 1;
#X msg 726 172 5;
#N canvas 598 180 236 269 bk 0;
#X obj 69 63 tgl 15 0 empty empty empty 17 7 0 10 -262144 -1 -1 0 3
;
#X obj 88 113 tgl 15 0 empty empty empty 17 7 0 10 -262144 -1 -1 0
1;
#X obj 62 44 * 3;
#X floatatom 27 51 5 0 0 0 - - -;
#X floatatom 98 139 5 0 0 0 - - -;
#X obj 59 3 inlet;
#X obj 94 199 outlet;
#X obj 42 81 threshold 2 1 1 2;
#X obj 173 68 r flash;
#X msg 176 103 0;
#X connect 1 0 4 0;
#X connect 2 0 0 0;
#X connect 2 0 3 0;
#X connect 2 0 7 0;
#X connect 4 0 6 0;
#X connect 5 0 2 0;
#X connect 7 0 1 0;
#X connect 7 1 1 0;
#X connect 8 0 9 0;
#X connect 9 0 1 0;
#X restore 743 73 pd bk;
#N canvas 598 180 236 269 bk 0;
#X obj 69 63 tgl 15 0 empty empty empty 17 7 0 10 -262144 -1 -1 0 3
;
#X obj 88 113 tgl 15 0 empty empty empty 17 7 0 10 -262144 -1 -1 0
1;
#X obj 62 44 * 3;
#X floatatom 27 51 5 0 0 0 - - -;
#X floatatom 98 139 5 0 0 0 - - -;
#X obj 59 3 inlet;
#X obj 94 199 outlet;
#X obj 42 81 threshold 2 1 1 2;
#X obj 173 68 r flash;
#X msg 176 103 0;
#X connect 1 0 4 0;
#X connect 2 0 0 0;
#X connect 2 0 3 0;
#X connect 2 0 7 0;
#X connect 4 0 6 0;
#X connect 5 0 2 0;
#X connect 7 0 1 0;
#X connect 7 1 1 0;
#X connect 8 0 9 0;
#X connect 9 0 1 0;
#X restore 617 71 pd bk;
#N canvas 598 180 236 269 bk 0;
#X obj 69 63 tgl 15 0 empty empty empty 17 7 0 10 -262144 -1 -1 0 3
;
#X obj 88 113 tgl 15 0 empty empty empty 17 7 0 10 -262144 -1 -1 0
1;
#X obj 62 44 * 3;
#X floatatom 27 51 5 0 0 0 - - -;
#X floatatom 98 139 5 0 0 0 - - -;
#X obj 59 3 inlet;
#X obj 94 199 outlet;
#X obj 42 81 threshold 2 1 1 2;
#X obj 173 68 r flash;
#X msg 176 103 0;
#X connect 1 0 4 0;
#X connect 2 0 0 0;
#X connect 2 0 3 0;
#X connect 2 0 7 0;
#X connect 4 0 6 0;
#X connect 5 0 2 0;
#X connect 7 0 1 0;
#X connect 7 1 1 0;
#X connect 8 0 9 0;
#X connect 9 0 1 0;
#X restore 658 73 pd bk;
#N canvas 598 180 236 269 bk 0;
#X obj 69 63 tgl 15 0 empty empty empty 17 7 0 10 -262144 -1 -1 0 3
;
#X obj 88 113 tgl 15 0 empty empty empty 17 7 0 10 -262144 -1 -1 0
1;
#X obj 62 44 * 3;
#X floatatom 27 51 5 0 0 0 - - -;
#X floatatom 98 139 5 0 0 0 - - -;
#X obj 59 3 inlet;
#X obj 94 199 outlet;
#X obj 42 81 threshold 2 1 1 2;
#X obj 173 68 r flash;
#X msg 176 103 0;
#X connect 1 0 4 0;
#X connect 2 0 0 0;
#X connect 2 0 3 0;
#X connect 2 0 7 0;
#X connect 4 0 6 0;
#X connect 5 0 2 0;
#X connect 7 0 1 0;
#X connect 7 1 1 0;
#X connect 8 0 9 0;
#X connect 9 0 1 0;
#X restore 702 73 pd bk;
#N canvas 598 180 236 269 bk 0;
#X obj 69 63 tgl 15 0 empty empty empty 17 7 0 10 -262144 -1 -1 0 3
;
#X obj 88 113 tgl 15 0 empty empty empty 17 7 0 10 -262144 -1 -1 0
1;
#X obj 62 44 * 3;
#X floatatom 27 51 5 0 0 0 - - -;
#X floatatom 98 139 5 0 0 0 - - -;
#X obj 59 3 inlet;
#X obj 94 199 outlet;
#X obj 42 81 threshold 2 1 1 2;
#X obj 173 68 r flash;
#X msg 176 103 0;
#X connect 1 0 4 0;
#X connect 2 0 0 0;
#X connect 2 0 3 0;
#X connect 2 0 7 0;
#X connect 4 0 6 0;
#X connect 5 0 2 0;
#X connect 7 0 1 0;
#X connect 7 1 1 0;
#X connect 8 0 9 0;
#X connect 9 0 1 0;
#X restore 541 69 pd bk;
#N canvas 598 180 236 269 bk 0;
#X obj 69 63 tgl 15 0 empty empty empty 17 7 0 10 -262144 -1 -1 0 3
;
#X obj 88 113 tgl 15 0 empty empty empty 17 7 0 10 -262144 -1 -1 0
1;
#X obj 62 44 * 3;
#X floatatom 27 51 5 0 0 0 - - -;
#X floatatom 98 139 5 0 0 0 - - -;
#X obj 59 3 inlet;
#X obj 94 199 outlet;
#X obj 42 81 threshold 2 1 1 2;
#X obj 173 68 r flash;
#X msg 176 103 0;
#X connect 1 0 4 0;
#X connect 2 0 0 0;
#X connect 2 0 3 0;
#X connect 2 0 7 0;
#X connect 4 0 6 0;
#X connect 5 0 2 0;
#X connect 7 0 1 0;
#X connect 7 1 1 0;
#X connect 8 0 9 0;
#X connect 9 0 1 0;
#X restore 415 67 pd bk;
#N canvas 598 180 236 269 bk 0;
#X obj 69 63 tgl 15 0 empty empty empty 17 7 0 10 -262144 -1 -1 0 3
;
#X obj 88 113 tgl 15 0 empty empty empty 17 7 0 10 -262144 -1 -1 0
1;
#X obj 62 44 * 3;
#X floatatom 27 51 5 0 0 0 - - -;
#X floatatom 98 139 5 0 0 0 - - -;
#X obj 59 3 inlet;
#X obj 94 199 outlet;
#X obj 42 81 threshold 2 1 1 2;
#X obj 173 68 r flash;
#X msg 176 103 0;
#X connect 1 0 4 0;
#X connect 2 0 0 0;
#X connect 2 0 3 0;
#X connect 2 0 7 0;
#X connect 4 0 6 0;
#X connect 5 0 2 0;
#X connect 7 0 1 0;
#X connect 7 1 1 0;
#X connect 8 0 9 0;
#X connect 9 0 1 0;
#X restore 456 69 pd bk;
#N canvas 598 180 236 269 bk 0;
#X obj 69 63 tgl 15 0 empty empty empty 17 7 0 10 -262144 -1 -1 0 3
;
#X obj 88 113 tgl 15 0 empty empty empty 17 7 0 10 -262144 -1 -1 0
1;
#X obj 62 44 * 3;
#X floatatom 27 51 5 0 0 0 - - -;
#X floatatom 98 139 5 0 0 0 - - -;
#X obj 59 3 inlet;
#X obj 94 199 outlet;
#X obj 42 81 threshold 2 1 1 2;
#X obj 173 68 r flash;
#X msg 176 103 0;
#X connect 1 0 4 0;
#X connect 2 0 0 0;
#X connect 2 0 3 0;
#X connect 2 0 7 0;
#X connect 4 0 6 0;
#X connect 5 0 2 0;
#X connect 7 0 1 0;
#X connect 7 1 1 0;
#X connect 8 0 9 0;
#X connect 9 0 1 0;
#X restore 500 69 pd bk;
#X obj 390 195 s \$0-key4;
#X obj 444 195 s \$0-key3;
#X obj 499 195 s \$0-key2;
#X obj 554 195 s \$0-key1;
#X obj 612 195 s \$0-key5;
#X obj 669 197 s \$0-key6;
#X obj 723 195 s \$0-key7;
#X obj 778 197 s \$0-key8;
#X obj 393 18 r fl4-2;
#X obj 441 17 r fl3-2;
#X obj 489 16 r fl2-2;
#X obj 539 17 r fl1-2;
#X obj 608 14 r fr4-2;
#X obj 650 14 r fr2-2;
#X obj 689 14 r fr3-2;
#X obj 734 14 r fr1-2;
#X text 728 135 4;
#X connect 0 0 38 0;
#X connect 0 0 55 0;
#X connect 1 0 39 0;
#X connect 1 0 54 0;
#X connect 2 0 40 0;
#X connect 2 0 53 0;
#X connect 3 0 41 0;
#X connect 3 0 52 0;
#X connect 4 0 33 0;
#X connect 4 0 56 0;
#X connect 5 0 34 0;
#X connect 5 0 57 0;
#X connect 6 0 37 0;
#X connect 6 0 58 0;
#X connect 7 0 43 0;
#X connect 7 0 59 0;
#X connect 14 0 48 0;
#X connect 15 0 50 0;
#X connect 16 0 49 0;
#X connect 17 0 51 0;
#X connect 18 0 45 0;
#X connect 19 0 46 0;
#X connect 20 0 47 0;
#X connect 21 0 44 0;
#X connect 31 0 30 0;
#X connect 44 0 7 0;
#X connect 45 0 4 0;
#X connect 46 0 5 0;
#X connect 47 0 6 0;
#X connect 48 0 0 0;
#X connect 49 0 3 0;
#X connect 50 0 2 0;
#X connect 51 0 1 0;
#X connect 60 0 16 0;
#X connect 61 0 15 0;
#X connect 62 0 17 0;
#X connect 63 0 14 0;
#X connect 64 0 18 0;
#X connect 65 0 19 0;
#X connect 66 0 20 0;
#X connect 67 0 21 0;
#X coords 0 -1 1 1 400 60 1 400 100;
