#N canvas 0 0 450 300 10;
#X obj 1505 -23 r mynotemsg;
#X obj 1662 -20 r transpose;
#X floatatom 1698 -2 5 0 0 0 - - -;
#X obj 1637 -13 bng 15 250 50 0 empty empty empty 17 7 0 10 -262144
-1 -1;
#X floatatom 1693 24 5 0 0 0 - - -;
#X floatatom 1069 244 5 0 0 0 - - -;
#X obj 1319 60 r xaxis;
#X obj 1319 83 / 127;
#X obj 1319 108 * 2;
#X obj 1099 558 hip~ 5;
#X floatatom 1101 76 4 0 100 0 - - -;
#X obj 1100 505 *~;
#X floatatom 1100 152 0 0 200 0 - - -;
#X obj 1100 407 +~;
#X obj 1099 359 samphold~;
#X obj 1100 383 *~;
#X obj 1265 414 r~ phase;
#X obj 1450 239 s~ phase;
#X obj 1187 360 r~ phase;
#X obj 1135 384 r~ phase;
#X obj 1101 119 s chunk-size;
#X floatatom 1450 71 0 0 0 0 - - -;
#X text 1217 111 chunk size;
#X text 1214 125 in seconds;
#X obj 1462 108 r chunk-size;
#X obj 1462 133 t b f;
#X obj 1265 438 -~ 0.5;
#X obj 1265 462 *~ 0.5;
#X obj 1265 485 cos~;
#X obj 1450 213 phasor~;
#X obj 1100 292 s~ read-pt;
#X obj 1138 407 r~ read-pt;
#X obj 1537 232 +~ 0.5;
#X obj 1538 258 wrap~;
#X obj 1538 283 s~ phase2;
#X obj 1099 534 +~;
#X obj 1101 96 * 0.001;
#X obj 1100 431 *~ 44100;
#X obj 1099 334 r chunk-size;
#X obj 1099 457 +~ 1;
#X floatatom 1458 190 5 0 0 0 - - -;
#X obj 1108 198 s precession;
#X obj 1575 132 t b f;
#X obj 1575 107 r precession;
#X obj 1100 175 * 0.01;
#X obj 1351 514 *~;
#X obj 1351 416 +~;
#X obj 1350 368 samphold~;
#X obj 1351 392 *~;
#X obj 1516 447 -~ 0.5;
#X obj 1516 471 *~ 0.5;
#X obj 1516 494 cos~;
#X obj 1389 416 r~ read-pt;
#X obj 1351 440 *~ 44100;
#X obj 1350 343 r chunk-size;
#X obj 1350 466 +~ 1;
#X obj 1438 369 r~ phase2;
#X obj 1386 393 r~ phase2;
#X obj 1516 423 r~ phase2;
#X text 1130 152 <-- precession \, percent;
#X obj 1101 32 loadbang;
#X text 1204 558 Here \, rather than ask you to push the read pointer
back and forth in the sample \, we use a phasor~. This makes it possible
to avoid the samphold~ on the read pointer (r~ read-pt) \, since \,
knowing the precession \, we can correct for it in computing the frequency
of the original phasor~ at right.;
#X msg 1101 54 25;
#X obj 1232 241 * 0.001;
#X text 1141 76 <-- chunk size (msec);
#X obj 1450 165 expr (pow(2 \, $f1/120)-$f3)/$f2;
#X obj 1232 266 t b f;
#X obj 1100 268 *~;
#X obj 1100 220 /;
#X obj 1100 244 phasor~ 1;
#X obj 1174 430 samplerate~;
#X floatatom 1200 222 4 0 900 0 - - -;
#X msg 1200 200 900;
#X obj 1200 176 loadbang;
#X obj 1230 200 r loop_in_ms;
#X floatatom 1512 16 5 0 0 0 - - -;
#X floatatom 1546 17 5 0 0 0 - - -;
#X obj 1505 -2 unpack f f f;
#X obj 1589 -1 inlet;
#X floatatom 1539 83 5 0 0 0 - - -;
#X obj 1656 22 -;
#X floatatom 1656 41 5 0 0 0 - - -;
#X obj 1506 62 stripnote;
#X floatatom 1284 222 10 0 0 0 - - -;
#X floatatom 1596 65 5 0 0 0 - - -;
#X obj 1506 41 spigot 1;
#X obj 1100 481 tabread4~;
#X obj 1351 490 tabread4~;
#X connect 0 0 77 0;
#X connect 1 0 2 0;
#X connect 1 0 3 0;
#X connect 1 0 80 1;
#X connect 3 0 80 0;
#X connect 6 0 7 0;
#X connect 7 0 8 0;
#X connect 10 0 36 0;
#X connect 11 0 35 0;
#X connect 12 0 44 0;
#X connect 13 0 37 0;
#X connect 14 0 15 0;
#X connect 15 0 13 0;
#X connect 16 0 26 0;
#X connect 18 0 14 1;
#X connect 19 0 15 1;
#X connect 21 0 65 0;
#X connect 24 0 25 0;
#X connect 25 0 65 0;
#X connect 25 1 65 1;
#X connect 26 0 27 0;
#X connect 27 0 28 0;
#X connect 28 0 11 1;
#X connect 29 0 17 0;
#X connect 29 0 32 0;
#X connect 31 0 13 1;
#X connect 32 0 33 0;
#X connect 33 0 34 0;
#X connect 35 0 9 0;
#X connect 36 0 20 0;
#X connect 37 0 39 0;
#X connect 38 0 14 0;
#X connect 39 0 86 0;
#X connect 42 0 65 0;
#X connect 42 1 65 2;
#X connect 43 0 42 0;
#X connect 44 0 41 0;
#X connect 44 0 68 0;
#X connect 45 0 35 1;
#X connect 46 0 53 0;
#X connect 47 0 48 0;
#X connect 48 0 46 0;
#X connect 49 0 50 0;
#X connect 50 0 51 0;
#X connect 51 0 45 1;
#X connect 52 0 46 1;
#X connect 53 0 55 0;
#X connect 54 0 47 0;
#X connect 55 0 87 0;
#X connect 56 0 47 1;
#X connect 57 0 48 1;
#X connect 58 0 49 0;
#X connect 60 0 62 0;
#X connect 62 0 10 0;
#X connect 63 0 66 0;
#X connect 63 0 67 1;
#X connect 65 0 29 0;
#X connect 65 0 40 0;
#X connect 66 0 68 0;
#X connect 66 1 68 1;
#X connect 67 0 30 0;
#X connect 68 0 69 0;
#X connect 68 0 5 0;
#X connect 69 0 67 0;
#X connect 70 0 37 1;
#X connect 72 0 71 0;
#X connect 73 0 72 0;
#X connect 74 0 63 0;
#X connect 74 0 83 0;
#X connect 77 0 75 0;
#X connect 77 0 80 0;
#X connect 77 1 76 0;
#X connect 77 1 82 1;
#X connect 78 0 85 1;
#X connect 80 0 81 0;
#X connect 80 0 85 0;
#X connect 82 0 79 0;
#X connect 82 0 21 0;
#X connect 85 0 82 0;
#X connect 86 0 11 0;
#X connect 87 0 45 0;
