#N canvas 58 0 1366 681 10;
#X obj 213 457 s \$0-stopr;
#X obj 305 458 s \$0-start;
#X obj 213 436 r looperctrl;
#X obj 307 437 r att;
#N canvas 756 298 381 325 limiter-for-two-channels 0;
#X obj 24 22 inlet~;
#X obj 121 21 loadbang;
#X obj 24 60 z~ 64;
#X obj 24 169 *~;
#X obj 53 192 outlet~;
#X obj 121 113 zexy/limiter~;
#X msg 154 62 limit 100;
#X connect 0 0 2 0;
#X connect 0 0 5 0;
#X connect 0 0 4 0;
#X connect 2 0 3 0;
#X connect 5 0 3 1;
#X restore -438 500 pd limiter-for-two-channels;
#X obj 173 664 table \$0-looperleft 2.82e+006;
#X obj -437 396 *~;
#X obj 373 302 hsl 128 25 0 1 0 1 \$0-feedback \$0-feedbackctrl feedback
20 12 0 10 -228856 -260097 -1 12700 0;
#X obj 374 342 hsl 128 25 0 1 0 1 \$0-outlevel \$0-outlevelin outlevel
20 12 0 10 -228856 -260097 -1 12700 1;
#X obj 251 319 bng 50 250 50 0 empty empty empty 17 7 0 10 -228856
-260097 -1;
#N canvas 507 427 187 154 feedbacklevel 0;
#X obj 27 81 line~;
#X obj 27 109 outlet~;
#X msg 27 57 \$1 500;
#X text 25 131 feedback level;
#X obj 95 109 outlet;
#X obj 29 26 r \$0-feedback;
#X connect 0 0 1 0;
#X connect 2 0 0 0;
#X connect 5 0 2 0;
#X connect 5 0 4 0;
#X restore -423 355 pd feedbacklevel;
#X floatatom -330 394 5 0 0 0 - - -;
#N canvas 242 208 1024 716 outlevel 0;
#X obj 27 101 line~;
#X obj 27 129 outlet~;
#X msg 27 77 \$1 500;
#X obj 82 78 outlet;
#X obj 27 24 r \$0-outlevel;
#X text 25 151 output level;
#X obj 112 25 r \$0-mute;
#X obj 131 78 bng 15 250 50 0 empty empty empty 17 7 0 10 -262144 -1
-1;
#X obj 27 51 f;
#X connect 0 0 1 0;
#X connect 2 0 0 0;
#X connect 4 0 8 0;
#X connect 6 0 8 0;
#X connect 8 0 2 0;
#X connect 8 0 3 0;
#X connect 8 0 7 0;
#X restore -406 542 pd outlevel;
#X floatatom -343 564 5 0 0 0 - - -;
#X obj 263 406 s \$0-looperleft;
#X msg 251 381 const 0;
#X text 303 336 clear loop;
#X obj -428 470 hip~ 5;
#N canvas 577 175 391 247 more-info 0;
#X text 14 204 This patch uses [count~] and [poke~] from cyclone \,
[limiter~] from zexy.;
#X text 16 72 With feedback setting at max \, it is a looper. With
lower feedback settings \, the loop content will fade away.;
#X text 15 115 The read index is one sample ahead of the write index
\, and wrapped within the loop size.;
#X text 14 17 Elementary looping delay with sound on sound. A similar
thing can be done with [delwrite~] and [delread~] or [vd~] \, but [delwrite~]
lacks the option to clear the delay buffer.;
#X text 16 153 Loop size could be up to 2^23-1 samples theoretically.
Beyond that size \, indexing will loose the required precision.;
#X restore 173 637 pd more-info;
#X obj 287 534 r \$0-start;
#X obj 182 570 s \$0-clear;
#X msg 287 556 1;
#X obj 287 577 s \$0-mute;
#X obj -421 579 *~;
#X obj -438 184 r~ vline;
#X obj 183 552 spigot;
#X obj 250 549 tgl 15 0 empty empty empty 17 7 0 10 -262144 -1 -1 1
1;
#X obj 167 533 tgl 15 0 empty empty empty 17 7 0 10 -262144 -1 -1 0
1;
#X obj -421 662 outlet~ left;
#X msg 388 458 resize \$1;
#X obj 397 478 s \$0-looperleft;
#X obj 139 378 s \$0-feedbackctrl;
#X obj 157 188 inlet feedback;
#X obj 142 355 / 100;
#X obj 147 402 outlet feedback;
#X floatatom 154 326 5 0 0 0 - - -;
#X obj 303 113 knob 32 32 0 0.7 0 0 empty empty empty 0 -8 0 8 -4034
-4034 -1 3100 1;
#X obj 356 185 inlet vol;
#N canvas 0 0 450 300 (subpatch) 0;
#X array \$0-viewer 100 float 0;
#X coords 0 -1 99 1 60 40 2 0 0;
#X restore 337 103 graph;
#X obj -267 501 tabwrite~ \$0-viewer;
#X obj -263 455 loadbang;
#N canvas 34 319 385 285 readindex 0;
#X obj 96 112 /;
#X msg 96 85 1;
#X obj 16 129 *~ 1;
#X obj 16 154 wrap~;
#X obj 96 61 t b f;
#X obj 16 182 *~ 1;
#X obj 16 13 inlet~;
#X obj 16 212 outlet~;
#X text 15 236 read pointer is one sample ahead of write pointer \,
but must be wrapped around loop length;
#X obj 96 37 int;
#X obj 16 69 +~ 1;
#X obj 96 13 r loopsize;
#X floatatom 151 44 15 0 0 0 - - -;
#X connect 0 0 2 1;
#X connect 1 0 0 0;
#X connect 2 0 3 0;
#X connect 3 0 5 0;
#X connect 4 0 1 0;
#X connect 4 1 0 1;
#X connect 5 0 7 0;
#X connect 6 0 10 0;
#X connect 9 0 4 0;
#X connect 9 0 5 1;
#X connect 10 0 2 0;
#X connect 11 0 9 0;
#X connect 11 0 12 0;
#X restore -378 249 pd readindex;
#X obj -362 219 bng 15 250 50 0 empty empty empty 17 7 0 10 -262144
-1 -1;
#X obj -294 443 bng 15 250 50 0 empty empty empty 17 7 0 10 -262144
-1 -1;
#X obj -365 192 r metrobang;
#X floatatom -419 287 15 0 0 0 - - -;
#X obj -418 267 snapshot~;
#X obj -438 329 tabread4~ \$0-looperleft;
#X obj -438 633 poke~ \$0-looperleft;
#X obj 183 532 r clearer;
#X obj 445 215 bng 15 250 50 0 empty empty empty 17 7 0 10 -262144
-1 -1;
#X obj 431 216 tgl 15 0 empty empty empty 17 7 0 10 -262144 -1 -1 0
1;
#X text 172 609 Katja Vetter dec 2010-Onyx Ashanti Remix oct 2012;
#X obj 143 436 r clear;
#X msg 138 458 30000;
#X obj -265 479 metro 100;
#X obj -427 415 inlet~ left;
#X obj 245 498 r pgmout;
#X obj 248 527 == 8;
#X obj 254 187 inlet clear;
#X obj 292 259 r pgmout;
#X obj 293 281 == 8;
#X obj 329 318 tgl 15 0 empty empty empty 17 7 0 10 -262144 -1 -1 0
1;
#X obj 327 293 sel 1;
#N canvas 756 298 381 325 limiter-for-two-channels 0;
#X obj 24 22 inlet~;
#X obj 121 21 loadbang;
#X obj 24 60 z~ 64;
#X obj 24 169 *~;
#X obj 50 199 outlet~;
#X obj 121 113 zexy/limiter~;
#X msg 154 62 limit 100;
#X connect 0 0 2 0;
#X connect 0 0 5 0;
#X connect 0 0 4 0;
#X connect 2 0 3 0;
#X connect 5 0 3 1;
#X restore -84 503 pd limiter-for-two-channels;
#X obj -83 399 *~;
#N canvas 507 427 187 135 feedbacklevel 0;
#X obj 27 81 line~;
#X obj 27 109 outlet~;
#X msg 27 57 \$1 500;
#X text 25 131 feedback level;
#X obj 95 109 outlet;
#X obj 29 26 r \$0-feedback;
#X connect 0 0 1 0;
#X connect 2 0 0 0;
#X connect 5 0 2 0;
#X connect 5 0 4 0;
#X restore -69 358 pd feedbacklevel;
#X floatatom 24 397 5 0 0 0 - - -;
#N canvas 242 208 1024 716 outlevel 0;
#X obj 27 101 line~;
#X obj 27 129 outlet~;
#X msg 27 77 \$1 500;
#X obj 82 78 outlet;
#X obj 27 24 r \$0-outlevel;
#X text 25 151 output level;
#X obj 112 25 r \$0-mute;
#X obj 131 78 bng 15 250 50 0 empty empty empty 17 7 0 10 -262144 -1
-1;
#X obj 27 51 f;
#X connect 0 0 1 0;
#X connect 2 0 0 0;
#X connect 4 0 8 0;
#X connect 6 0 8 0;
#X connect 8 0 2 0;
#X connect 8 0 3 0;
#X connect 8 0 7 0;
#X restore -52 545 pd outlevel;
#X floatatom 11 567 5 0 0 0 - - -;
#X obj -74 473 hip~ 5;
#X obj -67 582 *~;
#N canvas 34 319 385 285 readindex 0;
#X obj 96 112 /;
#X msg 96 85 1;
#X obj 16 129 *~ 1;
#X obj 16 154 wrap~;
#X obj 96 61 t b f;
#X obj 16 182 *~ 1;
#X obj 16 13 inlet~;
#X obj 16 212 outlet~;
#X text 15 236 read pointer is one sample ahead of write pointer \,
but must be wrapped around loop length;
#X obj 96 37 int;
#X obj 16 69 +~ 1;
#X obj 96 13 r loopsize;
#X floatatom 151 44 15 0 0 0 - - -;
#X connect 0 0 2 1;
#X connect 1 0 0 0;
#X connect 2 0 3 0;
#X connect 3 0 5 0;
#X connect 4 0 1 0;
#X connect 4 1 0 1;
#X connect 5 0 7 0;
#X connect 6 0 10 0;
#X connect 9 0 4 0;
#X connect 9 0 5 1;
#X connect 10 0 2 0;
#X connect 11 0 9 0;
#X connect 11 0 12 0;
#X restore -83 248 pd readindex;
#X obj -8 222 bng 15 250 50 0 empty empty empty 17 7 0 10 -262144 -1
-1;
#X obj 60 446 bng 15 250 50 0 empty empty empty 17 7 0 10 -262144 -1
-1;
#X obj -11 195 r metrobang;
#X floatatom -65 290 15 0 0 0 - - -;
#X obj -64 270 snapshot~;
#X obj -67 665 outlet~ right;
#X obj -84 332 tabread4~ \$0-looperright;
#X obj -73 418 inlet~ right;
#X obj -84 636 poke~ \$0-looperright;
#X obj 365 666 table \$0-looperright 2.82e+006;
#X obj 363 407 s \$0-looperright;
#X connect 2 0 0 0;
#X connect 3 0 1 0;
#X connect 4 0 23 0;
#X connect 4 0 48 0;
#X connect 6 0 4 0;
#X connect 9 0 15 0;
#X connect 10 0 6 1;
#X connect 10 1 11 0;
#X connect 12 0 23 1;
#X connect 12 1 13 0;
#X connect 15 0 14 0;
#X connect 15 0 83 0;
#X connect 17 0 4 0;
#X connect 19 0 21 0;
#X connect 21 0 22 0;
#X connect 23 0 39 0;
#X connect 23 0 28 0;
#X connect 24 0 48 1;
#X connect 24 0 81 1;
#X connect 24 0 79 0;
#X connect 24 0 47 0;
#X connect 25 0 20 0;
#X connect 32 0 33 0;
#X connect 32 0 35 0;
#X connect 33 0 31 0;
#X connect 33 0 34 0;
#X connect 37 0 36 0;
#X connect 40 0 55 0;
#X connect 41 0 46 0;
#X connect 41 0 47 0;
#X connect 42 0 46 0;
#X connect 43 0 55 0;
#X connect 44 0 42 0;
#X connect 46 0 45 0;
#X connect 47 0 6 0;
#X connect 49 0 25 0;
#X connect 49 0 27 0;
#X connect 53 0 54 0;
#X connect 55 0 39 0;
#X connect 56 0 17 0;
#X connect 57 0 58 0;
#X connect 58 0 25 1;
#X connect 58 0 26 0;
#X connect 60 0 61 0;
#X connect 61 0 63 0;
#X connect 63 0 62 0;
#X connect 63 0 9 0;
#X connect 64 0 71 0;
#X connect 64 0 81 0;
#X connect 65 0 64 0;
#X connect 66 0 65 1;
#X connect 66 1 67 0;
#X connect 68 0 71 1;
#X connect 68 1 69 0;
#X connect 70 0 64 0;
#X connect 71 0 78 0;
#X connect 72 0 77 0;
#X connect 72 0 79 0;
#X connect 73 0 77 0;
#X connect 75 0 73 0;
#X connect 77 0 76 0;
#X connect 79 0 65 0;
#X connect 80 0 70 0;
#X coords 0 722 1 721 100 50 2 300 100;
