#N canvas 1672 -8 1366 726 10;
#X obj 217 44 bng 15 250 50 0 empty empty empty 17 7 0 10 -262144 -1
-1;
#X obj 286 44 bng 15 250 50 0 empty empty empty 17 7 0 10 -262144 -1
-1;
#X obj 244 72 timer;
#X floatatom 254 95 10 0 0 0 - - -;
#X obj 253 153 metro;
#X obj 145 79 s clear;
#X obj 108 77 sel 1;
#X msg 287 68 0;
#X obj 248 174 bng 15 250 50 0 empty empty empty 17 7 0 10 -262144
-1 -1;
#X msg 110 102 30000;
#X floatatom 110 124 5 0 0 0 - - -;
#X obj 312 71 s stopr;
#X obj 177 150 s loop_in_ms;
#X obj 257 120 t b f f f;
#X obj 159 516 s~ vline;
#X floatatom 330 124 5 0 0 0 - - -;
#X obj 252 242 t b f;
#X msg 252 210 0;
#X floatatom 305 289 10 0 0 0 - - -;
#X obj 291 218 / 1000;
#X obj 358 242 samplerate~;
#X obj 358 221 loadbang;
#X obj 301 266 * 48000;
#X floatatom 357 265 5 0 0 0 - - -;
#X obj 307 312 s loopsize;
#X floatatom 292 240 10 0 0 0 - - -;
#X obj 950 270 s \$0-stopr;
#X obj 1042 271 s \$0-start;
#X obj 950 249 r looperctrl;
#X obj 1044 250 r att;
#N canvas 756 298 381 325 limiter-for-two-channels 0;
#X obj 24 22 inlet~;
#X obj 121 21 loadbang;
#X obj 24 60 z~ 64;
#X obj 24 169 *~;
#X obj 24 200 outlet~;
#X obj 121 113 zexy/limiter~;
#X msg 154 62 limit 100;
#X connect 0 0 2 0;
#X connect 0 0 5 0;
#X connect 2 0 3 0;
#X connect 3 0 4 0;
#X connect 5 0 3 1;
#X restore 565 502 pd limiter-for-two-channels;
#X obj 892 406 table \$0-looperleft 2.82e+006;
#X obj 566 398 *~;
#X obj 912 39 hsl 128 25 0 1 0 1 \$0-feedback \$0-feedbackctrl feedback
20 12 0 10 -228856 -260097 -1 12700 0;
#X obj 913 79 hsl 128 25 0 1 0 1 \$0-outlevel \$0-outlevelin outlevel
20 12 0 10 -228856 -260097 -1 12700 1;
#X obj 988 132 bng 50 250 50 0 empty empty empty 17 7 0 10 -228856
-260097 -1;
#N canvas 507 427 187 154 feedbacklevel 0;
#X obj 27 81 line~;
#X obj 27 109 outlet~;
#X msg 27 57 \$1 500;
#X text 25 131 feedback level;
#X obj 95 109 outlet;
#X obj 29 26 r \$0-feedback;
#X connect 0 0 1 0;
#X connect 2 0 0 0;
#X connect 5 0 2 0;
#X connect 5 0 4 0;
#X restore 580 357 pd feedbacklevel;
#X floatatom 673 396 5 0 0 0 - - -;
#N canvas 242 208 1024 716 outlevel 0;
#X obj 27 101 line~;
#X obj 27 129 outlet~;
#X msg 27 77 \$1 500;
#X obj 82 78 outlet;
#X obj 27 24 r \$0-outlevel;
#X text 25 151 output level;
#X obj 112 25 r \$0-mute;
#X obj 131 78 bng 15 250 50 0 empty empty empty 17 7 0 10 -262144 -1
-1;
#X obj 27 51 f;
#X connect 0 0 1 0;
#X connect 2 0 0 0;
#X connect 4 0 8 0;
#X connect 6 0 8 0;
#X connect 8 0 2 0;
#X connect 8 0 3 0;
#X connect 8 0 7 0;
#X restore 597 544 pd outlevel;
#X floatatom 660 566 5 0 0 0 - - -;
#X obj 1000 219 s \$0-looperleft;
#X msg 988 194 const 0;
#X text 1040 149 clear loop;
#X obj 575 472 hip~ 5;
#N canvas 577 175 391 247 more-info 0;
#X text 14 204 This patch uses [count~] and [poke~] from cyclone \,
[limiter~] from zexy.;
#X text 16 72 With feedback setting at max \, it is a looper. With
lower feedback settings \, the loop content will fade away.;
#X text 15 115 The read index is one sample ahead of the write index
\, and wrapped within the loop size.;
#X text 14 17 Elementary looping delay with sound on sound. A similar
thing can be done with [delwrite~] and [delread~] or [vd~] \, but [delwrite~]
lacks the option to clear the delay buffer.;
#X text 16 153 Loop size could be up to 2^23-1 samples theoretically.
Beyond that size \, indexing will loose the required precision.;
#X obj 325 217 mux~;
#X restore 901 374 pd more-info;
#X obj 1010 308 r \$0-start;
#X obj 905 344 s \$0-clear;
#X msg 1010 330 1;
#X obj 1010 351 s \$0-mute;
#X obj 582 581 *~;
#X obj 565 186 r~ vline;
#X obj 966 305 r pgm;
#X obj 906 326 spigot;
#X obj 973 323 tgl 15 0 empty empty empty 17 7 0 10 -262144 -1 -1 0
1;
#X obj 890 307 tgl 15 0 empty empty empty 17 7 0 10 -262144 -1 -1 0
1;
#X obj 988 108 r clear;
#X obj 876 191 s \$0-feedbackctrl;
#X obj 879 168 / 100;
#X obj 884 215 outlet feedback;
#X floatatom 891 139 5 0 0 0 - - -;
#N canvas 0 0 450 300 (subpatch) 0;
#X array \$0-viewer 100 float 0;
#X coords 0 -1 99 1 60 40 2 0 0;
#X restore 468 107 graph;
#X obj 723 629 tabwrite~ \$0-viewer;
#X obj 727 583 loadbang;
#N canvas 1188 332 385 285 readindex 1;
#X obj 96 112 /;
#X msg 96 85 1;
#X obj 16 129 *~ 1;
#X obj 16 154 wrap~;
#X obj 96 61 t b f;
#X obj 16 182 *~ 1;
#X obj 16 13 inlet~;
#X obj 16 212 outlet~;
#X text 15 236 read pointer is one sample ahead of write pointer \,
but must be wrapped around loop length;
#X obj 96 37 int;
#X obj 16 69 +~ 1;
#X obj 96 13 r loopsize;
#X floatatom 151 44 15 0 0 0 - - -;
#X connect 0 0 2 1;
#X connect 1 0 0 0;
#X connect 2 0 3 0;
#X connect 3 0 5 0;
#X connect 4 0 1 0;
#X connect 4 1 0 1;
#X connect 5 0 7 0;
#X connect 6 0 10 0;
#X connect 9 0 4 0;
#X connect 9 0 5 1;
#X connect 10 0 2 0;
#X connect 11 0 9 0;
#X connect 11 0 12 0;
#X restore 566 247 pd readindex;
#X obj 641 221 bng 15 250 50 0 empty empty empty 17 7 0 10 -262144
-1 -1;
#X obj 696 571 bng 15 250 50 0 empty empty empty 17 7 0 10 -262144
-1 -1;
#X obj 638 194 r metrobang;
#X floatatom 584 289 15 0 0 0 - - -;
#X obj 585 269 snapshot~;
#X obj 565 331 tabread4~ \$0-looperleft;
#X obj 565 635 poke~ \$0-looperleft;
#X obj 906 306 r clearer;
#X obj 880 249 r clear;
#X msg 875 271 30000;
#X obj 725 607 metro 100;
#X obj 576 440 *~;
#X obj 642 14 loadbang;
#X obj 594 71 sel 0 1;
#X floatatom 644 72 5 0 0 0 - - -;
#X obj 598 12 r jrb1;
#X msg 643 37 1 0;
#X obj 591 141 unpack f f;
#X floatatom 652 162 5 0 0 0 - - -;
#X floatatom 595 163 5 0 0 0 - - -;
#X obj 623 439 *~;
#X msg 613 118 0 1;
#X obj 598 34 change;
#X msg 594 95 1 0;
#N canvas 109 25 1208 762 mypitchshifter 0;
#X obj 197 318 e_pitchshift;
#X msg 384 267 pitch \$1;
#X floatatom 384 246 5 0 0 0 - - -;
#X text 427 246 Pitch Shift;
#X obj 508 242 r mynotemsg;
#X obj 491 278 unpack f f f;
#X obj 365 148 r breath;
#X obj 371 201 sig~;
#X obj 369 176 / 127;
#X obj 361 233 lop~ 80;
#X floatatom 451 209 5 0 0 0 - - -;
#X obj 345 259 * 3;
#X floatatom 393 308 5 0 0 0 - - -;
#X obj 365 387 *~ 1;
#X floatatom 507 302 5 0 0 0 - - -;
#X floatatom 455 388 5 0 0 0 - - -;
#X obj 496 319 mod 48;
#X obj 448 340 + 8;
#X floatatom 505 360 5 0 0 0 - - -;
#X msg 520 434 freq \$1;
#X obj 523 392 hsl 128 15 0 1 0 0 empty empty Frequency -2 -8 1 10
-262144 -1 -1 0 1;
#X obj 543 484 hsl 128 15 0 1 0 0 empty empty Depth -2 -8 1 10 -262144
-1 -1 0 1;
#X msg 540 526 depth \$1;
#X obj 439 557 e_phaser ph0;
#X floatatom 520 412 5 0 0 0 - - -;
#X floatatom 540 504 5 0 0 0 - - -;
#X obj 710 345 r xaxisr;
#X obj 757 382 r yaxisr;
#X obj 389 581 outlet~;
#X obj 186 263 inlet~;
#X connect 0 0 13 0;
#X connect 1 0 0 1;
#X connect 2 0 1 0;
#X connect 4 0 5 0;
#X connect 5 0 14 0;
#X connect 5 0 16 0;
#X connect 6 0 8 0;
#X connect 7 0 9 0;
#X connect 8 0 7 0;
#X connect 8 0 10 0;
#X connect 8 0 11 0;
#X connect 11 0 12 0;
#X connect 11 0 13 1;
#X connect 13 0 23 0;
#X connect 16 0 17 0;
#X connect 16 0 18 0;
#X connect 17 0 2 0;
#X connect 17 0 15 0;
#X connect 19 0 23 1;
#X connect 20 0 24 0;
#X connect 21 0 25 0;
#X connect 22 0 23 1;
#X connect 23 0 28 0;
#X connect 24 0 19 0;
#X connect 25 0 22 0;
#X connect 26 0 20 0;
#X connect 27 0 21 0;
#X connect 29 0 0 0;
#X restore 626 471 pd mypitchshifter;
#X obj 295 176 s metrobang;
#X obj 401 96 *~;
#X obj 404 57 osc~ 500;
#X obj 461 59 tgl 15 0 empty empty empty 17 7 0 10 -262144 -1 -1 0
1;
#X obj 582 664 dac~ 1;
#X obj 143 42 tgl 15 0 empty empty empty 17 7 0 10 -262144 -1 -1 1
1;
#X text 909 422;
#X floatatom 145 345 0 0 0 0 - - -;
#X obj 141 449 *~ 0;
#X obj 141 373 * 1;
#X floatatom 148 394 10 0 0 0 - - -;
#X msg 145 193 1;
#X obj 145 174 loadbang;
#X obj 96 489 env~;
#X floatatom 94 517 10 0 0 0 - - -;
#X text 56 22 click here first;
#X text 190 24 then here;
#X text 274 22 then here;
#X text 409 26 then here to toggle on/off;
#X obj 79 320 hsl 128 15 -1 2 0 0 empty empty empty -2 -8 0 10 -262144
-1 -1 6067 1;
#X obj 143 422 phasor~;
#X connect 0 0 2 0;
#X connect 0 0 4 0;
#X connect 1 0 2 1;
#X connect 1 0 7 0;
#X connect 1 0 11 0;
#X connect 2 0 3 0;
#X connect 3 0 13 0;
#X connect 4 0 8 0;
#X connect 4 0 17 0;
#X connect 6 0 9 0;
#X connect 8 0 89 0;
#X connect 9 0 10 0;
#X connect 10 0 3 0;
#X connect 13 0 4 0;
#X connect 13 1 4 1;
#X connect 13 2 19 0;
#X connect 13 3 15 0;
#X connect 17 0 16 0;
#X connect 18 0 24 0;
#X connect 19 0 25 0;
#X connect 19 0 98 1;
#X connect 20 0 22 1;
#X connect 20 0 23 0;
#X connect 21 0 20 0;
#X connect 22 0 18 0;
#X connect 22 0 97 1;
#X connect 25 0 22 0;
#X connect 28 0 26 0;
#X connect 29 0 27 0;
#X connect 30 0 49 0;
#X connect 30 0 70 0;
#X connect 32 0 30 0;
#X connect 35 0 41 0;
#X connect 36 0 32 1;
#X connect 36 1 37 0;
#X connect 38 0 49 1;
#X connect 38 1 39 0;
#X connect 41 0 40 0;
#X connect 43 0 30 0;
#X connect 45 0 47 0;
#X connect 47 0 48 0;
#X connect 49 0 61 0;
#X connect 49 0 93 0;
#X connect 50 0 70 1;
#X connect 50 0 63 0;
#X connect 51 0 52 1;
#X connect 51 0 53 0;
#X connect 52 0 46 0;
#X connect 55 0 35 0;
#X connect 57 0 56 0;
#X connect 57 0 58 0;
#X connect 62 0 74 0;
#X connect 63 0 68 0;
#X connect 63 0 69 0;
#X connect 64 0 68 0;
#X connect 65 0 74 0;
#X connect 66 0 64 0;
#X connect 68 0 67 0;
#X connect 69 0 32 0;
#X connect 69 0 61 0;
#X connect 71 0 52 0;
#X connect 71 0 54 0;
#X connect 72 0 73 0;
#X connect 74 0 61 0;
#X connect 75 0 43 0;
#X connect 76 0 80 0;
#X connect 77 0 87 0;
#X connect 77 1 85 0;
#X connect 79 0 78 0;
#X connect 79 0 86 0;
#X connect 80 0 81 0;
#X connect 81 0 75 1;
#X connect 81 0 83 0;
#X connect 81 1 82 0;
#X connect 81 1 84 1;
#X connect 84 0 88 0;
#X connect 85 0 81 0;
#X connect 86 0 77 0;
#X connect 87 0 81 0;
#X connect 88 0 43 0;
#X connect 90 0 61 0;
#X connect 90 0 75 0;
#X connect 90 0 84 0;
#X connect 91 0 90 0;
#X connect 92 0 90 1;
#X connect 94 0 6 0;
#X connect 94 0 5 0;
#X connect 94 0 100 0;
#X connect 96 0 98 0;
#X connect 97 0 14 0;
#X connect 97 0 102 0;
#X connect 98 0 99 0;
#X connect 98 0 109 0;
#X connect 100 0 108 0;
#X connect 101 0 100 0;
#X connect 102 0 103 0;
#X connect 108 0 96 0;
#X connect 109 0 97 0;
