#N canvas 0 0 1680 1008 10;
#X obj 729 205 tgl 15 0 empty empty empty 17 7 0 10 -262144 -1 -1 0
1;
#X obj 809 439 r loopselect;
#X obj 808 461 t 1 2 3 4 5 6 7 8;
#X floatatom 887 439 5 0 0 0 - - -;
#X obj 574 209 tgl 15 0 empty empty empty 17 7 0 10 -262144 -1 -1 0
1;
#X obj 817 207 tgl 15 0 empty empty empty 17 7 0 10 -262144 -1 -1 0
1;
#X obj 493 209 tgl 15 0 empty empty empty 17 7 0 10 -262144 -1 -1 0
1;
#X obj 928 205 tgl 15 0 empty empty empty 17 7 0 10 -262144 -1 -1 0
1;
#X obj 1048 209 tgl 15 0 empty empty empty 17 7 0 10 -262144 -1 -1
0 1;
#X obj 1168 206 tgl 15 0 empty empty empty 17 7 0 10 -262144 -1 -1
0 1;
#X obj 1262 203 tgl 15 0 empty empty empty 17 7 0 10 -262144 -1 -1
0 1;
#X obj 510 185 == 4;
#X obj 909 179 == 5;
#X obj 1035 182 == 6;
#X obj 1143 180 == 7;
#X obj 1254 179 == 8;
#X obj 457 550 catch~ synthfeed2;
#N canvas 860 149 613 601 loopctrlr 0;
#X obj 102 81 spigot;
#X obj 26 291 throw~ synthfeed2;
#X obj 104 102 tgl 15 0 empty empty empty 17 7 0 10 -262144 -1 -1 0
1;
#X obj 145 81 sel 0;
#X msg 145 102 0;
#X obj 42 58 inlet~;
#X obj 174 171 outlet looprec;
#X obj 121 314 outlet~;
#X obj 166 53 inlet;
#X obj 102 54 r looprec;
#X obj 263 54 r xaxis;
#X obj 263 80 spigot;
#X obj 265 168 outlet feedback;
#X obj 105 130 sel 0 1;
#X msg 106 157 1 0;
#X msg 139 158 0 1;
#X obj 106 189 unpack f f;
#X obj 50 244 lop~ 80;
#X obj 136 235 lop~ 80;
#X obj 35 264 *~;
#X obj 121 257 *~;
#X obj 51 222 sig~;
#X obj 136 212 sig~;
#X obj 198 82 loadbang;
#X obj 392 131 spigot;
#X obj 393 101 r outlevel;
#X obj 387 178 outlet outlevel;
#X floatatom 447 233 5 0 0 0 - - -;
#X obj 517 178 outlet clear;
#X obj 314 54 r fb2;
#N canvas 2313 345 450 300 loopclear 0;
#X obj 167 106 spigot;
#X floatatom 211 119 5 0 0 0 - - -;
#X obj 181 144 == 1;
#X msg 263 141 0;
#X obj 79 82 inlet looprec;
#X obj 124 246 outlet clearer;
#X obj 201 82 r recspigot2;
#X obj 192 218 send mute2;
#X connect 0 0 2 0;
#X connect 0 0 5 0;
#X connect 2 0 3 0;
#X connect 2 0 7 0;
#X connect 3 0 0 1;
#X connect 4 0 0 0;
#X connect 6 0 0 1;
#X connect 6 0 1 0;
#X restore 517 140 pd loopclear 2;
#X connect 0 0 2 0;
#X connect 2 0 6 0;
#X connect 2 0 13 0;
#X connect 2 0 30 0;
#X connect 3 0 4 0;
#X connect 4 0 2 0;
#X connect 5 0 19 0;
#X connect 5 0 20 0;
#X connect 8 0 0 1;
#X connect 8 0 3 0;
#X connect 8 0 24 1;
#X connect 9 0 0 0;
#X connect 10 0 11 0;
#X connect 11 0 12 0;
#X connect 13 0 14 0;
#X connect 13 1 15 0;
#X connect 14 0 16 0;
#X connect 15 0 16 0;
#X connect 16 0 21 0;
#X connect 16 1 22 0;
#X connect 17 0 19 1;
#X connect 18 0 20 1;
#X connect 19 0 1 0;
#X connect 20 0 7 0;
#X connect 21 0 17 0;
#X connect 22 0 18 0;
#X connect 23 0 14 0;
#X connect 24 0 26 0;
#X connect 24 0 27 0;
#X connect 25 0 24 0;
#X connect 29 0 11 1;
#X connect 30 0 28 0;
#X coords 0 -1 1 1 50 20 2 100 100;
#X restore 659 203 pd loopctrlr;
#X obj 792 184 == 1;
#X obj 615 181 == 3;
#X obj 722 180 == 2;
#X obj 713 481 *~;
#X obj 44 12 r jlu1;
#X obj 47 31 change;
#X obj 186 15 r looperctrl;
#X obj 21 294 bng 15 250 50 0 empty empty empty 17 7 0 10 -262144 -1
-1;
#X obj 90 294 bng 15 250 50 0 empty empty empty 17 7 0 10 -262144 -1
-1;
#X obj 48 322 timer;
#X obj 21 273 spigot 1;
#X obj 188 193 s att;
#X obj 20 253 r att;
#X floatatom 59 347 10 0 0 0 - - -;
#X floatatom 142 464 10 0 0 0 - - -;
#X obj 141 422 / 1000;
#X obj 48 397 metro;
#X obj 91 515 f \$1;
#X obj 229 174 sel 1;
#X obj 48 564 pack f f;
#X obj 48 514 f \$1;
#X obj 306 260 bng 30 250 50 0 empty empty empty 17 7 0 10 -159808
-1 -1;
#X obj 188 173 sel 1;
#X obj 188 153 t f f b;
#X obj 195 133 s recdub;
#X obj 250 133 s dub;
#X obj 88 248 r dub;
#X obj 89 274 spigot 1;
#X obj 47 56 s clear;
#X obj 812 416 s loopselect;
#X obj 184 421 samplerate~;
#X obj 184 400 loadbang;
#X obj 141 445 * 48000;
#X floatatom 195 445 5 0 0 0 - - -;
#X obj 812 392 r pgmout;
#X floatatom 866 393 5 0 0 0 - - -;
#X obj 198 78 s looprec;
#X obj 47 607 vline~;
#X obj 47 630 s~ vline;
#X obj 66 230 int;
#X obj 306 205 tgl 30 0 empty empty empty 17 7 0 10 -257985 -1 -1 0
1;
#X obj 10 54 sel 1;
#X obj 407 367 s length_on_off;
#X msg 91 318 0;
#X obj 246 197 bng 15 250 50 0 empty empty empty 17 7 0 10 -262144
-1 -1;
#X obj 264 197 bng 15 250 50 0 empty empty empty 17 7 0 10 -262144
-1 -1;
#X obj 227 197 bng 15 250 50 0 empty empty empty 17 7 0 10 -262144
-1 -1;
#X obj 199 113 sel 1 0;
#X obj 266 15 tgl 15 0 empty empty empty 17 7 0 10 -262144 -1 -1 0
0.000977517;
#X obj 188 59 tgl 15 0 empty empty empty 17 7 0 10 -262144 -1 -1 0
1;
#X obj 186 35 sel 1 0;
#X obj 399 258 bng 30 250 50 0 empty empty empty 17 7 0 10 -258113
-1 -1;
#X obj 349 258 bng 30 250 50 0 empty empty empty 17 7 0 10 -4034 -1
-1;
#X obj 400 206 bng 30 250 50 0 empty empty empty 17 7 0 10 -258113
-1 -1;
#X obj 350 205 bng 30 250 50 0 empty empty empty 17 7 0 10 -260097
-1 -1;
#X obj 309 123 s alarm;
#X msg 270 93 354.331 2 1960.63 0 0 0 0;
#X msg 272 40 165.354 3 1771.65 1110.24 0 0 0;
#X msg 273 66 291.339 2 496.063 448.819 0 0 0;
#X msg 158 56 0;
#X obj 32 422 bng 15 250 50 0 empty empty empty 17 7 0 10 -262144 -1
-1;
#X msg 12 79 30000;
#X msg 12 101 \$1;
#X floatatom 11 124 5 0 0 0 - - -;
#X obj 163 503 s loopsize;
#X obj 114 300 s stopr;
#X obj 645 483 *~;
#X obj 588 482 *~;
#X obj 728 386 r mute1;
#X obj 660 385 r mute2;
#X obj 592 387 r mute3;
#X obj 803 286 tgl 40 0 empty empty empty 17 7 0 10 -191407 -1 -1 0
1;
#X obj 669 288 tgl 40 0 empty empty empty 17 7 0 10 -191407 -1 -1 0
1;
#X obj 593 411 sel 1;
#X obj 563 287 tgl 40 0 empty empty empty 17 7 0 10 -191407 -1 -1 0
1;
#X obj 510 483 *~;
#X obj 941 485 *~;
#X obj 1007 490 *~;
#X obj 518 414 sel 1;
#X obj 460 285 tgl 40 0 empty empty empty 17 7 0 10 -191407 -1 -1 0
1;
#X obj 954 413 sel 1;
#X obj 929 286 tgl 40 0 empty empty empty 17 7 0 10 -191407 -1 -1 0
1;
#X obj 1022 417 sel 1;
#X obj 1010 285 tgl 40 0 empty empty empty 17 7 0 10 -191407 -1 -1
0 1;
#X obj 1075 490 *~;
#X obj 1141 486 *~;
#X obj 1088 418 sel 1;
#X obj 1114 283 tgl 40 0 empty empty empty 17 7 0 10 -191407 -1 -1
0 1;
#X obj 1156 413 sel 1;
#X obj 1226 281 tgl 40 0 empty empty empty 17 7 0 10 -191407 -1 -1
0 1;
#X obj 524 390 r mute4;
#X obj 956 387 r mute5;
#X obj 1021 393 r mute6;
#X obj 1090 392 r mute7;
#X obj 1155 389 r mute8;
#X obj 731 432 sig~;
#X obj 732 457 lop~ 80;
#X obj 662 436 sig~;
#X obj 663 461 lop~ 80;
#X obj 592 434 sig~;
#X obj 593 459 lop~ 80;
#X obj 522 438 sig~;
#X obj 523 463 lop~ 80;
#X obj 954 436 sig~;
#X obj 955 461 lop~ 80;
#X obj 1020 440 sig~;
#X obj 1021 465 lop~ 80;
#X obj 1091 438 sig~;
#X obj 1092 463 lop~ 80;
#X obj 1158 434 sig~;
#X obj 1159 459 lop~ 80;
#X obj 677 588 rev1~;
#N canvas 0 0 450 300 panner 0;
#X obj 35 38 inlet~ signal;
#X obj 125 37 inlet control;
#X obj 125 59 sig~;
#X obj 124 81 lop~ 1;
#X obj 123 102 *~ 0.25;
#X obj 123 123 -~ 0.25;
#X obj 122 146 cos~;
#X obj 52 158 -~ 0.25;
#X obj 52 179 cos~;
#X obj 36 201 *~;
#X obj 108 205 *~;
#X obj 36 235 outlet~;
#X obj 107 235 outlet~;
#X text 43 252 Cosine Panner;
#X connect 0 0 9 0;
#X connect 0 0 10 0;
#X connect 1 0 2 0;
#X connect 2 0 3 0;
#X connect 3 0 4 0;
#X connect 4 0 5 0;
#X connect 5 0 6 0;
#X connect 5 0 7 0;
#X connect 6 0 10 1;
#X connect 7 0 8 0;
#X connect 8 0 9 1;
#X connect 9 0 11 0;
#X connect 10 0 12 0;
#X restore 679 618 pd panner;
#X obj 658 411 sel 1;
#X obj 726 368 s fbo1;
#X obj 666 364 s fbo2;
#X obj 593 365 s fbo3;
#X obj 528 363 s fbo4;
#X obj 957 360 s fbo5;
#X obj 1023 361 s fbo6;
#X obj 1091 362 s fbo7;
#X obj 1158 362 s fbo8;
#X text 800 238 1;
#X text 703 239 2;
#X text 601 238 3;
#X text 496 236 4;
#X text 931 242 5;
#X text 1036 239 6;
#X text 1143 237 7;
#X text 1253 234 8;
#N canvas 0 0 450 300 volctrl 0;
#X obj 67 97 inlet~ synthsig;
#X obj 183 97 r outlevel;
#X obj 268 98 inlet chnltoggle;
#X obj 184 134 spigot;
#X obj 184 158 clip 0 0.7;
#X obj 94 233 outlet~ synthsigout;
#X obj 88 175 *~ 0.5;
#X obj 232 242 outlet vol;
#X connect 0 0 6 0;
#X connect 1 0 3 0;
#X connect 2 0 3 1;
#X connect 3 0 4 0;
#X connect 4 0 6 1;
#X connect 4 0 7 0;
#X connect 6 0 5 0;
#X restore 548 174 pd volctrl;
#N canvas 0 0 450 300 volctrl 0;
#X obj 67 97 inlet~ synthsig;
#X obj 183 97 r outlevel;
#X obj 268 98 inlet chnltoggle;
#X obj 184 134 spigot;
#X obj 184 158 clip 0 0.7;
#X obj 94 233 outlet~ synthsigout;
#X obj 88 175 *~ 0.5;
#X floatatom 269 160 5 0 0 0 - - -;
#X obj 222 232 outlet vol;
#X obj 103 128 loadbang;
#X connect 0 0 6 0;
#X connect 1 0 3 0;
#X connect 2 0 3 1;
#X connect 3 0 4 0;
#X connect 4 0 6 1;
#X connect 4 0 7 0;
#X connect 4 0 8 0;
#X connect 6 0 5 0;
#X connect 9 0 6 0;
#X restore 438 182 pd volctrl;
#N canvas 0 0 450 300 volctrl 0;
#X obj 67 97 inlet~ synthsig;
#X obj 183 97 r outlevel;
#X obj 268 98 inlet chnltoggle;
#X obj 184 134 spigot;
#X obj 184 158 clip 0 0.7;
#X obj 94 233 outlet~ synthsigout;
#X obj 88 175 *~ 0.5;
#X obj 242 252 outlet vol;
#X connect 0 0 6 0;
#X connect 1 0 3 0;
#X connect 2 0 3 1;
#X connect 3 0 4 0;
#X connect 4 0 6 1;
#X connect 4 0 7 0;
#X connect 6 0 5 0;
#X restore 654 172 pd volctrl;
#N canvas 210 334 450 300 volctrl 0;
#X obj 67 97 inlet~ synthsig;
#X obj 183 97 r outlevel;
#X obj 268 98 inlet chnltoggle;
#X obj 184 134 spigot;
#X obj 94 233 outlet~ synthsigout;
#X obj 88 175 *~ 0.5;
#X obj 252 262 outlet vol;
#X obj 184 158 clip 0 1;
#X connect 0 0 5 0;
#X connect 1 0 3 0;
#X connect 2 0 3 1;
#X connect 3 0 7 0;
#X connect 5 0 4 0;
#X connect 7 0 5 1;
#X connect 7 0 6 0;
#X restore 771 163 pd volctrl;
#N canvas 0 0 450 300 volctrl 0;
#X obj 67 97 inlet~ synthsig;
#X obj 183 97 r outlevel;
#X obj 268 98 inlet chnltoggle;
#X obj 184 134 spigot;
#X obj 184 158 clip 0 0.7;
#X obj 94 233 outlet~ synthsigout;
#X obj 88 175 *~ 0.5;
#X obj 262 272 outlet vol;
#X connect 0 0 6 0;
#X connect 1 0 3 0;
#X connect 2 0 3 1;
#X connect 3 0 4 0;
#X connect 4 0 6 1;
#X connect 4 0 7 0;
#X connect 6 0 5 0;
#X restore 872 158 pd volctrl;
#N canvas 0 0 450 300 volctrl 0;
#X obj 67 97 inlet~ synthsig;
#X obj 183 97 r outlevel;
#X obj 268 98 inlet chnltoggle;
#X obj 184 134 spigot;
#X obj 184 158 clip 0 0.7;
#X obj 94 233 outlet~ synthsigout;
#X obj 88 175 *~ 0.5;
#X obj 272 282 outlet vol;
#X connect 0 0 6 0;
#X connect 1 0 3 0;
#X connect 2 0 3 1;
#X connect 3 0 4 0;
#X connect 4 0 6 1;
#X connect 4 0 7 0;
#X connect 6 0 5 0;
#X restore 998 162 pd volctrl;
#N canvas 0 0 450 318 volctrl 0;
#X obj 67 97 inlet~ synthsig;
#X obj 183 97 r outlevel;
#X obj 268 98 inlet chnltoggle;
#X obj 184 134 spigot;
#X obj 184 158 clip 0 0.7;
#X obj 94 233 outlet~ synthsigout;
#X obj 88 175 *~ 0.5;
#X obj 282 292 outlet vol;
#X connect 0 0 6 0;
#X connect 1 0 3 0;
#X connect 2 0 3 1;
#X connect 3 0 4 0;
#X connect 4 0 6 1;
#X connect 4 0 7 0;
#X connect 6 0 5 0;
#X restore 1107 160 pd volctrl;
#N canvas 0 0 450 383 volctrl 0;
#X obj 67 97 inlet~ synthsig;
#X obj 183 97 r outlevel;
#X obj 268 98 inlet chnltoggle;
#X obj 184 134 spigot;
#X obj 184 158 clip 0 0.7;
#X obj 94 233 outlet~ synthsigout;
#X obj 88 175 *~ 0.5;
#X obj 292 302 outlet vol;
#X connect 0 0 6 0;
#X connect 1 0 3 0;
#X connect 2 0 3 1;
#X connect 3 0 4 0;
#X connect 4 0 6 1;
#X connect 4 0 7 0;
#X connect 6 0 5 0;
#X restore 1215 157 pd volctrl;
#X obj 722 410 sel 1 0;
#X obj 752 509 == 0;
#X obj 750 533 s recspigot1;
#N canvas 0 7 613 601 loopctrlr 0;
#X obj 102 81 spigot;
#X obj 26 291 throw~ synthfeed2;
#X obj 104 102 tgl 15 0 empty empty empty 17 7 0 10 -262144 -1 -1 0
1;
#X obj 145 81 sel 0;
#X msg 145 102 0;
#X obj 42 58 inlet~;
#X obj 174 171 outlet looprec;
#X obj 121 314 outlet~;
#X obj 166 53 inlet;
#X obj 102 54 r looprec;
#X obj 263 54 r xaxis;
#X obj 263 80 spigot;
#X obj 265 168 outlet feedback;
#X obj 105 130 sel 0 1;
#X msg 106 157 1 0;
#X msg 139 158 0 1;
#X obj 106 189 unpack f f;
#X obj 50 244 lop~ 80;
#X obj 136 235 lop~ 80;
#X obj 35 264 *~;
#X obj 121 257 *~;
#X obj 51 222 sig~;
#X obj 136 212 sig~;
#X obj 198 82 loadbang;
#X obj 392 131 spigot;
#X obj 393 101 r outlevel;
#X obj 387 178 outlet outlevel;
#X floatatom 447 233 5 0 0 0 - - -;
#X obj 517 178 outlet clear;
#X obj 314 54 r fb3;
#N canvas 681 239 450 300 loopclear 0;
#X obj 167 106 spigot;
#X floatatom 211 119 5 0 0 0 - - -;
#X obj 181 144 == 1;
#X msg 263 141 0;
#X obj 79 82 inlet looprec;
#X obj 124 246 outlet clearer;
#X obj 201 82 r recspigot3;
#X obj 192 218 send mute3;
#X connect 0 0 2 0;
#X connect 0 0 5 0;
#X connect 2 0 3 0;
#X connect 2 0 7 0;
#X connect 3 0 0 1;
#X connect 4 0 0 0;
#X connect 6 0 0 1;
#X connect 6 0 1 0;
#X restore 525 140 pd loopclear 3;
#X connect 0 0 2 0;
#X connect 2 0 6 0;
#X connect 2 0 13 0;
#X connect 2 0 30 0;
#X connect 3 0 4 0;
#X connect 4 0 2 0;
#X connect 5 0 19 0;
#X connect 5 0 20 0;
#X connect 8 0 0 1;
#X connect 8 0 3 0;
#X connect 8 0 24 1;
#X connect 9 0 0 0;
#X connect 10 0 11 0;
#X connect 11 0 12 0;
#X connect 13 0 14 0;
#X connect 13 1 15 0;
#X connect 14 0 16 0;
#X connect 15 0 16 0;
#X connect 16 0 21 0;
#X connect 16 1 22 0;
#X connect 17 0 19 1;
#X connect 18 0 20 1;
#X connect 19 0 1 0;
#X connect 20 0 7 0;
#X connect 21 0 17 0;
#X connect 22 0 18 0;
#X connect 23 0 14 0;
#X connect 24 0 26 0;
#X connect 24 0 27 0;
#X connect 25 0 24 0;
#X connect 29 0 11 1;
#X connect 30 0 28 0;
#X coords 0 -1 1 1 50 20 2 100 100;
#X restore 543 207 pd loopctrlr;
#X obj 672 509 == 0;
#X obj 670 533 s recspigot2;
#X obj 591 508 == 0;
#X obj 589 532 s recspigot3;
#X obj 498 507 == 0;
#X obj 496 531 s recspigot4;
#N canvas 2061 69 613 601 loopctrlr 0;
#X obj 102 81 spigot;
#X obj 26 291 throw~ synthfeed2;
#X obj 104 102 tgl 15 0 empty empty empty 17 7 0 10 -262144 -1 -1 0
1;
#X obj 145 81 sel 0;
#X msg 145 102 0;
#X obj 42 58 inlet~;
#X obj 174 171 outlet looprec;
#X obj 121 314 outlet~;
#X obj 166 53 inlet;
#X obj 102 54 r looprec;
#X obj 263 54 r xaxis;
#X obj 263 80 spigot;
#X obj 265 168 outlet feedback;
#X obj 105 130 sel 0 1;
#X msg 106 157 1 0;
#X msg 139 158 0 1;
#X obj 106 189 unpack f f;
#X obj 50 244 lop~ 80;
#X obj 136 235 lop~ 80;
#X obj 35 264 *~;
#X obj 121 257 *~;
#X obj 51 222 sig~;
#X obj 136 212 sig~;
#X obj 198 82 loadbang;
#X obj 392 131 spigot;
#X obj 393 101 r outlevel;
#X obj 387 178 outlet outlevel;
#X floatatom 447 233 5 0 0 0 - - -;
#X obj 517 178 outlet clear;
#X obj 314 54 r fb4;
#N canvas 681 239 450 300 loopclear 0;
#X obj 167 106 spigot;
#X floatatom 211 119 5 0 0 0 - - -;
#X obj 181 144 == 1;
#X msg 263 141 0;
#X obj 79 82 inlet looprec;
#X obj 124 246 outlet clearer;
#X obj 201 82 r recspigot4;
#X obj 192 218 send mute4;
#X connect 0 0 2 0;
#X connect 0 0 5 0;
#X connect 2 0 3 0;
#X connect 2 0 7 0;
#X connect 3 0 0 1;
#X connect 4 0 0 0;
#X connect 6 0 0 1;
#X connect 6 0 1 0;
#X restore 515 149 pd loopclear;
#X connect 0 0 2 0;
#X connect 2 0 6 0;
#X connect 2 0 13 0;
#X connect 2 0 30 0;
#X connect 3 0 4 0;
#X connect 4 0 2 0;
#X connect 5 0 19 0;
#X connect 5 0 20 0;
#X connect 8 0 0 1;
#X connect 8 0 3 0;
#X connect 8 0 24 1;
#X connect 9 0 0 0;
#X connect 10 0 11 0;
#X connect 11 0 12 0;
#X connect 13 0 14 0;
#X connect 13 1 15 0;
#X connect 14 0 16 0;
#X connect 15 0 16 0;
#X connect 16 0 21 0;
#X connect 16 1 22 0;
#X connect 17 0 19 1;
#X connect 18 0 20 1;
#X connect 19 0 1 0;
#X connect 20 0 7 0;
#X connect 21 0 17 0;
#X connect 22 0 18 0;
#X connect 23 0 14 0;
#X connect 24 0 26 0;
#X connect 24 0 27 0;
#X connect 25 0 24 0;
#X connect 29 0 11 1;
#X connect 30 0 28 0;
#X coords 0 -1 1 1 50 20 2 100 100;
#X restore 437 204 pd loopctrlr;
#N canvas 156 96 613 601 loopctrlr 0;
#X obj 102 81 spigot;
#X obj 26 291 throw~ synthfeed2;
#X obj 104 102 tgl 15 0 empty empty empty 17 7 0 10 -262144 -1 -1 0
1;
#X obj 145 81 sel 0;
#X msg 145 102 0;
#X obj 42 58 inlet~;
#X obj 174 171 outlet looprec;
#X obj 121 314 outlet~;
#X obj 166 53 inlet;
#X obj 102 54 r looprec;
#X obj 263 54 r xaxis;
#X obj 263 80 spigot;
#X obj 265 168 outlet feedback;
#X obj 105 130 sel 0 1;
#X msg 106 157 1 0;
#X msg 139 158 0 1;
#X obj 106 189 unpack f f;
#X obj 50 244 lop~ 80;
#X obj 136 235 lop~ 80;
#X obj 35 264 *~;
#X obj 121 257 *~;
#X obj 51 222 sig~;
#X obj 136 212 sig~;
#X obj 198 82 loadbang;
#X obj 392 131 spigot;
#X obj 393 101 r outlevel;
#X obj 387 178 outlet outlevel;
#X floatatom 447 233 5 0 0 0 - - -;
#X obj 517 178 outlet clear;
#N canvas 681 239 450 300 loopclear 0;
#X obj 167 106 spigot;
#X floatatom 211 119 5 0 0 0 - - -;
#X obj 181 144 == 1;
#X msg 263 141 0;
#X obj 79 82 inlet looprec;
#X obj 124 246 outlet clearer;
#X obj 201 82 r recspigot5;
#X obj 192 218 send mute5;
#X connect 0 0 2 0;
#X connect 0 0 5 0;
#X connect 2 0 3 0;
#X connect 2 0 7 0;
#X connect 3 0 0 1;
#X connect 4 0 0 0;
#X connect 6 0 0 1;
#X connect 6 0 1 0;
#X restore 515 149 pd loopclear;
#X obj 314 54 r fb5;
#X connect 0 0 2 0;
#X connect 2 0 6 0;
#X connect 2 0 13 0;
#X connect 2 0 29 0;
#X connect 3 0 4 0;
#X connect 4 0 2 0;
#X connect 5 0 19 0;
#X connect 5 0 20 0;
#X connect 8 0 0 1;
#X connect 8 0 3 0;
#X connect 8 0 24 1;
#X connect 9 0 0 0;
#X connect 10 0 11 0;
#X connect 11 0 12 0;
#X connect 13 0 14 0;
#X connect 13 1 15 0;
#X connect 14 0 16 0;
#X connect 15 0 16 0;
#X connect 16 0 21 0;
#X connect 16 1 22 0;
#X connect 17 0 19 1;
#X connect 18 0 20 1;
#X connect 19 0 1 0;
#X connect 20 0 7 0;
#X connect 21 0 17 0;
#X connect 22 0 18 0;
#X connect 23 0 14 0;
#X connect 24 0 26 0;
#X connect 24 0 27 0;
#X connect 25 0 24 0;
#X connect 29 0 28 0;
#X connect 30 0 11 1;
#X coords 0 -1 1 1 50 20 2 100 100;
#X restore 877 203 pd loopctrlr;
#N canvas 156 96 613 601 loopctrlr 0;
#X obj 102 81 spigot;
#X obj 26 291 throw~ synthfeed2;
#X obj 104 102 tgl 15 0 empty empty empty 17 7 0 10 -262144 -1 -1 0
1;
#X obj 145 81 sel 0;
#X msg 145 102 0;
#X obj 42 58 inlet~;
#X obj 174 171 outlet looprec;
#X obj 121 314 outlet~;
#X obj 166 53 inlet;
#X obj 102 54 r looprec;
#X obj 263 54 r xaxis;
#X obj 263 80 spigot;
#X obj 265 168 outlet feedback;
#X obj 105 130 sel 0 1;
#X msg 106 157 1 0;
#X msg 139 158 0 1;
#X obj 106 189 unpack f f;
#X obj 50 244 lop~ 80;
#X obj 136 235 lop~ 80;
#X obj 35 264 *~;
#X obj 121 257 *~;
#X obj 51 222 sig~;
#X obj 136 212 sig~;
#X obj 198 82 loadbang;
#X obj 392 131 spigot;
#X obj 393 101 r outlevel;
#X obj 387 178 outlet outlevel;
#X floatatom 447 233 5 0 0 0 - - -;
#X obj 517 178 outlet clear;
#N canvas 681 239 450 300 loopclear 0;
#X obj 167 106 spigot;
#X floatatom 211 119 5 0 0 0 - - -;
#X obj 181 144 == 1;
#X msg 263 141 0;
#X obj 79 82 inlet looprec;
#X obj 124 246 outlet clearer;
#X obj 201 82 r recspigot6;
#X obj 192 218 send mute6;
#X connect 0 0 2 0;
#X connect 0 0 5 0;
#X connect 2 0 3 0;
#X connect 2 0 7 0;
#X connect 3 0 0 1;
#X connect 4 0 0 0;
#X connect 6 0 0 1;
#X connect 6 0 1 0;
#X restore 515 149 pd loopclear;
#X obj 314 54 r fb6;
#X connect 0 0 2 0;
#X connect 2 0 6 0;
#X connect 2 0 13 0;
#X connect 2 0 29 0;
#X connect 3 0 4 0;
#X connect 4 0 2 0;
#X connect 5 0 19 0;
#X connect 5 0 20 0;
#X connect 8 0 0 1;
#X connect 8 0 3 0;
#X connect 8 0 24 1;
#X connect 9 0 0 0;
#X connect 10 0 11 0;
#X connect 11 0 12 0;
#X connect 13 0 14 0;
#X connect 13 1 15 0;
#X connect 14 0 16 0;
#X connect 15 0 16 0;
#X connect 16 0 21 0;
#X connect 16 1 22 0;
#X connect 17 0 19 1;
#X connect 18 0 20 1;
#X connect 19 0 1 0;
#X connect 20 0 7 0;
#X connect 21 0 17 0;
#X connect 22 0 18 0;
#X connect 23 0 14 0;
#X connect 24 0 26 0;
#X connect 24 0 27 0;
#X connect 25 0 24 0;
#X connect 29 0 28 0;
#X connect 30 0 11 1;
#X coords 0 -1 1 1 50 20 2 100 100;
#X restore 998 205 pd loopctrlr;
#N canvas 156 96 613 601 loopctrlr 0;
#X obj 102 81 spigot;
#X obj 26 291 throw~ synthfeed2;
#X obj 104 102 tgl 15 0 empty empty empty 17 7 0 10 -262144 -1 -1 0
1;
#X obj 145 81 sel 0;
#X msg 145 102 0;
#X obj 42 58 inlet~;
#X obj 174 171 outlet looprec;
#X obj 121 314 outlet~;
#X obj 166 53 inlet;
#X obj 102 54 r looprec;
#X obj 263 54 r xaxis;
#X obj 263 80 spigot;
#X obj 265 168 outlet feedback;
#X obj 105 130 sel 0 1;
#X msg 106 157 1 0;
#X msg 139 158 0 1;
#X obj 106 189 unpack f f;
#X obj 50 244 lop~ 80;
#X obj 136 235 lop~ 80;
#X obj 35 264 *~;
#X obj 121 257 *~;
#X obj 51 222 sig~;
#X obj 136 212 sig~;
#X obj 198 82 loadbang;
#X obj 392 131 spigot;
#X obj 393 101 r outlevel;
#X obj 387 178 outlet outlevel;
#X floatatom 447 233 5 0 0 0 - - -;
#X obj 517 178 outlet clear;
#N canvas 681 239 450 300 loopclear 0;
#X obj 167 106 spigot;
#X floatatom 211 119 5 0 0 0 - - -;
#X obj 181 144 == 1;
#X msg 263 141 0;
#X obj 79 82 inlet looprec;
#X obj 124 246 outlet clearer;
#X obj 201 82 r recspigot7;
#X obj 192 218 send mute7;
#X connect 0 0 2 0;
#X connect 0 0 5 0;
#X connect 2 0 3 0;
#X connect 2 0 7 0;
#X connect 3 0 0 1;
#X connect 4 0 0 0;
#X connect 6 0 0 1;
#X connect 6 0 1 0;
#X restore 515 149 pd loopclear;
#X obj 314 54 r fb7;
#X connect 0 0 2 0;
#X connect 2 0 6 0;
#X connect 2 0 13 0;
#X connect 2 0 29 0;
#X connect 3 0 4 0;
#X connect 4 0 2 0;
#X connect 5 0 19 0;
#X connect 5 0 20 0;
#X connect 8 0 0 1;
#X connect 8 0 3 0;
#X connect 8 0 24 1;
#X connect 9 0 0 0;
#X connect 10 0 11 0;
#X connect 11 0 12 0;
#X connect 13 0 14 0;
#X connect 13 1 15 0;
#X connect 14 0 16 0;
#X connect 15 0 16 0;
#X connect 16 0 21 0;
#X connect 16 1 22 0;
#X connect 17 0 19 1;
#X connect 18 0 20 1;
#X connect 19 0 1 0;
#X connect 20 0 7 0;
#X connect 21 0 17 0;
#X connect 22 0 18 0;
#X connect 23 0 14 0;
#X connect 24 0 26 0;
#X connect 24 0 27 0;
#X connect 25 0 24 0;
#X connect 29 0 28 0;
#X connect 30 0 11 1;
#X coords 0 -1 1 1 50 20 2 100 100;
#X restore 1097 203 pd loopctrlr;
#N canvas 156 96 613 601 loopctrlr 0;
#X obj 102 81 spigot;
#X obj 26 291 throw~ synthfeed2;
#X obj 104 102 tgl 15 0 empty empty empty 17 7 0 10 -262144 -1 -1 0
1;
#X obj 145 81 sel 0;
#X msg 145 102 0;
#X obj 42 58 inlet~;
#X obj 174 171 outlet looprec;
#X obj 121 314 outlet~;
#X obj 166 53 inlet;
#X obj 102 54 r looprec;
#X obj 263 54 r xaxis;
#X obj 263 80 spigot;
#X obj 265 168 outlet feedback;
#X obj 105 130 sel 0 1;
#X msg 106 157 1 0;
#X msg 139 158 0 1;
#X obj 106 189 unpack f f;
#X obj 50 244 lop~ 80;
#X obj 136 235 lop~ 80;
#X obj 35 264 *~;
#X obj 121 257 *~;
#X obj 51 222 sig~;
#X obj 136 212 sig~;
#X obj 198 82 loadbang;
#X obj 392 131 spigot;
#X obj 393 101 r outlevel;
#X obj 387 178 outlet outlevel;
#X floatatom 447 233 5 0 0 0 - - -;
#X obj 517 178 outlet clear;
#N canvas 681 239 450 300 loopclear 0;
#X obj 167 106 spigot;
#X floatatom 211 119 5 0 0 0 - - -;
#X obj 181 144 == 1;
#X msg 263 141 0;
#X obj 79 82 inlet looprec;
#X obj 124 246 outlet clearer;
#X obj 201 82 r recspigot8;
#X obj 192 218 send mute8;
#X connect 0 0 2 0;
#X connect 0 0 5 0;
#X connect 2 0 3 0;
#X connect 2 0 7 0;
#X connect 3 0 0 1;
#X connect 4 0 0 0;
#X connect 6 0 0 1;
#X connect 6 0 1 0;
#X restore 515 149 pd loopclear;
#X obj 314 54 r fb8;
#X connect 0 0 2 0;
#X connect 2 0 6 0;
#X connect 2 0 13 0;
#X connect 2 0 29 0;
#X connect 3 0 4 0;
#X connect 4 0 2 0;
#X connect 5 0 19 0;
#X connect 5 0 20 0;
#X connect 8 0 0 1;
#X connect 8 0 3 0;
#X connect 8 0 24 1;
#X connect 9 0 0 0;
#X connect 10 0 11 0;
#X connect 11 0 12 0;
#X connect 13 0 14 0;
#X connect 13 1 15 0;
#X connect 14 0 16 0;
#X connect 15 0 16 0;
#X connect 16 0 21 0;
#X connect 16 1 22 0;
#X connect 17 0 19 1;
#X connect 18 0 20 1;
#X connect 19 0 1 0;
#X connect 20 0 7 0;
#X connect 21 0 17 0;
#X connect 22 0 18 0;
#X connect 23 0 14 0;
#X connect 24 0 26 0;
#X connect 24 0 27 0;
#X connect 25 0 24 0;
#X connect 29 0 28 0;
#X connect 30 0 11 1;
#X coords 0 -1 1 1 50 20 2 100 100;
#X restore 1217 201 pd loopctrlr;
#X obj 1221 518 == 0;
#X obj 1141 518 == 0;
#X obj 1060 517 == 0;
#X obj 967 516 == 0;
#X obj 965 540 s recspigot5;
#X obj 1058 541 s recspigot6;
#X obj 1139 542 s recspigot7;
#X obj 1219 542 s recspigot8;
#X floatatom 307 304 5 0 0 0 - - -;
#X obj 256 289 / 1000;
#X obj 255 319 * 120;
#X text -274 554 float THEN bang;
#X msg 205 545 set \$2 \$1;
#X msg 205 584 679 29943.9;
#X floatatom 98 535 10 0 0 0 - - -;
#X floatatom 50 535 5 0 0 0 - - -;
#X obj -38 586 s packedindex;
#X obj 48 422 s metrobang;
#X obj 402 419 s loopbang;
#X msg 47 586 0 \, \$2 \$1;
#X obj 48 473 t b b;
#X obj 48 371 t b f f f;
#X obj -30 548 s loop_in_ms;
#X obj 436 231 looplayer;
#N canvas 133 73 874 467 eq 0;
#X obj 210 30 cnv 15 150 300 empty empty empty 20 12 0 14 -24198 -66577
0;
#N canvas 0 0 454 304 using 0;
#X obj 67 239 outlet~;
#X obj 65 134 biquad~;
#X obj 66 154 biquad~;
#X obj 66 174 biquad~;
#X obj 35 110 lowpass 370 310;
#X obj 194 134 biquad~;
#X obj 193 154 biquad~;
#X obj 194 174 biquad~;
#X obj 163 111 bandpass 1175 490;
#X obj 305 111 highpass 2350 130;
#X obj 334 134 biquad~;
#X obj 334 154 biquad~;
#X obj 163 25 loadbang;
#X obj 193 239 outlet~;
#X obj 335 239 outlet~;
#X obj 66 25 inlet~ signal;
#X obj 235 54 switch~;
#X obj 235 25 inlet switch;
#X connect 1 0 2 0;
#X connect 2 0 3 0;
#X connect 3 0 0 0;
#X connect 4 0 1 0;
#X connect 4 0 2 0;
#X connect 4 0 3 0;
#X connect 5 0 6 0;
#X connect 6 0 7 0;
#X connect 7 0 13 0;
#X connect 8 0 5 0;
#X connect 8 0 6 0;
#X connect 8 0 7 0;
#X connect 9 0 10 0;
#X connect 9 0 11 0;
#X connect 10 0 11 0;
#X connect 11 0 14 0;
#X connect 12 0 4 0;
#X connect 12 0 8 0;
#X connect 12 0 9 0;
#X connect 15 0 1 0;
#X connect 15 0 5 0;
#X connect 15 0 10 0;
#X connect 17 0 16 0;
#X restore 441 165 pd using GGEE filter objects;
#X obj 385 50 tgl 15 1 empty empty empty 0 -6 0 8 -258699 -1 -1 1 1
;
#X obj 224 198 hsl 128 15 0 1 0 1 empty empty dry/wet -2 -6 0 8 -241291
-1 -1 12700 1;
#X obj 218 50 vsl 15 128 0 1 0 1 empty empty BASS 0 -8 0 8 -44926 -1
-1 5800 1;
#X obj 298 43 vsl 15 128 1 0 0 1 empty empty MIDS 0 -8 0 8 -44926 -1
-1 8500 1;
#X obj 335 44 vsl 15 128 1 0 0 1 empty empty HIGHS 0 -8 0 8 -44926
-1 -1 4200 1;
#N canvas 401 243 540 481 output_mixer 0;
#X obj 39 11 inlet dry/wet;
#X obj 22 -19 inlet~ dry;
#X obj 248 -19 inlet~ bass;
#X obj 338 -19 inlet~ mids;
#X obj 424 -19 inlet~ highs;
#X obj 87 35 inlet bass;
#X obj 127 60 inlet mids;
#X obj 157 86 inlet highs;
#X obj 22 327 outlet~;
#X obj 111 235 *~;
#X obj 141 235 *~;
#X obj 71 235 *~;
#X obj 23 288 *~;
#X obj 70 288 *~;
#X obj 39 35 * -1;
#X obj 39 57 + 1;
#X connect 0 0 14 0;
#X connect 0 0 13 1;
#X connect 1 0 12 0;
#X connect 2 0 11 0;
#X connect 3 0 9 0;
#X connect 4 0 10 0;
#X connect 5 0 11 1;
#X connect 6 0 9 1;
#X connect 7 0 10 1;
#X connect 9 0 13 0;
#X connect 10 0 13 0;
#X connect 11 0 13 0;
#X connect 12 0 8 0;
#X connect 13 0 8 0;
#X connect 14 0 15 0;
#X connect 15 0 12 1;
#X restore 370 273 pd output_mixer;
#X obj 632 105 tgl 15 1 empty empty ON 0 -6 0 8 -258699 -1 -1 1 1;
#X obj 506 378 cnv 15 255 20 empty empty empty 20 12 0 14 -24198 -66577
0;
#X obj 369 77 *~;
#X obj 368 29 inlet~;
#X obj 370 305 outlet~;
#X obj 243 365 print;
#X obj 102 183 knob 32 32 0 1 0 0 empty empty empty 0 -8 0 8 -4160
-1 -1 1416 1;
#X obj 103 142 knob 32 32 0 1 0 0 empty empty empty 0 -8 0 8 -260097
-1 -1 1025 1;
#X obj 105 105 knob 32 32 0 1 0 0 empty empty empty 0 -8 0 8 -4034
-1 -1 2075 1;
#X obj 555 94 spigot;
#X obj 555 50 r highs;
#X obj 507 51 r mids;
#X obj 461 37 r bass;
#X obj 499 89 spigot;
#X obj 435 92 spigot;
#X text 502 21 nodal names;
#X connect 1 0 7 5;
#X connect 1 1 7 6;
#X connect 1 2 7 7;
#X connect 2 0 10 1;
#X connect 3 0 7 1;
#X connect 4 0 7 2;
#X connect 4 0 13 0;
#X connect 4 0 14 0;
#X connect 5 0 7 3;
#X connect 5 0 15 0;
#X connect 6 0 7 4;
#X connect 6 0 16 0;
#X connect 7 0 12 0;
#X connect 8 0 1 1;
#X connect 10 0 7 0;
#X connect 10 0 1 0;
#X connect 11 0 10 0;
#X connect 17 0 6 0;
#X connect 18 0 17 0;
#X connect 19 0 21 0;
#X connect 20 0 22 0;
#X connect 21 0 5 0;
#X connect 22 0 4 0;
#X coords 0 -1 1 1 40 120 2 100 100;
#X restore 296 465 pd eq;
#X obj 92 158 s filerec;
#N canvas 1954 185 613 601 loopctrlr 0;
#X obj 102 81 spigot;
#X obj 26 291 throw~ synthfeed2;
#X obj 104 102 tgl 15 0 empty empty empty 17 7 0 10 -262144 -1 -1 0
1;
#X obj 145 81 sel 0;
#X msg 145 102 0;
#X obj 42 58 inlet~;
#X obj 174 171 outlet looprec;
#X obj 121 314 outlet~;
#X obj 166 53 inlet;
#X obj 102 54 r looprec;
#X obj 263 54 r xaxis;
#X obj 263 80 spigot;
#X obj 265 168 outlet feedback;
#X obj 105 130 sel 0 1;
#X msg 106 157 1 0;
#X msg 139 158 0 1;
#X obj 106 189 unpack f f;
#X obj 50 244 lop~ 80;
#X obj 136 235 lop~ 80;
#X obj 35 264 *~;
#X obj 121 257 *~;
#X obj 51 222 sig~;
#X obj 136 212 sig~;
#X obj 198 82 loadbang;
#X obj 392 131 spigot;
#X obj 393 101 r outlevel;
#X obj 387 178 outlet outlevel;
#X floatatom 447 233 5 0 0 0 - - -;
#X obj 517 178 outlet clear;
#X obj 314 54 r fb1;
#N canvas 2313 345 450 300 loopclear 0;
#X obj 167 106 spigot;
#X floatatom 211 119 5 0 0 0 - - -;
#X obj 181 144 == 1;
#X msg 263 141 0;
#X obj 79 82 inlet looprec;
#X obj 124 246 outlet clearer;
#X obj 201 82 r recspigot2;
#X obj 192 218 send mute2;
#X connect 0 0 2 0;
#X connect 0 0 5 0;
#X connect 2 0 3 0;
#X connect 2 0 7 0;
#X connect 3 0 0 1;
#X connect 4 0 0 0;
#X connect 6 0 0 1;
#X connect 6 0 1 0;
#X restore 517 140 pd loopclear 1;
#X connect 0 0 2 0;
#X connect 2 0 6 0;
#X connect 2 0 13 0;
#X connect 2 0 30 0;
#X connect 3 0 4 0;
#X connect 4 0 2 0;
#X connect 5 0 19 0;
#X connect 5 0 20 0;
#X connect 8 0 0 1;
#X connect 8 0 3 0;
#X connect 8 0 24 1;
#X connect 9 0 0 0;
#X connect 10 0 11 0;
#X connect 11 0 12 0;
#X connect 13 0 14 0;
#X connect 13 1 15 0;
#X connect 14 0 16 0;
#X connect 15 0 16 0;
#X connect 16 0 21 0;
#X connect 16 1 22 0;
#X connect 17 0 19 1;
#X connect 18 0 20 1;
#X connect 19 0 1 0;
#X connect 20 0 7 0;
#X connect 21 0 17 0;
#X connect 22 0 18 0;
#X connect 23 0 14 0;
#X connect 24 0 26 0;
#X connect 24 0 27 0;
#X connect 25 0 24 0;
#X connect 29 0 11 1;
#X connect 30 0 28 0;
#X coords 0 -1 1 1 50 20 2 100 100;
#X restore 756 206 pd loopctrlr;
#N canvas 0 0 1366 726 pre_fx_here 0;
#X obj 243 554 outlet~;
#X obj 149 223 *~;
#X obj 254 58 loadbang;
#X obj 157 102 sel 0 1;
#X floatatom 207 103 5 0 0 0 - - -;
#X floatatom 502 251 5 0 0 0 - - -;
#X obj 435 248 mtof;
#X floatatom 464 248 5 0 0 0 - - -;
#X obj 435 203 f;
#X obj 515 283 sig~;
#X floatatom 562 182 5 0 0 0 - - -;
#X floatatom 440 222 5 0 0 0 - - -;
#X floatatom 524 158 5 0 0 0 - - -;
#X obj 380 336 bp~;
#X obj 475 460 bp~;
#X obj 384 304 bp~;
#X obj 412 313 sig~;
#X obj 283 512 *~ 3;
#X obj 502 229 / 5;
#X obj 401 408 hip~ 10000;
#X obj 478 486 bp~;
#X obj 469 158 r yaxisr;
#X obj 509 181 r xaxisr;
#X obj 161 43 r jrb1;
#X obj 99 161 inlet~;
#X msg 255 81 1 0;
#X obj 154 172 unpack f f;
#X floatatom 227 193 5 0 0 0 - - -;
#X floatatom 115 198 5 0 0 0 - - -;
#X obj 196 222 *~;
#X msg 176 149 0 1;
#X obj 161 65 change;
#X msg 157 126 1 0;
#X connect 1 0 0 0;
#X connect 2 0 25 0;
#X connect 3 0 32 0;
#X connect 3 1 30 0;
#X connect 5 0 9 0;
#X connect 5 0 13 2;
#X connect 5 0 14 2;
#X connect 5 0 15 2;
#X connect 5 0 20 2;
#X connect 6 0 7 0;
#X connect 6 0 15 1;
#X connect 6 0 13 1;
#X connect 6 0 14 1;
#X connect 6 0 19 1;
#X connect 6 0 20 1;
#X connect 8 0 11 0;
#X connect 8 0 6 0;
#X connect 13 0 17 0;
#X connect 14 0 20 0;
#X connect 14 0 0 0;
#X connect 15 0 13 0;
#X connect 15 0 17 0;
#X connect 17 0 0 0;
#X connect 18 0 5 0;
#X connect 19 0 14 0;
#X connect 20 0 17 0;
#X connect 21 0 12 0;
#X connect 21 0 18 0;
#X connect 22 0 10 0;
#X connect 22 0 8 0;
#X connect 23 0 4 0;
#X connect 23 0 31 0;
#X connect 24 0 29 0;
#X connect 24 0 1 0;
#X connect 26 0 1 1;
#X connect 26 0 28 0;
#X connect 26 1 27 0;
#X connect 26 1 29 1;
#X connect 29 0 15 0;
#X connect 30 0 26 0;
#X connect 31 0 3 0;
#X connect 32 0 26 0;
#X restore 438 154 pd pre_fx_here;
#X text 299 232 LOOPSET;
#X text 351 231 1REC;
#X text 401 233 1DUB;
#X text 310 289 BPM;
#X text 353 287 REC;
#X text 404 285 DUB;
#X floatatom 567 624 5 0 0 0 - - -;
#N canvas 0 0 1366 726 pre_fx_here 0;
#X obj 243 554 outlet~;
#X obj 149 223 *~;
#X obj 254 58 loadbang;
#X obj 157 102 sel 0 1;
#X floatatom 207 103 5 0 0 0 - - -;
#X floatatom 502 251 5 0 0 0 - - -;
#X obj 435 248 mtof;
#X floatatom 464 248 5 0 0 0 - - -;
#X obj 435 203 f;
#X obj 515 283 sig~;
#X floatatom 562 182 5 0 0 0 - - -;
#X floatatom 440 222 5 0 0 0 - - -;
#X floatatom 524 158 5 0 0 0 - - -;
#X obj 380 336 bp~;
#X obj 475 460 bp~;
#X obj 384 304 bp~;
#X obj 412 313 sig~;
#X obj 283 512 *~ 3;
#X obj 502 229 / 5;
#X obj 401 408 hip~ 10000;
#X obj 478 486 bp~;
#X obj 469 158 r yaxisr;
#X obj 509 181 r xaxisr;
#X obj 161 43 r jrb1;
#X obj 99 161 inlet~;
#X msg 255 81 1 0;
#X obj 154 172 unpack f f;
#X floatatom 227 193 5 0 0 0 - - -;
#X floatatom 115 198 5 0 0 0 - - -;
#X obj 196 222 *~;
#X msg 176 149 0 1;
#X obj 161 65 change;
#X msg 157 126 1 0;
#X connect 1 0 0 0;
#X connect 2 0 25 0;
#X connect 3 0 32 0;
#X connect 3 1 30 0;
#X connect 5 0 9 0;
#X connect 5 0 13 2;
#X connect 5 0 14 2;
#X connect 5 0 15 2;
#X connect 5 0 20 2;
#X connect 6 0 7 0;
#X connect 6 0 15 1;
#X connect 6 0 13 1;
#X connect 6 0 14 1;
#X connect 6 0 19 1;
#X connect 6 0 20 1;
#X connect 8 0 11 0;
#X connect 8 0 6 0;
#X connect 13 0 17 0;
#X connect 14 0 20 0;
#X connect 14 0 0 0;
#X connect 15 0 13 0;
#X connect 15 0 17 0;
#X connect 17 0 0 0;
#X connect 18 0 5 0;
#X connect 19 0 14 0;
#X connect 20 0 17 0;
#X connect 21 0 12 0;
#X connect 21 0 18 0;
#X connect 22 0 10 0;
#X connect 22 0 8 0;
#X connect 23 0 4 0;
#X connect 23 0 31 0;
#X connect 24 0 29 0;
#X connect 24 0 1 0;
#X connect 25 0 26 0;
#X connect 26 0 1 1;
#X connect 26 0 28 0;
#X connect 26 1 27 0;
#X connect 26 1 29 1;
#X connect 29 0 15 0;
#X connect 30 0 26 0;
#X connect 31 0 3 0;
#X connect 32 0 26 0;
#X restore 764 123 pd pre_fx_here;
#N canvas 0 0 1366 726 pre_fx_here 0;
#X obj 243 554 outlet~;
#X obj 149 223 *~;
#X obj 254 58 loadbang;
#X obj 157 102 sel 0 1;
#X floatatom 207 103 5 0 0 0 - - -;
#X floatatom 502 251 5 0 0 0 - - -;
#X obj 435 248 mtof;
#X floatatom 464 248 5 0 0 0 - - -;
#X obj 435 203 f;
#X obj 515 283 sig~;
#X floatatom 562 182 5 0 0 0 - - -;
#X floatatom 440 222 5 0 0 0 - - -;
#X floatatom 524 158 5 0 0 0 - - -;
#X obj 380 336 bp~;
#X obj 475 460 bp~;
#X obj 384 304 bp~;
#X obj 412 313 sig~;
#X obj 283 512 *~ 3;
#X obj 502 229 / 5;
#X obj 401 408 hip~ 10000;
#X obj 478 486 bp~;
#X obj 469 158 r yaxisr;
#X obj 509 181 r xaxisr;
#X obj 161 43 r jrb1;
#X obj 99 161 inlet~;
#X msg 255 81 1 0;
#X obj 154 172 unpack f f;
#X floatatom 227 193 5 0 0 0 - - -;
#X floatatom 115 198 5 0 0 0 - - -;
#X obj 196 222 *~;
#X msg 176 149 0 1;
#X obj 161 65 change;
#X msg 157 126 1 0;
#X connect 1 0 0 0;
#X connect 2 0 25 0;
#X connect 3 0 32 0;
#X connect 3 1 30 0;
#X connect 5 0 9 0;
#X connect 5 0 13 2;
#X connect 5 0 14 2;
#X connect 5 0 15 2;
#X connect 5 0 20 2;
#X connect 6 0 7 0;
#X connect 6 0 15 1;
#X connect 6 0 13 1;
#X connect 6 0 14 1;
#X connect 6 0 19 1;
#X connect 6 0 20 1;
#X connect 8 0 11 0;
#X connect 8 0 6 0;
#X connect 13 0 17 0;
#X connect 14 0 20 0;
#X connect 14 0 0 0;
#X connect 15 0 13 0;
#X connect 15 0 17 0;
#X connect 17 0 0 0;
#X connect 18 0 5 0;
#X connect 19 0 14 0;
#X connect 20 0 17 0;
#X connect 21 0 12 0;
#X connect 21 0 18 0;
#X connect 22 0 10 0;
#X connect 22 0 8 0;
#X connect 23 0 4 0;
#X connect 23 0 31 0;
#X connect 24 0 29 0;
#X connect 24 0 1 0;
#X connect 25 0 26 0;
#X connect 26 0 1 1;
#X connect 26 0 28 0;
#X connect 26 1 27 0;
#X connect 26 1 29 1;
#X connect 29 0 15 0;
#X connect 30 0 26 0;
#X connect 31 0 3 0;
#X connect 32 0 26 0;
#X restore 539 135 pd pre_fx_here;
#N canvas 0 0 1366 726 pre_fx_here 0;
#X obj 243 554 outlet~;
#X obj 149 223 *~;
#X obj 254 58 loadbang;
#X obj 157 102 sel 0 1;
#X floatatom 207 103 5 0 0 0 - - -;
#X floatatom 502 251 5 0 0 0 - - -;
#X obj 435 248 mtof;
#X floatatom 464 248 5 0 0 0 - - -;
#X obj 435 203 f;
#X obj 515 283 sig~;
#X floatatom 562 182 5 0 0 0 - - -;
#X floatatom 440 222 5 0 0 0 - - -;
#X floatatom 524 158 5 0 0 0 - - -;
#X obj 380 336 bp~;
#X obj 475 460 bp~;
#X obj 384 304 bp~;
#X obj 412 313 sig~;
#X obj 283 512 *~ 3;
#X obj 502 229 / 5;
#X obj 401 408 hip~ 10000;
#X obj 478 486 bp~;
#X obj 469 158 r yaxisr;
#X obj 509 181 r xaxisr;
#X obj 161 43 r jrb1;
#X obj 99 161 inlet~;
#X msg 255 81 1 0;
#X obj 154 172 unpack f f;
#X floatatom 227 193 5 0 0 0 - - -;
#X floatatom 115 198 5 0 0 0 - - -;
#X obj 196 222 *~;
#X msg 176 149 0 1;
#X obj 161 65 change;
#X msg 157 126 1 0;
#X connect 1 0 0 0;
#X connect 2 0 25 0;
#X connect 3 0 32 0;
#X connect 3 1 30 0;
#X connect 5 0 9 0;
#X connect 5 0 13 2;
#X connect 5 0 14 2;
#X connect 5 0 15 2;
#X connect 5 0 20 2;
#X connect 6 0 7 0;
#X connect 6 0 15 1;
#X connect 6 0 13 1;
#X connect 6 0 14 1;
#X connect 6 0 19 1;
#X connect 6 0 20 1;
#X connect 8 0 11 0;
#X connect 8 0 6 0;
#X connect 13 0 17 0;
#X connect 14 0 20 0;
#X connect 14 0 0 0;
#X connect 15 0 13 0;
#X connect 15 0 17 0;
#X connect 17 0 0 0;
#X connect 18 0 5 0;
#X connect 19 0 14 0;
#X connect 20 0 17 0;
#X connect 21 0 12 0;
#X connect 21 0 18 0;
#X connect 22 0 10 0;
#X connect 22 0 8 0;
#X connect 23 0 4 0;
#X connect 23 0 31 0;
#X connect 24 0 29 0;
#X connect 24 0 1 0;
#X connect 25 0 26 0;
#X connect 26 0 1 1;
#X connect 26 0 28 0;
#X connect 26 1 27 0;
#X connect 26 1 29 1;
#X connect 29 0 15 0;
#X connect 30 0 26 0;
#X connect 31 0 3 0;
#X connect 32 0 26 0;
#X restore 657 128 pd pre_fx_here;
#N canvas 0 0 1366 726 pre_fx_here 0;
#X obj 243 554 outlet~;
#X obj 149 223 *~;
#X obj 254 58 loadbang;
#X obj 157 102 sel 0 1;
#X floatatom 207 103 5 0 0 0 - - -;
#X floatatom 502 251 5 0 0 0 - - -;
#X obj 435 248 mtof;
#X floatatom 464 248 5 0 0 0 - - -;
#X obj 435 203 f;
#X obj 515 283 sig~;
#X floatatom 562 182 5 0 0 0 - - -;
#X floatatom 440 222 5 0 0 0 - - -;
#X floatatom 524 158 5 0 0 0 - - -;
#X obj 380 336 bp~;
#X obj 475 460 bp~;
#X obj 384 304 bp~;
#X obj 412 313 sig~;
#X obj 283 512 *~ 3;
#X obj 502 229 / 5;
#X obj 401 408 hip~ 10000;
#X obj 478 486 bp~;
#X obj 469 158 r yaxisr;
#X obj 509 181 r xaxisr;
#X obj 161 43 r jrb1;
#X obj 99 161 inlet~;
#X msg 255 81 1 0;
#X obj 154 172 unpack f f;
#X floatatom 227 193 5 0 0 0 - - -;
#X floatatom 115 198 5 0 0 0 - - -;
#X obj 196 222 *~;
#X msg 176 149 0 1;
#X obj 161 65 change;
#X msg 157 126 1 0;
#X connect 1 0 0 0;
#X connect 2 0 25 0;
#X connect 3 0 32 0;
#X connect 3 1 30 0;
#X connect 5 0 9 0;
#X connect 5 0 13 2;
#X connect 5 0 14 2;
#X connect 5 0 15 2;
#X connect 5 0 20 2;
#X connect 6 0 7 0;
#X connect 6 0 15 1;
#X connect 6 0 13 1;
#X connect 6 0 14 1;
#X connect 6 0 19 1;
#X connect 6 0 20 1;
#X connect 8 0 11 0;
#X connect 8 0 6 0;
#X connect 13 0 17 0;
#X connect 14 0 20 0;
#X connect 14 0 0 0;
#X connect 15 0 13 0;
#X connect 15 0 17 0;
#X connect 17 0 0 0;
#X connect 18 0 5 0;
#X connect 19 0 14 0;
#X connect 20 0 17 0;
#X connect 21 0 12 0;
#X connect 21 0 18 0;
#X connect 22 0 10 0;
#X connect 22 0 8 0;
#X connect 23 0 4 0;
#X connect 23 0 31 0;
#X connect 24 0 29 0;
#X connect 24 0 1 0;
#X connect 25 0 26 0;
#X connect 26 0 1 1;
#X connect 26 0 28 0;
#X connect 26 1 27 0;
#X connect 26 1 29 1;
#X connect 29 0 15 0;
#X connect 30 0 26 0;
#X connect 31 0 3 0;
#X connect 32 0 26 0;
#X restore 869 125 pd pre_fx_here;
#N canvas 0 0 1366 726 pre_fx_here 0;
#X obj 243 554 outlet~;
#X obj 149 223 *~;
#X obj 254 58 loadbang;
#X obj 157 102 sel 0 1;
#X floatatom 207 103 5 0 0 0 - - -;
#X floatatom 502 251 5 0 0 0 - - -;
#X obj 435 248 mtof;
#X floatatom 464 248 5 0 0 0 - - -;
#X obj 435 203 f;
#X obj 515 283 sig~;
#X floatatom 562 182 5 0 0 0 - - -;
#X floatatom 440 222 5 0 0 0 - - -;
#X floatatom 524 158 5 0 0 0 - - -;
#X obj 380 336 bp~;
#X obj 475 460 bp~;
#X obj 384 304 bp~;
#X obj 412 313 sig~;
#X obj 283 512 *~ 3;
#X obj 502 229 / 5;
#X obj 401 408 hip~ 10000;
#X obj 478 486 bp~;
#X obj 469 158 r yaxisr;
#X obj 509 181 r xaxisr;
#X obj 161 43 r jrb1;
#X obj 99 161 inlet~;
#X msg 255 81 1 0;
#X obj 154 172 unpack f f;
#X floatatom 227 193 5 0 0 0 - - -;
#X floatatom 115 198 5 0 0 0 - - -;
#X obj 196 222 *~;
#X msg 176 149 0 1;
#X obj 161 65 change;
#X msg 157 126 1 0;
#X connect 1 0 0 0;
#X connect 2 0 25 0;
#X connect 3 0 32 0;
#X connect 3 1 30 0;
#X connect 5 0 9 0;
#X connect 5 0 13 2;
#X connect 5 0 14 2;
#X connect 5 0 15 2;
#X connect 5 0 20 2;
#X connect 6 0 7 0;
#X connect 6 0 15 1;
#X connect 6 0 13 1;
#X connect 6 0 14 1;
#X connect 6 0 19 1;
#X connect 6 0 20 1;
#X connect 8 0 11 0;
#X connect 8 0 6 0;
#X connect 13 0 17 0;
#X connect 14 0 20 0;
#X connect 14 0 0 0;
#X connect 15 0 13 0;
#X connect 15 0 17 0;
#X connect 17 0 0 0;
#X connect 18 0 5 0;
#X connect 19 0 14 0;
#X connect 20 0 17 0;
#X connect 21 0 12 0;
#X connect 21 0 18 0;
#X connect 22 0 10 0;
#X connect 22 0 8 0;
#X connect 23 0 4 0;
#X connect 23 0 31 0;
#X connect 24 0 29 0;
#X connect 24 0 1 0;
#X connect 25 0 26 0;
#X connect 26 0 1 1;
#X connect 26 0 28 0;
#X connect 26 1 27 0;
#X connect 26 1 29 1;
#X connect 29 0 15 0;
#X connect 30 0 26 0;
#X connect 31 0 3 0;
#X connect 32 0 26 0;
#X restore 987 124 pd pre_fx_here;
#N canvas 0 0 1366 726 pre_fx_here 0;
#X obj 243 554 outlet~;
#X obj 149 223 *~;
#X obj 254 58 loadbang;
#X obj 157 102 sel 0 1;
#X floatatom 207 103 5 0 0 0 - - -;
#X floatatom 502 251 5 0 0 0 - - -;
#X obj 435 248 mtof;
#X floatatom 464 248 5 0 0 0 - - -;
#X obj 435 203 f;
#X obj 515 283 sig~;
#X floatatom 562 182 5 0 0 0 - - -;
#X floatatom 440 222 5 0 0 0 - - -;
#X floatatom 524 158 5 0 0 0 - - -;
#X obj 380 336 bp~;
#X obj 475 460 bp~;
#X obj 384 304 bp~;
#X obj 412 313 sig~;
#X obj 283 512 *~ 3;
#X obj 502 229 / 5;
#X obj 401 408 hip~ 10000;
#X obj 478 486 bp~;
#X obj 469 158 r yaxisr;
#X obj 509 181 r xaxisr;
#X obj 161 43 r jrb1;
#X obj 99 161 inlet~;
#X msg 255 81 1 0;
#X obj 154 172 unpack f f;
#X floatatom 227 193 5 0 0 0 - - -;
#X floatatom 115 198 5 0 0 0 - - -;
#X obj 196 222 *~;
#X msg 176 149 0 1;
#X obj 161 65 change;
#X msg 157 126 1 0;
#X connect 1 0 0 0;
#X connect 2 0 25 0;
#X connect 3 0 32 0;
#X connect 3 1 30 0;
#X connect 5 0 9 0;
#X connect 5 0 13 2;
#X connect 5 0 14 2;
#X connect 5 0 15 2;
#X connect 5 0 20 2;
#X connect 6 0 7 0;
#X connect 6 0 15 1;
#X connect 6 0 13 1;
#X connect 6 0 14 1;
#X connect 6 0 19 1;
#X connect 6 0 20 1;
#X connect 8 0 11 0;
#X connect 8 0 6 0;
#X connect 13 0 17 0;
#X connect 14 0 20 0;
#X connect 14 0 0 0;
#X connect 15 0 13 0;
#X connect 15 0 17 0;
#X connect 17 0 0 0;
#X connect 18 0 5 0;
#X connect 19 0 14 0;
#X connect 20 0 17 0;
#X connect 21 0 12 0;
#X connect 21 0 18 0;
#X connect 22 0 10 0;
#X connect 22 0 8 0;
#X connect 23 0 4 0;
#X connect 23 0 31 0;
#X connect 24 0 29 0;
#X connect 24 0 1 0;
#X connect 25 0 26 0;
#X connect 26 0 1 1;
#X connect 26 0 28 0;
#X connect 26 1 27 0;
#X connect 26 1 29 1;
#X connect 29 0 15 0;
#X connect 30 0 26 0;
#X connect 31 0 3 0;
#X connect 32 0 26 0;
#X restore 1099 123 pd pre_fx_here;
#X obj 1027 610 s~ resampler;
#X obj 1298 609 *~;
#X obj 1314 586 unpack 1 2 3;
#X obj 1336 609 *~;
#X obj 1314 451 sel 0 1;
#X floatatom 1364 452 5 0 0 0 - - -;
#X msg 1314 475 1 0 0;
#X msg 1333 498 0 0 1;
#X obj 1298 544 r~ looperfeed;
#X obj 860 617 s~ looperfeed;
#X obj 751 233 looplayer;
#X obj 872 233 looplayer;
#X obj 644 233 looplayer;
#X obj 539 233 looplayer;
#X obj 977 233 looplayer;
#X obj 1084 231 looplayer;
#X obj 1190 230 looplayer;
#X obj 415 13 inlet~;
#X obj 518 14 inlet~;
#X obj 626 16 inlet~;
#X obj 743 15 inlet~;
#X obj 847 17 inlet~;
#X obj 976 14 inlet~;
#X obj 1084 14 inlet~;
#X obj 1192 14 inlet~;
#X connect 0 0 17 1;
#X connect 1 0 2 0;
#X connect 1 0 3 0;
#X connect 2 0 20 0;
#X connect 2 1 19 0;
#X connect 2 2 18 0;
#X connect 2 3 11 0;
#X connect 2 4 12 0;
#X connect 2 5 13 0;
#X connect 2 6 14 0;
#X connect 2 7 15 0;
#X connect 4 0 159 1;
#X connect 5 0 197 1;
#X connect 6 0 166 1;
#X connect 7 0 167 1;
#X connect 8 0 168 1;
#X connect 9 0 169 1;
#X connect 10 0 170 1;
#X connect 10 0 216 0;
#X connect 11 0 6 0;
#X connect 11 0 149 1;
#X connect 12 0 7 0;
#X connect 12 0 152 1;
#X connect 13 0 8 0;
#X connect 13 0 153 1;
#X connect 14 0 9 0;
#X connect 14 0 154 1;
#X connect 15 0 10 0;
#X connect 15 0 155 1;
#X connect 16 0 221 0;
#X connect 17 0 224 0;
#X connect 17 2 224 1;
#X connect 17 4 224 2;
#X connect 18 0 5 0;
#X connect 18 0 151 1;
#X connect 19 0 4 0;
#X connect 19 0 148 1;
#X connect 20 0 0 0;
#X connect 20 0 150 1;
#X connect 21 0 212 0;
#X connect 21 0 221 0;
#X connect 22 0 23 0;
#X connect 23 0 46 0;
#X connect 23 0 59 0;
#X connect 24 0 66 0;
#X connect 24 0 68 0;
#X connect 25 0 27 0;
#X connect 25 0 34 0;
#X connect 26 0 27 1;
#X connect 26 0 61 0;
#X connect 26 0 83 0;
#X connect 27 0 180 0;
#X connect 27 0 192 0;
#X connect 27 0 31 0;
#X connect 28 0 25 0;
#X connect 28 0 72 0;
#X connect 30 0 28 0;
#X connect 30 0 70 0;
#X connect 32 0 35 0;
#X connect 33 0 50 0;
#X connect 34 0 78 0;
#X connect 34 0 39 0;
#X connect 34 0 188 0;
#X connect 34 0 191 0;
#X connect 35 0 37 1;
#X connect 35 0 185 0;
#X connect 35 0 82 0;
#X connect 37 0 190 0;
#X connect 37 0 187 0;
#X connect 38 0 37 0;
#X connect 38 0 186 0;
#X connect 38 0 193 0;
#X connect 40 0 29 0;
#X connect 40 0 64 0;
#X connect 40 0 75 0;
#X connect 41 0 40 0;
#X connect 41 1 36 0;
#X connect 44 0 69 0;
#X connect 44 0 45 0;
#X connect 45 0 26 0;
#X connect 45 0 71 0;
#X connect 48 0 50 1;
#X connect 48 0 51 0;
#X connect 49 0 48 0;
#X connect 50 0 32 0;
#X connect 52 0 47 0;
#X connect 52 0 53 0;
#X connect 55 0 56 0;
#X connect 57 0 28 1;
#X connect 57 0 45 1;
#X connect 58 0 57 0;
#X connect 58 0 60 0;
#X connect 59 0 58 0;
#X connect 59 0 74 0;
#X connect 59 0 79 0;
#X connect 59 0 196 0;
#X connect 61 0 58 0;
#X connect 65 0 42 0;
#X connect 65 0 62 0;
#X connect 65 1 43 0;
#X connect 65 1 63 0;
#X connect 65 1 76 0;
#X connect 67 0 65 0;
#X connect 67 0 41 0;
#X connect 67 0 54 0;
#X connect 68 0 67 0;
#X connect 71 0 189 0;
#X connect 74 0 73 0;
#X connect 75 0 73 0;
#X connect 76 0 73 0;
#X connect 77 0 67 0;
#X connect 79 0 80 0;
#X connect 80 0 81 0;
#X connect 80 0 192 0;
#X connect 84 0 212 0;
#X connect 84 0 221 0;
#X connect 85 0 212 0;
#X connect 85 0 221 0;
#X connect 86 0 156 0;
#X connect 87 0 131 0;
#X connect 88 0 91 0;
#X connect 89 0 113 0;
#X connect 89 0 157 0;
#X connect 90 0 115 0;
#X connect 90 0 160 0;
#X connect 91 0 92 0;
#X connect 92 0 117 0;
#X connect 92 0 162 0;
#X connect 93 0 212 0;
#X connect 93 0 221 0;
#X connect 94 0 212 0;
#X connect 94 0 221 0;
#X connect 95 0 212 0;
#X connect 95 0 221 0;
#X connect 96 0 97 0;
#X connect 97 0 119 0;
#X connect 97 0 164 0;
#X connect 98 0 99 0;
#X connect 99 0 121 0;
#X connect 99 0 174 0;
#X connect 100 0 101 0;
#X connect 101 0 123 0;
#X connect 101 0 173 0;
#X connect 102 0 212 0;
#X connect 102 0 221 0;
#X connect 103 0 221 0;
#X connect 104 0 105 0;
#X connect 105 0 125 0;
#X connect 105 0 172 0;
#X connect 106 0 107 0;
#X connect 107 0 127 0;
#X connect 107 0 171 0;
#X connect 108 0 96 0;
#X connect 109 0 98 0;
#X connect 110 0 100 0;
#X connect 111 0 104 0;
#X connect 112 0 106 0;
#X connect 113 0 114 0;
#X connect 114 0 21 1;
#X connect 115 0 116 0;
#X connect 116 0 84 1;
#X connect 117 0 118 0;
#X connect 118 0 85 1;
#X connect 119 0 120 0;
#X connect 120 0 93 1;
#X connect 121 0 122 0;
#X connect 122 0 94 1;
#X connect 123 0 124 0;
#X connect 124 0 95 1;
#X connect 125 0 126 0;
#X connect 126 0 102 1;
#X connect 127 0 128 0;
#X connect 128 0 103 1;
#X connect 131 0 90 0;
#X connect 148 0 159 0;
#X connect 148 1 225 3;
#X connect 149 0 166 0;
#X connect 149 1 194 3;
#X connect 150 0 17 0;
#X connect 150 1 224 3;
#X connect 151 0 197 0;
#X connect 151 1 222 3;
#X connect 152 0 167 0;
#X connect 152 1 223 3;
#X connect 153 0 168 0;
#X connect 153 1 226 3;
#X connect 154 0 169 0;
#X connect 154 1 227 3;
#X connect 155 0 170 0;
#X connect 155 1 228 3;
#X connect 156 0 89 0;
#X connect 157 0 158 0;
#X connect 159 0 225 0;
#X connect 159 2 225 1;
#X connect 159 4 225 2;
#X connect 160 0 161 0;
#X connect 162 0 163 0;
#X connect 164 0 165 0;
#X connect 166 0 194 0;
#X connect 166 2 194 1;
#X connect 166 4 194 2;
#X connect 167 0 223 0;
#X connect 167 2 223 1;
#X connect 167 4 223 2;
#X connect 168 0 226 0;
#X connect 168 2 226 1;
#X connect 168 4 226 2;
#X connect 169 0 227 0;
#X connect 169 2 227 1;
#X connect 169 4 227 2;
#X connect 170 0 228 0;
#X connect 170 2 228 1;
#X connect 170 4 228 2;
#X connect 171 0 178 0;
#X connect 172 0 177 0;
#X connect 173 0 176 0;
#X connect 174 0 175 0;
#X connect 180 0 181 0;
#X connect 181 0 179 0;
#X connect 183 0 184 0;
#X connect 190 0 55 0;
#X connect 191 0 38 0;
#X connect 191 1 35 0;
#X connect 192 0 34 0;
#X connect 192 1 34 1;
#X connect 192 2 33 0;
#X connect 192 3 38 0;
#X connect 194 0 93 0;
#X connect 194 1 135 0;
#X connect 197 0 222 0;
#X connect 197 2 222 1;
#X connect 197 4 222 2;
#X connect 198 0 149 0;
#X connect 206 0 151 0;
#X connect 207 0 148 0;
#X connect 208 0 150 0;
#X connect 209 0 152 0;
#X connect 210 0 153 0;
#X connect 211 0 154 0;
#X connect 214 0 213 1;
#X connect 214 1 215 1;
#X connect 216 0 218 0;
#X connect 216 1 219 0;
#X connect 218 0 214 0;
#X connect 219 0 214 0;
#X connect 220 0 213 0;
#X connect 220 0 215 0;
#X connect 222 0 21 0;
#X connect 222 1 132 0;
#X connect 223 0 94 0;
#X connect 223 1 136 0;
#X connect 224 0 84 0;
#X connect 224 1 133 0;
#X connect 225 0 85 0;
#X connect 225 1 134 0;
#X connect 226 0 95 0;
#X connect 226 1 137 0;
#X connect 227 0 102 0;
#X connect 227 1 138 0;
#X connect 228 0 103 0;
#X connect 228 1 139 0;
#X connect 229 0 198 0;
#X connect 230 0 207 0;
#X connect 231 0 208 0;
#X connect 232 0 206 0;
#X connect 233 0 209 0;
#X connect 234 0 210 0;
#X connect 235 0 211 0;
#X connect 236 0 155 0;
#X coords 0 -1 1 1 1000 140 1 300 200;
