#N canvas -8 -8 1680 1008 10;
#X obj 729 205 tgl 15 0 empty empty empty 17 7 0 10 -262144 -1 -1 0
1;
#X obj 809 439 r loopselect;
#X obj 808 461 t 1 2 3 4 5 6 7 8;
#X floatatom 887 439 5 0 0 0 - - -;
#X obj 574 209 tgl 15 0 empty empty empty 17 7 0 10 -262144 -1 -1 0
1;
#X obj 817 207 tgl 15 0 empty empty empty 17 7 0 10 -262144 -1 -1 0
1;
#X obj 493 209 tgl 15 0 empty empty empty 17 7 0 10 -262144 -1 -1 1
1;
#X obj 928 205 tgl 15 0 empty empty empty 17 7 0 10 -262144 -1 -1 0
1;
#X obj 1048 209 tgl 15 0 empty empty empty 17 7 0 10 -262144 -1 -1
0 1;
#X obj 1168 206 tgl 15 0 empty empty empty 17 7 0 10 -262144 -1 -1
0 1;
#X obj 1272 204 tgl 15 0 empty empty empty 17 7 0 10 -262144 -1 -1
0 1;
#X obj 510 185 == 4;
#X obj 909 179 == 5;
#X obj 1035 182 == 6;
#X obj 1143 180 == 7;
#X obj 1254 179 == 8;
#X obj 518 14 catch~ synthout2;
#X obj 457 550 catch~ synthfeed2;
#N canvas 860 149 613 601 loopctrlr 0;
#X obj 102 81 spigot;
#X obj 26 291 throw~ synthfeed2;
#X obj 104 102 tgl 15 0 empty empty empty 17 7 0 10 -262144 -1 -1 0
1;
#X obj 145 81 sel 0;
#X msg 145 102 0;
#X obj 42 58 inlet~;
#X obj 174 171 outlet looprec;
#X obj 121 314 outlet~;
#X obj 166 53 inlet;
#X obj 102 54 r looprec;
#X obj 263 54 r xaxis;
#X obj 263 80 spigot;
#X obj 265 168 outlet feedback;
#X obj 105 130 sel 0 1;
#X msg 106 157 1 0;
#X msg 139 158 0 1;
#X obj 106 189 unpack f f;
#X obj 50 244 lop~ 80;
#X obj 136 235 lop~ 80;
#X obj 35 264 *~;
#X obj 121 257 *~;
#X obj 51 222 sig~;
#X obj 136 212 sig~;
#X obj 198 82 loadbang;
#X obj 392 131 spigot;
#X obj 393 101 r outlevel;
#X obj 387 178 outlet outlevel;
#X floatatom 447 233 5 0 0 0 - - -;
#X obj 517 178 outlet clear;
#X obj 314 54 r fb2;
#N canvas 633 345 450 300 loopclear 0;
#X obj 167 106 spigot;
#X floatatom 211 119 5 0 0 0 - - -;
#X obj 181 144 == 1;
#X msg 263 141 0;
#X obj 79 82 inlet looprec;
#X obj 124 246 outlet clearer;
#X obj 201 82 r recspigot2;
#X obj 192 218 send mute2;
#X obj 217 174 del 10;
#X connect 0 0 2 0;
#X connect 0 0 5 0;
#X connect 2 0 7 0;
#X connect 2 0 8 0;
#X connect 3 0 0 1;
#X connect 4 0 0 0;
#X connect 6 0 0 1;
#X connect 6 0 1 0;
#X connect 8 0 3 0;
#X restore 517 140 pd loopclear 2;
#X obj 238 240 s loop2;
#X obj 444 140 r all clear;
#X connect 0 0 2 0;
#X connect 2 0 6 0;
#X connect 2 0 13 0;
#X connect 2 0 30 0;
#X connect 2 0 31 0;
#X connect 3 0 4 0;
#X connect 4 0 2 0;
#X connect 5 0 19 0;
#X connect 5 0 20 0;
#X connect 8 0 0 1;
#X connect 8 0 3 0;
#X connect 8 0 24 1;
#X connect 9 0 0 0;
#X connect 10 0 11 0;
#X connect 11 0 12 0;
#X connect 13 0 14 0;
#X connect 13 1 15 0;
#X connect 14 0 16 0;
#X connect 15 0 16 0;
#X connect 16 0 21 0;
#X connect 16 1 22 0;
#X connect 17 0 19 1;
#X connect 18 0 20 1;
#X connect 19 0 1 0;
#X connect 20 0 7 0;
#X connect 21 0 17 0;
#X connect 22 0 18 0;
#X connect 23 0 14 0;
#X connect 24 0 26 0;
#X connect 24 0 27 0;
#X connect 25 0 24 0;
#X connect 29 0 11 1;
#X connect 30 0 28 0;
#X connect 32 0 28 0;
#X coords 0 -1 1 1 50 20 2 100 100;
#X restore 659 203 pd loopctrlr;
#X obj 743 15 catch~ drumout;
#X obj 792 184 == 1;
#X obj 615 181 == 3;
#X obj 722 180 == 2;
#X obj 713 481 *~;
#X obj 47 -6 r jlu1;
#X obj 171 -17 r looperctrl;
#X obj -7 253 bng 15 250 50 0 empty empty empty 17 7 0 10 -262144 -1
-1;
#X obj 62 253 bng 15 250 50 0 empty empty empty 17 7 0 10 -262144 -1
-1;
#X obj 20 281 timer;
#X obj 27 164 spigot 1;
#X obj 188 193 s att;
#X obj 26 144 r att;
#X floatatom 30 304 10 0 0 0 - - -;
#X obj 29 362 metro;
#X obj 229 174 sel 1;
#X obj 306 260 bng 30 250 50 0 empty empty empty 17 7 0 10 -159808
-1 -1;
#X obj 188 173 sel 1;
#X obj 188 153 t f f b;
#X obj 195 133 s recdub;
#X obj 250 133 s dub;
#X obj 94 139 r dub;
#X obj 95 165 spigot 1;
#X obj 47 56 s clear;
#X obj 812 416 s loopselect;
#X obj 812 392 r pgmout;
#X floatatom 866 393 5 0 0 0 - - -;
#X obj 198 78 s looprec;
#X obj 72 121 int;
#X obj 306 205 tgl 30 0 empty empty empty 17 7 0 10 -257985 -1 -1 0
1;
#X obj 10 54 sel 1;
#X obj 407 367 s length_on_off;
#X msg 63 277 0;
#X obj 246 197 bng 15 250 50 0 empty empty empty 17 7 0 10 -262144
-1 -1;
#X obj 264 197 bng 15 250 50 0 empty empty empty 17 7 0 10 -262144
-1 -1;
#X obj 227 197 bng 15 250 50 0 empty empty empty 17 7 0 10 -262144
-1 -1;
#X obj 199 113 sel 1 0;
#X obj 266 15 tgl 15 0 empty empty empty 17 7 0 10 -262144 -1 -1 0
1;
#X obj 188 59 tgl 15 0 empty empty empty 17 7 0 10 -262144 -1 -1 0
1;
#X obj 186 35 sel 1 0;
#X obj 399 258 bng 30 250 50 0 empty empty empty 17 7 0 10 -258113
-1 -1;
#X obj 349 258 bng 30 250 50 0 empty empty empty 17 7 0 10 -4034 -1
-1;
#X obj 400 206 bng 30 250 50 0 empty empty empty 17 7 0 10 -258113
-1 -1;
#X obj 350 205 bng 30 250 50 0 empty empty empty 17 7 0 10 -260097
-1 -1;
#X obj 309 123 s alarm;
#X msg 270 93 354.331 2 1960.63 0 0 0 0;
#X msg 272 40 165.354 3 1771.65 1110.24 0 0 0;
#X msg 273 66 291.339 2 496.063 448.819 0 0 0;
#X msg 158 56 0;
#X obj 24 383 bng 15 250 50 0 empty empty empty 17 7 0 10 -262144 -1
-1;
#X msg 12 79 30000;
#X floatatom 12 101 5 0 0 0 - - -;
#X obj 86 259 s stopr;
#X obj 645 483 *~;
#X obj 588 482 *~;
#X obj 728 386 r mute1;
#X obj 660 385 r mute2;
#X obj 592 387 r mute3;
#X obj 803 286 tgl 40 0 empty empty empty 17 7 0 10 -191407 -1 -1 1
1;
#X obj 669 288 tgl 40 0 empty empty empty 17 7 0 10 -191407 -1 -1 1
1;
#X obj 593 411 sel 1;
#X obj 563 287 tgl 40 0 empty empty empty 17 7 0 10 -191407 -1 -1 1
1;
#X obj 510 483 *~;
#X obj 941 485 *~;
#X obj 1007 490 *~;
#X obj 518 414 sel 1;
#X obj 460 285 tgl 40 0 empty empty empty 17 7 0 10 -191407 -1 -1 1
1;
#X obj 954 413 sel 1;
#X obj 929 286 tgl 40 0 empty empty empty 17 7 0 10 -191407 -1 -1 1
1;
#X obj 1022 417 sel 1;
#X obj 1010 285 tgl 40 0 empty empty empty 17 7 0 10 -191407 -1 -1
1 1;
#X obj 1075 490 *~;
#X obj 1141 486 *~;
#X obj 1088 418 sel 1;
#X obj 1114 283 tgl 40 0 empty empty empty 17 7 0 10 -191407 -1 -1
1 1;
#X obj 1156 413 sel 1;
#X obj 1226 281 tgl 40 0 empty empty empty 17 7 0 10 -191407 -1 -1
1 1;
#X obj 524 390 r mute4;
#X obj 956 387 r mute5;
#X obj 1021 393 r mute6;
#X obj 1090 392 r mute7;
#X obj 1155 389 r mute8;
#X obj 731 432 sig~;
#X obj 732 457 lop~ 80;
#X obj 662 436 sig~;
#X obj 663 461 lop~ 80;
#X obj 592 434 sig~;
#X obj 593 459 lop~ 80;
#X obj 522 438 sig~;
#X obj 523 463 lop~ 80;
#X obj 954 436 sig~;
#X obj 955 461 lop~ 80;
#X obj 1020 440 sig~;
#X obj 1021 465 lop~ 80;
#X obj 1091 438 sig~;
#X obj 1092 463 lop~ 80;
#X obj 1158 434 sig~;
#X obj 1159 459 lop~ 80;
#X obj 658 411 sel 1;
#X obj 751 345 s fbo1;
#X obj 655 341 s fbo2;
#X obj 544 345 s fbo3;
#X obj 436 341 s fbo4;
#X obj 922 341 s fbo5;
#X obj 1039 344 s fbo6;
#X obj 1141 346 s fbo7;
#X obj 1256 350 s fbo8;
#X obj 415 13 catch~ synthout3;
#X obj 847 17 catch~ synthout4;
#X obj 976 14 catch~ synthout5;
#X obj 1084 14 catch~ synthout6;
#X text 800 238 1;
#X text 703 239 2;
#X text 601 238 3;
#X text 496 236 4;
#X text 931 242 5;
#X text 1036 239 6;
#X text 1143 237 7;
#X text 1253 234 8;
#N canvas 0 0 450 300 volctrl 0;
#X obj 67 97 inlet~ synthsig;
#X obj 183 97 r outlevel;
#X obj 268 98 inlet chnltoggle;
#X obj 184 134 spigot;
#X obj 184 158 clip 0 0.7;
#X obj 94 233 outlet~ synthsigout;
#X obj 88 175 *~ 0.5;
#X obj 232 242 outlet vol;
#X connect 0 0 6 0;
#X connect 1 0 3 0;
#X connect 2 0 3 1;
#X connect 3 0 4 0;
#X connect 4 0 6 1;
#X connect 4 0 7 0;
#X connect 6 0 5 0;
#X restore 548 174 pd volctrl;
#N canvas 0 0 450 300 volctrl 0;
#X obj 67 97 inlet~ synthsig;
#X obj 183 97 r outlevel;
#X obj 268 98 inlet chnltoggle;
#X obj 184 134 spigot;
#X obj 184 158 clip 0 0.7;
#X obj 94 233 outlet~ synthsigout;
#X floatatom 269 160 5 0 0 0 - - -;
#X obj 222 232 outlet vol;
#X obj 103 128 loadbang;
#X obj 88 175 *~ 0.5;
#X connect 0 0 9 0;
#X connect 1 0 3 0;
#X connect 2 0 3 1;
#X connect 3 0 4 0;
#X connect 4 0 6 0;
#X connect 4 0 7 0;
#X connect 4 0 9 1;
#X connect 9 0 5 0;
#X restore 438 182 pd volctrl;
#N canvas 0 0 450 300 volctrl 0;
#X obj 67 97 inlet~ synthsig;
#X obj 183 97 r outlevel;
#X obj 268 98 inlet chnltoggle;
#X obj 184 134 spigot;
#X obj 184 158 clip 0 0.7;
#X obj 94 233 outlet~ synthsigout;
#X obj 88 175 *~ 0.5;
#X obj 242 252 outlet vol;
#X connect 0 0 6 0;
#X connect 1 0 3 0;
#X connect 2 0 3 1;
#X connect 3 0 4 0;
#X connect 4 0 6 1;
#X connect 4 0 7 0;
#X connect 6 0 5 0;
#X restore 654 172 pd volctrl;
#N canvas 210 334 450 300 volctrl 0;
#X obj 67 97 inlet~ synthsig;
#X obj 183 97 r outlevel;
#X obj 268 98 inlet chnltoggle;
#X obj 184 134 spigot;
#X obj 94 233 outlet~ synthsigout;
#X obj 88 175 *~ 0.5;
#X obj 252 262 outlet vol;
#X obj 184 158 clip 0 1;
#X connect 0 0 5 0;
#X connect 1 0 3 0;
#X connect 2 0 3 1;
#X connect 3 0 7 0;
#X connect 5 0 4 0;
#X connect 7 0 5 1;
#X connect 7 0 6 0;
#X restore 771 163 pd volctrl;
#N canvas 0 0 450 300 volctrl 0;
#X obj 67 97 inlet~ synthsig;
#X obj 183 97 r outlevel;
#X obj 268 98 inlet chnltoggle;
#X obj 184 134 spigot;
#X obj 184 158 clip 0 0.7;
#X obj 94 233 outlet~ synthsigout;
#X obj 88 175 *~ 0.5;
#X obj 262 272 outlet vol;
#X connect 0 0 6 0;
#X connect 1 0 3 0;
#X connect 2 0 3 1;
#X connect 3 0 4 0;
#X connect 4 0 6 1;
#X connect 4 0 7 0;
#X connect 6 0 5 0;
#X restore 872 158 pd volctrl;
#N canvas 0 0 450 300 volctrl 0;
#X obj 67 97 inlet~ synthsig;
#X obj 183 97 r outlevel;
#X obj 268 98 inlet chnltoggle;
#X obj 184 134 spigot;
#X obj 184 158 clip 0 0.7;
#X obj 94 233 outlet~ synthsigout;
#X obj 88 175 *~ 0.5;
#X obj 272 282 outlet vol;
#X connect 0 0 6 0;
#X connect 1 0 3 0;
#X connect 2 0 3 1;
#X connect 3 0 4 0;
#X connect 4 0 6 1;
#X connect 4 0 7 0;
#X connect 6 0 5 0;
#X restore 998 162 pd volctrl;
#N canvas 0 0 450 318 volctrl 0;
#X obj 67 97 inlet~ synthsig;
#X obj 183 97 r outlevel;
#X obj 268 98 inlet chnltoggle;
#X obj 184 134 spigot;
#X obj 184 158 clip 0 0.7;
#X obj 94 233 outlet~ synthsigout;
#X obj 88 175 *~ 0.5;
#X obj 282 292 outlet vol;
#X connect 0 0 6 0;
#X connect 1 0 3 0;
#X connect 2 0 3 1;
#X connect 3 0 4 0;
#X connect 4 0 6 1;
#X connect 4 0 7 0;
#X connect 6 0 5 0;
#X restore 1107 160 pd volctrl;
#N canvas 0 0 450 383 volctrl 0;
#X obj 67 97 inlet~ synthsig;
#X obj 183 97 r outlevel;
#X obj 268 98 inlet chnltoggle;
#X obj 184 134 spigot;
#X obj 184 158 clip 0 0.7;
#X obj 94 233 outlet~ synthsigout;
#X obj 88 175 *~ 0.5;
#X obj 292 302 outlet vol;
#X connect 0 0 6 0;
#X connect 1 0 3 0;
#X connect 2 0 3 1;
#X connect 3 0 4 0;
#X connect 4 0 6 1;
#X connect 4 0 7 0;
#X connect 6 0 5 0;
#X restore 1215 157 pd volctrl;
#X obj 727 407 sel 1 0;
#X obj 752 509 == 0;
#X obj 750 533 s recspigot1;
#N canvas 0 7 613 601 loopctrlr 0;
#X obj 102 81 spigot;
#X obj 26 291 throw~ synthfeed2;
#X obj 104 102 tgl 15 0 empty empty empty 17 7 0 10 -262144 -1 -1 0
1;
#X obj 145 81 sel 0;
#X msg 145 102 0;
#X obj 42 58 inlet~;
#X obj 174 171 outlet looprec;
#X obj 121 314 outlet~;
#X obj 166 53 inlet;
#X obj 102 54 r looprec;
#X obj 263 54 r xaxis;
#X obj 263 80 spigot;
#X obj 265 168 outlet feedback;
#X obj 105 130 sel 0 1;
#X msg 106 157 1 0;
#X msg 139 158 0 1;
#X obj 106 189 unpack f f;
#X obj 50 244 lop~ 80;
#X obj 136 235 lop~ 80;
#X obj 35 264 *~;
#X obj 121 257 *~;
#X obj 51 222 sig~;
#X obj 136 212 sig~;
#X obj 198 82 loadbang;
#X obj 392 131 spigot;
#X obj 393 101 r outlevel;
#X obj 387 178 outlet outlevel;
#X floatatom 447 233 5 0 0 0 - - -;
#X obj 517 178 outlet clear;
#X obj 314 54 r fb3;
#N canvas 681 239 450 300 loopclear 0;
#X obj 167 106 spigot;
#X floatatom 211 119 5 0 0 0 - - -;
#X obj 181 144 == 1;
#X msg 263 141 0;
#X obj 79 82 inlet looprec;
#X obj 124 246 outlet clearer;
#X obj 201 82 r recspigot3;
#X obj 192 218 send mute3;
#X obj 220 165 del 10;
#X connect 0 0 2 0;
#X connect 0 0 5 0;
#X connect 2 0 7 0;
#X connect 2 0 8 0;
#X connect 3 0 0 1;
#X connect 4 0 0 0;
#X connect 6 0 0 1;
#X connect 6 0 1 0;
#X connect 8 0 3 0;
#X restore 525 140 pd loopclear 3;
#X obj 350 295 s loop3;
#X obj 444 140 r all clear;
#X connect 0 0 2 0;
#X connect 2 0 6 0;
#X connect 2 0 13 0;
#X connect 2 0 30 0;
#X connect 2 0 31 0;
#X connect 3 0 4 0;
#X connect 4 0 2 0;
#X connect 5 0 19 0;
#X connect 5 0 20 0;
#X connect 8 0 0 1;
#X connect 8 0 3 0;
#X connect 8 0 24 1;
#X connect 9 0 0 0;
#X connect 10 0 11 0;
#X connect 11 0 12 0;
#X connect 13 0 14 0;
#X connect 13 1 15 0;
#X connect 14 0 16 0;
#X connect 15 0 16 0;
#X connect 16 0 21 0;
#X connect 16 1 22 0;
#X connect 17 0 19 1;
#X connect 18 0 20 1;
#X connect 19 0 1 0;
#X connect 20 0 7 0;
#X connect 21 0 17 0;
#X connect 22 0 18 0;
#X connect 23 0 14 0;
#X connect 24 0 26 0;
#X connect 24 0 27 0;
#X connect 25 0 24 0;
#X connect 29 0 11 1;
#X connect 30 0 28 0;
#X connect 32 0 28 0;
#X coords 0 -1 1 1 50 20 2 100 100;
#X restore 543 207 pd loopctrlr;
#X obj 672 509 == 0;
#X obj 670 533 s recspigot2;
#X obj 591 508 == 0;
#X obj 589 532 s recspigot3;
#X obj 498 507 == 0;
#X obj 496 531 s recspigot4;
#N canvas 381 69 613 601 loopctrlr 0;
#X obj 102 81 spigot;
#X obj 26 291 throw~ synthfeed2;
#X obj 104 102 tgl 15 0 empty empty empty 17 7 0 10 -262144 -1 -1 0
1;
#X obj 145 81 sel 0;
#X msg 145 102 0;
#X obj 42 58 inlet~;
#X obj 174 171 outlet looprec;
#X obj 121 314 outlet~;
#X obj 166 53 inlet;
#X obj 102 54 r looprec;
#X obj 263 54 r xaxis;
#X obj 263 80 spigot;
#X obj 265 168 outlet feedback;
#X obj 105 130 sel 0 1;
#X msg 106 157 1 0;
#X msg 139 158 0 1;
#X obj 106 189 unpack f f;
#X obj 50 244 lop~ 80;
#X obj 136 235 lop~ 80;
#X obj 35 264 *~;
#X obj 121 257 *~;
#X obj 51 222 sig~;
#X obj 136 212 sig~;
#X obj 198 82 loadbang;
#X obj 392 131 spigot;
#X obj 393 101 r outlevel;
#X obj 387 178 outlet outlevel;
#X floatatom 447 233 5 0 0 0 - - -;
#X obj 517 178 outlet clear;
#X obj 314 54 r fb4;
#N canvas 681 239 450 300 loopclear 0;
#X obj 167 106 spigot;
#X floatatom 211 119 5 0 0 0 - - -;
#X obj 181 144 == 1;
#X msg 263 141 0;
#X obj 79 82 inlet looprec;
#X obj 124 246 outlet clearer;
#X obj 201 82 r recspigot4;
#X obj 192 218 send mute4;
#X obj 230 175 del 10;
#X connect 0 0 2 0;
#X connect 0 0 5 0;
#X connect 2 0 7 0;
#X connect 2 0 8 0;
#X connect 3 0 0 1;
#X connect 4 0 0 0;
#X connect 6 0 0 1;
#X connect 6 0 1 0;
#X connect 8 0 3 0;
#X restore 515 149 pd loopclear;
#X obj 316 292 s loop4;
#X obj 442 151 r all clear;
#X connect 0 0 2 0;
#X connect 2 0 6 0;
#X connect 2 0 13 0;
#X connect 2 0 30 0;
#X connect 2 0 31 0;
#X connect 3 0 4 0;
#X connect 4 0 2 0;
#X connect 5 0 19 0;
#X connect 5 0 20 0;
#X connect 8 0 0 1;
#X connect 8 0 3 0;
#X connect 8 0 24 1;
#X connect 9 0 0 0;
#X connect 10 0 11 0;
#X connect 11 0 12 0;
#X connect 13 0 14 0;
#X connect 13 1 15 0;
#X connect 14 0 16 0;
#X connect 15 0 16 0;
#X connect 16 0 21 0;
#X connect 16 1 22 0;
#X connect 17 0 19 1;
#X connect 18 0 20 1;
#X connect 19 0 1 0;
#X connect 20 0 7 0;
#X connect 21 0 17 0;
#X connect 22 0 18 0;
#X connect 23 0 14 0;
#X connect 24 0 26 0;
#X connect 24 0 27 0;
#X connect 25 0 24 0;
#X connect 29 0 11 1;
#X connect 30 0 28 0;
#X connect 32 0 28 0;
#X coords 0 -1 1 1 50 20 2 100 100;
#X restore 437 204 pd loopctrlr;
#N canvas 156 96 613 601 loopctrlr 0;
#X obj 102 81 spigot;
#X obj 26 291 throw~ synthfeed2;
#X obj 104 102 tgl 15 0 empty empty empty 17 7 0 10 -262144 -1 -1 0
1;
#X obj 145 81 sel 0;
#X msg 145 102 0;
#X obj 42 58 inlet~;
#X obj 174 171 outlet looprec;
#X obj 121 314 outlet~;
#X obj 166 53 inlet;
#X obj 102 54 r looprec;
#X obj 263 54 r xaxis;
#X obj 263 80 spigot;
#X obj 265 168 outlet feedback;
#X obj 105 130 sel 0 1;
#X msg 106 157 1 0;
#X msg 139 158 0 1;
#X obj 106 189 unpack f f;
#X obj 50 244 lop~ 80;
#X obj 136 235 lop~ 80;
#X obj 35 264 *~;
#X obj 121 257 *~;
#X obj 51 222 sig~;
#X obj 136 212 sig~;
#X obj 198 82 loadbang;
#X obj 392 131 spigot;
#X obj 393 101 r outlevel;
#X obj 387 178 outlet outlevel;
#X floatatom 447 233 5 0 0 0 - - -;
#X obj 517 178 outlet clear;
#N canvas 681 239 450 300 loopclear 0;
#X obj 167 106 spigot;
#X floatatom 211 119 5 0 0 0 - - -;
#X obj 181 144 == 1;
#X msg 263 141 0;
#X obj 79 82 inlet looprec;
#X obj 124 246 outlet clearer;
#X obj 201 82 r recspigot5;
#X obj 192 218 send mute5;
#X obj 250 195 del 10;
#X connect 0 0 2 0;
#X connect 0 0 5 0;
#X connect 2 0 7 0;
#X connect 2 0 8 0;
#X connect 3 0 0 1;
#X connect 4 0 0 0;
#X connect 6 0 0 1;
#X connect 6 0 1 0;
#X connect 8 0 3 0;
#X restore 515 149 pd loopclear;
#X obj 314 54 r fb5;
#X obj 228 249 s loop5;
#X obj 440 152 r all clear;
#X connect 0 0 2 0;
#X connect 2 0 6 0;
#X connect 2 0 13 0;
#X connect 2 0 29 0;
#X connect 2 0 31 0;
#X connect 3 0 4 0;
#X connect 4 0 2 0;
#X connect 5 0 19 0;
#X connect 5 0 20 0;
#X connect 8 0 0 1;
#X connect 8 0 3 0;
#X connect 8 0 24 1;
#X connect 9 0 0 0;
#X connect 10 0 11 0;
#X connect 11 0 12 0;
#X connect 13 0 14 0;
#X connect 13 1 15 0;
#X connect 14 0 16 0;
#X connect 15 0 16 0;
#X connect 16 0 21 0;
#X connect 16 1 22 0;
#X connect 17 0 19 1;
#X connect 18 0 20 1;
#X connect 19 0 1 0;
#X connect 20 0 7 0;
#X connect 21 0 17 0;
#X connect 22 0 18 0;
#X connect 23 0 14 0;
#X connect 24 0 26 0;
#X connect 24 0 27 0;
#X connect 25 0 24 0;
#X connect 29 0 28 0;
#X connect 30 0 11 1;
#X connect 32 0 28 0;
#X coords 0 -1 1 1 50 20 2 100 100;
#X restore 877 203 pd loopctrlr;
#N canvas 156 96 613 601 loopctrlr 0;
#X obj 102 81 spigot;
#X obj 26 291 throw~ synthfeed2;
#X obj 104 102 tgl 15 0 empty empty empty 17 7 0 10 -262144 -1 -1 0
1;
#X obj 145 81 sel 0;
#X msg 145 102 0;
#X obj 42 58 inlet~;
#X obj 174 171 outlet looprec;
#X obj 121 314 outlet~;
#X obj 166 53 inlet;
#X obj 102 54 r looprec;
#X obj 263 54 r xaxis;
#X obj 263 80 spigot;
#X obj 265 168 outlet feedback;
#X obj 105 130 sel 0 1;
#X msg 106 157 1 0;
#X msg 139 158 0 1;
#X obj 106 189 unpack f f;
#X obj 50 244 lop~ 80;
#X obj 136 235 lop~ 80;
#X obj 35 264 *~;
#X obj 121 257 *~;
#X obj 51 222 sig~;
#X obj 136 212 sig~;
#X obj 198 82 loadbang;
#X obj 392 131 spigot;
#X obj 393 101 r outlevel;
#X obj 387 178 outlet outlevel;
#X floatatom 447 233 5 0 0 0 - - -;
#X obj 517 178 outlet clear;
#N canvas 681 239 450 300 loopclear 0;
#X obj 167 106 spigot;
#X floatatom 211 119 5 0 0 0 - - -;
#X obj 181 144 == 1;
#X msg 263 141 0;
#X obj 79 82 inlet looprec;
#X obj 124 246 outlet clearer;
#X obj 201 82 r recspigot6;
#X obj 192 218 send mute6;
#X obj 226 168 del 10;
#X connect 0 0 2 0;
#X connect 0 0 5 0;
#X connect 2 0 7 0;
#X connect 2 0 8 0;
#X connect 3 0 0 1;
#X connect 4 0 0 0;
#X connect 6 0 0 1;
#X connect 6 0 1 0;
#X connect 8 0 3 0;
#X restore 515 149 pd loopclear;
#X obj 314 54 r fb6;
#X obj 262 241 s loop6;
#X obj 433 152 r all clear;
#X connect 0 0 2 0;
#X connect 2 0 6 0;
#X connect 2 0 13 0;
#X connect 2 0 29 0;
#X connect 2 0 31 0;
#X connect 3 0 4 0;
#X connect 4 0 2 0;
#X connect 5 0 19 0;
#X connect 5 0 20 0;
#X connect 8 0 0 1;
#X connect 8 0 3 0;
#X connect 8 0 24 1;
#X connect 9 0 0 0;
#X connect 10 0 11 0;
#X connect 11 0 12 0;
#X connect 13 0 14 0;
#X connect 13 1 15 0;
#X connect 14 0 16 0;
#X connect 15 0 16 0;
#X connect 16 0 21 0;
#X connect 16 1 22 0;
#X connect 17 0 19 1;
#X connect 18 0 20 1;
#X connect 19 0 1 0;
#X connect 20 0 7 0;
#X connect 21 0 17 0;
#X connect 22 0 18 0;
#X connect 23 0 14 0;
#X connect 24 0 26 0;
#X connect 24 0 27 0;
#X connect 25 0 24 0;
#X connect 29 0 28 0;
#X connect 30 0 11 1;
#X connect 32 0 28 0;
#X coords 0 -1 1 1 50 20 2 100 100;
#X restore 998 205 pd loopctrlr;
#N canvas 156 96 613 601 loopctrlr 0;
#X obj 102 81 spigot;
#X obj 26 291 throw~ synthfeed2;
#X obj 104 102 tgl 15 0 empty empty empty 17 7 0 10 -262144 -1 -1 0
1;
#X obj 145 81 sel 0;
#X msg 145 102 0;
#X obj 42 58 inlet~;
#X obj 174 171 outlet looprec;
#X obj 121 314 outlet~;
#X obj 166 53 inlet;
#X obj 102 54 r looprec;
#X obj 263 54 r xaxis;
#X obj 263 80 spigot;
#X obj 265 168 outlet feedback;
#X obj 105 130 sel 0 1;
#X msg 106 157 1 0;
#X msg 139 158 0 1;
#X obj 106 189 unpack f f;
#X obj 50 244 lop~ 80;
#X obj 136 235 lop~ 80;
#X obj 35 264 *~;
#X obj 121 257 *~;
#X obj 51 222 sig~;
#X obj 136 212 sig~;
#X obj 198 82 loadbang;
#X obj 392 131 spigot;
#X obj 393 101 r outlevel;
#X obj 387 178 outlet outlevel;
#X floatatom 447 233 5 0 0 0 - - -;
#X obj 517 178 outlet clear;
#N canvas 681 239 450 300 loopclear 0;
#X obj 167 106 spigot;
#X floatatom 211 119 5 0 0 0 - - -;
#X obj 181 144 == 1;
#X msg 263 141 0;
#X obj 79 82 inlet looprec;
#X obj 124 246 outlet clearer;
#X obj 201 82 r recspigot7;
#X obj 192 218 send mute7;
#X obj 211 163 del 10;
#X connect 0 0 2 0;
#X connect 0 0 5 0;
#X connect 2 0 7 0;
#X connect 2 0 8 0;
#X connect 3 0 0 1;
#X connect 4 0 0 0;
#X connect 6 0 0 1;
#X connect 6 0 1 0;
#X connect 8 0 3 0;
#X restore 515 149 pd loopclear;
#X obj 314 54 r fb7;
#X obj 265 245 s loop7;
#X obj 437 147 r all clear;
#X connect 0 0 2 0;
#X connect 2 0 6 0;
#X connect 2 0 13 0;
#X connect 2 0 29 0;
#X connect 2 0 31 0;
#X connect 3 0 4 0;
#X connect 4 0 2 0;
#X connect 5 0 19 0;
#X connect 5 0 20 0;
#X connect 8 0 0 1;
#X connect 8 0 3 0;
#X connect 8 0 24 1;
#X connect 9 0 0 0;
#X connect 10 0 11 0;
#X connect 11 0 12 0;
#X connect 13 0 14 0;
#X connect 13 1 15 0;
#X connect 14 0 16 0;
#X connect 15 0 16 0;
#X connect 16 0 21 0;
#X connect 16 1 22 0;
#X connect 17 0 19 1;
#X connect 18 0 20 1;
#X connect 19 0 1 0;
#X connect 20 0 7 0;
#X connect 21 0 17 0;
#X connect 22 0 18 0;
#X connect 23 0 14 0;
#X connect 24 0 26 0;
#X connect 24 0 27 0;
#X connect 25 0 24 0;
#X connect 29 0 28 0;
#X connect 30 0 11 1;
#X connect 32 0 28 0;
#X coords 0 -1 1 1 50 20 2 100 100;
#X restore 1097 203 pd loopctrlr;
#N canvas 675 94 613 601 loopctrlr 0;
#X obj 102 81 spigot;
#X obj 26 291 throw~ synthfeed2;
#X obj 104 102 tgl 15 0 empty empty empty 17 7 0 10 -262144 -1 -1 0
1;
#X obj 145 81 sel 0;
#X msg 145 102 0;
#X obj 42 58 inlet~;
#X obj 174 171 outlet looprec;
#X obj 168 315 outlet~;
#X obj 166 53 inlet;
#X obj 102 54 r looprec;
#X obj 263 54 r xaxis;
#X obj 263 80 spigot;
#X obj 265 168 outlet feedback;
#X obj 105 130 sel 0 1;
#X msg 106 157 1 0;
#X msg 139 158 0 1;
#X obj 106 189 unpack f f;
#X obj 50 244 lop~ 80;
#X obj 136 235 lop~ 80;
#X obj 35 264 *~;
#X obj 51 222 sig~;
#X obj 136 212 sig~;
#X obj 198 82 loadbang;
#X obj 392 131 spigot;
#X obj 393 101 r outlevel;
#X obj 387 178 outlet outlevel;
#X floatatom 447 233 5 0 0 0 - - -;
#X obj 517 178 outlet clear;
#N canvas 681 239 450 300 loopclear 0;
#X obj 167 106 spigot;
#X floatatom 211 119 5 0 0 0 - - -;
#X obj 181 144 == 1;
#X msg 263 141 0;
#X obj 79 82 inlet looprec;
#X obj 124 246 outlet clearer;
#X obj 201 82 r recspigot8;
#X obj 192 218 send mute8;
#X obj 219 169 del 10;
#X connect 0 0 2 0;
#X connect 0 0 5 0;
#X connect 2 0 8 0;
#X connect 3 0 0 1;
#X connect 4 0 0 0;
#X connect 6 0 0 1;
#X connect 6 0 1 0;
#X connect 8 0 3 0;
#X restore 515 149 pd loopclear;
#X obj 314 54 r fb8;
#X obj 257 231 s loop8;
#X obj 121 257 *~;
#X connect 0 0 2 0;
#X connect 2 0 6 0;
#X connect 2 0 13 0;
#X connect 2 0 28 0;
#X connect 2 0 30 0;
#X connect 3 0 4 0;
#X connect 4 0 2 0;
#X connect 5 0 31 0;
#X connect 5 0 19 0;
#X connect 8 0 0 1;
#X connect 8 0 3 0;
#X connect 8 0 23 1;
#X connect 9 0 0 0;
#X connect 10 0 11 0;
#X connect 11 0 12 0;
#X connect 13 0 14 0;
#X connect 13 1 15 0;
#X connect 14 0 16 0;
#X connect 15 0 16 0;
#X connect 16 0 20 0;
#X connect 16 1 21 0;
#X connect 17 0 19 1;
#X connect 18 0 31 1;
#X connect 19 0 1 0;
#X connect 20 0 17 0;
#X connect 21 0 18 0;
#X connect 22 0 14 0;
#X connect 23 0 25 0;
#X connect 23 0 26 0;
#X connect 24 0 23 0;
#X connect 28 0 27 0;
#X connect 29 0 11 1;
#X connect 31 0 7 0;
#X coords 0 -1 1 1 50 20 2 100 100;
#X restore 1209 201 pd loopctrlr;
#X obj 1221 518 == 0;
#X obj 1141 518 == 0;
#X obj 1060 517 == 0;
#X obj 967 516 == 0;
#X obj 965 540 s recspigot5;
#X obj 1058 541 s recspigot6;
#X obj 1139 542 s recspigot7;
#X obj 1219 542 s recspigot8;
#X floatatom 307 304 5 0 0 0 - - -;
#X obj 269 371 s metrobang;
#X obj 402 419 s loopbang;
#X obj -47 359 s loop_in_ms;
#X obj 234 253 s filerec;
#N canvas 274 185 613 601 loopctrlr 0;
#X obj 102 81 spigot;
#X obj 26 291 throw~ synthfeed2;
#X obj 104 102 tgl 15 0 empty empty empty 17 7 0 10 -262144 -1 -1 0
1;
#X obj 145 81 sel 0;
#X msg 145 102 0;
#X obj 42 58 inlet~;
#X obj 174 171 outlet looprec;
#X obj 121 314 outlet~;
#X obj 166 53 inlet;
#X obj 102 54 r looprec;
#X obj 263 54 r xaxis;
#X obj 263 80 spigot;
#X obj 265 168 outlet feedback;
#X obj 105 130 sel 0 1;
#X msg 106 157 1 0;
#X msg 139 158 0 1;
#X obj 106 189 unpack f f;
#X obj 50 244 lop~ 80;
#X obj 136 235 lop~ 80;
#X obj 35 264 *~;
#X obj 121 257 *~;
#X obj 51 222 sig~;
#X obj 136 212 sig~;
#X obj 198 82 loadbang;
#X obj 392 131 spigot;
#X obj 393 101 r outlevel;
#X obj 387 178 outlet outlevel;
#X floatatom 447 233 5 0 0 0 - - -;
#X obj 517 178 outlet clear;
#X obj 314 54 r fb1;
#N canvas 633 345 450 300 loopclear 0;
#X obj 167 106 spigot;
#X floatatom 211 119 5 0 0 0 - - -;
#X obj 181 144 == 1;
#X msg 263 141 0;
#X obj 79 82 inlet looprec;
#X obj 124 246 outlet clearer;
#X obj 201 82 r recspigot2;
#X obj 192 218 send mute2;
#X obj 240 185 del 10;
#X connect 0 0 2 0;
#X connect 0 0 5 0;
#X connect 2 0 7 0;
#X connect 2 0 8 0;
#X connect 3 0 0 1;
#X connect 4 0 0 0;
#X connect 6 0 0 1;
#X connect 6 0 1 0;
#X connect 8 0 3 0;
#X restore 517 140 pd loopclear 1;
#X obj 307 301 s loop1;
#X obj 445 143 r all clear;
#X connect 0 0 2 0;
#X connect 2 0 6 0;
#X connect 2 0 13 0;
#X connect 2 0 30 0;
#X connect 2 0 31 0;
#X connect 3 0 4 0;
#X connect 4 0 2 0;
#X connect 5 0 19 0;
#X connect 5 0 20 0;
#X connect 8 0 0 1;
#X connect 8 0 3 0;
#X connect 8 0 24 1;
#X connect 9 0 0 0;
#X connect 10 0 11 0;
#X connect 11 0 12 0;
#X connect 13 0 14 0;
#X connect 13 1 15 0;
#X connect 14 0 16 0;
#X connect 15 0 16 0;
#X connect 16 0 21 0;
#X connect 16 1 22 0;
#X connect 17 0 19 1;
#X connect 18 0 20 1;
#X connect 19 0 1 0;
#X connect 20 0 7 0;
#X connect 21 0 17 0;
#X connect 22 0 18 0;
#X connect 23 0 14 0;
#X connect 24 0 26 0;
#X connect 24 0 27 0;
#X connect 25 0 24 0;
#X connect 29 0 11 1;
#X connect 30 0 28 0;
#X connect 32 0 28 0;
#X coords 0 -1 1 1 50 20 2 100 100;
#X restore 756 206 pd loopctrlr;
#N canvas 0 0 1366 726 pre_fx_here 0;
#X obj 243 554 outlet~;
#X obj 149 223 *~;
#X obj 254 58 loadbang;
#X obj 157 102 sel 0 1;
#X floatatom 207 103 5 0 0 0 - - -;
#X floatatom 502 251 5 0 0 0 - - -;
#X obj 435 248 mtof;
#X floatatom 464 248 5 0 0 0 - - -;
#X obj 435 203 f;
#X obj 515 283 sig~;
#X floatatom 562 182 5 0 0 0 - - -;
#X floatatom 440 222 5 0 0 0 - - -;
#X floatatom 524 158 5 0 0 0 - - -;
#X obj 380 336 bp~;
#X obj 475 460 bp~;
#X obj 384 304 bp~;
#X obj 412 313 sig~;
#X obj 283 512 *~ 3;
#X obj 502 229 / 5;
#X obj 401 408 hip~ 10000;
#X obj 478 486 bp~;
#X obj 469 158 r yaxisr;
#X obj 509 181 r xaxisr;
#X obj 161 43 r jrb1;
#X obj 99 161 inlet~;
#X msg 255 81 1 0;
#X obj 154 172 unpack f f;
#X floatatom 227 193 5 0 0 0 - - -;
#X floatatom 115 198 5 0 0 0 - - -;
#X obj 196 222 *~;
#X msg 176 149 0 1;
#X obj 161 65 change;
#X msg 157 126 1 0;
#X connect 1 0 0 0;
#X connect 2 0 25 0;
#X connect 3 0 32 0;
#X connect 3 1 30 0;
#X connect 5 0 9 0;
#X connect 5 0 13 2;
#X connect 5 0 14 2;
#X connect 5 0 15 2;
#X connect 5 0 20 2;
#X connect 6 0 7 0;
#X connect 6 0 15 1;
#X connect 6 0 13 1;
#X connect 6 0 14 1;
#X connect 6 0 19 1;
#X connect 6 0 20 1;
#X connect 8 0 11 0;
#X connect 8 0 6 0;
#X connect 13 0 17 0;
#X connect 14 0 20 0;
#X connect 14 0 0 0;
#X connect 15 0 13 0;
#X connect 15 0 17 0;
#X connect 17 0 0 0;
#X connect 18 0 5 0;
#X connect 19 0 14 0;
#X connect 20 0 17 0;
#X connect 21 0 12 0;
#X connect 21 0 18 0;
#X connect 22 0 10 0;
#X connect 22 0 8 0;
#X connect 23 0 4 0;
#X connect 23 0 31 0;
#X connect 24 0 29 0;
#X connect 24 0 1 0;
#X connect 26 0 1 1;
#X connect 26 0 28 0;
#X connect 26 1 27 0;
#X connect 26 1 29 1;
#X connect 29 0 15 0;
#X connect 30 0 26 0;
#X connect 31 0 3 0;
#X connect 32 0 26 0;
#X restore 438 154 pd pre_fx_here;
#X obj 626 16 catch~ drumout2;
#X text 299 232 LOOPSET;
#X text 351 231 1REC;
#X text 401 233 1DUB;
#X text 310 289 BPM;
#X text 353 287 REC;
#X text 404 285 DUB;
#X floatatom 567 624 5 0 0 0 - - -;
#N canvas 0 0 1366 726 pre_fx_here 0;
#X obj 243 554 outlet~;
#X obj 149 223 *~;
#X obj 254 58 loadbang;
#X obj 157 102 sel 0 1;
#X floatatom 207 103 5 0 0 0 - - -;
#X floatatom 502 251 5 0 0 0 - - -;
#X obj 435 248 mtof;
#X floatatom 464 248 5 0 0 0 - - -;
#X obj 435 203 f;
#X obj 515 283 sig~;
#X floatatom 562 182 5 0 0 0 - - -;
#X floatatom 440 222 5 0 0 0 - - -;
#X floatatom 524 158 5 0 0 0 - - -;
#X obj 380 336 bp~;
#X obj 475 460 bp~;
#X obj 384 304 bp~;
#X obj 412 313 sig~;
#X obj 283 512 *~ 3;
#X obj 502 229 / 5;
#X obj 401 408 hip~ 10000;
#X obj 478 486 bp~;
#X obj 469 158 r yaxisr;
#X obj 509 181 r xaxisr;
#X obj 161 43 r jrb1;
#X obj 99 161 inlet~;
#X msg 255 81 1 0;
#X obj 154 172 unpack f f;
#X floatatom 227 193 5 0 0 0 - - -;
#X floatatom 115 198 5 0 0 0 - - -;
#X obj 196 222 *~;
#X msg 176 149 0 1;
#X obj 161 65 change;
#X msg 157 126 1 0;
#X connect 1 0 0 0;
#X connect 2 0 25 0;
#X connect 3 0 32 0;
#X connect 3 1 30 0;
#X connect 5 0 9 0;
#X connect 5 0 13 2;
#X connect 5 0 14 2;
#X connect 5 0 15 2;
#X connect 5 0 20 2;
#X connect 6 0 7 0;
#X connect 6 0 15 1;
#X connect 6 0 13 1;
#X connect 6 0 14 1;
#X connect 6 0 19 1;
#X connect 6 0 20 1;
#X connect 8 0 11 0;
#X connect 8 0 6 0;
#X connect 13 0 17 0;
#X connect 14 0 20 0;
#X connect 14 0 0 0;
#X connect 15 0 13 0;
#X connect 15 0 17 0;
#X connect 17 0 0 0;
#X connect 18 0 5 0;
#X connect 19 0 14 0;
#X connect 20 0 17 0;
#X connect 21 0 12 0;
#X connect 21 0 18 0;
#X connect 22 0 10 0;
#X connect 22 0 8 0;
#X connect 23 0 4 0;
#X connect 23 0 31 0;
#X connect 24 0 29 0;
#X connect 24 0 1 0;
#X connect 25 0 26 0;
#X connect 26 0 1 1;
#X connect 26 0 28 0;
#X connect 26 1 27 0;
#X connect 26 1 29 1;
#X connect 29 0 15 0;
#X connect 30 0 26 0;
#X connect 31 0 3 0;
#X connect 32 0 26 0;
#X restore 764 123 pd pre_fx_here;
#N canvas 0 0 1366 726 pre_fx_here 0;
#X obj 243 554 outlet~;
#X obj 149 223 *~;
#X obj 254 58 loadbang;
#X obj 157 102 sel 0 1;
#X floatatom 207 103 5 0 0 0 - - -;
#X floatatom 502 251 5 0 0 0 - - -;
#X obj 435 248 mtof;
#X floatatom 464 248 5 0 0 0 - - -;
#X obj 435 203 f;
#X obj 515 283 sig~;
#X floatatom 562 182 5 0 0 0 - - -;
#X floatatom 440 222 5 0 0 0 - - -;
#X floatatom 524 158 5 0 0 0 - - -;
#X obj 380 336 bp~;
#X obj 475 460 bp~;
#X obj 384 304 bp~;
#X obj 412 313 sig~;
#X obj 283 512 *~ 3;
#X obj 502 229 / 5;
#X obj 401 408 hip~ 10000;
#X obj 478 486 bp~;
#X obj 469 158 r yaxisr;
#X obj 509 181 r xaxisr;
#X obj 161 43 r jrb1;
#X obj 99 161 inlet~;
#X msg 255 81 1 0;
#X obj 154 172 unpack f f;
#X floatatom 227 193 5 0 0 0 - - -;
#X floatatom 115 198 5 0 0 0 - - -;
#X obj 196 222 *~;
#X msg 176 149 0 1;
#X obj 161 65 change;
#X msg 157 126 1 0;
#X connect 1 0 0 0;
#X connect 2 0 25 0;
#X connect 3 0 32 0;
#X connect 3 1 30 0;
#X connect 5 0 9 0;
#X connect 5 0 13 2;
#X connect 5 0 14 2;
#X connect 5 0 15 2;
#X connect 5 0 20 2;
#X connect 6 0 7 0;
#X connect 6 0 15 1;
#X connect 6 0 13 1;
#X connect 6 0 14 1;
#X connect 6 0 19 1;
#X connect 6 0 20 1;
#X connect 8 0 11 0;
#X connect 8 0 6 0;
#X connect 13 0 17 0;
#X connect 14 0 20 0;
#X connect 14 0 0 0;
#X connect 15 0 13 0;
#X connect 15 0 17 0;
#X connect 17 0 0 0;
#X connect 18 0 5 0;
#X connect 19 0 14 0;
#X connect 20 0 17 0;
#X connect 21 0 12 0;
#X connect 21 0 18 0;
#X connect 22 0 10 0;
#X connect 22 0 8 0;
#X connect 23 0 4 0;
#X connect 23 0 31 0;
#X connect 24 0 29 0;
#X connect 24 0 1 0;
#X connect 25 0 26 0;
#X connect 26 0 1 1;
#X connect 26 0 28 0;
#X connect 26 1 27 0;
#X connect 26 1 29 1;
#X connect 29 0 15 0;
#X connect 30 0 26 0;
#X connect 31 0 3 0;
#X connect 32 0 26 0;
#X restore 539 135 pd pre_fx_here;
#N canvas 0 0 1366 726 pre_fx_here 0;
#X obj 243 554 outlet~;
#X obj 149 223 *~;
#X obj 254 58 loadbang;
#X obj 157 102 sel 0 1;
#X floatatom 207 103 5 0 0 0 - - -;
#X floatatom 502 251 5 0 0 0 - - -;
#X obj 435 248 mtof;
#X floatatom 464 248 5 0 0 0 - - -;
#X obj 435 203 f;
#X obj 515 283 sig~;
#X floatatom 562 182 5 0 0 0 - - -;
#X floatatom 440 222 5 0 0 0 - - -;
#X floatatom 524 158 5 0 0 0 - - -;
#X obj 380 336 bp~;
#X obj 475 460 bp~;
#X obj 384 304 bp~;
#X obj 412 313 sig~;
#X obj 283 512 *~ 3;
#X obj 502 229 / 5;
#X obj 401 408 hip~ 10000;
#X obj 478 486 bp~;
#X obj 469 158 r yaxisr;
#X obj 509 181 r xaxisr;
#X obj 161 43 r jrb1;
#X obj 99 161 inlet~;
#X msg 255 81 1 0;
#X obj 154 172 unpack f f;
#X floatatom 227 193 5 0 0 0 - - -;
#X floatatom 115 198 5 0 0 0 - - -;
#X obj 196 222 *~;
#X msg 176 149 0 1;
#X obj 161 65 change;
#X msg 157 126 1 0;
#X connect 1 0 0 0;
#X connect 2 0 25 0;
#X connect 3 0 32 0;
#X connect 3 1 30 0;
#X connect 5 0 9 0;
#X connect 5 0 13 2;
#X connect 5 0 14 2;
#X connect 5 0 15 2;
#X connect 5 0 20 2;
#X connect 6 0 7 0;
#X connect 6 0 15 1;
#X connect 6 0 13 1;
#X connect 6 0 14 1;
#X connect 6 0 19 1;
#X connect 6 0 20 1;
#X connect 8 0 11 0;
#X connect 8 0 6 0;
#X connect 13 0 17 0;
#X connect 14 0 20 0;
#X connect 14 0 0 0;
#X connect 15 0 13 0;
#X connect 15 0 17 0;
#X connect 17 0 0 0;
#X connect 18 0 5 0;
#X connect 19 0 14 0;
#X connect 20 0 17 0;
#X connect 21 0 12 0;
#X connect 21 0 18 0;
#X connect 22 0 10 0;
#X connect 22 0 8 0;
#X connect 23 0 4 0;
#X connect 23 0 31 0;
#X connect 24 0 29 0;
#X connect 24 0 1 0;
#X connect 25 0 26 0;
#X connect 26 0 1 1;
#X connect 26 0 28 0;
#X connect 26 1 27 0;
#X connect 26 1 29 1;
#X connect 29 0 15 0;
#X connect 30 0 26 0;
#X connect 31 0 3 0;
#X connect 32 0 26 0;
#X restore 657 128 pd pre_fx_here;
#N canvas 0 0 1366 726 pre_fx_here 0;
#X obj 243 554 outlet~;
#X obj 149 223 *~;
#X obj 254 58 loadbang;
#X obj 157 102 sel 0 1;
#X floatatom 207 103 5 0 0 0 - - -;
#X floatatom 502 251 5 0 0 0 - - -;
#X obj 435 248 mtof;
#X floatatom 464 248 5 0 0 0 - - -;
#X obj 435 203 f;
#X obj 515 283 sig~;
#X floatatom 562 182 5 0 0 0 - - -;
#X floatatom 440 222 5 0 0 0 - - -;
#X floatatom 524 158 5 0 0 0 - - -;
#X obj 380 336 bp~;
#X obj 475 460 bp~;
#X obj 384 304 bp~;
#X obj 412 313 sig~;
#X obj 283 512 *~ 3;
#X obj 502 229 / 5;
#X obj 401 408 hip~ 10000;
#X obj 478 486 bp~;
#X obj 469 158 r yaxisr;
#X obj 509 181 r xaxisr;
#X obj 161 43 r jrb1;
#X obj 99 161 inlet~;
#X msg 255 81 1 0;
#X obj 154 172 unpack f f;
#X floatatom 227 193 5 0 0 0 - - -;
#X floatatom 115 198 5 0 0 0 - - -;
#X obj 196 222 *~;
#X msg 176 149 0 1;
#X obj 161 65 change;
#X msg 157 126 1 0;
#X connect 1 0 0 0;
#X connect 2 0 25 0;
#X connect 3 0 32 0;
#X connect 3 1 30 0;
#X connect 5 0 9 0;
#X connect 5 0 13 2;
#X connect 5 0 14 2;
#X connect 5 0 15 2;
#X connect 5 0 20 2;
#X connect 6 0 7 0;
#X connect 6 0 15 1;
#X connect 6 0 13 1;
#X connect 6 0 14 1;
#X connect 6 0 19 1;
#X connect 6 0 20 1;
#X connect 8 0 11 0;
#X connect 8 0 6 0;
#X connect 13 0 17 0;
#X connect 14 0 20 0;
#X connect 14 0 0 0;
#X connect 15 0 13 0;
#X connect 15 0 17 0;
#X connect 17 0 0 0;
#X connect 18 0 5 0;
#X connect 19 0 14 0;
#X connect 20 0 17 0;
#X connect 21 0 12 0;
#X connect 21 0 18 0;
#X connect 22 0 10 0;
#X connect 22 0 8 0;
#X connect 23 0 4 0;
#X connect 23 0 31 0;
#X connect 24 0 29 0;
#X connect 24 0 1 0;
#X connect 25 0 26 0;
#X connect 26 0 1 1;
#X connect 26 0 28 0;
#X connect 26 1 27 0;
#X connect 26 1 29 1;
#X connect 29 0 15 0;
#X connect 30 0 26 0;
#X connect 31 0 3 0;
#X connect 32 0 26 0;
#X restore 869 125 pd pre_fx_here;
#N canvas 0 0 1366 726 pre_fx_here 0;
#X obj 243 554 outlet~;
#X obj 149 223 *~;
#X obj 254 58 loadbang;
#X obj 157 102 sel 0 1;
#X floatatom 207 103 5 0 0 0 - - -;
#X floatatom 502 251 5 0 0 0 - - -;
#X obj 435 248 mtof;
#X floatatom 464 248 5 0 0 0 - - -;
#X obj 435 203 f;
#X obj 515 283 sig~;
#X floatatom 562 182 5 0 0 0 - - -;
#X floatatom 440 222 5 0 0 0 - - -;
#X floatatom 524 158 5 0 0 0 - - -;
#X obj 380 336 bp~;
#X obj 475 460 bp~;
#X obj 384 304 bp~;
#X obj 412 313 sig~;
#X obj 283 512 *~ 3;
#X obj 502 229 / 5;
#X obj 401 408 hip~ 10000;
#X obj 478 486 bp~;
#X obj 469 158 r yaxisr;
#X obj 509 181 r xaxisr;
#X obj 161 43 r jrb1;
#X obj 99 161 inlet~;
#X msg 255 81 1 0;
#X obj 154 172 unpack f f;
#X floatatom 227 193 5 0 0 0 - - -;
#X floatatom 115 198 5 0 0 0 - - -;
#X obj 196 222 *~;
#X msg 176 149 0 1;
#X obj 161 65 change;
#X msg 157 126 1 0;
#X connect 1 0 0 0;
#X connect 2 0 25 0;
#X connect 3 0 32 0;
#X connect 3 1 30 0;
#X connect 5 0 9 0;
#X connect 5 0 13 2;
#X connect 5 0 14 2;
#X connect 5 0 15 2;
#X connect 5 0 20 2;
#X connect 6 0 7 0;
#X connect 6 0 15 1;
#X connect 6 0 13 1;
#X connect 6 0 14 1;
#X connect 6 0 19 1;
#X connect 6 0 20 1;
#X connect 8 0 11 0;
#X connect 8 0 6 0;
#X connect 13 0 17 0;
#X connect 14 0 20 0;
#X connect 14 0 0 0;
#X connect 15 0 13 0;
#X connect 15 0 17 0;
#X connect 17 0 0 0;
#X connect 18 0 5 0;
#X connect 19 0 14 0;
#X connect 20 0 17 0;
#X connect 21 0 12 0;
#X connect 21 0 18 0;
#X connect 22 0 10 0;
#X connect 22 0 8 0;
#X connect 23 0 4 0;
#X connect 23 0 31 0;
#X connect 24 0 29 0;
#X connect 24 0 1 0;
#X connect 25 0 26 0;
#X connect 26 0 1 1;
#X connect 26 0 28 0;
#X connect 26 1 27 0;
#X connect 26 1 29 1;
#X connect 29 0 15 0;
#X connect 30 0 26 0;
#X connect 31 0 3 0;
#X connect 32 0 26 0;
#X restore 987 124 pd pre_fx_here;
#N canvas 0 0 1366 726 pre_fx_here 0;
#X obj 243 554 outlet~;
#X obj 149 223 *~;
#X obj 254 58 loadbang;
#X obj 157 102 sel 0 1;
#X floatatom 207 103 5 0 0 0 - - -;
#X floatatom 502 251 5 0 0 0 - - -;
#X obj 435 248 mtof;
#X floatatom 464 248 5 0 0 0 - - -;
#X obj 435 203 f;
#X obj 515 283 sig~;
#X floatatom 562 182 5 0 0 0 - - -;
#X floatatom 440 222 5 0 0 0 - - -;
#X floatatom 524 158 5 0 0 0 - - -;
#X obj 380 336 bp~;
#X obj 475 460 bp~;
#X obj 384 304 bp~;
#X obj 412 313 sig~;
#X obj 283 512 *~ 3;
#X obj 502 229 / 5;
#X obj 401 408 hip~ 10000;
#X obj 478 486 bp~;
#X obj 469 158 r yaxisr;
#X obj 509 181 r xaxisr;
#X obj 161 43 r jrb1;
#X obj 99 161 inlet~;
#X msg 255 81 1 0;
#X obj 154 172 unpack f f;
#X floatatom 227 193 5 0 0 0 - - -;
#X floatatom 115 198 5 0 0 0 - - -;
#X obj 196 222 *~;
#X msg 176 149 0 1;
#X obj 161 65 change;
#X msg 157 126 1 0;
#X connect 1 0 0 0;
#X connect 2 0 25 0;
#X connect 3 0 32 0;
#X connect 3 1 30 0;
#X connect 5 0 9 0;
#X connect 5 0 13 2;
#X connect 5 0 14 2;
#X connect 5 0 15 2;
#X connect 5 0 20 2;
#X connect 6 0 7 0;
#X connect 6 0 15 1;
#X connect 6 0 13 1;
#X connect 6 0 14 1;
#X connect 6 0 19 1;
#X connect 6 0 20 1;
#X connect 8 0 11 0;
#X connect 8 0 6 0;
#X connect 13 0 17 0;
#X connect 14 0 20 0;
#X connect 14 0 0 0;
#X connect 15 0 13 0;
#X connect 15 0 17 0;
#X connect 17 0 0 0;
#X connect 18 0 5 0;
#X connect 19 0 14 0;
#X connect 20 0 17 0;
#X connect 21 0 12 0;
#X connect 21 0 18 0;
#X connect 22 0 10 0;
#X connect 22 0 8 0;
#X connect 23 0 4 0;
#X connect 23 0 31 0;
#X connect 24 0 29 0;
#X connect 24 0 1 0;
#X connect 25 0 26 0;
#X connect 26 0 1 1;
#X connect 26 0 28 0;
#X connect 26 1 27 0;
#X connect 26 1 29 1;
#X connect 29 0 15 0;
#X connect 30 0 26 0;
#X connect 31 0 3 0;
#X connect 32 0 26 0;
#X restore 1099 123 pd pre_fx_here;
#X obj 1192 14 r~ resampler;
#N canvas 572 227 249 223 bk 0;
#X obj 69 63 tgl 15 0 empty empty empty 17 7 0 10 -262144 -1 -1 0 3
;
#X obj 88 113 tgl 15 0 empty empty empty 17 7 0 10 -262144 -1 -1 0
1;
#X obj 62 44 * 3;
#X floatatom 27 51 5 0 0 0 - - -;
#X floatatom 98 139 5 0 0 0 - - -;
#X obj 59 3 inlet;
#X obj 94 199 outlet;
#X obj 173 68 r flash;
#X msg 176 103 0;
#X obj 42 81 threshold 3 2 1 2;
#X connect 1 0 4 0;
#X connect 1 0 6 0;
#X connect 2 0 0 0;
#X connect 2 0 3 0;
#X connect 2 0 9 0;
#X connect 5 0 2 0;
#X connect 7 0 8 0;
#X connect 8 0 1 0;
#X connect 9 0 1 0;
#X connect 9 1 1 0;
#X restore 375 -19 pd bk;
#X obj 149 15 change;
#X obj 45 19 change;
#X obj 246 287 m_bpm2ms;
#X obj 248 308 int;
#X obj 822 644 s~ looperfeed;
#X obj 924 649 s~ respchnl;
#X obj 827 607 *~;
#X obj 841 495 sel 0 1;
#X msg 842 523 1 0;
#X msg 876 520 0 1;
#X obj 839 554 unpack;
#X obj 895 606 *~ 1;
#N canvas 0 0 1366 726 pre_fx_here 0;
#X obj 243 554 outlet~;
#X obj 149 223 *~;
#X obj 254 58 loadbang;
#X obj 157 102 sel 0 1;
#X floatatom 207 103 5 0 0 0 - - -;
#X floatatom 502 251 5 0 0 0 - - -;
#X obj 435 248 mtof;
#X floatatom 464 248 5 0 0 0 - - -;
#X obj 435 203 f;
#X obj 515 283 sig~;
#X floatatom 562 182 5 0 0 0 - - -;
#X floatatom 440 222 5 0 0 0 - - -;
#X floatatom 524 158 5 0 0 0 - - -;
#X obj 380 336 bp~;
#X obj 418 355 bp~;
#X obj 384 304 bp~;
#X obj 412 313 sig~;
#X obj 420 403 *~ 3;
#X obj 502 229 / 5;
#X obj 486 328 hip~ 10000;
#X obj 421 381 bp~;
#X obj 469 158 r yaxisr;
#X obj 509 181 r xaxisr;
#X obj 161 43 r jrb1;
#X obj 99 161 inlet~;
#X msg 255 81 1 0;
#X obj 154 172 unpack f f;
#X floatatom 227 193 5 0 0 0 - - -;
#X floatatom 115 198 5 0 0 0 - - -;
#X obj 196 222 *~;
#X msg 176 149 0 1;
#X obj 161 65 change;
#X msg 157 126 1 0;
#X obj 407 427 *~;
#X connect 2 0 25 0;
#X connect 3 0 32 0;
#X connect 3 1 30 0;
#X connect 5 0 9 0;
#X connect 5 0 13 2;
#X connect 5 0 14 2;
#X connect 5 0 15 2;
#X connect 5 0 20 2;
#X connect 6 0 7 0;
#X connect 6 0 15 1;
#X connect 6 0 13 1;
#X connect 6 0 14 1;
#X connect 6 0 19 1;
#X connect 6 0 20 1;
#X connect 8 0 11 0;
#X connect 8 0 6 0;
#X connect 13 0 17 0;
#X connect 14 0 20 0;
#X connect 14 0 33 0;
#X connect 15 0 13 0;
#X connect 15 0 17 0;
#X connect 17 0 33 0;
#X connect 18 0 5 0;
#X connect 19 0 14 0;
#X connect 20 0 17 0;
#X connect 21 0 12 0;
#X connect 21 0 18 0;
#X connect 22 0 10 0;
#X connect 22 0 8 0;
#X connect 23 0 4 0;
#X connect 23 0 31 0;
#X connect 24 0 29 0;
#X connect 24 0 1 0;
#X connect 24 0 0 0;
#X connect 25 0 26 0;
#X connect 26 0 1 1;
#X connect 26 0 28 0;
#X connect 26 1 27 0;
#X connect 26 1 29 1;
#X connect 29 0 15 0;
#X connect 30 0 26 0;
#X connect 31 0 3 0;
#X connect 32 0 26 0;
#X restore 1199 117 pd pre_fx_here;
#X obj 436 231 looplayer;
#X obj 33 329 t b f f f;
#X obj 26 723 s~ vline;
#X obj 148 432 r xaxisfrom8;
#X obj 1193 229 looplayer_resampler3;
#X floatatom 106 333 5 0 0 0 - - -;
#X obj -28 509 metro 1;
#X obj 24 554 f;
#X obj -54 461 tgl 15 0 empty empty empty 0 -6 0 10 -262144 -1 -1 1
1;
#X obj 25 653 pack f f;
#X obj 70 631 +;
#X obj 25 592 t f f;
#X floatatom 108 506 5 0 0 0 - - -;
#X text 146 502 speed (-1 = backwards \, 0.5 = half \, 1 = normal \,
2 = double);
#X obj -28 485 f;
#X obj 15 451 t b f;
#X msg 44 403 44100;
#X text 161 408 new position;
#X obj 25 702 vline~;
#X obj 55 556 +;
#X text 150 549 44.1 samples in 1 ms = normal speed at 44100 hz;
#X text -52 406 play;
#X obj 134 460 hsl 128 15 -1 3 0 0 empty empty empty -2 -8 0 10 -262144
-1 -1 5600 1;
#X obj 129 530 samplerate~;
#X floatatom 108 576 5 0 0 0 - - -;
#X obj 98 412 loadbang;
#X msg 99 440 1;
#X obj 108 549 * 48;
#X floatatom 83 653 15 0 0 0 - - -;
#X floatatom -38 630 10 0 0 0 - - -;
#X msg 4 404 0;
#N canvas 0 0 802 739 previous 0;
#X obj 319 449 f \$1;
#X obj 276 498 pack f f;
#X obj 276 448 f \$1;
#X floatatom 288 470 10 0 0 0 - - -;
#X floatatom 225 472 10 0 0 0 - - -;
#X obj 190 520 s packedindex;
#X msg 275 520 0 \, \$2 \$1;
#X obj 276 407 t b b;
#X obj 277 544 vline~;
#X floatatom -344 267 10 0 0 0 - - -;
#X obj -358 196 / 1000;
#X obj -291 220 samplerate~;
#X obj -291 199 loadbang;
#X obj -348 244 * 48000;
#X floatatom -292 243 5 0 0 0 - - -;
#X obj -342 290 s loopsize;
#X floatatom -357 218 10 0 0 0 - - -;
#X floatatom -369 377 0 0 0 0 - - -;
#X obj -373 459 *~ 0;
#X obj -370 492 +~ 1;
#X text -334 461 <-- chunk size (100ths of a second);
#X text -332 491 <-- add one to avoid beginning of table;
#X obj -373 405 * 1;
#X floatatom -343 404 10 0 0 0 - - -;
#X msg -329 319 1;
#X obj -295 313 loadbang;
#X obj -373 432 phasor~;
#X obj -254 279 / 48000;
#X floatatom -233 310 5 0 0 0 - - -;
#X obj -223 245 bng 15 250 50 0 empty empty empty 17 7 0 10 -262144
-1 -1;
#X floatatom -214 373 5 0 0 0 - - -;
#X obj -218 343 * 1000;
#X connect 0 0 3 0;
#X connect 1 0 6 0;
#X connect 1 0 5 0;
#X connect 2 0 1 0;
#X connect 2 0 4 0;
#X connect 3 0 1 1;
#X connect 6 0 8 0;
#X connect 7 0 2 0;
#X connect 7 1 0 0;
#X connect 9 0 15 0;
#X connect 9 0 27 0;
#X connect 10 0 16 0;
#X connect 11 0 13 1;
#X connect 11 0 14 0;
#X connect 12 0 11 0;
#X connect 13 0 9 0;
#X connect 13 0 18 1;
#X connect 16 0 13 0;
#X connect 16 0 22 1;
#X connect 17 0 22 0;
#X connect 22 0 23 0;
#X connect 24 0 17 0;
#X connect 25 0 24 0;
#X connect 27 0 28 0;
#X connect 28 0 31 0;
#X connect 29 0 9 0;
#X connect 31 0 30 0;
#X restore 429 726 pd previous indexers;
#X obj -7 213 r looptrigstart;
#X obj 62 234 r looptrigend;
#X floatatom 228 650 10 0 0 0 - - -;
#X obj 214 579 / 1000;
#X obj 281 603 samplerate~;
#X obj 281 582 loadbang;
#X obj 224 627 * 48000;
#X floatatom 280 626 5 0 0 0 - - -;
#X obj 230 673 s loopsize;
#X floatatom 215 601 10 0 0 0 - - -;
#X obj 872 233 looplayer;
#X obj 644 233 looplayer;
#X obj 751 233 looplayer;
#X obj 539 233 looplayer;
#X obj 977 233 looplayer;
#X obj 1084 231 looplayer;
#X msg 26 679 \$1 \, \$2 1;
#X obj 120 604 t b f;
#X connect 0 0 18 1;
#X connect 1 0 2 0;
#X connect 1 0 3 0;
#X connect 2 0 22 0;
#X connect 2 1 21 0;
#X connect 2 2 20 0;
#X connect 2 3 11 0;
#X connect 2 4 12 0;
#X connect 2 5 13 0;
#X connect 2 6 14 0;
#X connect 2 7 15 0;
#X connect 4 0 149 1;
#X connect 5 0 174 1;
#X connect 6 0 156 1;
#X connect 7 0 157 1;
#X connect 8 0 158 1;
#X connect 9 0 159 1;
#X connect 10 0 160 1;
#X connect 10 0 199 0;
#X connect 11 0 6 0;
#X connect 11 0 139 1;
#X connect 12 0 7 0;
#X connect 12 0 142 1;
#X connect 13 0 8 0;
#X connect 13 0 143 1;
#X connect 14 0 9 0;
#X connect 14 0 144 1;
#X connect 15 0 10 0;
#X connect 15 0 145 1;
#X connect 16 0 185 0;
#X connect 17 0 196 0;
#X connect 18 0 248 0;
#X connect 18 2 248 1;
#X connect 18 4 248 2;
#X connect 19 0 184 0;
#X connect 20 0 5 0;
#X connect 20 0 141 1;
#X connect 21 0 4 0;
#X connect 21 0 138 1;
#X connect 22 0 0 0;
#X connect 22 0 140 1;
#X connect 23 0 198 0;
#X connect 23 0 203 0;
#X connect 23 0 197 0;
#X connect 23 0 196 0;
#X connect 24 0 193 0;
#X connect 25 0 56 0;
#X connect 25 0 192 0;
#X connect 26 0 28 0;
#X connect 26 0 33 0;
#X connect 27 0 28 1;
#X connect 27 0 51 0;
#X connect 27 0 71 0;
#X connect 28 0 32 0;
#X connect 28 0 194 0;
#X connect 29 0 26 0;
#X connect 29 0 62 0;
#X connect 31 0 29 0;
#X connect 31 0 60 0;
#X connect 32 0 206 0;
#X connect 32 0 172 0;
#X connect 33 0 68 0;
#X connect 33 0 35 0;
#X connect 33 0 235 0;
#X connect 36 0 30 0;
#X connect 36 0 54 0;
#X connect 36 0 65 0;
#X connect 37 0 36 0;
#X connect 37 1 34 0;
#X connect 40 0 59 0;
#X connect 40 0 41 0;
#X connect 41 0 27 0;
#X connect 41 0 61 0;
#X connect 44 0 43 0;
#X connect 44 0 45 0;
#X connect 47 0 29 1;
#X connect 47 0 41 1;
#X connect 48 0 47 0;
#X connect 48 0 50 0;
#X connect 48 0 173 0;
#X connect 48 0 231 0;
#X connect 49 0 48 0;
#X connect 49 0 64 0;
#X connect 49 0 69 0;
#X connect 51 0 48 0;
#X connect 55 0 38 0;
#X connect 55 0 52 0;
#X connect 55 1 39 0;
#X connect 55 1 53 0;
#X connect 55 1 66 0;
#X connect 57 0 46 0;
#X connect 57 0 55 0;
#X connect 57 0 37 0;
#X connect 58 0 57 0;
#X connect 61 0 171 0;
#X connect 64 0 63 0;
#X connect 65 0 63 0;
#X connect 66 0 63 0;
#X connect 67 0 57 0;
#X connect 69 0 70 0;
#X connect 70 0 32 0;
#X connect 72 0 198 0;
#X connect 72 0 203 0;
#X connect 72 0 196 0;
#X connect 72 0 197 0;
#X connect 73 0 198 0;
#X connect 73 0 203 0;
#X connect 74 0 146 0;
#X connect 75 0 117 0;
#X connect 76 0 79 0;
#X connect 77 0 101 0;
#X connect 77 0 147 0;
#X connect 78 0 103 0;
#X connect 78 0 150 0;
#X connect 79 0 80 0;
#X connect 80 0 105 0;
#X connect 80 0 152 0;
#X connect 81 0 198 0;
#X connect 81 0 203 0;
#X connect 82 0 198 0;
#X connect 82 0 203 0;
#X connect 83 0 198 0;
#X connect 83 0 203 0;
#X connect 84 0 85 0;
#X connect 85 0 107 0;
#X connect 85 0 154 0;
#X connect 86 0 87 0;
#X connect 87 0 109 0;
#X connect 87 0 164 0;
#X connect 88 0 89 0;
#X connect 89 0 111 0;
#X connect 89 0 163 0;
#X connect 90 0 198 0;
#X connect 90 0 203 0;
#X connect 91 0 196 0;
#X connect 92 0 93 0;
#X connect 93 0 113 0;
#X connect 93 0 162 0;
#X connect 94 0 95 0;
#X connect 95 0 115 0;
#X connect 95 0 161 0;
#X connect 96 0 84 0;
#X connect 97 0 86 0;
#X connect 98 0 88 0;
#X connect 99 0 92 0;
#X connect 100 0 94 0;
#X connect 101 0 102 0;
#X connect 102 0 23 1;
#X connect 103 0 104 0;
#X connect 104 0 72 1;
#X connect 105 0 106 0;
#X connect 106 0 73 1;
#X connect 107 0 108 0;
#X connect 108 0 81 1;
#X connect 109 0 110 0;
#X connect 110 0 82 1;
#X connect 111 0 112 0;
#X connect 112 0 83 1;
#X connect 113 0 114 0;
#X connect 114 0 90 1;
#X connect 115 0 116 0;
#X connect 116 0 91 1;
#X connect 117 0 78 0;
#X connect 126 0 175 0;
#X connect 127 0 187 0;
#X connect 128 0 188 0;
#X connect 129 0 189 0;
#X connect 138 0 149 0;
#X connect 138 1 250 3;
#X connect 139 0 156 0;
#X connect 139 1 205 3;
#X connect 140 0 18 0;
#X connect 140 1 248 3;
#X connect 141 0 174 0;
#X connect 141 1 249 3;
#X connect 142 0 157 0;
#X connect 142 1 247 3;
#X connect 143 0 158 0;
#X connect 143 1 251 3;
#X connect 144 0 159 0;
#X connect 144 1 252 3;
#X connect 145 0 160 0;
#X connect 145 1 209 3;
#X connect 146 0 77 0;
#X connect 147 0 148 0;
#X connect 149 0 250 0;
#X connect 149 2 250 1;
#X connect 149 4 250 2;
#X connect 150 0 151 0;
#X connect 152 0 153 0;
#X connect 154 0 155 0;
#X connect 156 0 205 0;
#X connect 156 2 205 1;
#X connect 156 4 205 2;
#X connect 157 0 247 0;
#X connect 157 2 247 1;
#X connect 157 4 247 2;
#X connect 158 0 251 0;
#X connect 158 2 251 1;
#X connect 158 4 251 2;
#X connect 159 0 252 0;
#X connect 159 2 252 1;
#X connect 159 4 252 2;
#X connect 160 2 209 1;
#X connect 160 4 209 2;
#X connect 161 0 168 0;
#X connect 162 0 167 0;
#X connect 163 0 166 0;
#X connect 164 0 165 0;
#X connect 174 0 249 0;
#X connect 174 2 249 1;
#X connect 174 4 249 2;
#X connect 175 0 139 0;
#X connect 176 0 186 0;
#X connect 184 0 141 0;
#X connect 185 0 138 0;
#X connect 186 0 140 0;
#X connect 187 0 142 0;
#X connect 188 0 143 0;
#X connect 189 0 144 0;
#X connect 190 0 204 0;
#X connect 192 0 58 0;
#X connect 193 0 49 0;
#X connect 193 0 42 0;
#X connect 194 0 169 0;
#X connect 194 0 195 0;
#X connect 195 0 170 0;
#X connect 198 0 196 0;
#X connect 199 0 200 0;
#X connect 199 1 201 0;
#X connect 200 0 202 0;
#X connect 201 0 202 0;
#X connect 202 0 198 1;
#X connect 202 1 203 1;
#X connect 203 0 197 0;
#X connect 204 0 145 0;
#X connect 205 0 81 0;
#X connect 205 1 121 0;
#X connect 206 0 33 0;
#X connect 206 1 33 1;
#X connect 206 2 240 0;
#X connect 206 3 210 0;
#X connect 208 0 227 0;
#X connect 209 0 91 0;
#X connect 209 1 125 0;
#X connect 211 0 212 0;
#X connect 212 0 216 0;
#X connect 212 0 224 0;
#X connect 213 0 219 0;
#X connect 214 0 253 0;
#X connect 215 0 214 1;
#X connect 215 0 233 0;
#X connect 216 0 214 0;
#X connect 216 0 234 0;
#X connect 216 1 215 0;
#X connect 217 0 232 0;
#X connect 217 0 215 1;
#X connect 219 0 211 0;
#X connect 220 0 219 0;
#X connect 220 1 212 1;
#X connect 221 0 220 0;
#X connect 223 0 207 0;
#X connect 224 0 212 1;
#X connect 227 0 217 0;
#X connect 228 0 232 1;
#X connect 230 0 231 0;
#X connect 230 0 228 0;
#X connect 230 0 213 0;
#X connect 231 0 227 0;
#X connect 232 0 229 0;
#X connect 235 0 220 0;
#X connect 237 0 26 0;
#X connect 238 0 27 0;
#X connect 239 0 245 0;
#X connect 239 0 224 1;
#X connect 240 0 246 0;
#X connect 241 0 243 1;
#X connect 241 0 244 0;
#X connect 242 0 241 0;
#X connect 243 0 239 0;
#X connect 246 0 243 0;
#X connect 247 0 82 0;
#X connect 247 1 122 0;
#X connect 248 0 72 0;
#X connect 248 1 119 0;
#X connect 249 0 23 0;
#X connect 249 1 118 0;
#X connect 250 0 73 0;
#X connect 250 1 120 0;
#X connect 251 0 83 0;
#X connect 251 1 123 0;
#X connect 252 0 90 0;
#X connect 252 1 124 0;
#X connect 253 0 223 0;
#X coords 0 -1 1 1 1000 140 1 300 200;
