#N canvas 0 0 1522 786 10;
#X obj 205 2 == 2;
#X obj 320 2 == 3;
#X msg 237 2 2;
#X msg 351 2 3;
#X obj 425 1 == 4;
#X obj 536 1 == 5;
#X msg 567 1 5;
#X obj 649 1 == 6;
#X msg 680 0 6;
#X obj 760 1 == 7;
#X msg 791 1 7;
#X obj 867 -1 == 8;
#X msg 898 -1 8;
#X msg 458 1 4;
#X obj 91 -62 t 1 2 3 4 5 6 7 8;
#X text 178 -85 must spigot latch this per looper array instance;
#X floatatom 198 -61 5 0 0 0 - - -;
#X obj 94 -82 r pgmout;
#X obj 461 -71 loadbang;
#X text 98 439 each looper will most likely reside with its synth but
for now this will allow testing;
#X obj 872 -31 s~ vline;
#X obj 871 -54 vline~;
#X obj 871 -76 r vline;
#X obj 33 552 outlet~;
#X obj 33 532 catch~ loopoutl;
#X obj 145 551 outlet~;
#X obj 145 531 catch~ loopoutr;
#X obj 3 -42 inlet~;
#X obj 50 -41 inlet~;
#X obj 50 -20 s~ r;
#X obj 3 -21 s~ l;
#N canvas 0 0 662 688 looperlogic 0;
#X obj -64 287 tgl 30 0 empty empty empty 17 7 0 10 -4034 -1 -1 0 1
;
#X obj 245 121 r jlu1;
#X obj 245 141 change;
#X obj 25 16 bng 30 250 50 0 empty r_jrb2 empty 17 7 0 10 -261234 -1
-1;
#X obj 167 18 bng 30 250 50 0 empty empty empty 17 7 0 10 -261682 -1
-1;
#X obj 117 28 sel 1 0;
#X obj 116 9 change;
#X obj 59 29 sel 1 0;
#X obj 58 10 change;
#X obj 58 -9 r jrb2;
#X obj 116 -10 r jrb3;
#X obj -37 -10 r looperctrl;
#X obj -37 30 tgl 15 0 empty empty empty 17 7 0 10 -262144 -1 -1 0
1;
#X obj -31 309 bng 15 250 50 0 empty empty empty 17 7 0 10 -262144
-1 -1;
#X obj 26 309 bng 15 250 50 0 empty empty empty 17 7 0 10 -262144 -1
-1;
#X obj -31 328 timer;
#X obj -31 288 spigot 1;
#X obj 70 268 == 1;
#X obj -37 128 s att;
#X obj -32 268 r att;
#X floatatom -31 351 10 0 0 0 - - -;
#X floatatom 37 414 10 0 0 0 - - -;
#X obj 36 372 / 1000;
#X obj 44 434 s loopsize;
#X obj -32 411 metro;
#X obj 37 454 f \$1;
#X obj 16 88 sel 1;
#X obj 26 327 s stopr;
#X obj -82 354 s start;
#X obj -12 474 pack f f;
#X obj -32 371 t f f;
#X obj -32 392 t b f f;
#X obj 7 454 f \$1;
#X msg -12 525 0 \, \$2 \$1;
#X obj -32 431 bng 15 250 50 0 empty empty empty 17 7 0 10 -262144
-1 -1;
#X obj -37 108 sel 1;
#X obj -37 88 t f f b;
#X obj 70 247 r loopselect;
#X obj -41 69 s recdub;
#X obj -37 49 alternate;
#X obj 14 69 s dub;
#X obj 23 269 r dub;
#X obj 246 159 sel 1;
#X obj 25 289 spigot 1;
#X obj -37 10 sel 1;
#X obj -12 502 spigot 1;
#X obj 44 502 sel 1;
#X obj 44 481 r mute;
#X obj -71 328 del 1;
#X obj 246 179 s clear;
#X msg 282 159 0;
#X msg 89 108 1;
#X obj 116 128 f;
#X obj 91 128 + 1;
#X obj 44 139 f;
#X obj 18 137 + 1;
#X msg 16 117 1;
#X floatatom 15 181 5 0 0 0 - - -;
#X msg 117 108 -1;
#X obj 15 207 s loopselect;
#X obj 157 122 r loopselect;
#X floatatom 148 162 5 0 0 0 - - -;
#X obj 157 143 t f f;
#X obj 110 182 t f f f f f f b;
#X obj 109 207 s loopposition;
#X obj 246 198 loadbang;
#X msg 246 220 0;
#X obj 111 161 mod 9;
#X obj 18 160 mod 9;
#X floatatom 52 160 5 0 0 0 - - -;
#X obj 79 371 samplerate~;
#X obj 79 350 loadbang;
#X obj 36 395 * 48000;
#X floatatom 90 395 5 0 0 0 - - -;
#X obj -12 546 s vline;
#X connect 1 0 2 0;
#X connect 2 0 42 0;
#X connect 5 0 58 0;
#X connect 6 0 5 0;
#X connect 7 0 51 0;
#X connect 8 0 7 0;
#X connect 9 0 8 0;
#X connect 10 0 6 0;
#X connect 11 0 44 0;
#X connect 12 0 39 0;
#X connect 12 0 36 0;
#X connect 13 0 15 0;
#X connect 13 0 48 0;
#X connect 14 0 15 1;
#X connect 14 0 27 0;
#X connect 15 0 20 0;
#X connect 16 0 13 0;
#X connect 17 0 16 1;
#X connect 17 0 43 1;
#X connect 19 0 16 0;
#X connect 19 0 0 0;
#X connect 20 0 30 0;
#X connect 21 0 23 0;
#X connect 21 0 25 0;
#X connect 22 0 72 0;
#X connect 24 0 32 0;
#X connect 24 0 34 0;
#X connect 25 0 29 1;
#X connect 26 0 56 0;
#X connect 29 0 45 0;
#X connect 30 0 31 0;
#X connect 30 1 22 0;
#X connect 31 0 24 0;
#X connect 31 1 24 1;
#X connect 31 2 32 0;
#X connect 32 0 29 0;
#X connect 33 0 74 0;
#X connect 35 0 18 0;
#X connect 36 0 35 0;
#X connect 36 1 26 0;
#X connect 37 0 17 0;
#X connect 39 0 38 0;
#X connect 39 1 40 0;
#X connect 41 0 43 0;
#X connect 42 0 50 0;
#X connect 43 0 14 0;
#X connect 44 0 12 0;
#X connect 45 0 33 0;
#X connect 46 0 45 1;
#X connect 47 0 46 0;
#X connect 48 0 28 0;
#X connect 50 0 49 0;
#X connect 51 0 53 0;
#X connect 51 0 3 0;
#X connect 52 0 53 1;
#X connect 53 0 52 0;
#X connect 53 0 67 0;
#X connect 54 0 55 1;
#X connect 55 0 54 0;
#X connect 55 0 68 0;
#X connect 56 0 55 0;
#X connect 57 0 59 0;
#X connect 58 0 53 0;
#X connect 58 0 4 0;
#X connect 60 0 62 0;
#X connect 62 0 67 1;
#X connect 63 0 64 0;
#X connect 63 1 55 1;
#X connect 63 6 64 0;
#X connect 65 0 66 0;
#X connect 66 0 53 0;
#X connect 67 0 61 0;
#X connect 67 0 63 0;
#X connect 68 0 57 0;
#X connect 68 0 69 0;
#X connect 70 0 72 1;
#X connect 70 0 73 0;
#X connect 71 0 70 0;
#X connect 72 0 21 0;
#X restore 635 -70 pd looperlogic;
#X obj 1073 231 tgl 30 0 empty empty empty 17 7 0 10 -4034 -1 -1 0
1;
#X obj 1382 65 r jlu1;
#X obj 1382 85 change;
#X obj 1162 -40 bng 30 250 50 0 empty r_jrb2 empty 17 7 0 10 -261234
-1 -1;
#X obj 1304 -38 bng 30 250 50 0 empty empty empty 17 7 0 10 -261682
-1 -1;
#X obj 1254 -28 sel 1 0;
#X obj 1253 -47 change;
#X obj 1196 -27 sel 1 0;
#X obj 1195 -46 change;
#X obj 1195 -65 r jrb2;
#X obj 1253 -66 r jrb3;
#X obj 1100 -66 r looperctrl;
#X obj 1100 -26 tgl 15 0 empty empty empty 17 7 0 10 -262144 -1 -1
0 1;
#X obj 1106 253 bng 15 250 50 0 empty empty empty 17 7 0 10 -262144
-1 -1;
#X obj 1163 253 bng 15 250 50 0 empty empty empty 17 7 0 10 -262144
-1 -1;
#X obj 1106 272 timer;
#X obj 1106 232 spigot 1;
#X obj 1207 212 == 1;
#X obj 1100 72 s att;
#X obj 1105 212 r att;
#X floatatom 1106 295 10 0 0 0 - - -;
#X floatatom 1174 358 10 0 0 0 - - -;
#X obj 1173 316 / 1000;
#X obj 1181 378 s loopsize;
#X obj 1105 355 metro;
#X obj 1174 398 f \$1;
#X obj 1153 32 sel 1;
#X obj 1163 271 s stopr;
#X obj 1055 298 s start;
#X obj 1125 418 pack f f;
#X obj 1105 315 t f f;
#X obj 1105 336 t b f f;
#X obj 1144 398 f \$1;
#X msg 1125 469 0 \, \$2 \$1;
#X obj 1105 375 bng 15 250 50 0 empty empty empty 17 7 0 10 -262144
-1 -1;
#X obj 1100 52 sel 1;
#X obj 1100 32 t f f b;
#X obj 1207 191 r loopselect;
#X obj 1096 13 s recdub;
#X obj 1100 -7 alternate;
#X obj 1151 13 s dub;
#X obj 1160 213 r dub;
#X obj 1383 103 sel 1;
#X obj 1162 233 spigot 1;
#X obj 1100 -46 sel 1;
#X obj 1125 446 spigot 1;
#X obj 1181 446 sel 1;
#X obj 1181 425 r mute;
#X obj 1066 272 del 1;
#X obj 1383 123 s clear;
#X msg 1419 103 0;
#X msg 1226 52 1;
#X obj 1253 72 f;
#X obj 1228 72 + 1;
#X obj 1181 83 f;
#X obj 1155 81 + 1;
#X msg 1153 61 1;
#X floatatom 1152 125 5 0 0 0 - - -;
#X msg 1254 52 -1;
#X obj 1152 151 s loopselect;
#X obj 1294 66 r loopselect;
#X floatatom 1285 106 5 0 0 0 - - -;
#X obj 1294 87 t f f;
#X obj 1247 126 t f f f f f f b;
#X obj 1246 151 s loopposition;
#X obj 1383 142 loadbang;
#X msg 1383 164 0;
#X obj 1248 105 mod 9;
#X obj 1155 104 mod 9;
#X floatatom 1189 104 5 0 0 0 - - -;
#X obj 1216 315 samplerate~;
#X obj 1216 294 loadbang;
#X obj 1173 339 * 48000;
#X floatatom 1227 339 5 0 0 0 - - -;
#X obj 1125 490 s vline;
#X obj 91 1 == 1;
#X msg 125 1 1;
#X obj 142 24 looper1edit;
#X obj 253 23 looper1edit;
#X obj 360 23 looper1edit;
#X obj 470 24 looper1edit;
#X obj 584 24 looper1edit;
#X obj 695 23 looper1edit;
#X obj 802 23 looper1edit;
#X obj 28 24 looper1edit;
#X connect 0 0 2 0;
#X connect 0 0 109 0;
#X connect 1 0 3 0;
#X connect 2 0 109 1;
#X connect 3 0 111 0;
#X connect 4 0 13 0;
#X connect 5 0 6 0;
#X connect 7 0 8 0;
#X connect 9 0 10 0;
#X connect 11 0 12 0;
#X connect 14 0 107 0;
#X connect 14 1 0 0;
#X connect 14 2 1 0;
#X connect 14 3 4 0;
#X connect 14 4 5 0;
#X connect 14 5 7 0;
#X connect 14 6 9 0;
#X connect 14 7 11 0;
#X connect 17 0 14 0;
#X connect 17 0 16 0;
#X connect 21 0 20 0;
#X connect 22 0 21 0;
#X connect 24 0 23 0;
#X connect 26 0 25 0;
#X connect 27 0 30 0;
#X connect 28 0 29 0;
#X connect 33 0 34 0;
#X connect 34 0 74 0;
#X connect 37 0 90 0;
#X connect 38 0 37 0;
#X connect 39 0 83 0;
#X connect 40 0 39 0;
#X connect 41 0 40 0;
#X connect 42 0 38 0;
#X connect 43 0 76 0;
#X connect 44 0 71 0;
#X connect 44 0 68 0;
#X connect 45 0 47 0;
#X connect 45 0 80 0;
#X connect 46 0 47 1;
#X connect 46 0 59 0;
#X connect 47 0 52 0;
#X connect 48 0 45 0;
#X connect 49 0 48 1;
#X connect 49 0 75 1;
#X connect 51 0 48 0;
#X connect 51 0 32 0;
#X connect 52 0 62 0;
#X connect 53 0 55 0;
#X connect 53 0 57 0;
#X connect 54 0 104 0;
#X connect 56 0 64 0;
#X connect 56 0 66 0;
#X connect 57 0 61 1;
#X connect 58 0 88 0;
#X connect 61 0 77 0;
#X connect 62 0 63 0;
#X connect 62 1 54 0;
#X connect 63 0 56 0;
#X connect 63 1 56 1;
#X connect 63 2 64 0;
#X connect 64 0 61 0;
#X connect 65 0 106 0;
#X connect 67 0 50 0;
#X connect 68 0 67 0;
#X connect 68 1 58 0;
#X connect 69 0 49 0;
#X connect 71 0 70 0;
#X connect 71 1 72 0;
#X connect 73 0 75 0;
#X connect 74 0 82 0;
#X connect 75 0 46 0;
#X connect 76 0 44 0;
#X connect 77 0 65 0;
#X connect 78 0 77 1;
#X connect 79 0 78 0;
#X connect 80 0 60 0;
#X connect 82 0 81 0;
#X connect 83 0 85 0;
#X connect 83 0 35 0;
#X connect 84 0 85 1;
#X connect 85 0 84 0;
#X connect 85 0 99 0;
#X connect 86 0 87 1;
#X connect 87 0 86 0;
#X connect 87 0 100 0;
#X connect 88 0 87 0;
#X connect 89 0 91 0;
#X connect 90 0 85 0;
#X connect 90 0 36 0;
#X connect 92 0 94 0;
#X connect 94 0 99 1;
#X connect 95 0 96 0;
#X connect 95 1 87 1;
#X connect 95 6 96 0;
#X connect 97 0 98 0;
#X connect 98 0 85 0;
#X connect 99 0 93 0;
#X connect 99 0 95 0;
#X connect 100 0 89 0;
#X connect 100 0 101 0;
#X connect 102 0 104 1;
#X connect 102 0 105 0;
#X connect 103 0 102 0;
#X connect 104 0 53 0;
#X connect 107 0 108 0;
#X connect 108 0 116 1;
