#N canvas 1672 0 1366 726 10;
#X obj 729 207 tgl 15 0 empty empty empty 17 7 0 10 -262144 -1 -1 0
1;
#X obj 790 638 r loopselect;
#X obj 789 664 t 1 2 3 4 5 6 7 8;
#X floatatom 868 638 5 0 0 0 - - -;
#X obj 600 210 tgl 15 0 empty empty empty 17 7 0 10 -262144 -1 -1 0
1;
#X obj 830 207 tgl 15 0 empty empty empty 17 7 0 10 -262144 -1 -1 0
1;
#X obj 493 211 tgl 15 0 empty empty empty 17 7 0 10 -262144 -1 -1 0
1;
#X obj 928 207 tgl 15 0 empty empty empty 17 7 0 10 -262144 -1 -1 0
1;
#X obj 1055 209 tgl 15 0 empty empty empty 17 7 0 10 -262144 -1 -1
0 1;
#X obj 1168 208 tgl 15 0 empty empty empty 17 7 0 10 -262144 -1 -1
0 1;
#X obj 1272 206 tgl 15 0 empty empty empty 17 7 0 10 -262144 -1 -1
1 1;
#X obj 463 181 == 4;
#X obj 897 181 == 5;
#X obj 1020 184 == 6;
#X obj 1130 181 == 7;
#X obj 1238 181 == 8;
#X obj 522 14 catch~ synthout2;
#X obj 1133 506 catch~ synthfeed2;
#N canvas 1037 235 613 601 loopctrlr 1;
#X obj 102 81 spigot;
#X obj 26 291 throw~ synthfeed2;
#X obj 104 102 tgl 15 0 empty empty empty 17 7 0 10 -262144 -1 -1 0
1;
#X obj 145 81 sel 0;
#X msg 145 102 0;
#X obj 42 58 inlet~;
#X obj 174 171 outlet looprec;
#X obj 121 314 outlet~;
#X obj 166 53 inlet;
#X obj 102 54 r looprec;
#X obj 105 130 sel 0 1;
#X obj 106 189 unpack f f;
#X obj 50 244 lop~ 80;
#X obj 136 235 lop~ 80;
#X obj 35 264 *~;
#X obj 121 257 *~;
#X obj 51 222 sig~;
#X obj 136 212 sig~;
#X obj 198 82 loadbang;
#X obj 392 131 spigot;
#X obj 393 101 r outlevel;
#X obj 387 178 outlet outlevel;
#X floatatom 447 233 5 0 0 0 - - -;
#X obj 517 178 outlet clear;
#N canvas 633 345 450 300 loopclear 0;
#X obj 167 106 spigot;
#X floatatom 211 119 5 0 0 0 - - -;
#X obj 181 144 == 1;
#X msg 263 141 0;
#X obj 79 82 inlet looprec;
#X obj 124 246 outlet clearer;
#X obj 201 82 r recspigot2;
#X obj 192 218 send mute2;
#X obj 217 174 del 10;
#X connect 0 0 2 0;
#X connect 0 0 5 0;
#X connect 2 0 7 0;
#X connect 2 0 8 0;
#X connect 3 0 0 1;
#X connect 4 0 0 0;
#X connect 6 0 0 1;
#X connect 6 0 1 0;
#X connect 8 0 3 0;
#X restore 517 140 pd loopclear 2;
#X obj 238 240 s loop2;
#X obj 444 140 r all clear;
#X msg 261 133 1;
#X msg 296 133 0.9;
#X obj 48 371 throw~ synthfeed1;
#X obj 265 168 outlet feedback;
#X msg 139 158 0 2;
#X msg 106 157 2 0;
#X connect 0 0 2 0;
#X connect 2 0 6 0;
#X connect 2 0 10 0;
#X connect 2 0 24 0;
#X connect 2 0 25 0;
#X connect 3 0 4 0;
#X connect 4 0 2 0;
#X connect 5 0 14 0;
#X connect 5 0 15 0;
#X connect 8 0 0 1;
#X connect 8 0 3 0;
#X connect 8 0 19 1;
#X connect 9 0 0 0;
#X connect 10 0 32 0;
#X connect 10 0 27 0;
#X connect 10 1 31 0;
#X connect 10 1 28 0;
#X connect 11 0 16 0;
#X connect 11 1 17 0;
#X connect 12 0 14 1;
#X connect 13 0 15 1;
#X connect 14 0 1 0;
#X connect 14 0 29 0;
#X connect 15 0 7 0;
#X connect 16 0 12 0;
#X connect 17 0 13 0;
#X connect 18 0 32 0;
#X connect 19 0 21 0;
#X connect 19 0 22 0;
#X connect 20 0 19 0;
#X connect 24 0 23 0;
#X connect 26 0 23 0;
#X connect 27 0 30 0;
#X connect 28 0 30 0;
#X connect 31 0 11 0;
#X connect 32 0 11 0;
#X coords 0 -1 1 1 50 20 2 100 100;
#X restore 659 205 pd loopctrlr;
#X obj 743 17 catch~ drumout;
#X obj 781 180 == 1;
#X obj 575 180 == 3;
#X obj 681 178 == 2;
#X obj 47 -4 r jlu1;
#X obj 171 -15 r looperctrl;
#X obj -3 262 bng 15 250 50 0 empty empty empty 17 7 0 10 -262144 -1
-1;
#X obj 69 264 bng 15 250 50 0 empty empty empty 17 7 0 10 -262144 -1
-1;
#X obj 27 292 timer;
#X obj 0 166 spigot 1;
#X obj 188 195 s att;
#X obj -1 146 r att;
#X floatatom 43 334 10 0 0 0 - - -;
#X floatatom 132 480 10 0 0 0 - - -;
#X obj 117 399 / 1000;
#X obj 56 412 metro;
#X obj 91 517 f \$1;
#X obj 229 176 sel 1;
#X obj 48 566 pack f f;
#X obj 48 516 f \$1;
#X obj 306 262 bng 30 250 50 0 empty empty empty 17 7 0 10 -159808
-1 -1;
#X obj 188 175 sel 1;
#X obj 188 155 t f f b;
#X obj 195 135 s recdub;
#X obj 250 135 s dub;
#X obj 67 141 r dub;
#X obj 68 167 spigot 1;
#X obj 47 58 s clear;
#X obj 806 613 s loopselect;
#X obj 211 432 samplerate~;
#X obj 184 402 loadbang;
#X obj 141 447 * 48000;
#X floatatom 195 447 5 0 0 0 - - -;
#X obj 805 578 r pgmout;
#X floatatom 860 590 5 0 0 0 - - -;
#X obj 198 80 s looprec;
#X obj 46 617 vline~;
#X obj 46 663 s~ vline;
#X obj 45 123 int;
#X obj 306 207 tgl 30 0 empty empty empty 17 7 0 10 -257985 -1 -1 0
1;
#X obj 10 56 sel 1;
#X obj 322 345 s length_on_off;
#X msg 70 288 0;
#X obj 246 199 bng 15 250 50 0 empty empty empty 17 7 0 10 -262144
-1 -1;
#X obj 264 199 bng 15 250 50 0 empty empty empty 17 7 0 10 -262144
-1 -1;
#X obj 227 199 bng 15 250 50 0 empty empty empty 17 7 0 10 -262144
-1 -1;
#X obj 199 115 sel 1 0;
#X obj 266 17 tgl 15 0 empty empty empty 17 7 0 10 -262144 -1 -1 0
1;
#X obj 188 61 tgl 15 0 empty empty empty 17 7 0 10 -262144 -1 -1 0
1;
#X obj 186 37 sel 1 0;
#X obj 399 260 bng 30 250 50 0 empty empty empty 17 7 0 10 -258113
-1 -1;
#X obj 349 260 bng 30 250 50 0 empty empty empty 17 7 0 10 -4034 -1
-1;
#X obj 400 208 bng 30 250 50 0 empty empty empty 17 7 0 10 -258113
-1 -1;
#X obj 350 207 bng 30 250 50 0 empty empty empty 17 7 0 10 -260097
-1 -1;
#X obj 309 125 s alarm;
#X msg 270 95 354.331 2 1960.63 0 0 0 0;
#X msg 272 42 165.354 3 1771.65 1110.24 0 0 0;
#X msg 273 68 291.339 2 496.063 448.819 0 0 0;
#X msg 158 58 0;
#X obj 32 424 bng 15 250 50 0 empty empty empty 17 7 0 10 -262144 -1
-1;
#X floatatom 13 103 5 0 0 0 - - -;
#X obj 127 503 s loopsize;
#X obj 93 270 s stopr;
#X obj 789 344 r mute1;
#X obj 677 343 r mute2;
#X obj 572 342 r mute3;
#X obj 803 291 tgl 40 0 empty empty empty 17 7 0 10 -191407 -1 -1 1
1;
#X obj 669 290 tgl 40 0 empty empty empty 17 7 0 10 -191407 -1 -1 1
1;
#X obj 563 289 tgl 40 0 empty empty empty 17 7 0 10 -191407 -1 -1 0
1;
#X obj 460 287 tgl 40 0 empty empty empty 17 7 0 10 -191407 -1 -1 1
1;
#X obj 923 288 tgl 40 0 empty empty empty 17 7 0 10 -191407 -1 -1 1
1;
#X obj 1010 287 tgl 40 0 empty empty empty 17 7 0 10 -191407 -1 -1
1 1;
#X obj 1114 285 tgl 40 0 empty empty empty 17 7 0 10 -191407 -1 -1
1 1;
#X obj 1236 286 tgl 40 0 empty empty empty 17 7 0 10 -191407 -1 -1
1 1;
#X obj 473 342 r mute4;
#X obj 904 342 r mute5;
#X obj 1008 343 r mute6;
#X obj 1121 345 r mute7;
#X obj 1223 343 r mute8;
#X obj 842 345 s fbo1;
#X obj 746 341 s fbo2;
#X obj 635 345 s fbo3;
#X obj 527 341 s fbo4;
#X obj 955 344 s fbo5;
#X obj 1072 347 s fbo6;
#X obj 1174 349 s fbo7;
#X obj 1289 353 s fbo8;
#X obj 415 15 catch~ synthout3;
#X obj 847 19 catch~ synthout4;
#X obj 976 16 catch~ synthout5;
#X obj 1084 16 catch~ synthout6;
#X text 800 240 1;
#X text 703 241 2;
#X text 601 240 3;
#X text 496 238 4;
#X text 931 244 5;
#X text 1036 241 6;
#X text 1143 239 7;
#X text 1253 236 8;
#N canvas 0 0 450 300 volctrl 0;
#X obj 67 97 inlet~ synthsig;
#X obj 183 97 r outlevel;
#X obj 268 98 inlet chnltoggle;
#X obj 184 134 spigot;
#X obj 94 233 outlet~ synthsigout;
#X obj 88 175 *~ 0.5;
#X obj 232 242 outlet vol;
#X obj 184 158 clip 0 1;
#X obj 305 173 loadbang;
#X msg 306 195 0.5;
#X floatatom 158 195 5 0 0 0 - - -;
#X connect 0 0 5 0;
#X connect 1 0 3 0;
#X connect 2 0 3 1;
#X connect 3 0 7 0;
#X connect 5 0 4 0;
#X connect 7 0 5 1;
#X connect 7 0 6 0;
#X connect 7 0 10 0;
#X connect 8 0 9 0;
#X connect 9 0 7 0;
#X restore 522 161 pd volctrl;
#N canvas 0 0 450 300 volctrl 0;
#X obj 67 97 inlet~ synthsig;
#X obj 183 97 r outlevel;
#X obj 268 98 inlet chnltoggle;
#X obj 184 134 spigot;
#X obj 94 233 outlet~ synthsigout;
#X floatatom 269 160 5 0 0 0 - - -;
#X obj 222 232 outlet vol;
#X obj 103 128 loadbang;
#X obj 88 175 *~ 0.5;
#X obj 184 158 clip 0 1;
#X msg 140 152 0.5;
#X connect 0 0 8 0;
#X connect 1 0 3 0;
#X connect 2 0 3 1;
#X connect 3 0 9 0;
#X connect 7 0 10 0;
#X connect 8 0 4 0;
#X connect 9 0 5 0;
#X connect 9 0 6 0;
#X connect 9 0 8 1;
#X connect 10 0 9 0;
#X restore 440 161 pd volctrl;
#N canvas 0 0 450 300 volctrl 0;
#X obj 67 97 inlet~ synthsig;
#X obj 183 97 r outlevel;
#X obj 268 98 inlet chnltoggle;
#X obj 184 134 spigot;
#X obj 94 233 outlet~ synthsigout;
#X obj 88 175 *~ 0.5;
#X obj 242 252 outlet vol;
#X floatatom 168 195 5 0 0 0 - - -;
#X obj 286 127 loadbang;
#X msg 287 149 0.5;
#X obj 184 158 clip 0 2;
#X obj 232 194 s drumvolctrl;
#X obj 185 114 * 2;
#X connect 0 0 5 0;
#X connect 1 0 12 0;
#X connect 2 0 3 1;
#X connect 3 0 10 0;
#X connect 5 0 4 0;
#X connect 8 0 9 0;
#X connect 9 0 10 0;
#X connect 10 0 5 1;
#X connect 10 0 6 0;
#X connect 10 0 7 0;
#X connect 10 0 11 0;
#X connect 12 0 3 0;
#X restore 627 158 pd volctrl;
#N canvas 91 355 450 300 volctrl 0;
#X obj 67 97 inlet~ synthsig;
#X obj 180 81 r outlevel;
#X obj 268 98 inlet chnltoggle;
#X obj 184 134 spigot;
#X obj 94 233 outlet~ synthsigout;
#X obj 252 262 outlet vol;
#X floatatom 282 140 5 0 0 0 - - -;
#X obj 299 123 tgl 15 0 empty empty empty 17 7 0 10 -262144 -1 -1 0
1;
#X floatatom 339 197 5 0 0 0 - - -;
#X floatatom 252 201 5 0 0 0 - - -;
#N canvas 0 0 450 300 opposite 0;
#X restore 241 178 pd opposite direction;
#X obj 148 210 s drumvolctrl;
#X obj 355 126 loadbang;
#X obj 88 175 *~ 1;
#X msg 356 148 1;
#X obj 184 158 clip 0 2;
#X floatatom 136 184 5 0 0 0 - - -;
#X obj 169 187 f;
#X obj 119 212 bng 15 250 50 0 empty empty empty 17 7 0 10 -262144
-1 -1;
#X obj 184 106 * 2;
#X connect 0 0 13 0;
#X connect 1 0 6 0;
#X connect 1 0 19 0;
#X connect 2 0 3 1;
#X connect 2 0 7 0;
#X connect 3 0 15 0;
#X connect 12 0 14 0;
#X connect 13 0 4 0;
#X connect 14 0 15 0;
#X connect 15 0 5 0;
#X connect 15 0 13 1;
#X connect 15 0 16 0;
#X connect 15 0 17 0;
#X connect 17 0 11 0;
#X connect 17 0 18 0;
#X connect 19 0 3 0;
#X restore 754 156 pd volctrl;
#N canvas 0 0 450 300 volctrl 0;
#X obj 67 97 inlet~ synthsig;
#X obj 183 97 r outlevel;
#X obj 268 98 inlet chnltoggle;
#X obj 184 134 spigot;
#X obj 94 233 outlet~ synthsigout;
#X obj 88 175 *~ 0.5;
#X obj 262 272 outlet vol;
#X obj 184 158 clip 0 1;
#X obj 335 203 loadbang;
#X floatatom 243 146 5 0 0 0 - - -;
#X msg 336 225 1;
#X connect 0 0 5 0;
#X connect 1 0 3 0;
#X connect 1 0 9 0;
#X connect 2 0 3 1;
#X connect 3 0 7 0;
#X connect 5 0 4 0;
#X connect 7 0 5 1;
#X connect 7 0 6 0;
#X connect 8 0 10 0;
#X connect 10 0 7 0;
#X restore 872 160 pd volctrl;
#N canvas 0 0 450 300 volctrl 0;
#X obj 67 97 inlet~ synthsig;
#X obj 268 98 inlet chnltoggle;
#X obj 184 134 spigot;
#X obj 94 233 outlet~ synthsigout;
#X obj 88 175 *~ 0.5;
#X obj 272 282 outlet vol;
#X obj 184 158 clip 0 1;
#X obj 345 213 loadbang;
#X msg 346 235 1;
#X obj 183 97 r outlevel;
#X connect 0 0 4 0;
#X connect 1 0 2 1;
#X connect 2 0 6 0;
#X connect 4 0 3 0;
#X connect 6 0 4 1;
#X connect 6 0 5 0;
#X connect 7 0 8 0;
#X connect 8 0 6 0;
#X connect 9 0 2 0;
#X restore 998 161 pd volctrl;
#N canvas 0 0 450 318 volctrl 0;
#X obj 67 97 inlet~ synthsig;
#X obj 183 97 r outlevel;
#X obj 268 98 inlet chnltoggle;
#X obj 184 134 spigot;
#X obj 94 233 outlet~ synthsigout;
#X obj 88 175 *~ 0.5;
#X obj 282 292 outlet vol;
#X obj 184 158 clip 0 1;
#X obj 355 223 loadbang;
#X msg 356 245 0.5;
#X connect 0 0 5 0;
#X connect 1 0 3 0;
#X connect 2 0 3 1;
#X connect 3 0 7 0;
#X connect 5 0 4 0;
#X connect 7 0 5 1;
#X connect 7 0 6 0;
#X connect 8 0 9 0;
#X connect 9 0 7 0;
#X restore 1107 162 pd volctrl;
#N canvas 326 240 652 383 volctrl 0;
#X obj 88 50 inlet~ synthsig;
#X obj 257 60 r outlevel;
#X obj 489 49 inlet chnltoggle;
#X obj 258 97 spigot;
#X obj 250 290 outlet vol;
#X obj 258 121 clip 0 2;
#X obj 256 81 * 1;
#X obj 377 48 inlet~ synthsig;
#X obj 85 292 outlet~ synthsigout-l;
#X obj 395 291 outlet~ synthsigout-r;
#X floatatom 263 171 5 0 0 0 - - -;
#X obj 379 94 loadbang;
#X msg 380 116 1;
#X obj 372 171 *~ 1;
#X obj 88 175 *~ 1;
#X connect 0 0 14 0;
#X connect 1 0 6 0;
#X connect 2 0 3 1;
#X connect 3 0 5 0;
#X connect 5 0 4 0;
#X connect 5 0 10 0;
#X connect 5 0 13 1;
#X connect 5 0 14 1;
#X connect 6 0 3 0;
#X connect 7 0 13 0;
#X connect 11 0 12 0;
#X connect 13 0 9 0;
#X connect 14 0 8 0;
#X restore 1215 144 pd volctrl;
#X obj 720 371 == 0;
#X obj 718 395 s recspigot1;
#N canvas 967 349 613 601 loopctrlr 0;
#X obj 102 81 spigot;
#X obj 26 291 throw~ synthfeed2;
#X obj 104 102 tgl 15 0 empty empty empty 17 7 0 10 -262144 -1 -1 0
1;
#X obj 145 81 sel 0;
#X msg 145 102 0;
#X obj 42 58 inlet~;
#X obj 174 171 outlet looprec;
#X obj 121 314 outlet~;
#X obj 166 53 inlet;
#X obj 102 54 r looprec;
#X obj 265 168 outlet feedback;
#X obj 105 130 sel 0 1;
#X msg 106 157 1 0;
#X msg 139 158 0 1;
#X obj 106 189 unpack f f;
#X obj 50 244 lop~ 80;
#X obj 136 235 lop~ 80;
#X obj 35 264 *~;
#X obj 121 257 *~;
#X obj 51 222 sig~;
#X obj 136 212 sig~;
#X obj 198 82 loadbang;
#X obj 392 131 spigot;
#X obj 393 101 r outlevel;
#X obj 387 178 outlet outlevel;
#X floatatom 447 233 5 0 0 0 - - -;
#X obj 517 178 outlet clear;
#N canvas 681 239 450 300 loopclear 0;
#X obj 167 106 spigot;
#X floatatom 211 119 5 0 0 0 - - -;
#X obj 181 144 == 1;
#X msg 263 141 0;
#X obj 79 82 inlet looprec;
#X obj 124 246 outlet clearer;
#X obj 201 82 r recspigot3;
#X obj 192 218 send mute3;
#X obj 220 165 del 10;
#X connect 0 0 2 0;
#X connect 0 0 5 0;
#X connect 2 0 7 0;
#X connect 2 0 8 0;
#X connect 3 0 0 1;
#X connect 4 0 0 0;
#X connect 6 0 0 1;
#X connect 6 0 1 0;
#X connect 8 0 3 0;
#X restore 525 140 pd loopclear 3;
#X obj 350 295 s loop3;
#X obj 444 140 r all clear;
#X msg 266 131 1;
#X msg 301 131 0.9;
#X obj 68 391 throw~ synthfeed1;
#X connect 0 0 2 0;
#X connect 2 0 6 0;
#X connect 2 0 11 0;
#X connect 2 0 27 0;
#X connect 2 0 28 0;
#X connect 3 0 4 0;
#X connect 4 0 2 0;
#X connect 5 0 17 0;
#X connect 5 0 18 0;
#X connect 8 0 0 1;
#X connect 8 0 3 0;
#X connect 8 0 22 1;
#X connect 9 0 0 0;
#X connect 11 0 12 0;
#X connect 11 0 30 0;
#X connect 11 1 13 0;
#X connect 11 1 31 0;
#X connect 12 0 14 0;
#X connect 13 0 14 0;
#X connect 14 0 19 0;
#X connect 14 1 20 0;
#X connect 15 0 17 1;
#X connect 16 0 18 1;
#X connect 17 0 1 0;
#X connect 17 0 32 0;
#X connect 18 0 7 0;
#X connect 19 0 15 0;
#X connect 20 0 16 0;
#X connect 21 0 12 0;
#X connect 22 0 24 0;
#X connect 22 0 25 0;
#X connect 23 0 22 0;
#X connect 27 0 26 0;
#X connect 29 0 26 0;
#X connect 30 0 10 0;
#X connect 31 0 10 0;
#X coords 0 -1 1 1 50 20 2 100 100;
#X restore 543 209 pd loopctrlr;
#X obj 640 371 == 0;
#X obj 638 395 s recspigot2;
#X obj 559 370 == 0;
#X obj 557 394 s recspigot3;
#X obj 466 369 == 0;
#X obj 464 393 s recspigot4;
#N canvas 381 69 613 601 loopctrlr 0;
#X obj 102 81 spigot;
#X obj 26 291 throw~ synthfeed2;
#X obj 104 102 tgl 15 0 empty empty empty 17 7 0 10 -262144 -1 -1 0
1;
#X obj 145 81 sel 0;
#X msg 145 102 0;
#X obj 42 58 inlet~;
#X obj 174 171 outlet looprec;
#X obj 121 314 outlet~;
#X obj 166 53 inlet;
#X obj 102 54 r looprec;
#X obj 279 208 outlet feedback;
#X obj 105 130 sel 0 1;
#X msg 106 157 1 0;
#X msg 139 158 0 1;
#X obj 106 189 unpack f f;
#X obj 50 244 lop~ 80;
#X obj 136 235 lop~ 80;
#X obj 35 264 *~;
#X obj 121 257 *~;
#X obj 51 222 sig~;
#X obj 136 212 sig~;
#X obj 198 82 loadbang;
#X obj 392 131 spigot;
#X obj 393 101 r outlevel;
#X obj 387 178 outlet outlevel;
#X floatatom 447 233 5 0 0 0 - - -;
#X obj 517 178 outlet clear;
#N canvas 681 239 450 300 loopclear 0;
#X obj 167 106 spigot;
#X floatatom 211 119 5 0 0 0 - - -;
#X obj 181 144 == 1;
#X msg 263 141 0;
#X obj 79 82 inlet looprec;
#X obj 124 246 outlet clearer;
#X obj 201 82 r recspigot4;
#X obj 192 218 send mute4;
#X obj 230 175 del 10;
#X connect 0 0 2 0;
#X connect 0 0 5 0;
#X connect 2 0 7 0;
#X connect 2 0 8 0;
#X connect 3 0 0 1;
#X connect 4 0 0 0;
#X connect 6 0 0 1;
#X connect 6 0 1 0;
#X connect 8 0 3 0;
#X restore 515 149 pd loopclear;
#X obj 316 292 s loop4;
#X obj 442 151 r all clear;
#X msg 286 156 1;
#X msg 321 156 0.95;
#X obj 78 401 throw~ synthfeed1;
#X connect 0 0 2 0;
#X connect 2 0 6 0;
#X connect 2 0 11 0;
#X connect 2 0 27 0;
#X connect 2 0 28 0;
#X connect 3 0 4 0;
#X connect 4 0 2 0;
#X connect 5 0 17 0;
#X connect 5 0 18 0;
#X connect 8 0 0 1;
#X connect 8 0 3 0;
#X connect 8 0 22 1;
#X connect 9 0 0 0;
#X connect 11 0 12 0;
#X connect 11 0 30 0;
#X connect 11 1 13 0;
#X connect 11 1 31 0;
#X connect 12 0 14 0;
#X connect 13 0 14 0;
#X connect 14 0 19 0;
#X connect 14 1 20 0;
#X connect 15 0 17 1;
#X connect 16 0 18 1;
#X connect 17 0 1 0;
#X connect 17 0 32 0;
#X connect 18 0 7 0;
#X connect 19 0 15 0;
#X connect 20 0 16 0;
#X connect 21 0 12 0;
#X connect 22 0 24 0;
#X connect 22 0 25 0;
#X connect 23 0 22 0;
#X connect 27 0 26 0;
#X connect 29 0 26 0;
#X connect 30 0 10 0;
#X connect 31 0 10 0;
#X coords 0 -1 1 1 50 20 2 100 100;
#X restore 437 206 pd loopctrlr;
#N canvas 927 311 613 601 loopctrlr 0;
#X obj 102 81 spigot;
#X obj 26 291 throw~ synthfeed2;
#X obj 104 102 tgl 15 0 empty empty empty 17 7 0 10 -262144 -1 -1 0
1;
#X obj 145 81 sel 0;
#X msg 145 102 0;
#X obj 42 58 inlet~;
#X obj 174 171 outlet looprec;
#X obj 121 314 outlet~;
#X obj 166 53 inlet;
#X obj 102 54 r looprec;
#X obj 265 168 outlet feedback;
#X obj 105 130 sel 0 1;
#X msg 106 157 1 0;
#X msg 139 158 0 1;
#X obj 106 189 unpack f f;
#X obj 50 244 lop~ 80;
#X obj 136 235 lop~ 80;
#X obj 35 264 *~;
#X obj 121 257 *~;
#X obj 51 222 sig~;
#X obj 136 212 sig~;
#X obj 198 82 loadbang;
#X obj 392 131 spigot;
#X obj 393 101 r outlevel;
#X obj 387 178 outlet outlevel;
#X floatatom 447 233 5 0 0 0 - - -;
#X obj 517 178 outlet clear;
#N canvas 451 365 450 300 loopclear 0;
#X obj 167 106 spigot;
#X floatatom 211 119 5 0 0 0 - - -;
#X obj 181 144 == 1;
#X msg 263 141 0;
#X obj 79 82 inlet looprec;
#X obj 124 246 outlet clearer;
#X obj 201 82 r recspigot5;
#X obj 192 218 send mute5;
#X obj 250 195 del 10;
#X connect 0 0 2 0;
#X connect 0 0 5 0;
#X connect 2 0 7 0;
#X connect 2 0 8 0;
#X connect 3 0 0 1;
#X connect 4 0 0 0;
#X connect 6 0 0 1;
#X connect 6 0 1 0;
#X connect 8 0 3 0;
#X restore 515 149 pd loopclear;
#X obj 228 249 s loop5;
#X obj 440 152 r all clear;
#X msg 283 76 1;
#X msg 318 76 0.9;
#X obj 88 411 throw~ synthfeed1;
#X connect 0 0 2 0;
#X connect 2 0 6 0;
#X connect 2 0 11 0;
#X connect 2 0 27 0;
#X connect 2 0 28 0;
#X connect 3 0 4 0;
#X connect 4 0 2 0;
#X connect 5 0 17 0;
#X connect 5 0 18 0;
#X connect 8 0 0 1;
#X connect 8 0 3 0;
#X connect 8 0 22 1;
#X connect 9 0 0 0;
#X connect 11 0 12 0;
#X connect 11 0 30 0;
#X connect 11 1 13 0;
#X connect 11 1 31 0;
#X connect 12 0 14 0;
#X connect 13 0 14 0;
#X connect 14 0 19 0;
#X connect 14 1 20 0;
#X connect 15 0 17 1;
#X connect 16 0 18 1;
#X connect 17 0 1 0;
#X connect 17 0 32 0;
#X connect 18 0 7 0;
#X connect 19 0 15 0;
#X connect 20 0 16 0;
#X connect 21 0 12 0;
#X connect 22 0 24 0;
#X connect 22 0 25 0;
#X connect 23 0 22 0;
#X connect 27 0 26 0;
#X connect 29 0 26 0;
#X connect 30 0 10 0;
#X connect 31 0 10 0;
#X coords 0 -1 1 1 50 20 2 100 100;
#X restore 877 205 pd loopctrlr;
#N canvas 156 96 613 601 loopctrlr 0;
#X obj 102 81 spigot;
#X obj 26 291 throw~ synthfeed2;
#X obj 104 102 tgl 15 0 empty empty empty 17 7 0 10 -262144 -1 -1 0
1;
#X obj 145 81 sel 0;
#X msg 145 102 0;
#X obj 42 58 inlet~;
#X obj 174 171 outlet looprec;
#X obj 121 314 outlet~;
#X obj 166 53 inlet;
#X obj 102 54 r looprec;
#X obj 265 168 outlet feedback;
#X obj 105 130 sel 0 1;
#X msg 106 157 1 0;
#X msg 139 158 0 1;
#X obj 106 189 unpack f f;
#X obj 50 244 lop~ 80;
#X obj 136 235 lop~ 80;
#X obj 35 264 *~;
#X obj 121 257 *~;
#X obj 51 222 sig~;
#X obj 136 212 sig~;
#X obj 198 82 loadbang;
#X obj 392 131 spigot;
#X obj 393 101 r outlevel;
#X obj 387 178 outlet outlevel;
#X floatatom 447 233 5 0 0 0 - - -;
#X obj 517 178 outlet clear;
#N canvas 681 239 450 300 loopclear 0;
#X obj 167 106 spigot;
#X floatatom 211 119 5 0 0 0 - - -;
#X obj 181 144 == 1;
#X msg 263 141 0;
#X obj 79 82 inlet looprec;
#X obj 124 246 outlet clearer;
#X obj 201 82 r recspigot6;
#X obj 192 218 send mute6;
#X obj 226 168 del 10;
#X connect 0 0 2 0;
#X connect 0 0 5 0;
#X connect 2 0 7 0;
#X connect 2 0 8 0;
#X connect 3 0 0 1;
#X connect 4 0 0 0;
#X connect 6 0 0 1;
#X connect 6 0 1 0;
#X connect 8 0 3 0;
#X restore 515 149 pd loopclear;
#X obj 262 241 s loop6;
#X obj 433 152 r all clear;
#X msg 255 110 1;
#X msg 290 110 0.9;
#X obj 98 421 throw~ synthfeed1;
#X connect 0 0 2 0;
#X connect 2 0 6 0;
#X connect 2 0 11 0;
#X connect 2 0 27 0;
#X connect 2 0 28 0;
#X connect 3 0 4 0;
#X connect 4 0 2 0;
#X connect 5 0 17 0;
#X connect 5 0 18 0;
#X connect 8 0 0 1;
#X connect 8 0 3 0;
#X connect 8 0 22 1;
#X connect 9 0 0 0;
#X connect 11 0 12 0;
#X connect 11 0 30 0;
#X connect 11 1 13 0;
#X connect 11 1 31 0;
#X connect 12 0 14 0;
#X connect 13 0 14 0;
#X connect 14 0 19 0;
#X connect 14 1 20 0;
#X connect 15 0 17 1;
#X connect 16 0 18 1;
#X connect 17 0 1 0;
#X connect 17 0 32 0;
#X connect 18 0 7 0;
#X connect 19 0 15 0;
#X connect 20 0 16 0;
#X connect 21 0 12 0;
#X connect 22 0 24 0;
#X connect 22 0 25 0;
#X connect 23 0 22 0;
#X connect 27 0 26 0;
#X connect 29 0 26 0;
#X connect 30 0 10 0;
#X connect 31 0 10 0;
#X coords 0 -1 1 1 50 20 2 100 100;
#X restore 998 207 pd loopctrlr;
#N canvas 973 300 613 601 loopctrlr 0;
#X obj 102 81 spigot;
#X obj 26 291 throw~ synthfeed2;
#X obj 104 102 tgl 15 0 empty empty empty 17 7 0 10 -262144 -1 -1 0
1;
#X obj 145 81 sel 0;
#X msg 145 102 0;
#X obj 42 58 inlet~;
#X obj 174 171 outlet looprec;
#X obj 121 314 outlet~;
#X obj 166 53 inlet;
#X obj 102 54 r looprec;
#X obj 265 168 outlet feedback;
#X obj 105 130 sel 0 1;
#X msg 106 157 1 0;
#X msg 139 158 0 1;
#X obj 106 189 unpack f f;
#X obj 50 244 lop~ 80;
#X obj 136 235 lop~ 80;
#X obj 35 264 *~;
#X obj 121 257 *~;
#X obj 51 222 sig~;
#X obj 136 212 sig~;
#X obj 198 82 loadbang;
#X obj 392 131 spigot;
#X obj 393 101 r outlevel;
#X obj 387 178 outlet outlevel;
#X floatatom 447 233 5 0 0 0 - - -;
#X obj 517 178 outlet clear;
#N canvas 681 239 450 300 loopclear 0;
#X obj 167 106 spigot;
#X floatatom 211 119 5 0 0 0 - - -;
#X obj 181 144 == 1;
#X msg 263 141 0;
#X obj 79 82 inlet looprec;
#X obj 124 246 outlet clearer;
#X obj 201 82 r recspigot7;
#X obj 192 218 send mute7;
#X obj 211 163 del 10;
#X connect 0 0 2 0;
#X connect 0 0 5 0;
#X connect 2 0 7 0;
#X connect 2 0 8 0;
#X connect 3 0 0 1;
#X connect 4 0 0 0;
#X connect 6 0 0 1;
#X connect 6 0 1 0;
#X connect 8 0 3 0;
#X restore 515 149 pd loopclear;
#X obj 265 245 s loop7;
#X obj 437 147 r all clear;
#X msg 280 81 1;
#X msg 315 81 0.9;
#X obj 108 431 throw~ synthfeed1;
#X connect 0 0 2 0;
#X connect 2 0 6 0;
#X connect 2 0 11 0;
#X connect 2 0 27 0;
#X connect 2 0 28 0;
#X connect 3 0 4 0;
#X connect 4 0 2 0;
#X connect 5 0 17 0;
#X connect 5 0 18 0;
#X connect 8 0 0 1;
#X connect 8 0 3 0;
#X connect 8 0 22 1;
#X connect 9 0 0 0;
#X connect 11 0 12 0;
#X connect 11 0 30 0;
#X connect 11 1 13 0;
#X connect 11 1 31 0;
#X connect 12 0 14 0;
#X connect 13 0 14 0;
#X connect 14 0 19 0;
#X connect 14 1 20 0;
#X connect 15 0 17 1;
#X connect 16 0 18 1;
#X connect 17 0 1 0;
#X connect 17 0 32 0;
#X connect 18 0 7 0;
#X connect 19 0 15 0;
#X connect 20 0 16 0;
#X connect 21 0 12 0;
#X connect 22 0 24 0;
#X connect 22 0 25 0;
#X connect 23 0 22 0;
#X connect 27 0 26 0;
#X connect 29 0 26 0;
#X connect 30 0 10 0;
#X connect 31 0 10 0;
#X coords 0 -1 1 1 50 20 2 100 100;
#X restore 1097 205 pd loopctrlr;
#N canvas 149 114 900 601 loopctrlr 0;
#X obj 102 81 spigot;
#X obj 468 366 throw~ synthfeed2;
#X obj 104 102 tgl 15 0 empty empty empty 17 7 0 10 -262144 -1 -1 0
1;
#X msg 167 102 0;
#X obj 42 58 inlet~;
#X obj 169 165 outlet looprec;
#X obj 179 354 outlet~;
#X obj 200 0 inlet;
#X obj 102 54 r looprec;
#X obj 268 195 outlet feedback;
#X obj 105 130 sel 0 1;
#X msg 106 157 1 0;
#X msg 139 158 0 1;
#X obj 106 189 unpack f f;
#X obj 492 319 lop~ 80;
#X obj 147 274 lop~ 80;
#X obj 477 339 *~;
#X obj 493 297 sig~;
#X obj 147 251 sig~;
#X obj 222 79 loadbang;
#X obj 392 131 spigot;
#X obj 393 101 r outlevel;
#X obj 387 178 outlet outlevel;
#X floatatom 447 233 5 0 0 0 - - -;
#X obj 517 178 outlet clear;
#N canvas 1237 657 450 300 loopclear 0;
#X floatatom 211 119 5 0 0 0 - - -;
#X obj 181 144 == 1;
#X msg 263 141 0;
#X obj 79 82 inlet looprec;
#X obj 124 246 outlet clearer;
#X obj 294 52 r recspigot8;
#X obj 219 169 del 10;
#X obj 301 187 s mute8;
#X obj 187 55 inlet;
#X obj 233 53 tgl 15 0 empty empty empty 17 7 0 10 -262144 -1 -1 1
1;
#X obj 167 106 spigot 1;
#X obj 130 201 line;
#X obj 101 153 tgl 15 0 empty empty empty 17 7 0 10 -262144 -1 -1 0
1;
#X floatatom 76 231 5 0 0 0 - - -;
#X msg 130 180 \$1 100;
#X obj 222 243 outlet 8clear;
#X connect 1 0 6 0;
#X connect 2 0 10 1;
#X connect 3 0 10 0;
#X connect 5 0 0 0;
#X connect 5 0 10 1;
#X connect 6 0 2 0;
#X connect 8 0 9 0;
#X connect 8 0 10 1;
#X connect 10 0 1 0;
#X connect 10 0 14 0;
#X connect 10 0 15 0;
#X connect 11 0 4 0;
#X connect 11 0 13 0;
#X connect 12 0 14 0;
#X connect 14 0 11 0;
#X restore 515 149 pd loopclear;
#X obj 257 231 s loop8;
#X obj 136 317 *~;
#X obj 192 218 s 8att;
#X obj 192 238 s 8dub;
#X obj 160 54 == 0;
#X text 149 22 CHANGED THE 0 = FROM [SEL 0];
#X obj 226 113 tgl 15 0 empty empty empty 17 7 0 10 -262144 -1 -1 1
1;
#X obj 353 332 outlet~;
#X obj 322 250 lop~ 80;
#X obj 321 229 sig~;
#X obj 310 295 *~;
#X obj 325 56 inlet~ r;
#X floatatom 70 391 5 0 0 0 - - -;
#X floatatom 158 373 5 0 0 0 - - -;
#X obj 158 77 sel 0 1;
#X obj 49 305 lop~ 80;
#X obj 34 325 *~;
#X obj 50 283 sig~;
#X obj 25 352 throw~ synthfeed1;
#X obj 600 178 s 8clear;
#X obj 434 28 inlet volctrl;
#X obj 327 151 /;
#X obj 279 157 /;
#X obj 290 110 t b f;
#X connect 0 0 2 0;
#X connect 2 0 5 0;
#X connect 2 0 10 0;
#X connect 2 0 26 0;
#X connect 2 0 25 0;
#X connect 3 0 2 0;
#X connect 4 0 27 0;
#X connect 4 0 42 0;
#X connect 7 0 0 1;
#X connect 7 0 20 1;
#X connect 7 0 30 0;
#X connect 7 0 25 1;
#X connect 7 0 32 0;
#X connect 8 0 0 0;
#X connect 10 0 11 0;
#X connect 10 0 29 0;
#X connect 10 1 12 0;
#X connect 10 1 28 0;
#X connect 11 0 13 0;
#X connect 12 0 13 0;
#X connect 13 0 38 0;
#X connect 13 0 48 0;
#X connect 13 1 39 0;
#X connect 13 1 47 0;
#X connect 14 0 16 1;
#X connect 15 0 27 1;
#X connect 16 0 1 0;
#X connect 17 0 14 0;
#X connect 18 0 15 0;
#X connect 19 0 11 0;
#X connect 20 0 22 0;
#X connect 20 0 23 0;
#X connect 21 0 20 0;
#X connect 25 0 24 0;
#X connect 25 1 45 0;
#X connect 27 0 6 0;
#X connect 30 0 40 0;
#X connect 34 0 36 1;
#X connect 35 0 34 0;
#X connect 36 0 33 0;
#X connect 37 0 36 0;
#X connect 37 0 16 0;
#X connect 40 1 3 0;
#X connect 41 0 42 1;
#X connect 42 0 44 0;
#X connect 43 0 41 0;
#X connect 46 0 49 0;
#X connect 47 0 18 0;
#X connect 47 0 35 0;
#X connect 48 0 43 0;
#X connect 48 0 17 0;
#X connect 49 0 47 0;
#X connect 49 0 48 0;
#X connect 49 1 47 1;
#X connect 49 1 48 1;
#X coords 0 -1 1 1 50 20 2 100 100;
#X restore 1198 205 pd loopctrlr;
#X obj 1195 376 == 0;
#X obj 1115 376 == 0;
#X obj 1034 375 == 0;
#X obj 941 374 == 0;
#X obj 941 397 s recspigot5;
#X obj 1034 398 s recspigot6;
#X obj 1115 399 s recspigot7;
#X obj 1195 399 s recspigot8;
#X floatatom 239 343 5 0 0 0 - - -;
#X floatatom 116 540 10 0 0 0 - - -;
#X floatatom 53 540 10 0 0 0 - - -;
#X obj 269 373 s metrobang;
#X obj 385 500 s loopbang;
#X msg 47 588 0 \, \$2 \$1;
#X obj 48 475 t b b;
#X obj -30 550 s loop_in_ms;
#X obj 234 255 s filerec;
#N canvas 712 6 613 426 loopctrlr 0;
#X obj 102 81 spigot;
#X obj 26 291 throw~ synthfeed2;
#X obj 104 102 tgl 15 0 empty empty empty 17 7 0 10 -262144 -1 -1 0
1;
#X obj 145 81 sel 0;
#X msg 145 102 0;
#X obj 42 58 inlet~;
#X obj 174 171 outlet looprec;
#X obj 121 314 outlet~;
#X obj 166 53 inlet;
#X obj 102 54 r looprec;
#X obj 105 130 sel 0 1;
#X obj 106 189 unpack f f;
#X obj 50 244 lop~ 80;
#X obj 136 235 lop~ 80;
#X obj 35 264 *~;
#X obj 121 257 *~;
#X obj 51 222 sig~;
#X obj 136 212 sig~;
#X obj 198 82 loadbang;
#X obj 392 131 spigot;
#X obj 393 101 r outlevel;
#X obj 387 178 outlet outlevel;
#X floatatom 447 233 5 0 0 0 - - -;
#X obj 517 178 outlet clear;
#N canvas 945 632 450 300 loopclear 0;
#X obj 167 106 spigot;
#X floatatom 211 119 5 0 0 0 - - -;
#X obj 181 144 == 1;
#X msg 263 141 0;
#X obj 79 82 inlet looprec;
#X obj 124 246 outlet clearer;
#X obj 240 185 del 10;
#X obj 201 82 r recspigot1;
#X obj 192 218 send mute1;
#X connect 0 0 2 0;
#X connect 0 0 5 0;
#X connect 2 0 6 0;
#X connect 2 0 8 0;
#X connect 3 0 0 1;
#X connect 4 0 0 0;
#X connect 6 0 3 0;
#X connect 7 0 0 1;
#X connect 7 0 1 0;
#X restore 517 140 pd loopclear 1;
#X obj 307 301 s loop1;
#X obj 445 143 r all clear;
#X msg 269 84 1;
#X obj 58 381 throw~ synthfeed1;
#X msg 304 84 1;
#X obj 72 331 lop~ 80;
#X obj 57 351 *~;
#X obj 73 309 sig~;
#X msg 106 157 2 0;
#X msg 139 158 0 2;
#X connect 0 0 2 0;
#X connect 2 0 6 0;
#X connect 2 0 10 0;
#X connect 2 0 24 0;
#X connect 2 0 25 0;
#X connect 3 0 4 0;
#X connect 4 0 2 0;
#X connect 5 0 14 0;
#X connect 5 0 15 0;
#X connect 5 0 31 0;
#X connect 8 0 0 1;
#X connect 8 0 3 0;
#X connect 8 0 19 1;
#X connect 9 0 0 0;
#X connect 10 0 33 0;
#X connect 10 0 27 0;
#X connect 10 1 34 0;
#X connect 10 1 29 0;
#X connect 11 0 16 0;
#X connect 11 0 32 0;
#X connect 11 1 17 0;
#X connect 12 0 14 1;
#X connect 13 0 15 1;
#X connect 14 0 1 0;
#X connect 15 0 7 0;
#X connect 16 0 12 0;
#X connect 17 0 13 0;
#X connect 18 0 33 0;
#X connect 19 0 21 0;
#X connect 19 0 22 0;
#X connect 20 0 19 0;
#X connect 24 0 23 0;
#X connect 26 0 23 0;
#X connect 30 0 31 1;
#X connect 31 0 28 0;
#X connect 32 0 30 0;
#X connect 33 0 11 0;
#X connect 34 0 11 0;
#X coords 0 -1 1 1 50 20 2 100 100;
#X restore 754 203 pd loopctrlr;
#X obj 626 18 catch~ drumout2;
#X text 299 234 LOOPSET;
#X text 351 233 1REC;
#X text 401 235 1DUB;
#X text 310 291 BPM;
#X text 353 289 REC;
#X text 404 287 DUB;
#X obj 149 17 change;
#X obj 45 21 change;
#X obj 246 289 m_bpm2ms;
#X obj 248 310 int;
#X obj 1284 468 sel 0 1;
#X floatatom 118 421 10 0 0 0 - - -;
#X obj -5 307 bng 15 250 50 0 empty empty empty 17 7 0 10 -262144 -1
-1;
#X obj 43 358 t b f f f;
#X obj 1193 231 looplayer_resampler;
#X obj 613 544 *~ 1;
#X obj -16 -1 r 8clear;
#X obj 61 233 r 8dub;
#X obj -7 238 r 8att;
#N canvas 0 0 1366 726 pre_fx_here 0;
#X obj 567 622 outlet~;
#X obj 149 223 *~;
#X obj 254 58 loadbang;
#X obj 157 102 sel 0 1;
#X floatatom 207 103 5 0 0 0 - - -;
#X floatatom 502 251 5 0 0 0 - - -;
#X obj 435 248 mtof;
#X floatatom 464 248 5 0 0 0 - - -;
#X obj 435 203 f;
#X obj 515 283 sig~;
#X floatatom 562 182 5 0 0 0 - - -;
#X floatatom 440 222 5 0 0 0 - - -;
#X floatatom 524 158 5 0 0 0 - - -;
#X obj 380 336 bp~;
#X obj 475 460 bp~;
#X obj 384 304 bp~;
#X obj 412 313 sig~;
#X obj 283 512 *~ 3;
#X obj 502 229 / 5;
#X obj 401 408 hip~ 10000;
#X obj 478 486 bp~;
#X obj 469 158 r yaxisr;
#X obj 509 181 r xaxisr;
#X obj 161 43 r jrb1;
#X obj 99 161 inlet~;
#X msg 255 81 1 0;
#X obj 154 172 unpack f f;
#X floatatom 227 193 5 0 0 0 - - -;
#X floatatom 115 198 5 0 0 0 - - -;
#X obj 196 222 *~;
#X msg 176 149 0 1;
#X obj 161 65 change;
#X msg 157 126 1 0;
#N canvas 109 25 1208 762 mypitchshifter 0;
#X msg 384 267 pitch \$1;
#X floatatom 384 246 5 0 0 0 - - -;
#X text 427 246 Pitch Shift;
#X obj 508 242 r mynotemsg;
#X obj 491 272 unpack f f f;
#X obj 365 148 r breath;
#X obj 371 201 sig~;
#X obj 369 176 / 127;
#X obj 361 233 lop~ 80;
#X floatatom 451 209 5 0 0 0 - - -;
#X obj 345 259 * 3;
#X floatatom 393 308 5 0 0 0 - - -;
#X obj 365 387 *~ 1;
#X floatatom 507 302 5 0 0 0 - - -;
#X floatatom 455 388 5 0 0 0 - - -;
#X obj 496 319 mod 48;
#X floatatom 505 360 5 0 0 0 - - -;
#X msg 520 434 freq \$1;
#X obj 523 392 hsl 128 15 0 1 0 0 empty empty Frequency -2 -8 1 10
-262144 -1 -1 12700 1;
#X obj 543 484 hsl 128 15 0 1 0 0 empty empty Depth -2 -8 1 10 -262144
-1 -1 12700 1;
#X msg 540 526 depth \$1;
#X obj 439 557 e_phaser ph0;
#X floatatom 520 412 5 0 0 0 - - -;
#X floatatom 540 504 5 0 0 0 - - -;
#X obj 710 345 r xaxisr;
#X obj 757 382 r yaxisr;
#X obj 389 581 outlet~;
#X obj 186 263 inlet~;
#X obj 448 340 r xaxis;
#X obj 197 318 e_pitchshift;
#X connect 0 0 29 1;
#X connect 1 0 0 0;
#X connect 3 0 4 0;
#X connect 4 0 13 0;
#X connect 5 0 7 0;
#X connect 6 0 8 0;
#X connect 7 0 6 0;
#X connect 7 0 9 0;
#X connect 7 0 10 0;
#X connect 10 0 11 0;
#X connect 10 0 12 1;
#X connect 12 0 21 0;
#X connect 15 0 16 0;
#X connect 17 0 21 1;
#X connect 18 0 22 0;
#X connect 19 0 23 0;
#X connect 20 0 21 1;
#X connect 21 0 26 0;
#X connect 22 0 17 0;
#X connect 23 0 20 0;
#X connect 24 0 18 0;
#X connect 25 0 19 0;
#X connect 27 0 29 0;
#X connect 28 0 1 0;
#X connect 28 0 14 0;
#X connect 29 0 12 0;
#X restore 246 319 pd mypitchshifter;
#X floatatom 558 200 5 0 0 0 - - -;
#X obj 659 378 tgl 15 0 empty empty empty 17 7 0 10 -262144 -1 -1 0
1;
#X obj 696 402 sel 0 1;
#X obj 654 343 change;
#X obj 655 277 r jrb2;
#X obj 655 302 spigot;
#X obj 554 575 *~;
#X obj 611 575 *~;
#X msg 735 435 0 1;
#X obj 694 462 unpack;
#X obj 688 484 sig~;
#X obj 675 504 lop~ 80;
#X obj 745 480 sig~;
#X obj 732 500 lop~ 80;
#X obj 732 227 r pgmout;
#X obj 690 320 spigot;
#X obj 687 166 sel 0 1;
#X msg 688 192 1;
#X msg 725 194 0;
#X msg 696 434 1 0.2;
#X obj 681 133 r loop1;
#X obj 733 317 == 1;
#N canvas 109 25 1208 722 mypitchshifter 0;
#X msg 266 295 pitch \$1;
#X floatatom 266 274 5 0 0 0 - - -;
#X text 309 274 Pitch Shift;
#X obj 268 148 r mynotemsg;
#X obj 269 171 unpack f f f;
#X obj 375 200 r breath;
#X obj 381 253 sig~;
#X obj 379 228 / 127;
#X obj 385 275 lop~ 80;
#X floatatom 416 228 5 0 0 0 - - -;
#X floatatom 405 310 5 0 0 0 - - -;
#X floatatom 279 193 5 0 0 0 - - -;
#X obj 272 226 mod 48;
#X floatatom 297 250 5 0 0 0 - - -;
#X obj 366 479 outlet~;
#X obj 198 295 inlet~;
#X obj 380 335 sig~;
#X obj 380 361 lop~ 80;
#X obj 365 387 *~;
#X text 192 245 was -28;
#X obj 380 309 * 1;
#X obj 265 253 - 64;
#X obj 197 318 e_pitchshift;
#X connect 0 0 22 1;
#X connect 1 0 0 0;
#X connect 3 0 4 0;
#X connect 4 0 11 0;
#X connect 4 0 21 0;
#X connect 5 0 7 0;
#X connect 6 0 8 0;
#X connect 7 0 6 0;
#X connect 7 0 9 0;
#X connect 7 0 20 0;
#X connect 12 0 13 0;
#X connect 12 0 21 0;
#X connect 15 0 22 0;
#X connect 16 0 17 0;
#X connect 17 0 18 1;
#X connect 18 0 14 0;
#X connect 20 0 10 0;
#X connect 20 0 16 0;
#X connect 21 0 1 0;
#X connect 22 0 18 0;
#X restore 539 518 pd mypitchshifter;
#X obj 989 147 inlet;
#X obj 987 176 switch~;
#X obj 589 456 resampler;
#X connect 1 0 40 0;
#X connect 2 0 25 0;
#X connect 3 0 32 0;
#X connect 3 1 30 0;
#X connect 5 0 9 0;
#X connect 5 0 13 2;
#X connect 5 0 14 2;
#X connect 5 0 15 2;
#X connect 5 0 20 2;
#X connect 6 0 7 0;
#X connect 6 0 15 1;
#X connect 6 0 13 1;
#X connect 6 0 14 1;
#X connect 6 0 19 1;
#X connect 6 0 20 1;
#X connect 8 0 11 0;
#X connect 8 0 6 0;
#X connect 13 0 17 0;
#X connect 14 0 20 0;
#X connect 14 0 40 0;
#X connect 15 0 13 0;
#X connect 15 0 17 0;
#X connect 17 0 40 0;
#X connect 18 0 5 0;
#X connect 19 0 14 0;
#X connect 20 0 17 0;
#X connect 21 0 12 0;
#X connect 21 0 18 0;
#X connect 22 0 10 0;
#X connect 22 0 8 0;
#X connect 23 0 4 0;
#X connect 23 0 31 0;
#X connect 24 0 29 0;
#X connect 24 0 1 0;
#X connect 24 0 59 0;
#X connect 25 0 26 0;
#X connect 26 0 1 1;
#X connect 26 0 28 0;
#X connect 26 1 27 0;
#X connect 26 1 29 1;
#X connect 29 0 15 0;
#X connect 29 0 33 0;
#X connect 30 0 26 0;
#X connect 31 0 3 0;
#X connect 32 0 26 0;
#X connect 33 0 17 0;
#X connect 36 0 53 0;
#X connect 36 1 42 0;
#X connect 37 0 35 0;
#X connect 37 0 36 0;
#X connect 37 0 59 2;
#X connect 38 0 39 0;
#X connect 39 0 49 0;
#X connect 39 0 37 0;
#X connect 40 0 0 0;
#X connect 41 0 0 0;
#X connect 42 0 43 0;
#X connect 43 0 44 0;
#X connect 43 1 46 0;
#X connect 44 0 45 0;
#X connect 45 0 40 1;
#X connect 46 0 47 0;
#X connect 47 0 41 1;
#X connect 48 0 55 0;
#X connect 50 0 51 0;
#X connect 50 1 52 0;
#X connect 51 0 49 1;
#X connect 52 0 49 1;
#X connect 53 0 43 0;
#X connect 54 0 50 0;
#X connect 55 0 39 1;
#X connect 55 0 59 1;
#X connect 56 0 41 0;
#X connect 57 0 58 0;
#X connect 59 0 56 0;
#X restore 752 113 pd pre_fx_here;
#N canvas 0 0 1680 1008 pre_fx_here 0;
#X obj 285 675 outlet~;
#X obj 113 220 *~;
#X obj 254 58 loadbang;
#X obj 157 102 sel 0 1;
#X floatatom 207 103 5 0 0 0 - - -;
#X floatatom 358 276 5 0 0 0 - - -;
#X obj 291 273 mtof;
#X floatatom 320 273 5 0 0 0 - - -;
#X obj 291 228 f;
#X obj 371 308 sig~;
#X floatatom 418 207 5 0 0 0 - - -;
#X floatatom 296 247 5 0 0 0 - - -;
#X floatatom 380 183 5 0 0 0 - - -;
#X obj 236 361 bp~;
#X obj 331 485 bp~;
#X obj 240 329 bp~;
#X obj 268 338 sig~;
#X obj 139 537 *~ 3;
#X obj 358 254 / 5;
#X obj 257 433 hip~ 10000;
#X obj 334 511 bp~;
#X obj 325 183 r yaxisr;
#X obj 365 206 r xaxisr;
#X obj 161 43 r jrb1;
#X obj 101 171 inlet~;
#X msg 255 81 1 0;
#X obj 154 172 unpack f f;
#X floatatom 227 193 5 0 0 0 - - -;
#X floatatom 115 198 5 0 0 0 - - -;
#X obj 196 222 *~;
#X msg 176 149 0 1;
#X obj 161 65 change;
#X msg 157 126 1 0;
#X floatatom -704 348 5 0 127 0 - - -;
#X obj -257 309 moses 127;
#X obj -703 307 moses 0;
#X obj -636 309 moses 25.4;
#X obj -542 312 moses 50.8;
#X obj -452 311 moses 76.2;
#X obj -355 310 moses 101.6;
#X floatatom -639 440 5 0 0 0 - - -;
#X obj -642 392 / 100;
#X obj -642 415 * 4;
#X obj -695 417 -;
#X floatatom -694 440 5 0 0 0 - - -;
#X obj -699 390 swap 1;
#X floatatom -528 439 5 0 0 0 - - -;
#X obj -531 391 / 100;
#X obj -531 414 * 4;
#X obj -584 416 -;
#X floatatom -583 439 5 0 0 0 - - -;
#X obj -588 389 swap 1;
#X obj -529 349 - 25.4;
#X floatatom -495 389 5 0 0 0 - - -;
#X obj -528 369 clip 0 25;
#X obj -707 331 hsl 800 15 0 127 0 0 empty empty empty -2 -8 0 10 -262144
-1 -1 79900 1;
#X obj -694 466 vsl 15 50 0 1 0 0 empty empty empty 0 -9 0 10 -262144
-1 -1 229 1;
#X floatatom -398 449 5 0 0 0 - - -;
#X obj -395 396 / 100;
#X obj -397 421 * 4;
#X obj -447 419 -;
#X floatatom -449 446 5 0 0 0 - - -;
#X obj -447 395 swap 1;
#X floatatom -311 368 5 0 0 0 - - -;
#X obj -395 372 clip 0 25;
#X obj -394 349 - 50.8;
#X floatatom -242 457 5 0 0 0 - - -;
#X obj -239 404 / 100;
#X obj -241 429 * 4;
#X obj -291 427 -;
#X floatatom -293 454 5 0 0 0 - - -;
#X obj -291 403 swap 1;
#X floatatom -155 376 5 0 0 0 - - -;
#X obj -239 380 clip 0 25;
#X obj -238 357 - 76.2;
#X floatatom -31 459 5 0 0 0 - - -;
#X obj -28 406 / 100;
#X obj -30 431 * 4;
#X obj -117 431 -;
#X floatatom -119 458 5 0 0 0 - - -;
#X obj -117 407 swap 1;
#X obj -27 359 - 101.6;
#X obj -31 481 vsl 15 50 0 1 0 0 empty empty empty 0 -9 0 10 -262144
-1 -1 4900 1;
#X obj -581 462 vsl 15 50 0 1 0 0 empty empty empty 0 -9 0 10 -262144
-1 -1 946 1;
#X obj -292 477 vsl 15 50 0 1 0 0 empty empty empty 0 -9 0 10 -262144
-1 -1 507 1;
#X obj -119 479 vsl 15 50 0 1 0 0 empty empty empty 0 -9 0 10 -262144
-1 -1 0 1;
#X obj -449 470 vsl 15 50 0 1 0 0 empty empty empty 0 -9 0 10 -262144
-1 -1 1171 1;
#X obj -583 539 sig~;
#X obj -582 561 lop~ 80;
#X obj -598 587 *~;
#X obj -696 542 sig~;
#X obj -695 564 lop~ 80;
#X obj -711 590 *~;
#X obj -304 550 sig~;
#X obj -303 572 lop~ 80;
#X obj -319 598 *~;
#X obj -454 551 sig~;
#X obj -453 573 lop~ 80;
#X obj -469 599 *~;
#X obj -121 567 sig~;
#X obj -120 589 lop~ 80;
#X obj -136 615 *~;
#X obj -37 564 sig~;
#X obj -36 586 lop~ 80;
#X obj -52 612 *~;
#X obj -28 670 *~ 1;
#X obj -28 382 clip 0 25.4;
#X obj -712 182 * 2;
#X obj -702 285 clip 0 127;
#X floatatom -750 352 5 0 0 0 - - -;
#X obj -678 252 average;
#X obj -715 155 r xaxisr;
#X obj 23 277 gdel;
#X obj -459 257 gverb;
#X floatatom -747 259 5 0 0 0 - - -;
#X obj -328 264 gflange-r;
#X obj -183 233 mono-bitcrusher /key;
#X msg -102 28 127 \$1;
#X obj -102 49 -;
#X obj -103 73 / 127;
#X floatatom -57 117 5 0 0 0 - - -;
#X obj 519 385 tgl 15 0 empty empty empty 17 7 0 10 -262144 -1 -1 0
1;
#X obj 556 409 sel 0 1;
#X obj 514 350 change;
#X obj 515 284 r jrb2;
#X obj 515 309 spigot;
#X obj 484 583 *~;
#X obj 541 583 *~;
#X msg 595 442 0 1;
#X obj 554 469 unpack;
#X obj 548 491 sig~;
#X obj 535 511 lop~ 80;
#X obj 605 487 sig~;
#X obj 592 507 lop~ 80;
#X obj 592 234 r pgmout;
#X obj 593 324 == 4;
#X obj 541 140 r loop4;
#X obj 550 327 spigot;
#X obj 547 173 sel 0 1;
#X msg 548 199 1;
#X msg 585 201 0;
#X msg 556 441 1 0.2;
#N canvas 109 25 1208 722 mypitchshifter 0;
#X msg 266 295 pitch \$1;
#X floatatom 266 274 5 0 0 0 - - -;
#X text 309 274 Pitch Shift;
#X obj 268 148 r mynotemsg;
#X obj 269 171 unpack f f f;
#X obj 375 200 r breath;
#X obj 381 253 sig~;
#X obj 379 228 / 127;
#X obj 385 275 lop~ 80;
#X floatatom 416 228 5 0 0 0 - - -;
#X floatatom 405 310 5 0 0 0 - - -;
#X floatatom 279 193 5 0 0 0 - - -;
#X obj 272 226 mod 48;
#X floatatom 297 250 5 0 0 0 - - -;
#X obj 366 479 outlet~;
#X obj 198 295 inlet~;
#X obj 380 335 sig~;
#X obj 380 361 lop~ 80;
#X obj 365 387 *~;
#X text 192 245 was -28;
#X obj 380 309 * 1;
#X obj 265 253 - 64;
#X obj 197 318 e_pitchshift;
#X connect 0 0 22 1;
#X connect 1 0 0 0;
#X connect 3 0 4 0;
#X connect 4 0 11 0;
#X connect 4 0 21 0;
#X connect 5 0 7 0;
#X connect 6 0 8 0;
#X connect 7 0 6 0;
#X connect 7 0 9 0;
#X connect 7 0 20 0;
#X connect 12 0 13 0;
#X connect 12 0 21 0;
#X connect 15 0 22 0;
#X connect 16 0 17 0;
#X connect 17 0 18 1;
#X connect 18 0 14 0;
#X connect 20 0 10 0;
#X connect 20 0 16 0;
#X connect 21 0 1 0;
#X connect 22 0 18 0;
#X restore 542 541 pd mypitchshifter;
#X obj 481 50 inlet;
#X obj 476 83 switch~;
#X obj 449 463 resampler;
#X connect 1 0 92 0;
#X connect 1 0 112 0;
#X connect 1 0 113 0;
#X connect 1 0 115 0;
#X connect 1 0 116 0;
#X connect 2 0 25 0;
#X connect 3 0 32 0;
#X connect 3 1 30 0;
#X connect 5 0 9 0;
#X connect 5 0 13 2;
#X connect 5 0 14 2;
#X connect 5 0 15 2;
#X connect 5 0 20 2;
#X connect 6 0 7 0;
#X connect 6 0 15 1;
#X connect 6 0 13 1;
#X connect 6 0 14 1;
#X connect 6 0 19 1;
#X connect 6 0 20 1;
#X connect 8 0 11 0;
#X connect 8 0 6 0;
#X connect 13 0 17 0;
#X connect 14 0 20 0;
#X connect 14 0 126 0;
#X connect 15 0 13 0;
#X connect 15 0 17 0;
#X connect 17 0 126 0;
#X connect 18 0 5 0;
#X connect 19 0 14 0;
#X connect 20 0 17 0;
#X connect 21 0 12 0;
#X connect 21 0 18 0;
#X connect 22 0 10 0;
#X connect 22 0 8 0;
#X connect 22 0 119 0;
#X connect 23 0 4 0;
#X connect 23 0 31 0;
#X connect 24 0 29 0;
#X connect 24 0 1 0;
#X connect 24 0 145 0;
#X connect 25 0 26 0;
#X connect 26 0 1 1;
#X connect 26 0 28 0;
#X connect 26 1 27 0;
#X connect 26 1 29 1;
#X connect 29 0 15 0;
#X connect 30 0 26 0;
#X connect 31 0 3 0;
#X connect 32 0 26 0;
#X connect 33 0 55 0;
#X connect 34 0 81 0;
#X connect 35 1 36 0;
#X connect 36 0 41 0;
#X connect 36 1 37 0;
#X connect 37 0 52 0;
#X connect 37 1 38 0;
#X connect 38 0 65 0;
#X connect 38 1 39 0;
#X connect 39 0 74 0;
#X connect 39 1 34 0;
#X connect 41 0 42 0;
#X connect 42 0 40 0;
#X connect 42 0 45 0;
#X connect 42 0 49 0;
#X connect 43 0 44 0;
#X connect 43 0 50 0;
#X connect 43 0 90 0;
#X connect 44 0 56 0;
#X connect 45 0 43 0;
#X connect 45 1 43 1;
#X connect 47 0 48 0;
#X connect 48 0 46 0;
#X connect 48 0 51 0;
#X connect 48 0 60 0;
#X connect 49 0 50 0;
#X connect 49 0 61 0;
#X connect 50 0 83 0;
#X connect 50 0 87 0;
#X connect 51 0 49 0;
#X connect 51 1 49 1;
#X connect 52 0 54 0;
#X connect 54 0 47 0;
#X connect 54 0 53 0;
#X connect 58 0 59 0;
#X connect 59 0 57 0;
#X connect 59 0 62 0;
#X connect 59 0 69 0;
#X connect 60 0 61 0;
#X connect 60 0 70 0;
#X connect 61 0 86 0;
#X connect 61 0 96 0;
#X connect 62 0 60 0;
#X connect 62 1 60 1;
#X connect 64 0 58 0;
#X connect 64 0 63 0;
#X connect 65 0 64 0;
#X connect 67 0 68 0;
#X connect 68 0 66 0;
#X connect 68 0 71 0;
#X connect 68 0 78 0;
#X connect 69 0 70 0;
#X connect 69 0 79 0;
#X connect 70 0 84 0;
#X connect 70 0 93 0;
#X connect 71 0 69 0;
#X connect 71 1 69 1;
#X connect 73 0 67 0;
#X connect 73 0 72 0;
#X connect 74 0 73 0;
#X connect 75 0 82 0;
#X connect 75 0 102 0;
#X connect 76 0 77 0;
#X connect 77 0 75 0;
#X connect 77 0 80 0;
#X connect 78 0 79 0;
#X connect 79 0 85 0;
#X connect 79 0 99 0;
#X connect 80 0 78 0;
#X connect 80 1 78 1;
#X connect 81 0 106 0;
#X connect 87 0 88 0;
#X connect 88 0 89 1;
#X connect 89 0 105 0;
#X connect 90 0 91 0;
#X connect 91 0 92 1;
#X connect 92 0 105 0;
#X connect 93 0 94 0;
#X connect 94 0 95 1;
#X connect 95 0 105 0;
#X connect 96 0 97 0;
#X connect 97 0 98 1;
#X connect 98 0 105 0;
#X connect 99 0 100 0;
#X connect 100 0 101 1;
#X connect 101 0 105 0;
#X connect 102 0 103 0;
#X connect 103 0 104 1;
#X connect 104 0 105 0;
#X connect 105 0 126 0;
#X connect 106 0 76 0;
#X connect 107 0 110 0;
#X connect 108 0 35 0;
#X connect 108 0 109 0;
#X connect 110 0 33 0;
#X connect 110 0 108 0;
#X connect 111 0 107 0;
#X connect 112 0 104 0;
#X connect 113 0 98 0;
#X connect 114 0 108 0;
#X connect 115 0 95 0;
#X connect 116 0 101 0;
#X connect 116 0 89 0;
#X connect 117 0 118 0;
#X connect 118 0 119 0;
#X connect 119 0 116 1;
#X connect 119 0 116 2;
#X connect 119 0 120 0;
#X connect 122 0 141 0;
#X connect 122 1 128 0;
#X connect 123 0 121 0;
#X connect 123 0 122 0;
#X connect 123 0 145 2;
#X connect 124 0 125 0;
#X connect 125 0 137 0;
#X connect 125 0 123 0;
#X connect 126 0 0 0;
#X connect 127 0 0 0;
#X connect 128 0 129 0;
#X connect 129 0 130 0;
#X connect 129 1 132 0;
#X connect 130 0 131 0;
#X connect 131 0 126 1;
#X connect 132 0 133 0;
#X connect 133 0 127 1;
#X connect 134 0 135 0;
#X connect 135 0 125 1;
#X connect 135 0 145 1;
#X connect 136 0 138 0;
#X connect 138 0 139 0;
#X connect 138 1 140 0;
#X connect 139 0 137 1;
#X connect 140 0 137 1;
#X connect 141 0 129 0;
#X connect 142 0 127 0;
#X connect 143 0 144 0;
#X connect 145 0 142 0;
#X restore 414 114 pd pre_fx_here;
#N canvas 0 0 1366 726 pre_fx_here 0;
#X obj 534 651 outlet~;
#X obj 149 223 *~;
#X obj 254 58 loadbang;
#X obj 157 102 sel 0 1;
#X floatatom 207 103 5 0 0 0 - - -;
#X floatatom 502 251 5 0 0 0 - - -;
#X obj 435 248 mtof;
#X floatatom 464 248 5 0 0 0 - - -;
#X obj 435 203 f;
#X obj 515 283 sig~;
#X floatatom 562 182 5 0 0 0 - - -;
#X floatatom 440 222 5 0 0 0 - - -;
#X floatatom 524 158 5 0 0 0 - - -;
#X obj 380 336 bp~;
#X obj 475 460 bp~;
#X obj 384 304 bp~;
#X obj 412 313 sig~;
#X obj 283 512 *~ 3;
#X obj 502 229 / 5;
#X obj 401 408 hip~ 10000;
#X obj 478 486 bp~;
#X obj 469 158 r yaxisr;
#X obj 509 181 r xaxisr;
#X obj 161 43 r jrb1;
#X obj 99 161 inlet~;
#X msg 255 81 1 0;
#X obj 154 172 unpack f f;
#X floatatom 227 193 5 0 0 0 - - -;
#X floatatom 115 198 5 0 0 0 - - -;
#X obj 196 222 *~;
#X msg 176 149 0 1;
#X obj 161 65 change;
#X msg 157 126 1 0;
#X obj 635 387 tgl 15 0 empty empty empty 17 7 0 10 -262144 -1 -1 0
1;
#X obj 672 411 sel 0 1;
#X obj 630 352 change;
#X obj 631 286 r jrb2;
#X obj 631 311 spigot;
#X obj 600 585 *~;
#X obj 657 585 *~;
#X msg 711 444 0 1;
#X obj 670 471 unpack;
#X obj 664 493 sig~;
#X obj 651 513 lop~ 80;
#X obj 721 489 sig~;
#X obj 708 509 lop~ 80;
#X obj 708 236 r pgmout;
#X obj 666 329 spigot;
#X obj 663 175 sel 0 1;
#X msg 664 201 1;
#X msg 701 203 0;
#X msg 672 443 1 0.2;
#X obj 657 142 r loop3;
#X obj 709 326 == 3;
#N canvas 109 25 1208 722 mypitchshifter 0;
#X msg 266 295 pitch \$1;
#X floatatom 266 274 5 0 0 0 - - -;
#X text 309 274 Pitch Shift;
#X obj 268 148 r mynotemsg;
#X obj 269 171 unpack f f f;
#X obj 375 200 r breath;
#X obj 381 253 sig~;
#X obj 379 228 / 127;
#X obj 385 275 lop~ 80;
#X floatatom 416 228 5 0 0 0 - - -;
#X floatatom 405 310 5 0 0 0 - - -;
#X floatatom 279 193 5 0 0 0 - - -;
#X obj 272 226 mod 48;
#X floatatom 297 250 5 0 0 0 - - -;
#X obj 366 479 outlet~;
#X obj 198 295 inlet~;
#X obj 380 335 sig~;
#X obj 380 361 lop~ 80;
#X obj 365 387 *~;
#X text 192 245 was -28;
#X obj 380 309 * 1;
#X obj 265 253 - 64;
#X obj 197 318 e_pitchshift;
#X connect 0 0 22 1;
#X connect 1 0 0 0;
#X connect 3 0 4 0;
#X connect 4 0 11 0;
#X connect 4 0 21 0;
#X connect 5 0 7 0;
#X connect 6 0 8 0;
#X connect 7 0 6 0;
#X connect 7 0 9 0;
#X connect 7 0 20 0;
#X connect 12 0 13 0;
#X connect 12 0 21 0;
#X connect 15 0 22 0;
#X connect 16 0 17 0;
#X connect 17 0 18 1;
#X connect 18 0 14 0;
#X connect 20 0 10 0;
#X connect 20 0 16 0;
#X connect 21 0 1 0;
#X connect 22 0 18 0;
#X restore 575 540 pd mypitchshifter;
#X obj 1009 167 inlet;
#X obj 1007 196 switch~;
#X obj 565 465 resampler;
#X connect 1 0 38 0;
#X connect 2 0 25 0;
#X connect 3 0 32 0;
#X connect 3 1 30 0;
#X connect 5 0 9 0;
#X connect 5 0 13 2;
#X connect 5 0 14 2;
#X connect 5 0 15 2;
#X connect 5 0 20 2;
#X connect 6 0 7 0;
#X connect 6 0 15 1;
#X connect 6 0 13 1;
#X connect 6 0 14 1;
#X connect 6 0 19 1;
#X connect 6 0 20 1;
#X connect 8 0 11 0;
#X connect 8 0 6 0;
#X connect 13 0 17 0;
#X connect 14 0 20 0;
#X connect 14 0 38 0;
#X connect 15 0 13 0;
#X connect 15 0 17 0;
#X connect 17 0 38 0;
#X connect 18 0 5 0;
#X connect 19 0 14 0;
#X connect 20 0 17 0;
#X connect 21 0 12 0;
#X connect 21 0 18 0;
#X connect 22 0 10 0;
#X connect 22 0 8 0;
#X connect 23 0 4 0;
#X connect 23 0 31 0;
#X connect 24 0 29 0;
#X connect 24 0 1 0;
#X connect 24 0 57 0;
#X connect 25 0 26 0;
#X connect 26 0 1 1;
#X connect 26 0 28 0;
#X connect 26 1 27 0;
#X connect 26 1 29 1;
#X connect 29 0 15 0;
#X connect 30 0 26 0;
#X connect 31 0 3 0;
#X connect 32 0 26 0;
#X connect 34 0 51 0;
#X connect 34 1 40 0;
#X connect 35 0 33 0;
#X connect 35 0 34 0;
#X connect 35 0 57 2;
#X connect 36 0 37 0;
#X connect 37 0 47 0;
#X connect 37 0 35 0;
#X connect 38 0 0 0;
#X connect 39 0 0 0;
#X connect 40 0 41 0;
#X connect 41 0 42 0;
#X connect 41 1 44 0;
#X connect 42 0 43 0;
#X connect 43 0 38 1;
#X connect 44 0 45 0;
#X connect 45 0 39 1;
#X connect 46 0 53 0;
#X connect 48 0 49 0;
#X connect 48 1 50 0;
#X connect 49 0 47 1;
#X connect 50 0 47 1;
#X connect 51 0 41 0;
#X connect 52 0 48 0;
#X connect 53 0 37 1;
#X connect 53 0 57 1;
#X connect 54 0 39 0;
#X connect 55 0 56 0;
#X connect 57 0 54 0;
#X restore 521 111 pd pre_fx_here;
#N canvas 0 0 1366 726 pre_fx_here 0;
#X obj 560 647 outlet~;
#X obj 149 223 *~;
#X obj 254 58 loadbang;
#X obj 157 102 sel 0 1;
#X floatatom 207 103 5 0 0 0 - - -;
#X floatatom 502 251 5 0 0 0 - - -;
#X obj 435 248 mtof;
#X floatatom 464 248 5 0 0 0 - - -;
#X obj 435 203 f;
#X obj 515 283 sig~;
#X floatatom 562 182 5 0 0 0 - - -;
#X floatatom 440 222 5 0 0 0 - - -;
#X floatatom 524 158 5 0 0 0 - - -;
#X obj 380 336 bp~;
#X obj 475 460 bp~;
#X obj 384 304 bp~;
#X obj 412 313 sig~;
#X obj 283 512 *~ 3;
#X obj 502 229 / 5;
#X obj 401 408 hip~ 10000;
#X obj 478 486 bp~;
#X obj 469 158 r yaxisr;
#X obj 509 181 r xaxisr;
#X obj 161 43 r jrb1;
#X obj 99 161 inlet~;
#X msg 255 81 1 0;
#X obj 154 172 unpack f f;
#X floatatom 227 193 5 0 0 0 - - -;
#X floatatom 115 198 5 0 0 0 - - -;
#X obj 196 222 *~;
#X msg 176 149 0 1;
#X obj 161 65 change;
#X msg 157 126 1 0;
#X floatatom 561 222 5 0 0 0 - - -;
#X obj 662 400 tgl 15 0 empty empty empty 17 7 0 10 -262144 -1 -1 0
1;
#X obj 699 424 sel 0 1;
#X obj 657 365 change;
#X obj 658 299 r jrb2;
#X obj 658 324 spigot;
#X obj 557 597 *~;
#X obj 614 597 *~;
#X msg 738 457 0 1;
#X obj 697 484 unpack;
#X obj 691 506 sig~;
#X obj 678 526 lop~ 80;
#X obj 748 502 sig~;
#X obj 735 522 lop~ 80;
#X obj 735 249 r pgmout;
#X obj 693 342 spigot;
#X obj 690 188 sel 0 1;
#X msg 691 214 1;
#X msg 728 216 0;
#X msg 699 456 1 0.2;
#X obj 684 155 r loop2;
#X obj 736 339 == 2;
#N canvas 109 25 1208 722 mypitchshifter 0;
#X msg 266 295 pitch \$1;
#X floatatom 266 274 5 0 0 0 - - -;
#X text 309 274 Pitch Shift;
#X obj 268 148 r mynotemsg;
#X obj 269 171 unpack f f f;
#X obj 375 200 r breath;
#X obj 381 253 sig~;
#X obj 379 228 / 127;
#X obj 385 275 lop~ 80;
#X floatatom 416 228 5 0 0 0 - - -;
#X floatatom 405 310 5 0 0 0 - - -;
#X floatatom 279 193 5 0 0 0 - - -;
#X obj 272 226 mod 48;
#X floatatom 297 250 5 0 0 0 - - -;
#X obj 366 479 outlet~;
#X obj 198 295 inlet~;
#X obj 380 335 sig~;
#X obj 380 361 lop~ 80;
#X obj 365 387 *~;
#X text 192 245 was -28;
#X obj 380 309 * 1;
#X obj 265 253 - 64;
#X obj 197 318 e_pitchshift;
#X connect 0 0 22 1;
#X connect 1 0 0 0;
#X connect 3 0 4 0;
#X connect 4 0 11 0;
#X connect 4 0 21 0;
#X connect 5 0 7 0;
#X connect 6 0 8 0;
#X connect 7 0 6 0;
#X connect 7 0 9 0;
#X connect 7 0 20 0;
#X connect 12 0 13 0;
#X connect 12 0 21 0;
#X connect 15 0 22 0;
#X connect 16 0 17 0;
#X connect 17 0 18 1;
#X connect 18 0 14 0;
#X connect 20 0 10 0;
#X connect 20 0 16 0;
#X connect 21 0 1 0;
#X connect 22 0 18 0;
#X restore 612 555 pd mypitchshifter;
#X obj 999 157 inlet;
#X obj 1009 223 switch~;
#X obj 592 478 resampler;
#X connect 1 0 39 0;
#X connect 2 0 25 0;
#X connect 3 0 32 0;
#X connect 3 1 30 0;
#X connect 5 0 9 0;
#X connect 5 0 13 2;
#X connect 5 0 14 2;
#X connect 5 0 15 2;
#X connect 5 0 20 2;
#X connect 6 0 7 0;
#X connect 6 0 15 1;
#X connect 6 0 13 1;
#X connect 6 0 14 1;
#X connect 6 0 19 1;
#X connect 6 0 20 1;
#X connect 8 0 11 0;
#X connect 8 0 6 0;
#X connect 13 0 17 0;
#X connect 14 0 20 0;
#X connect 14 0 39 0;
#X connect 15 0 13 0;
#X connect 15 0 17 0;
#X connect 17 0 39 0;
#X connect 18 0 5 0;
#X connect 19 0 14 0;
#X connect 20 0 17 0;
#X connect 21 0 12 0;
#X connect 21 0 18 0;
#X connect 22 0 10 0;
#X connect 22 0 8 0;
#X connect 23 0 4 0;
#X connect 23 0 31 0;
#X connect 24 0 29 0;
#X connect 24 0 1 0;
#X connect 24 0 58 0;
#X connect 25 0 26 0;
#X connect 26 0 1 1;
#X connect 26 0 28 0;
#X connect 26 1 27 0;
#X connect 26 1 29 1;
#X connect 29 0 15 0;
#X connect 30 0 26 0;
#X connect 31 0 3 0;
#X connect 32 0 26 0;
#X connect 35 0 52 0;
#X connect 35 1 41 0;
#X connect 36 0 34 0;
#X connect 36 0 35 0;
#X connect 36 0 58 2;
#X connect 37 0 38 0;
#X connect 38 0 48 0;
#X connect 38 0 36 0;
#X connect 39 0 0 0;
#X connect 40 0 0 0;
#X connect 41 0 42 0;
#X connect 42 0 43 0;
#X connect 42 1 45 0;
#X connect 43 0 44 0;
#X connect 44 0 39 1;
#X connect 45 0 46 0;
#X connect 46 0 40 1;
#X connect 47 0 54 0;
#X connect 49 0 50 0;
#X connect 49 1 51 0;
#X connect 50 0 48 1;
#X connect 51 0 48 1;
#X connect 52 0 42 0;
#X connect 53 0 49 0;
#X connect 54 0 38 1;
#X connect 54 0 58 1;
#X connect 55 0 40 0;
#X connect 56 0 57 0;
#X connect 58 0 55 0;
#X restore 628 113 pd pre_fx_here;
#N canvas 0 0 1366 726 pre_fx_here 0;
#X obj 432 640 outlet~;
#X obj 149 223 *~;
#X obj 254 58 loadbang;
#X obj 157 102 sel 0 1;
#X floatatom 207 103 5 0 0 0 - - -;
#X floatatom 502 251 5 0 0 0 - - -;
#X obj 435 248 mtof;
#X floatatom 464 248 5 0 0 0 - - -;
#X obj 435 203 f;
#X obj 515 283 sig~;
#X floatatom 562 182 5 0 0 0 - - -;
#X floatatom 440 222 5 0 0 0 - - -;
#X floatatom 524 158 5 0 0 0 - - -;
#X obj 380 336 bp~;
#X obj 475 460 bp~;
#X obj 384 304 bp~;
#X obj 412 313 sig~;
#X obj 283 512 *~ 3;
#X obj 502 229 / 5;
#X obj 401 408 hip~ 10000;
#X obj 478 486 bp~;
#X obj 469 158 r yaxisr;
#X obj 509 181 r xaxisr;
#X obj 161 43 r jrb1;
#X obj 99 161 inlet~;
#X msg 255 81 1 0;
#X obj 154 172 unpack f f;
#X floatatom 227 193 5 0 0 0 - - -;
#X floatatom 115 198 5 0 0 0 - - -;
#X obj 196 222 *~;
#X msg 176 149 0 1;
#X obj 161 65 change;
#X msg 157 126 1 0;
#X obj 645 397 tgl 15 0 empty empty empty 17 7 0 10 -262144 -1 -1 0
1;
#X obj 682 421 sel 0 1;
#X obj 640 362 change;
#X obj 641 296 r jrb2;
#X obj 641 321 spigot;
#X obj 610 595 *~;
#X obj 667 595 *~;
#X msg 721 454 0 1;
#X obj 680 481 unpack;
#X obj 674 503 sig~;
#X obj 661 523 lop~ 80;
#X obj 731 499 sig~;
#X obj 718 519 lop~ 80;
#X obj 718 246 r pgmout;
#X obj 676 339 spigot;
#X obj 673 185 sel 0 1;
#X msg 674 211 1;
#X msg 711 213 0;
#X msg 682 453 1 0.2;
#X obj 719 336 == 5;
#X obj 667 152 r loop5;
#N canvas 109 25 1208 722 mypitchshifter 0;
#X msg 266 295 pitch \$1;
#X floatatom 266 274 5 0 0 0 - - -;
#X text 309 274 Pitch Shift;
#X obj 268 148 r mynotemsg;
#X obj 269 171 unpack f f f;
#X obj 375 200 r breath;
#X obj 381 253 sig~;
#X obj 379 228 / 127;
#X obj 385 275 lop~ 80;
#X floatatom 416 228 5 0 0 0 - - -;
#X floatatom 405 310 5 0 0 0 - - -;
#X floatatom 279 193 5 0 0 0 - - -;
#X obj 272 226 mod 48;
#X floatatom 297 250 5 0 0 0 - - -;
#X obj 366 479 outlet~;
#X obj 198 295 inlet~;
#X obj 380 335 sig~;
#X obj 380 361 lop~ 80;
#X obj 365 387 *~;
#X text 192 245 was -28;
#X obj 380 309 * 1;
#X obj 265 253 - 64;
#X obj 197 318 e_pitchshift;
#X connect 0 0 22 1;
#X connect 1 0 0 0;
#X connect 3 0 4 0;
#X connect 4 0 11 0;
#X connect 4 0 21 0;
#X connect 5 0 7 0;
#X connect 6 0 8 0;
#X connect 7 0 6 0;
#X connect 7 0 9 0;
#X connect 7 0 20 0;
#X connect 12 0 13 0;
#X connect 12 0 21 0;
#X connect 15 0 22 0;
#X connect 16 0 17 0;
#X connect 17 0 18 1;
#X connect 18 0 14 0;
#X connect 20 0 10 0;
#X connect 20 0 16 0;
#X connect 21 0 1 0;
#X connect 22 0 18 0;
#X restore 668 553 pd mypitchshifter;
#X obj 979 137 inlet;
#X obj 977 166 switch~;
#X obj 575 475 resampler;
#X connect 1 0 38 0;
#X connect 2 0 25 0;
#X connect 3 0 32 0;
#X connect 3 1 30 0;
#X connect 5 0 9 0;
#X connect 5 0 13 2;
#X connect 5 0 14 2;
#X connect 5 0 15 2;
#X connect 5 0 20 2;
#X connect 6 0 7 0;
#X connect 6 0 15 1;
#X connect 6 0 13 1;
#X connect 6 0 14 1;
#X connect 6 0 19 1;
#X connect 6 0 20 1;
#X connect 8 0 11 0;
#X connect 8 0 6 0;
#X connect 13 0 17 0;
#X connect 14 0 20 0;
#X connect 14 0 38 0;
#X connect 15 0 13 0;
#X connect 15 0 17 0;
#X connect 17 0 38 0;
#X connect 18 0 5 0;
#X connect 19 0 14 0;
#X connect 20 0 17 0;
#X connect 21 0 12 0;
#X connect 21 0 18 0;
#X connect 22 0 10 0;
#X connect 22 0 8 0;
#X connect 23 0 4 0;
#X connect 23 0 31 0;
#X connect 24 0 29 0;
#X connect 24 0 1 0;
#X connect 24 0 57 0;
#X connect 25 0 26 0;
#X connect 26 0 1 1;
#X connect 26 0 28 0;
#X connect 26 1 27 0;
#X connect 26 1 29 1;
#X connect 29 0 15 0;
#X connect 30 0 26 0;
#X connect 31 0 3 0;
#X connect 32 0 26 0;
#X connect 34 0 51 0;
#X connect 34 1 40 0;
#X connect 35 0 33 0;
#X connect 35 0 34 0;
#X connect 35 0 57 2;
#X connect 36 0 37 0;
#X connect 37 0 47 0;
#X connect 37 0 35 0;
#X connect 38 0 0 0;
#X connect 39 0 0 0;
#X connect 40 0 41 0;
#X connect 41 0 42 0;
#X connect 41 1 44 0;
#X connect 42 0 43 0;
#X connect 43 0 38 1;
#X connect 44 0 45 0;
#X connect 45 0 39 1;
#X connect 46 0 52 0;
#X connect 48 0 49 0;
#X connect 48 1 50 0;
#X connect 49 0 47 1;
#X connect 50 0 47 1;
#X connect 51 0 41 0;
#X connect 52 0 37 1;
#X connect 52 0 57 1;
#X connect 53 0 48 0;
#X connect 54 0 39 0;
#X connect 55 0 56 0;
#X connect 57 0 54 0;
#X restore 845 114 pd pre_fx_here;
#N canvas 0 0 1366 726 pre_fx_here 0;
#X obj 620 638 outlet~;
#X obj 149 223 *~;
#X obj 254 58 loadbang;
#X obj 157 102 sel 0 1;
#X floatatom 207 103 5 0 0 0 - - -;
#X floatatom 502 251 5 0 0 0 - - -;
#X obj 435 248 mtof;
#X floatatom 464 248 5 0 0 0 - - -;
#X obj 435 203 f;
#X obj 515 283 sig~;
#X floatatom 562 182 5 0 0 0 - - -;
#X floatatom 440 222 5 0 0 0 - - -;
#X floatatom 524 158 5 0 0 0 - - -;
#X obj 380 336 bp~;
#X obj 475 460 bp~;
#X obj 384 304 bp~;
#X obj 412 313 sig~;
#X obj 349 500 *~ 3;
#X obj 502 229 / 5;
#X obj 401 408 hip~ 10000;
#X obj 478 486 bp~;
#X obj 469 158 r yaxisr;
#X obj 509 181 r xaxisr;
#X obj 161 43 r jrb1;
#X obj 99 161 inlet~;
#X msg 255 81 1 0;
#X obj 154 172 unpack f f;
#X floatatom 227 193 5 0 0 0 - - -;
#X floatatom 115 198 5 0 0 0 - - -;
#X obj 196 222 *~;
#X msg 176 149 0 1;
#X obj 161 65 change;
#X msg 157 126 1 0;
#X obj 655 407 tgl 15 0 empty empty empty 17 7 0 10 -262144 -1 -1 0
1;
#X obj 692 431 sel 0 1;
#X obj 650 372 change;
#X obj 651 306 r jrb2;
#X obj 651 331 spigot;
#X obj 620 605 *~;
#X obj 677 605 *~;
#X msg 731 464 0 1;
#X obj 690 491 unpack;
#X obj 684 513 sig~;
#X obj 671 533 lop~ 80;
#X obj 741 509 sig~;
#X obj 728 529 lop~ 80;
#X obj 728 256 r pgmout;
#X obj 686 349 spigot;
#X obj 683 195 sel 0 1;
#X msg 684 221 1;
#X msg 721 223 0;
#X msg 692 463 1 0.2;
#X obj 677 162 r loop6;
#X obj 729 346 == 6;
#N canvas 109 25 1208 722 mypitchshifter 0;
#X msg 266 295 pitch \$1;
#X floatatom 266 274 5 0 0 0 - - -;
#X text 309 274 Pitch Shift;
#X obj 268 148 r mynotemsg;
#X obj 269 171 unpack f f f;
#X obj 375 200 r breath;
#X obj 381 253 sig~;
#X obj 379 228 / 127;
#X obj 385 275 lop~ 80;
#X floatatom 416 228 5 0 0 0 - - -;
#X floatatom 405 310 5 0 0 0 - - -;
#X floatatom 279 193 5 0 0 0 - - -;
#X obj 272 226 mod 48;
#X floatatom 297 250 5 0 0 0 - - -;
#X obj 366 479 outlet~;
#X obj 198 295 inlet~;
#X obj 380 335 sig~;
#X obj 380 361 lop~ 80;
#X obj 365 387 *~;
#X text 192 245 was -28;
#X obj 380 309 * 1;
#X obj 265 253 - 64;
#X obj 197 318 e_pitchshift;
#X connect 0 0 22 1;
#X connect 1 0 0 0;
#X connect 3 0 4 0;
#X connect 4 0 11 0;
#X connect 4 0 21 0;
#X connect 5 0 7 0;
#X connect 6 0 8 0;
#X connect 7 0 6 0;
#X connect 7 0 9 0;
#X connect 7 0 20 0;
#X connect 12 0 13 0;
#X connect 12 0 21 0;
#X connect 15 0 22 0;
#X connect 16 0 17 0;
#X connect 17 0 18 1;
#X connect 18 0 14 0;
#X connect 20 0 10 0;
#X connect 20 0 16 0;
#X connect 21 0 1 0;
#X connect 22 0 18 0;
#X restore 677 575 pd mypitchshifter;
#X obj 969 127 inlet;
#X obj 967 156 switch~;
#X obj 680 403 resampler;
#X connect 1 0 38 0;
#X connect 1 0 57 0;
#X connect 2 0 25 0;
#X connect 3 0 32 0;
#X connect 3 1 30 0;
#X connect 5 0 9 0;
#X connect 5 0 13 2;
#X connect 5 0 14 2;
#X connect 5 0 15 2;
#X connect 5 0 20 2;
#X connect 6 0 7 0;
#X connect 6 0 15 1;
#X connect 6 0 13 1;
#X connect 6 0 14 1;
#X connect 6 0 19 1;
#X connect 6 0 20 1;
#X connect 8 0 11 0;
#X connect 8 0 6 0;
#X connect 13 0 17 0;
#X connect 14 0 20 0;
#X connect 14 0 38 0;
#X connect 15 0 13 0;
#X connect 15 0 17 0;
#X connect 17 0 38 0;
#X connect 18 0 5 0;
#X connect 19 0 14 0;
#X connect 20 0 17 0;
#X connect 21 0 12 0;
#X connect 21 0 18 0;
#X connect 22 0 10 0;
#X connect 22 0 8 0;
#X connect 23 0 4 0;
#X connect 23 0 31 0;
#X connect 24 0 29 0;
#X connect 24 0 1 0;
#X connect 25 0 26 0;
#X connect 26 0 1 1;
#X connect 26 0 28 0;
#X connect 26 1 27 0;
#X connect 26 1 29 1;
#X connect 29 0 15 0;
#X connect 30 0 26 0;
#X connect 31 0 3 0;
#X connect 32 0 26 0;
#X connect 34 0 51 0;
#X connect 34 1 40 0;
#X connect 35 0 33 0;
#X connect 35 0 34 0;
#X connect 35 0 57 2;
#X connect 36 0 37 0;
#X connect 37 0 47 0;
#X connect 37 0 35 0;
#X connect 38 0 0 0;
#X connect 39 0 0 0;
#X connect 40 0 41 0;
#X connect 41 0 42 0;
#X connect 41 1 44 0;
#X connect 42 0 43 0;
#X connect 43 0 38 1;
#X connect 44 0 45 0;
#X connect 45 0 39 1;
#X connect 46 0 53 0;
#X connect 48 0 49 0;
#X connect 48 1 50 0;
#X connect 49 0 47 1;
#X connect 50 0 47 1;
#X connect 51 0 41 0;
#X connect 52 0 48 0;
#X connect 53 0 37 1;
#X connect 53 0 57 1;
#X connect 54 0 39 0;
#X connect 55 0 56 0;
#X connect 57 0 54 0;
#X restore 973 110 pd pre_fx_here;
#N canvas 0 0 1366 726 pre_fx_here 0;
#X obj 624 670 outlet~;
#X obj 149 223 *~;
#X obj 254 58 loadbang;
#X obj 157 102 sel 0 1;
#X floatatom 207 103 5 0 0 0 - - -;
#X floatatom 502 251 5 0 0 0 - - -;
#X obj 435 248 mtof;
#X floatatom 464 248 5 0 0 0 - - -;
#X obj 435 203 f;
#X obj 515 283 sig~;
#X floatatom 562 182 5 0 0 0 - - -;
#X floatatom 440 222 5 0 0 0 - - -;
#X floatatom 524 158 5 0 0 0 - - -;
#X obj 380 336 bp~;
#X obj 475 460 bp~;
#X obj 384 304 bp~;
#X obj 412 313 sig~;
#X obj 283 512 *~ 3;
#X obj 502 229 / 5;
#X obj 401 408 hip~ 10000;
#X obj 478 486 bp~;
#X obj 469 158 r yaxisr;
#X obj 509 181 r xaxisr;
#X obj 161 43 r jrb1;
#X obj 56 140 inlet~;
#X msg 255 81 1 0;
#X obj 154 172 unpack f f;
#X floatatom 227 193 5 0 0 0 - - -;
#X floatatom 115 198 5 0 0 0 - - -;
#X obj 196 222 *~;
#X msg 176 149 0 1;
#X obj 161 65 change;
#X msg 157 126 1 0;
#X obj 665 417 tgl 15 0 empty empty empty 17 7 0 10 -262144 -1 -1 0
1;
#X obj 702 441 sel 0 1;
#X obj 660 382 change;
#X obj 661 316 r jrb2;
#X obj 661 341 spigot;
#X obj 630 615 *~;
#X obj 687 615 *~;
#X msg 741 474 0 1;
#X obj 700 501 unpack;
#X obj 694 523 sig~;
#X obj 681 543 lop~ 80;
#X obj 751 519 sig~;
#X obj 738 539 lop~ 80;
#X obj 738 266 r pgmout;
#X obj 696 359 spigot;
#X obj 693 205 sel 0 1;
#X msg 694 231 1;
#X msg 731 233 0;
#X msg 702 473 1 0.2;
#X obj 687 172 r loop7;
#X obj 739 356 == 7;
#X obj 959 117 inlet;
#X obj 957 146 switch~;
#X obj 595 495 resampler;
#X connect 1 0 38 0;
#X connect 2 0 25 0;
#X connect 3 0 32 0;
#X connect 3 1 30 0;
#X connect 5 0 9 0;
#X connect 5 0 13 2;
#X connect 5 0 14 2;
#X connect 5 0 15 2;
#X connect 5 0 20 2;
#X connect 6 0 7 0;
#X connect 6 0 15 1;
#X connect 6 0 13 1;
#X connect 6 0 14 1;
#X connect 6 0 19 1;
#X connect 6 0 20 1;
#X connect 8 0 11 0;
#X connect 8 0 6 0;
#X connect 13 0 17 0;
#X connect 14 0 20 0;
#X connect 14 0 38 0;
#X connect 15 0 13 0;
#X connect 15 0 17 0;
#X connect 17 0 38 0;
#X connect 18 0 5 0;
#X connect 19 0 14 0;
#X connect 20 0 17 0;
#X connect 21 0 12 0;
#X connect 21 0 18 0;
#X connect 22 0 10 0;
#X connect 22 0 8 0;
#X connect 23 0 4 0;
#X connect 23 0 31 0;
#X connect 24 0 29 0;
#X connect 24 0 1 0;
#X connect 25 0 26 0;
#X connect 26 0 1 1;
#X connect 26 0 28 0;
#X connect 26 1 27 0;
#X connect 26 1 29 1;
#X connect 29 0 15 0;
#X connect 29 0 19 0;
#X connect 30 0 26 0;
#X connect 31 0 3 0;
#X connect 32 0 26 0;
#X connect 34 0 51 0;
#X connect 34 1 40 0;
#X connect 35 0 33 0;
#X connect 35 0 34 0;
#X connect 35 0 56 2;
#X connect 36 0 37 0;
#X connect 37 0 47 0;
#X connect 37 0 35 0;
#X connect 38 0 0 0;
#X connect 39 0 0 0;
#X connect 40 0 41 0;
#X connect 41 0 42 0;
#X connect 41 1 44 0;
#X connect 42 0 43 0;
#X connect 43 0 38 1;
#X connect 44 0 45 0;
#X connect 45 0 39 1;
#X connect 46 0 53 0;
#X connect 48 0 49 0;
#X connect 48 1 50 0;
#X connect 49 0 47 1;
#X connect 50 0 47 1;
#X connect 51 0 41 0;
#X connect 52 0 48 0;
#X connect 53 0 37 1;
#X connect 53 0 56 1;
#X connect 54 0 55 0;
#X restore 1084 106 pd pre_fx_here;
#N canvas 0 0 1366 726 pre_fx_here 0;
#X obj 243 554 outlet~;
#X obj 149 223 *~;
#X obj 254 58 loadbang;
#X obj 157 102 sel 0 1;
#X floatatom 207 103 5 0 0 0 - - -;
#X floatatom 502 251 5 0 0 0 - - -;
#X obj 435 248 mtof;
#X floatatom 464 248 5 0 0 0 - - -;
#X obj 435 203 f;
#X obj 515 283 sig~;
#X floatatom 562 182 5 0 0 0 - - -;
#X floatatom 440 222 5 0 0 0 - - -;
#X floatatom 524 158 5 0 0 0 - - -;
#X obj 380 336 bp~;
#X obj 475 460 bp~;
#X obj 384 304 bp~;
#X obj 412 313 sig~;
#X obj 502 229 / 5;
#X obj 401 408 hip~ 10000;
#X obj 478 486 bp~;
#X obj 161 43 r jrb1;
#X obj 99 161 inlet~;
#X msg 255 81 1 0;
#X obj 154 172 unpack f f;
#X floatatom 227 193 5 0 0 0 - - -;
#X floatatom 115 198 5 0 0 0 - - -;
#X obj 196 222 *~;
#X msg 176 149 0 1;
#X obj 161 65 change;
#X msg 157 126 1 0;
#X obj 359 562 outlet~;
#X obj 253 153 inlet~;
#X obj 259 225 *~;
#X obj 306 224 *~;
#X floatatom 820 255 5 0 0 0 - - -;
#X obj 753 252 mtof;
#X floatatom 782 252 5 0 0 0 - - -;
#X obj 753 207 f;
#X obj 833 287 sig~;
#X floatatom 880 186 5 0 0 0 - - -;
#X floatatom 758 226 5 0 0 0 - - -;
#X floatatom 842 162 5 0 0 0 - - -;
#X obj 698 340 bp~;
#X obj 793 464 bp~;
#X obj 702 308 bp~;
#X obj 730 317 sig~;
#X obj 820 233 / 5;
#X obj 719 412 hip~ 10000;
#X obj 796 490 bp~;
#X obj 469 158 r yaxis;
#X obj 509 181 r xaxis;
#X obj 601 515 *~ 1;
#X obj 283 512 *~ 1;
#X obj 949 107 inlet;
#X obj 947 136 switch~;
#X obj 787 162 r yaxisr;
#X obj 827 185 r xaxisr;
#X msg 416 114 127 \$1;
#X obj 417 143 -;
#X obj 962 343 *~ 2;
#X obj 1050 383 mono-peakfilter /key;
#X obj 1053 323 r breath;
#X obj 1175 308 loadbang;
#X msg 1179 331 1;
#X obj 1058 350 / 80;
#X obj 1049 455 mono-bitcrusher /key;
#X obj 866 382 mono-peakfilter /key;
#X obj 974 321 / 80;
#X obj 865 456 mono-bitcrusher /key;
#X connect 1 0 0 0;
#X connect 2 0 22 0;
#X connect 3 0 29 0;
#X connect 3 1 27 0;
#X connect 5 0 9 0;
#X connect 5 0 13 2;
#X connect 5 0 14 2;
#X connect 5 0 15 2;
#X connect 5 0 19 2;
#X connect 6 0 7 0;
#X connect 6 0 15 1;
#X connect 6 0 13 1;
#X connect 6 0 14 1;
#X connect 6 0 18 1;
#X connect 6 0 19 1;
#X connect 8 0 11 0;
#X connect 8 0 6 0;
#X connect 13 0 52 0;
#X connect 14 0 19 0;
#X connect 14 0 0 0;
#X connect 15 0 13 0;
#X connect 15 0 52 0;
#X connect 17 0 5 0;
#X connect 18 0 14 0;
#X connect 19 0 52 0;
#X connect 20 0 4 0;
#X connect 20 0 28 0;
#X connect 21 0 26 0;
#X connect 21 0 1 0;
#X connect 22 0 23 0;
#X connect 23 0 1 1;
#X connect 23 0 25 0;
#X connect 23 0 32 1;
#X connect 23 1 24 0;
#X connect 23 1 26 1;
#X connect 23 1 33 1;
#X connect 26 0 15 0;
#X connect 26 0 18 0;
#X connect 27 0 23 0;
#X connect 28 0 3 0;
#X connect 29 0 23 0;
#X connect 31 0 32 0;
#X connect 31 0 33 0;
#X connect 32 0 30 0;
#X connect 33 0 44 0;
#X connect 33 0 47 0;
#X connect 34 0 38 0;
#X connect 34 0 42 2;
#X connect 34 0 43 2;
#X connect 34 0 44 2;
#X connect 34 0 48 2;
#X connect 35 0 36 0;
#X connect 35 0 44 1;
#X connect 35 0 42 1;
#X connect 35 0 43 1;
#X connect 35 0 47 1;
#X connect 35 0 48 1;
#X connect 37 0 40 0;
#X connect 37 0 35 0;
#X connect 42 0 51 0;
#X connect 43 0 48 0;
#X connect 43 0 30 0;
#X connect 44 0 42 0;
#X connect 44 0 51 0;
#X connect 46 0 34 0;
#X connect 47 0 43 0;
#X connect 48 0 51 0;
#X connect 49 0 12 0;
#X connect 49 0 17 0;
#X connect 50 0 10 0;
#X connect 50 0 57 0;
#X connect 51 0 30 0;
#X connect 52 0 0 0;
#X connect 53 0 54 0;
#X connect 55 0 41 0;
#X connect 55 0 46 0;
#X connect 56 0 39 0;
#X connect 56 0 37 0;
#X connect 57 0 58 0;
#X connect 58 0 8 0;
#X connect 60 0 65 0;
#X connect 61 0 64 0;
#X connect 62 0 63 0;
#X connect 63 0 60 2;
#X connect 63 0 66 2;
#X connect 64 0 60 1;
#X connect 64 0 66 1;
#X connect 66 0 68 0;
#X connect 67 0 66 1;
#X restore 1190 111 pd pre_fx_here;
#X obj 1288 539 sig~;
#X obj 1286 561 lop~ 80;
#X floatatom 407 605 5 0 0 0 - - -;
#X obj 423 584 env~;
#X msg 283 540 330.709 6 755.906 377.953 472.441 543.307 0.362205;
#X floatatom 1334 354 5 0 0 0 - - -;
#X floatatom 310 316 5 0 0 0 - - -;
#X msg 171 304 60000 \$1;
#X obj 170 330 /;
#X obj 175 372 s bpm;
#X obj 219 338 * 4;
#X obj 782 58 loadbang;
#X msg 783 77 1;
#X obj 924 591 s~ looperfeed-r;
#X obj 1025 556 *~ 1;
#X obj 562 566 s~ respchnl-l;
#X obj 1024 576 s~ respchnl-r;
#X obj 1192 16 r~ resampler-l;
#X obj 1202 37 r~ resampler-r;
#X obj 693 587 s~ looperfeed-l;
#X obj 629 297 knob 32 32 0 1 0 0 empty empty empty 0 -8 0 8 -262144
-1 -1 1680 1;
#X obj 757 294 knob 32 32 0 1 0 0 empty empty empty 0 -8 0 8 -262144
-1 -1 2568 1;
#X obj 518 297 knob 32 32 0 1 0 0 empty empty empty 0 -8 0 8 -262144
-1 -1 1562 1;
#X obj 414 299 knob 32 32 0 1 0 0 empty empty empty 0 -8 0 8 -262144
-1 -1 2008 1;
#X obj 888 292 knob 32 32 0 1 0 0 empty empty empty 0 -8 0 8 -262144
-1 -1 2048 1;
#X obj 974 294 knob 32 32 0 1 0 0 empty empty empty 0 -8 0 8 -262144
-1 -1 2240 1;
#X obj 1074 295 knob 32 32 0 1 0 0 empty empty empty 0 -8 0 8 -262144
-1 -1 1562 1;
#X obj 1183 288 knob 32 32 0 1 0 0 empty empty empty 0 -8 0 8 -262144
-1 -1 1568 1;
#X msg 1285 496 1;
#X msg 1319 493 0;
#X msg 12 81 30000;
#X obj 469 463 catch~ synthfeed1;
#N canvas 0 0 450 372 voc 0;
#X obj 170 76 inlet~;
#X obj 164 328 outlet~;
#X obj 222 115 r lipswitch;
#X obj 224 137 sel 0 1;
#X msg 224 163 1 0;
#X msg 260 164 0 1;
#X obj 181 199 unpack f f;
#X obj 188 224 sig~;
#X obj 188 250 lop~ 80;
#X obj 250 224 sig~;
#X obj 250 250 lop~ 80;
#X obj 171 271 *~;
#X obj 207 274 *~;
#X obj 304 76 inlet~;
#X obj 298 328 outlet~;
#X obj 315 199 unpack f f;
#X obj 322 224 sig~;
#X obj 322 250 lop~ 80;
#X obj 384 224 sig~;
#X obj 384 250 lop~ 80;
#X obj 305 271 *~;
#X obj 341 274 *~;
#X obj 221 332 s~ voc;
#X connect 0 0 12 0;
#X connect 0 0 1 0;
#X connect 2 0 3 0;
#X connect 3 0 4 0;
#X connect 3 1 5 0;
#X connect 4 0 6 0;
#X connect 4 0 15 0;
#X connect 5 0 6 0;
#X connect 5 0 15 0;
#X connect 6 0 7 0;
#X connect 6 1 9 0;
#X connect 7 0 8 0;
#X connect 8 0 11 1;
#X connect 9 0 10 0;
#X connect 10 0 12 1;
#X connect 11 0 1 0;
#X connect 12 0 22 0;
#X connect 13 0 21 0;
#X connect 13 0 14 0;
#X connect 15 0 16 0;
#X connect 15 1 18 0;
#X connect 16 0 17 0;
#X connect 17 0 20 1;
#X connect 18 0 19 0;
#X connect 19 0 21 1;
#X connect 20 0 14 0;
#X connect 21 0 22 0;
#X restore 317 417 pd voc;
#N canvas 0 0 797 489 resamp_panner 0;
#N canvas 485 183 450 540 panner 0;
#X obj 96 135 inlet~ signal;
#X obj 213 132 inlet control;
#X obj 215 164 sig~;
#X obj 187 310 *~;
#X obj 100 307 *~;
#X obj 115 261 -~ 0.25;
#X obj 116 283 cos~;
#X obj 210 259 cos~;
#X obj 211 233 -~ 0.25;
#X obj 213 209 *~ 0.25;
#X obj 216 186 lop~ 1;
#X obj 99 334 outlet~;
#X obj 189 337 outlet~;
#X connect 0 0 3 0;
#X connect 0 0 4 0;
#X connect 1 0 2 0;
#X connect 2 0 10 0;
#X connect 3 0 12 0;
#X connect 4 0 11 0;
#X connect 5 0 6 0;
#X connect 6 0 4 1;
#X connect 7 0 3 1;
#X connect 8 0 7 0;
#X connect 8 0 5 0;
#X connect 9 0 8 0;
#X connect 10 0 9 0;
#X restore 539 566 pd panner;
#N canvas 532 91 450 540 panner 0;
#X obj 96 135 inlet~ signal;
#X obj 213 132 inlet control;
#X obj 215 164 sig~;
#X obj 187 310 *~;
#X obj 100 307 *~;
#X obj 115 261 -~ 0.25;
#X obj 116 283 cos~;
#X obj 210 259 cos~;
#X obj 211 233 -~ 0.25;
#X obj 213 209 *~ 0.25;
#X obj 216 186 lop~ 1;
#X obj 99 334 outlet~;
#X obj 189 337 outlet~;
#X connect 0 0 3 0;
#X connect 0 0 4 0;
#X connect 1 0 2 0;
#X connect 2 0 10 0;
#X connect 3 0 12 0;
#X connect 4 0 11 0;
#X connect 5 0 6 0;
#X connect 6 0 4 1;
#X connect 7 0 3 1;
#X connect 8 0 7 0;
#X connect 8 0 5 0;
#X connect 9 0 8 0;
#X connect 10 0 9 0;
#X restore 549 576 pd panner;
#N canvas 0 0 450 540 panner 0;
#X obj 96 135 inlet~ signal;
#X obj 213 132 inlet control;
#X obj 215 164 sig~;
#X obj 187 310 *~;
#X obj 100 307 *~;
#X obj 115 261 -~ 0.25;
#X obj 116 283 cos~;
#X obj 210 259 cos~;
#X obj 211 233 -~ 0.25;
#X obj 213 209 *~ 0.25;
#X obj 216 186 lop~ 1;
#X obj 99 334 outlet~;
#X obj 189 337 outlet~;
#X connect 0 0 3 0;
#X connect 0 0 4 0;
#X connect 1 0 2 0;
#X connect 2 0 10 0;
#X connect 3 0 12 0;
#X connect 4 0 11 0;
#X connect 5 0 6 0;
#X connect 6 0 4 1;
#X connect 7 0 3 1;
#X connect 8 0 7 0;
#X connect 8 0 5 0;
#X connect 9 0 8 0;
#X connect 10 0 9 0;
#X restore 559 586 pd panner;
#X obj 306 31 inlet control;
#X obj 235 184 sig~;
#X obj 135 281 -~ 0.25;
#X obj 136 303 cos~;
#X obj 230 279 cos~;
#X obj 231 253 -~ 0.25;
#X obj 233 229 *~ 0.25;
#X obj 236 206 lop~ 1;
#X obj 111 437 outlet~;
#X obj 201 440 outlet~;
#X obj 267 19 r xaxis;
#X floatatom 273 180 5 0 0 0 - - -;
#X obj 316 78 r jlu2;
#X obj 270 65 spigot;
#X obj 276 102 spigot;
#X obj 316 150 loadbang;
#X obj 307 259 outlet;
#X floatatom 272 135 5 0 0 0 - - -;
#X msg 328 185 64;
#X floatatom 222 88 5 0 0 0 - - -;
#X obj 212 122 average 10;
#X obj 120 327 *~;
#X obj 207 330 *~;
#X obj 12 172 inlet~ signal-l;
#X obj 108 173 inlet~ signal-r;
#X obj 370 261 outlet;
#X obj 204 363 *~;
#X obj 119 356 *~;
#X obj 440 24 inlet mutectrl;
#X obj 574 39 inlet vol;
#X obj 570 192 /;
#X obj 603 162 t b f;
#X obj 663 50 inlet drumvolctrl;
#X obj 646 127 /;
#X obj 685 92 t b f;
#X floatatom 577 235 5 0 0 0 - - -;
#X obj 610 87 * 2;
#X floatatom 446 78 5 0 0 0 - - -;
#X obj 231 153 / 127;
#X obj 128 394 *~ 2;
#X obj 227 398 *~ 2;
#X connect 3 0 16 1;
#X connect 4 0 10 0;
#X connect 5 0 6 0;
#X connect 6 0 24 1;
#X connect 7 0 25 1;
#X connect 8 0 7 0;
#X connect 8 0 5 0;
#X connect 9 0 8 0;
#X connect 10 0 9 0;
#X connect 13 0 16 0;
#X connect 13 0 22 0;
#X connect 15 0 17 1;
#X connect 16 0 17 0;
#X connect 17 0 23 0;
#X connect 18 0 21 0;
#X connect 20 0 41 0;
#X connect 21 0 41 0;
#X connect 23 0 28 0;
#X connect 23 0 41 0;
#X connect 24 0 30 0;
#X connect 25 0 29 0;
#X connect 26 0 24 0;
#X connect 26 0 30 0;
#X connect 27 0 25 0;
#X connect 27 0 29 0;
#X connect 29 0 43 0;
#X connect 30 0 42 0;
#X connect 31 0 33 0;
#X connect 31 0 40 0;
#X connect 32 0 39 0;
#X connect 33 0 29 1;
#X connect 33 0 30 1;
#X connect 33 0 38 0;
#X connect 34 0 33 0;
#X connect 34 1 33 1;
#X connect 35 0 37 0;
#X connect 36 0 34 0;
#X connect 37 0 36 0;
#X connect 37 1 36 1;
#X connect 39 0 36 0;
#X connect 41 0 4 0;
#X connect 41 0 14 0;
#X connect 41 0 19 0;
#X connect 42 0 11 0;
#X connect 43 0 12 0;
#X restore 1170 431 pd resamp_panner;
#N canvas 0 0 450 300 vocode 0;
#X obj 386 126 inlet~;
#X obj 326 186 outlet~;
#X connect 0 0 1 0;
#X restore 845 67 pd vocode;
#X obj 709 615 s panlite1;
#X obj 642 616 s panlite2;
#X obj 572 618 s panlite3;
#X obj 505 619 s panlite4;
#X obj 932 621 s panlite5;
#X obj 999 620 s panlite6;
#X obj 1069 618 s panlite7;
#X obj 317 436 panner;
#X obj 1160 632 s panlite8;
#X obj 462 432 pre-pan;
#N canvas 98 161 450 300 volctrl 0;
#X obj 248 233 outlet;
#X obj 209 22 r drumvolctrl;
#X floatatom 218 103 5 0 0 0 - - -;
#X floatatom 287 179 5 0 0 0 - - -;
#X obj 267 63 unpack 0.1 0.1;
#X obj 257 155 -;
#X obj 260 98 * 100;
#X msg 258 126 100 \$1;
#X floatatom 217 74 5 0 0 0 - - -;
#X obj 257 201 / 100;
#X obj 131 50 vsl 15 128 0 1 0 0 empty empty empty 0 -9 0 10 -262144
-1 -1 0 1;
#X floatatom 202 200 5 0 0 0 - - -;
#X obj 327 19 loadbang;
#X msg 313 46 1;
#X obj 293 234 s drmvolctrl;
#X obj 389 3 r pgmout;
#X obj 388 24 == 8;
#X msg 382 46 0.5;
#X obj 25 24 inlet~ duck;
#X obj 48 70 env~;
#X floatatom 55 140 5 0 0 0 - - -;
#X obj 23 269 s drumduck;
#X obj 60 221 -;
#X msg 61 192 100 \$1;
#X obj 60 249 / 100;
#X connect 1 0 4 0;
#X connect 4 0 6 0;
#X connect 4 0 2 0;
#X connect 5 0 3 0;
#X connect 5 0 9 0;
#X connect 6 0 7 0;
#X connect 7 0 5 0;
#X connect 8 0 6 0;
#X connect 9 0 0 0;
#X connect 9 0 11 0;
#X connect 9 0 14 0;
#X connect 10 0 8 0;
#X connect 12 0 13 0;
#X connect 13 0 4 0;
#X connect 15 0 16 0;
#X connect 16 0 17 0;
#X connect 17 0 4 0;
#X connect 18 0 19 0;
#X connect 19 0 20 0;
#X connect 22 0 24 0;
#X connect 23 0 22 0;
#X connect 24 0 21 0;
#X restore 824 370 pd volctrl;
#X obj 897 427 pre-pan;
#X obj 536 430 pre-pan;
#X obj 311 398 pre-pan;
#X obj 990 433 pre-pan;
#X obj 1067 433 pre-pan;
#X obj 751 426 pre-pan-drum;
#X obj 806 394 r drumvolctrl;
#X msg 783 134 0.5;
#X obj 1183 529 r~ voice;
#X obj 359 658 s~ drum-resamp-l;
#X obj 1011 648 s~ drum-resamp-r;
#X obj 977 235 looplayer;
#X obj 644 235 looplayer;
#X obj 539 235 looplayer;
#X obj 751 235 looplayer;
#X obj 872 235 looplayer;
#X obj 436 233 looplayer;
#X obj 1084 233 looplayer;
#X obj 645 426 pre-pan-drum;
#X connect 0 0 18 1;
#X connect 0 0 244 4;
#X connect 0 0 250 1;
#X connect 1 0 2 0;
#X connect 1 0 3 0;
#X connect 2 0 20 0;
#X connect 2 1 22 0;
#X connect 2 2 21 0;
#X connect 2 3 11 0;
#X connect 2 4 12 0;
#X connect 2 5 13 0;
#X connect 2 6 14 0;
#X connect 2 7 15 0;
#X connect 4 0 128 1;
#X connect 4 0 233 1;
#X connect 4 0 245 4;
#X connect 5 0 157 1;
#X connect 5 0 237 1;
#X connect 5 0 246 4;
#X connect 6 0 135 1;
#X connect 6 0 230 1;
#X connect 6 0 248 4;
#X connect 7 0 136 1;
#X connect 7 0 232 1;
#X connect 7 0 247 4;
#X connect 8 0 137 1;
#X connect 8 0 235 1;
#X connect 8 0 243 4;
#X connect 9 0 138 1;
#X connect 9 0 236 1;
#X connect 9 0 249 4;
#X connect 10 0 139 1;
#X connect 10 0 169 0;
#X connect 10 0 219 2;
#X connect 11 0 6 0;
#X connect 11 0 119 1;
#X connect 11 0 179 1;
#X connect 12 0 7 0;
#X connect 12 0 122 1;
#X connect 12 0 182 1;
#X connect 13 0 8 0;
#X connect 13 0 123 1;
#X connect 13 0 183 1;
#X connect 14 0 9 0;
#X connect 14 0 124 1;
#X connect 14 0 184 1;
#X connect 15 0 10 0;
#X connect 15 0 125 2;
#X connect 15 0 185 2;
#X connect 16 0 180 0;
#X connect 17 0 199 0;
#X connect 18 0 244 0;
#X connect 18 4 244 2;
#X connect 19 0 178 0;
#X connect 20 0 5 0;
#X connect 20 0 121 1;
#X connect 20 0 178 1;
#X connect 21 0 4 0;
#X connect 21 0 118 1;
#X connect 21 0 180 1;
#X connect 22 0 0 0;
#X connect 22 0 120 1;
#X connect 22 0 181 1;
#X connect 23 0 166 0;
#X connect 24 0 66 0;
#X connect 24 0 165 0;
#X connect 25 0 27 0;
#X connect 25 0 34 0;
#X connect 26 0 27 1;
#X connect 26 0 61 0;
#X connect 26 0 81 0;
#X connect 27 0 31 0;
#X connect 27 0 167 0;
#X connect 28 0 25 0;
#X connect 28 0 72 0;
#X connect 30 0 28 0;
#X connect 30 0 70 0;
#X connect 31 0 172 0;
#X connect 31 0 193 0;
#X connect 32 0 35 0;
#X connect 32 0 80 0;
#X connect 33 0 170 0;
#X connect 34 0 78 0;
#X connect 34 0 39 0;
#X connect 34 0 154 0;
#X connect 35 0 149 0;
#X connect 37 0 153 0;
#X connect 38 0 37 0;
#X connect 38 0 150 0;
#X connect 38 0 155 0;
#X connect 40 0 29 0;
#X connect 40 0 64 0;
#X connect 40 0 75 0;
#X connect 41 0 40 0;
#X connect 41 1 36 0;
#X connect 44 0 69 0;
#X connect 44 0 45 0;
#X connect 45 0 26 0;
#X connect 45 0 71 0;
#X connect 48 0 50 1;
#X connect 48 0 51 0;
#X connect 49 0 48 0;
#X connect 50 0 32 0;
#X connect 52 0 47 0;
#X connect 52 0 53 0;
#X connect 55 0 56 0;
#X connect 57 0 28 1;
#X connect 57 0 45 1;
#X connect 58 0 57 0;
#X connect 58 0 60 0;
#X connect 58 0 156 0;
#X connect 59 0 58 0;
#X connect 59 0 74 0;
#X connect 59 0 216 0;
#X connect 61 0 58 0;
#X connect 65 0 42 0;
#X connect 65 0 62 0;
#X connect 65 1 43 0;
#X connect 65 1 63 0;
#X connect 65 1 76 0;
#X connect 67 0 54 0;
#X connect 67 0 65 0;
#X connect 67 0 41 0;
#X connect 68 0 67 0;
#X connect 71 0 152 0;
#X connect 74 0 73 0;
#X connect 75 0 73 0;
#X connect 76 0 73 0;
#X connect 77 0 67 0;
#X connect 79 0 31 0;
#X connect 82 0 85 0;
#X connect 83 0 86 0;
#X connect 84 0 87 0;
#X connect 85 0 126 0;
#X connect 85 0 237 2;
#X connect 86 0 129 0;
#X connect 86 0 250 2;
#X connect 87 0 131 0;
#X connect 87 0 233 2;
#X connect 88 0 133 0;
#X connect 88 0 230 2;
#X connect 89 0 143 0;
#X connect 89 0 232 2;
#X connect 90 0 142 0;
#X connect 90 0 235 2;
#X connect 91 0 141 0;
#X connect 91 0 236 2;
#X connect 92 0 140 0;
#X connect 92 0 219 3;
#X connect 93 0 88 0;
#X connect 94 0 89 0;
#X connect 95 0 90 0;
#X connect 96 0 91 0;
#X connect 97 0 92 0;
#X connect 106 0 179 0;
#X connect 107 0 220 0;
#X connect 108 0 183 0;
#X connect 109 0 184 0;
#X connect 118 0 128 0;
#X connect 118 1 233 3;
#X connect 118 1 245 3;
#X connect 119 0 135 0;
#X connect 119 1 230 3;
#X connect 119 1 248 3;
#X connect 120 0 18 0;
#X connect 120 0 231 0;
#X connect 120 1 244 3;
#X connect 121 0 157 0;
#X connect 121 0 231 0;
#X connect 121 1 246 3;
#X connect 122 0 136 0;
#X connect 122 1 232 3;
#X connect 122 1 247 3;
#X connect 123 0 137 0;
#X connect 123 1 235 3;
#X connect 123 1 243 3;
#X connect 124 0 138 0;
#X connect 124 1 236 3;
#X connect 124 1 249 3;
#X connect 125 0 139 0;
#X connect 125 1 173 4;
#X connect 125 1 139 3;
#X connect 125 1 219 4;
#X connect 125 2 139 2;
#X connect 126 0 127 0;
#X connect 128 0 245 0;
#X connect 128 2 245 1;
#X connect 128 4 245 2;
#X connect 129 0 130 0;
#X connect 131 0 132 0;
#X connect 133 0 134 0;
#X connect 135 0 248 0;
#X connect 135 2 248 1;
#X connect 135 4 248 2;
#X connect 136 0 247 0;
#X connect 136 2 247 1;
#X connect 136 4 247 2;
#X connect 137 0 243 0;
#X connect 137 2 243 1;
#X connect 137 4 243 2;
#X connect 138 0 249 0;
#X connect 138 2 249 1;
#X connect 138 4 249 2;
#X connect 139 1 173 0;
#X connect 139 2 173 2;
#X connect 139 3 173 1;
#X connect 139 5 173 3;
#X connect 140 0 147 0;
#X connect 141 0 146 0;
#X connect 142 0 145 0;
#X connect 143 0 144 0;
#X connect 149 0 37 1;
#X connect 153 0 55 0;
#X connect 154 0 38 0;
#X connect 154 1 35 0;
#X connect 157 0 246 0;
#X connect 157 2 246 3;
#X connect 157 3 246 2;
#X connect 158 0 181 0;
#X connect 165 0 68 0;
#X connect 166 0 59 0;
#X connect 166 0 46 0;
#X connect 167 0 148 0;
#X connect 167 0 168 0;
#X connect 168 0 151 0;
#X connect 169 0 214 0;
#X connect 169 1 215 0;
#X connect 170 0 50 0;
#X connect 171 0 31 0;
#X connect 172 0 34 0;
#X connect 172 1 34 1;
#X connect 172 2 33 0;
#X connect 172 3 38 0;
#X connect 173 0 219 0;
#X connect 173 1 219 1;
#X connect 173 2 105 0;
#X connect 173 2 190 0;
#X connect 173 2 191 0;
#X connect 174 0 201 0;
#X connect 175 0 166 0;
#X connect 178 0 121 0;
#X connect 179 0 119 0;
#X connect 180 0 118 0;
#X connect 181 0 120 0;
#X connect 182 0 122 0;
#X connect 183 0 123 0;
#X connect 184 0 124 0;
#X connect 185 0 125 0;
#X connect 185 1 125 1;
#X connect 186 0 187 0;
#X connect 189 0 188 0;
#X connect 190 0 73 0;
#X connect 193 0 194 0;
#X connect 194 0 196 0;
#X connect 196 0 192 0;
#X connect 196 0 195 0;
#X connect 197 0 198 0;
#X connect 198 0 88 0;
#X connect 198 0 87 0;
#X connect 198 0 86 0;
#X connect 198 0 89 0;
#X connect 198 0 90 0;
#X connect 198 0 91 0;
#X connect 198 0 92 0;
#X connect 198 0 239 0;
#X connect 200 0 202 0;
#X connect 203 0 185 0;
#X connect 204 0 185 1;
#X connect 214 0 186 0;
#X connect 215 0 186 0;
#X connect 216 0 79 0;
#X connect 217 0 205 0;
#X connect 219 0 205 0;
#X connect 219 0 174 0;
#X connect 219 1 199 0;
#X connect 219 1 200 0;
#X connect 219 2 213 0;
#X connect 219 3 229 0;
#X connect 220 0 182 0;
#X connect 230 0 174 0;
#X connect 230 0 205 0;
#X connect 230 0 199 0;
#X connect 230 1 200 0;
#X connect 230 1 199 0;
#X connect 230 2 209 0;
#X connect 230 3 224 0;
#X connect 231 0 233 4;
#X connect 231 0 230 4;
#X connect 231 0 232 4;
#X connect 231 0 235 4;
#X connect 231 0 236 4;
#X connect 231 0 219 5;
#X connect 232 0 174 0;
#X connect 232 0 205 0;
#X connect 232 1 200 0;
#X connect 232 1 199 0;
#X connect 232 2 210 0;
#X connect 232 3 225 0;
#X connect 233 0 174 0;
#X connect 233 0 205 0;
#X connect 233 1 200 0;
#X connect 233 1 199 0;
#X connect 233 2 208 0;
#X connect 233 3 223 0;
#X connect 235 0 174 0;
#X connect 235 0 205 0;
#X connect 235 1 200 0;
#X connect 235 1 199 0;
#X connect 235 2 211 0;
#X connect 235 3 226 0;
#X connect 236 0 174 0;
#X connect 236 0 205 0;
#X connect 236 1 199 0;
#X connect 236 1 200 0;
#X connect 236 2 212 0;
#X connect 236 3 227 0;
#X connect 237 0 205 0;
#X connect 237 0 174 0;
#X connect 237 0 241 0;
#X connect 237 1 199 0;
#X connect 237 1 200 0;
#X connect 237 1 242 0;
#X connect 237 2 207 0;
#X connect 237 3 221 0;
#X connect 238 0 237 3;
#X connect 238 0 250 3;
#X connect 239 0 237 3;
#X connect 240 0 205 0;
#X connect 240 0 199 0;
#X connect 240 0 201 0;
#X connect 240 0 202 0;
#X connect 243 0 235 0;
#X connect 243 1 103 0;
#X connect 243 1 190 0;
#X connect 244 0 250 0;
#X connect 244 1 99 0;
#X connect 244 1 190 0;
#X connect 245 0 233 0;
#X connect 245 1 100 0;
#X connect 245 1 190 0;
#X connect 246 0 237 0;
#X connect 246 1 98 0;
#X connect 246 1 190 0;
#X connect 247 0 232 0;
#X connect 247 1 102 0;
#X connect 247 1 190 0;
#X connect 248 0 230 0;
#X connect 248 1 101 0;
#X connect 248 1 190 0;
#X connect 249 0 236 0;
#X connect 249 1 104 0;
#X connect 249 1 190 0;
#X connect 250 0 174 0;
#X connect 250 0 205 0;
#X connect 250 0 241 0;
#X connect 250 1 200 0;
#X connect 250 1 199 0;
#X connect 250 1 242 0;
#X connect 250 2 206 0;
#X connect 250 3 222 0;
#X coords 0 -1 1 1 1000 140 1 300 200;
