#N canvas 1672 -8 1366 726 10;
#X floatatom 61 -34 5 0 127 0 - - -;
#X obj 514 -14 moses 127;
#X obj 60 -52 average 5;
#X obj 61 -12 moses 0;
#X obj 135 -14 moses 25.4;
#X obj 229 -11 moses 50.8;
#X obj 319 -12 moses 76.2;
#X obj 416 -13 moses 101.6;
#X floatatom 132 117 5 0 0 0 - - -;
#X obj 129 69 / 100;
#X obj 129 92 * 4;
#X obj 76 94 -;
#X floatatom 77 117 5 0 0 0 - - -;
#X obj 72 67 swap 1;
#X floatatom 243 116 5 0 0 0 - - -;
#X obj 240 68 / 100;
#X obj 240 91 * 4;
#X obj 187 93 -;
#X floatatom 188 116 5 0 0 0 - - -;
#X obj 183 66 swap 1;
#X obj 242 26 - 25.4;
#X floatatom 276 66 5 0 0 0 - - -;
#X obj 243 46 clip 0 25;
#X obj 63 563 hsl 800 15 0 127 0 0 empty empty empty -2 -8 0 10 -262144
-1 -1 0 1;
#X obj 77 143 vsl 15 50 0 1 0 0 empty empty empty 0 -9 0 10 -262144
-1 -1 4900 1;
#X floatatom 373 126 5 0 0 0 - - -;
#X obj 376 73 / 100;
#X obj 374 98 * 4;
#X obj 324 96 -;
#X floatatom 322 123 5 0 0 0 - - -;
#X obj 324 72 swap 1;
#X floatatom 460 45 5 0 0 0 - - -;
#X obj 376 49 clip 0 25;
#X obj 377 26 - 50.8;
#X floatatom 529 134 5 0 0 0 - - -;
#X obj 532 81 / 100;
#X obj 530 106 * 4;
#X obj 480 104 -;
#X floatatom 478 131 5 0 0 0 - - -;
#X obj 480 80 swap 1;
#X floatatom 616 53 5 0 0 0 - - -;
#X obj 532 57 clip 0 25;
#X obj 533 34 - 76.2;
#X floatatom 703 138 5 0 0 0 - - -;
#X obj 706 85 / 100;
#X obj 704 110 * 4;
#X obj 654 108 -;
#X floatatom 652 135 5 0 0 0 - - -;
#X obj 654 84 swap 1;
#X obj 707 38 - 101.6;
#X obj 703 160 vsl 15 50 0 1 0 0 empty empty empty 0 -9 0 10 -262144
-1 -1 78 1;
#X obj 190 139 vsl 15 50 0 1 0 0 empty empty empty 0 -9 0 10 -262144
-1 -1 0 1;
#X obj 479 154 vsl 15 50 0 1 0 0 empty empty empty 0 -9 0 10 -262144
-1 -1 274 1;
#X obj 652 156 vsl 15 50 0 1 0 0 empty empty empty 0 -9 0 10 -262144
-1 -1 0 1;
#X obj 322 147 vsl 15 50 0 1 0 0 empty empty empty 0 -9 0 10 -262144
-1 -1 0 1;
#X obj -15 320 sig~;
#X obj -14 342 lop~ 80;
#X obj -30 368 *~;
#X obj -192 329 sig~;
#X obj -191 351 lop~ 80;
#X obj -207 377 *~;
#X obj 393 362 sig~;
#X obj 394 384 lop~ 80;
#X obj 378 410 *~;
#X obj 167 325 sig~;
#X obj 168 347 lop~ 80;
#X obj 152 373 *~;
#X obj 584 364 sig~;
#X obj 585 386 lop~ 80;
#X obj 569 412 *~;
#X obj 775 375 sig~;
#X obj 776 397 lop~ 80;
#X obj 760 423 *~;
#X obj 404 532 throw~ drum;
#X obj 403 508 *~ 1;
#X obj -245 395 bass1;
#X obj -231 205 DIY2/perk-bassdrum /key;
#X obj -35 272 DIY2/perk-lowtom /key;
#X obj 152 272 DIY2/perk-hightom /key;
#X obj 366 224 DIY2/perk-snare /key;
#X obj 563 249 DIY2/perk-clap /key;
#X obj 756 206 DIY2/perk-hihat /key;
#X obj 59 -72 r xaxis;
#X obj -207 -82 r mynotemsg;
#X floatatom -200 -43 5 0 0 0 - - -;
#X floatatom -166 -42 5 0 0 0 - - -;
#X obj -207 -61 unpack f f f;
#X obj -123 -60 inlet;
#X obj -50 -79 r transpose;
#X obj -56 -37 -;
#X obj -75 -72 bng 15 250 50 0 empty empty empty 17 7 0 10 -262144
-1 -1;
#X floatatom -56 -18 5 0 0 0 - - -;
#X obj -206 3 stripnote;
#X msg -119 -98 53;
#X obj -207 30 t b f;
#X obj -176 61 s mdrumnote;
#X obj 368 538 dac~;
#X obj -206 -18 spigot 1;
#X obj -237 85 bng 15 250 50 0 empty empty empty 17 7 0 10 -262144
-1 -1;
#X obj 706 61 clip 0 25.4;
#X connect 0 0 3 0;
#X connect 0 0 23 0;
#X connect 1 0 49 0;
#X connect 2 0 0 0;
#X connect 3 1 4 0;
#X connect 4 0 9 0;
#X connect 4 1 5 0;
#X connect 5 0 20 0;
#X connect 5 1 6 0;
#X connect 6 0 33 0;
#X connect 6 1 7 0;
#X connect 7 0 42 0;
#X connect 7 1 1 0;
#X connect 9 0 10 0;
#X connect 10 0 8 0;
#X connect 10 0 13 0;
#X connect 10 0 17 0;
#X connect 11 0 12 0;
#X connect 11 0 18 0;
#X connect 11 0 58 0;
#X connect 12 0 24 0;
#X connect 13 0 11 0;
#X connect 13 1 11 1;
#X connect 15 0 16 0;
#X connect 16 0 14 0;
#X connect 16 0 19 0;
#X connect 16 0 28 0;
#X connect 17 0 18 0;
#X connect 17 0 29 0;
#X connect 18 0 51 0;
#X connect 18 0 55 0;
#X connect 19 0 17 0;
#X connect 19 1 17 1;
#X connect 20 0 22 0;
#X connect 22 0 15 0;
#X connect 22 0 21 0;
#X connect 26 0 27 0;
#X connect 27 0 25 0;
#X connect 27 0 30 0;
#X connect 27 0 37 0;
#X connect 28 0 29 0;
#X connect 28 0 38 0;
#X connect 29 0 54 0;
#X connect 29 0 64 0;
#X connect 30 0 28 0;
#X connect 30 1 28 1;
#X connect 32 0 26 0;
#X connect 32 0 31 0;
#X connect 33 0 32 0;
#X connect 35 0 36 0;
#X connect 36 0 34 0;
#X connect 36 0 39 0;
#X connect 36 0 46 0;
#X connect 37 0 38 0;
#X connect 37 0 47 0;
#X connect 38 0 52 0;
#X connect 38 0 61 0;
#X connect 39 0 37 0;
#X connect 39 1 37 1;
#X connect 41 0 35 0;
#X connect 41 0 40 0;
#X connect 42 0 41 0;
#X connect 43 0 50 0;
#X connect 43 0 70 0;
#X connect 44 0 45 0;
#X connect 45 0 43 0;
#X connect 45 0 48 0;
#X connect 46 0 47 0;
#X connect 47 0 53 0;
#X connect 47 0 67 0;
#X connect 48 0 46 0;
#X connect 48 1 46 1;
#X connect 49 0 99 0;
#X connect 55 0 56 0;
#X connect 56 0 57 1;
#X connect 57 0 74 0;
#X connect 58 0 59 0;
#X connect 59 0 60 1;
#X connect 60 0 74 0;
#X connect 61 0 62 0;
#X connect 62 0 63 1;
#X connect 63 0 74 0;
#X connect 64 0 65 0;
#X connect 65 0 66 1;
#X connect 66 0 74 0;
#X connect 67 0 68 0;
#X connect 68 0 69 1;
#X connect 69 0 74 0;
#X connect 70 0 71 0;
#X connect 71 0 72 1;
#X connect 72 0 74 0;
#X connect 74 0 73 0;
#X connect 74 0 96 0;
#X connect 75 0 74 0;
#X connect 76 0 60 0;
#X connect 77 0 57 0;
#X connect 78 0 66 0;
#X connect 79 0 63 0;
#X connect 80 0 69 0;
#X connect 81 0 72 0;
#X connect 82 0 2 0;
#X connect 83 0 86 0;
#X connect 86 0 84 0;
#X connect 86 0 89 0;
#X connect 86 1 85 0;
#X connect 86 1 92 1;
#X connect 87 0 97 1;
#X connect 88 0 90 0;
#X connect 88 0 89 1;
#X connect 89 0 91 0;
#X connect 89 0 97 0;
#X connect 90 0 89 0;
#X connect 92 0 94 0;
#X connect 93 0 86 0;
#X connect 93 0 94 0;
#X connect 94 0 76 0;
#X connect 94 0 77 0;
#X connect 94 0 78 0;
#X connect 94 0 79 0;
#X connect 94 0 80 0;
#X connect 94 0 81 0;
#X connect 94 0 98 0;
#X connect 94 1 95 0;
#X connect 94 1 77 1;
#X connect 94 1 79 1;
#X connect 94 1 80 1;
#X connect 94 1 81 1;
#X connect 94 1 78 1;
#X connect 97 0 92 0;
#X connect 99 0 44 0;
