#N canvas 143 36 860 343 10;
#X floatatom 400 -22 5 0 0 3 a5 - -;
#X floatatom 446 -22 5 0 0 3 a6 - -;
#X floatatom 492 -22 5 0 0 3 a7 - -;
#X obj 248 -84 route 0 1 2 3 4 5 6 7;
#N canvas 181 196 499 396 display 0;
#X obj 247 222 inlet;
#X obj 247 265 outlet;
#X obj 295 265 inlet;
#X obj 295 308 outlet;
#X obj 345 308 inlet;
#X obj 345 351 outlet;
#X obj 60 290 receive ARDUINO_TEST_RESET;
#X obj 345 329 mapping/resample 25;
#X obj 295 286 mapping/resample 25;
#X obj 247 243 mapping/resample 25;
#X connect 0 0 9 0;
#X connect 2 0 8 0;
#X connect 4 0 7 0;
#X connect 6 0 7 0;
#X connect 6 0 8 0;
#X connect 6 0 9 0;
#X connect 7 0 5 0;
#X connect 8 0 3 0;
#X connect 9 0 1 0;
#X restore 341 -48 pd display values without pegging the CPU;
#X obj -85 -4 route 0 1 2 3 4 5 6 7 8 9 10 11 12 13;
#X obj -58 24 tgl 15 0 empty ARDUINO_TEST_RESET 2 4 23 1 12 -258113
-1 -1 0 1;
#X obj -41 24 tgl 15 0 empty ARDUINO_TEST_RESET 3 4 23 1 12 -258113
-1 -1 0 1;
#X obj -24 24 tgl 15 0 empty ARDUINO_TEST_RESET 4 4 23 1 12 -258113
-1 -1 0 1;
#X obj -7 24 tgl 15 0 empty ARDUINO_TEST_RESET 5 4 23 1 12 -258113
-1 -1 0 1;
#X obj 10 24 tgl 15 0 empty ARDUINO_TEST_RESET 6 4 23 1 12 -258113
-1 -1 0 1;
#X obj 27 24 tgl 15 0 empty ARDUINO_TEST_RESET 7 4 23 1 12 -4160 -1
-1 0 1;
#X obj 44 24 tgl 15 0 empty ARDUINO_TEST_RESET 8 4 23 1 12 -4160 -1
-1 0 1;
#X obj 61 24 tgl 15 0 empty ARDUINO_TEST_RESET 9 4 23 1 12 -232448
-1 -1 0 1;
#X obj 78 24 tgl 15 0 empty ARDUINO_TEST_RESET 10 0 23 1 12 -232448
-1 -1 0 1;
#X obj 95 24 tgl 15 0 empty ARDUINO_TEST_RESET 11 0 23 1 12 -232448
-1 -1 0 1;
#X obj 112 24 tgl 15 0 empty ARDUINO_TEST_RESET 12 0 23 1 12 -4160
-1 -1 0 1;
#X obj 129 24 tgl 15 0 empty ARDUINO_TEST_RESET 13 0 23 1 12 -4160
-1 -1 0 1;
#X obj -92 24 tgl 15 0 empty ARDUINO_TEST_RESET 0 4 23 1 12 -232448
-1 -1 0 1;
#X obj -75 24 tgl 15 0 empty ARDUINO_TEST_RESET 1 4 23 1 12 -232448
-1 -1 0 1;
#X text -70 -47 analog inputs:;
#X text 261 17 Keys 1234;
#X obj 42 -112 route analog digital;
#N canvas 0 65 1009 701 arduinopinload 0;
#X msg 109 223 close;
#X text 264 295 <-- argument sets port #;
#X msg 0 131 analogIns 0 1;
#X msg 14 151 analogIns 1 1;
#X msg 128 117 analogIns 5 1;
#X msg 136 136 analogIns 6 1;
#X msg 144 156 analogIns 7 1;
#X msg 235 189 pinMode 11 pwm;
#X msg 226 212 pinMode 10 pwm;
#X msg 217 235 pinMode 9 pwm;
#X msg 27 170 analogIns 3 1;
#X msg 41 191 analogIns 4 1;
#X obj 125 55 loadbang;
#X msg -84 169 pinMode 2 input;
#X msg -77 189 pinMode 3 input;
#X msg -66 210 pinMode 4 input;
#X msg -44 231 pinMode 5 input;
#X msg -35 250 pinMode 6 input;
#X obj 120 348 outlet;
#X msg 360 150 pwm 9 \$1;
#X obj 363 125 hsl 150 17 0 1 0 0 empty empty PWM_control_(0-1) -2
-6 1 10 -260818 -1 -1 8940 1;
#X text 368 176 disable PWM:;
#X obj 526 126 hsl 150 17 0 1 0 0 empty empty PWM_control_(0-1) -2
-6 1 10 -260818 -1 -1 14751 1;
#X text 536 176 disable PWM:;
#X obj 693 129 hsl 150 17 0 1 0 0 empty empty PWM_control_(0-1) -2
-6 1 10 -260818 -1 -1 5960 1;
#X text 698 176 disable PWM:;
#X text 360 94 PIN9:;
#X text 528 96 PIN10:;
#X text 690 96 PIN11:;
#X msg 528 150 pwm 10 \$1;
#X msg 690 150 pwm 11 \$1;
#X msg 370 195 pwm 9 0;
#X msg 538 195 pwm 10 0;
#X msg 700 195 pwm 11 0;
#X text 563 57 PIN10:;
#X msg 296 95 0.6;
#X msg 271 115 0.99;
#X msg 242 135 0.4;
#X obj 572 90 r r;
#X obj 398 83 r g;
#X obj 734 92 r b;
#X obj 498 30 r lights off;
#X msg -23 269 pinMode 7 input;
#X msg -13 288 pinMode 8 input;
#X msg 2 308 pinMode 12 input;
#X msg 12 326 pinMode 13 input;
#X msg -18 74 analogIns 2 1;
#X msg 62 223 devices;
#X obj 121 291 arduino 6;
#X connect 0 0 48 0;
#X connect 2 0 48 0;
#X connect 3 0 48 0;
#X connect 4 0 48 0;
#X connect 5 0 48 0;
#X connect 6 0 48 0;
#X connect 7 0 48 0;
#X connect 8 0 48 0;
#X connect 9 0 48 0;
#X connect 10 0 48 0;
#X connect 11 0 48 0;
#X connect 12 0 2 0;
#X connect 12 0 3 0;
#X connect 12 0 10 0;
#X connect 12 0 11 0;
#X connect 12 0 47 0;
#X connect 12 0 4 0;
#X connect 12 0 5 0;
#X connect 12 0 6 0;
#X connect 12 0 13 0;
#X connect 12 0 14 0;
#X connect 12 0 15 0;
#X connect 12 0 16 0;
#X connect 12 0 17 0;
#X connect 12 0 7 0;
#X connect 12 0 8 0;
#X connect 12 0 9 0;
#X connect 12 0 35 0;
#X connect 12 0 36 0;
#X connect 12 0 37 0;
#X connect 12 0 42 0;
#X connect 12 0 43 0;
#X connect 12 0 44 0;
#X connect 12 0 45 0;
#X connect 12 0 46 0;
#X connect 13 0 48 0;
#X connect 14 0 48 0;
#X connect 15 0 48 0;
#X connect 16 0 48 0;
#X connect 17 0 48 0;
#X connect 19 0 48 0;
#X connect 20 0 19 0;
#X connect 22 0 29 0;
#X connect 24 0 30 0;
#X connect 29 0 48 0;
#X connect 30 0 48 0;
#X connect 31 0 48 0;
#X connect 32 0 48 0;
#X connect 33 0 48 0;
#X connect 35 0 20 0;
#X connect 36 0 22 0;
#X connect 37 0 24 0;
#X connect 38 0 22 0;
#X connect 39 0 20 0;
#X connect 40 0 24 0;
#X connect 41 0 31 0;
#X connect 41 0 32 0;
#X connect 41 0 33 0;
#X connect 42 0 48 0;
#X connect 43 0 48 0;
#X connect 44 0 48 0;
#X connect 45 0 48 0;
#X connect 46 0 48 0;
#X connect 47 0 48 0;
#X connect 48 0 18 0;
#X restore 44 -161 pd arduinopinload;
#X text 129 95 Upper joystick outlets;
#X text -79 92 lower joystick outlets;
#X text 425 36 accelerometer;
#X obj 237 -4 s fr1;
#X obj 272 -5 s fr2;
#X obj 307 -5 s fr3;
#X obj 343 -6 s fr4;
#X obj 397 12 s xrx;
#X obj 446 14 s xry;
#X obj 494 14 s xrz;
#X obj -103 73 s jrb2;
#X obj -48 73 s jrb3;
#X obj 6 73 s jrb4;
#X obj 59 73 s jrb1;
#X obj 117 74 s jru1;
#X obj 159 73 s jru2;
#X obj 201 74 s jru3;
#X obj 242 75 s jru4;
#X obj 447 53 s oscyr;
#X obj 505 56 s osczr;
#X obj 390 53 s oscxr;
#X connect 0 0 31 0;
#X connect 1 0 32 0;
#X connect 2 0 33 0;
#X connect 3 0 27 0;
#X connect 3 1 28 0;
#X connect 3 3 29 0;
#X connect 3 4 30 0;
#X connect 3 5 4 0;
#X connect 3 5 44 0;
#X connect 3 6 4 1;
#X connect 3 6 42 0;
#X connect 3 7 4 2;
#X connect 3 7 43 0;
#X connect 4 0 0 0;
#X connect 4 1 1 0;
#X connect 4 2 2 0;
#X connect 5 0 18 0;
#X connect 5 1 19 0;
#X connect 5 2 6 0;
#X connect 5 3 7 0;
#X connect 5 4 8 0;
#X connect 5 5 9 0;
#X connect 5 6 10 0;
#X connect 5 7 11 0;
#X connect 5 8 12 0;
#X connect 5 9 13 0;
#X connect 5 10 14 0;
#X connect 5 11 15 0;
#X connect 5 12 16 0;
#X connect 5 13 17 0;
#X connect 6 0 34 0;
#X connect 8 0 36 0;
#X connect 9 0 35 0;
#X connect 10 0 37 0;
#X connect 11 0 40 0;
#X connect 12 0 41 0;
#X connect 16 0 39 0;
#X connect 17 0 38 0;
#X connect 22 0 3 0;
#X connect 22 1 5 0;
#X connect 23 0 22 0;
