#N canvas 733 327 947 623 12;
#X msg 217 -6 close;
#X obj 172 101 route analog;
#X msg 287 73 analogIns 1 1;
#X obj 172 -181 loadbang;
#X msg 287 54 analogIns 0 1;
#X obj 297 153 tgl 15 0 empty empty empty 0 -6 0 8 -262144 -1 -1 0
1;
#X obj 428 94 tgl 15 0 empty empty empty 0 -6 0 8 -262144 -1 -1 0 65
;
#X msg 428 112 digital 2 \$1;
#X obj 298 97 r breath;
#X obj 428 71 r lip;
#X obj 313 132 invert;
#X obj 271 -104 hsl 150 17 0 1 0 0 empty empty PWM_control_(0-1) -2
-6 1 10 -260818 -1 -1 8940 1;
#X text 274 -58 disable PWM:;
#X obj 441 -107 hsl 150 17 0 1 0 0 empty empty PWM_control_(0-1) -2
-6 1 10 -260818 -1 -1 5960 1;
#X text 442 -58 disable PWM:;
#X obj 599 -105 hsl 150 17 0 1 0 0 empty empty PWM_control_(0-1) -2
-6 1 10 -260818 -1 -1 14751 1;
#X text 604 -58 disable PWM:;
#X obj 468 -137 r r;
#X obj 633 -139 r g;
#X obj 298 -141 r b;
#X obj 458 -19 r lights off;
#X msg 438 -81 pwm 5 \$1;
#X msg 596 -84 pwm 6 \$1;
#X msg 444 -39 pwm 5 0;
#X msg 606 -39 pwm 6 0;
#X msg 501 -82 pinMode 5 pwm;
#X msg 661 -85 pinMode 6 pwm;
#X msg 328 -79 pinMode 3 pwm;
#X msg 268 -79 pwm 3 \$1;
#X msg 274 -41 pwm 3 0;
#X floatatom 316 152 5 0 0 0 - - -;
#X msg 297 172 pwm 5 \$1;
#X text 596 -138 PIN6:;
#X text 437 -137 PIN5:;
#X text 266 -140 PIN3:;
#X msg 298 -167 0.6;
#X msg 333 -167 0.4;
#X msg 365 -168 0.99;
#X text 352 146 should blink the light on each breath input but is
a bit slow;
#X text 245 81 comment;
#X text 429 -172 initial rgb light color;
#X floatatom 246 214 5 0 0 0 - - -;
#X obj 209 253 s breath;
#X obj 200 170 s rawbreath;
#X obj 172 80 arduino 4;
#X floatatom 169 254 5 0 0 0 - - -;
#X obj 164 147 * 1024;
#X obj 164 212 clip 0 127;
#X obj 164 233 int;
#X floatatom 120 201 5 0 0 0 - - -;
#X obj 167 168 / 3;
#X msg 62 17 analogIns 2 1;
#X obj 172 122 route 0 1 2;
#X floatatom 357 219 5 0 0 0 - - -;
#X floatatom 304 218 5 0 0 0 - - -;
#X obj 317 275 hsl 128 15 0 1 0 0 empty empty empty -2 -8 0 10 -262144
-1 -1 0 1;
#X obj 397 246 hsl 128 15 0 1 0 0 empty empty empty -2 -8 0 10 -262144
-1 -1 0 1;
#X obj 264 327 outlet gyro;
#X obj 166 190 - 28;
#X connect 0 0 44 0;
#X connect 1 0 52 0;
#X connect 2 0 44 0;
#X connect 3 0 2 0;
#X connect 3 0 4 0;
#X connect 3 0 27 0;
#X connect 3 0 25 0;
#X connect 3 0 26 0;
#X connect 3 0 35 0;
#X connect 3 0 36 0;
#X connect 3 0 37 0;
#X connect 3 0 44 0;
#X connect 3 0 51 0;
#X connect 4 0 44 0;
#X connect 5 0 31 0;
#X connect 5 0 30 0;
#X connect 6 0 7 0;
#X connect 9 0 6 0;
#X connect 10 0 5 0;
#X connect 11 0 28 0;
#X connect 13 0 21 0;
#X connect 15 0 22 0;
#X connect 17 0 13 0;
#X connect 18 0 15 0;
#X connect 19 0 11 0;
#X connect 20 0 29 0;
#X connect 20 0 23 0;
#X connect 20 0 24 0;
#X connect 21 0 44 0;
#X connect 22 0 44 0;
#X connect 23 0 44 0;
#X connect 24 0 44 0;
#X connect 25 0 44 0;
#X connect 26 0 44 0;
#X connect 27 0 44 0;
#X connect 28 0 44 0;
#X connect 29 0 44 0;
#X connect 31 0 44 0;
#X connect 35 0 11 0;
#X connect 36 0 13 0;
#X connect 37 0 15 0;
#X connect 44 0 1 0;
#X connect 46 0 43 0;
#X connect 46 0 50 0;
#X connect 47 0 48 0;
#X connect 47 0 41 0;
#X connect 48 0 45 0;
#X connect 48 0 42 0;
#X connect 50 0 49 0;
#X connect 50 0 58 0;
#X connect 51 0 44 0;
#X connect 52 0 46 0;
#X connect 52 1 54 0;
#X connect 52 2 53 0;
#X connect 53 0 56 0;
#X connect 53 0 57 0;
#X connect 54 0 55 0;
#X connect 58 0 47 0;
