#N canvas 409 0 1271 688 10;
#X declare -stdpath extra/moocow -lib pdstring;
#X declare -lib mrpeach;
#X obj 267 343 route 0 1 2 3 4 5 6 7;
#X obj 570 324 route 0 1 2 3 4 5 6 7 8 9 10 11 12 13;
#X obj 601 346 tgl 15 0 empty ARDUINO_TEST_RESET 2 4 23 1 12 -99865
-1 -1 0 1;
#X obj 618 346 tgl 15 0 empty ARDUINO_TEST_RESET 3 4 23 1 12 -258113
-1 -1 0 1;
#X obj 635 346 tgl 15 0 empty ARDUINO_TEST_RESET 4 4 23 1 12 -258113
-1 -1 0 1;
#X obj 652 346 tgl 15 0 empty ARDUINO_TEST_RESET 5 4 23 1 12 -257985
-1 -1 1 1;
#X obj 669 346 tgl 15 0 empty ARDUINO_TEST_RESET 6 4 23 1 12 -257985
-1 -1 0 1;
#X obj 686 346 tgl 15 0 empty ARDUINO_TEST_RESET 7 4 23 1 12 -257985
-1 -1 0 1;
#X obj 703 346 tgl 15 0 empty ARDUINO_TEST_RESET 8 4 23 1 12 -257985
-1 -1 0 1;
#X obj 720 346 tgl 15 0 empty ARDUINO_TEST_RESET 9 4 23 1 12 -257985
-1 -1 0 1;
#X obj 737 346 tgl 15 0 empty ARDUINO_TEST_RESET 10 0 23 1 12 -99865
-1 -1 0 1;
#X obj 754 346 tgl 15 0 empty ARDUINO_TEST_RESET 11 0 23 1 12 -99865
-1 -1 0 1;
#X obj 771 346 tgl 15 0 empty ARDUINO_TEST_RESET 12 0 23 1 12 -258113
-1 -1 0 1;
#X obj 788 346 tgl 15 0 empty ARDUINO_TEST_RESET 13 0 23 1 12 -258113
-1 -1 0 1;
#X obj 567 346 tgl 15 0 empty ARDUINO_TEST_RESET 0 4 23 1 12 -99865
-1 -1 0 1;
#X obj 584 346 tgl 15 0 empty ARDUINO_TEST_RESET 1 4 23 1 12 -99865
-1 -1 0 1;
#X text 204 276 <-- argument sets port #;
#X obj 121 315 route analog digital;
#X obj 273 115 hsl 150 17 0 1 0 0 empty empty PWM_control_(0-1) -2
-6 1 10 -260818 -1 -1 0 1;
#X text 275 163 disable PWM:;
#X obj 434 117 hsl 150 17 0 1 0 0 empty empty PWM_control_(0-1) -2
-6 1 10 -260818 -1 -1 0 1;
#X text 443 163 disable PWM:;
#X obj 600 116 hsl 150 17 0 1 0 0 empty empty PWM_control_(0-1) -2
-6 1 10 -260818 -1 -1 0 1;
#X text 605 163 disable PWM:;
#X text 438 84 PIN10:;
#X text 597 83 PIN11:;
#X text 267 81 PIN2:;
#X msg 188 11 0.6;
#X msg 223 11 0.4;
#X msg 255 10 0.99;
#X obj 370 56 r lights off;
#X text 909 16 comment;
#X obj 516 500 s fl1;
#X obj 397 504 s fl4;
#X obj -46 473 s oscyl;
#X obj -43 496 s osczl;
#X obj -42 518 s oscxl;
#X obj 184 535 s xlx;
#X obj 238 381 tgl 15 0 empty empty empty 17 7 0 10 -262144 -1 -1 0
0.00195503;
#X obj 435 503 s fl3;
#X obj 474 501 s fl2;
#X floatatom 202 510 5 0 0 0 - - -;
#X floatatom 246 510 5 0 0 0 - - -;
#X floatatom 396 442 5 0 0 0 - - -;
#X obj 270 538 s xlz;
#X obj 230 535 s xly;
#X obj 357 566 hsl 128 15 0 1 0 0 empty empty empty -2 -8 0 10 -262144
-1 -1 3923 1;
#X obj 574 543 vsl 15 128 0 1 0 0 empty empty empty 0 -9 0 10 -262144
-1 -1 5040 1;
#X obj 750 601 s jlu3;
#X obj 645 599 s jlu1;
#X obj 187 437 s jlu4;
#X obj 695 598 s jlu2;
#N canvas 322 213 450 452 onlyone 0;
#X obj 170 102 inlet;
#X obj 164 171 sel 0 1;
#X obj 219 104 inlet;
#X obj 213 173 sel 0 1;
#X obj 271 104 inlet;
#X obj 265 173 sel 0 1;
#X obj 320 106 inlet;
#X obj 314 175 sel 0 1;
#X obj 163 310 outlet;
#X obj 212 309 outlet;
#X obj 266 310 outlet;
#X obj 314 312 outlet;
#X obj 164 136 change;
#X obj 218 138 change;
#X obj 270 135 change;
#X obj 329 134 change;
#X connect 0 0 12 0;
#X connect 1 0 8 0;
#X connect 1 1 8 0;
#X connect 2 0 13 0;
#X connect 3 0 9 0;
#X connect 3 1 9 0;
#X connect 4 0 14 0;
#X connect 5 0 10 0;
#X connect 5 1 10 0;
#X connect 6 0 15 0;
#X connect 7 0 11 0;
#X connect 7 1 11 0;
#X connect 12 0 1 0;
#X connect 13 0 3 0;
#X connect 14 0 5 0;
#X connect 15 0 7 0;
#X restore 690 455 pd onlyone;
#X obj 838 677 s jlb1;
#X obj 938 675 s jlb3;
#X obj 884 676 s jlb2;
#X obj 1000 675 s jlb4;
#X obj 481 448 s botx;
#X obj 526 448 s boty;
#X obj 573 449 s botz;
#X text 430 207 these get ported back thru a netsend;
#X msg -69 6 analogIns 0 1;
#X msg -68 25 analogIns 1 1;
#X msg -67 44 analogIns 2 1;
#X msg -67 64 analogIns 3 1;
#X msg -65 84 analogIns 4 1;
#X msg -65 105 analogIns 5 1;
#X msg -64 125 analogIns 6 1;
#X msg -63 146 analogIns 7 1;
#X msg -67 194 pinMode 2 input;
#X msg -70 233 pinMode 4 input;
#X msg -70 252 pinMode 5 input;
#X msg -70 271 pinMode 6 input;
#X msg -71 312 pinMode 8 input;
#X msg -72 332 pinMode 9 pwm;
#X msg -72 353 pinMode 10 pwm;
#X msg -71 371 pinMode 11 pwm;
#X msg -72 391 pinMode 12 input;
#X msg -60 423 pinMode 13 input;
#X msg 275 181 pwm 9 0;
#X msg 267 137 pwm 11 \$1;
#X msg 435 137 pwm 9 \$1;
#X msg 445 182 pwm 10 0;
#X msg 607 182 pwm 11 0;
#X msg 597 137 pwm 10 \$1;
#X msg 122 399;
#X obj 159 99 bng 15 250 50 0 empty empty empty 17 7 0 10 -262144 -1
-1;
#X obj 175 78 r on;
#X obj 840 152 /;
#X obj 892 155 /;
#X obj 947 155 /;
#X msg 92 200 samplingInterval 5;
#X msg -71 291 pinMode 7 output;
#X msg 738 240 digital 7 \$1;
#X msg -70 214 pinMode 3 output;
#X msg 823 241 digital 3 \$1;
#X obj 743 207 tgl 15 0 empty empty empty 17 7 0 10 -262144 -1 -1 1
1;
#X obj 729 184 r red-l;
#X obj 838 185 r green-l;
#X obj 843 219 > 0;
#X obj 612 36 r b;
#X obj 479 31 r g;
#X obj 302 32 r r;
#X obj 337 77 r r-l;
#X obj 507 77 r g-l;
#X obj 667 78 r b-l;
#X obj 614 68 f;
#X obj 460 70 f;
#X obj 292 64 f;
#X obj 424 18 bng 15 250 50 0 empty empty empty 17 7 0 10 -262144 -1
-1;
#X obj 555 37 vsl 15 128 0 1 0 0 empty empty empty 0 -9 0 10 -262144
-1 -1 0 1;
#X obj 846 77 r left;
#X obj 92 19 bang;
#X obj 56 1 loadbang;
#X floatatom 292 512 5 0 0 0 - - -;
#X obj 120 295 myarduino-udp;
#X connect 0 0 38 0;
#X connect 0 0 50 0;
#X connect 0 1 46 0;
#X connect 0 1 37 0;
#X connect 0 1 41 0;
#X connect 0 2 47 0;
#X connect 0 2 45 0;
#X connect 0 2 42 0;
#X connect 0 3 44 0;
#X connect 0 3 114 0;
#X connect 0 4 33 0;
#X connect 0 5 39 0;
#X connect 0 6 40 0;
#X connect 0 7 32 0;
#X connect 1 0 14 0;
#X connect 1 1 15 0;
#X connect 1 2 2 0;
#X connect 1 3 3 0;
#X connect 1 4 4 0;
#X connect 1 5 5 0;
#X connect 1 6 6 0;
#X connect 1 7 7 0;
#X connect 1 8 8 0;
#X connect 1 9 9 0;
#X connect 1 10 10 0;
#X connect 1 11 11 0;
#X connect 1 12 12 0;
#X connect 1 13 13 0;
#X connect 2 0 48 0;
#X connect 4 0 51 0;
#X connect 5 0 49 0;
#X connect 6 0 54 0;
#X connect 8 0 55 0;
#X connect 12 0 53 0;
#X connect 13 0 56 0;
#X connect 17 0 0 0;
#X connect 17 1 1 0;
#X connect 18 0 80 0;
#X connect 20 0 81 0;
#X connect 22 0 84 0;
#X connect 27 0 18 0;
#X connect 28 0 20 0;
#X connect 29 0 22 0;
#X connect 30 0 79 0;
#X connect 30 0 82 0;
#X connect 30 0 83 0;
#X connect 61 0 115 0;
#X connect 62 0 115 0;
#X connect 63 0 115 0;
#X connect 64 0 115 0;
#X connect 65 0 115 0;
#X connect 66 0 115 0;
#X connect 67 0 115 0;
#X connect 68 0 115 0;
#X connect 69 0 115 0;
#X connect 70 0 115 0;
#X connect 71 0 115 0;
#X connect 72 0 115 0;
#X connect 73 0 115 0;
#X connect 74 0 115 0;
#X connect 75 0 115 0;
#X connect 76 0 115 0;
#X connect 77 0 115 0;
#X connect 78 0 115 0;
#X connect 79 0 115 0;
#X connect 80 0 115 0;
#X connect 81 0 115 0;
#X connect 82 0 115 0;
#X connect 83 0 115 0;
#X connect 84 0 115 0;
#X connect 86 0 112 0;
#X connect 87 0 86 0;
#X connect 88 0 20 0;
#X connect 89 0 18 0;
#X connect 90 0 22 0;
#X connect 91 0 115 0;
#X connect 92 0 115 0;
#X connect 93 0 115 0;
#X connect 94 0 115 0;
#X connect 95 0 115 0;
#X connect 96 0 93 0;
#X connect 97 0 96 0;
#X connect 98 0 99 0;
#X connect 99 0 95 0;
#X connect 100 0 90 1;
#X connect 100 0 106 0;
#X connect 101 0 88 1;
#X connect 101 0 107 0;
#X connect 102 0 89 1;
#X connect 102 0 108 0;
#X connect 103 0 18 0;
#X connect 104 0 20 0;
#X connect 105 0 22 0;
#X connect 106 0 22 0;
#X connect 107 0 20 0;
#X connect 108 0 18 0;
#X connect 109 0 108 0;
#X connect 109 0 107 0;
#X connect 109 0 106 0;
#X connect 110 0 20 0;
#X connect 111 0 88 0;
#X connect 111 0 89 0;
#X connect 111 0 90 0;
#X connect 112 0 66 0;
#X connect 112 0 67 0;
#X connect 112 0 68 0;
#X connect 112 0 61 0;
#X connect 112 0 62 0;
#X connect 112 0 64 0;
#X connect 112 0 65 0;
#X connect 112 0 70 0;
#X connect 112 0 77 0;
#X connect 112 0 94 0;
#X connect 112 0 71 0;
#X connect 112 0 72 0;
#X connect 112 0 92 0;
#X connect 112 0 73 0;
#X connect 112 0 74 0;
#X connect 112 0 69 0;
#X connect 112 0 76 0;
#X connect 112 0 75 0;
#X connect 112 0 63 0;
#X connect 112 0 27 0;
#X connect 112 0 28 0;
#X connect 112 0 29 0;
#X connect 112 0 78 0;
#X connect 112 0 91 0;
#X connect 113 0 112 0;
#X connect 115 0 17 0;
