#N canvas 591 170 1271 760 10;
#X declare -lib mrpeach;
#X declare -stdpath extra/moocow -lib pdstring;
#X declare -lib mrpeach;
#X msg 169 192 close;
#X obj 267 343 route 0 1 2 3 4 5 6 7;
#X obj 570 324 route 0 1 2 3 4 5 6 7 8 9 10 11 12 13;
#X obj 601 346 tgl 15 0 empty ARDUINO_TEST_RESET 2 4 23 1 12 -99865
-1 -1 0 1;
#X obj 618 346 tgl 15 0 empty ARDUINO_TEST_RESET 3 4 23 1 12 -258113
-1 -1 0 1;
#X obj 635 346 tgl 15 0 empty ARDUINO_TEST_RESET 4 4 23 1 12 -258113
-1 -1 0 1;
#X obj 652 346 tgl 15 0 empty ARDUINO_TEST_RESET 5 4 23 1 12 -257985
-1 -1 0 1;
#X obj 669 346 tgl 15 0 empty ARDUINO_TEST_RESET 6 4 23 1 12 -257985
-1 -1 0 1;
#X obj 686 346 tgl 15 0 empty ARDUINO_TEST_RESET 7 4 23 1 12 -257985
-1 -1 0 1;
#X obj 703 346 tgl 15 0 empty ARDUINO_TEST_RESET 8 4 23 1 12 -257985
-1 -1 0 1;
#X obj 720 346 tgl 15 0 empty ARDUINO_TEST_RESET 9 4 23 1 12 -257985
-1 -1 0 1;
#X obj 737 346 tgl 15 0 empty ARDUINO_TEST_RESET 10 0 23 1 12 -99865
-1 -1 0 1;
#X obj 754 346 tgl 15 0 empty ARDUINO_TEST_RESET 11 0 23 1 12 -99865
-1 -1 0 1;
#X obj 771 346 tgl 15 0 empty ARDUINO_TEST_RESET 12 0 23 1 12 -258113
-1 -1 0 1;
#X obj 788 346 tgl 15 0 empty ARDUINO_TEST_RESET 13 0 23 1 12 -258113
-1 -1 0 1;
#X obj 567 346 tgl 15 0 empty ARDUINO_TEST_RESET 0 4 23 1 12 -99865
-1 -1 0 1;
#X obj 584 346 tgl 15 0 empty ARDUINO_TEST_RESET 1 4 23 1 12 -99865
-1 -1 0 1;
#X text 204 276 <-- argument sets port #;
#X msg -69 6 analogIns 0 1;
#X msg -68 25 analogIns 1 1;
#X msg -65 105 analogIns 5 1;
#X msg -64 125 analogIns 6 1;
#X msg -63 146 analogIns 7 1;
#X obj 121 315 route analog digital;
#X msg -72 391 pinMode 12 input;
#X msg -70 233 pinMode 4 input;
#X msg -70 214 pinMode 3 input;
#X msg -71 371 pinMode 11 pwm;
#X msg -72 353 pinMode 10 pwm;
#X obj 123 169 loadbang;
#X msg -67 64 analogIns 3 1;
#X msg -65 84 analogIns 4 1;
#X msg -70 252 pinMode 5 input;
#X msg -70 271 pinMode 6 input;
#X msg -71 291 pinMode 7 input;
#X msg -71 312 pinMode 8 input;
#X obj 273 115 hsl 150 17 0 1 0 0 empty empty PWM_control_(0-1) -2
-6 1 10 -260818 -1 -1 8940 1;
#X text 275 163 disable PWM:;
#X obj 434 117 hsl 150 17 0 1 0 0 empty empty PWM_control_(0-1) -2
-6 1 10 -260818 -1 -1 5960 1;
#X text 443 163 disable PWM:;
#X obj 600 116 hsl 150 17 0 1 0 0 empty empty PWM_control_(0-1) -2
-6 1 10 -260818 -1 -1 14751 1;
#X text 605 163 disable PWM:;
#X text 438 84 PIN10:;
#X text 597 83 PIN11:;
#X msg 445 182 pwm 10 0;
#X msg 607 182 pwm 11 0;
#X text 267 81 PIN2:;
#X msg -67 44 analogIns 2 1;
#X msg 188 11 0.6;
#X msg 223 11 0.4;
#X msg 255 10 0.99;
#X obj 370 56 r lights off;
#X text 909 16 comment;
#X msg 123 193 devices;
#N canvas 739 12 609 461 display 0;
#X obj 255 212 inlet;
#X obj 257 275 outlet;
#X obj 305 275 inlet;
#X obj 305 318 outlet;
#X obj 355 318 inlet;
#X obj 355 361 outlet;
#X obj 70 300 receive ARDUINO_TEST_RESET;
#X obj 283 251 mapping/resample 100;
#X obj 333 295 mapping/resample 100;
#X obj 384 333 mapping/resample 100;
#X connect 0 0 7 0;
#X connect 2 0 8 0;
#X connect 4 0 9 0;
#X connect 6 0 7 0;
#X connect 6 0 8 0;
#X connect 6 0 9 0;
#X connect 7 0 1 0;
#X connect 8 0 3 0;
#X connect 9 0 5 0;
#X restore 273 389 pd display values without pegging the CPU;
#X obj 516 500 s fl1;
#X obj 397 504 s fl4;
#X obj -46 473 s oscyl;
#X obj -43 496 s osczl;
#X obj -42 518 s oscxl;
#X msg -67 194 pinMode 2 input;
#X msg -72 332 pinMode 9 pwm;
#X msg 267 137 pwm 11 \$1;
#X msg 435 137 pwm 9 \$1;
#X msg 597 137 pwm 10 \$1;
#X obj 184 535 s xlx;
#X obj 238 381 tgl 15 0 empty empty empty 17 7 0 10 -262144 -1 -1 0
0.000977517;
#X msg -60 423 pinMode 13 input;
#X msg 275 181 pwm 9 0;
#X obj 435 503 s fl3;
#X obj 474 501 s fl2;
#X floatatom 345 443 5 0 0 0 - - -;
#X floatatom 278 451 5 0 0 0 - - -;
#X floatatom 396 442 5 0 0 0 - - -;
#X obj 270 538 s xlz;
#X obj 230 535 s xly;
#X obj 305 79 r r;
#X obj 478 77 r g;
#X obj 636 78 r b;
#X obj 357 566 hsl 128 15 0 1 0 0 empty empty empty -2 -8 0 10 -262144
-1 -1 0 1;
#X obj 574 543 vsl 15 128 0 1 0 0 empty empty empty 0 -9 0 10 -262144
-1 -1 0 1;
#X obj 750 601 s jlu3;
#X obj 645 599 s jlu1;
#X obj 187 437 s jlu4;
#X obj 695 598 s jlu2;
#N canvas 322 213 450 452 onlyone 0;
#X obj 170 102 inlet;
#X obj 164 171 sel 0 1;
#X obj 219 104 inlet;
#X obj 213 173 sel 0 1;
#X obj 271 104 inlet;
#X obj 265 173 sel 0 1;
#X obj 320 106 inlet;
#X obj 314 175 sel 0 1;
#X obj 163 310 outlet;
#X obj 212 309 outlet;
#X obj 266 310 outlet;
#X obj 314 312 outlet;
#X obj 164 136 change;
#X obj 218 138 change;
#X obj 270 135 change;
#X obj 329 134 change;
#X connect 0 0 12 0;
#X connect 1 0 8 0;
#X connect 1 1 8 0;
#X connect 2 0 13 0;
#X connect 3 0 9 0;
#X connect 3 1 9 0;
#X connect 4 0 14 0;
#X connect 5 0 10 0;
#X connect 5 1 10 0;
#X connect 6 0 15 0;
#X connect 7 0 11 0;
#X connect 7 1 11 0;
#X connect 12 0 1 0;
#X connect 13 0 3 0;
#X connect 14 0 5 0;
#X connect 15 0 7 0;
#X restore 690 455 pd onlyone;
#X obj 838 677 s jlb1;
#X obj 938 675 s jlb3;
#X obj 884 676 s jlb2;
#X obj 1000 675 s jlb4;
#X obj 835 597 tgl 15 0 empty empty empty 17 7 0 10 -262144 -1 -1 0
1;
#X obj 833 578 sel 0 1;
#X obj 887 596 tgl 15 0 empty empty empty 17 7 0 10 -262144 -1 -1 0
1;
#X obj 891 576 sel 0 1;
#X obj 951 597 tgl 15 0 empty empty empty 17 7 0 10 -262144 -1 -1 0
1;
#X obj 952 575 sel 0 1;
#X obj 1010 597 tgl 15 0 empty empty empty 17 7 0 10 -262144 -1 -1
0 1;
#X msg 1021 640 0;
#X msg 958 641 0;
#X msg 903 640 0;
#X msg 836 642 0;
#X msg 855 597 1;
#X obj 1015 576 sel 0 1;
#X msg 913 597 2;
#X msg 977 596 3;
#X msg 1039 600 4;
#N canvas 572 227 249 242 bk 0;
#X obj 69 63 tgl 15 0 empty empty empty 17 7 0 10 -262144 -1 -1 0 3
;
#X obj 88 113 tgl 15 0 empty empty empty 17 7 0 10 -262144 -1 -1 0
1;
#X obj 62 44 * 3;
#X floatatom 27 51 5 0 0 0 - - -;
#X floatatom 98 139 5 0 0 0 - - -;
#X obj 59 3 inlet;
#X obj 94 199 outlet;
#X obj 173 68 r flash;
#X msg 176 103 0;
#X obj 42 81 threshold 3 2 1 2;
#X connect 1 0 4 0;
#X connect 1 0 6 0;
#X connect 2 0 0 0;
#X connect 2 0 3 0;
#X connect 2 0 9 0;
#X connect 5 0 2 0;
#X connect 7 0 8 0;
#X connect 8 0 1 0;
#X connect 9 0 1 0;
#X connect 9 1 1 0;
#X restore 850 542 pd bk;
#N canvas 572 227 249 223 bk 0;
#X obj 69 63 tgl 15 0 empty empty empty 17 7 0 10 -262144 -1 -1 0 3
;
#X obj 88 113 tgl 15 0 empty empty empty 17 7 0 10 -262144 -1 -1 0
1;
#X obj 62 44 * 3;
#X floatatom 27 51 5 0 0 0 - - -;
#X floatatom 98 139 5 0 0 0 - - -;
#X obj 59 3 inlet;
#X obj 94 199 outlet;
#X obj 173 68 r flash;
#X msg 176 103 0;
#X obj 42 81 threshold 3 2 1 2;
#X connect 1 0 4 0;
#X connect 1 0 6 0;
#X connect 2 0 0 0;
#X connect 2 0 3 0;
#X connect 2 0 9 0;
#X connect 5 0 2 0;
#X connect 7 0 8 0;
#X connect 8 0 1 0;
#X connect 9 0 1 0;
#X connect 9 1 1 0;
#X restore 887 541 pd bk;
#N canvas 572 227 249 242 bk 0;
#X obj 69 63 tgl 15 0 empty empty empty 17 7 0 10 -262144 -1 -1 0 3
;
#X obj 88 113 tgl 15 0 empty empty empty 17 7 0 10 -262144 -1 -1 0
1;
#X obj 62 44 * 3;
#X floatatom 27 51 5 0 0 0 - - -;
#X floatatom 98 139 5 0 0 0 - - -;
#X obj 59 3 inlet;
#X obj 94 199 outlet;
#X obj 173 68 r flash;
#X msg 176 103 0;
#X obj 42 81 threshold 3 2 1 2;
#X connect 1 0 4 0;
#X connect 1 0 6 0;
#X connect 2 0 0 0;
#X connect 2 0 3 0;
#X connect 2 0 9 0;
#X connect 5 0 2 0;
#X connect 7 0 8 0;
#X connect 8 0 1 0;
#X connect 9 0 1 0;
#X connect 9 1 1 0;
#X restore 923 542 pd bk;
#N canvas 572 227 249 223 bk 0;
#X obj 69 63 tgl 15 0 empty empty empty 17 7 0 10 -262144 -1 -1 0 3
;
#X obj 88 113 tgl 15 0 empty empty empty 17 7 0 10 -262144 -1 -1 0
1;
#X obj 62 44 * 3;
#X floatatom 27 51 5 0 0 0 - - -;
#X floatatom 98 139 5 0 0 0 - - -;
#X obj 59 3 inlet;
#X obj 94 199 outlet;
#X obj 173 68 r flash;
#X msg 176 103 0;
#X obj 42 81 threshold 3 2 1 2;
#X connect 1 0 4 0;
#X connect 1 0 6 0;
#X connect 2 0 0 0;
#X connect 2 0 3 0;
#X connect 2 0 9 0;
#X connect 5 0 2 0;
#X connect 7 0 8 0;
#X connect 8 0 1 0;
#X connect 9 0 1 0;
#X connect 9 1 1 0;
#X restore 968 542 pd bk;
#X obj 481 448 s botx;
#X obj 526 448 s boty;
#X obj 573 449 s botz;
#X text 430 207 these get ported back thru a netsend;
#X obj 601 261 import mrpeach;
#X obj 584 290 tcpclient 3000;
#X obj 119 295 myarduino;
#X connect 0 0 116 0;
#X connect 1 0 66 0;
#X connect 1 0 83 0;
#X connect 1 1 54 0;
#X connect 1 1 79 0;
#X connect 1 1 65 0;
#X connect 1 1 54 1;
#X connect 1 2 54 1;
#X connect 1 2 80 0;
#X connect 1 2 75 0;
#X connect 1 3 54 2;
#X connect 1 3 74 0;
#X connect 1 4 56 0;
#X connect 1 5 69 0;
#X connect 1 6 70 0;
#X connect 1 7 55 0;
#X connect 2 0 15 0;
#X connect 2 1 16 0;
#X connect 2 2 3 0;
#X connect 2 3 4 0;
#X connect 2 4 5 0;
#X connect 2 5 6 0;
#X connect 2 6 7 0;
#X connect 2 7 8 0;
#X connect 2 8 9 0;
#X connect 2 9 10 0;
#X connect 2 10 11 0;
#X connect 2 11 12 0;
#X connect 2 12 13 0;
#X connect 2 13 14 0;
#X connect 3 0 81 0;
#X connect 4 0 89 0;
#X connect 5 0 84 0;
#X connect 6 0 82 0;
#X connect 7 0 87 0;
#X connect 9 0 88 0;
#X connect 13 0 86 0;
#X connect 18 0 116 0;
#X connect 19 0 116 0;
#X connect 20 0 116 0;
#X connect 21 0 116 0;
#X connect 22 0 116 0;
#X connect 23 0 1 0;
#X connect 23 1 2 0;
#X connect 24 0 116 0;
#X connect 25 0 116 0;
#X connect 26 0 116 0;
#X connect 27 0 116 0;
#X connect 28 0 116 0;
#X connect 29 0 20 0;
#X connect 29 0 21 0;
#X connect 29 0 22 0;
#X connect 29 0 18 0;
#X connect 29 0 19 0;
#X connect 29 0 30 0;
#X connect 29 0 31 0;
#X connect 29 0 53 0;
#X connect 29 0 25 0;
#X connect 29 0 24 0;
#X connect 29 0 26 0;
#X connect 29 0 32 0;
#X connect 29 0 33 0;
#X connect 29 0 34 0;
#X connect 29 0 35 0;
#X connect 29 0 61 0;
#X connect 29 0 60 0;
#X connect 29 0 27 0;
#X connect 29 0 28 0;
#X connect 29 0 47 0;
#X connect 29 0 48 0;
#X connect 29 0 49 0;
#X connect 29 0 50 0;
#X connect 29 0 67 0;
#X connect 30 0 116 0;
#X connect 31 0 116 0;
#X connect 32 0 116 0;
#X connect 33 0 116 0;
#X connect 34 0 116 0;
#X connect 35 0 116 0;
#X connect 36 0 62 0;
#X connect 38 0 63 0;
#X connect 40 0 64 0;
#X connect 44 0 116 0;
#X connect 45 0 116 0;
#X connect 47 0 116 0;
#X connect 48 0 36 0;
#X connect 49 0 38 0;
#X connect 50 0 40 0;
#X connect 51 0 68 0;
#X connect 51 0 44 0;
#X connect 51 0 45 0;
#X connect 53 0 116 0;
#X connect 54 0 72 0;
#X connect 54 1 71 0;
#X connect 54 2 73 0;
#X connect 60 0 116 0;
#X connect 61 0 116 0;
#X connect 62 0 116 0;
#X connect 63 0 116 0;
#X connect 64 0 116 0;
#X connect 67 0 116 0;
#X connect 68 0 116 0;
#X connect 76 0 36 0;
#X connect 77 0 38 0;
#X connect 78 0 40 0;
#X connect 90 0 99 0;
#X connect 91 0 90 0;
#X connect 91 1 101 0;
#X connect 92 0 100 0;
#X connect 92 0 98 0;
#X connect 92 0 97 0;
#X connect 93 0 92 0;
#X connect 93 1 103 0;
#X connect 94 0 100 0;
#X connect 94 0 99 0;
#X connect 94 0 97 0;
#X connect 95 0 94 0;
#X connect 95 1 104 0;
#X connect 96 0 98 0;
#X connect 96 0 99 0;
#X connect 96 0 100 0;
#X connect 97 0 94 0;
#X connect 97 0 90 0;
#X connect 98 0 90 0;
#X connect 98 0 96 0;
#X connect 98 0 92 0;
#X connect 99 0 94 0;
#X connect 99 0 96 0;
#X connect 99 0 90 0;
#X connect 100 0 94 0;
#X connect 100 0 96 0;
#X connect 100 0 92 0;
#X connect 101 0 100 0;
#X connect 102 0 96 0;
#X connect 102 1 105 0;
#X connect 103 0 99 0;
#X connect 104 0 98 0;
#X connect 105 0 97 0;
#X connect 106 0 91 0;
#X connect 107 0 93 0;
#X connect 108 0 95 0;
#X connect 109 0 102 0;
#X connect 116 0 23 0;
