#N canvas 0 0 450 300 10;
#X obj 344 17 r jlu1;
#X obj 347 36 change;
#X obj 760 127 bng 30 250 50 0 empty r_jrb2 empty 17 7 0 10 -261234
-1 -1;
#X obj 793 127 bng 30 250 50 0 empty empty empty 17 7 0 10 -261682
-1 -1;
#X obj 752 223 sel 1 0;
#X obj 751 204 change;
#X obj 839 174 sel 1 0;
#X obj 838 155 change;
#X obj 838 136 r jrb2;
#X obj 751 185 r jrb3;
#X obj 431 16 r looperctrl;
#X obj 132 198 bng 15 250 50 0 empty empty empty 17 7 0 10 -262144
-1 -1;
#X obj 189 198 bng 15 250 50 0 empty empty empty 17 7 0 10 -262144
-1 -1;
#X obj 132 217 timer;
#X obj 132 177 spigot 1;
#X obj 433 194 s att;
#X obj 131 157 r att;
#X floatatom 132 240 10 0 0 0 - - -;
#X floatatom 201 354 10 0 0 0 - - -;
#X obj 200 312 / 1000;
#X obj 278 354 s loopsize;
#X obj 131 300 metro;
#X obj 201 394 f \$1;
#X obj 474 175 sel 1;
#X obj 189 216 s stopr;
#X obj 81 243 s start;
#X obj 172 417 pack f f;
#X obj 131 260 t f f;
#X obj 131 281 t b f f;
#X obj 171 394 f \$1;
#X msg 171 439 0 \, \$2 \$1;
#X obj 12 62 bng 30 250 50 0 empty empty empty 17 7 0 10 -159808 -1
-1;
#X obj 433 174 sel 1;
#X obj 433 154 t f f b;
#X obj 440 134 s recdub;
#X obj 495 134 s dub;
#X obj 186 158 r dub;
#X obj 188 178 spigot 1;
#X obj 92 217 del 1;
#X obj 347 61 s clear;
#X obj 760 34 s loopselect;
#X obj 243 311 samplerate~;
#X obj 243 290 loadbang;
#X obj 200 335 * 48000;
#X floatatom 254 335 5 0 0 0 - - -;
#X text 536 14 loop record switch-lju4;
#X obj 760 10 r pgmout;
#X floatatom 814 11 5 0 0 0 - - -;
#X obj 741 282 spigot;
#X obj 741 307 spigot;
#X obj 736 249 t f f;
#X obj 697 220 sel 0 1;
#X obj 698 249 t f f;
#X obj 741 337 mute;
#X obj 774 250 rjb3;
#X obj 697 196 key1-8;
#X text 706 351 momentary mute;
#X obj 844 282 spigot;
#X obj 844 307 spigot;
#X obj 841 199 key1-8;
#X obj 885 199 rjb2;
#X obj 842 242 sel 1;
#X obj 844 264 tgl 15 0 empty empty empty 17 7 0 10 -262144 -1 -1 0
1;
#X obj 844 326 alternate;
#X obj 903 343 s unmute;
#X obj 842 220 t f f;
#X obj 840 346 s muteloop;
#X obj 685 448 spigot 1;
#X obj 741 448 sel 1;
#X obj 741 427 r mute;
#X obj 778 449 tgl 15 0 empty empty empty 17 7 0 10 -262144 -1 -1 0
1;
#X obj 443 79 s looprec;
#X obj 171 460 vline~;
#X obj 171 483 s~ vline;
#X obj 235 102 int;
#X obj 14 14 tgl 30 0 empty empty empty 17 7 0 10 -257985 -1 -1 0 1
;
#X obj 310 59 sel 1;
#X obj 18 107 s length_on_off;
#X msg 210 235 0;
#X obj 313 107 s loopsize;
#X obj 491 198 bng 15 250 50 0 empty empty empty 17 7 0 10 -262144
-1 -1;
#X obj 509 198 bng 15 250 50 0 empty empty empty 17 7 0 10 -262144
-1 -1;
#X obj 472 198 bng 15 250 50 0 empty empty empty 17 7 0 10 -262144
-1 -1;
#X msg 231 53 0;
#X obj 444 114 sel 1 0;
#X text 840 364 feedback latch;
#X obj 511 16 tgl 15 0 empty empty empty 17 7 0 10 -262144 -1 -1 0
1;
#X obj 433 60 tgl 15 0 empty empty empty 17 7 0 10 -262144 -1 -1 0
1;
#X obj 431 36 sel 1 0;
#X msg 312 84 resize 30000;
#X obj 79 63 bng 30 250 50 0 empty empty empty 17 7 0 10 -258113 -1
-1;
#X obj 46 63 bng 30 250 50 0 empty empty empty 17 7 0 10 -4034 -1 -1
;
#X obj 80 14 bng 30 250 50 0 empty empty empty 17 7 0 10 -258113 -1
-1;
#X obj 47 14 bng 30 250 50 0 empty empty empty 17 7 0 10 -260097 -1
-1;
#X floatatom 12 45 5 0 0 0 - - -;
#X obj 455 320 s alarm;
#X msg 416 290 354.331 2 1960.63 0 0 0 0;
#X msg 418 237 165.354 3 1771.65 1110.24 0 0 0;
#X msg 419 263 291.339 2 496.063 448.819 0 0 0;
#X connect 0 0 1 0;
#X connect 1 0 39 0;
#X connect 1 0 76 0;
#X connect 4 0 3 0;
#X connect 5 0 4 0;
#X connect 6 0 2 0;
#X connect 7 0 6 0;
#X connect 8 0 7 0;
#X connect 9 0 5 0;
#X connect 10 0 86 0;
#X connect 10 0 88 0;
#X connect 11 0 13 0;
#X connect 11 0 38 0;
#X connect 12 0 13 1;
#X connect 12 0 24 0;
#X connect 12 0 78 0;
#X connect 13 0 17 0;
#X connect 13 0 94 0;
#X connect 14 0 11 0;
#X connect 14 0 93 0;
#X connect 16 0 14 0;
#X connect 16 0 91 0;
#X connect 17 0 27 0;
#X connect 18 0 20 0;
#X connect 18 0 22 0;
#X connect 19 0 43 0;
#X connect 21 0 29 0;
#X connect 21 0 31 0;
#X connect 22 0 26 1;
#X connect 26 0 30 0;
#X connect 27 0 28 0;
#X connect 27 1 19 0;
#X connect 28 0 21 0;
#X connect 28 1 21 1;
#X connect 28 2 29 0;
#X connect 29 0 26 0;
#X connect 30 0 72 0;
#X connect 32 0 15 0;
#X connect 32 0 82 0;
#X connect 32 0 97 0;
#X connect 33 0 32 0;
#X connect 33 1 23 0;
#X connect 36 0 37 0;
#X connect 36 0 90 0;
#X connect 37 0 12 0;
#X connect 37 0 92 0;
#X connect 38 0 25 0;
#X connect 41 0 43 1;
#X connect 41 0 44 0;
#X connect 42 0 41 0;
#X connect 43 0 18 0;
#X connect 46 0 40 0;
#X connect 46 0 47 0;
#X connect 48 0 49 0;
#X connect 49 0 53 0;
#X connect 50 0 48 0;
#X connect 50 1 49 1;
#X connect 51 0 52 0;
#X connect 51 1 50 0;
#X connect 52 0 49 1;
#X connect 52 1 48 0;
#X connect 54 0 48 1;
#X connect 55 0 51 0;
#X connect 57 0 58 0;
#X connect 58 0 63 0;
#X connect 59 0 65 0;
#X connect 60 0 57 1;
#X connect 61 0 62 0;
#X connect 62 0 57 0;
#X connect 63 0 66 0;
#X connect 63 1 64 0;
#X connect 65 0 61 0;
#X connect 65 1 58 1;
#X connect 68 0 67 1;
#X connect 68 0 70 0;
#X connect 69 0 68 0;
#X connect 72 0 73 0;
#X connect 74 0 14 1;
#X connect 74 0 37 1;
#X connect 75 0 74 0;
#X connect 75 0 77 0;
#X connect 75 0 83 0;
#X connect 76 0 75 0;
#X connect 76 0 89 0;
#X connect 76 0 96 0;
#X connect 78 0 75 0;
#X connect 84 0 34 0;
#X connect 84 0 80 0;
#X connect 84 1 35 0;
#X connect 84 1 81 0;
#X connect 84 1 98 0;
#X connect 87 0 84 0;
#X connect 87 0 33 0;
#X connect 87 0 71 0;
#X connect 88 0 87 0;
#X connect 89 0 79 0;
#X connect 96 0 95 0;
#X connect 97 0 95 0;
#X connect 98 0 95 0;
