#N canvas 106 83 1024 730 10;
#X obj 503 106 tgl 30 0 empty empty empty 17 7 0 10 -159808 -1 -1 1
1;
#X obj 469 106 tgl 30 0 empty empty empty 17 7 0 10 -159808 -1 -1 1
1;
#X obj 435 106 tgl 30 0 empty empty empty 17 7 0 10 -159808 -1 -1 1
1;
#X obj 402 128 tgl 30 0 empty empty empty 17 7 0 10 -159808 -1 -1 1
1;
#X obj 567 103 tgl 30 0 empty empty empty 17 7 0 10 -159808 -1 -1 1
1;
#X obj 600 103 tgl 30 0 empty empty empty 17 7 0 10 -159808 -1 -1 1
1;
#X obj 632 103 tgl 30 0 empty empty empty 17 7 0 10 -159808 -1 -1 1
1;
#X obj 665 125 tgl 30 0 empty empty empty 17 7 0 10 -159808 -1 -1 1
1;
#X text 401 111 Left;
#X text 664 107 Right;
#X obj 613 -54 > 0.1;
#X obj 649 -54 > 0.1;
#X obj 721 -54 > 0.07;
#X text 510 114 1;
#X text 475 113 2;
#X text 441 114 3;
#X text 408 134 4;
#X obj 393 167 s flash;
#X obj 436 141 bng 15 250 50 0 empty empty empty 17 7 0 10 -262144
-1 -1;
#X text 607 111 2;
#X text 641 109 3;
#X text 575 110 1;
#X text 673 133 8;
#X obj 387 -74 r fl4-5;
#X obj 435 -75 r fl3-5;
#X obj 483 -76 r fl2-5;
#X obj 533 -75 r fl1-5;
#X obj 596 -78 r fr4-5;
#X obj 644 -78 r fr2-5;
#X obj 683 -78 r fr3-5;
#X obj 728 -78 r fr1-5;
#X obj 532 192 s mute1;
#X obj 470 193 s mute2;
#X obj 410 193 s mute3;
#X obj 349 193 s mute4;
#X obj 603 195 s mute5;
#X obj 666 194 s mute6;
#X obj 730 194 s mute7;
#X obj 793 194 s mute8;
#X obj 262 -43 loadbang;
#X msg 332 -57 1;
#X obj 409 -25 bk;
#X obj 450 -23 bk;
#X obj 494 -23 bk;
#X obj 535 -23 bk;
#X obj 611 -21 bk;
#X obj 652 -19 bk;
#X obj 696 -19 bk;
#X obj 737 -19 bk;
#X obj 485 -53 > 0.1;
#X obj 440 -53 > 0.1;
#X obj 395 -50 > 0.1;
#X floatatom 568 -57 5 0 0 0 - - -;
#X obj 528 -53 > 0.5;
#X obj 492 13 sel 1;
#X obj 533 14 sel 1;
#X obj 410 13 sel 1;
#X obj 451 14 sel 1;
#X obj 669 18 sel 1;
#X obj 710 19 sel 1;
#X obj 587 18 sel 1;
#X obj 628 19 sel 1;
#X obj 685 -54 > 0.3;
#X connect 0 0 31 0;
#X connect 1 0 32 0;
#X connect 2 0 33 0;
#X connect 3 0 34 0;
#X connect 4 0 35 0;
#X connect 5 0 36 0;
#X connect 6 0 37 0;
#X connect 7 0 38 0;
#X connect 10 0 45 0;
#X connect 11 0 46 0;
#X connect 12 0 48 0;
#X connect 18 0 17 0;
#X connect 23 0 51 0;
#X connect 24 0 50 0;
#X connect 25 0 49 0;
#X connect 26 0 52 0;
#X connect 26 0 53 0;
#X connect 27 0 10 0;
#X connect 28 0 11 0;
#X connect 29 0 62 0;
#X connect 30 0 12 0;
#X connect 39 0 40 0;
#X connect 40 0 3 0;
#X connect 40 0 2 0;
#X connect 40 0 1 0;
#X connect 40 0 0 0;
#X connect 40 0 4 0;
#X connect 40 0 5 0;
#X connect 40 0 6 0;
#X connect 40 0 7 0;
#X connect 41 0 56 0;
#X connect 42 0 57 0;
#X connect 43 0 54 0;
#X connect 44 0 55 0;
#X connect 45 0 60 0;
#X connect 46 0 61 0;
#X connect 47 0 58 0;
#X connect 48 0 59 0;
#X connect 49 0 43 0;
#X connect 50 0 42 0;
#X connect 51 0 41 0;
#X connect 53 0 44 0;
#X connect 54 0 1 0;
#X connect 55 0 0 0;
#X connect 56 0 3 0;
#X connect 57 0 2 0;
#X connect 58 0 6 0;
#X connect 59 0 7 0;
#X connect 60 0 4 0;
#X connect 61 0 5 0;
#X connect 62 0 47 0;
#X coords 0 -1 1 1 300 60 1 400 100;
