#N canvas 541 45 1096 649 12;
#X msg 199 357 disconnect;
#X obj 219 439 unpack 0 0 0 0;
#X floatatom 219 462 3 0 0 0 - - -;
#X floatatom 250 462 3 0 0 0 - - -;
#X floatatom 282 462 3 0 0 0 - - -;
#X floatatom 314 462 3 0 0 0 - - -;
#X text 179 461 from;
#X obj 199 387 tcpclient;
#X obj 239 413 tgl 15 0 empty empty connected 18 7 0 8 -24198 -13381
-1 0 1;
#X obj 162 366 tgl 15 0 empty empty empty 0 -6 0 8 -4034 -13381 -1
0 1;
#X text 270 386 tcpclient opens a tcp socket to send and receive bytes
on;
#X text -217 305 See also:;
#X obj -212 329 netclient;
#X obj -212 352 tcpreceive;
#X text -214 374 can receive messages from tcpclient;
#X text -136 328 is what tcpclient is based on;
#X text 250 513 Received messages are output as a list of bytes;
#X obj -84 352 tcpserver;
#X text -118 351 and;
#X text 347 -55 tcpclient can connect to a server and send and receive
messages as lists of bytes. Any integer value between 0 and 255 can
be transmitted or received.;
#X text 545 281 'send' prefix is optional;
#X obj 199 514 spigot;
#X obj 238 491 tgl 15 0 empty empty enable_print 18 7 0 8 -24198 -13381
-1 1 1;
#X obj 199 543 print >>>;
#X floatatom 374 483 9 0 0 0 - - -;
#X floatatom 424 457 9 0 0 0 - - -;
#X text 493 456 Size of the send buffer;
#X text 271 542 Attempting to print long messages can hang Pd!;
#X obj 374 407 route sent buf blocked;
#X text -208 540 2010/03/26 Martin Peach;
#X text 444 482 Number of bytes sent;
#X obj 474 433 print sender_blocked!;
#N canvas 529 268 494 344 META 0;
#X text 12 215 HELP_PATCH_AUTHORS "pd meta" information added by Jonathan
Wilkes for Pd version 0.42.;
#X text 12 195 AUTHOR Martin Peach;
#X text 12 45 DESCRIPTION connect to a server and send and receive
messages as lists of bytes;
#X text 12 25 LICENSE GPL v2 or later;
#X text 12 85 INLET_0 list buf verbosity connect send disconnect dump
unblock;
#X text 12 115 OUTLET_0 list;
#X text 12 5 KEYWORDS control network;
#X text 12 135 OUTLET_1 list;
#X text 12 155 OUTLET_2 float;
#X text 12 175 OUTLET_3 sent buf blocked;
#X restore 733 551 pd META;
#X msg 184 331 connect 192.168.1.148 3333;
#X text 289 362;
#X connect 0 0 7 0;
#X connect 1 0 2 0;
#X connect 1 1 3 0;
#X connect 1 2 4 0;
#X connect 1 3 5 0;
#X connect 7 0 21 0;
#X connect 7 1 1 0;
#X connect 7 2 8 0;
#X connect 7 3 28 0;
#X connect 21 0 23 0;
#X connect 22 0 21 1;
#X connect 28 0 24 0;
#X connect 28 1 25 0;
#X connect 28 2 31 0;
#X connect 33 0 7 0;
