#N canvas 4 55 450 300 10;
#N canvas 1171 57 738 564 netreceive 0;
#X obj -354 211 s key1;
#X obj -312 210 s key2;
#X obj -271 210 s key3;
#X obj -228 211 s key4;
#X obj -182 212 s key5;
#X obj -140 212 s key6;
#X obj -98 212 s key7;
#X obj -54 211 s key8;
#X obj -352 239 s frange1;
#X obj -291 239 s frange2;
#X obj -230 240 s frange3;
#X obj -168 241 s frange4;
#X obj -253 267 s yaxis;
#X obj -353 267 s xaxis;
#X obj -301 268 s zaxis;
#X obj -104 241 s frange5;
#X obj -44 241 s frange6;
#X obj 16 242 s frange7;
#X obj 75 241 s frange8;
#X obj -202 268 s xaxisr;
#X obj -148 268 s yaxisr;
#X obj -92 268 s zaxisr;
#X obj -352 291 s r;
#X obj -325 291 s g;
#X obj -300 292 s b;
#X obj -349 323 s xrz;
#X obj -312 323 s note;
#X obj -268 322 s breath;
#X obj -268 292 s jlb1;
#X obj -226 292 s jlb2;
#X obj -184 292 s jlb3;
#X obj -142 292 s jlb4;
#X obj -54 325 s jlu4;
#X obj -97 326 s jlu3;
#X obj -142 326 s jlu2;
#X obj -188 325 s jlu1;
#X obj -310 391 s jrb1;
#X obj -257 388 s jrb2;
#X obj -203 390 s jrb3;
#X obj -150 391 s jrb4;
#X obj -83 389 s rjuforward;
#X obj -6 388 s rjuback;
#X obj 54 388 s rjuup;
#X obj 102 388 s rjudown;
#X obj -334 120 route 1 2 3 4 5 6 7 8 9 10 11 12 13 14 15 16 17 18
19 20 21 22 23 24 25 26 27 28 29 30 31 32 33 34 35 36 37 38 39 40 41
42 43 44;
#X obj -332 89 netreceiv 3000 1;
#X connect 44 0 0 0;
#X connect 44 1 1 0;
#X connect 44 2 2 0;
#X connect 44 3 3 0;
#X connect 44 4 4 0;
#X connect 44 5 5 0;
#X connect 44 6 6 0;
#X connect 44 7 7 0;
#X connect 44 8 8 0;
#X connect 44 9 9 0;
#X connect 44 10 10 0;
#X connect 44 11 11 0;
#X connect 44 12 15 0;
#X connect 44 13 16 0;
#X connect 44 14 17 0;
#X connect 44 15 18 0;
#X connect 44 16 13 0;
#X connect 44 17 14 0;
#X connect 44 18 12 0;
#X connect 44 19 19 0;
#X connect 44 20 20 0;
#X connect 44 21 21 0;
#X connect 44 22 22 0;
#X connect 44 23 23 0;
#X connect 44 24 24 0;
#X connect 44 25 25 0;
#X connect 44 26 26 0;
#X connect 44 27 27 0;
#X connect 44 28 28 0;
#X connect 44 29 29 0;
#X connect 44 30 30 0;
#X connect 44 31 31 0;
#X connect 44 32 35 0;
#X connect 44 33 34 0;
#X connect 44 34 33 0;
#X connect 44 35 32 0;
#X connect 44 36 36 0;
#X connect 44 37 37 0;
#X connect 44 38 38 0;
#X connect 44 39 39 0;
#X connect 44 40 40 0;
#X connect 44 41 41 0;
#X connect 44 42 42 0;
#X connect 44 43 43 0;
#X connect 45 0 44 0;
#X restore 184 81 pd netreceive;
