#N canvas 12 306 1279 681 10;
#X obj 141 79 / 127;
#X obj 140 101 - 0.5;
#X obj 65 120 gemhead 99;
#X msg 64 98 1;
#X msg 101 98 0;
#X obj 65 77 sel 1 0;
#X obj 292 122 gemhead 99;
#X obj 386 108 - 0.05;
#X obj 387 88 / 127;
#X msg 292 101 1;
#X msg 329 101 0;
#X obj 293 78 sel 1 0;
#X obj 513 232 loadbang;
#X msg 490 170 1;
#X msg 527 170 0;
#X obj 297 247 colorRGB;
#X obj 67 243 colorRGB;
#X obj 489 149 sel 1 0;
#X obj 140 121 average 10;
#X obj 386 130 average 10;
#X obj 579 102 tgl 15 0 empty empty empty 17 7 0 10 -262144 -1 -1 0
1;
#X obj 622 92 sel 0 1;
#X text 78 280 x-crosshair;
#X text 316 286 y-crosshair;
#X text 542 290 text update. can be sent to somewhere centralized if
the text window is going to be central;
#X obj 180 346 gemhead 10;
#X msg 249 345 1 1 1;
#X msg 268 327 1 0 0;
#X msg 192 435 draw line;
#X obj 180 375 color;
#X obj 192 416 loadbang;
#X obj 249 306 sel 0 1;
#X obj 488 296 color;
#X obj 490 191 gemhead 99;
#X obj 370 51 s n;
#X text 355 32 the haptic tone for this node;
#X obj 178 453 square 0.5;
#X obj 68 266 rectangle 0.02 0.5;
#X obj 296 269 rectangle 0.5 0.02;
#X obj 290 4 sel 0 1;
#X obj 290 52 s haptic-vol;
#X msg 290 30 0;
#X floatatom 183 89 5 0 0 0 - - -;
#X obj 76 184 r r;
#X obj 88 202 r g;
#X obj 99 220 r b;
#X obj 330 228 r b;
#X obj 319 210 r g;
#X obj 308 191 r r;
#X obj 296 171 translateXYZ 0 2.05 0;
#X msg 532 275 1 1 1;
#X msg 320 29 0.03;
#X obj 66 141 translateXYZ -5 2.5 0;
#X msg 521 251 3;
#X obj 489 212 translateXYZ 0 -0.8 0;
#X text 245 9 comment;
#X msg 622 112 text;
#X msg 379 -17 1000;
#X obj 489 319 text3d node-parameters;
#X floatatom 110 42 5 0 0 0 - - -;
#X floatatom 402 55 5 0 0 0 - - -;
#X obj 179 396 translateXYZ -2.1 2.5 0;
#X obj 66 165 translateXYZ -2.1 0 0;
#X obj 296 150 translateXYZ -2.1 2 0;
#X obj 559 102 tgl 15 0 empty empty empty 17 7 0 10 -262144 -1 -1 0
1;
#X msg 662 114 text amplitude;
#X obj 622 45 spigot;
#X obj 141 -10 r \$0-n\$1x;
#X obj 206 -12 r \$0-n\$1y;
#X obj 688 7 r textlatch\$1;
#X obj 488 126 r n\$1text;
#X obj 622 167 s n\$1text;
#X obj 289 -19 r nodenumber\$1;
#X obj 627 8 inlet pgm;
#X obj 799 125 outlet parameter_text;
#X obj 804 9 inlet textparameter;
#X connect 0 0 1 0;
#X connect 1 0 18 0;
#X connect 2 0 52 0;
#X connect 3 0 2 0;
#X connect 4 0 2 0;
#X connect 5 0 3 0;
#X connect 5 1 4 0;
#X connect 6 0 63 0;
#X connect 7 0 19 0;
#X connect 8 0 7 0;
#X connect 9 0 6 0;
#X connect 10 0 6 0;
#X connect 11 0 9 0;
#X connect 11 1 10 0;
#X connect 12 0 53 0;
#X connect 12 0 50 0;
#X connect 13 0 33 0;
#X connect 14 0 33 0;
#X connect 15 0 38 0;
#X connect 16 0 37 0;
#X connect 17 0 13 0;
#X connect 17 1 14 0;
#X connect 18 0 52 1;
#X connect 19 0 63 2;
#X connect 20 0 21 0;
#X connect 21 0 56 0;
#X connect 21 1 65 0;
#X connect 21 1 74 0;
#X connect 25 0 29 0;
#X connect 26 0 29 1;
#X connect 27 0 29 1;
#X connect 28 0 36 0;
#X connect 29 0 61 0;
#X connect 30 0 28 0;
#X connect 31 0 26 0;
#X connect 31 1 27 0;
#X connect 32 0 58 0;
#X connect 33 0 54 0;
#X connect 39 0 41 0;
#X connect 39 1 57 0;
#X connect 39 1 51 0;
#X connect 41 0 40 0;
#X connect 43 0 16 1;
#X connect 44 0 16 2;
#X connect 45 0 16 3;
#X connect 46 0 15 3;
#X connect 47 0 15 2;
#X connect 48 0 15 1;
#X connect 49 0 15 0;
#X connect 50 0 32 1;
#X connect 51 0 40 0;
#X connect 52 0 62 0;
#X connect 53 0 58 1;
#X connect 54 0 32 0;
#X connect 56 0 71 0;
#X connect 57 0 34 0;
#X connect 59 0 0 0;
#X connect 60 0 8 0;
#X connect 61 0 36 0;
#X connect 62 0 16 0;
#X connect 63 0 49 0;
#X connect 65 0 71 0;
#X connect 66 0 20 0;
#X connect 66 0 17 0;
#X connect 67 0 0 0;
#X connect 67 0 42 0;
#X connect 68 0 8 0;
#X connect 69 0 66 1;
#X connect 70 0 58 0;
#X connect 72 0 31 0;
#X connect 72 0 39 0;
#X connect 72 0 64 0;
#X connect 72 0 5 0;
#X connect 72 0 11 0;
#X connect 73 0 66 0;
#X connect 75 0 71 0;
#X coords 0 -1 1 1 100 20 1 500 100;
