#N canvas 1079 0 961 663 10;
#X obj -22 9 cnv 15 300 100 empty empty empty 20 12 0 14 -258113 -66577
0;
#X obj 48 24 r lip;
#X obj -16 31 value;
#X obj 213 27 r pgmout;
#X text 6 7 Incoming controller data;
#X msg 292 11 \; pd dsp 1;
#X msg 368 11 \; pd dsp 0;
#N canvas 0 0 450 300 (subpatch) 0;
#X array noisemaker 100 float 5;
#A 0 0 0 0 0 0 0 0 0 0 0 0 0 0 0 0 0 0 0 0 0 0 0 0 0 0 0 0 0 0 0 0
0 0 0 0 0 0 0 0 0 0 0 0 0 0 0 0 0 0 0 0 0 0 0 0 0 0 0 0 0 0 0 0 0 0
0 0 0 0 0 0 0 0 0 0 0 0 0 0 0 0 0 0 0 0 0 0 0 0 0 0 0 0 0 0 0 0 0 0
0;
#X coords 0 1 99 -1 200 140 1;
#X restore 49 225 graph;
#X floatatom 569 391 5 0 0 0 - - -;
#X obj 569 371 r breath;
#X obj 472 8 cnv 15 200 200 empty empty empty 20 12 0 14 -260097 -66577
0;
#N canvas 0 0 1024 716 osc 0;
#X obj 110 17 r~ osc1;
#X obj 380 34 r~ osc2;
#X obj 684 47 r~ osc3;
#X obj 144 256 r 1gx;
#X obj 142 277 / 127;
#X obj 121 596 outlet~;
#X obj 390 596 outlet~;
#X obj 682 598 outlet~;
#X floatatom 176 279 5 0 0 0 - - -;
#X obj 126 306 *~ 0.1;
#X obj 131 164 +~ 1;
#X floatatom 273 159 5 0 0 0 - - -;
#X obj 133 122 clip 0 127;
#X text 277 137 Depth;
#X text 170 98 Rate;
#X obj 134 102 - 5;
#X obj 134 80 average 10;
#X obj 131 143 osc~ 0.25;
#X text 841 151 Depth;
#X obj 152 210 *~;
#X text 203 58 amp lfo mod;
#X floatatom 35 144 5 0 0 0 - - -;
#X obj -55 97 clip 0 127;
#X text 89 112 Depth;
#X text -18 73 Rate;
#X obj -54 77 - 5;
#X obj -54 55 average 10;
#X obj 21 94 clip 0 5000;
#X obj -57 118 osc~ 0.25;
#X text 858 402 Depth;
#X obj 209 119 clip 0 127;
#X obj 202 193 *~;
#X obj 136 61 r 11gx;
#X obj -52 36 r 10gx;
#X obj 212 92 r 11gy;
#X obj 24 67 r 10gy;
#X obj 243 159 * 10;
#X obj 6 148 * 10;
#X obj -36 168 +~ 1;
#X obj -36 188 *~;
#X obj -61 221 +~;
#X obj 421 317 / 127;
#X floatatom 455 319 5 0 0 0 - - -;
#X obj 405 346 *~ 0.1;
#X obj 410 204 +~ 1;
#X floatatom 552 199 5 0 0 0 - - -;
#X obj 412 162 clip 0 127;
#X text 287 147 Depth;
#X text 180 108 Rate;
#X obj 413 142 - 5;
#X obj 413 120 average 10;
#X obj 410 183 osc~ 0.25;
#X obj 413 260 *~;
#X text 213 68 amp lfo mod;
#X text 99 122 Depth;
#X obj 488 159 clip 0 127;
#X obj 481 233 *~;
#X obj 415 101 r 11gx;
#X obj 491 132 r 11gy;
#X obj 522 199 * 10;
#X obj 693 323 / 127;
#X floatatom 727 325 5 0 0 0 - - -;
#X obj 677 352 *~ 0.1;
#X obj 682 210 +~ 1;
#X floatatom 824 205 5 0 0 0 - - -;
#X obj 684 168 clip 0 127;
#X text 828 183 Depth;
#X text 721 144 Rate;
#X obj 685 148 - 5;
#X obj 685 126 average 10;
#X obj 682 189 osc~ 0.25;
#X obj 683 267 *~;
#X text 754 104 amp lfo mod;
#X text 640 158 Depth;
#X obj 760 165 clip 0 127;
#X obj 753 239 *~;
#X obj 687 107 r 11gx;
#X obj 763 138 r 11gy;
#X obj 794 205 * 10;
#X obj 423 296 r 2gx;
#X obj 695 302 r 3gx;
#X obj 685 524 +~ 0.01;
#X obj 396 531 +~ 0.01;
#X obj 135 544 +~ 0.01;
#X obj 208 396 limiter~;
#X connect 0 0 9 0;
#X connect 1 0 43 0;
#X connect 2 0 62 0;
#X connect 3 0 4 0;
#X connect 4 0 8 0;
#X connect 4 0 9 1;
#X connect 9 0 83 0;
#X connect 10 0 31 0;
#X connect 12 0 17 0;
#X connect 15 0 12 0;
#X connect 16 0 15 0;
#X connect 17 0 10 0;
#X connect 19 0 9 0;
#X connect 22 0 28 0;
#X connect 25 0 22 0;
#X connect 26 0 25 0;
#X connect 27 0 37 0;
#X connect 28 0 38 0;
#X connect 30 0 36 0;
#X connect 31 0 19 1;
#X connect 32 0 16 0;
#X connect 33 0 26 0;
#X connect 34 0 30 0;
#X connect 35 0 27 0;
#X connect 36 0 11 0;
#X connect 36 0 31 1;
#X connect 37 0 21 0;
#X connect 37 0 39 1;
#X connect 38 0 39 0;
#X connect 39 0 40 1;
#X connect 41 0 42 0;
#X connect 41 0 43 1;
#X connect 43 0 82 0;
#X connect 44 0 56 0;
#X connect 46 0 51 0;
#X connect 49 0 46 0;
#X connect 50 0 49 0;
#X connect 51 0 44 0;
#X connect 52 0 43 0;
#X connect 55 0 59 0;
#X connect 56 0 52 1;
#X connect 57 0 50 0;
#X connect 58 0 55 0;
#X connect 59 0 45 0;
#X connect 59 0 56 1;
#X connect 60 0 61 0;
#X connect 60 0 62 1;
#X connect 62 0 81 0;
#X connect 63 0 75 0;
#X connect 65 0 70 0;
#X connect 68 0 65 0;
#X connect 69 0 68 0;
#X connect 70 0 63 0;
#X connect 71 0 62 0;
#X connect 74 0 78 0;
#X connect 75 0 71 1;
#X connect 76 0 69 0;
#X connect 77 0 74 0;
#X connect 78 0 64 0;
#X connect 78 0 75 1;
#X connect 79 0 41 0;
#X connect 80 0 60 0;
#X connect 81 0 7 0;
#X connect 82 0 6 0;
#X connect 83 0 5 0;
#X restore 526 158 pd osc volume;
#X text 509 7 KEY 1-FUNCTIONS 1 2 3;
#X text 507 18 OSCILLATOR TYPE/VOLUME;
#N canvas 387 163 450 300 lfo 0;
#X obj 256 21 inlet~;
#X obj 297 253 outlet~;
#X obj 197 83 r 10gx;
#X obj 196 104 r 10gy;
#X obj 199 132 r 11gx;
#X obj 198 151 r 11gy;
#X connect 0 0 1 0;
#X restore 533 220 pd lfo array;
#N canvas 0 0 1024 716 filter 0;
#X obj 283 607 outlet~;
#X floatatom 560 442 5 0 0 0 - - -;
#X obj 506 441 clip 0 4;
#X text 521 469 Resonance;
#X obj 142 14 inlet~;
#X obj 224 12 inlet~;
#X obj 477 418 r breath;
#X obj 364 192 *~ 1.5;
#X obj 399 241 spigot~;
#X obj 482 245 spigot~;
#X obj 557 237 spigot~;
#X obj 641 239 spigot~;
#X obj 712 241 spigot~;
#X obj 436 291 lop~;
#X obj 521 289 hip~;
#X obj 597 287 bp~;
#X obj 678 290 vcf~;
#X obj 752 289 moog~;
#X msg 448 63 1;
#X msg 502 62 2;
#X msg 551 62 3;
#X msg 617 59 4;
#X msg 663 61 5;
#X obj 476 92 int;
#X obj 443 119 == 1;
#X obj 471 119 == 2;
#X obj 500 118 == 3;
#X obj 529 118 == 4;
#X obj 558 117 == 5;
#X obj 677 2 r f7moog;
#X obj 610 4 r f7vcf;
#X obj 523 4 r f7bandpass;
#X obj 446 4 r f7hipass;
#X obj 363 6 r f7lowpass;
#X obj 103 125 tgl 15 0 empty empty empty 17 7 0 10 -262144 -1 -1 0
1;
#X obj 103 143 tgl 15 0 empty empty empty 17 7 0 10 -262144 -1 -1 0
1;
#X obj 103 179 tgl 15 0 empty empty empty 17 7 0 10 -262144 -1 -1 0
1;
#X obj 103 161 tgl 15 0 empty empty empty 17 7 0 10 -262144 -1 -1 1
1;
#X obj 103 107 tgl 15 0 empty empty empty 17 7 0 10 -262144 -1 -1 0
1;
#X text 107 194 1;
#X obj 487 298 bng 15 250 50 0 empty empty empty 17 7 0 10 -262144
-1 -1;
#X obj 307 423 *~ 0.4;
#X floatatom 516 524 5 0 0 0 - - -;
#X obj 401 454 mtof~;
#X obj 334 480 moog~ 220 3;
#X obj 812 150 mtof;
#X obj 735 147 mtof~;
#X obj 660 149 mtof;
#X obj 355 422 *~ 0.9;
#X obj 752 82 r 8gx;
#X obj 809 79 r 8gy;
#X obj 267 542 +~;
#X obj 284 572 +~;
#X obj 320 511 hip~ 40;
#X connect 2 0 1 0;
#X connect 2 0 44 2;
#X connect 4 0 41 0;
#X connect 4 0 51 0;
#X connect 5 0 7 0;
#X connect 6 0 42 0;
#X connect 6 0 43 0;
#X connect 7 0 8 0;
#X connect 7 0 9 0;
#X connect 7 0 10 0;
#X connect 7 0 11 0;
#X connect 7 0 12 0;
#X connect 8 1 13 0;
#X connect 9 1 14 0;
#X connect 10 1 15 0;
#X connect 11 1 16 0;
#X connect 12 1 17 0;
#X connect 13 0 48 0;
#X connect 14 0 48 0;
#X connect 15 0 48 0;
#X connect 16 0 48 0;
#X connect 17 0 48 0;
#X connect 18 0 23 0;
#X connect 19 0 23 0;
#X connect 20 0 23 0;
#X connect 21 0 23 0;
#X connect 22 0 23 0;
#X connect 23 0 24 0;
#X connect 23 0 25 0;
#X connect 23 0 26 0;
#X connect 23 0 27 0;
#X connect 23 0 28 0;
#X connect 24 0 36 0;
#X connect 25 0 37 0;
#X connect 26 0 35 0;
#X connect 27 0 34 0;
#X connect 28 0 38 0;
#X connect 29 0 22 0;
#X connect 30 0 21 0;
#X connect 31 0 20 0;
#X connect 32 0 19 0;
#X connect 33 0 18 0;
#X connect 34 0 11 1;
#X connect 35 0 10 1;
#X connect 36 0 8 1;
#X connect 37 0 9 1;
#X connect 38 0 12 1;
#X connect 43 0 44 1;
#X connect 44 0 53 0;
#X connect 45 0 14 1;
#X connect 45 0 13 1;
#X connect 46 0 16 1;
#X connect 46 0 17 1;
#X connect 47 0 15 1;
#X connect 48 0 44 0;
#X connect 49 0 46 0;
#X connect 49 0 47 0;
#X connect 50 0 17 2;
#X connect 50 0 16 2;
#X connect 50 0 45 0;
#X connect 50 0 15 2;
#X connect 51 0 52 0;
#X connect 52 0 0 0;
#X connect 53 0 51 1;
#X coords 0 -1 1 1 20 120 2 100 100;
#X restore 534 248 pd filter array;
#X obj 630 493 tabwrite~ noisemaker;
#X obj 632 472 metro 10;
#X obj 647 448 loadbang;
#X obj 570 409 / 127;
#X obj 537 547 dac~;
#X obj 537 430 *~ 0.7;
#X obj 598 279 *~;
#X obj 691 133 cnv 15 200 100 empty empty empty 20 12 0 14 -260097
-66577 0;
#X obj 704 160 pack f f f;
#X msg 703 183 1 \$1 \, 0.7 \$2 \, 0 \$3;
#X floatatom 771 131 5 0 0 0 - - -;
#X floatatom 733 131 5 0 0 0 - - -;
#X floatatom 699 131 5 0 0 0 - - -;
#X text 802 153 ADR;
#X obj 691 32 cnv 15 120 70 empty empty empty 20 12 0 14 -4032 -66577
0;
#X text 736 53 decay Yaxis;
#X text 733 31 attack Xaxis;
#X text 735 77 Release Xaixs;
#X obj 704 212 vline~;
#X obj 694 33 r 7gx;
#X obj 693 53 r 8gy;
#X obj 693 73 r 9gx;
#X text 128 497 <-- feedback (100 maximum);
#X text 108 522 <-- open to see how it works;
#X obj 159 613 freeverb~;
#X msg 83 594 wet \$1;
#X floatatom 72 550 5 0 0 0 - - -;
#X msg 18 644 roomsize \$1;
#X floatatom 14 591 5 0 0 0 - - -;
#X floatatom 48 470 1 0 0 0 - - -;
#X msg 59 514 freeze \$1;
#X obj 621 436 bng 15 250 50 0 empty empty empty 17 7 0 10 -262144
-1 -1;
#N canvas 1032 64 1016 664 osc 0;
#X obj 268 -94 r f1xlrmtr;
#X obj 221 -93 r f1voc;
#X obj 156 -91 r f1square;
#X obj 108 -91 r f1saw;
#X obj 54 -90 r f1sine;
#X obj 554 -95 r f2xlrmtr;
#X obj 504 -95 r f2voc;
#X obj 437 -95 r f2square;
#X obj 390 -96 r f2saw;
#X obj 335 -96 r f2sine;
#X msg 54 -68 1;
#X msg 108 -69 2;
#X msg 157 -69 3;
#X msg 223 -72 4;
#X msg 269 -70 5;
#X obj 82 -39 int;
#X obj 49 -12 == 1;
#X obj 77 -12 == 2;
#X obj 106 -13 == 3;
#X obj 135 -13 == 4;
#X obj 164 -14 == 5;
#X obj 75 124 tgl 15 0 empty empty empty 17 7 0 10 -262144 -1 -1 0
1;
#X obj 76 142 tgl 15 0 empty empty empty 17 7 0 10 -262144 -1 -1 0
1;
#X obj 76 178 tgl 15 0 empty empty empty 17 7 0 10 -262144 -1 -1 0
1;
#X obj 76 160 tgl 15 0 empty empty empty 17 7 0 10 -262144 -1 -1 0
1;
#X obj 74 106 tgl 15 0 empty empty empty 17 7 0 10 -262144 -1 -1 1
1;
#X text 80 193 1;
#X msg 337 -65 1;
#X msg 391 -66 2;
#X msg 440 -66 3;
#X msg 506 -69 4;
#X msg 552 -67 5;
#X obj 365 -36 int;
#X obj 332 -9 == 1;
#X obj 360 -9 == 2;
#X obj 389 -10 == 3;
#X obj 418 -10 == 4;
#X obj 447 -11 == 5;
#X obj 94 123 tgl 15 0 empty empty empty 17 7 0 10 -262144 -1 -1 0
1;
#X obj 95 142 tgl 15 0 empty empty empty 17 7 0 10 -262144 -1 -1 0
1;
#X obj 95 179 tgl 15 0 empty empty empty 17 7 0 10 -262144 -1 -1 1
1;
#X obj 95 160 tgl 15 0 empty empty empty 17 7 0 10 -262144 -1 -1 0
1;
#X obj 93 106 tgl 15 0 empty empty empty 17 7 0 10 -262144 -1 -1 0
1;
#X msg 626 -64 1;
#X msg 680 -65 2;
#X msg 729 -65 3;
#X msg 795 -68 4;
#X msg 841 -66 5;
#X obj 654 -35 int;
#X obj 621 -8 == 1;
#X obj 649 -8 == 2;
#X obj 678 -9 == 3;
#X obj 707 -9 == 4;
#X obj 736 -10 == 5;
#X text 99 191 2;
#X obj 113 123 tgl 15 0 empty empty empty 17 7 0 10 -262144 -1 -1 0
1;
#X obj 114 141 tgl 15 0 empty empty empty 17 7 0 10 -262144 -1 -1 0
1;
#X obj 114 179 tgl 15 0 empty empty empty 17 7 0 10 -262144 -1 -1 0
1;
#X obj 114 160 tgl 15 0 empty empty empty 17 7 0 10 -262144 -1 -1 1
1;
#X obj 113 106 tgl 15 0 empty empty empty 17 7 0 10 -262144 -1 -1 0
1;
#X text 117 191 3;
#X obj 624 -95 r f3sine;
#X obj 679 -95 r f3saw;
#X obj 726 -94 r f3square;
#X obj 793 -94 r f3voc;
#X obj 843 -94 r f3xlrmtr;
#X obj 503 59 r mynotemsg;
#X obj 503 83 unpack f f f;
#N canvas 196 201 717 456 xlrmtr 0;
#X obj 596 38 table xaxis;
#X obj 156 135 sig~;
#X obj 40 126 sig~;
#X obj 93 129 sig~;
#X obj 598 63 table yaxis;
#X obj 612 87 table zaxis;
#X obj 43 338 tabwrite~ xaxis;
#X obj 44 319 metro 100;
#X obj 43 300 bng 15 250 50 0 empty empty empty 17 7 0 10 -262144 -1
-1;
#X obj 171 351 tabwrite~ yaxis;
#X obj 298 322 tabwrite~ zaxis;
#X obj 171 330 metro 100;
#X obj 171 312 bng 15 250 50 0 empty empty empty 17 7 0 10 -262144
-1 -1;
#X obj 298 301 metro 100;
#X obj 297 283 bng 15 250 50 0 empty empty empty 17 7 0 10 -262144
-1 -1;
#X obj 92 87 r oscxr;
#X obj 326 96 r osczr;
#X obj 208 112 r oscyr;
#X obj 153 112 r oscyl;
#X obj 275 103 r osczl;
#X obj 44 89 r oscxl;
#X obj 183 165 +~;
#X obj 288 167 +~;
#X obj 208 131 sig~;
#X obj 276 136 sig~;
#X obj 321 137 sig~;
#X obj 228 327 tabplay~;
#X obj 96 -46 inlet;
#X obj 523 376 outlet~;
#X obj 75 247 *~;
#X obj 242 223 *~;
#X obj 335 239 *~;
#X floatatom 89 159 5 0 0 0 - - -;
#X obj 45 189 -~ 1;
#X obj 94 204 phasor~ 220;
#X obj 40 149 +~;
#X obj 169 193 -~ 1;
#X obj 227 177 phasor~;
#X obj 335 203 noise~;
#X obj 294 204 -~ 1;
#X connect 1 0 21 0;
#X connect 2 0 35 0;
#X connect 3 0 35 1;
#X connect 7 0 6 0;
#X connect 8 0 7 0;
#X connect 11 0 9 0;
#X connect 12 0 11 0;
#X connect 13 0 10 0;
#X connect 14 0 13 0;
#X connect 15 0 3 0;
#X connect 16 0 25 0;
#X connect 17 0 23 0;
#X connect 18 0 1 0;
#X connect 19 0 24 0;
#X connect 20 0 2 0;
#X connect 21 0 36 0;
#X connect 22 0 39 0;
#X connect 23 0 21 1;
#X connect 24 0 22 0;
#X connect 25 0 22 1;
#X connect 27 0 34 0;
#X connect 27 0 37 0;
#X connect 27 0 38 0;
#X connect 29 0 28 0;
#X connect 29 0 6 0;
#X connect 30 0 28 0;
#X connect 30 0 9 0;
#X connect 31 0 10 0;
#X connect 31 0 28 0;
#X connect 32 0 33 1;
#X connect 33 0 6 0;
#X connect 33 0 29 0;
#X connect 33 0 28 0;
#X connect 34 0 29 1;
#X connect 35 0 33 0;
#X connect 36 0 9 0;
#X connect 36 0 28 0;
#X connect 36 0 30 0;
#X connect 37 0 30 1;
#X connect 38 0 31 0;
#X connect 39 0 31 1;
#X connect 39 0 28 0;
#X restore 349 272 pd xlrmtr;
#X obj 173 342 send~ osc1;
#N canvas 1494 45 463 637 pitch 0;
#X obj 313 48 r 2pup;
#X obj 150 46 r 2pdwn;
#X floatatom 277 2 5 0 0 0 - - -;
#X obj 245 -25 int;
#X obj 244 -50 + 0.5;
#X msg 349 131 12;
#X obj 241 245 +;
#X msg 189 129 -12;
#X msg 256 132 0;
#X obj 313 72 sel 0 1;
#X obj 151 71 sel 0 1;
#X floatatom 263 283 5 0 0 0 - - -;
#X obj 233 34 +;
#X obj 158 -201 inlet note number;
#X obj 237 332 outlet;
#X obj 29 -5 spigot;
#X obj 95 -62 r \$0-key6;
#X obj 62 -40 spigot;
#X obj 60 -83 r fkey2;
#X obj 236 306 mtof;
#X floatatom 122 -143 5 0 0 0 - - -;
#X obj 227 -98 t b f;
#X obj 231 -133 average 10;
#X obj 243 -71 / 11;
#X obj 234 -160 r 5gy;
#X connect 0 0 9 0;
#X connect 1 0 10 0;
#X connect 3 0 12 1;
#X connect 4 0 3 0;
#X connect 5 0 6 1;
#X connect 6 0 11 0;
#X connect 6 0 19 0;
#X connect 7 0 6 1;
#X connect 8 0 6 1;
#X connect 9 0 8 0;
#X connect 9 1 5 0;
#X connect 10 0 8 0;
#X connect 10 1 7 0;
#X connect 12 0 6 0;
#X connect 13 0 20 0;
#X connect 13 0 12 0;
#X connect 16 0 17 1;
#X connect 17 0 15 1;
#X connect 18 0 17 0;
#X connect 19 0 14 0;
#X connect 21 0 12 0;
#X connect 21 1 23 0;
#X connect 22 0 21 0;
#X connect 23 0 4 0;
#X connect 24 0 22 0;
#X restore 550 155 pd pitch ctrl osc2;
#N canvas 1104 51 516 619 pitch 0;
#X obj 221 134 r 1pup;
#X obj 66 121 r 1pdwn;
#X floatatom 185 100 5 0 0 0 - - -;
#X obj 153 73 int;
#X obj 152 48 + 0.5;
#X msg 257 229 12;
#X obj 150 339 +;
#X msg 97 227 -12;
#X msg 164 230 0;
#X obj 221 170 sel 0 1;
#X obj 59 169 sel 0 1;
#X floatatom 171 381 5 0 0 0 - - -;
#X text 97 155 octave changer;
#X obj 141 132 +;
#X obj 65 -84 inlet note number;
#X obj 146 488 outlet;
#X obj -62 57 spigot;
#X obj -15 4 r \$0-key5;
#X obj -23 26 spigot;
#X obj -23 -19 r fkey2;
#X floatatom -18 73 5 0 0 0 - - -;
#X floatatom 212 445 5 0 0 0 - - -;
#X obj 146 406 mtof;
#X obj 139 2 t b f;
#X floatatom 181 -40 5 0 0 0 - - -;
#X obj 138 -19 average 10;
#X floatatom 206 -19 5 0 0 0 - - -;
#X obj 151 27 / 11;
#X obj 312 49 bendin;
#X obj 313 72 - 8192;
#X obj 313 95 / 8192;
#X obj 316 118 * 1200;
#X obj 365 48 * 100;
#X obj 415 33 inlet;
#X floatatom 352 4 5 0 0 0 - - -;
#X obj 137 -40 r 4gy;
#X connect 0 0 9 0;
#X connect 1 0 10 0;
#X connect 3 0 2 0;
#X connect 3 0 13 1;
#X connect 4 0 3 0;
#X connect 5 0 6 1;
#X connect 6 0 11 0;
#X connect 6 0 22 0;
#X connect 7 0 6 1;
#X connect 8 0 6 1;
#X connect 9 0 8 0;
#X connect 9 1 5 0;
#X connect 10 0 8 0;
#X connect 10 1 7 0;
#X connect 13 0 6 0;
#X connect 14 0 13 0;
#X connect 17 0 18 1;
#X connect 18 0 16 1;
#X connect 18 0 20 0;
#X connect 19 0 18 0;
#X connect 22 0 15 0;
#X connect 22 0 21 0;
#X connect 23 0 13 0;
#X connect 23 1 27 0;
#X connect 25 0 26 0;
#X connect 25 0 23 0;
#X connect 27 0 4 0;
#X connect 28 0 29 0;
#X connect 29 0 30 0;
#X connect 30 0 31 0;
#X connect 32 0 31 1;
#X connect 33 0 31 0;
#X connect 34 0 32 0;
#X connect 35 0 24 0;
#X connect 35 0 25 0;
#X restore 430 155 pd pitch ctrl osc1;
#N canvas 449 84 450 661 pitch 0;
#X obj 224 115 int;
#X obj 223 90 + 0.5;
#X msg 328 271 12;
#X obj 221 379 +;
#X msg 168 269 -12;
#X msg 235 272 0;
#X obj 292 212 sel 0 1;
#X obj 130 211 sel 0 1;
#X floatatom 242 423 5 0 0 0 - - -;
#X text 168 197 octave changer;
#X obj 212 174 +;
#X obj 134 -16 inlet note number;
#X obj 219 468 outlet;
#X obj 130 190 r 3pdwn;
#X obj 292 191 r 3pup;
#X obj 44 447 spigot;
#X obj 111 383 r \$0-key7;
#X obj 77 408 spigot;
#X obj 76 361 r fkey2;
#X obj 218 446 mtof;
#X floatatom 77 42 5 0 0 0 - - -;
#X obj 204 46 t b f;
#X obj 203 28 average 10;
#X obj 222 69 / 11;
#X obj 205 8 r 6gy;
#X floatatom 283 0 5 0 0 0 - - -;
#X connect 0 0 10 1;
#X connect 1 0 0 0;
#X connect 2 0 3 1;
#X connect 3 0 8 0;
#X connect 3 0 19 0;
#X connect 4 0 3 1;
#X connect 5 0 3 1;
#X connect 6 0 5 0;
#X connect 6 1 2 0;
#X connect 7 0 5 0;
#X connect 7 1 4 0;
#X connect 10 0 3 0;
#X connect 11 0 20 0;
#X connect 11 0 10 0;
#X connect 13 0 7 0;
#X connect 14 0 6 0;
#X connect 16 0 17 1;
#X connect 17 0 15 1;
#X connect 18 0 17 0;
#X connect 19 0 12 0;
#X connect 21 0 10 0;
#X connect 21 1 23 0;
#X connect 22 0 21 0;
#X connect 23 0 1 0;
#X connect 24 0 22 0;
#X connect 24 0 25 0;
#X restore 675 155 pd pitch ctrl osc3;
#X floatatom 599 84 5 0 0 0 - - -;
#X obj 154 269 osc~;
#X obj 135 291 spigot~;
#X obj 251 249 phasor~;
#N canvas 0 0 450 300 voc 0;
#X obj 306 58 inlet;
#X obj 290 190 outlet~;
#X obj 171 69 adc~;
#X restore 304 272 pd voc;
#X obj 187 292 spigot~;
#X obj 249 294 spigot~;
#X obj 297 295 spigot~;
#X obj 349 296 spigot~;
#X obj 424 277 osc~;
#X obj 405 299 spigot~;
#X obj 523 280 phasor~;
#N canvas 0 0 450 300 voc 0;
#X obj 241 119 inlet;
#X obj 250 166 outlet~;
#X restore 574 280 pd voc;
#X obj 457 300 spigot~;
#X obj 519 302 spigot~;
#X obj 567 303 spigot~;
#X obj 619 304 spigot~;
#X obj 691 286 osc~;
#X obj 672 311 spigot~;
#X obj 790 289 phasor~;
#N canvas 0 0 450 300 voc 0;
#X obj 241 119 inlet;
#X obj 250 166 outlet~;
#X restore 841 289 pd voc;
#X obj 724 309 spigot~;
#X obj 786 311 spigot~;
#X obj 834 312 spigot~;
#X obj 886 313 spigot~;
#X obj 443 350 send~ osc2;
#X obj 710 359 send~ osc3;
#X obj 193 249 phasor~;
#X obj 191 272 expr~ $v1 > 0.5;
#X obj 456 236 phasor~;
#X obj 453 258 expr~ $v1 > 0.5;
#X obj 721 249 phasor~;
#X obj 719 267 expr~ $v1 > 0.5;
#N canvas 196 201 717 456 xlrmtr 0;
#X obj 596 38 table xaxis;
#X obj 156 135 sig~;
#X obj 40 126 sig~;
#X obj 93 129 sig~;
#X obj 598 63 table yaxis;
#X obj 612 87 table zaxis;
#X obj 43 338 tabwrite~ xaxis;
#X obj 44 319 metro 100;
#X obj 43 300 bng 15 250 50 0 empty empty empty 17 7 0 10 -262144 -1
-1;
#X obj 171 351 tabwrite~ yaxis;
#X obj 298 322 tabwrite~ zaxis;
#X obj 171 330 metro 100;
#X obj 171 312 bng 15 250 50 0 empty empty empty 17 7 0 10 -262144
-1 -1;
#X obj 298 301 metro 100;
#X obj 297 283 bng 15 250 50 0 empty empty empty 17 7 0 10 -262144
-1 -1;
#X obj 92 87 r oscxr;
#X obj 326 96 r osczr;
#X obj 208 112 r oscyr;
#X obj 153 112 r oscyl;
#X obj 275 103 r osczl;
#X obj 44 89 r oscxl;
#X obj 183 165 +~;
#X obj 288 167 +~;
#X obj 208 131 sig~;
#X obj 276 136 sig~;
#X obj 321 137 sig~;
#X obj 228 327 tabplay~;
#X obj 96 -46 inlet;
#X obj 523 376 outlet~;
#X obj 75 247 *~;
#X obj 242 223 *~;
#X obj 335 239 *~;
#X floatatom 89 159 5 0 0 0 - - -;
#X obj 45 189 -~ 1;
#X obj 94 204 phasor~ 220;
#X obj 40 149 +~;
#X obj 169 193 -~ 1;
#X obj 227 177 phasor~;
#X obj 335 203 noise~;
#X obj 294 204 -~ 1;
#X connect 1 0 21 0;
#X connect 2 0 35 0;
#X connect 3 0 35 1;
#X connect 7 0 6 0;
#X connect 8 0 7 0;
#X connect 11 0 9 0;
#X connect 12 0 11 0;
#X connect 13 0 10 0;
#X connect 14 0 13 0;
#X connect 15 0 3 0;
#X connect 16 0 25 0;
#X connect 17 0 23 0;
#X connect 18 0 1 0;
#X connect 19 0 24 0;
#X connect 20 0 2 0;
#X connect 21 0 36 0;
#X connect 22 0 39 0;
#X connect 23 0 21 1;
#X connect 24 0 22 0;
#X connect 25 0 22 1;
#X connect 27 0 34 0;
#X connect 27 0 37 0;
#X connect 27 0 38 0;
#X connect 29 0 28 0;
#X connect 29 0 6 0;
#X connect 30 0 28 0;
#X connect 30 0 9 0;
#X connect 31 0 10 0;
#X connect 31 0 28 0;
#X connect 32 0 33 1;
#X connect 33 0 6 0;
#X connect 33 0 29 0;
#X connect 33 0 28 0;
#X connect 34 0 29 1;
#X connect 35 0 33 0;
#X connect 36 0 9 0;
#X connect 36 0 28 0;
#X connect 36 0 30 0;
#X connect 37 0 30 1;
#X connect 38 0 31 0;
#X connect 39 0 31 1;
#X connect 39 0 28 0;
#X restore 619 279 pd xlrmtr;
#N canvas 196 201 717 456 xlrmtr 0;
#X obj 596 38 table xaxis;
#X obj 156 135 sig~;
#X obj 40 126 sig~;
#X obj 93 129 sig~;
#X obj 598 63 table yaxis;
#X obj 612 87 table zaxis;
#X obj 43 338 tabwrite~ xaxis;
#X obj 44 319 metro 100;
#X obj 43 300 bng 15 250 50 0 empty empty empty 17 7 0 10 -262144 -1
-1;
#X obj 171 351 tabwrite~ yaxis;
#X obj 298 322 tabwrite~ zaxis;
#X obj 171 330 metro 100;
#X obj 171 312 bng 15 250 50 0 empty empty empty 17 7 0 10 -262144
-1 -1;
#X obj 298 301 metro 100;
#X obj 297 283 bng 15 250 50 0 empty empty empty 17 7 0 10 -262144
-1 -1;
#X obj 92 87 r oscxr;
#X obj 326 96 r osczr;
#X obj 208 112 r oscyr;
#X obj 153 112 r oscyl;
#X obj 275 103 r osczl;
#X obj 44 89 r oscxl;
#X obj 183 165 +~;
#X obj 288 167 +~;
#X obj 208 131 sig~;
#X obj 276 136 sig~;
#X obj 321 137 sig~;
#X obj 228 327 tabplay~;
#X obj 96 -46 inlet;
#X obj 523 376 outlet~;
#X obj 75 247 *~;
#X obj 242 223 *~;
#X obj 335 239 *~;
#X floatatom 89 159 5 0 0 0 - - -;
#X obj 45 189 -~ 1;
#X obj 94 204 phasor~ 220;
#X obj 40 149 +~;
#X obj 169 193 -~ 1;
#X obj 227 177 phasor~;
#X obj 335 203 noise~;
#X obj 294 204 -~ 1;
#X connect 1 0 21 0;
#X connect 2 0 35 0;
#X connect 3 0 35 1;
#X connect 7 0 6 0;
#X connect 8 0 7 0;
#X connect 11 0 9 0;
#X connect 12 0 11 0;
#X connect 13 0 10 0;
#X connect 14 0 13 0;
#X connect 15 0 3 0;
#X connect 16 0 25 0;
#X connect 17 0 23 0;
#X connect 18 0 1 0;
#X connect 19 0 24 0;
#X connect 20 0 2 0;
#X connect 21 0 36 0;
#X connect 22 0 39 0;
#X connect 23 0 21 1;
#X connect 24 0 22 0;
#X connect 25 0 22 1;
#X connect 27 0 34 0;
#X connect 27 0 37 0;
#X connect 27 0 38 0;
#X connect 29 0 28 0;
#X connect 29 0 6 0;
#X connect 30 0 28 0;
#X connect 30 0 9 0;
#X connect 31 0 10 0;
#X connect 31 0 28 0;
#X connect 32 0 33 1;
#X connect 33 0 6 0;
#X connect 33 0 29 0;
#X connect 33 0 28 0;
#X connect 34 0 29 1;
#X connect 35 0 33 0;
#X connect 36 0 9 0;
#X connect 36 0 28 0;
#X connect 36 0 30 0;
#X connect 37 0 30 1;
#X connect 38 0 31 0;
#X connect 39 0 31 1;
#X connect 39 0 28 0;
#X restore 898 287 pd xlrmtr;
#X connect 0 0 14 0;
#X connect 1 0 13 0;
#X connect 2 0 12 0;
#X connect 3 0 11 0;
#X connect 4 0 10 0;
#X connect 5 0 31 0;
#X connect 6 0 30 0;
#X connect 7 0 29 0;
#X connect 8 0 28 0;
#X connect 9 0 27 0;
#X connect 10 0 15 0;
#X connect 11 0 15 0;
#X connect 12 0 15 0;
#X connect 13 0 15 0;
#X connect 14 0 15 0;
#X connect 15 0 16 0;
#X connect 15 0 17 0;
#X connect 15 0 18 0;
#X connect 15 0 19 0;
#X connect 15 0 20 0;
#X connect 16 0 23 0;
#X connect 17 0 24 0;
#X connect 18 0 22 0;
#X connect 19 0 21 0;
#X connect 20 0 25 0;
#X connect 21 0 80 1;
#X connect 22 0 79 1;
#X connect 23 0 75 1;
#X connect 24 0 78 1;
#X connect 25 0 81 1;
#X connect 27 0 32 0;
#X connect 28 0 32 0;
#X connect 29 0 32 0;
#X connect 30 0 32 0;
#X connect 31 0 32 0;
#X connect 32 0 33 0;
#X connect 32 0 34 0;
#X connect 32 0 35 0;
#X connect 32 0 36 0;
#X connect 32 0 37 0;
#X connect 33 0 40 0;
#X connect 34 0 41 0;
#X connect 35 0 39 0;
#X connect 36 0 38 0;
#X connect 37 0 42 0;
#X connect 38 0 88 1;
#X connect 39 0 87 1;
#X connect 40 0 83 1;
#X connect 41 0 86 1;
#X connect 42 0 89 1;
#X connect 43 0 48 0;
#X connect 44 0 48 0;
#X connect 45 0 48 0;
#X connect 46 0 48 0;
#X connect 47 0 48 0;
#X connect 48 0 49 0;
#X connect 48 0 50 0;
#X connect 48 0 51 0;
#X connect 48 0 52 0;
#X connect 48 0 53 0;
#X connect 49 0 57 0;
#X connect 50 0 58 0;
#X connect 51 0 56 0;
#X connect 52 0 55 0;
#X connect 53 0 59 0;
#X connect 55 0 96 1;
#X connect 56 0 95 1;
#X connect 57 0 91 1;
#X connect 58 0 94 1;
#X connect 59 0 97 1;
#X connect 61 0 43 0;
#X connect 62 0 44 0;
#X connect 63 0 45 0;
#X connect 64 0 46 0;
#X connect 65 0 47 0;
#X connect 66 0 67 0;
#X connect 67 0 73 0;
#X connect 67 0 71 0;
#X connect 67 0 70 0;
#X connect 67 0 72 0;
#X connect 68 0 81 0;
#X connect 70 0 82 0;
#X connect 70 0 84 0;
#X connect 70 0 85 0;
#X connect 70 0 102 0;
#X connect 70 0 106 0;
#X connect 71 0 74 0;
#X connect 71 0 76 0;
#X connect 71 0 77 0;
#X connect 71 0 100 0;
#X connect 71 0 68 0;
#X connect 72 0 90 0;
#X connect 72 0 92 0;
#X connect 72 0 93 0;
#X connect 72 0 104 0;
#X connect 72 0 107 0;
#X connect 74 0 75 0;
#X connect 75 1 69 0;
#X connect 76 0 79 0;
#X connect 77 0 80 0;
#X connect 78 1 69 0;
#X connect 79 1 69 0;
#X connect 80 1 69 0;
#X connect 81 1 69 0;
#X connect 82 0 83 0;
#X connect 83 1 98 0;
#X connect 84 0 87 0;
#X connect 85 0 88 0;
#X connect 86 1 98 0;
#X connect 87 1 98 0;
#X connect 88 1 98 0;
#X connect 89 1 98 0;
#X connect 90 0 91 0;
#X connect 91 1 99 0;
#X connect 92 0 95 0;
#X connect 93 0 96 0;
#X connect 94 1 99 0;
#X connect 95 1 99 0;
#X connect 96 1 99 0;
#X connect 97 1 99 0;
#X connect 100 0 101 0;
#X connect 101 0 78 0;
#X connect 102 0 103 0;
#X connect 103 0 86 0;
#X connect 104 0 105 0;
#X connect 105 0 94 0;
#X connect 106 0 89 0;
#X connect 107 0 97 0;
#X coords 0 -1 1 1 70 110 2 70 100;
#X restore 530 39 pd osc selection;
#N canvas 1129 162 842 522 Envelope 0;
#X obj 206 87 inlet~;
#X obj 313 85 inlet~;
#X obj 93 89 inlet~;
#X obj 248 420 outlet~;
#X obj 205 171 +~;
#X obj 312 174 +~;
#X obj 413 120 average 10;
#X obj 415 101 r 11gx;
#X obj 491 132 r 11gy;
#X obj 430 216 osc~;
#X floatatom 457 101 5 0 0 0 - - -;
#X floatatom 526 170 5 0 0 0 - - -;
#X obj 413 143 / 4;
#X floatatom 378 207 5 0 0 0 - - -;
#X obj 424 163 - 2;
#X obj 428 188 clip 0 127;
#X obj 494 170 / 64;
#X obj 481 233 *~;
#X obj 253 330 *~;
#X obj 253 368 -~ 0.2;
#X text 494 106 GAIN LFO;
#X connect 0 0 4 0;
#X connect 1 0 5 0;
#X connect 2 0 4 1;
#X connect 2 0 5 1;
#X connect 2 0 18 0;
#X connect 4 0 18 0;
#X connect 5 0 18 0;
#X connect 6 0 12 0;
#X connect 7 0 6 0;
#X connect 7 0 10 0;
#X connect 8 0 16 0;
#X connect 9 0 17 0;
#X connect 12 0 14 0;
#X connect 14 0 15 0;
#X connect 15 0 9 0;
#X connect 15 0 13 0;
#X connect 16 0 11 0;
#X connect 16 0 17 1;
#X connect 17 0 18 1;
#X connect 18 0 19 0;
#X connect 19 0 3 0;
#X restore 533 186 pd Envelope;
#X connect 8 0 19 0;
#X connect 9 0 8 0;
#X connect 11 0 49 0;
#X connect 11 1 49 1;
#X connect 11 2 49 2;
#X connect 14 0 15 0;
#X connect 14 0 15 1;
#X connect 15 0 21 0;
#X connect 17 0 16 0;
#X connect 18 0 17 0;
#X connect 19 0 21 1;
#X connect 21 0 16 0;
#X connect 21 0 20 0;
#X connect 21 0 20 1;
#X connect 24 0 25 0;
#X connect 25 0 34 0;
#X connect 26 0 24 2;
#X connect 27 0 24 1;
#X connect 28 0 24 0;
#X connect 34 0 22 1;
#X connect 35 0 28 0;
#X connect 36 0 27 0;
#X connect 37 0 26 0;
#X connect 41 0 40 0;
#X connect 42 0 41 0;
#X connect 43 0 40 0;
#X connect 44 0 43 0;
#X connect 45 0 46 0;
#X connect 46 0 40 0;
#X connect 47 0 17 0;
#X connect 49 0 14 0;
#X coords 0 -1 1 1 220 170 1 40 200;
