#N canvas 2323 328 668 610 10;
#X obj 106 145 inlet~ signal;
#X obj 296 21 inlet control;
#X obj 225 174 sig~;
#X obj 220 269 cos~;
#X obj 221 243 -~ 0.25;
#X obj 223 219 *~ 0.25;
#X obj 226 196 lop~ 1;
#X obj 106 369 outlet~;
#X obj 196 372 outlet~;
#X obj 257 9 r xaxis;
#X obj 221 143 / 127;
#X floatatom 263 170 5 0 0 0 - - -;
#X obj 306 68 r jlu2;
#X obj 260 55 spigot;
#X obj 257 85 spigot;
#X obj 306 140 loadbang;
#X obj 297 249 outlet;
#X floatatom 262 125 5 0 0 0 - - -;
#X msg 318 175 64;
#X obj 202 112 average 10;
#X obj 136 263 -~ 0.25;
#X obj 137 285 cos~;
#X obj 121 309 *~;
#X obj 220 304 *~;
#X obj 121 341 *~ 2;
#X obj 217 336 *~ 2;
#X floatatom 322 106 5 0 0 0 - - -;
#X obj 419 485 outlet panlite;
#X floatatom 212 78 5 0 0 0 - - -;
#X obj 382 62 tgl 15 0 empty empty empty 17 7 0 10 -262144 -1 -1 0
1;
#X obj 386 100 tgl 15 0 empty empty empty 17 7 0 10 -262144 -1 -1 0
1;
#X floatatom 215 41 5 0 0 0 - - -;
#X connect 0 0 7 0;
#X connect 0 0 8 0;
#X connect 1 0 13 1;
#X connect 1 0 29 0;
#X connect 2 0 6 0;
#X connect 3 0 23 0;
#X connect 4 0 3 0;
#X connect 5 0 4 0;
#X connect 5 0 20 0;
#X connect 6 0 5 0;
#X connect 9 0 13 0;
#X connect 9 0 31 0;
#X connect 10 0 2 0;
#X connect 10 0 11 0;
#X connect 10 0 16 0;
#X connect 12 0 14 1;
#X connect 12 0 30 0;
#X connect 13 0 14 0;
#X connect 14 0 19 0;
#X connect 14 0 26 0;
#X connect 15 0 18 0;
#X connect 17 0 10 0;
#X connect 18 0 10 0;
#X connect 19 0 10 0;
#X connect 19 0 27 0;
#X connect 20 0 21 0;
#X connect 21 0 22 1;
#X connect 22 0 24 0;
#X connect 23 0 25 0;
#X connect 28 0 19 0;
