#N canvas 611 84 791 822 10;
#N canvas 167 290 712 568 gate 1;
#X obj 49 145 select 1 0;
#X msg 38 262 1 \$1;
#X msg 98 261 0 \$1;
#X obj 39 175 int;
#X obj 105 180 int;
#X obj 134 320 *~;
#X obj 63 287 line~;
#X obj 145 34 inlet~;
#X obj 102 66 env~;
#X obj 136 360 outlet~;
#X obj 343 34 inlet;
#X obj 399 32 inlet;
#X obj 232 29 inlet;
#X obj 282 32 inlet;
#X obj 206 304 outlet;
#X obj 51 104 >;
#X obj 41 225 pipe 0;
#X obj 98 225 pipe 0;
#X connect 0 0 3 0;
#X connect 0 1 4 0;
#X connect 0 1 14 0;
#X connect 1 0 6 0;
#X connect 2 0 6 0;
#X connect 3 0 16 0;
#X connect 4 0 17 0;
#X connect 5 0 9 0;
#X connect 6 0 5 0;
#X connect 7 0 8 0;
#X connect 7 0 5 1;
#X connect 8 0 15 0;
#X connect 10 0 3 1;
#X connect 11 0 4 1;
#X connect 12 0 15 1;
#X connect 13 0 16 1;
#X connect 13 0 17 1;
#X connect 15 0 0 0;
#X connect 16 0 1 0;
#X connect 17 0 2 0;
#X restore 130 316 pd gate;
#X obj 113 406 -~;
#X obj 132 379 *~;
#X obj 104 113 cnv 15 100 100 empty empty empty 20 12 0 14 -206091
-188545 0;
#X obj 207 114 cnv 15 90 60 empty empty empty 20 12 0 14 -207371 -66577
0;
#X floatatom 159 152 5 0 0 0 delay - -;
#X floatatom 158 169 5 0 0 0 attack - -;
#X floatatom 157 189 5 0 0 0 release - -;
#X obj 186 116 bng 15 250 50 0 empty empty empty 0 -6 0 8 -206091 -261313
-1;
#X obj 138 339 s \$0-gate;
#X obj 165 32 r \$0-gate;
#X floatatom 159 135 5 0 0 0 thresh. - -;
#X floatatom 255 115 5 0 0 0 amount - -;
#X obj 112 485 *~;
#X obj 258 131 hsl 30 15 10 100 1 0 empty empty Gain -33 8 0 12 -261313
-1 -1 0 1;
#X obj 260 50 loadbang;
#X msg 264 78 1;
#X obj 50 73 inlet~;
#X msg 222 80 10;
#X msg 192 79 55;
#N canvas 0 22 454 304 switch 0;
#X obj 199 93 select 1 0;
#X msg 259 132 1;
#X msg 257 159 0;
#X obj 300 57 inlet~;
#X obj 373 58 inlet~;
#X obj 128 10 inlet;
#X obj 265 256 *~;
#X obj 258 193 pack f 100;
#X msg 156 134 1;
#X msg 154 161 0;
#X obj 162 258 *~;
#X obj 155 195 pack f 100;
#X obj 203 287 outlet~;
#X obj 157 227 line~;
#X obj 260 225 line~;
#X connect 0 0 8 0;
#X connect 0 0 2 0;
#X connect 0 1 1 0;
#X connect 0 1 9 0;
#X connect 1 0 7 0;
#X connect 2 0 7 0;
#X connect 3 0 10 0;
#X connect 4 0 6 0;
#X connect 5 0 0 0;
#X connect 6 0 12 0;
#X connect 7 0 14 0;
#X connect 8 0 11 0;
#X connect 9 0 11 0;
#X connect 10 0 12 0;
#X connect 11 0 13 0;
#X connect 13 0 10 1;
#X connect 14 0 6 1;
#X restore 130 287 pd switch;
#X obj 209 177 tgl 15 0 empty empty Key_Listen 17 8 0 12 -261313 -1
-1 0 1;
#X obj 208 195 tgl 15 0 empty empty Key_Source 17 8 0 12 -261313 -1
-1 1 1;
#X obj 189 263 inlet~;
#N canvas 0 22 454 304 switch 0;
#X obj 199 93 select 1 0;
#X msg 259 132 1;
#X msg 257 159 0;
#X obj 300 57 inlet~;
#X obj 373 58 inlet~;
#X obj 128 10 inlet;
#X obj 265 256 *~;
#X obj 258 193 pack f 100;
#X msg 156 134 1;
#X msg 154 161 0;
#X obj 162 258 *~;
#X obj 155 195 pack f 100;
#X obj 203 287 outlet~;
#X obj 157 227 line~;
#X obj 260 225 line~;
#X connect 0 0 8 0;
#X connect 0 0 2 0;
#X connect 0 1 1 0;
#X connect 0 1 9 0;
#X connect 1 0 7 0;
#X connect 2 0 7 0;
#X connect 3 0 10 0;
#X connect 4 0 6 0;
#X connect 5 0 0 0;
#X connect 6 0 12 0;
#X connect 7 0 14 0;
#X connect 8 0 11 0;
#X connect 9 0 11 0;
#X connect 10 0 12 0;
#X connect 11 0 13 0;
#X connect 13 0 10 1;
#X connect 14 0 6 1;
#X restore 181 516 pd switch;
#X obj 174 594 outlet~;
#X floatatom 255 150 5 0 0 0 - - -;
#X connect 0 0 2 0;
#X connect 0 0 24 1;
#X connect 0 1 9 0;
#X connect 1 0 13 0;
#X connect 2 0 1 1;
#X connect 5 0 0 2;
#X connect 6 0 0 3;
#X connect 7 0 0 4;
#X connect 10 0 8 0;
#X connect 11 0 0 1;
#X connect 12 0 2 1;
#X connect 13 0 24 2;
#X connect 14 0 26 0;
#X connect 15 0 16 0;
#X connect 15 0 18 0;
#X connect 15 0 19 0;
#X connect 16 0 14 0;
#X connect 16 0 12 0;
#X connect 16 0 22 0;
#X connect 17 0 1 0;
#X connect 17 0 20 1;
#X connect 18 0 6 0;
#X connect 18 0 7 0;
#X connect 19 0 11 0;
#X connect 20 0 0 0;
#X connect 21 0 24 0;
#X connect 22 0 20 0;
#X connect 23 0 20 2;
#X connect 24 0 25 0;
#X connect 26 0 13 1;
#X coords 0 -1 1 1 200 120 1 100 100;
