#N canvas 0 0 1366 726 10;
#X declare -stdpath extra/moocow -lib pdstring;
#X declare -stdpath extra/moocow -lib pdstring;
#X obj 132 -231 arduino;
#X msg 363 -18 0;
#X msg 395 -18 1;
#X msg 427 -18 0;
#X obj 373 9 change;
#X floatatom 307 -76 5 0 127 0 - - -;
#X msg 498 -20 1;
#X msg 470 -19 0;
#X msg 601 -20 1;
#X obj 475 6 change;
#X msg 528 -20 0;
#X obj 571 3 change;
#X msg 571 -20 0;
#X msg 631 -19 0;
#X msg 714 -16 1;
#X msg 685 -15 0;
#X msg 741 -16 0;
#X obj 688 7 change;
#X msg 812 -22 1;
#X msg 783 -21 0;
#X msg 839 -22 0;
#X obj 786 1 change;
#X obj 475 26 == 1;
#X obj 375 28 == 1;
#X obj 572 22 == 1;
#X obj 688 26 == 1;
#X obj 788 23 == 1;
#X obj 307 -56 moses 0;
#X obj 693 74 tgl 15 0 empty empty empty 17 7 0 10 -262144 -1 -1 0
1;
#X obj 571 67 tgl 15 0 empty empty empty 17 7 0 10 -262144 -1 -1 1
1;
#X obj 378 69 tgl 15 0 empty empty empty 17 7 0 10 -262144 -1 -1 0
1;
#X obj 475 70 tgl 15 0 empty empty empty 17 7 0 10 -262144 -1 -1 0
1;
#X obj 795 70 tgl 15 0 empty empty empty 17 7 0 10 -262144 -1 -1 0
1;
#X obj 418 112 noise~;
#X obj 499 110 noise~;
#X obj 621 102 noise~;
#X obj 728 98 noise~;
#X obj 424 223 *~;
#X obj 508 224 *~;
#X obj 637 226 *~;
#X obj 727 214 *~;
#X floatatom 566 145 5 0 0 0 - - -;
#X floatatom 520 142 5 0 0 0 - - -;
#X obj 618 59 osc~ 300;
#X floatatom 648 139 5 0 0 0 - - -;
#X floatatom 686 141 5 0 0 0 - - -;
#X obj 425 184 lop~ 2000;
#X obj 735 170 lop~ 15000;
#X obj 628 174 hip~ 3000;
#X obj 506 182 lop~ 7000;
#X obj 91 236 spigot;
#X obj 91 43 bng 15 250 50 0 empty empty empty 17 7 0 10 -262144 -1
-1;
#X obj 140 115 tgl 15 0 empty empty empty 17 7 0 10 -262144 -1 -1 0
1;
#X obj 91 92 metro 300;
#X obj 84 302 tgl 15 0 empty empty empty 17 7 0 10 -262144 -1 -1 0
1;
#X msg 141 173 0;
#X obj 168 198 tgl 15 0 empty empty empty 17 7 0 10 -262144 -1 -1 0
1;
#X obj 124 214 spigot 1;
#X obj 138 152 del 50;
#X obj 306 -96 average 5;
#X obj 424 145 *~;
#X obj 291 198 osc~;
#X obj 284 75 mtof;
#X obj 292 221 *~ 0.3;
#X obj 558 333 dac~;
#X floatatom 346 194 5 0 0 0 - - -;
#X obj 277 34 clip 0 127;
#X floatatom 308 130 10 0 0 0 - - -;
#X obj 1035 -122 cnv 15 100 22 empty empty empty 20 12 0 14 -253938
-66577 0;
#X obj 324 -226 route 0 1 2 3 4 5 6 7;
#X text 811 155 analog inputs:;
#X obj 322 -307 arduino 18;
#X floatatom 399 -202 5 0 0 0 - - -;
#X floatatom 400 -156 5 0 0 0 - - -;
#X obj 399 -180 * 1000;
#X obj 400 -118 - 20;
#X floatatom 400 -90 5 0 0 0 - - -;
#X obj 381 -58 moses 10;
#X obj 475 -55 moses 20;
#X obj 565 -56 moses 30;
#X obj 662 -57 moses 40;
#X obj 760 -58 moses 50;
#X obj 319 -355 loadbang;
#X obj 324 -271 route analog digital string sysex;
#X floatatom 443 -199 5 0 0 0 - - -;
#X floatatom 316 -194 5 0 0 0 - - -;
#X floatatom 360 -198 5 0 0 0 - - -;
#X msg 321 -331 pinMode 19 analog;
#X obj 260 6 + 70;
#X msg 572 105 0;
#X obj 333 269 *~;
#X connect 1 0 4 0;
#X connect 2 0 4 0;
#X connect 3 0 4 0;
#X connect 4 0 23 0;
#X connect 5 0 27 0;
#X connect 6 0 9 0;
#X connect 7 0 9 0;
#X connect 8 0 11 0;
#X connect 9 0 22 0;
#X connect 10 0 9 0;
#X connect 11 0 24 0;
#X connect 12 0 11 0;
#X connect 13 0 11 0;
#X connect 14 0 17 0;
#X connect 15 0 17 0;
#X connect 16 0 17 0;
#X connect 17 0 25 0;
#X connect 18 0 21 0;
#X connect 19 0 21 0;
#X connect 20 0 21 0;
#X connect 21 0 26 0;
#X connect 22 0 31 0;
#X connect 23 0 30 0;
#X connect 24 0 29 0;
#X connect 25 0 28 0;
#X connect 26 0 32 0;
#X connect 27 0 1 0;
#X connect 27 1 77 0;
#X connect 28 0 39 1;
#X connect 28 0 90 1;
#X connect 29 0 89 0;
#X connect 30 0 37 1;
#X connect 31 0 38 1;
#X connect 31 0 90 1;
#X connect 32 0 40 1;
#X connect 33 0 60 0;
#X connect 33 0 60 1;
#X connect 34 0 49 0;
#X connect 35 0 48 0;
#X connect 36 0 47 0;
#X connect 37 0 64 0;
#X connect 37 0 64 1;
#X connect 38 0 64 0;
#X connect 38 0 64 1;
#X connect 39 0 64 0;
#X connect 39 0 64 1;
#X connect 40 0 64 0;
#X connect 40 0 64 1;
#X connect 44 0 48 1;
#X connect 46 0 37 0;
#X connect 47 0 40 0;
#X connect 48 0 39 0;
#X connect 49 0 38 0;
#X connect 50 0 54 0;
#X connect 51 0 52 0;
#X connect 51 0 53 0;
#X connect 52 0 57 0;
#X connect 52 0 58 0;
#X connect 53 0 50 0;
#X connect 55 0 56 0;
#X connect 56 0 57 1;
#X connect 57 0 50 1;
#X connect 58 0 55 0;
#X connect 59 0 5 0;
#X connect 60 0 46 0;
#X connect 61 0 63 0;
#X connect 62 0 61 0;
#X connect 62 0 67 0;
#X connect 63 0 90 0;
#X connect 66 0 62 0;
#X connect 69 3 85 0;
#X connect 69 4 86 0;
#X connect 69 5 72 0;
#X connect 69 6 84 0;
#X connect 71 0 83 0;
#X connect 72 0 74 0;
#X connect 73 0 75 0;
#X connect 74 0 73 0;
#X connect 75 0 76 0;
#X connect 76 0 59 0;
#X connect 76 0 88 0;
#X connect 77 0 7 0;
#X connect 77 0 2 0;
#X connect 77 1 3 0;
#X connect 77 1 78 0;
#X connect 78 0 6 0;
#X connect 78 0 12 0;
#X connect 78 1 10 0;
#X connect 78 1 79 0;
#X connect 79 0 8 0;
#X connect 79 0 15 0;
#X connect 79 1 13 0;
#X connect 79 1 80 0;
#X connect 80 0 14 0;
#X connect 80 0 19 0;
#X connect 80 1 16 0;
#X connect 80 1 81 0;
#X connect 81 0 18 0;
#X connect 82 0 87 0;
#X connect 83 0 69 0;
#X connect 87 0 71 0;
#X connect 88 0 66 0;
#X connect 89 0 90 1;
#X connect 90 0 64 0;
#X connect 90 0 64 1;
