#N canvas 0 0 450 300 10;
#X obj 567 86 inlet~;
#X obj 580 112 noise~;
#X obj 579 132 lop~ \$1;
#X obj 576 159 lop~ \$1;
#X obj 577 186 max~ \$2;
#X obj 587 220 -~ \$2;
#X obj 576 252 *~ 1e-009;
#X obj 577 280 clip~ 0 1;
#X obj 577 303 lop~ 30;
#X obj 559 334 *~;
#X obj 558 361 outlet~;
#X connect 0 0 9 0;
#X connect 1 0 2 0;
#X connect 2 0 3 0;
#X connect 3 0 4 0;
#X connect 4 0 5 0;
#X connect 5 0 6 0;
#X connect 6 0 7 0;
#X connect 7 0 8 0;
#X connect 8 0 9 1;
#X connect 9 0 10 0;
