#N canvas 624 159 607 557 10;
#N canvas 0 22 519 463 (subpatch) 0;
#X array \$0-temptab 5.292e+06 float 2;
#X coords 0 0 1 1 200 140 0;
#X restore 427 121 graph;
#X text 425 102 \$0-temptab;
#X obj 291 35 inlet~;
#X obj 133 355 tabwrite~ \$0-temptab;
#X msg 118 306 stop;
#X obj 78 328 timer;
#X obj 75 239 select 1 0;
#X obj 78 356 * 44.1;
#X floatatom 158 379 10 0 0 0 - - -;
#X floatatom 14 394 9 0 0 0 - - -;
#X text 107 65 \$1 = name of table;
#X obj 110 416 symbol \$1;
#X obj 90 389 t f b;
#X obj 175 416 \$0;
#X obj 98 442 pack f s f;
#X obj 428 144 r \$0-copy;
#X floatatom 429 164 8 0 0 0 - - -;
#X msg 99 463 \; \$2 resize \$1 \; \$3-copy \$1 \; \$2_len \$1;
#N canvas 0 22 450 300 tablecopy 0;
#X obj 123 49 r \$0-copy;
#X obj 124 74 t b b;
#X obj 151 106 tabplay~ \$0-temptab;
#X obj 114 137 tabwrite~ \$1;
#X obj 87 230 block~ 4096 1 32;
#X connect 0 0 1 0;
#X connect 1 0 3 0;
#X connect 1 1 2 0;
#X connect 2 0 3 0;
#X restore 426 183 pd tablecopy;
#X obj 75 219 r \$0-record-tog;
#X obj 101 101 cnv 15 163 103 empty \$1-indicator empty 20 12 0 14
-262144 -262144 0;
#X obj 103 103 cnv 15 159 99 empty empty empty 20 12 0 14 -262144 -66577
0;
#N canvas 0 22 450 300 (subpatch) 0;
#X array \$1 277184 float 2;
#X coords 0 1.5 277184 -1.5 159 60 1;
#X restore 103 124 graph;
#X obj 244 104 tgl 18 0 \$0-record-tog \$1-record-bang rec 2 10 0 8
-261234 -258113 -1 0 1;
#X obj 223 104 tgl 18 0 \$0-dub \$1-dub dub 2 10 0 8 -232576 -258113
-1 0 1;
#X obj 202 104 tgl 18 0 \$0-punch \$1-punch pch 2 10 0 8 -203904 -258113
-1 0 1;
#X obj 178 104 tgl 18 0 \$0-play \$1-play ply 2 10 0 8 -204786 -258113
-1 0 1;
#X obj 106 187 hsl 128 15 0 1 0 0 empty empty vol 2 8 0 10 -261234
-1 -1 0 1;
#X obj 406 527 outlet~;
#X obj 462 437 r \$0-dub;
#X obj 303 432 r \$0-punch;
#X obj 397 263 r \$0-play;
#X obj 289 529 tabwrite~ \$1;
#X obj 369 464 tabread4~ \$1;
#N canvas 0 22 450 300 recordplay 0;
#X obj 238 213 block~ 1 1 1;
#X restore 428 53 pd recordplay;
#X obj 377 439 vline~;
#X obj 384 319 metro;
#X obj 390 392 pack;
#X obj 458 340 r \$1_len;
#X obj 455 367 / 44.1;
#X obj 400 364 f;
#X msg 380 415 0 \, \$1 \$2;
#X obj 368 339 t b b;
#X obj 172 267 s \$0-allstop;
#X obj 82 261 t b b;
#X obj 306 253 r \$0-allstop;
#X obj 311 275 0;
#X msg 274 472 stop;
#X obj 314 297 s \$1-play;
#X obj 447 476 *~;
#X obj 166 331 r~ \$0-input;
#X obj 291 56 s~ \$0-input;
#X obj 451 418 r~ \$0-input;
#X obj 363 507 +~;
#X obj 338 483 *~;
#X obj 307 453 expr 1-$f1;
#X obj 520 437 r \$0-punch;
#X obj 300 341 s \$1-dub;
#X obj 307 321 s \$1-punch;
#X text 181 213 <- recording stuff;
#X text 196 234 play/overdub/punch stuff ->;
#X text 246 186 <- vol not connected yet;
#X connect 2 0 51 0;
#X connect 4 0 3 0;
#X connect 5 0 7 0;
#X connect 5 0 9 0;
#X connect 6 0 44 0;
#X connect 6 1 4 0;
#X connect 6 1 5 1;
#X connect 7 0 8 0;
#X connect 7 0 12 0;
#X connect 11 0 14 1;
#X connect 12 0 14 0;
#X connect 12 1 11 0;
#X connect 12 1 13 0;
#X connect 13 0 14 2;
#X connect 14 0 17 0;
#X connect 15 0 16 0;
#X connect 19 0 6 0;
#X connect 29 0 49 1;
#X connect 30 0 55 0;
#X connect 31 0 36 0;
#X connect 33 0 54 1;
#X connect 35 0 33 0;
#X connect 36 0 42 0;
#X connect 37 0 41 0;
#X connect 38 0 39 0;
#X connect 38 0 40 1;
#X connect 39 0 37 1;
#X connect 39 0 36 1;
#X connect 40 0 37 0;
#X connect 41 0 35 0;
#X connect 42 0 32 0;
#X connect 42 1 40 0;
#X connect 44 0 5 0;
#X connect 44 0 3 0;
#X connect 44 1 43 0;
#X connect 45 0 46 0;
#X connect 45 0 47 0;
#X connect 46 0 48 0;
#X connect 46 0 58 0;
#X connect 46 0 57 0;
#X connect 47 0 32 0;
#X connect 49 0 53 1;
#X connect 50 0 3 0;
#X connect 52 0 49 0;
#X connect 53 0 28 0;
#X connect 53 0 32 0;
#X connect 54 0 53 0;
#X connect 55 0 54 0;
#X connect 56 0 49 1;
#X coords 0 -1 1 1 165 105 1 100 100;
