#N canvas 580 61 674 591 10;
#X msg 288 239 start;
#X msg 191 239 stop;
#X obj 346 495 writesf~ 2;
#X obj 33 258 savepanel;
#X obj 288 219 r \$0-rec.start;
#X obj 191 219 r \$0-rec.stop;
#X obj 211 344 s \$0-rec.on;
#X obj 33 218 r \$0-rec.new;
#N canvas 122 387 326 280 bitrate 0;
#X obj 18 20 r \$0-change.bit;
#X obj 129 20 loadbang;
#X obj 121 107 select 0 1 2;
#X obj 135 47 + 1;
#X obj 171 210 s \$0-change.bit-r;
#X msg 121 177 label 16-bit;
#X msg 147 157 label 24-bit;
#X msg 173 137 label 32-bit;
#X obj 18 219 outlet;
#X obj 121 87 t f f;
#X obj 201 80 f 0;
#X obj 121 67 f 0;
#X obj 18 159 f 2;
#X obj 28 179 f 3;
#X obj 38 199 f 4;
#X connect 0 0 11 0;
#X connect 1 0 11 0;
#X connect 2 0 5 0;
#X connect 2 0 12 0;
#X connect 2 1 6 0;
#X connect 2 1 13 0;
#X connect 2 2 7 0;
#X connect 2 2 10 0;
#X connect 2 2 14 0;
#X connect 3 0 11 1;
#X connect 5 0 4 0;
#X connect 6 0 4 0;
#X connect 7 0 4 0;
#X connect 9 0 2 0;
#X connect 9 1 3 0;
#X connect 10 0 11 1;
#X connect 11 0 9 0;
#X connect 12 0 8 0;
#X connect 13 0 8 0;
#X connect 14 0 8 0;
#X restore 49 318 pd bitrate;
#X obj 191 259 t b a;
#X obj 211 294 f 0;
#X obj 267 294 f 1;
#X text 32 188 recorder by enrique erne;
#X obj 33 358 pack f s;
#X obj 33 298 t b s;
#X obj 33 338 f 2;
#N canvas 436 55 655 551 quick.record 0;
#X obj 24 6 r \$0-quick.rec.start;
#X obj 50 221 s \$0-quick.name;
#X obj 19 182 s \$0-rec.start;
#X msg 128 301;
#X obj 83 61 + 1;
#X obj 50 61 f 1;
#X symbolatom 115 163 80 0 0 0 - - -;
#X msg 342 84 set \$1;
#X msg 346 90 28;
#X obj 147 28 loadbang;
#X obj 132 64 time;
#X obj 169 64 date c cc c c;
#X obj 95 107 pack f f f;
#X obj 52 132 makefilename recording-%d-show1.wav;
#X connect 0 0 5 0;
#X connect 0 0 2 0;
#X connect 4 0 5 1;
#X connect 5 0 4 0;
#X connect 5 0 13 0;
#X connect 7 0 8 0;
#X connect 9 0 8 0;
#X connect 13 0 1 0;
#X connect 13 0 6 0;
#X restore 402 219 pd quick.record;
#X obj 42 278 r \$0-quick.name;
#N canvas 0 22 372 356 master-sync 0;
#X obj 199 19 inlet;
#X obj 199 301 outlet;
#X obj 48 127 spigot;
#X obj 85 47 r \$0-sync;
#X obj 250 107 == 0;
#X msg 105 251 start;
#X obj 48 147 t b b;
#X obj 105 191 spigot;
#X obj 142 171 f 1;
#X obj 172 201 f 0;
#X obj 105 127 r step;
#X obj 105 211 sel 1;
#X obj 105 231 t b b;
#X msg 48 281 master.switch 1;
#X obj 48 301 s netpd-receive;
#X obj 199 127 spigot 1;
#X connect 0 0 2 0;
#X connect 0 0 15 0;
#X connect 2 0 6 0;
#X connect 3 0 2 1;
#X connect 3 0 4 0;
#X connect 4 0 15 1;
#X connect 5 0 1 0;
#X connect 6 0 13 0;
#X connect 6 1 8 0;
#X connect 7 0 11 0;
#X connect 8 0 7 1;
#X connect 9 0 7 1;
#X connect 10 0 7 0;
#X connect 11 0 12 0;
#X connect 12 0 5 0;
#X connect 12 1 9 0;
#X connect 13 0 14 0;
#X connect 15 0 1 0;
#X restore 306 309 pd master-sync;
#X obj 288 259 t a b;
#X obj 33 238 b;
#X msg 247 189 version 0.1.1;
#X obj 102 103 cnv 15 320 60 empty empty empty 20 12 0 14 -195568 -66577
0;
#X obj 106 107 cnv 15 123 52 empty empty empty 20 12 0 14 -233017 -66577
0;
#X obj 113 124 bng 30 250 50 0 \$0-rec.new \$0-bli new(1) 1 -8 1 9
-24198 -1 -1;
#X obj 152 124 bng 30 250 50 0 \$0-rec.start \$0-bli rec(2) 1 -8 1
9 -258699 -1 -1;
#X obj 191 124 bng 30 250 50 0 \$0-rec.stop \$0-bli stop(3) 1 -8 1
9 -128992 -1 -1;
#X obj 234 107 cnv 14 54 52 empty empty quick 6 8 1 9 -233017 -166441
0;
#X obj 172 124 tgl 10 0 \$0-bla \$0-rec.on empty 0 -6 0 8 -258699 -1
-1 0 1;
#X obj 293 136 cnv 15 124 23 empty empty empty 8 8 0 10 -233017 -66577
0;
#X obj 298 141 bng 14 250 50 0 \$0-change.bit \$0-change.bit-r 16-bit
17 7 1 9 -128992 -1 -1;
#X obj 239 137 bng 18 250 50 0 \$0-quick.rec.start \$0-bli rec 1 -8
1 9 -258699 -1 -1;
#X obj 265 137 bng 18 250 50 0 \$0-rec.stop \$0-bli stop -2 -8 1 9
-128992 -1 -1;
#X obj 356 141 tgl 14 0 \$0-sync empty sync 17 7 1 9 -128992 -1 -1
0 1;
#X obj 293 107 cnv 15 124 23 empty empty RECORDER 6 12 1 12 -233017
-166441 0;
#X obj 176 267 bng 15 250 50 0 empty empty empty 17 7 0 10 -262144
-1 -1;
#X obj 241 258 bng 15 250 50 0 empty empty empty 17 7 0 10 -262144
-1 -1;
#X obj 347 270 bng 15 250 50 0 empty empty empty 17 7 0 10 -262144
-1 -1;
#X obj 470 350 inlet~;
#X obj 229 -44 r jlu1;
#X obj 227 -19 change;
#X obj 172 15 bng 15 250 50 0 empty empty empty 17 7 0 10 -262144 -1
-1;
#X floatatom 290 -7 5 0 0 0 - - -;
#X obj 227 4 sel 1;
#X floatatom 125 83 5 0 0 0 - - -;
#X obj 166 49 f 1;
#X obj 205 48 + 1;
#X obj 162 71 mod 2;
#X obj 345 12 == 0;
#X obj 319 33 bng 15 250 50 0 empty empty empty 17 7 0 10 -262144 -1
-1;
#X obj 382 11 == 1;
#X obj 383 40 t b b;
#X msg 53 458 open -bytes \$1 \$2;
#X msg 578 326 set \$1-rec;
#X obj 578 306 f \$0;
#X obj 521 280 select 1 0;
#X obj 526 354 inlet~;
#X obj 446 385 s~ rec-l;
#X obj 518 386 s~ rec-r;
#X connect 0 0 19 0;
#X connect 1 0 9 0;
#X connect 3 0 14 0;
#X connect 4 0 0 0;
#X connect 4 0 37 0;
#X connect 5 0 1 0;
#X connect 5 0 36 0;
#X connect 7 0 20 0;
#X connect 7 0 35 0;
#X connect 8 0 15 1;
#X connect 9 0 10 0;
#X connect 9 1 2 0;
#X connect 10 0 6 0;
#X connect 11 0 6 0;
#X connect 13 0 52 0;
#X connect 14 0 15 0;
#X connect 14 1 13 1;
#X connect 15 0 13 0;
#X connect 17 0 14 0;
#X connect 18 0 2 0;
#X connect 19 0 18 0;
#X connect 19 1 11 0;
#X connect 20 0 3 0;
#X connect 38 0 2 0;
#X connect 38 0 57 0;
#X connect 39 0 40 0;
#X connect 40 0 42 0;
#X connect 40 0 43 0;
#X connect 41 0 45 0;
#X connect 43 0 41 0;
#X connect 45 0 46 0;
#X connect 45 0 47 0;
#X connect 46 0 45 1;
#X connect 47 0 44 0;
#X connect 47 0 48 0;
#X connect 47 0 50 0;
#X connect 48 0 31 0;
#X connect 48 0 49 0;
#X connect 50 0 51 0;
#X connect 51 0 31 0;
#X connect 51 1 32 0;
#X connect 52 0 2 0;
#X connect 54 0 53 0;
#X connect 55 1 54 0;
#X connect 56 0 58 0;
#X connect 56 0 2 1;
#X coords 0 -1 1 1 325 65 1 100 100;
