#N canvas 0 0 450 300 10;
#X obj 418 204 inlet~;
#X obj 697 594 hip~ 5;
#X floatatom 699 112 4 0 100 0 - - -;
#X obj 698 541 *~;
#X floatatom 703 178 0 0 200 0 - - -;
#X obj 698 443 +~;
#X obj 697 395 samphold~;
#X obj 698 419 *~;
#X floatatom 1046 103 0 0 0 0 - - -;
#X text 815 147 chunk size;
#X text 812 161 in seconds;
#X obj 1060 169 t b f;
#X obj 863 474 -~ 0.5;
#X obj 863 498 *~ 0.5;
#X obj 863 521 cos~;
#X obj 1048 249 phasor~;
#X obj 1135 268 +~ 0.5;
#X obj 1136 294 wrap~;
#X obj 697 570 +~;
#X text 1082 108 <-- transposition \, halftones/10;
#X obj 699 132 * 0.001;
#X obj 681 299 phasor~;
#X obj 698 467 *~ 44100;
#X floatatom 1056 226 5 0 0 0 - - -;
#X obj 1173 168 t b f;
#X obj 698 211 * 0.01;
#X obj 949 550 *~;
#X obj 949 452 +~;
#X obj 948 404 samphold~;
#X obj 949 428 *~;
#X obj 1114 483 -~ 0.5;
#X obj 1114 507 *~ 0.5;
#X obj 1114 530 cos~;
#X obj 949 476 *~ 44100;
#X text 728 188 <-- precession \, percent;
#X obj 699 68 loadbang;
#X text 699 45 TIME COMPRESSION/EXPANSION BY LOOPED SAMPLING;
#X floatatom 830 254 10 0 900 0 - - -;
#X obj 830 277 * 0.001;
#X text 739 112 <-- chunk size (msec);
#X obj 830 302 t b f;
#X text 873 253 <-- loop length;
#X text 914 268 (msec);
#X obj 681 323 *~;
#X obj 698 256 /;
#X floatatom 927 322 10 0 0 0 - - -;
#X obj 904 92 r pgmout;
#X obj 899 121 == 8;
#X msg 888 143 stop;
#X obj 934 116 r loop_in_ms;
#X obj 951 139 sel 0 1;
#X msg 983 164 0;
#X msg 951 164 1;
#X obj 927 219 bng 15 250 50 0 empty empty empty 17 7 0 10 -262144
-1 -1;
#X obj 925 187 spigot 1;
#X obj 651 696 outlet~;
#X obj 649 448 inlet;
#X floatatom 595 327 10 0 0 0 - - -;
#X obj 557 304 r loopsize;
#X msg 740 185 100;
#X floatatom 657 484 5 0 0 0 - - -;
#X msg 1018 103 14;
#X obj 622 445 tgl 15 0 empty empty empty 17 7 0 10 -262144 -1 -1 0
1;
#X obj 646 165 * 2;
#X obj 1083 28 unpack f f f;
#X obj 529 461 r breath;
#X floatatom 502 489 5 0 0 0 - - -;
#X obj 535 490 / 64;
#X obj 625 418 r loop8;
#X floatatom 600 254 5 0 0 0 - - -;
#X obj 644 139 r \$0-n1x;
#X obj 1048 201 expr (pow(2 \, $f1/12)-$f3)/$f2;
#X obj 851 407 samplerate~;
#X obj 852 383 loadbang;
#X obj 1408 464 poke~;
#N canvas 756 298 252 166 limiter-for-two-channels 0;
#X obj 24 22 inlet~;
#X msg 121 85 limit 100;
#X obj 121 21 loadbang;
#X obj 24 60 z~ 64;
#X obj 24 169 *~;
#X obj 24 200 outlet~;
#X obj 121 113 zexy/limiter~ 10;
#X connect 0 0 3 0;
#X connect 0 0 6 0;
#X connect 1 0 6 0;
#X connect 2 0 1 0;
#X connect 3 0 4 0;
#X connect 4 0 5 0;
#X connect 6 0 4 1;
#X restore 240 215 pd limiter-for-two-channels;
#X obj 427 318 bng 50 250 50 0 empty empty empty 17 7 0 10 -228856
-260097 -1;
#X msg 427 380 const 0;
#X text 479 335 clear loop;
#X obj 415 226 hip~ 5;
#X msg 490 163 0;
#X floatatom 1082 95 5 0 0 0 - - -;
#X msg 699 90 25;
#X msg 310 295 start;
#X obj 1082 75 - 64;
#X obj 628 108 r xaxis;
#X obj 582 181 mod 127;
#X floatatom 661 246 5 0 0 0 - - -;
#X obj 603 198 average 20;
#X obj 675 195 - 96;
#X obj 634 62 r \$0-n2x;
#X obj 653 647 *~;
#X obj 643 588 lop~ 80;
#X obj 652 672 *~ 2;
#X obj 506 562 clip;
#X obj 646 512 int;
#X obj 642 553 sig~;
#X msg 864 357 -1;
#X text 913 347 use this to shift the play point backward to sync with
system loops;
#X obj 838 330 sel 0 1;
#X msg 832 356 1;
#X obj 697 493 +~ 1;
#X obj 948 502 +~ 1;
#N canvas 0 0 450 300 (subpatch) 0;
#X array \$0-table20 1.323e+006 float 0;
#X coords 0 1.02 1.323e+006 -1.02 200 130 1 0 0;
#X restore 266 460 graph;
#X obj 697 348 s~ read-pto;
#X obj 1136 319 s~ phase2o;
#X obj 699 155 s chunk-sizeo;
#X obj 1060 144 r chunk-sizeo;
#X obj 1173 143 r precessiono;
#X obj 706 234 s precessiono;
#X obj 697 370 r chunk-sizeo;
#X obj 785 396 r~ phaseo;
#X obj 1036 405 r~ phase2o;
#X obj 948 379 r chunk-sizeo;
#X obj 733 420 r~ phaseo;
#X obj 736 443 r~ read-pto;
#X obj 987 452 r~ read-pto;
#X obj 984 429 r~ phase2o;
#X obj 1114 459 r~ phase2o;
#X obj 863 450 r~ phaseo;
#X obj 1048 275 s~ phaseo;
#X floatatom 607 534 5 0 0 0 - - -;
#X obj 563 446 sel 0 1;
#N canvas 0 0 450 300 table 0;
#X restore 261 398 pd table;
#X obj 1087 49 ftom;
#X obj 1082 8 r noteval;
#X obj 177 413 env~;
#X floatatom 179 432 5 0 0 0 - - -;
#X obj 506 214 -~;
#X obj 881 191 tgl 15 0 empty empty empty 17 7 0 10 -262144 -1 -1 0
1;
#X obj 726 272 cnv 15 40 40 empty empty change 20 12 0 14 -258113 -66577
0;
#X obj 178 468 env~;
#X floatatom 180 487 5 0 0 0 - - -;
#X obj 88 499 snapshot~;
#X obj 86 462 snapshot~;
#X floatatom 49 483 5 0 0 0 - - -;
#X floatatom 53 522 5 0 0 0 - - -;
#X obj 73 416 bng 15 250 50 0 empty empty empty 17 7 0 10 -262144 -1
-1;
#X obj 238 128;
#X floatatom 649 271 5 0 0 0 - - -;
#X obj 721 275 -;
#X floatatom 643 294 5 0 0 0 - - -;
#X msg 547 352 \; \$0-table20 resize \$1;
#X obj 439 405 s \$0-table20;
#X obj 287 346 tabwrite~ \$0-table20;
#X obj 698 517 tabread4~ \$0-table20;
#X obj 949 526 tabread4~ \$0-table20;
#X obj 926 302 arraysize \$0-table20;
#X connect 0 0 79 0;
#X connect 1 0 91 0;
#X connect 2 0 20 0;
#X connect 3 0 18 0;
#X connect 4 0 25 0;
#X connect 5 0 22 0;
#X connect 6 0 7 0;
#X connect 7 0 5 0;
#X connect 8 0 71 0;
#X connect 11 0 71 0;
#X connect 11 1 71 1;
#X connect 12 0 13 0;
#X connect 13 0 14 0;
#X connect 14 0 3 1;
#X connect 15 0 16 0;
#X connect 15 0 120 0;
#X connect 16 0 17 0;
#X connect 17 0 105 0;
#X connect 18 0 1 0;
#X connect 20 0 106 0;
#X connect 21 0 43 0;
#X connect 22 0 101 0;
#X connect 24 0 71 0;
#X connect 24 1 71 2;
#X connect 25 0 44 0;
#X connect 25 0 109 0;
#X connect 26 0 18 1;
#X connect 27 0 33 0;
#X connect 28 0 29 0;
#X connect 29 0 27 0;
#X connect 30 0 31 0;
#X connect 31 0 32 0;
#X connect 32 0 26 1;
#X connect 33 0 102 0;
#X connect 35 0 82 0;
#X connect 37 0 38 0;
#X connect 38 0 40 0;
#X connect 38 0 43 1;
#X connect 40 0 44 0;
#X connect 40 1 44 1;
#X connect 43 0 104 0;
#X connect 44 0 139 0;
#X connect 44 0 140 0;
#X connect 44 0 21 0;
#X connect 46 0 47 0;
#X connect 47 0 48 0;
#X connect 47 0 50 0;
#X connect 47 0 80 0;
#X connect 47 0 129 0;
#X connect 48 0 144 0;
#X connect 49 0 54 0;
#X connect 50 0 52 0;
#X connect 50 0 59 0;
#X connect 50 0 61 0;
#X connect 50 1 51 0;
#X connect 51 0 54 1;
#X connect 52 0 54 1;
#X connect 53 0 147 0;
#X connect 54 0 53 0;
#X connect 54 0 37 0;
#X connect 54 0 83 0;
#X connect 56 0 60 0;
#X connect 56 0 95 0;
#X connect 58 0 142 0;
#X connect 58 0 57 0;
#X connect 59 0 4 0;
#X connect 61 0 8 0;
#X connect 62 0 122 0;
#X connect 62 0 95 0;
#X connect 63 0 86 0;
#X connect 63 0 88 0;
#X connect 63 0 89 0;
#X connect 64 0 124 0;
#X connect 65 0 67 0;
#X connect 67 0 66 0;
#X connect 68 0 62 0;
#X connect 70 0 63 0;
#X connect 71 0 15 0;
#X connect 71 0 23 0;
#X connect 72 0 22 1;
#X connect 72 0 33 1;
#X connect 73 0 72 0;
#X connect 75 0 144 0;
#X connect 76 0 77 0;
#X connect 77 0 143 0;
#X connect 79 0 144 0;
#X connect 82 0 2 0;
#X connect 83 0 144 0;
#X connect 84 0 81 0;
#X connect 84 0 8 0;
#X connect 89 0 87 0;
#X connect 89 0 4 0;
#X connect 90 0 2 0;
#X connect 91 0 93 0;
#X connect 92 0 91 1;
#X connect 93 0 55 0;
#X connect 95 0 96 0;
#X connect 95 0 121 0;
#X connect 96 0 92 0;
#X connect 97 0 101 1;
#X connect 97 0 102 1;
#X connect 99 1 97 0;
#X connect 100 0 101 1;
#X connect 100 0 102 1;
#X connect 101 0 145 0;
#X connect 102 0 146 0;
#X connect 107 0 11 0;
#X connect 108 0 24 0;
#X connect 110 0 6 0;
#X connect 111 0 6 1;
#X connect 112 0 28 1;
#X connect 113 0 28 0;
#X connect 114 0 7 1;
#X connect 115 0 5 1;
#X connect 116 0 27 1;
#X connect 117 0 29 1;
#X connect 118 0 30 0;
#X connect 119 0 12 0;
#X connect 124 0 84 0;
#X connect 125 0 64 0;
#X connect 126 0 127 0;
#X connect 126 0 134 0;
#X connect 129 0 140 1;
#X connect 131 0 132 0;
#X connect 131 0 133 0;
#X connect 133 0 136 0;
#X connect 134 0 135 0;
#X connect 137 0 134 0;
#X connect 137 0 133 0;
#X connect 140 0 141 0;
#X connect 145 0 3 0;
#X connect 146 0 26 0;
#X connect 147 0 45 0;
