#N canvas 0 0 450 300 10;
#X obj 752 305 spark6formant \$1;
#X obj 775 78 inlet;
#X msg 770 109 1 \, 0 500 0;
#X msg 851 111 1 \, 0 10 0;
#X obj 769 139 vline~;
#X obj 856 144 vline~;
#X obj 771 166 *~;
#X obj 772 199 *~;
#X obj 728 168 noise~;
#X obj 742 234 *~;
#X obj 743 259 *~ 0.5;
#X obj 857 170 *~ 7000;
#X obj 856 196 +~ 20;
#X obj 857 222 osc~;
#X obj 839 260 *~;
#X obj 757 351 outlet~;
#X connect 0 0 15 0;
#X connect 1 0 2 0;
#X connect 1 0 3 0;
#X connect 2 0 4 0;
#X connect 3 0 5 0;
#X connect 4 0 6 0;
#X connect 4 0 6 1;
#X connect 5 0 11 0;
#X connect 5 0 14 0;
#X connect 6 0 7 0;
#X connect 6 0 7 1;
#X connect 7 0 9 1;
#X connect 8 0 9 0;
#X connect 9 0 10 0;
#X connect 10 0 0 0;
#X connect 11 0 12 0;
#X connect 12 0 13 0;
#X connect 13 0 14 1;
#X connect 14 0 0 0;
