#N canvas 0 0 1497 430 10;
#X declare -path ./rj;
#N canvas 568 125 452 817 BASS 0;
#X obj 19 271 osc~;
#X obj 51 226 *~;
#X obj 69 206 lop~ 1;
#X obj 19 252 +~;
#X obj 19 43 mtof;
#X obj 19 124 / 2;
#X obj 19 672 vcf~ 2;
#X obj 160 406 r \$0-bpm;
#X obj 223 276 int;
#X obj 223 296 change -100;
#X obj 160 478 *;
#X obj 223 386 f;
#X msg 383 346 4;
#X obj 223 256 * 5.99;
#X obj 223 316 sel 0 1 2 3 4 5;
#X obj 160 448 / 60;
#X obj 160 427 f;
#X msg 343 346 3;
#X obj 19 104 t f f;
#X obj 19 83 line;
#X obj 56 57 pack f 100;
#X obj 86 43 * 1000;
#X msg 223 346 1;
#X msg 263 346 1.5;
#X obj 56 468 f;
#X obj 27 406 spigot 1;
#X obj 160 498 change -100;
#X obj 160 519 t f b;
#X msg 128 406 1;
#X msg 96 406 0;
#X obj 27 301 r \$0-tick;
#X obj 27 322 mod 8;
#X obj 27 343 / 2;
#X obj 27 364 int;
#X obj 27 386 * 0.25;
#X obj 69 144 r \$0-Tone;
#N canvas 0 22 568 311 fm-osc 0;
#X obj 20 114 * 0.5;
#X obj 20 144 osc~;
#X obj 70 144 osc~;
#X obj 140 144 osc~;
#X obj 180 144 osc~;
#X obj 140 114 * 1;
#X obj 180 114 * 2;
#X obj 220 144 osc~;
#X obj 290 144 osc~;
#X obj 340 144 osc~;
#X obj 410 144 osc~;
#X obj 480 144 osc~;
#X obj 290 114 * 4;
#X obj 480 114 * 8;
#X obj 70 114 * 1.4983;
#X obj 410 114 * 5.9932;
#X obj 340 114 * 5.0397;
#X obj 220 114 * 2.9966;
#X obj 155 32 inlet;
#X obj 220 267 outlet~;
#X obj 340 174 *~ 1;
#X obj 290 174 *~ 1;
#X obj 140 174 *~ 1;
#X obj 180 174 *~ 1;
#X obj 70 174 *~ 2;
#X obj 20 174 *~ 2;
#X obj 220 174 *~ 1;
#X obj 155 53 t f f f f f f f f f;
#X obj 220 224 *~ 0.1;
#X obj 480 174 *~ 0.2;
#X obj 410 174 *~ 0.2;
#X connect 0 0 1 0;
#X connect 1 0 25 0;
#X connect 2 0 24 0;
#X connect 3 0 22 0;
#X connect 4 0 23 0;
#X connect 5 0 3 0;
#X connect 6 0 4 0;
#X connect 7 0 26 0;
#X connect 8 0 21 0;
#X connect 9 0 20 0;
#X connect 10 0 30 0;
#X connect 11 0 29 0;
#X connect 12 0 8 0;
#X connect 13 0 11 0;
#X connect 14 0 2 0;
#X connect 15 0 10 0;
#X connect 16 0 9 0;
#X connect 17 0 7 0;
#X connect 18 0 27 0;
#X connect 20 0 28 0;
#X connect 21 0 28 0;
#X connect 22 0 28 0;
#X connect 23 0 28 0;
#X connect 24 0 28 0;
#X connect 25 0 28 0;
#X connect 26 0 28 0;
#X connect 27 0 0 0;
#X connect 27 1 14 0;
#X connect 27 2 5 0;
#X connect 27 3 6 0;
#X connect 27 4 17 0;
#X connect 27 5 12 0;
#X connect 27 6 16 0;
#X connect 27 7 15 0;
#X connect 27 8 13 0;
#X connect 28 0 19 0;
#X connect 29 0 28 0;
#X connect 30 0 28 0;
#X restore 51 124 pd fm-osc;
#X obj 223 406 t b b b f;
#X obj 69 165 * 10000;
#X obj 69 186 + 100;
#X obj 19 23 inlet;
#X text 325 775 Joe White 2010;
#X obj 56 489 phasor~;
#X obj 56 510 *~ 2;
#X obj 56 540 max~ 1;
#X obj 106 541 min~ 1;
#X obj 38 446 sig~ 1;
#X obj 38 567 -~;
#X obj 38 588 *~ 2;
#X obj 38 609 -~ 1;
#X obj 38 630 *~ 490;
#X obj 38 651 +~ 490;
#X obj 27 426 t b b;
#X msg 303 346 2;
#X obj 99 758 outlet~;
#X floatatom 108 88 5 0 0 0 - - -;
#X floatatom 132 120 5 0 0 0 - - -;
#X obj 163 641 r breath;
#X obj 142 666 / 127;
#X obj 155 704 * 2;
#X obj 164 746 sig~;
#X floatatom 221 695 5 0 0 0 - - -;
#X obj 19 733 *~ 1;
#X obj 228 192 r xaxis;
#X obj 276 226 / 127;
#X obj 54 700 lop~ 80;
#X obj 89 3 r xaxisr;
#X obj 87 24 / 127;
#X floatatom 198 43 5 0 0 0 - - -;
#X connect 0 0 6 0;
#X connect 1 0 3 1;
#X connect 2 0 1 1;
#X connect 3 0 0 0;
#X connect 4 0 20 0;
#X connect 4 0 56 0;
#X connect 4 0 19 0;
#X connect 5 0 3 0;
#X connect 6 0 62 0;
#X connect 7 0 16 0;
#X connect 8 0 9 0;
#X connect 9 0 14 0;
#X connect 10 0 26 0;
#X connect 11 0 37 0;
#X connect 12 0 11 0;
#X connect 13 0 8 0;
#X connect 14 0 22 0;
#X connect 14 1 23 0;
#X connect 14 2 53 0;
#X connect 14 3 17 0;
#X connect 14 4 12 0;
#X connect 15 0 10 0;
#X connect 16 0 15 0;
#X connect 17 0 11 0;
#X connect 18 0 5 0;
#X connect 18 1 36 0;
#X connect 19 0 18 0;
#X connect 21 0 20 1;
#X connect 22 0 11 0;
#X connect 23 0 11 0;
#X connect 24 0 42 0;
#X connect 25 0 52 0;
#X connect 26 0 27 0;
#X connect 27 0 24 1;
#X connect 27 1 28 0;
#X connect 28 0 25 1;
#X connect 29 0 25 1;
#X connect 30 0 31 0;
#X connect 31 0 32 0;
#X connect 32 0 33 0;
#X connect 33 0 34 0;
#X connect 34 0 25 0;
#X connect 35 0 38 0;
#X connect 36 0 1 0;
#X connect 37 2 10 0;
#X connect 37 3 10 1;
#X connect 38 0 39 0;
#X connect 39 0 2 0;
#X connect 40 0 4 0;
#X connect 40 0 55 0;
#X connect 42 0 43 0;
#X connect 43 0 44 0;
#X connect 43 0 45 0;
#X connect 44 0 47 1;
#X connect 45 0 48 0;
#X connect 46 0 47 0;
#X connect 47 0 48 0;
#X connect 48 0 49 0;
#X connect 49 0 50 0;
#X connect 50 0 51 0;
#X connect 51 0 6 1;
#X connect 52 0 29 0;
#X connect 52 1 24 0;
#X connect 53 0 11 0;
#X connect 57 0 58 0;
#X connect 58 0 59 0;
#X connect 58 0 61 0;
#X connect 58 0 38 0;
#X connect 59 0 60 0;
#X connect 59 0 62 1;
#X connect 60 0 65 0;
#X connect 62 0 54 0;
#X connect 63 0 64 0;
#X connect 64 0 13 0;
#X connect 66 0 67 0;
#X connect 67 0 21 0;
#X connect 67 0 68 0;
#X restore 254 295 pd BASS;
#N canvas 0 22 450 300 TIMEBASE 0;
#X obj 92 67 loadbang;
#X obj 92 109 f;
#X obj 121 109 + 1;
#X obj 92 130 s \$0-tick;
#X obj 92 88 metro 53.57;
#X text 182 88 140 BPM;
#X obj 245 67 loadbang;
#X msg 245 88 140;
#X obj 245 109 s \$0-bpm;
#X obj 23 15 declare -path ./rj;
#X floatatom 317 91 5 0 0 0 - - -;
#X obj 237 185 r loop_in_ms;
#X floatatom 259 207 5 0 0 0 - - -;
#X obj 141 219 expr 60000;
#X obj 220 43 r bpm;
#X obj 223 70 * 2;
#X connect 0 0 4 0;
#X connect 1 0 2 0;
#X connect 1 0 3 0;
#X connect 2 0 1 1;
#X connect 4 0 1 0;
#X connect 6 0 7 0;
#X connect 7 0 8 0;
#X connect 10 0 8 0;
#X connect 11 0 12 0;
#X connect 14 0 8 0;
#X connect 14 0 15 0;
#X connect 15 0 8 0;
#X restore 249 254 pd TIMEBASE;
#N canvas 0 22 450 300 PATTERN 0;
#X obj 47 132 spigot;
#X obj 86 108 != 0;
#X obj 47 203 outlet;
#X obj 127 44 r \$0-tick;
#X obj 127 105 mod 64;
#X obj 127 168 f;
#X obj 127 85 spigot;
#X obj 166 65 r \$0-autoplay;
#X msg 127 147 60;
#X msg 157 147 58;
#X msg 187 147 55;
#X msg 217 147 48;
#X obj 127 126 sel 0 16 32 48;
#X obj 47 84 unpack f f f;
#X obj 41 44 r mynotemsg;
#X floatatom 10 110 5 0 0 0 - - -;
#X floatatom 55 108 5 0 0 0 - - -;
#X connect 0 0 2 0;
#X connect 1 0 0 1;
#X connect 3 0 6 0;
#X connect 4 0 12 0;
#X connect 5 0 2 0;
#X connect 6 0 4 0;
#X connect 7 0 6 1;
#X connect 8 0 5 0;
#X connect 9 0 5 0;
#X connect 10 0 5 0;
#X connect 11 0 5 0;
#X connect 12 0 8 0;
#X connect 12 1 9 0;
#X connect 12 2 10 0;
#X connect 12 3 11 0;
#X connect 13 0 0 0;
#X connect 13 0 15 0;
#X connect 13 1 1 0;
#X connect 13 1 16 0;
#X connect 14 0 13 0;
#X restore 254 275 pd PATTERN;
#X floatatom -182 152 5 0 127 0 - - -;
#X obj -215 193 moses 0;
#X floatatom -144 322 5 0 0 0 - - -;
#X obj -147 274 / 100;
#X obj -147 297 * 4;
#X obj -200 299 -;
#X floatatom -199 322 5 0 0 0 - - -;
#X obj -204 272 swap 1;
#X obj -36 296 * 4;
#X obj -89 298 -;
#X floatatom -88 321 5 0 0 0 - - -;
#X obj -93 271 swap 1;
#X obj -199 348 vsl 15 50 0 1 0 0 empty empty empty 0 -9 0 10 -262144
-1 -1 0 1;
#X obj -86 344 vsl 15 50 0 1 0 0 empty empty empty 0 -9 0 10 -262144
-1 -1 4900 1;
#X obj -220 37 r xaxis;
#X obj -130 81 r breath;
#X floatatom -171 94 5 0 0 0 - - -;
#X floatatom -172 122 5 0 0 0 - - -;
#X obj -217 64 * 2;
#X obj -223 166 clip 0 127;
#X floatatom -255 234 5 0 0 0 - - -;
#X obj -183 134 average;
#X obj -141 191 moses 64;
#X obj 60 462 *~;
#X floatatom 835 153 5 0 0 0 - - -;
#X obj 910 12 vsl 15 128 0.5 0.977 0 0 empty leadmuting empty 0 -8
0 10 -262144 -1 -1 0 1;
#X floatatom 910 149 5 0 0 0 - - -;
#X text 898 160 mute strings;
#N canvas 0 25 491 311 stringunit 0;
#N canvas 0 25 995 656 delay-writer 0;
#X obj 86 220 inlet~;
#X obj 252 739 outlet~;
#X obj 277 455 +~;
#X obj 134 220 inlet;
#X obj 398 319 hip~ 5;
#X obj 400 406 *~ 3;
#X obj 398 299 lop~ 1000;
#X obj 398 280 *~ 0.015;
#X obj 135 376 hip~ 5;
#X obj 136 412 clip~ -1 1;
#X obj 135 343 lop~ 6000;
#X obj 135 313 *~ 0.973;
#X obj 400 431 clip~ -1 1;
#X obj 137 630 *~ 0.11;
#X obj 401 630 *~ 400;
#X obj 256 220 inlet muting;
#X obj 241 359 bp~ 311 50;
#X obj 319 359 bp~ 504 50;
#X obj 399 357 bp~ 767 50;
#X obj 477 357 bp~ 1119 50;
#X obj 562 358 bp~ 1246 50;
#X obj 392 197 block~ 1;
#X obj 253 698 *~ 1;
#X text 44 358 string;
#X text 454 487 it recirculates;
#X text 484 630 output mostly comes from the body;
#X text 488 277 much more energy passed to string than to body;
#X text 649 356 body formant;
#X obj 134 252 delread~ \$0-stringdel1;
#X obj 276 487 delwrite~ \$0-stringdel1 1000;
#X connect 0 0 11 0;
#X connect 2 0 29 0;
#X connect 3 0 28 0;
#X connect 4 0 16 0;
#X connect 4 0 17 0;
#X connect 4 0 18 0;
#X connect 4 0 19 0;
#X connect 4 0 20 0;
#X connect 5 0 12 0;
#X connect 6 0 4 0;
#X connect 7 0 6 0;
#X connect 8 0 9 0;
#X connect 9 0 13 0;
#X connect 9 0 2 0;
#X connect 10 0 8 0;
#X connect 11 0 10 0;
#X connect 12 0 2 1;
#X connect 12 0 14 0;
#X connect 13 0 22 0;
#X connect 14 0 22 0;
#X connect 15 0 11 1;
#X connect 16 0 5 0;
#X connect 17 0 5 0;
#X connect 18 0 5 0;
#X connect 19 0 5 0;
#X connect 20 0 5 0;
#X connect 22 0 1 0;
#X connect 28 0 7 0;
#X connect 28 0 11 0;
#X restore 149 246 pd delay-writer;
#X obj 192 219 expr 1000/$f1;
#X obj 192 200 mtof;
#N canvas 0 25 371 300 gopluckyourself 0;
#X obj -30 199 *~;
#X obj -107 105 hip~ 5;
#X obj -11 97 vline~;
#X obj -16 122 *~;
#X msg -11 76 1 1 0 \, 0 9 1;
#X obj 40 -33 inlet bang;
#X obj -29 222 outlet~;
#X obj 94 205 switch~;
#X obj 94 186 tgl 15 0 empty empty empty 0 -6 0 10 -262144 -1 -1 0
1;
#X msg 79 152 1;
#X msg 110 152 0;
#X floatatom 110 114 5 0 0 0 - - -;
#X obj 110 132 sel 0;
#X obj 40 -11 t b b b;
#X obj -107 85 lop~ 12000;
#X obj -107 65 clip~ -0.3 0.3;
#X obj -137 -9 noise~;
#X obj -138 17 expr~ if ($v1 == 0 \, 0 \, (if ($v1 < 0 \, -1 \, 1)))
;
#X text -91 0 TOTAL DISTORTION;
#X msg 110 76 1 0 \, 0 15;
#X obj 110 95 line 1 15;
#X connect 0 0 6 0;
#X connect 1 0 0 0;
#X connect 2 0 3 0;
#X connect 2 0 3 1;
#X connect 3 0 0 1;
#X connect 4 0 2 0;
#X connect 5 0 13 0;
#X connect 8 0 7 0;
#X connect 9 0 8 0;
#X connect 10 0 8 0;
#X connect 11 0 12 0;
#X connect 12 0 10 0;
#X connect 13 0 19 0;
#X connect 13 1 4 0;
#X connect 13 2 9 0;
#X connect 14 0 1 0;
#X connect 15 0 14 0;
#X connect 16 0 17 0;
#X connect 17 0 15 0;
#X connect 19 0 20 0;
#X connect 20 0 11 0;
#X restore 195 154 pd gopluckyourself;
#X obj 93 5 inlet note;
#X obj 150 282 outlet~;
#X obj 236 5 inlet muting;
#X obj 19 231 tgl 15 0 empty empty empty 0 -6 0 10 -262144 -1 -1 0
1;
#X msg 4 197 1;
#X msg 35 197 0;
#X floatatom 36 162 5 0 0 0 - - -;
#X obj 35 178 sel 0;
#X obj 19 251 switch~ 16;
#X msg 36 124 1 0 \, 0 15000;
#X obj 36 143 line 1 15000;
#X floatatom 93 29 5 0 0 0 - - -;
#N canvas 0 25 1016 656 pick-position 0;
#X obj 81 21 inlet~;
#X obj 80 267 outlet~;
#X obj 171 20 inlet position;
#X obj 81 216 -~;
#X obj 15 21 inlet bang;
#X obj -4 226 tgl 15 0 empty empty empty 0 -6 0 10 -262144 -1 -1 0
1;
#X msg -9 181 1;
#X msg 22 181 0;
#X floatatom 31 135 5 0 0 0 - - -;
#X obj 31 153 sel 0;
#X obj 1 64 t b b;
#X msg 31 97 1 0 \, 0 40;
#X obj 31 116 line 1 40;
#X obj -4 247 switch~ 16;
#X obj 143 87 delwrite~ \$0-pick-position 100;
#X obj 141 116 delread~ \$0-pick-position 3;
#X connect 0 0 3 0;
#X connect 0 0 14 0;
#X connect 2 0 15 0;
#X connect 3 0 1 0;
#X connect 4 0 10 0;
#X connect 5 0 13 0;
#X connect 6 0 5 0;
#X connect 7 0 5 0;
#X connect 8 0 9 0;
#X connect 9 0 7 0;
#X connect 10 0 11 0;
#X connect 10 1 6 0;
#X connect 11 0 12 0;
#X connect 12 0 8 0;
#X connect 15 0 3 1;
#X restore 150 180 pd pick-position;
#X floatatom 243 100 5 0 0 0 - - -;
#N canvas 0 25 251 182 pick-position-delay-calculator 0;
#N canvas 0 0 450 300 midi-to-delay-length 0;
#X obj 33 51 mtof;
#X obj 33 71 expr 1000/$f1;
#X obj 33 31 inlet;
#X obj 33 92 outlet;
#X connect 0 0 1 0;
#X connect 1 0 3 0;
#X connect 2 0 0 0;
#X restore 56 6 pd midi-to-delay-length;
#X obj 56 -34 loadbang;
#X msg 56 -14 40;
#X obj 32 47 / 4;
#X floatatom 5 -59 5 0 0 0 - - -;
#X obj 5 -42 t b f;
#X obj 5 -80 r \$0-pick-location;
#X obj 32 67 outlet pickpositiondelay;
#X connect 0 0 3 0;
#X connect 1 0 2 0;
#X connect 2 0 0 0;
#X connect 3 0 7 0;
#X connect 4 0 5 0;
#X connect 5 0 3 0;
#X connect 5 1 3 1;
#X connect 6 0 4 0;
#X restore 243 54 pd pick-position-delay-calculator;
#X obj 93 50 t b b b f b;
#X text 274 98 pick position delay in ms;
#X connect 0 0 5 0;
#X connect 1 0 0 1;
#X connect 2 0 1 0;
#X connect 3 0 16 1;
#X connect 4 0 15 0;
#X connect 6 0 0 2;
#X connect 7 0 12 0;
#X connect 8 0 7 0;
#X connect 9 0 7 0;
#X connect 10 0 11 0;
#X connect 11 0 9 0;
#X connect 13 0 14 0;
#X connect 14 0 10 0;
#X connect 15 0 19 0;
#X connect 16 0 0 0;
#X connect 17 0 16 2;
#X connect 18 0 17 0;
#X connect 19 0 13 0;
#X connect 19 1 3 0;
#X connect 19 2 16 0;
#X connect 19 3 2 0;
#X connect 19 4 8 0;
#X restore 835 183 pd stringunit;
#X obj 1002 123 hsl 128 15 2 50 0 0 \$0-pick-location empty empty -2
-6 0 10 -262144 -1 -1 0 1;
#X text 1027 89 pick location;
#X obj 1000 61 loadbang;
#X floatatom 999 147 5 0 0 0 - - -;
#X text 983 147 1/;
#X text 1032 147 up string from bridge;
#X obj 960 231 vsl 15 128 0 1 0 0 empty empty empty 0 -8 0 10 -262144
-1 -1 0 1;
#X msg 999 81 5;
#X text 923 322 volume;
#X text 832 136 note;
#X text 1150 419 sg 2008;
#X text 935 -64 KARPLUS-STRONG SYNTHESIS WITH BODY FORMANTS;
#X obj 910 -34 loadbang;
#X msg 910 -14 0.977;
#X floatatom 949 389 5 0 0 0 - - -;
#X obj 899 204 loadbang;
#X msg 899 224 0.3;
#X obj 827 61 stripnote;
#X obj 900 335 sig~;
#X obj 900 360 lop~ 80;
#X obj 869 391 *~;
#X floatatom 1081 304 5 0 127 0 - - -;
#X obj 1048 345 moses 0;
#X floatatom 1119 474 5 0 0 0 - - -;
#X obj 1116 426 / 100;
#X obj 1116 449 * 4;
#X obj 1064 448 -;
#X floatatom 1064 474 5 0 0 0 - - -;
#X obj 1059 424 swap 1;
#X obj 1227 448 * 4;
#X obj 1174 450 -;
#X floatatom 1175 473 5 0 0 0 - - -;
#X obj 1170 423 swap 1;
#X obj 1064 500 vsl 15 50 0 1 0 0 empty empty empty 0 -9 0 10 -262144
-1 -1 0 1;
#X obj 1177 496 vsl 15 50 0 1 0 0 empty empty empty 0 -9 0 10 -262144
-1 -1 4900 1;
#X obj 1043 189 r xaxis;
#X obj 1133 233 r breath;
#X floatatom 1092 246 5 0 0 0 - - -;
#X floatatom 1091 274 5 0 0 0 - - -;
#X obj 1046 216 * 2;
#X obj 1040 318 clip 0 127;
#X floatatom 1008 386 5 0 0 0 - - -;
#X obj 1080 286 average;
#X obj 1122 343 moses 64;
#X text 1220 500 volume;
#X obj 1197 513 sig~;
#X obj 1197 538 lop~ 80;
#X obj 1166 569 *~;
#X text 1017 493 volume;
#X obj 994 506 sig~;
#X obj 994 531 lop~ 80;
#X obj 963 562 *~;
#X obj 901 310 * 2;
#X obj 767 5 * 3;
#X connect 0 0 26 0;
#X connect 2 0 0 0;
#X connect 4 1 25 0;
#X connect 6 0 7 0;
#X connect 7 0 5 0;
#X connect 7 0 10 0;
#X connect 7 0 12 0;
#X connect 8 0 9 0;
#X connect 8 0 13 0;
#X connect 9 0 15 0;
#X connect 10 0 8 0;
#X connect 10 1 8 1;
#X connect 12 0 13 0;
#X connect 12 0 26 1;
#X connect 13 0 16 0;
#X connect 14 0 12 0;
#X connect 14 1 12 1;
#X connect 17 0 21 0;
#X connect 21 0 24 0;
#X connect 22 0 4 0;
#X connect 22 0 23 0;
#X connect 24 0 3 0;
#X connect 24 0 22 0;
#X connect 25 0 6 0;
#X connect 27 0 31 0;
#X connect 28 0 29 0;
#X connect 28 0 31 1;
#X connect 31 0 52 0;
#X connect 32 0 35 0;
#X connect 34 0 39 0;
#X connect 38 0 46 0;
#X connect 39 0 32 0;
#X connect 44 0 45 0;
#X connect 45 0 28 0;
#X connect 47 0 48 0;
#X connect 48 0 38 0;
#X connect 49 0 27 0;
#X connect 50 0 51 0;
#X connect 51 0 52 1;
#X connect 52 0 79 0;
#X connect 54 1 75 0;
#X connect 56 0 57 0;
#X connect 57 0 55 0;
#X connect 57 0 60 0;
#X connect 57 0 62 0;
#X connect 58 0 59 0;
#X connect 58 0 63 0;
#X connect 58 0 81 0;
#X connect 59 0 65 0;
#X connect 60 0 58 0;
#X connect 60 1 58 1;
#X connect 62 0 63 0;
#X connect 62 0 77 0;
#X connect 63 0 66 0;
#X connect 64 0 62 0;
#X connect 64 1 62 1;
#X connect 67 0 71 0;
#X connect 71 0 74 0;
#X connect 72 0 54 0;
#X connect 72 0 73 0;
#X connect 74 0 53 0;
#X connect 74 0 72 0;
#X connect 75 0 56 0;
#X connect 77 0 78 0;
#X connect 78 0 79 1;
#X connect 81 0 82 0;
#X connect 82 0 83 1;
#X connect 84 0 50 0;
#X connect 85 0 28 0;
