#N canvas 0 0 450 300 10;
#X obj 681 67 loadbang;
#X obj 685 100 f \$1;
#X obj 662 141 * 4600;
#X obj 707 143 * 7200;
#X obj 753 144 * 480;
#X obj 792 144 * 720;
#X obj 627 217 bp~ 1 5;
#X obj 685 217 bp~ 1 5;
#X obj 746 217 bp~ 1 7;
#X obj 810 218 bp~ 1 8;
#X obj 723 182 inlet~;
#X obj 632 252 *~ 2;
#X obj 747 249 *~ 1.2;
#X obj 811 249 *~ 2.5;
#X obj 633 291 bp~ 2500 0.5;
#X obj 635 317 outlet~;
#X connect 0 0 1 0;
#X connect 1 0 5 0;
#X connect 1 0 4 0;
#X connect 1 0 3 0;
#X connect 1 0 2 0;
#X connect 2 0 6 1;
#X connect 3 0 7 1;
#X connect 4 0 8 1;
#X connect 5 0 9 1;
#X connect 6 0 11 0;
#X connect 7 0 11 0;
#X connect 8 0 12 0;
#X connect 9 0 13 0;
#X connect 10 0 9 0;
#X connect 10 0 8 0;
#X connect 10 0 7 0;
#X connect 10 0 6 0;
#X connect 11 0 14 0;
#X connect 12 0 14 0;
#X connect 13 0 14 0;
#X connect 14 0 15 0;
