#N canvas 1672 -8 1366 726 10;
#N canvas 828 230 450 300 wood 0;
#X obj 206 72 inlet~;
#X obj 205 207 outlet~;
#X obj -1 143 bp~ 62.5 1;
#X obj 71 145 bp~ 125 1;
#X obj 139 143 bp~ 250 2;
#X obj 201 143 bp~ 395 2;
#X obj 270 141 bp~ 560 3;
#X obj 337 142 bp~ 790 3;
#X obj 408 141 *~ 0.2;
#X connect 0 0 2 0;
#X connect 0 0 3 0;
#X connect 0 0 4 0;
#X connect 0 0 5 0;
#X connect 0 0 6 0;
#X connect 0 0 7 0;
#X connect 0 0 8 0;
#X connect 2 0 1 0;
#X connect 3 0 1 0;
#X connect 4 0 1 0;
#X connect 5 0 1 0;
#X connect 6 0 1 0;
#X connect 7 0 1 0;
#X connect 8 0 1 0;
#X restore 692 123 pd wood;
#N canvas 793 130 450 529 stickslip 1;
#X obj 257 38 inlet force;
#X obj 259 84 line;
#X obj 259 106 t f f;
#X obj 259 130 > 0.3;
#X obj 257 150 change;
#X obj 256 258 metro;
#X obj 257 289 t b b;
#X obj 257 320 t b b;
#X obj 256 345 timer;
#X obj 256 367 min 100;
#X obj 255 388 / 100;
#X obj 252 411 sqrt;
#X obj 252 440 t f f;
#X obj 253 472 + 0.1;
#X obj 254 497 sqrt;
#X msg 254 551 \$1 \, 0 \$2;
#X obj 254 524 pack f f;
#X obj 252 575 vline~;
#X obj 254 601 *~;
#X obj 256 627 outlet~ pulse;
#X obj 322 135 swap 1;
#X obj 329 161 -;
#X obj 329 187 t f f;
#X obj 329 227 random 1000;
#X obj 328 249 / 1000;
#X obj 333 301 * 6;
#X obj 317 328 *;
#X obj 364 303 * 60;
#X obj 365 330 + 3;
#X obj 325 398 +;
#X msg 259 62 \$1 100;
#X connect 0 0 30 0;
#X connect 1 0 2 0;
#X connect 2 0 3 0;
#X connect 2 1 20 0;
#X connect 3 0 4 0;
#X connect 4 0 5 0;
#X connect 5 0 6 0;
#X connect 6 0 7 0;
#X connect 6 1 23 0;
#X connect 7 0 8 0;
#X connect 7 1 8 1;
#X connect 8 0 9 0;
#X connect 9 0 10 0;
#X connect 10 0 11 0;
#X connect 11 0 12 0;
#X connect 12 0 13 0;
#X connect 12 1 16 1;
#X connect 13 0 14 0;
#X connect 14 0 16 0;
#X connect 15 0 17 0;
#X connect 16 0 15 0;
#X connect 17 0 18 0;
#X connect 17 0 18 1;
#X connect 18 0 19 0;
#X connect 20 0 21 0;
#X connect 20 1 21 1;
#X connect 21 0 22 0;
#X connect 22 0 25 0;
#X connect 22 1 27 0;
#X connect 23 0 24 0;
#X connect 24 0 26 0;
#X connect 25 0 26 1;
#X connect 26 0 29 0;
#X connect 27 0 28 0;
#X connect 28 0 29 1;
#X connect 29 0 5 1;
#X connect 30 0 1 0;
#X restore 690 95 pd stickslip;
#N canvas 0 0 450 300 squarepanel 0;
#X obj 689 252 dfbef 4.25 0.5;
#X obj 728 288 dfbef 5.06 0.05;
#X obj 715 323 dfbef 6.27 0.05;
#X obj 722 357 dfbef 8 0.05;
#X obj 671 199 inlet~;
#X obj 701 429 hip~ 125;
#X obj 704 465 outlet~;
#X connect 0 0 5 0;
#X connect 1 0 5 0;
#X connect 2 0 5 0;
#X connect 3 0 5 0;
#X connect 4 0 0 0;
#X connect 4 0 1 0;
#X connect 4 0 2 0;
#X connect 4 0 3 0;
#X connect 5 0 6 0;
#X restore 694 153 pd squarepanel;
#X obj 691 278 dac~;
#X obj 631 65 vsl 15 128 0 1 0 0 empty empty empty 0 -9 0 10 -262144
-1 -1 3000 1;
#X obj 696 216 *~ 0.07;
#X connect 0 0 2 0;
#X connect 1 0 0 0;
#X connect 2 0 5 0;
#X connect 4 0 1 0;
#X connect 5 0 3 0;
#X connect 5 0 3 1;
