#N canvas 0 0 697 602 10;
#X floatatom 259 75 5 0 0 0 - - -;
#X msg 369 151 12;
#X obj 261 265 +;
#X msg 209 149 -12;
#X msg 276 152 0;
#X obj 333 92 sel 0 1;
#X obj 171 91 sel 0 1;
#X floatatom 283 303 5 0 0 0 - - -;
#X obj 253 54 +;
#X obj 10 -181 inlet note number;
#X obj 257 352 outlet;
#X obj 256 326 mtof;
#X obj 247 -78 t b f;
#X obj 251 -113 average 10;
#X text 298 -52 change to a detune \, not a transpose(!?);
#X obj 263 -51 / 127;
#X obj 160 -140 inlet low;
#X obj 402 -136 inlet high;
#X obj 254 -140 inlet yaxis;
#X obj 231 227 bng 15 250 50 0 empty empty empty 17 7 0 10 -262144
-1 -1;
#X connect 1 0 2 1;
#X connect 2 0 7 0;
#X connect 2 0 11 0;
#X connect 3 0 2 1;
#X connect 4 0 2 1;
#X connect 5 0 4 0;
#X connect 5 1 1 0;
#X connect 6 0 4 0;
#X connect 6 1 3 0;
#X connect 8 0 2 0;
#X connect 8 0 0 0;
#X connect 9 0 8 0;
#X connect 11 0 10 0;
#X connect 12 0 8 0;
#X connect 12 1 15 0;
#X connect 13 0 12 0;
#X connect 15 0 8 1;
#X connect 16 0 6 0;
#X connect 17 0 5 0;
#X connect 18 0 13 0;
#X connect 19 0 2 0;
