#N canvas 481 163 334 287 10;
#X obj 61 89 mtof;
#X obj 57 231 outlet~;
#X obj 57 22 inlet;
#X obj 150 157 env4seg;
#X obj 160 121 r ampenv;
#X obj 57 54 unpack 0 0;
#X obj 57 179 vectorsynth;
#X connect 0 0 6 0;
#X connect 2 0 5 0;
#X connect 4 0 3 1;
#X connect 5 0 0 0;
#X connect 5 1 3 0;
#X connect 5 1 6 1;
#X connect 6 0 1 0;
