#N canvas 0 41 621 636 10;
#X obj 44 57 inlet~;
#X obj 57 118 pack f 20;
#X obj 57 138 line;
#X obj 44 158 *~;
#X obj 43 357 s~ \$1-vocoder;
#N canvas 455 218 816 603 vocoder 1;
#X obj 74 107 inlet~;
#X obj 45 485 outlet~;
#X obj 558 95 inlet;
#X obj 45 460 *~;
#X obj 61 127 *~;
#X obj 61 147 rfft~;
#X obj 61 174 *~;
#X obj 86 174 *~;
#X obj 61 194 +~;
#X obj 61 214 sqrt~;
#X obj 198 88 phasor~;
#X obj 186 141 *~;
#X obj 186 162 rfft~;
#X obj 186 422 *~;
#X obj 217 421 *~;
#X obj 186 443 rifft~;
#X obj 230 378 *~;
#X obj 230 398 *~;
#X obj 283 214 sig~ 1e-020;
#X obj 243 238 rsqrt~;
#X obj 243 194 *~;
#X obj 267 194 *~;
#X obj 243 215 +~;
#X obj 243 258 clip~ 0 13.69;
#X obj 260 381 sig~ 0.001;
#X obj 377 123 loadbang;
#X obj 377 144 t b b;
#X obj 377 186 t b b f f;
#X obj 391 365 sig~ 0.5;
#X obj 391 387 -~;
#X obj 449 230 t b f;
#X obj 449 250 samplerate~;
#X obj 449 270 /;
#X obj 449 290 * 4;
#X obj 449 310 sig~;
#X obj 449 330 phasor~;
#X obj 449 349 cos~;
#X msg 486 310 0;
#X obj 316 194 * 0.01;
#X obj 316 174 *;
#X obj 316 154 t f f;
#X obj 316 114 inlet;
#X obj 316 238 max 0;
#X obj 420 164 f 4;
#X obj 377 164 f 1024;
#X obj 46 54 tabreceive~ variable;
#X obj 377 408 tabwrite~ variable;
#X msg 496 203 resize \$1;
#X obj 496 223 s variable;
#X obj 557 75 table variable;
#X obj 316 134 max 0.01;
#X obj 449 370 *~ 0.5;
#X obj 199 121 +~;
#X obj 246 100 phasor~;
#X msg 283 53 0.18;
#X msg 199 57 43.0664;
#X msg 246 80 86.1328;
#X obj 199 36 loadbang;
#X obj 558 117 block~ 1024 4;
#X floatatom 447 127 5 0 0 0 - - -;
#X connect 0 0 4 1;
#X connect 2 0 54 0;
#X connect 2 0 58 0;
#X connect 3 0 1 0;
#X connect 4 0 5 0;
#X connect 5 0 6 0;
#X connect 5 0 6 1;
#X connect 5 1 7 0;
#X connect 5 1 7 1;
#X connect 6 0 8 0;
#X connect 7 0 8 1;
#X connect 8 0 9 0;
#X connect 9 0 16 0;
#X connect 10 0 52 0;
#X connect 11 0 12 0;
#X connect 12 0 13 0;
#X connect 12 0 20 0;
#X connect 12 0 20 1;
#X connect 12 1 21 0;
#X connect 12 1 21 1;
#X connect 13 0 15 0;
#X connect 14 0 15 1;
#X connect 15 0 3 1;
#X connect 16 0 17 0;
#X connect 17 0 14 1;
#X connect 17 0 13 1;
#X connect 18 0 19 0;
#X connect 19 0 23 0;
#X connect 20 0 22 0;
#X connect 21 0 22 1;
#X connect 22 0 19 0;
#X connect 23 0 16 1;
#X connect 24 0 17 1;
#X connect 25 0 26 0;
#X connect 26 0 44 0;
#X connect 26 1 43 0;
#X connect 27 0 46 0;
#X connect 27 1 37 0;
#X connect 27 2 30 0;
#X connect 27 3 47 0;
#X connect 28 0 29 0;
#X connect 29 0 46 0;
#X connect 30 0 31 0;
#X connect 30 1 32 1;
#X connect 31 0 32 0;
#X connect 32 0 33 0;
#X connect 33 0 34 0;
#X connect 34 0 35 0;
#X connect 35 0 36 0;
#X connect 36 0 51 0;
#X connect 37 0 35 1;
#X connect 38 0 42 0;
#X connect 39 0 38 0;
#X connect 40 0 39 0;
#X connect 40 1 39 1;
#X connect 41 0 50 0;
#X connect 42 0 23 2;
#X connect 43 0 33 1;
#X connect 44 0 27 0;
#X connect 45 0 3 0;
#X connect 45 0 11 0;
#X connect 45 0 4 0;
#X connect 47 0 48 0;
#X connect 50 0 40 0;
#X connect 51 0 29 1;
#X connect 52 0 11 1;
#X connect 53 0 52 1;
#X connect 54 0 53 1;
#X connect 54 0 10 1;
#X connect 55 0 10 0;
#X connect 56 0 53 0;
#X connect 57 0 55 0;
#X connect 57 0 56 0;
#X connect 59 0 43 0;
#X connect 59 0 26 0;
#X restore 44 300 pd vocoder;
#X obj 44 244 *~;
#X obj 57 204 pack f 20;
#X obj 57 224 line;
#X obj 60 100 hsl 128 15 0.01 1 1 0 empty empty Volume -2 -8 0 10 -262144
-1 -1 0 1;
#X obj 57 181 tgl 15 0 empty empty Toggle(On)(Off) 17 7 0 10 -262144
-1 -1 0 1;
#X obj 72 280 nbx 5 14 1 137 0 0 empty empty Squelch 0 -8 0 10 -262144
-1 -1 1 256;
#X text 43 29 Incoming Audio | Use “pd vododer” in some other patch
to include this abstraction into a larger application.;
#X text 40 375 Outgoing Audio | Send this audio out to a larger application
and eventuall to ~dac;
#X connect 0 0 3 0;
#X connect 1 0 2 0;
#X connect 2 0 3 1;
#X connect 3 0 6 0;
#X connect 5 0 4 0;
#X connect 6 0 5 0;
#X connect 7 0 8 0;
#X connect 8 0 6 1;
#X connect 9 0 1 0;
#X connect 10 0 5 2;
#X connect 10 0 7 0;
#X connect 11 0 5 1;
