#N canvas 0 0 761 475 10;
#X obj 174 -75 adc~;
#X obj 194 -46 s~ modulator;
#X obj 318 38 phasor~;
#X obj 317 66 expr~ $v1 > 0.1;
#X obj 316 94 s~ carrier;
#X floatatom 318 13 5 0 0 0 - - -;
#X obj 9 -73 voice 100 1;
#X obj 372 37 s tick;
#X obj 372 6 metro 20;
#X obj 435 161 s q;
#X floatatom 436 104 5 0 0 0 - - -;
#X obj 9 -52 voice 200 2;
#X obj 9 -31 voice 250 3;
#X obj 9 -10 voice 400 4;
#X obj 9 10 voice 650 5;
#X obj 9 31 voice 800 6;
#X obj 9 52 voice 1100 7;
#X obj 9 73 voice 1200 8;
#X obj 89 -73 voice 1300 9;
#X obj 89 -53 voice 1500 10;
#X obj 89 -33 voice 1700 11;
#X obj 89 -13 voice 2000 12;
#X obj 89 9 voice 2200 13;
#X obj 89 29 voice 2500 14;
#X obj 89 49 voice 2800 15;
#X obj 89 69 voice 3000 16;
#N canvas 0 0 629 415 out 0;
#X obj 56 418 outlet~;
#X obj 7 179 r~ voice_1;
#X obj 79 179 r~ voice_2;
#X obj 147 179 r~ voice_3;
#X obj 219 179 r~ voice_4;
#X obj 50 247 r~ voice_5;
#X obj 122 247 r~ voice_6;
#X obj 190 247 r~ voice_7;
#X obj 262 247 r~ voice_8;
#X obj 221 303 r~ voice_9;
#X obj 293 303 r~ voice_10;
#X obj 367 303 r~ voice_11;
#X obj 439 303 r~ voice_12;
#X obj 167 346 r~ voice_13;
#X obj 239 346 r~ voice_14;
#X obj 315 346 r~ voice_15;
#X obj 392 345 r~ voice_16;
#X connect 1 0 0 0;
#X connect 2 0 0 0;
#X connect 3 0 0 0;
#X connect 4 0 0 0;
#X connect 5 0 0 0;
#X connect 6 0 0 0;
#X connect 7 0 0 0;
#X connect 8 0 0 0;
#X connect 9 0 0 0;
#X connect 10 0 0 0;
#X connect 11 0 0 0;
#X connect 12 0 0 0;
#X connect 13 0 0 0;
#X connect 14 0 0 0;
#X connect 15 0 0 0;
#X connect 16 0 0 0;
#X restore 316 121 pd out;
#X obj 316 193 dac~;
#X obj 317 156 hip~ 2000;
#X msg 318 -23 60;
#X obj 318 -71 loadbang;
#X msg 436 59 7;
#X msg 445 5 \; pd dsp 1;
#X obj 188 8 comment 0 20 Times ? 0 0 0 0 Carrier freq =>;
#X obj 475 128 clip 4 10;
#X connect 0 1 1 0;
#X connect 2 0 3 0;
#X connect 3 0 4 0;
#X connect 5 0 2 0;
#X connect 8 0 7 0;
#X connect 10 0 34 0;
#X connect 26 0 28 0;
#X connect 28 0 27 0;
#X connect 28 0 27 1;
#X connect 29 0 5 0;
#X connect 30 0 29 0;
#X connect 30 0 8 0;
#X connect 30 0 31 0;
#X connect 30 0 32 0;
#X connect 31 0 10 0;
#X connect 34 0 9 0;
