#N canvas 543 59 823 709 10;
#X floatatom 305 67 5 0 0 0 - - -;
#X floatatom 266 66 5 0 0 0 - - -;
#X floatatom 163 330 5 0 0 0 - - -;
#X obj 16 67 route /wii/orientation;
#X obj 11 329 route /wii/button/one;
#X floatatom 163 349 5 0 0 0 - - -;
#X obj 10 348 route /wii/button/two;
#X obj 16 88 route /wii/acc;
#X floatatom 296 107 5 0 0 0 - - -;
#X floatatom 257 107 5 0 0 0 - - -;
#X floatatom 218 108 5 0 0 0 - - -;
#X obj 111 105 unpack \$1 \$1 \$1;
#X obj 174 67 unpack \$1 \$1;
#X floatatom 159 230 5 0 0 0 - - -;
#X floatatom 167 248 5 0 0 0 - - -;
#X obj 269 256 bng 15 250 50 0 empty empty empty 0 -6 0 8 -262144 -1
-1;
#X obj 13 228 route /wii/button/a;
#X obj 13 247 route /wii/button/b;
#X floatatom 168 151 5 0 0 0 - - -;
#X floatatom 179 171 5 0 0 0 - - -;
#X floatatom 162 191 5 0 0 0 - - -;
#X floatatom 167 207 5 0 0 0 - - -;
#X obj 16 150 route /wii/button/left;
#X obj 15 169 route /wii/button/right;
#X obj 15 187 route /wii/button/up;
#X obj 13 206 route /wii/button/down;
#X obj 205 246 sel 1;
#X obj 267 328 bng 15 250 50 0 empty empty empty 0 -6 0 8 -262144 -1
-1;
#X obj 202 325 sel 1;
#X obj 267 348 bng 15 250 50 0 empty empty empty 0 -6 0 8 -262144 -1
-1;
#X obj 204 345 sel 1;
#X obj 269 239 bng 15 250 50 0 empty empty empty 0 -6 0 8 -262144 -1
-1;
#X obj 207 227 sel 1;
#X obj 270 192 bng 15 250 50 0 empty empty empty 0 -6 0 8 -262144 -1
-1;
#X obj 206 209 sel 1;
#X obj 255 177 bng 15 250 50 0 empty empty empty 0 -6 0 8 -262144 -1
-1;
#X obj 208 150 sel 1;
#X obj 287 178 bng 15 250 50 0 empty empty empty 0 -6 0 8 -262144 -1
-1;
#X obj 210 170 sel 1;
#X obj 271 163 bng 15 250 50 0 empty empty empty 0 -6 0 8 -262144 -1
-1;
#X obj 210 190 sel 1;
#X obj 102 45 route /wii/irdata;
#X obj 211 45 unpack \$1 \$1 \$1 \$1 \$1 \$1 \$1 \$1 \$1 \$1 \$1;
#X obj 16 44 dumpOSC 47110;
#X floatatom 244 505 5 0 0 0 - - -;
#X floatatom 280 505 5 0 0 0 - - -;
#X obj 41 9 print;
#X obj 10 505 route /nunchuk/joystick;
#X obj 154 505 unpack \$1 \$1;
#X obj 11 482 route /nunchuk/button/c;
#X obj 9 461 route /nunchuk/button/z;
#X floatatom 155 462 5 0 0 0 - - -;
#X obj 195 461 sel 1;
#X obj 234 463 bng 15 250 50 0 empty empty empty 17 7 0 10 -262144
-1 -1;
#X floatatom 156 483 5 0 0 0 - - -;
#X obj 196 482 sel 1;
#X obj 233 483 bng 15 250 50 0 empty empty empty 17 7 0 10 -262144
-1 -1;
#X obj 10 438 route /nunchuk/acc;
#X obj 10 415 route /nunchuk/orientation;
#X floatatom 256 417 5 0 0 0 - - -;
#X floatatom 293 417 5 0 0 0 - - -;
#X obj 174 417 unpack \$1 \$1;
#X floatatom 206 439 5 0 0 0 - - -;
#X floatatom 245 440 5 0 0 0 - - -;
#X obj 126 439 unpack \$1 \$1;
#X floatatom 453 47 5 0 0 0 - - -;
#X floatatom 489 47 5 0 0 0 - - -;
#X floatatom 154 271 5 0 0 0 - - -;
#X floatatom 159 287 5 0 0 0 - - -;
#X obj 198 289 sel 1;
#X obj 202 270 sel 1;
#X obj 7 267 route /wii/button/minus;
#X obj 11 286 route /wii/button/plus;
#X obj 245 282 bng 15 250 50 0 empty empty empty 17 7 0 10 -262144
-1 -1;
#X obj 294 282 bng 15 250 50 0 empty empty empty 17 7 0 10 -262144
-1 -1;
#X floatatom 165 306 5 0 0 0 - - -;
#X obj 204 308 sel 1;
#X obj 269 282 bng 15 250 50 0 empty empty empty 17 7 0 10 -262144
-1 -1;
#X obj 11 305 route /wii/button/home;
#X floatatom 112 388 5 0 0 0 - - -;
#X floatatom 178 388 5 0 0 0 - - -;
#X obj 10 368 route /wii/point;
#X obj 383 357 vsl 8 60 -2000 0 0 0 empty empty empty 0 -9 0 10 -13381
-258113 -1 0 1;
#X obj 356 383 hsl 60 8 0 2000 0 0 empty empty empty -2 -8 0 10 -13381
-258113 -1 0 1;
#X obj 112 367 unpack \$1 \$1 \$1 \$1;
#X obj 223 366 t f b;
#X obj 261 365 f \$1;
#X obj 223 387 expr $f2-$f1;
#X floatatom 301 386 5 0 0 0 - - -;
#X obj 348 67 t f b;
#X obj 386 66 f \$1;
#X obj 347 85 expr $f2-$f1;
#X obj 444 94 hsl 60 8 -80 100 0 0 empty empty empty -2 -8 0 10 -258113
-4160 -1 0 1;
#X obj 467 70 vsl 8 60 -80 100 0 0 empty empty empty 0 -9 0 10 -258113
-4160 -1 0 1;
#X obj 349 107 t f b;
#X obj 387 106 f \$1;
#X obj 349 128 expr $f2-$f1;
#X floatatom 428 128 5 0 0 0 - - -;
#X obj 538 162 knob 32 32 -200 10 0 0 empty empty empty 0 -8 0 8 -262144
-1 -1 2952 1;
#X obj 537 105 knob 32 32 100 300 0 0 empty empty empty 0 -8 0 8 -262144
-1 -1 0 1;
#X obj 349 147 t f b;
#X obj 349 169 expr int($f1/$f2)*$f2;
#X obj 386 147 f \$1;
#X msg 417 147 10;
#X obj 348 192 t f b;
#X obj 348 214 expr int($f1/$f2)*$f2;
#X obj 385 192 f \$1;
#X msg 416 192 10;
#X obj 447 148 loadbang;
#X obj 445 192 loadbang;
#X obj 315 504 + 1;
#X obj 340 504 / 2;
#X obj 365 504 * 200;
#X obj 401 503 + 1;
#X obj 428 503 / 2;
#X obj 486 271 grid grid1 200 0 199 200 0 200 0 1 1 10 10 583.917 375.167
;
#X floatatom 664 496 5 0 0 0 - - -;
#X floatatom 697 496 5 0 0 0 - - -;
#X obj 604 513 pack f f;
#X msg 595 497 goto \$1 \$2;
#X msg 663 514 bang;
#X obj 527 497 t f b;
#X obj 565 496 f \$1;
#X obj 526 514 expr $f2-$f1;
#X obj 491 500 - 200;
#X obj 453 502 * 200;
#X msg 487 476 color 223 195 133;
#X connect 0 0 89 0;
#X connect 1 0 100 0;
#X connect 2 0 28 0;
#X connect 3 0 12 0;
#X connect 4 0 2 0;
#X connect 5 0 30 0;
#X connect 6 0 5 0;
#X connect 7 0 11 0;
#X connect 9 0 99 0;
#X connect 10 0 94 0;
#X connect 11 0 10 0;
#X connect 11 1 9 0;
#X connect 11 2 8 0;
#X connect 12 0 1 0;
#X connect 12 1 0 0;
#X connect 13 0 32 0;
#X connect 14 0 26 0;
#X connect 16 0 13 0;
#X connect 17 0 14 0;
#X connect 18 0 36 0;
#X connect 19 0 38 0;
#X connect 20 0 40 0;
#X connect 21 0 34 0;
#X connect 22 0 18 0;
#X connect 23 0 19 0;
#X connect 24 0 20 0;
#X connect 25 0 21 0;
#X connect 26 0 15 0;
#X connect 28 0 27 0;
#X connect 30 0 29 0;
#X connect 32 0 31 0;
#X connect 34 0 33 0;
#X connect 36 0 35 0;
#X connect 38 0 37 0;
#X connect 40 0 39 0;
#X connect 41 0 42 0;
#X connect 42 0 65 0;
#X connect 42 1 66 0;
#X connect 43 0 3 0;
#X connect 43 0 4 0;
#X connect 43 0 6 0;
#X connect 43 0 7 0;
#X connect 43 0 16 0;
#X connect 43 0 17 0;
#X connect 43 0 22 0;
#X connect 43 0 23 0;
#X connect 43 0 24 0;
#X connect 43 0 25 0;
#X connect 43 0 41 0;
#X connect 43 0 47 0;
#X connect 43 0 50 0;
#X connect 43 0 49 0;
#X connect 43 0 58 0;
#X connect 43 0 57 0;
#X connect 43 0 71 0;
#X connect 43 0 72 0;
#X connect 43 0 78 0;
#X connect 43 0 81 0;
#X connect 44 0 110 0;
#X connect 45 0 113 0;
#X connect 47 0 48 0;
#X connect 48 0 44 0;
#X connect 48 1 45 0;
#X connect 49 0 54 0;
#X connect 50 0 51 0;
#X connect 51 0 52 0;
#X connect 52 1 53 0;
#X connect 54 0 55 0;
#X connect 55 1 56 0;
#X connect 57 0 64 0;
#X connect 58 0 61 0;
#X connect 61 0 59 0;
#X connect 61 1 60 0;
#X connect 64 0 62 0;
#X connect 64 1 63 0;
#X connect 67 0 70 0;
#X connect 68 0 69 0;
#X connect 69 0 74 0;
#X connect 70 0 73 0;
#X connect 71 0 67 0;
#X connect 72 0 68 0;
#X connect 75 0 76 0;
#X connect 76 0 77 0;
#X connect 78 0 75 0;
#X connect 79 0 83 0;
#X connect 80 0 85 0;
#X connect 81 0 84 0;
#X connect 84 0 79 0;
#X connect 84 1 80 0;
#X connect 85 0 87 0;
#X connect 85 1 86 0;
#X connect 86 0 87 1;
#X connect 87 0 88 0;
#X connect 88 0 82 0;
#X connect 89 0 91 0;
#X connect 89 1 90 0;
#X connect 90 0 91 1;
#X connect 91 0 104 0;
#X connect 94 0 96 0;
#X connect 94 1 95 0;
#X connect 95 0 96 1;
#X connect 96 0 97 0;
#X connect 96 0 98 0;
#X connect 100 0 101 0;
#X connect 100 1 102 0;
#X connect 101 0 92 0;
#X connect 102 0 101 1;
#X connect 103 0 102 1;
#X connect 104 0 105 0;
#X connect 104 1 106 0;
#X connect 105 0 93 0;
#X connect 106 0 105 1;
#X connect 107 0 106 1;
#X connect 108 0 103 0;
#X connect 109 0 107 0;
#X connect 110 0 111 0;
#X connect 111 0 112 0;
#X connect 112 0 116 0;
#X connect 113 0 114 0;
#X connect 114 0 125 0;
#X connect 116 0 118 0;
#X connect 117 0 118 1;
#X connect 117 0 120 0;
#X connect 118 0 119 0;
#X connect 119 0 115 0;
#X connect 120 0 116 0;
#X connect 121 0 123 0;
#X connect 121 1 122 0;
#X connect 122 0 123 1;
#X connect 123 0 117 0;
#X connect 124 0 121 0;
#X connect 125 0 124 0;
#X connect 126 0 115 0;
