#N canvas 0 0 761 561 10;
#X obj 156 135 sig~;
#X obj 40 126 sig~;
#X obj 93 129 sig~;
#X obj 44 319 metro 100;
#X obj 43 300 bng 15 250 50 0 empty empty empty 17 7 0 10 -262144 -1
-1;
#X obj 171 330 metro 100;
#X obj 171 312 bng 15 250 50 0 empty empty empty 17 7 0 10 -262144
-1 -1;
#X obj 298 301 metro 100;
#X obj 297 283 bng 15 250 50 0 empty empty empty 17 7 0 10 -262144
-1 -1;
#X obj 92 87 r oscxr;
#X obj 326 96 r osczr;
#X obj 208 112 r oscyr;
#X obj 153 112 r oscyl;
#X obj 275 103 r osczl;
#X obj 44 89 r oscxl;
#X obj 183 165 +~;
#X obj 288 167 +~;
#X obj 208 131 sig~;
#X obj 276 136 sig~;
#X obj 321 137 sig~;
#X obj 228 327 tabplay~;
#X obj 96 -46 inlet;
#X obj 523 376 outlet~;
#X obj 75 247 *~;
#X obj 242 223 *~;
#X obj 335 239 *~;
#X floatatom 89 159 5 0 0 0 - - -;
#X obj 45 189 -~ 1;
#X obj 94 204 phasor~ 220;
#X obj 40 149 +~;
#X obj 169 193 -~ 1;
#X obj 227 177 phasor~;
#X obj 294 204 -~ 1;
#X obj 335 203 osc~;
#X obj 43 338 tabwrite~ \$0-xaxis;
#X obj 171 351 tabwrite~ \$0-yaxis;
#X obj 298 322 tabwrite~ \$0-zaxis;
#X obj 596 38 table \$0-xaxis;
#X obj 598 63 table \$0-yaxis;
#X obj 612 87 table \$0-zaxis;
#X obj 458 122;
#X text 200 40 read the raw xlrmtr data then apply mtof then to sig
object;
#X connect 0 0 15 0;
#X connect 1 0 29 0;
#X connect 2 0 29 1;
#X connect 3 0 34 0;
#X connect 4 0 3 0;
#X connect 5 0 35 0;
#X connect 6 0 5 0;
#X connect 7 0 36 0;
#X connect 8 0 7 0;
#X connect 9 0 2 0;
#X connect 10 0 19 0;
#X connect 11 0 17 0;
#X connect 12 0 0 0;
#X connect 13 0 18 0;
#X connect 14 0 1 0;
#X connect 15 0 30 0;
#X connect 16 0 32 0;
#X connect 17 0 15 1;
#X connect 18 0 16 0;
#X connect 19 0 16 1;
#X connect 21 0 28 0;
#X connect 21 0 31 0;
#X connect 21 0 33 0;
#X connect 23 0 22 0;
#X connect 23 0 34 0;
#X connect 24 0 22 0;
#X connect 24 0 35 0;
#X connect 25 0 22 0;
#X connect 25 0 36 0;
#X connect 26 0 27 1;
#X connect 27 0 23 0;
#X connect 27 0 22 0;
#X connect 27 0 34 0;
#X connect 28 0 23 1;
#X connect 29 0 27 0;
#X connect 30 0 22 0;
#X connect 30 0 24 0;
#X connect 30 0 35 0;
#X connect 31 0 24 1;
#X connect 32 0 25 1;
#X connect 32 0 22 0;
#X connect 33 0 25 0;
